<svg viewBox="0 0 116 144" fill="none" xmlns="http://www.w3.org/2000/svg">
<mask id="mask0_2668_319" style="mask-type:alpha" maskUnits="userSpaceOnUse" x="0" y="0" width="116" height="144">
<rect x="0.453125" y="0.523438" width="115.219" height="143.373" fill="white"/>
</mask>
<g mask="url(#mask0_2668_319)">
<path d="M65.8844 39.1321C64.1977 39.0737 62.9036 36.911 62.994 34.3014C63.0843 31.6919 64.5249 29.6238 66.2116 29.6822C67.8983 29.7406 69.1924 31.9034 69.102 34.5129C69.0117 37.1224 67.5711 39.1905 65.8844 39.1321Z" fill="#BA7367"/>
<path d="M66.1729 37.5005L66.346 31.2722L66.9836 31.2958L66.9027 34.2109C67.3645 34.062 67.7764 33.9262 67.8391 33.8996L68.1152 34.4914C68.0906 34.5039 68.0172 34.5413 66.8832 34.904L66.8104 37.5237L66.1729 37.5005Z" fill="#914F46"/>
<path d="M30.0778 132.459C25.321 146.661 28.3789 244.177 33.4755 248.765C38.5721 253.352 52.3331 252.162 53.1825 249.614C54.0319 247.066 53.8464 161.441 55.0434 163.14C56.2404 164.839 57.7695 250.498 61.337 253.114C64.9048 255.73 81.3838 255.56 82.5731 250.633C83.7624 245.706 88.0095 146.321 77.9861 133.41C67.9627 120.498 30.0778 132.459 30.0778 132.459Z" fill="#D6D2C4"/>
<path d="M45.6225 157.004L45.9373 156.323C46.0114 156.357 52.7769 159.486 54.5229 160.233C54.4637 158.256 54.3953 156.182 54.333 154.402C53.2515 154.141 49.6059 152.945 48.6301 148.52C47.5092 143.438 49.7009 133.34 49.8359 133.071C50.0165 132.71 50.356 132.848 51.1007 133.15C51.5095 133.316 52.0723 133.558 52.7743 133.868C53.9655 134.396 55.1635 134.948 55.1753 134.954L55.4202 135.075L55.3899 135.344C55.3303 135.873 55.137 149.062 55.0676 154.1L55.0669 154.134L55.074 154.133C55.1609 156.602 55.2272 158.628 55.2774 160.293C56.304 159.948 58.6216 158.582 59.8334 157.868C60.9163 157.229 61.5437 156.862 61.8405 156.751L62.1035 157.453C61.8536 157.547 61.0567 158.016 60.2137 158.514C57.7109 159.989 56.1864 160.826 55.2996 161.053C55.303 161.175 55.3067 161.294 55.3101 161.412C56.0874 161.208 57.567 160.575 59.7324 159.518C60.3039 159.238 60.4013 159.192 60.4808 159.172L60.6097 159.688L60.6862 159.892C60.6283 159.914 60.3528 160.049 60.0611 160.191C57.9668 161.214 56.3218 161.952 55.331 162.164C55.3791 163.927 55.4034 165.154 55.4135 166.011C55.2851 164.324 55.1619 163.309 55.042 163.139C54.9062 162.946 54.7884 163.879 54.6846 165.684C54.6843 165.686 54.6843 165.688 54.6839 165.691C54.6661 164.827 54.6099 163.301 54.5792 162.197C53.4735 161.92 46.9016 159.005 46.1479 158.67L46.4523 157.985C48.3647 158.835 53.2687 160.982 54.557 161.409C54.5536 161.291 54.5502 161.172 54.5465 161.052C53.4138 160.607 45.9458 157.153 45.6225 157.004ZM54.6307 135.529C52.9477 134.755 51.1539 133.964 50.4429 133.696C50.0266 135.549 48.4122 144.052 49.3624 148.359C50.2121 152.212 53.2037 153.341 54.3239 153.633C54.3657 150.613 54.5489 137.669 54.6307 135.529Z" fill="#C1BBA7"/>
<path d="M74.4827 133.326C74.4871 133.367 74.9354 137.429 75.8367 138.861C76.3052 139.605 78.58 139.791 80.5854 139.742C80.648 139.986 80.71 140.233 80.771 140.487C78.8932 140.548 75.9465 140.443 75.2021 139.26C74.3615 137.925 73.9078 134.781 73.7771 133.742H72.5599C72.8182 135.753 73.5551 139.947 74.6151 140.732C75.5177 141.401 78.9074 141.735 81.0852 141.875C81.1391 142.127 81.1919 142.382 81.2441 142.641C79.1987 142.523 75.3325 142.197 74.1691 141.335C72.5622 140.144 71.8418 134.094 71.7647 133.409L71.7179 132.992H74.4467L74.4827 133.326Z" fill="#C1BBA7"/>
<path d="M28.8206 139.564C30.8829 140.081 34.028 140.78 35.0233 140.555C35.9953 140.335 36.1247 136.544 36.1802 134.925C36.2244 133.63 36.2466 133.335 36.3793 133.149L36.9892 133.585C37.0108 133.555 37.0182 133.532 37.0186 133.531C36.9731 133.671 36.9498 134.351 36.9293 134.95C36.8215 138.106 36.6073 140.966 35.1883 141.286C34.9919 141.331 34.7488 141.35 34.4696 141.35C33.0627 141.35 30.3999 140.843 28.7317 140.434C28.761 140.138 28.7903 139.848 28.8206 139.564Z" fill="#C1BBA7"/>
<path d="M28.9184 138.7C28.95 138.428 28.982 138.16 29.0147 137.9C30.5718 138.626 33.4363 139.587 33.9964 138.643C34.986 136.977 34.4609 133.459 34.4559 133.424L35.1968 133.31C35.2207 133.465 35.7681 137.128 34.6414 139.026C33.7647 140.502 30.5839 139.462 28.9184 138.7Z" fill="#C1BBA7"/>
<path d="M79.6645 128.376C79.6645 128.376 83.8979 134.385 82.5324 135.204C81.167 136.023 64.3694 135.272 64.301 135.75C64.2326 136.228 63.1579 136.923 63.0895 136.991C63.0211 137.059 45.728 136.843 45.5232 135.818C45.3184 134.794 44.7721 134.172 44.4306 134.142C44.0891 134.111 26.4723 134.589 26.3356 133.838C26.1988 133.087 31.7983 127.078 31.7983 127.078L79.6645 128.376Z" fill="#EFEBE1"/>
<path d="M35.0639 128.21C35.1275 128.058 35.2478 127.999 35.3707 128.002C35.3896 127.843 35.4953 127.693 35.6984 127.668C36.6533 127.551 37.5593 127.894 38.4373 128.223C39.3346 128.56 40.2464 128.854 41.1726 129.1C42.0961 129.345 43.0463 129.565 44.0048 129.722C44.6697 129.159 45.383 128.652 46.1395 128.216C46.2624 128.145 46.385 128.15 46.4871 128.197C46.5369 128.165 46.5928 128.144 46.6521 128.146C50.6372 128.229 54.623 128.278 58.6088 128.292C59.6348 128.296 60.6603 128.296 61.6862 128.295C61.664 128.161 61.6499 128.026 61.6472 127.888L68.6565 128.078C68.6484 128.121 68.636 128.163 68.6138 128.201C70.0445 130.468 71.3827 132.909 71.4844 135.596C71.2355 135.594 70.9886 135.593 70.7444 135.591C70.6477 132.975 69.2473 130.58 67.8495 128.394C66.8937 128.447 65.9358 128.466 64.9786 128.446C64.4424 128.434 63.9051 128.415 63.3703 128.377C63.2918 128.371 63.214 128.363 63.1366 128.353C63.8577 129.675 64.5458 131.029 65.0746 132.433C65.4555 133.444 65.7296 134.516 65.8014 135.595C65.5154 135.602 65.2622 135.611 65.0506 135.623C64.9802 134.592 64.7081 133.571 64.3363 132.6C63.8752 131.395 63.2986 130.229 62.6863 129.089C62.7678 129.345 62.8452 129.604 62.9143 129.864C63.0907 130.531 63.2282 131.21 63.3235 131.894C63.4313 132.664 63.4804 133.44 63.4791 134.216H62.7324C62.7321 133.401 62.6721 132.585 62.5505 131.778C62.4485 131.101 62.3023 130.432 62.113 129.773C62.0426 129.528 61.9574 129.286 61.8792 129.043C57.9436 129.047 54.008 129.019 50.0731 128.956C49.0472 128.939 48.0213 128.919 46.9953 128.899C46.9186 129.102 46.7909 129.293 46.706 129.495C46.6434 129.644 46.5939 129.798 46.5514 129.954C46.5982 129.954 46.6454 129.958 46.6925 129.958C47.709 129.956 48.7131 129.812 49.6554 129.419C50.1021 129.233 50.3473 129.942 49.9034 130.127C48.7875 130.592 47.5915 130.728 46.3945 130.699C46.2715 131.396 46.1833 132.101 46.089 132.802C45.9836 133.585 45.8805 134.372 45.8296 135.162C45.8111 135.449 45.8041 135.738 45.8162 136.026C45.6383 135.961 45.5333 135.892 45.5184 135.819C45.4288 135.37 45.2736 134.999 45.0988 134.72C45.1513 134.116 45.2406 133.515 45.3164 132.935C45.4157 132.176 45.5181 131.415 45.641 130.66C45.2456 130.629 44.8519 130.584 44.4625 130.53C44.3942 130.521 44.3261 130.509 44.2581 130.499C43.0712 131.55 42.0675 132.8 41.2935 134.19C41.018 134.195 40.7307 134.2 40.4316 134.204C41.1743 132.77 42.1541 131.462 43.3167 130.344C41.7863 130.066 40.2797 129.665 38.8105 129.152C37.8345 128.811 36.8271 128.288 35.7651 128.415C35.7624 128.457 35.7543 128.499 35.7358 128.544C34.9706 130.371 34.4452 132.3 34.1777 134.264C33.9268 134.264 33.6776 134.264 33.4304 134.263C33.7045 132.185 34.2508 130.152 35.0639 128.21ZM45.7872 129.925C45.8175 129.804 45.8502 129.682 45.8886 129.562C45.9334 129.423 45.9846 129.287 46.0412 129.152C45.6936 129.373 45.3578 129.61 45.0321 129.86C45.2837 129.888 45.5356 129.91 45.7872 129.925Z" fill="#DDD7CA"/>
<path d="M71.7014 54.4221C71.7014 54.4221 76.8757 54.0527 82.914 62.3196C82.914 62.3196 83.134 61.7073 83.7924 61.2543C83.7924 61.2543 83.2727 59.2685 84.1225 58.6646C84.3866 58.477 90.9352 58.2305 92.7627 58.8751C93.2322 59.0408 93.2588 61.8013 93.3147 61.8606C93.44 61.9933 94.7754 62.5463 95.0031 62.9666C101.483 74.9355 101.434 96.2501 96.1924 101.92C91.2282 107.289 82.1933 101.178 82.1933 101.178C82.1933 101.178 86.0198 127.079 81.4587 129.58C74.8869 133.184 31.9266 131.012 28.7208 128.788C24.2945 125.717 26.5214 121.545 26.5214 121.545C26.5214 121.545 26.3689 115.479 26.5214 107.998C26.7319 97.6856 27.1183 84.6996 25.6279 81.3456C21.4097 71.8544 17.9433 67.4506 23.8724 61.1075C28.6265 56.0216 35.8729 53.9604 35.8729 53.9604C35.8729 53.9604 26.9438 42.2751 50.7383 42.2751C77.9973 42.2748 77.1506 51.0214 71.7014 54.4221Z" fill="#6A5B8E"/>
<path d="M59.2118 60.0811L59.1762 59.3324C66.7469 58.9686 70.2252 56.2017 71.7176 54.422C71.7381 54.4207 72.0981 54.4012 72.7246 54.513C71.3093 56.4045 67.6668 59.6749 59.2118 60.0811Z" fill="#594E7C"/>
<path d="M71.7181 54.4183C71.7218 54.4142 71.7256 54.4094 71.7293 54.4053C71.7315 54.4053 71.7357 54.4053 71.7383 54.4053C71.7316 54.4094 71.7248 54.4138 71.7181 54.4183Z" fill="#594E7C"/>
<path d="M35.8759 53.9601C37.3057 55.532 41.7863 59.2092 47.6973 59.6825L47.6323 60.4083C42.1514 59.9698 37.0753 56.5761 35.0157 54.2393C35.5573 54.0514 35.8759 53.9601 35.8759 53.9601Z" fill="#594E7C"/>
<path d="M60.2748 54.2692C60.3354 54.2504 66.2757 51.6597 66.0359 49.5021C65.9925 49.1104 65.9113 48.3815 60.2004 47.8311C57.1236 47.5347 53.1082 47.3741 49.7175 47.4141C43.7755 47.4832 43.5967 48.0558 43.5004 48.3633C43.0619 49.7671 46.142 52.4192 47.0965 53.1985L47.5704 52.6179C45.8533 51.2154 44.1201 49.334 44.2036 48.6452C45.3124 47.9682 56.552 47.975 62.4657 48.8571C64.7921 49.204 65.2222 49.5377 65.2933 49.6155C65.3603 50.8786 61.0727 53.1625 60.0383 53.5582L60.2748 54.2692Z" fill="#594E7C"/>
<path d="M61.1799 59.5271L61.7188 76.4868L60.969 76.5023L60.357 59.6292C60.6066 59.5972 60.9306 59.5625 61.1799 59.5271Z" fill="#D6D2C4"/>
<path d="M45.5871 59.3862C45.8343 59.4044 46.0812 59.426 46.3281 59.4489C46.1634 61.8729 46.1816 70.5289 46.2402 76.0832L45.4908 76.0913C45.4901 76.0488 45.446 71.8118 45.4487 67.5687C45.4517 62.6159 45.5117 60.4051 45.5871 59.3862Z" fill="#D6D2C4"/>
<path d="M61.5957 73.9604C62.2117 73.9476 62.43 75.3464 62.1477 75.5518C61.8655 75.7573 60.6075 75.8469 60.5307 75.4491C60.4536 75.0513 60.5563 74.0372 60.98 73.9601C61.4034 73.8833 61.5957 73.9604 61.5957 73.9604Z" fill="#D6D2C4"/>
<path d="M45.8382 73.9523C46.6991 73.9267 46.8897 75.021 46.6927 75.2884C46.4956 75.5559 45.0012 75.597 44.919 75.146C44.8368 74.6947 44.8887 73.9806 45.8382 73.9523Z" fill="#D6D2C4"/>
<path d="M61.4834 41.3638C61.4949 41.6268 61.6903 53.2942 61.4339 53.6627C61.1776 54.0312 54.8743 57.8179 53.5627 57.7654C52.2508 57.7128 46.3109 52.5304 46.3109 52.5304L46.5359 41.2385L61.4834 41.3638Z" fill="#BA7367"/>
<path d="M61.4855 41.3636C61.4969 41.6267 61.8051 51.5137 61.5488 51.8822C61.2925 52.2506 54.6671 55.9583 53.3553 55.9054C52.0434 55.8525 46.3268 51.8122 46.3268 51.8122L46.5376 41.2377L61.4855 41.3636Z" fill="#914F46"/>
<path d="M63.2181 17.0578C64.3033 18.6101 65.463 23.8074 66.0527 30.0721C66.9928 40.0605 65.6755 51.1627 55.2075 51.1614C41.4593 51.1597 41.9197 33.5028 41.9197 33.5028L40.6819 31.0536C40.6819 31.0536 37.8706 18.9601 45.143 14.8803C50.3463 11.9612 60.5553 13.2481 63.2181 17.0578Z" fill="#BA7367"/>
<path d="M38.0835 35.6263C37.7121 33.0373 38.7631 30.7446 40.431 30.5053C42.0989 30.2661 43.7521 32.1709 44.1235 34.7598C44.4948 37.3488 43.4438 39.6415 41.7759 39.8807C40.108 40.12 38.4548 38.2152 38.0835 35.6263Z" fill="#BA7367"/>
<path d="M49.3669 32.6942C49.2928 32.4137 49.2416 32.0833 49.2258 31.7266C49.1803 30.705 49.4356 29.8667 49.796 29.8543C50.1564 29.8418 50.4855 30.6599 50.5309 31.6815C50.5464 32.0277 50.5266 32.3517 50.4804 32.6306C50.1093 32.6484 49.7381 32.672 49.3669 32.6942Z" fill="#51424E"/>
<path d="M60.4893 32.1103C60.426 31.8473 60.3829 31.5445 60.3684 31.2205C60.3229 30.1989 60.5782 29.3606 60.9386 29.3482C61.299 29.3357 61.6281 30.1538 61.6735 31.1753C61.688 31.5024 61.6715 31.8102 61.6308 32.0783C61.2502 32.0817 60.8696 32.0928 60.4893 32.1103Z" fill="#51424E"/>
<path d="M54.9725 37.7179C56.1369 37.6825 58.4925 37.3524 58.9856 35.2989C59.7073 32.2932 55.7899 29.4576 55.6225 29.3384L55.2591 29.8759C55.2965 29.9026 58.9829 32.5728 58.3665 35.1413C57.8475 37.3029 54.406 37.058 54.371 37.0553L54.3235 37.7081C54.3622 37.7111 54.6098 37.729 54.9725 37.7179Z" fill="#914F46"/>
<path d="M66.0179 29.7243L65.64 32.4069L65.3163 32.4167C65.3163 32.4167 64.6791 25.6546 64.6013 25.2531C64.5235 24.8517 63.609 23.9302 63.6003 23.6388C63.5915 23.3475 62.8037 18.4317 61.9752 17.7615C61.1463 17.0912 46.4634 17.6423 45.9374 18.3088C45.4113 18.9754 45.8201 23.9585 45.739 24.1626C45.6578 24.367 44.3679 25.5206 44.224 25.8166C44.0802 26.1127 44.2762 33.3352 44.2762 33.3352L43.3183 33.4746L42.5346 31.2103C42.5346 31.2103 40.576 30.597 40.5582 30.504C39.8937 27.0608 37.3019 13.1499 52.8975 12.6457C67.1412 12.1853 66.3523 25.6007 66.0179 29.7243Z" fill="#51424E"/>
<path d="M42.2246 37.9252L40.9831 31.8196L40.359 31.9523L40.94 34.8097C40.4594 34.7424 40.0303 34.6797 39.9639 34.6642L39.7935 35.2948C39.8198 35.3029 39.8986 35.3271 41.0781 35.4894L41.6002 38.0576L42.2246 37.9252Z" fill="#914F46"/>
<path d="M58.9558 25.7638C59.0706 25.6439 59.237 25.5341 59.4101 25.5368C60.0706 25.5472 60.7317 25.5907 61.3875 25.6705C61.5515 25.6904 61.7274 25.8217 61.8173 25.9551C61.9096 26.0922 61.9594 26.297 61.92 26.4603C61.8792 26.6297 61.7883 26.7961 61.6354 26.8901C61.4771 26.9874 61.3154 27.0154 61.1302 26.9928C60.8035 26.9531 60.4758 26.9244 60.1471 26.9036C59.9359 26.8928 59.7247 26.8837 59.5135 26.8803C59.3286 26.8776 59.1602 26.8406 59.0171 26.7146C58.8955 26.6075 58.7954 26.4249 58.79 26.2602C58.7843 26.0834 58.8298 25.8951 58.9558 25.7638Z" fill="#51424E"/>
<path d="M48.9788 26.2461C49.7481 25.9544 50.5844 25.8112 51.4069 25.8463C51.5948 25.8543 51.7565 25.8827 51.9034 26.012C52.0249 26.1191 52.1253 26.3016 52.1304 26.4663C52.1361 26.6432 52.0906 26.8314 51.9647 26.9628C51.8515 27.0807 51.6814 27.1972 51.5103 27.1898C51.0677 27.1709 50.6262 27.2056 50.1913 27.2881C49.9307 27.3478 49.6744 27.4225 49.4241 27.5175C49.094 27.6425 48.6693 27.4465 48.5656 27.1043C48.4578 26.7476 48.6265 26.3794 48.9788 26.2461Z" fill="#51424E"/>
<path d="M59.9622 40.3099C58.9235 39.3241 57.6193 40.1941 55.2644 39.9755C52.8333 39.7495 51.1237 38.8876 50.191 39.5258C49.2581 40.1641 50.3493 44.6298 54.8528 44.783C59.6705 44.9467 60.6638 40.9758 59.9622 40.3099Z" fill="#51424E"/>
<path d="M54.3439 46.9009C55.2175 46.9009 55.8861 46.5839 55.9336 46.5607L55.6399 45.9544C55.5732 45.9864 53.9949 46.7237 52.6881 45.6311L52.256 46.1477C52.9522 46.7301 53.7029 46.9009 54.3439 46.9009Z" fill="#914F46"/>
<path d="M50.9594 39.2987C51.95 39.2593 53.3861 39.8022 55.2466 39.975C57.0017 40.138 58.1728 39.6968 59.0859 39.8696C59.0738 40.236 58.9694 40.8712 58.4089 41.0672C57.6057 41.3485 51.6307 41.0763 51.3094 40.6547C51.116 40.401 51.0119 39.7655 50.9594 39.2987Z" fill="white"/>
<path d="M29.5701 56.8832C13.8246 64.1849 0.626762 100.889 6.50845 112.736C11.7357 123.265 24.9255 125.942 27.0013 124.697C29.077 123.451 33.2258 113.375 32.1292 111.425C31.0325 109.475 22.8912 106.316 22.6143 103.548C22.3375 100.781 28.4331 89.6052 29.5701 82.707C30.7075 75.8088 29.5701 56.8832 29.5701 56.8832Z" fill="#6A5B8E"/>
<path d="M32.0283 75.0352C31.2143 80.6326 28.314 89.3435 26.732 93.7877C26.7297 93.1144 26.7243 92.4523 26.7148 91.8063C28.3312 87.1223 30.6504 79.8304 31.3621 74.9382L32.0283 75.0352Z" fill="#594E7C"/>
<path d="M27.5116 123.621L27.5422 123.201L27.9447 123.323C28.5594 123.508 29.6662 123.766 30.1081 123.701C30.8436 123.052 33.9743 115.676 33.8537 114.902C33.691 114.517 32.265 113.699 31.0377 113.162L30.6402 112.986L30.909 112.644C30.9397 112.605 31.6523 111.671 30.8035 110.571C30.0306 109.569 27.5601 108.008 26.5393 107.386C26.5456 107.086 26.5517 106.784 26.5581 106.48C26.5635 106.527 26.5692 106.575 26.5746 106.621C27.2937 107.048 30.3839 108.924 31.3371 110.16C32.0936 111.14 31.9433 112.113 31.6587 112.704C32.4731 113.081 34.1794 113.942 34.4741 114.639C34.8375 115.499 32.3216 121.095 31.5078 122.676C30.7541 124.141 30.5048 124.303 30.297 124.35C29.7578 124.47 28.6904 124.224 28.1175 124.071C27.9454 124.769 27.4304 125.643 26.3169 125.912C26.2321 125.694 26.1664 125.478 26.1149 125.265C27.355 124.992 27.4988 123.78 27.5116 123.621Z" fill="#594E7C"/>
<path d="M27.5881 123.856L28.1142 123.435C28.0179 123.314 25.7724 120.427 27.5332 116.681C28.902 113.77 31.2189 113.275 31.2422 113.271L31.1098 112.611C31.0013 112.632 28.4356 113.18 26.9233 116.395C24.9796 120.53 27.4807 123.722 27.5881 123.856Z" fill="#594E7C"/>
<path d="M36.3242 116.356C36.2245 116.323 32.3229 114.624 32.101 114.78C31.879 114.937 29.3549 120.969 29.5207 121.268C29.6867 121.567 32.9184 122.894 32.9184 122.894L36.3242 116.356Z" fill="#BA7367"/>
<path d="M22.6826 103.869C22.0659 103.965 21.4128 103.954 20.8039 104.006C19.9272 104.082 19.0515 104.171 18.1778 104.276C17.3526 104.374 16.5291 104.474 15.737 104.736C15.325 104.873 15.1021 104.237 15.5143 104.1C16.8208 103.668 18.2408 103.578 19.6022 103.442C20.3135 103.37 21.0262 103.309 21.7392 103.256C22.0275 103.235 22.3212 103.222 22.6095 103.186C22.6014 103.319 22.6024 103.441 22.6132 103.549C22.6237 103.654 22.6499 103.762 22.6826 103.869Z" fill="#594E7C"/>
<path d="M14.1578 102.388C15.7459 101.875 17.4703 101.892 19.1214 101.943C19.9641 101.97 20.8064 102.026 21.6451 102.114C21.9556 102.147 22.3695 102.165 22.7656 102.235C22.7053 102.493 22.6659 102.723 22.6393 102.934C22.0607 102.805 21.4531 102.764 20.8687 102.714C20.1422 102.652 19.414 102.615 18.6852 102.604C17.2494 102.58 15.7597 102.578 14.3804 103.024C13.9675 103.158 13.7446 102.522 14.1578 102.388Z" fill="#594E7C"/>
<path d="M84.7616 60.095L84.438 56.8758C82.7963 56.1129 80.637 53.8351 79.8728 51.1517C79.1952 48.7715 80.9456 46.2084 80.9456 46.2084C80.9456 46.2084 81.8833 33.8788 83.768 34.2012C85.476 34.4932 83.9718 42.0306 83.9718 42.0306C83.9718 42.0306 84.7 40.8946 85.7323 41.099C86.7643 41.3034 86.7531 42.0589 86.7531 42.0589C86.7531 42.0589 87.155 41.2287 87.9859 41.2711C88.8164 41.3135 89.0519 42.5139 89.0519 42.5139C89.0519 42.5139 90.2068 41.4432 91.5065 42.1371C92.8063 42.8312 94.5045 46.7375 94.6675 49.0069C95.0023 53.6694 91.7137 56.2803 91.5608 56.6805C91.4564 56.9536 92.0033 60.1075 92.0033 60.1075C92.0033 60.1075 90.8983 60.5683 88.4517 60.4938C85.7212 60.4103 84.7616 60.095 84.7616 60.095Z" fill="#BA7367"/>
<path d="M87.6371 47.5018C87.663 47.6073 87.6856 47.7117 87.7004 47.8134C87.727 47.998 87.7338 48.1708 87.722 48.3287C87.69 48.7474 87.5246 49.0663 87.2376 49.2499C86.4704 49.7403 85.3017 49.2129 84.6594 48.8447L84.144 49.8174C85.2942 49.9316 86.8132 50.4826 87.1652 52.0653L86.333 52.2397C85.9477 50.5072 83.5806 50.6264 83.4805 50.6322L82.7264 50.6793L84.339 47.6369L84.7371 47.9081C85.3306 48.3126 86.3872 48.7969 86.7698 48.5524C86.8328 48.5123 86.9116 48.3072 86.8567 47.9269C86.7435 47.1412 86.0713 45.8771 84.9298 45.5261C83.6678 45.1381 81.0993 46.6211 80.3927 47.2263C80.6214 46.646 80.9487 46.2079 80.9487 46.2079C80.9487 46.2079 80.9552 46.129 80.9679 45.9862C80.9898 45.9694 81.0097 45.9536 81.033 45.936C81.3516 45.6956 82.1336 45.1526 83.0635 44.8417C83.0474 43.9064 83.9713 41.0762 84.2788 40.2291C84.1424 41.2645 83.9756 42.0297 83.9756 42.0297C83.9756 42.0297 84.338 41.4676 84.9123 41.2056C84.5738 42.1591 83.9591 43.9677 83.9083 44.6417C84.3313 44.5864 84.7644 44.602 85.1831 44.7306C85.2942 44.7646 85.401 44.8074 85.5061 44.8539C85.7021 44.446 86.0628 42.8913 86.3596 41.3561C86.7614 41.6532 86.757 42.0577 86.757 42.0577C86.757 42.0577 86.9018 41.7613 87.1952 41.5316C86.7341 43.966 86.4283 44.9061 86.2235 45.2921C86.5599 45.5608 86.8483 45.8875 87.0793 46.2402C87.146 46.3156 87.6128 46.8181 87.9809 46.6423C88.3053 46.4874 88.4141 46.2435 88.4501 46.1021C88.2268 44.4914 88.6391 42.2941 88.7475 41.7623C88.9759 42.1095 89.056 42.5127 89.056 42.5127C89.056 42.5127 89.2359 42.3467 89.5326 42.1874C89.3558 43.1463 89.1298 44.8512 89.2878 46.0024L89.3198 46.0027C89.3195 46.024 89.3184 46.0465 89.3168 46.0704C89.3151 46.0926 89.3127 46.1162 89.3094 46.1405C89.3626 46.4503 89.4471 46.7127 89.5734 46.898C89.6835 47.0596 89.79 47.096 89.8607 47.1095C90.0291 47.1415 90.1695 47.1078 90.316 47.0003C90.9873 46.5079 91.3854 44.7138 91.479 43.6983L92.3271 43.7754C92.2992 44.0816 92.02 46.7922 90.8294 47.6665C90.4932 47.9134 90.1029 48.0034 89.7007 47.9269C89.3639 47.8629 89.0752 47.6659 88.8651 47.358C88.8199 47.292 88.7802 47.2193 88.7425 47.1435C88.6333 47.2351 88.5067 47.3196 88.3572 47.391C88.1113 47.5093 87.8678 47.5342 87.6371 47.5018Z" fill="#914F46"/>
<path d="M90.1281 62.8845C89.8432 62.8845 89.5377 62.8748 89.211 62.8532C86.6661 62.6865 84.6398 61.9503 83.5422 61.4622C83.6207 61.3912 83.7052 61.3211 83.8022 61.2544C83.8022 61.2544 83.754 61.0695 83.7112 60.7974C84.7311 61.2585 86.7456 62.0166 89.2548 62.1809C91.7189 62.344 92.798 61.8243 93.2854 61.4679C93.3005 61.6933 93.3117 61.8468 93.3241 61.8603C93.3575 61.8957 93.4774 61.961 93.6377 62.0452C93.1217 62.408 92.1116 62.8845 90.1281 62.8845Z" fill="#594E7C"/>
<path d="M80.9935 65.8413C81.0528 63.548 82.1366 62.1155 82.4788 61.7188C82.6176 61.9003 82.7567 62.0839 82.8965 62.2745C82.5388 62.7319 81.716 63.9814 81.6675 65.8591C81.6496 66.5415 81.7898 68.4445 81.9676 70.8533C82.4479 77.3669 83.2518 88.2684 82.2256 92.5102L81.5712 92.3515C82.5725 88.2125 81.7732 77.3766 81.2963 70.9025C81.1094 68.3801 80.9753 66.5573 80.9935 65.8413Z" fill="#594E7C"/>
<path d="M79.7253 98.5801C78.1972 95.7125 77.6125 73.3312 77.5879 72.3801L78.2615 72.3629C78.4643 80.3668 79.1561 96.0803 80.3198 98.2628C81.4521 100.388 82.8381 101.5 83.5312 101.96C82.7057 101.515 82.2039 101.177 82.2039 101.177C82.2039 101.177 82.2406 101.426 82.3022 101.874C81.5343 101.211 80.5666 100.158 79.7253 98.5801Z" fill="#594E7C"/>
<path d="M63.6425 117.643C66.5175 117.485 69.8378 117.284 71.9159 115.003C73.9132 112.812 73.4302 109.61 73.4265 106.892C73.4258 106.461 74.0977 106.406 74.0984 106.84C74.1014 109.176 74.4261 111.681 73.446 113.881C72.511 115.981 70.4225 117.23 68.2632 117.767C66.7678 118.139 65.2275 118.231 63.6944 118.315C63.2616 118.338 63.2094 117.666 63.6425 117.643Z" fill="#594E7C"/>
<path d="M60.4299 32.9735C60.4882 32.9128 60.5701 32.86 60.657 32.86H61.2777C61.3693 32.86 61.4552 32.8805 61.5259 32.9428C61.5869 32.9964 61.6367 33.0876 61.6394 33.1698C61.6421 33.2581 61.6195 33.3524 61.5565 33.4181C61.4983 33.4787 61.4165 33.5316 61.3296 33.5316H60.7091C60.6175 33.5316 60.5313 33.511 60.4609 33.4487C60.4 33.3951 60.3501 33.3039 60.3474 33.2217C60.344 33.1335 60.3669 33.0391 60.4299 32.9735Z" fill="#914F46"/>
<path d="M49.3629 33.5483C49.3844 33.5294 49.406 33.5102 49.4276 33.4914C49.4767 33.4584 49.5309 33.4395 49.5899 33.4348C49.766 33.4055 49.9445 33.3913 50.1234 33.3927C50.1699 33.3873 50.2143 33.394 50.2564 33.4126C50.2999 33.423 50.3383 33.4442 50.3716 33.4756C50.4322 33.5291 50.4824 33.6204 50.4851 33.7025C50.4878 33.7908 50.4652 33.8851 50.4023 33.9508C50.3443 34.0111 50.2618 34.0649 50.1753 34.0643C49.9964 34.0629 49.8182 34.0771 49.6418 34.1064C49.5949 34.1118 49.5508 34.105 49.5087 34.0868C49.4653 34.0764 49.4265 34.0552 49.3935 34.0239C49.3329 33.9703 49.2827 33.879 49.28 33.7969C49.2773 33.7079 49.2999 33.614 49.3629 33.5483Z" fill="#914F46"/>
</g>
</svg>
