<svg viewBox="0 0 102 129" fill="none" xmlns="http://www.w3.org/2000/svg">
<path d="M31.3663 92.0622L30.8152 100.524C30.8152 100.524 28.1591 105.831 27.3169 111.285C26.4748 116.74 25.4619 129.019 25.4619 129.019L79.6775 128.518C79.6775 128.518 77.0777 114.632 75.9191 109.726C74.87 105.284 72.567 99.9914 71.213 97.1614C70.191 95.0249 70.0657 91.7233 70.0657 91.7233L31.3663 92.0622Z" fill="#B27142"/>
<path d="M49.6877 96.6759C49.6803 107.025 49.8624 117.381 50.1793 127.735C50.1957 128.268 50.6666 128.255 50.6502 127.721C50.3311 117.367 50.1636 107.015 50.0926 96.6637C50.0895 96.2035 49.6879 96.219 49.6877 96.6759Z" fill="black"/>
<path d="M47.0276 96.5285C47.168 99.7928 46.9675 103.114 47.1859 106.365C47.3139 108.27 47.9897 110.086 49.7082 110.554C50 110.634 50.1077 110.105 49.8157 110.026C47.2346 109.331 47.6284 105.603 47.6259 103.26C47.6236 101.01 47.5473 98.7624 47.4065 96.5172C47.3889 96.2327 47.0154 96.2415 47.0276 96.5285Z" fill="black"/>
<path d="M66.0951 96.5655C68.4781 99.7845 69.6776 103.856 72.8689 106.443C73.0907 106.622 73.3975 106.298 73.1741 106.119C70.0089 103.571 68.8075 99.5284 66.4107 96.3682C66.2675 96.1793 65.9517 96.3716 66.0951 96.5655Z" fill="black"/>
<path d="M85.1162 46.7912C85.1162 46.7912 86.1508 41.1784 86.4018 39.2344C86.6525 37.2904 90.823 34.437 91.5756 34.437C92.3281 34.437 91.9518 35.8167 91.3246 36.5693C90.6975 37.3219 90.572 37.5727 90.572 37.5727C90.572 37.5727 93.1275 36.9142 94.6327 35.66C96.1379 34.4057 97.3705 32.2602 97.8468 32.4302C98.7248 32.7437 97.9094 34.437 97.9094 34.437C97.9094 34.437 99.2263 33.1201 99.7282 32.493C100.23 31.8659 101.359 31.6621 101.312 32.2736C101.292 32.5238 100.731 33.4965 100.23 34.2491C99.7282 35.0017 99.3518 35.5034 99.3518 35.5034C99.3518 35.5034 100.732 34.061 101.359 33.8729C101.986 33.6848 101.93 34.0372 101.876 34.7666C101.826 35.4516 99.9006 37.7768 97.6429 39.7993C96.2223 41.0719 94.9306 41.2417 93.739 43.374C92.5473 45.5063 92.2809 47.5129 92.2809 47.5129L85.1162 46.7912Z" fill="#FFAF8A"/>
<path d="M90.0992 38.6525C88.5471 39.8769 87.2516 40.9914 87.2266 43.0889C87.225 43.2184 87.4311 43.2528 87.4574 43.1203C87.6436 42.1851 87.6941 41.3617 88.3575 40.6018C88.926 39.9506 89.6318 39.3986 90.2936 38.8469C90.4308 38.7325 90.2356 38.545 90.0992 38.6525Z" fill="black"/>
<path d="M97.8996 33.754C97.235 34.9284 96.5439 35.9161 95.4258 36.7075C94.4886 37.3711 93.4847 37.9384 92.5373 38.5877C92.3977 38.6834 92.5226 38.9064 92.6716 38.8174C93.8326 38.1238 95.0468 37.4102 96.1039 36.5646C97.0158 35.8351 97.5913 34.9113 98.1255 33.8862C98.203 33.7374 97.983 33.6068 97.8996 33.754Z" fill="black"/>
<path d="M17.4075 43.4269C17.4075 43.4269 16.3726 37.8141 16.1219 35.8701C15.8711 33.9261 11.7007 31.0727 10.9481 31.0727C10.1955 31.0727 10.5719 32.4524 11.199 33.2048C11.8262 33.9574 11.9516 34.2082 11.9516 34.2082C11.9516 34.2082 9.39614 33.5497 7.89096 32.2955C6.38578 31.0412 5.1531 28.8957 4.67684 29.0657C3.79879 29.3793 4.6142 31.0725 4.6142 31.0725C4.6142 31.0725 3.29732 29.7556 2.79566 29.1285C2.294 28.5014 1.16521 28.2976 1.21219 28.9091C1.23148 29.1593 1.79232 30.132 2.29399 30.8846C2.79565 31.6372 3.17204 32.1389 3.17204 32.1389C3.17204 32.1389 1.79235 30.6965 1.16522 30.5084C0.538095 30.3203 0.594027 30.6727 0.647879 31.4021C0.698484 32.0871 2.62323 34.4123 4.881 36.4348C6.30158 37.7074 7.59325 37.8771 8.78487 40.0095C9.97648 42.1418 10.2429 44.1484 10.2429 44.1484L17.4075 43.4269Z" fill="#FFAF8A"/>
<path d="M12.2304 35.4825C12.8903 36.0327 13.6047 36.5836 14.1665 37.2375C14.8198 37.9979 14.8802 38.8204 15.0666 39.7559C15.0927 39.8873 15.2992 39.8554 15.2974 39.7246C15.2724 37.6276 13.9771 36.5126 12.4248 35.2881C12.2886 35.1808 12.0931 35.3681 12.2304 35.4825Z" fill="black"/>
<path d="M42.2825 40.0811C42.2825 40.0811 41.8075 47.4108 50.0856 47.5989C58.7397 47.7956 59.403 40.4572 59.403 40.4572C59.403 40.4572 70.9337 45.0404 73.7014 47.9828C76.9178 51.4022 81.415 65.1032 81.415 65.1032L84.8013 45.5371L94.2082 46.2897C94.2082 46.2897 97.9709 80.5306 84.6132 84.6696C77.2386 86.9547 71.2137 76.968 71.2137 76.968L72.0734 94.7641C72.1328 95.9939 71.1401 97.0179 69.909 96.9965L31.0576 96.3239C29.841 96.3249 28.8667 95.3156 28.9104 94.0998L29.6773 72.8166C29.6773 72.8166 22.7163 79.966 17.6365 81.0947C12.5569 82.2235 5.97203 76.2032 5.87788 68.3955C5.80933 62.7019 9.5465 42.9029 9.5465 42.9029H19.1415L20.2703 59.8353C20.2703 59.8353 28.073 47.6197 29.303 46.1961C33.3664 41.4927 42.2825 40.0811 42.2825 40.0811Z" fill="#E56B54"/>
<path d="M46.2627 5.73567C46.2627 5.73567 43.8015 6.25605 41.9755 8.53845C40.1495 10.8207 38.7226 13.4562 38.5074 15.7034C38.2924 17.9509 37.1168 28.2961 40.0953 31.4161C43.0738 34.5361 47.6361 36.6107 51.8054 35.6866C55.9747 34.7626 60.0795 32.5724 61.7411 30.7155C63.4026 28.8585 64.3838 16.6676 64.3838 16.6676C64.3838 16.6676 57.46 7.01207 55.9209 6.29768C54.3817 5.58328 46.2627 5.73567 46.2627 5.73567Z" fill="#FFAF8A"/>
<path d="M54.7447 22.293C55.6356 21.634 56.8564 21.5947 57.9332 21.8571C58.3558 21.96 58.7781 22.1103 59.1125 22.3881C59.7911 22.9523 59.9403 24.0963 59.3388 24.7423C59.0779 25.0225 58.7175 25.1894 58.3534 25.307C57.0603 25.7247 55.4902 25.5251 54.5811 24.5151C54.2824 24.1834 54.0611 23.7564 54.0781 23.3103C54.0949 22.8644 54.451 22.5102 54.7447 22.293Z" fill="#E56B54"/>
<path d="M40.1229 21.0023C41.0137 20.3433 42.2345 20.304 43.3112 20.5662C43.7338 20.6691 44.156 20.8194 44.4904 21.0972C45.1693 21.6613 45.3182 22.8054 44.7167 23.4514C44.4558 23.7316 44.0955 23.8985 43.7313 24.0161C42.4383 24.4338 40.8682 24.2342 39.959 23.2242C39.6603 22.8925 39.439 22.4655 39.456 22.0194C39.473 21.5737 39.8292 21.2196 40.1229 21.0023Z" fill="#E56B54"/>
<path d="M45.3779 14.7332C44.3706 14.2791 43.5411 14.0915 42.4348 14.0096C41.5449 13.9439 40.4998 13.9044 39.7732 14.4685C39.619 14.5882 39.6427 14.8925 39.881 14.9116C41.2107 15.0187 42.5358 15.1789 43.8519 15.4006C44.1697 15.4541 45.4799 15.8826 45.6936 15.2304C45.7644 15.0137 45.5626 14.8164 45.3779 14.7332Z" fill="black"/>
<path d="M54.4825 15.8575C55.5723 15.6757 56.4223 15.7061 57.5129 15.9095C58.39 16.0731 59.4107 16.3019 59.9691 17.0327C60.0875 17.1878 59.987 17.476 59.7517 17.4338C58.4387 17.1977 57.1167 17.0144 55.7876 16.8928C55.4665 16.8634 54.0904 16.943 54.0503 16.258C54.037 16.03 54.2827 15.891 54.4825 15.8575Z" fill="black"/>
<path d="M43.4995 19.4079C42.8584 19.5027 42.2111 19.4579 41.5841 19.2933C41.211 19.1954 40.8451 19.0487 40.5405 18.8121C40.2151 18.5593 39.8853 18.1378 39.9382 17.7024C40.4055 17.1876 41.2186 17.212 41.8889 17.0745C42.4458 16.9604 43.0347 16.9325 43.5658 17.1263C44.0758 17.3123 44.9556 18.8331 44.9661 18.8669C44.9682 18.8734 44.1515 19.3117 43.4995 19.4079Z" fill="white"/>
<path d="M41.7431 16.9315C41.4363 16.8645 41.1051 16.9741 40.871 17.1838C40.6371 17.3935 40.4952 17.6933 40.44 18.0026C40.4072 18.1869 40.4039 18.3811 40.4673 18.5572C40.5582 18.8098 40.774 18.9968 41.0005 19.1408C41.3242 19.3465 41.7086 19.4916 42.0876 19.4333C42.7115 19.3375 43.1463 18.6871 43.1492 18.0557C43.1504 17.77 43.0726 17.4719 42.8744 17.2661C42.7535 17.1406 42.5952 17.0564 42.4314 16.9966C42.1396 16.8903 41.8216 16.8557 41.7431 16.9315Z" fill="black"/>
<path d="M39.8455 16.7037C39.9718 16.887 40.1453 17.0751 40.3258 17.2059C40.3965 17.2571 40.7297 17.3978 40.5775 17.5235C40.4284 17.6467 40.161 17.3936 40.0669 17.2961C39.9133 17.1368 39.8154 16.955 39.7542 16.7432C39.7378 16.6865 39.814 16.6581 39.8455 16.7037Z" fill="black"/>
<path d="M40.5273 16.4264C40.5999 16.5786 40.6864 16.7388 40.7935 16.8698C40.8475 16.9357 40.9169 17.0029 40.9988 17.0319C41.0754 17.0592 41.1241 17.047 41.1718 17.1217C41.1869 17.1452 41.1852 17.1757 41.1724 17.1994C41.1686 17.2067 41.1645 17.2139 41.1607 17.221C41.1428 17.2544 41.0994 17.2832 41.0601 17.2798C40.6642 17.2452 40.4551 16.8416 40.3705 16.4938C40.3488 16.4039 40.4837 16.3345 40.5273 16.4264Z" fill="black"/>
<path d="M39.8584 18.3948C40.2875 17.6163 41.4831 16.9639 42.5504 17.111C43.5213 17.245 44.3953 17.8575 44.7425 18.6567C44.8756 18.9626 45.1498 18.6616 45.0238 18.3595C44.6243 17.4011 43.3802 16.7799 42.2336 16.7155C41.0481 16.6489 39.9144 17.3577 39.6195 18.3183C39.5783 18.4527 39.7906 18.5182 39.8584 18.3948Z" fill="black"/>
<path d="M57.6438 21.1081C56.9985 21.1681 56.3546 21.0886 55.7374 20.8904C55.3702 20.7726 55.0127 20.6064 54.7213 20.3536C54.41 20.0836 54.1036 19.645 54.1798 19.213C54.6742 18.7241 55.4848 18.7923 56.1614 18.6913C56.7236 18.6073 57.3131 18.6113 57.8331 18.8334C58.3323 19.0467 59.1288 20.6127 59.1375 20.6469C59.1393 20.6536 58.3 21.0472 57.6438 21.1081Z" fill="white"/>
<path d="M56.0275 18.5407C55.7246 18.4571 55.3881 18.5487 55.1431 18.7454C54.8981 18.9423 54.7404 19.2339 54.6686 19.5398C54.6258 19.7222 54.6123 19.9158 54.6661 20.0952C54.7433 20.3522 54.9486 20.5506 55.167 20.7066C55.4792 20.9295 55.855 21.0952 56.2368 21.0574C56.8648 20.9954 57.3343 20.3692 57.3709 19.7392C57.3875 19.4539 57.326 19.1522 57.1391 18.9358C57.0251 18.8039 56.8717 18.7114 56.7113 18.6429C56.4256 18.5208 56.1102 18.4693 56.0275 18.5407Z" fill="black"/>
<path d="M53.6441 18.8833C53.7367 18.9964 53.8501 19.0974 53.9609 19.1923C54.0231 19.2456 54.093 19.292 54.165 19.3315C54.2301 19.3674 54.2844 19.3793 54.3248 19.4455C54.3493 19.4856 54.3384 19.5546 54.2918 19.5758C54.1289 19.6495 53.942 19.4931 53.8291 19.3837C53.6972 19.2557 53.6156 19.1075 53.5606 18.9328C53.5463 18.8873 53.6116 18.8436 53.6441 18.8833Z" fill="black"/>
<path d="M54.1427 18.2087C54.2623 18.4038 54.4273 18.6007 54.6051 18.7452C54.6711 18.7991 54.9836 18.9463 54.8338 19.0661C54.682 19.1875 54.4275 18.9225 54.339 18.8211C54.192 18.6521 54.1017 18.4661 54.0512 18.2482C54.0386 18.1936 54.1122 18.159 54.1427 18.2087Z" fill="black"/>
<path d="M54.8406 17.9871C54.9053 18.1441 54.9861 18.312 55.0902 18.447C55.1404 18.5123 55.2034 18.5728 55.2811 18.6024C55.3539 18.6299 55.3971 18.624 55.4379 18.6962C55.4513 18.7199 55.453 18.7502 55.4385 18.7739C55.4345 18.7802 55.4307 18.7867 55.4269 18.7932C55.3971 18.8421 55.3485 18.8556 55.2951 18.848C54.9191 18.7945 54.7371 18.3639 54.6749 18.0343C54.6542 17.9239 54.7986 17.8853 54.8406 17.9871Z" fill="black"/>
<path d="M54.063 19.9002C54.5335 19.1459 55.7626 18.5589 56.8201 18.7634C57.7826 18.9494 58.6222 19.6082 58.9258 20.4248C59.0421 20.7376 59.3322 20.4517 59.2228 20.1433C58.8754 19.1648 57.6668 18.4773 56.5252 18.3513C55.3451 18.2209 54.1749 18.8675 53.8285 19.8109C53.7802 19.9428 53.9885 20.0198 54.063 19.9002Z" fill="black"/>
<path d="M49.1885 18.7148C49.1526 19.611 48.8002 20.4073 48.4416 21.2149C48.2432 21.6613 48.0417 22.1128 47.9224 22.5906C47.8855 22.7376 47.7833 22.9985 47.8313 23.1363C47.889 23.3017 48.0988 23.2779 48.2749 23.279C49.3628 23.2866 49.2721 24.9732 48.1762 24.881C46.8669 24.7706 46.18 23.8586 46.5898 22.4575C46.992 21.0829 47.8244 19.8237 48.4995 18.584C48.6639 18.2819 49.2053 18.295 49.1885 18.7148Z" fill="#E56B54"/>
<path d="M48.2802 18.5836C47.6506 20.0252 46.9694 21.5187 46.5447 23.0374C46.285 23.9661 47.0527 24.4064 47.8171 24.8006C48.1232 24.9583 48.3571 24.4773 48.052 24.3199C47.3983 23.9827 46.956 23.7507 47.135 22.9503C47.2431 22.4661 47.4848 21.9677 47.6599 21.5057C48.0031 20.6005 48.372 19.7063 48.7595 18.8194C48.897 18.5041 48.4183 18.2675 48.2802 18.5836Z" fill="black"/>
<path d="M45.408 28.5087C46.7622 26.862 48.5853 28.2432 50.1122 28.6475C50.4726 28.7428 50.6847 28.1989 50.3208 28.1008C49.2126 27.8019 48.3401 27.0992 47.1405 27.1591C46.321 27.2002 45.4424 27.4843 44.9856 28.2045C44.8057 28.4882 45.1951 28.7674 45.408 28.5087Z" fill="black"/>
<path d="M19.8924 57.7611C20.3704 61.8982 20.5522 66.0379 20.8541 70.187C20.8761 70.4893 21.3298 70.4971 21.3304 70.187C21.3388 66.0436 20.8725 61.8672 20.354 57.7611C20.3173 57.4716 19.8583 57.465 19.8924 57.7611Z" fill="black"/>
<path d="M20.9745 61.0982C21.3358 61.8231 21.6451 62.6928 22.1289 63.3418C22.2778 63.5418 22.646 63.4366 22.5614 63.1595C22.3173 62.3593 21.7935 61.5865 21.4112 60.8431C21.2617 60.5528 20.8299 60.8081 20.9745 61.0982Z" fill="black"/>
<path d="M81.3574 63.4104C81.2421 66.0904 80.7693 68.6292 80.214 71.2422C80.1452 71.5659 80.6066 71.6948 80.7101 71.3789C81.5398 68.8468 81.8421 66.0648 81.866 63.4104C81.869 63.0818 81.3716 63.0844 81.3574 63.4104Z" fill="black"/>
<path d="M71.6645 59.2648C71.4758 64.2524 70.7988 69.1367 70.3019 74.0928C70.2752 74.3599 70.7163 74.4186 70.7712 74.1562C71.7808 69.3099 72.0239 64.2009 72.1364 59.2648C72.1433 58.9604 71.6759 58.962 71.6645 59.2648Z" fill="black"/>
<path d="M34.5911 37.356C34.6807 38.7512 34.9427 40.1259 35.4594 41.4287C37.6846 47.0388 43.7866 49.0539 49.4332 49.3241C54.7961 49.5807 60.7007 48.1014 64.0116 43.6622C64.1281 43.506 64.244 43.3391 64.2679 43.1479C64.2984 42.9033 64.1735 42.6669 64.0551 42.4469C63.4916 41.3999 62.9781 40.2755 63.0104 39.1026C63.0425 37.9297 63.7685 36.7048 64.9536 36.4189C64.312 36.5738 64.0738 34.3613 64.0759 34.0582C64.0834 32.9953 64.59 32.2597 65.0525 31.324C66.0925 29.22 66.9351 27.017 67.5186 24.7476C68.7666 19.8939 68.995 14.2555 66.5491 9.7283C64.3034 5.57159 60.2928 1.93488 55.4604 1.09464C46.4937 -0.464392 39.4422 5.28553 37.9676 13.843C37.3582 17.3793 36.5244 21.5866 36.0808 25.1469C35.7407 27.8766 35.0701 30.5581 34.7414 33.289C34.5795 34.6329 34.5044 36.0042 34.5911 37.356ZM39.5193 26.3467C39.032 24.5114 39.4903 22.017 39.5283 20.0724C39.6767 12.5122 43.2259 6.70572 50.0535 6.88981C56.881 7.0739 61.5879 13.1525 63.3443 20.6043C63.5689 21.5572 63.2296 22.554 63.0633 23.5073C61.9423 29.929 57.5316 35.7124 49.8854 35.121C43.6251 34.6371 40.9271 31.6477 39.5193 26.3467Z" fill="black"/>
<path d="M63.3174 37.5047C62.2117 36.6051 61.266 35.2358 61.5779 33.9339C61.6084 33.8059 61.6535 33.6862 61.7077 33.5718C62.4641 31.9776 65.3866 31.6568 66.851 31.4193C68.4915 31.153 70.1319 30.8868 71.7725 30.6206C73.8339 30.2863 75.9427 29.9515 77.9969 30.3071C80.0511 30.6627 82.0763 31.8461 82.8455 33.7486C82.1672 33.5636 81.4597 33.4463 80.7575 33.5126C79.2758 33.6524 77.9985 34.5793 76.8844 35.5532C75.7703 36.5272 74.6965 37.6069 73.3233 38.1757C72.4991 38.5172 71.6054 38.6568 70.7191 38.7675C70.1409 38.8399 69.5535 38.8987 68.9659 38.9293C68.8265 38.8691 67.6171 38.9358 67.4777 38.8754C66.1744 38.3123 64.7613 36.9874 63.3174 37.5047Z" fill="black"/>
<path d="M62.838 37.1059C62.9929 37.0302 63.159 36.9848 63.333 36.963C64.8557 36.7713 67.0128 38.4793 68.1594 39.3115C68.2822 39.4005 68.4048 39.4897 68.5274 39.5786C69.7402 40.4592 70.9532 41.3395 72.166 42.2201C73.8442 43.4382 75.5564 44.6886 76.8017 46.2809C78.0469 47.873 78.7582 49.8999 78.1275 51.4673C77.7584 50.9043 77.326 50.3589 76.7841 49.9178C75.6404 48.987 74.1541 48.6271 72.7555 48.404C71.3569 48.181 69.9214 48.0433 68.5889 47.4217C67.7891 47.0486 67.065 46.5175 66.3638 45.9755C65.2961 45.1502 64.2362 44.2538 63.3956 43.2451C62.9426 42.7015 62.5523 42.1259 62.2611 41.5098C61.6179 40.149 61.4304 37.7931 62.838 37.1059Z" fill="black"/>
</svg>
