<svg viewBox="0 0 146 156" fill="none" xmlns="http://www.w3.org/2000/svg">
<mask id="mask0_2668_178" style="mask-type:alpha" maskUnits="userSpaceOnUse" x="0" y="0" width="146" height="156">
<rect x="0.195312" y="0.316528" width="145.109" height="155.327" fill="white"/>
</mask>
<g mask="url(#mask0_2668_178)">
<path d="M47.9998 146.295C43.4439 159.897 46.3726 253.297 51.254 257.69C56.1355 262.083 69.3155 260.944 70.1291 258.504C70.9426 256.063 70.7649 174.054 71.9113 175.681C73.0578 177.308 74.5224 259.35 77.9396 261.856C81.3568 264.362 97.1401 264.199 98.2792 259.48C99.4183 254.761 103.486 159.572 93.8859 147.205C84.2859 134.839 47.9998 146.295 47.9998 146.295Z" fill="#D6D2C4"/>
<path d="M80.8598 169.804L80.5582 169.152C80.4872 169.185 74.0074 172.181 72.3351 172.897C72.3919 171.003 72.4573 169.017 72.517 167.312C73.5528 167.062 77.0445 165.917 77.9791 161.679C79.0526 156.811 76.9535 147.14 76.8242 146.881C76.6513 146.535 76.3261 146.668 75.6129 146.957C75.2216 147.116 74.6822 147.347 74.0099 147.645C72.8689 148.15 71.7215 148.68 71.7102 148.685L71.4757 148.801L71.5047 149.059C71.5618 149.565 71.7469 162.198 71.8134 167.022L71.8137 167.055L71.8069 167.055C71.7237 169.419 71.6602 171.359 71.6121 172.954C70.6288 172.624 68.4091 171.315 67.2485 170.631C66.211 170.02 65.6104 169.668 65.3262 169.562L65.0742 170.234C65.3136 170.324 66.0765 170.774 66.8842 171.25C69.2814 172.663 70.7414 173.465 71.5908 173.682C71.5873 173.799 71.5841 173.913 71.5808 174.026C70.8363 173.831 69.4192 173.225 67.3453 172.212C66.7978 171.944 66.7045 171.9 66.6284 171.881L66.5049 172.376L66.4317 172.571C66.4872 172.592 66.751 172.721 67.0304 172.857C69.0366 173.837 70.6118 174.543 71.5608 174.746C71.4686 178.131 71.4666 179.455 71.4863 179.988C71.606 177.054 71.7476 175.438 71.9186 175.68C72.0135 175.815 72.1102 176.501 72.2102 177.643C72.2269 176.817 72.2518 175.836 72.2808 174.778C73.3399 174.512 79.6343 171.721 80.3563 171.4L80.0646 170.744C78.233 171.558 73.5361 173.614 72.3022 174.023C72.3054 173.91 72.3086 173.796 72.3122 173.681C73.3974 173.255 80.5498 169.947 80.8598 169.804ZM72.2318 149.236C73.8438 148.495 75.562 147.737 76.2429 147.481C76.6417 149.255 78.1878 157.399 77.2777 161.524C76.4638 165.214 73.5983 166.296 72.5257 166.575C72.4857 163.683 72.3102 151.285 72.2318 149.236Z" fill="#C1BBA7"/>
<path d="M52.8604 147.126C52.8562 147.165 52.4268 151.056 51.5636 152.427C51.0965 153.169 48.7545 153.332 46.7806 153.265C46.756 153.499 46.7321 153.738 46.7086 153.98C48.498 154.047 51.4416 153.969 52.1713 152.809C52.9765 151.53 53.411 148.519 53.5362 147.524H54.7024C54.4549 149.45 53.7491 153.467 52.7336 154.219C51.8239 154.893 48.6416 155.215 46.5851 155.337C46.5648 155.575 46.5447 155.816 46.5254 156.061C48.4119 155.958 52.0033 155.653 53.1611 154.796C54.7002 153.656 55.3905 147.861 55.464 147.204L55.5085 146.805H52.8949L52.8604 147.126Z" fill="#C1BBA7"/>
<path d="M96.3615 153.183C94.3943 153.682 91.6437 154.272 90.661 154.05C89.7301 153.84 89.6058 150.208 89.5529 148.657C89.5103 147.417 89.4894 147.134 89.3623 146.956L88.778 147.374C88.7574 147.345 88.7503 147.324 88.75 147.323C88.7935 147.456 88.8158 148.108 88.8355 148.682C88.9387 151.705 89.1439 154.443 90.503 154.751C90.691 154.793 90.924 154.812 91.1914 154.812C92.606 154.812 94.9647 154.279 96.5363 153.879C96.4792 153.642 96.4208 153.41 96.3615 153.183Z" fill="#C1BBA7"/>
<path d="M90.4988 147.11C90.4759 147.259 89.9517 150.768 91.0308 152.586C91.9014 154.052 94.5918 153.052 96.1283 152.32C96.0603 152.081 95.9913 151.847 95.9213 151.619C94.4609 152.319 92.1989 153.147 91.6485 152.219C90.7008 150.623 91.2037 147.253 91.2085 147.219L90.4988 147.11Z" fill="#C1BBA7"/>
<path d="M47.9042 142.384C47.9042 142.384 43.8493 148.14 45.1574 148.924C46.4655 149.709 62.5536 148.99 62.6191 149.447C62.6846 149.905 63.714 150.571 63.7795 150.636C63.845 150.702 80.4081 150.494 80.6042 149.513C80.8003 148.532 81.3235 147.936 81.6506 147.907C81.9777 147.878 98.8508 148.336 98.9818 147.616C99.1128 146.897 93.7497 141.142 93.7497 141.142L47.9042 142.384Z" fill="#EFEBE1"/>
<path d="M90.6156 142.226C90.5547 142.08 90.4396 142.024 90.3218 142.026C90.3037 141.874 90.2025 141.731 90.008 141.707C89.0934 141.594 88.2256 141.923 87.3846 142.238C86.5253 142.561 85.652 142.842 84.7645 143.078C83.8803 143.313 82.97 143.524 82.0519 143.674C81.4154 143.134 80.7318 142.649 80.0073 142.231C79.8895 142.164 79.7721 142.168 79.6744 142.214C79.6266 142.183 79.5731 142.163 79.5163 142.164C75.6994 142.244 71.8819 142.291 68.0644 142.304C67.0821 142.308 66.0995 142.308 65.1169 142.307C65.1385 142.179 65.1517 142.049 65.1543 141.917L58.441 142.099C58.4487 142.141 58.4609 142.181 58.4822 142.217C57.1119 144.388 55.8302 146.726 55.7324 149.3C55.9711 149.298 56.2074 149.296 56.4416 149.295C56.5341 146.789 57.8755 144.496 59.2142 142.402C60.1297 142.452 61.0468 142.471 61.9639 142.452C62.4775 142.441 62.992 142.422 63.5043 142.386C63.5794 142.38 63.654 142.372 63.7282 142.362C63.0375 143.628 62.3785 144.925 61.872 146.27C61.5072 147.239 61.2445 148.265 61.1758 149.299C61.45 149.306 61.6923 149.314 61.8949 149.326C61.9623 148.338 62.223 147.361 62.5791 146.43C63.0207 145.276 63.573 144.16 64.1594 143.067C64.0814 143.313 64.0069 143.56 63.9411 143.81C63.772 144.449 63.6404 145.099 63.5492 145.754C63.4462 146.492 63.3988 147.235 63.4001 147.979H64.1153C64.1156 147.197 64.173 146.416 64.2895 145.643C64.3872 144.994 64.5272 144.354 64.7085 143.723C64.776 143.488 64.8575 143.256 64.9324 143.023C68.7018 143.027 72.4713 143 76.2401 142.94C77.2227 142.924 78.2054 142.905 79.188 142.885C79.2615 143.08 79.3841 143.263 79.465 143.456C79.525 143.599 79.5725 143.747 79.6131 143.896C79.5683 143.897 79.5228 143.899 79.478 143.899C78.5044 143.898 77.5427 143.76 76.6401 143.384C76.2123 143.205 75.9779 143.884 76.4027 144.061C77.4715 144.507 78.617 144.638 79.7635 144.609C79.8812 145.277 79.9657 145.952 80.056 146.623C80.157 147.374 80.2557 148.128 80.3044 148.884C80.3222 149.159 80.329 149.436 80.3174 149.712C80.4877 149.65 80.5883 149.583 80.6025 149.513C80.6883 149.083 80.837 148.728 81.0044 148.461C80.9541 147.882 80.8686 147.306 80.796 146.751C80.7009 146.024 80.6029 145.296 80.4851 144.572C80.8638 144.543 81.2409 144.5 81.6139 144.448C81.6793 144.439 81.7445 144.428 81.8096 144.418C82.9465 145.425 83.9078 146.622 84.6491 147.953C84.913 147.958 85.1882 147.962 85.4746 147.967C84.7633 146.593 83.8248 145.34 82.7113 144.269C84.1771 144.003 85.6201 143.619 87.0272 143.128C87.9621 142.802 88.927 142.3 89.9441 142.422C89.9467 142.462 89.9544 142.503 89.9721 142.546C90.705 144.296 91.2083 146.143 91.4644 148.024C91.7047 148.024 91.9435 148.024 92.1802 148.023C91.918 146.033 91.3944 144.085 90.6156 142.226ZM80.3451 143.869C80.316 143.752 80.2847 143.636 80.248 143.521C80.2051 143.388 80.1561 143.257 80.1019 143.128C80.4348 143.339 80.7564 143.567 81.0683 143.806C80.8273 143.833 80.5864 143.854 80.3451 143.869Z" fill="#DDD7CA"/>
<path d="M54.7428 71.5968C54.7428 71.5968 46.0132 67.1312 39.2324 82.1065C34.2326 93.1477 30.1896 110.603 34.5639 115.879C38.9156 121.128 45.7168 115.571 45.7168 115.571C45.7168 115.571 39.6762 140.49 46.1764 143.537C52.6763 146.584 93.5045 145.264 96.2465 142.725C98.9886 140.185 96.8056 115.283 96.8056 115.283C96.8056 115.283 100.558 118.844 106.061 118.007C109.631 117.465 111.79 113.039 112.611 109.321C114.337 101.501 103.874 76.4037 98.1782 73.0168C92.4823 69.63 88.8696 71.11 88.8696 71.11C88.8696 71.11 97.4218 59.9181 74.6318 59.9181C48.523 59.9184 49.5236 68.3396 54.7428 71.5968Z" fill="#6A5B8E"/>
<path d="M67.3966 77.98L67.4308 77.2629C58.6466 76.841 55.5846 72.9925 54.7197 71.5879C54.6391 71.5489 54.271 71.3792 53.6816 71.2279C54.3688 72.536 57.5982 77.5094 67.3966 77.98Z" fill="#594E7C"/>
<path d="M54.7202 71.5833C54.7182 71.5801 54.716 71.5765 54.7141 71.5736C54.6962 71.5641 54.6734 71.5515 54.6514 71.5388C54.6744 71.5534 54.6971 71.5687 54.7202 71.5833Z" fill="#594E7C"/>
<path d="M89.9406 70.863C89.2451 70.9582 88.8702 71.1104 88.8702 71.1104C88.8702 71.1104 88.879 71.0991 88.8951 71.0772L88.8954 71.0769C88.9109 71.0556 88.9341 71.0233 88.9625 70.9827C88.9632 70.9817 88.9638 70.9807 88.9645 70.9801C88.9638 70.9801 88.9605 70.9801 88.9605 70.9801C88.9605 70.9801 88.9834 70.9501 89.0212 70.8965C89.0238 70.8927 89.0267 70.8885 89.0293 70.8846C89.048 70.8569 89.0683 70.8259 89.0893 70.7936C89.0961 70.7833 89.1029 70.773 89.1096 70.762C89.1361 70.7211 89.1635 70.6775 89.1932 70.6298C88.288 71.9008 85.0563 75.7702 78.8545 76.4767L78.9358 77.1903C85.2124 76.4754 88.816 72.3982 89.9406 70.863Z" fill="#594E7C"/>
<path d="M65.5002 71.4065C65.4419 71.3884 59.7527 68.9071 59.9824 66.8406C60.024 66.4654 60.1017 65.7673 65.5715 65.2399C68.5184 64.956 72.3643 64.8021 75.6121 64.8405C81.3033 64.9067 81.4749 65.4551 81.5668 65.7496C81.9868 67.0941 79.0367 69.6342 78.1225 70.3804L77.6686 69.8242C79.3129 68.4809 80.9733 66.6793 80.8933 66.0193C79.8313 65.3709 69.0662 65.3773 63.4022 66.2222C61.174 66.5544 60.7621 66.8741 60.694 66.9486C60.6298 68.1584 64.7364 70.3458 65.7274 70.7249L65.5002 71.4065Z" fill="#594E7C"/>
<path d="M65.6029 76.7233L65.2871 92.206L66.0052 92.2208L66.3194 76.8236C66.08 76.7929 65.8416 76.7571 65.6029 76.7233Z" fill="#D6D2C4"/>
<path d="M80.1833 75.8434C79.9482 75.8773 79.7137 75.9144 79.4795 75.9527C79.7985 78.258 80.3585 86.5295 80.6731 91.8403L81.3898 91.7977C81.3876 91.7571 81.1469 87.706 80.8614 83.652C80.5282 78.9199 80.3233 76.8115 80.1833 75.8434Z" fill="#D6D2C4"/>
<path d="M65.4167 89.7864C64.8267 89.7742 64.6177 91.1139 64.8883 91.3107C65.1587 91.5075 66.3635 91.5933 66.437 91.2123C66.5109 90.8313 66.4125 89.86 66.0067 89.7861C65.6012 89.7129 65.4167 89.7864 65.4167 89.7864Z" fill="#D6D2C4"/>
<path d="M80.9289 89.7763C80.105 89.8092 79.9953 90.8673 80.2015 91.1099C80.4076 91.3525 81.838 91.2918 81.8867 90.8554C81.9351 90.4189 81.838 89.7399 80.9289 89.7763Z" fill="#D6D2C4"/>
<path d="M45.7513 73.1606C39.4118 77.9559 33.5474 94.7147 33.5474 94.7147C33.5474 94.7147 31.0955 92.245 29.3522 92.3611C24.7479 92.6679 19.4584 100.408 20.0516 103.459C20.6449 106.511 31.1619 118.519 39.5515 118.104C40.7799 118.044 42.2293 117.831 43.3284 116.375C49.734 107.89 54.4326 78.9894 53.7816 76.9613C53.018 74.5854 46.7104 72.4351 45.7513 73.1606Z" fill="#6A5B8E"/>
<path d="M24.4211 90.4284C24.2424 90.2368 22.499 88.3464 18.7573 86.9493C15.0153 85.5521 8.02962 88.1 8.39834 89.4939C8.76706 90.8878 15.5866 89.6332 15.5866 89.6332C15.5866 89.6332 11.6817 94.5314 10.3845 94.0746C9.08739 93.6178 7.58765 89.3729 6.0689 89.3287C4.54982 89.2842 6.31954 92.9598 6.31954 92.9598C6.31954 92.9598 5.71017 93.7782 5.95986 95.7669C6.11664 97.0154 12.3952 104.236 15.504 103.166C18.6125 102.096 21.0148 97.9393 21.0148 97.9393C21.0148 97.9393 22.5239 99.6038 22.7232 99.7148C24.9549 100.959 29.5141 96.3044 27.1666 93.6217C26.9589 93.384 25.2166 91.2804 24.4211 90.4284Z" fill="#BA7367"/>
<path d="M13.902 98.8147C13.2249 97.6724 12.3823 96.2518 11.0745 96.5608C11.03 96.5714 10.989 96.5876 10.9471 96.6021L10.9487 96.6005C10.841 96.4276 9.92641 95.0111 8.78541 94.8546C8.77508 94.8346 8.76442 94.8146 8.7541 94.7949C8.40183 94.1185 7.66892 92.7107 6.64825 92.4788C6.46405 92.4368 6.2821 92.4368 6.10274 92.4729C6.22693 92.7678 6.31952 92.9604 6.31952 92.9604C6.31952 92.9604 6.17339 93.1585 6.05371 93.5927C6.23823 93.4849 6.3808 93.4875 6.47597 93.5088C7.04792 93.6388 7.60761 94.6253 7.90246 95.1837C7.80149 95.314 7.70794 95.4911 7.63504 95.734C7.45858 96.3211 7.44439 97.2324 7.58278 98.2115C7.95215 98.6444 8.36926 99.0996 8.81734 99.5531C8.51346 98.6283 8.35829 97.6034 8.38733 96.795C8.40862 96.2014 8.52022 95.9482 8.56926 95.8889C9.19669 95.8672 9.94348 96.8337 10.2245 97.2599C10.1374 97.4395 10.0751 97.646 10.0464 97.8828C9.93219 98.8157 10.3416 100.196 10.9445 101.458C11.5403 101.921 12.1452 102.331 12.7333 102.642C11.7984 101.395 10.8019 99.1422 10.9377 98.0308C10.9764 97.717 11.0874 97.6292 11.2539 97.5902C11.9277 97.4276 12.4687 98.2447 13.1607 99.4119C13.7981 100.487 14.4559 101.6 15.4537 101.326L15.2472 100.304C14.8504 100.414 14.3678 99.6002 13.902 98.8147Z" fill="#914F46"/>
<path d="M15.6147 88.2432C15.0701 88.8348 14.4721 89.4703 14.083 89.8687C14.9605 89.7474 15.5834 89.6332 15.5834 89.6332C15.5834 89.6332 15.3837 89.8835 15.0611 90.2645C15.3559 89.9545 15.7315 89.5513 16.2292 89.0106L15.6147 88.2432Z" fill="#914F46"/>
<path d="M22.7314 97.1664L22.0314 96.5063C21.6684 97.0289 21.2762 97.5841 20.9668 98.0119L20.9746 98.0199C21.0052 97.969 21.0226 97.9393 21.0226 97.9393L21.6965 98.6396C21.9523 98.2835 22.2839 97.8106 22.7314 97.1664Z" fill="#914F46"/>
<path d="M20.3516 101.142C21.3119 101.807 23.3803 103.033 25.584 103.033C25.8046 103.033 26.0269 103.021 26.2495 102.994C27.694 102.823 28.9192 102.081 29.8918 100.79C30.9957 99.3244 31.3747 97.7688 31.0183 96.1665C30.6518 94.5178 29.5748 93.1942 28.798 92.4348C28.5541 92.4806 28.3092 92.5429 28.0637 92.6251C28.7479 93.23 30.0486 94.6268 30.4077 96.3969C30.687 97.7746 30.3403 99.1221 29.3764 100.402C28.5144 101.546 27.4372 102.203 26.1756 102.353C23.8578 102.629 21.4877 101.152 20.5864 100.514C20.4983 100.728 20.4212 100.937 20.3516 101.142Z" fill="#594E7C"/>
<path d="M98.0124 73.1606C104.352 77.9559 110.216 94.7147 110.216 94.7147C110.216 94.7147 112.668 92.245 114.412 92.3611C119.016 92.6679 124.305 100.408 123.712 103.459C123.119 106.511 112.602 118.519 104.212 118.104C102.984 118.044 101.534 117.831 100.435 116.375C94.0297 107.89 89.3312 78.9894 89.9821 76.9613C90.7454 74.5854 97.0533 72.4351 98.0124 73.1606Z" fill="#6A5B8E"/>
<path d="M119.317 90.4284C119.496 90.2368 121.239 88.3464 124.981 86.9493C128.723 85.5521 135.709 88.1 135.34 89.4939C134.971 90.8878 128.152 89.6332 128.152 89.6332C128.152 89.6332 132.057 94.5314 133.354 94.0746C134.651 93.6178 136.151 89.3729 137.67 89.3287C139.189 89.2842 137.419 92.9598 137.419 92.9598C137.419 92.9598 138.028 93.7782 137.779 95.7669C137.622 97.0154 131.343 104.236 128.234 103.166C125.126 102.096 122.724 97.9393 122.724 97.9393C122.724 97.9393 121.215 99.6038 121.015 99.7148C118.783 100.959 114.224 96.3044 116.572 93.6217C116.78 93.384 118.522 91.2804 119.317 90.4284Z" fill="#BA7367"/>
<path d="M129.861 98.8147C130.538 97.6724 131.381 96.2518 132.689 96.5608C132.733 96.5714 132.774 96.5876 132.816 96.6021L132.814 96.6005C132.922 96.4276 133.836 95.0111 134.978 94.8546C134.988 94.8346 134.999 94.8146 135.009 94.7949C135.361 94.1185 136.094 92.7107 137.115 92.4788C137.299 92.4368 137.481 92.4368 137.66 92.4729C137.536 92.7678 137.444 92.9604 137.444 92.9604C137.444 92.9604 137.59 93.1585 137.709 93.5927C137.525 93.4849 137.382 93.4875 137.287 93.5088C136.715 93.6388 136.156 94.6253 135.861 95.1837C135.962 95.314 136.055 95.4911 136.128 95.734C136.304 96.3211 136.319 97.2324 136.18 98.2115C135.811 98.6444 135.394 99.0996 134.946 99.5531C135.25 98.6283 135.405 97.6034 135.376 96.795C135.355 96.2014 135.243 95.9482 135.194 95.8889C134.566 95.8672 133.82 96.8337 133.539 97.2599C133.626 97.4395 133.688 97.646 133.717 97.8828C133.831 98.8157 133.422 100.196 132.819 101.458C132.223 101.921 131.618 102.331 131.03 102.642C131.965 101.395 132.961 99.1422 132.825 98.0308C132.787 97.717 132.676 97.6292 132.509 97.5902C131.835 97.4276 131.294 98.2447 130.602 99.4119C129.965 100.487 129.307 101.6 128.31 101.326L128.516 100.304C128.913 100.414 129.395 99.6002 129.861 98.8147Z" fill="#914F46"/>
<path d="M128.145 88.2432C128.689 88.8348 129.287 89.4703 129.676 89.8687C128.799 89.7474 128.176 89.6332 128.176 89.6332C128.176 89.6332 128.376 89.8835 128.698 90.2645C128.403 89.9545 128.028 89.5513 127.53 89.0106L128.145 88.2432Z" fill="#914F46"/>
<path d="M121.035 97.1664L121.736 96.5063C122.098 97.0289 122.491 97.5841 122.8 98.0119L122.792 98.0199C122.762 97.969 122.744 97.9393 122.744 97.9393L122.07 98.6396C121.814 98.2835 121.482 97.8106 121.035 97.1664Z" fill="#914F46"/>
<path d="M123.414 101.142C122.454 101.807 120.385 103.033 118.181 103.033C117.961 103.033 117.738 103.021 117.516 102.994C116.071 102.823 114.846 102.081 113.873 100.79C112.769 99.3244 112.391 97.7688 112.747 96.1665C113.113 94.5178 114.19 93.1942 114.967 92.4348C115.211 92.4806 115.456 92.5429 115.701 92.6251C115.017 93.23 113.717 94.6268 113.357 96.3969C113.078 97.7746 113.425 99.1221 114.389 100.402C115.251 101.546 116.328 102.203 117.59 102.353C119.907 102.629 122.278 101.152 123.179 100.514C123.267 100.728 123.344 100.937 123.414 101.142Z" fill="#594E7C"/>
<path d="M64.3442 59.2879C64.3332 59.5399 64.1461 70.7147 64.3916 71.0676C64.6371 71.4205 70.6744 75.0474 71.9305 74.9971C73.187 74.9467 78.8739 69.8727 78.8739 69.8727L78.6604 59.1676L64.3442 59.2879Z" fill="#BA7367"/>
<path d="M64.3454 59.2878C64.3345 59.5397 64.0393 69.0093 64.2848 69.3622C64.5303 69.7152 70.8759 73.2662 72.1321 73.2156C73.3886 73.1652 78.8639 69.2951 78.8639 69.2951L78.662 59.1671L64.3454 59.2878Z" fill="#914F46"/>
<path d="M81.0742 37.6662C80.2232 36.4781 75.8789 35.7381 71.5362 35.7078C67.1935 35.7381 62.8491 36.4781 61.9981 37.6662C60.9665 39.1066 59.4394 48.3739 59.952 56.4025C60.2716 61.4088 62.1801 65.9463 64.7005 67.7919C66.6163 69.1948 69.1045 69.7948 71.5359 69.7484C73.9672 69.7948 76.4554 69.1948 78.3712 67.7919C80.8916 65.9463 82.8 61.4088 83.1197 56.4025C83.633 48.3739 82.1058 39.1066 81.0742 37.6662Z" fill="#BA7367"/>
<path d="M81.3195 53.6534C81.1453 56.1493 82.3518 58.18 84.0141 58.1893C85.6764 58.1987 87.1648 56.1828 87.339 53.6873C87.5129 51.1914 86.3067 49.1607 84.6444 49.1516C82.9821 49.142 81.4937 51.1575 81.3195 53.6534Z" fill="#BA7367"/>
<path d="M61.9356 53.6534C62.1098 56.1493 60.9033 58.18 59.241 58.1893C57.5787 58.1987 56.0903 56.1828 55.9161 53.6873C55.7419 51.1914 56.9484 49.1607 58.6107 49.1516C60.273 49.142 61.7618 51.1575 61.9356 53.6534Z" fill="#BA7367"/>
<path d="M66.5611 50.3136C66.5469 51.293 66.2478 52.0856 65.8933 52.0843C65.5388 52.0827 65.2627 51.2878 65.2769 50.3084C65.2911 49.329 65.5901 48.5364 65.9447 48.5377C66.2995 48.5393 66.5753 49.3342 66.5611 50.3136Z" fill="#51424E"/>
<path d="M77.5826 50.3136C77.5684 51.293 77.2693 52.0856 76.9148 52.0843C76.5603 52.0827 76.2842 51.2878 76.2984 50.3084C76.3126 49.329 76.6116 48.5364 76.9662 48.5377C77.321 48.5393 77.5968 49.3342 77.5826 50.3136Z" fill="#51424E"/>
<path d="M72.2312 56.7872C71.0857 56.7872 68.7608 56.5394 68.2147 54.5881C67.4156 51.7316 71.1811 48.9031 71.3421 48.7841L71.7154 49.2879C71.6795 49.3147 68.1359 51.978 68.8185 54.4191C69.393 56.4736 72.7683 56.1391 72.8025 56.1352L72.8687 56.7588C72.8309 56.7633 72.5883 56.7872 72.2312 56.7872Z" fill="#914F46"/>
<path d="M59.6024 49.3946L59.8469 49.6814L60.5082 51.7063H60.7131C60.7131 51.7063 61.1428 45.1567 61.207 44.7703C61.2715 44.3838 62.7096 43.3099 62.7096 43.0309C62.7096 42.7518 63.2254 38.1133 64.0199 37.4475C64.8145 36.7817 78.6439 36.8246 79.1807 37.4475C79.7175 38.0701 80.2762 42.9877 80.3623 43.1812C80.4481 43.3744 81.4785 44.4696 81.6288 44.749C81.7791 45.028 82.333 51.9827 82.333 51.9827H82.7301L83.1224 49.7227C83.1224 49.7227 83.405 49.6036 83.4198 49.5143C83.9705 46.1987 87.2618 32.4535 71.9188 32.4535C56.3297 32.4532 59.1507 45.4564 59.6024 49.3946Z" fill="#51424E"/>
<path d="M59.9553 56.3083L58.9172 50.4269L58.2997 50.5359L58.7856 53.2886C58.3152 53.2102 57.8952 53.1376 57.8307 53.1211L57.6445 53.7199C57.6703 53.7283 57.7468 53.7537 58.9013 53.9434L59.3378 56.4174L59.9553 56.3083Z" fill="#914F46"/>
<path d="M83.332 56.3083L84.3698 50.4269L84.9873 50.5359L84.5014 53.2886C84.9718 53.2102 85.3918 53.1376 85.4563 53.1211L85.6425 53.7199C85.6166 53.7283 85.5402 53.7537 84.3856 53.9434L83.9492 56.4174L83.332 56.3083Z" fill="#914F46"/>
<path d="M66.9474 44.0519C66.1522 43.9632 65.3026 44.1474 64.6264 44.5784C64.48 44.6719 64.3642 44.7732 64.3045 44.9429C64.2513 45.0942 64.2567 45.3006 64.3354 45.4432C64.4148 45.5868 64.5383 45.7161 64.6999 45.7652C64.8557 45.8123 65.0567 45.8258 65.2003 45.7342C65.3832 45.6174 65.5784 45.5248 65.7809 45.4487C65.9906 45.3852 66.2048 45.3426 66.4232 45.3229C66.5648 45.3197 66.7065 45.3229 66.8478 45.3387C67.1833 45.3761 67.53 45.0848 67.5407 44.7448C67.5526 44.3855 67.3065 44.0922 66.9474 44.0519Z" fill="#51424E"/>
<path d="M78.2585 44.7145C77.9517 44.4906 77.6292 44.2893 77.2769 44.1438C76.8766 43.9783 76.4504 43.9248 76.0213 43.9715C75.8652 43.9886 75.6946 44.118 75.6094 44.2441C75.5211 44.3754 75.4733 44.5716 75.5111 44.728C75.5504 44.8903 75.6372 45.0496 75.7837 45.1396C75.9211 45.2242 76.0597 45.25 76.2159 45.2406C76.3252 45.2374 76.4333 45.2467 76.5407 45.2635C76.6853 45.3006 76.8247 45.3519 76.9598 45.4145C77.1608 45.5238 77.3517 45.6493 77.5366 45.7842C77.8098 45.9835 78.2547 45.8993 78.4321 45.61C78.6215 45.3029 78.5501 44.9274 78.2585 44.7145Z" fill="#51424E"/>
<path d="M74.8788 61.8186C74.8585 61.7718 74.3214 60.583 71.9155 60.6353C69.3548 60.6821 67.8195 61.684 67.8044 61.6944L67.4453 61.1582C67.5134 61.1124 69.1412 60.0408 71.9035 59.9901C74.7978 59.9472 75.452 61.5137 75.4785 61.5808L74.8788 61.8186Z" fill="#914F46"/>
<path d="M72.9522 62.0447H70.7031V62.6899H72.9522V62.0447Z" fill="#914F46"/>
<path d="M40.8146 100.585L41.2078 100.073C41.1494 100.028 36.1022 96.1498 33.7724 94.0782C33.6227 94.4846 33.5421 94.7146 33.5421 94.7146C33.5421 94.7146 33.1918 94.362 32.6621 93.9294C34.517 95.7453 40.5491 100.381 40.8146 100.585Z" fill="#594E7C"/>
<path d="M51.227 93.072C51.518 89.8348 51.7932 86.777 52.1539 84.5231L51.5167 84.4211C51.1525 86.697 50.8767 89.7655 50.5845 93.0146C49.7986 101.749 48.8331 112.468 45.573 115.679C45.6604 115.613 45.7121 115.571 45.7121 115.571C45.7121 115.571 45.6214 115.946 45.4746 116.606C49.3621 113.796 50.3938 102.335 51.227 93.072Z" fill="#594E7C"/>
<path d="M109.972 94.0359C107.918 95.9576 102.164 100.379 102.102 100.427L102.495 100.939C102.742 100.749 107.994 96.7131 110.21 94.6936C110.189 94.6311 110.107 94.4007 109.972 94.0359Z" fill="#594E7C"/>
<path d="M92.4691 93.1094C92.1769 89.8606 91.9007 86.7921 91.5365 84.5162L90.8994 84.6182C91.2601 86.8718 91.5353 89.9296 91.8262 93.1671C92.6059 101.84 93.5604 112.439 96.8695 116.061C96.8292 115.563 96.805 115.284 96.805 115.284C96.805 115.284 97.147 115.607 97.7731 116.035C94.2772 113.192 93.2775 102.1 92.4691 93.1094Z" fill="#594E7C"/>
</g>
</svg>
