<svg viewBox="0 0 98 123" fill="none" xmlns="http://www.w3.org/2000/svg">
<path d="M41.1787 20.5276C41.1787 29.1394 46.0741 37.6008 54.7263 37.7146C63.947 37.836 68.1602 29.1394 68.1602 20.5276C68.1602 11.9157 62.1202 4.93445 54.6695 4.93445C47.2187 4.93445 41.1787 11.9157 41.1787 20.5276Z" fill="#FFAF8A"/>
<path d="M68.6356 45.0467C67.9277 45.3676 67.2199 45.6817 66.5086 45.9927C64.6926 46.7867 62.8632 47.5441 61.0107 48.252C57.835 49.466 54.0806 51.1035 50.6038 50.9348C45.1985 50.6768 41.6689 43.4092 41.6689 43.4092C41.6689 43.4092 47.7754 41.3087 47.931 39.8829C47.9541 39.6977 47.9938 39.3835 48.0436 38.9797C48.0767 38.7382 48.1131 38.4669 48.1561 38.1694C48.3315 36.9025 48.5763 35.1888 48.8046 33.6275C49.046 31.9503 49.2676 30.4485 49.3537 29.8697C49.3768 29.7042 49.39 29.615 49.39 29.615L51.0506 29.7374C51.0506 29.7374 61.6163 30.5215 61.8248 30.5347C61.7884 30.5347 61.7586 31.1301 61.7387 31.9108C61.7288 32.2052 61.7221 32.5261 61.7156 32.8535C61.6923 34.0212 61.6824 35.2385 61.6858 35.4502C61.7752 39.5158 65.1592 40.9084 67.6402 41.7354C70.3391 42.6352 69.1184 44.8252 68.6356 45.0467Z" fill="#FFAF8A"/>
<path d="M3.49917 42.5309L3.03578 33.161C3.03578 33.161 2.21201 33.6244 1.59427 32.0284C0.976524 30.4323 0.718971 28.0127 1.13086 27.5493C1.54274 27.0859 2.46936 27.3948 2.46936 27.3948C2.46936 27.3948 2.52086 26.3652 2.93275 25.9018C3.34463 25.4384 4.58031 25.9533 4.58031 25.9533C4.58031 25.9533 5.04369 25.0265 5.55841 24.6148C6.07332 24.2029 6.84558 24.3574 6.84558 24.3574C6.84558 24.3574 5.40407 18.0249 6.22785 17.5102C7.05162 16.9953 7.72086 16.738 8.13275 18.0765C8.54463 19.415 10.6554 27.7038 10.9643 29.2484C11.2731 30.7929 12.0969 41.2439 12.0969 41.2439L3.49917 42.5309Z" fill="#FFAF8A"/>
<path d="M2.32453 27.4322C2.52774 28.4468 2.68333 29.4921 3.0012 30.4791C3.18236 31.0412 3.47165 31.8961 3.9989 32.2277C4.32594 32.4334 4.93416 32.3893 5.28025 32.2508C5.76658 32.0562 5.78438 31.5318 5.77415 31.0554C5.7715 30.9351 5.57552 30.8968 5.55488 31.0257C5.44851 31.689 5.36492 32.0769 4.6327 32.0825C3.95075 32.0878 3.63958 31.3999 3.40515 30.8435C2.94564 29.753 2.77452 28.5285 2.5154 27.3794C2.48735 27.2549 2.29966 27.3082 2.32453 27.4322Z" fill="black"/>
<path d="M4.50006 26.0057C4.52934 26.9984 4.62936 28.087 5.00526 29.0143C5.05483 29.1365 5.23175 29.0928 5.20547 28.9591C5.00932 27.967 4.76483 27.0238 4.70662 26.0057C4.69886 25.8741 4.49617 25.8721 4.50006 26.0057Z" fill="black"/>
<path d="M3.35368 33.0783C3.63397 33.2549 4.1263 33.0402 4.06279 32.6726C4.04604 32.5761 3.90632 32.5904 3.88127 32.6726C3.82571 32.8548 3.65707 33.0275 3.45492 32.9053C3.34397 32.8384 3.24501 33.0099 3.35368 33.0783Z" fill="#FFAF8A"/>
<path d="M6.8361 25.6316C6.77101 26.5134 6.93646 27.3554 7.31589 28.1529C7.38116 28.2899 7.5863 28.1703 7.52015 28.0334C7.15342 27.2763 6.99378 26.4713 7.03047 25.6316C7.03594 25.5059 6.84527 25.508 6.8361 25.6316Z" fill="black"/>
<path d="M8.79447 34.2513C8.70222 34.2513 8.52775 34.1451 7.92517 33.5828C7.22735 32.9312 6.8982 31.9014 6.81865 31.6214C6.71193 31.5696 6.44998 31.444 5.90598 31.1901C5.12648 30.8266 4.66572 30.5301 4.84071 29.4803C4.88657 29.205 5.03368 28.9846 5.27799 28.8264C5.89644 28.4253 7.01938 28.5179 7.86361 28.7386C9.08745 29.0577 10.6636 31.2281 10.7301 31.3205L10.4794 31.5009C10.4639 31.4796 8.90225 29.3288 7.78566 29.0374C6.80419 28.7821 5.88604 28.8008 5.44593 29.0857C5.275 29.1967 5.17675 29.3424 5.14518 29.5313C5.009 30.3482 5.28153 30.5585 6.03634 30.9105C6.8116 31.2725 7.01815 31.3757 7.01815 31.3757L7.08147 31.4075L7.09877 31.4766C7.10176 31.4884 7.40676 32.6772 8.13564 33.3577C8.69375 33.8784 8.81899 33.9396 8.83134 33.9451L8.77118 34.0873L8.71474 33.9633C8.67293 33.991 8.64788 34.0377 8.64788 34.0885H8.95675L8.86043 34.2342C8.84032 34.2425 8.82058 34.2513 8.79447 34.2513Z" fill="black"/>
<path d="M2.72027 33.2881C3.36624 33.4352 4.1161 32.9397 4.0159 32.223C4.00338 32.1339 3.85451 32.1371 3.83899 32.223C3.79348 32.4756 3.73984 32.7014 3.54739 32.8857C3.34242 33.082 3.04697 33.1457 2.77303 33.096C2.64885 33.0736 2.5938 33.2593 2.72027 33.2881Z" fill="black"/>
<path d="M34.699 89.9469L33.8752 98.596C33.8752 98.596 30.9922 103.95 29.9626 109.51C28.9329 115.071 27.6973 121.66 27.6973 121.66L81.0337 122.896C81.0337 122.896 79.5922 111.57 77.5329 106.833C75.4737 102.097 73.6202 90.7707 73.6202 90.7707L34.699 89.9469Z" fill="#B27142"/>
<path d="M76.0926 94.888C76.0926 94.888 61.2629 98.3912 55.7055 98.1827C51.5805 98.0305 41.0081 95.953 35.8147 94.8913C34.0978 94.5406 32.8904 92.9991 32.9533 91.2493L33.6679 71.0012C33.6679 71.0012 19.6652 79.6515 13.2809 79.8567C6.8997 80.0618 2.72845 76.8696 0.925675 68.7352C-0.711816 61.3419 0.720532 41.7587 0.720532 41.7587L12.8707 39.4927L15.5468 61.7356C15.5468 61.7356 26.2548 51.4379 32.8443 47.5245C37.095 45.0007 41.1703 43.4228 44.0251 42.2882C44.0596 42.2745 47.5304 45.4955 47.9825 45.7777C49.9326 46.9955 51.2097 47.5889 53.4686 48.0484C56.0818 48.5799 59.7455 47.962 62.1796 46.7253C64.5901 45.5006 66.9325 44.0312 68.3622 41.7821C72.4211 44.0614 78.4217 47.485 78.5641 48.762C78.7687 50.6141 76.0926 94.888 76.0926 94.888Z" fill="#E56B54"/>
<path d="M76.9139 93.2418C76.9139 93.2418 72.4863 95.2498 72.1775 95.2498C71.8686 95.2498 66.4629 93.0875 65.9995 93.036C65.5361 92.9845 60.3365 94.632 60.1304 95.0439C59.9246 95.4558 60.3014 96.248 61.1408 96.0735C62.6273 95.7647 64.4486 95.3078 65.1179 95.2048C65.7871 95.1018 66.9776 95.4043 66.9776 95.4043C66.9776 95.4043 61.8937 97.2127 61.1793 97.8883C60.8778 98.1735 61.4612 99.0224 62.6466 98.7184C64.1525 98.3323 67.2092 96.968 67.4151 97.0195C67.621 97.071 67.3894 97.3607 66.926 97.6696C66.4626 97.9784 63.1098 99.2977 62.0479 100.128C61.7208 100.383 62.878 100.958 63.8626 100.649C65.239 100.217 67.8526 99.1111 68.2644 99.1111C68.6763 99.1111 68.6248 99.2656 68.316 99.5745C68.0071 99.8833 64.3003 101.84 64.1973 102.406C64.0943 102.972 64.7122 103.024 65.3299 102.869C65.9477 102.715 70.6199 101.492 71.2376 101.132C71.8553 100.772 79.2818 100.012 79.2818 100.012L76.9139 93.2418Z" fill="#FFAF8A"/>
<path d="M78.0867 48.4644L72.0762 68.324C72.0762 68.324 82.8875 79.9591 82.9906 80.474C83.0936 80.9889 73.8265 94.0656 73.8265 94.0656C73.8265 94.0656 74.0324 95.919 74.8562 96.8456C75.68 97.7724 80.2105 102.509 80.2105 102.509C80.2105 102.509 89.0656 95.3012 93.699 88.7114C98.3324 82.1216 98.711 82.1454 96.891 76.6644C92.4119 63.1758 83.8963 54.1396 81.9094 51.9011C78.859 48.4644 78.0867 48.4644 78.0867 48.4644Z" fill="#E56B54"/>
<path d="M83.8524 80.0996C85.4144 79.715 86.9527 79.5767 88.5502 79.4557C88.8185 79.4354 88.822 79.0513 88.5502 79.0359C86.9492 78.9452 85.2711 79.2411 83.7358 79.676C83.4636 79.7531 83.5776 80.1671 83.8524 80.0996Z" fill="black"/>
<path d="M84.5773 78.8023C85.292 77.7326 86.1618 76.8999 87.0837 76.0193C87.2668 75.8443 87.0234 75.5102 86.8073 75.6612C85.7447 76.4033 84.8775 77.4892 84.1855 78.5735C84.0274 78.821 84.4162 79.0434 84.5773 78.8023Z" fill="black"/>
<path d="M33.8998 60.8077C33.8506 62.9506 33.8134 65.0933 33.7815 67.2365C33.7677 68.1633 33.7973 69.1012 33.7178 70.0253C33.6398 70.9317 33.2681 71.7726 33.3687 72.6785C33.402 72.9782 33.863 72.9936 33.8488 72.6785C33.8122 71.8579 34.1256 71.0855 34.2087 70.2762C34.3119 69.2714 34.2741 68.245 34.2814 67.2365C34.2969 65.0935 34.3069 62.9508 34.3052 60.8077C34.305 60.5465 33.9058 60.5468 33.8998 60.8077Z" fill="black"/>
<path d="M15.0429 60.8072C15.0335 63.3097 15.0581 65.8223 15.1427 68.3234C15.153 68.6267 15.6151 68.6291 15.6158 68.3234C15.6213 65.8207 15.5661 63.3083 15.4774 60.8072C15.4673 60.5286 15.0439 60.5263 15.0429 60.8072Z" fill="black"/>
<path d="M15.7132 62.2877C16.2392 62.7208 16.7416 63.1792 17.2134 63.6708C17.6798 64.1568 18.0698 64.747 18.5636 65.1988C18.738 65.3584 18.9956 65.1588 18.8876 64.9488C18.5923 64.3745 18.0665 63.8686 17.6207 63.408C17.1229 62.8936 16.5888 62.4181 16.0303 61.9706C15.8081 61.7922 15.4888 62.1032 15.7132 62.2877Z" fill="black"/>
<path d="M57.0652 22.8381C57.9852 22.1632 59.2426 22.1277 60.3502 22.4024C60.7848 22.5102 61.2191 22.6666 61.5624 22.9543C62.2588 23.538 62.4077 24.7169 61.7855 25.3794C61.5158 25.6668 61.1442 25.8372 60.7685 25.9568C59.4352 26.3816 57.8192 26.1694 56.8872 25.1254C56.5811 24.7827 56.3548 24.3421 56.3742 23.8827C56.3936 23.4237 56.7617 23.0605 57.0652 22.8381Z" fill="#E56B54"/>
<path d="M41.3573 21.1875C42.2774 20.5126 43.5348 20.4771 44.6424 20.7518C45.077 20.8595 45.5111 21.016 45.8544 21.3037C46.551 21.8874 46.6997 23.0663 46.0775 23.7288C45.8078 24.0162 45.4361 24.1866 45.0604 24.3062C43.727 24.7309 42.1112 24.5187 41.1792 23.4748C40.8731 23.1321 40.6468 22.6914 40.6662 22.2321C40.6858 21.7733 41.0539 21.4099 41.3573 21.1875Z" fill="#E56B54"/>
<path d="M47.3516 27.6215C47.5148 28.6573 47.9482 29.6002 48.5829 30.3825C49.1213 31.0454 49.8821 31.6231 50.7351 31.5929C51.0874 31.5807 51.4289 31.4645 51.7432 31.3047C52.8351 30.7487 53.585 29.6123 53.7517 28.4045C53.8093 27.9863 53.7974 27.56 53.7056 27.1458C51.5397 27.1368 49.3977 26.9344 47.2804 26.5813C47.2737 26.9367 47.2985 27.2839 47.3516 27.6215Z" fill="white"/>
<path d="M47.3506 27.6215C47.5138 28.6573 47.9472 29.6001 48.5818 30.3824C49.1202 31.0453 49.881 31.623 50.7341 31.5929C51.0863 31.5807 51.4278 31.4644 51.7422 31.3046C52.8341 30.7486 53.5839 29.6123 53.7506 28.4045C53.7393 28.3276 53.7252 28.2512 53.7083 28.1753C51.5654 28.1667 49.4458 27.9684 47.3506 27.6215Z" fill="#E56B54"/>
<path d="M48.4456 15.1203C47.4595 14.671 46.6467 14.4837 45.562 14.399C44.6897 14.3311 43.6647 14.2882 42.9499 14.8384C42.7982 14.9552 42.8203 15.2537 43.0538 15.2734C44.3576 15.3838 45.6564 15.5461 46.9462 15.7689C47.2575 15.8227 48.5408 16.248 48.753 15.6093C48.8236 15.3969 48.6264 15.2027 48.4456 15.1203Z" fill="black"/>
<path d="M57.3655 16.2594C58.435 16.0855 59.2685 16.1186 60.3371 16.3225C61.1967 16.4866 62.1967 16.715 62.7414 17.4338C62.857 17.5864 62.7571 17.8686 62.5266 17.8261C61.2397 17.5894 59.9441 17.4042 58.641 17.2797C58.3265 17.2495 56.9764 17.3222 56.9399 16.6503C56.9281 16.4266 57.1696 16.2911 57.3655 16.2594Z" fill="black"/>
<path d="M46.5784 19.6972C45.9492 19.7875 45.3145 19.7411 44.7005 19.5773C44.335 19.4797 43.9767 19.3345 43.679 19.1012C43.3609 18.8519 43.0392 18.4372 43.0928 18.0105C43.553 17.5074 44.3505 17.5348 45.0083 17.4026C45.5548 17.2929 46.1325 17.268 46.6527 17.4601C47.1522 17.6445 48.0088 19.1396 48.019 19.1728C48.021 19.1789 47.2182 19.6055 46.5784 19.6972Z" fill="white"/>
<path d="M44.8683 17.2615C44.5675 17.1945 44.2424 17.3007 44.012 17.5053C43.7817 17.7101 43.6413 18.0035 43.586 18.3067C43.5531 18.4873 43.5492 18.6776 43.6107 18.8507C43.6988 19.0987 43.9097 19.283 44.1313 19.4252C44.4479 19.6282 44.8242 19.7722 45.1962 19.7164C45.8083 19.6249 46.2375 18.9886 46.2428 18.3697C46.2451 18.0895 46.1701 17.7969 45.9764 17.5942C45.8584 17.4706 45.7035 17.3875 45.543 17.3282C45.2574 17.2227 44.9457 17.1876 44.8683 17.2615Z" fill="black"/>
<path d="M43.0119 17.0306C43.135 17.2111 43.3043 17.3961 43.4809 17.5251C43.5499 17.5755 43.8762 17.7147 43.7264 17.8375C43.5797 17.9576 43.3184 17.7085 43.2265 17.6124C43.0766 17.4556 42.9812 17.2769 42.9221 17.0689C42.9064 17.0133 42.9812 16.9856 43.0119 17.0306Z" fill="black"/>
<path d="M43.6755 16.7613C43.7461 16.9109 43.8302 17.0684 43.9348 17.1972C43.9876 17.2621 44.0553 17.3283 44.1356 17.3572C44.2105 17.3842 44.2583 17.3725 44.3049 17.4459C44.3195 17.469 44.3178 17.4988 44.3053 17.5221C44.3016 17.5292 44.2977 17.5362 44.2938 17.5433C44.2761 17.5759 44.2333 17.604 44.195 17.6004C43.8069 17.565 43.6034 17.1683 43.5219 16.8269C43.5004 16.7386 43.633 16.6712 43.6755 16.7613Z" fill="black"/>
<path d="M43.0118 18.6891C43.4359 17.9272 44.611 17.2922 45.6569 17.4409C46.6086 17.5762 47.4632 18.1803 47.8005 18.9655C47.9298 19.2661 48.1998 18.972 48.0776 18.6751C47.6895 17.7335 46.472 17.1195 45.3479 17.0518C44.1854 16.9817 43.0709 17.6723 42.7778 18.613C42.7368 18.7446 42.9446 18.8097 43.0118 18.6891Z" fill="black"/>
<path d="M60.4506 21.4211C59.8175 21.4772 59.1862 21.3968 58.5818 21.2001C58.2221 21.083 57.8721 20.9187 57.5874 20.6697C57.2833 20.4035 56.9845 19.9722 57.0609 19.5489C57.5476 19.0713 58.3424 19.1416 59.0064 19.0451C59.558 18.965 60.1362 18.9712 60.6453 19.1911C61.1341 19.4023 61.9088 20.9413 61.9173 20.975C61.9189 20.9814 61.0944 21.364 60.4506 21.4211Z" fill="white"/>
<path d="M58.8711 18.8969C58.5744 18.8137 58.244 18.9022 58.0028 19.0943C57.7617 19.2864 57.6058 19.5718 57.5343 19.8715C57.4916 20.0502 57.4776 20.24 57.5296 20.4162C57.6042 20.6686 57.8048 20.8639 58.0184 21.0179C58.3236 21.2379 58.6915 21.4018 59.066 21.3661C59.6822 21.3077 60.145 20.6956 60.1836 20.0779C60.2011 19.7981 60.142 19.5021 59.9596 19.2892C59.8485 19.1594 59.6984 19.068 59.5412 19.0003C59.2616 18.8791 58.9524 18.8272 58.8711 18.8969Z" fill="black"/>
<path d="M56.5333 19.2234C56.6237 19.3345 56.7346 19.4342 56.8428 19.5277C56.9036 19.5803 56.972 19.6259 57.0424 19.6651C57.1061 19.7006 57.1594 19.7124 57.1987 19.7776C57.2225 19.8172 57.2116 19.8847 57.1657 19.9052C57.0057 19.9768 56.823 19.8226 56.7126 19.7148C56.5838 19.5889 56.5042 19.4432 56.4511 19.2716C56.4374 19.2269 56.5016 19.1842 56.5333 19.2234Z" fill="black"/>
<path d="M57.0257 18.5637C57.1422 18.7555 57.3032 18.9495 57.477 19.0918C57.5417 19.1449 57.8474 19.2906 57.7001 19.4074C57.5507 19.526 57.3022 19.2651 57.2159 19.1651C57.0723 18.9987 56.9846 18.8158 56.9359 18.602C56.9238 18.5485 56.9961 18.5149 57.0257 18.5637Z" fill="black"/>
<path d="M57.7122 18.3492C57.775 18.5034 57.8535 18.6683 57.9551 18.8012C58.0042 18.8654 58.0657 18.925 58.1419 18.9543C58.213 18.9816 58.2555 18.976 58.2954 19.0469C58.3084 19.0702 58.3101 19.1 58.2958 19.1231C58.2919 19.1293 58.2882 19.1356 58.2843 19.142C58.2548 19.1898 58.2072 19.2028 58.1548 19.1952C57.7862 19.1414 57.6094 18.7183 57.5498 18.3947C57.5297 18.2866 57.6715 18.2492 57.7122 18.3492Z" fill="black"/>
<path d="M56.9429 20.2223C57.4074 19.4846 58.615 18.9138 59.6515 19.1186C60.5945 19.3049 61.4155 19.9544 61.7099 20.7565C61.8226 21.0637 62.1084 20.7845 62.0022 20.4816C61.6655 19.5206 60.4827 18.8417 59.3638 18.7134C58.207 18.5808 57.0567 19.2103 56.7133 20.134C56.6653 20.2629 56.8694 20.3393 56.9429 20.2223Z" fill="black"/>
<path d="M51.1498 18.8955C50.5266 20.3067 49.8526 21.7687 49.43 23.2564C49.1714 24.1661 49.9226 24.6011 50.6707 24.9906C50.9702 25.1465 51.2017 24.6755 50.903 24.5201C50.2632 24.1869 49.8305 23.9574 50.0091 23.1733C50.1172 22.6988 50.356 22.2111 50.5296 21.7588C50.8697 20.8726 51.2352 19.997 51.6187 19.1287C51.7549 18.8202 51.2864 18.5863 51.1498 18.8955Z" fill="black"/>
<path d="M76.5104 48.9655C76.4252 50.9125 76.2749 52.8901 76.3368 54.8384C76.3453 55.1066 76.7219 55.0976 76.7471 54.8384C76.9364 52.8979 76.9166 50.9147 76.9593 48.9655C76.9657 48.6757 76.5231 48.6778 76.5104 48.9655Z" fill="black"/>
<path d="M35.1034 99.1867C38.4435 101.719 42.852 102.319 46.9137 102.733C51.6415 103.215 56.503 103.131 61.1856 102.284C61.409 102.243 61.3603 101.854 61.1315 101.883C56.6884 102.459 52.2756 102.722 47.8015 102.346C43.5728 101.991 38.8111 101.443 35.3033 98.845C35.0974 98.6928 34.9036 99.0352 35.1034 99.1867Z" fill="black"/>
<path d="M53.3141 103.027C52.9892 109.044 52.8584 115.069 52.8655 121.094C52.8659 121.404 53.3486 121.405 53.3481 121.094C53.3386 115.069 53.4845 109.047 53.7291 103.027C53.7401 102.76 53.3284 102.761 53.3141 103.027Z" fill="black"/>
<path d="M50.5988 103.488C50.6424 106.344 50.3353 109.239 50.4595 112.085C50.5321 113.753 51.1686 115.357 52.9144 115.811C53.2107 115.888 53.3372 115.428 53.0407 115.352C50.4184 114.678 50.9361 111.431 51.0054 109.384C51.0719 107.419 51.0628 105.453 50.9874 103.488C50.9777 103.239 50.5949 103.237 50.5988 103.488Z" fill="black"/>
<path d="M71.5734 101.629C73.9154 104.999 75.0189 109.206 78.2082 111.953C78.4297 112.144 78.754 111.821 78.5307 111.63C75.367 108.924 74.2606 104.747 71.9027 101.437C71.7618 101.239 71.4325 101.427 71.5734 101.629Z" fill="black"/>
<path d="M79.7177 85.592C77.8087 88.0614 75.7678 90.4988 74.1189 93.1522C73.9578 93.4113 74.3676 93.6498 74.5272 93.3909C76.1596 90.7454 78.1887 88.3345 80.0361 85.8376C80.1717 85.6545 79.8585 85.41 79.7177 85.592Z" fill="black"/>
<path d="M37.5475 38.7072C37.6929 40.1409 38.0148 41.5468 38.5966 42.8691C41.1017 48.563 47.4635 50.4065 53.29 50.4704C58.8236 50.5309 64.8493 48.7826 68.0908 44.0845C68.2047 43.9192 68.318 43.7428 68.3353 43.5451C68.3573 43.2919 68.2199 43.0533 68.0896 42.831C67.4694 41.774 66.8977 40.6352 66.8864 39.4258C66.8749 38.2165 67.5761 36.9274 68.7858 36.5878C68.1309 36.7716 67.8013 34.5019 67.7922 34.1897C67.7595 33.0946 68.2534 32.3176 68.6941 31.3363C69.6854 29.1296 70.4693 26.8285 70.9842 24.4688C72.0853 19.4219 72.1061 13.6056 69.4147 9.03549C66.9435 4.83936 62.6743 1.2458 57.665 0.56403C48.3698 -0.700911 41.3254 5.48956 40.1315 14.3598C39.6382 18.0254 38.9395 22.3907 38.6179 26.0747C38.3713 28.8992 37.7825 31.6868 37.5475 34.5121C37.432 35.9027 37.4068 37.3179 37.5475 38.7072ZM42.2053 27.18C41.6334 25.3079 42.0107 22.7214 41.9761 20.717C41.8415 12.9242 45.2767 6.80848 52.3162 6.7388C59.3556 6.66895 64.4348 12.7511 66.5272 20.3598C66.7948 21.3328 66.4831 22.3725 66.348 23.3609C65.4374 30.0181 61.1141 36.1426 53.2158 35.824C46.7494 35.5631 43.8567 32.5866 42.2053 27.18Z" fill="black"/>
<path d="M64.957 41.8035C63.9846 40.702 63.2544 39.1501 63.7912 37.8788C63.8439 37.7539 63.9099 37.6396 63.9844 37.5325C65.0228 36.0393 68.0485 36.2066 69.5774 36.2122C71.2904 36.2186 73.0034 36.2249 74.7164 36.2313C76.8687 36.2392 79.0696 36.2551 81.0984 36.9635C83.1269 37.6719 84.9863 39.2171 85.4473 41.2817C84.7888 40.9788 84.0892 40.7403 83.3642 40.689C81.8341 40.5809 80.3787 41.3078 79.0815 42.1099C77.7843 42.9121 76.51 43.8285 75.0176 44.1749C74.1219 44.3829 73.1896 44.3739 72.2697 44.337C71.6696 44.3129 71.0625 44.2735 70.4599 44.2055C70.3283 44.1208 70.1967 44.0359 70.0651 43.9511C68.8351 43.1587 66.5125 41.5214 64.957 41.8035Z" fill="black"/>
<path d="M66.3323 41.4228C66.5058 41.3851 66.6833 41.3805 66.8629 41.4015C68.4342 41.5837 70.174 43.8231 71.1174 44.9379C71.2183 45.0571 71.3192 45.1765 71.4201 45.2958C72.418 46.4752 73.4158 47.6544 74.4137 48.8336C75.7944 50.4653 77.2011 52.1375 78.0566 54.0373C78.9122 55.9369 79.1263 58.1405 78.1099 59.5548C77.8786 58.9006 77.58 58.2484 77.1458 57.6737C76.2295 56.461 74.8302 55.7357 73.4848 55.1689C72.1394 54.6021 70.7364 54.1116 69.5552 53.1622C68.8463 52.5923 68.2518 51.8826 67.6831 51.168C66.817 50.0797 65.9763 48.922 65.3825 47.7059C65.0626 47.0504 64.8133 46.3783 64.6731 45.6902C64.3635 44.1695 64.7544 41.7652 66.3323 41.4228Z" fill="black"/>
</svg>
