<svg xmlns="http://www.w3.org/2000/svg" xmlns:svg="http://www.w3.org/2000/svg" width="280" height="160" viewBox="0 0 74.083332 42.333333" version="1.1" id="svg1">
  <defs id="defs1"/>
  <g id="layer1">
    <g id="g3" transform="matrix(1.0648965,0,0,1.0648965,-9.0156941,44.504045)" style="display:inline">
      <path d="m 22.199107,-26.511371 c 0,0 -0.05302,2.081874 -0.490617,2.53275 -0.437595,0.450877 -1.909445,0.649738 -1.909445,0.649738 0,0 3.301206,3.739409 4.335806,3.646566 1.034574,-0.09284 4.138798,-3.47337 4.138798,-3.47337 0,0 -1.817979,-0.597588 -1.950588,-0.86278 -0.132583,-0.265165 -0.212143,-2.612205 -0.212143,-2.612205 z" fill="#b4b4b4" id="path1-4" style="stroke-width:0.264583"/>
      <path d="m 26.303482,-24.087364 c -0.09742,-0.38354 -0.162243,-1.849782 -0.182404,-2.363497 -0.744326,0.07498 -3.396377,0.394917 -3.945969,0.461381 -0.0331,0.462941 -0.103796,1.134162 -0.24982,1.591759 0.349039,0.538189 1.206394,1.669257 2.207207,1.590728 0.789332,-0.06199 1.628378,-0.746231 2.170986,-1.280371 z" fill="#888888" id="path2-0" style="stroke-width:0.264583"/>
      <path d="m 21.127332,-32.279817 c -0.137424,0.418624 -0.160866,1.043199 -0.271991,1.694604 -0.233971,1.371494 -0.503714,3.109647 0.26371,4.556998 0.912945,1.72204 4.208806,1.757283 5.243301,0.01984 0.990547,-1.663673 1.449784,-5.636789 0.964962,-6.573096 -0.79211,-1.529517 -5.451766,-1.976943 -6.199982,0.301651 z" fill="#b4b4b4" id="path3-6" style="stroke-width:0.264583"/>
      <path d="m 21.847634,-30.487053 c -0.02286,0.0657 -0.04001,0.146473 -0.04665,0.235162 -0.01654,0.219657 0.0349,0.399229 0.114829,0.400976 0.0799,0.0017 0.158115,-0.175022 0.174652,-0.394679 0.0065,-0.08647 0.0016,-0.165074 -0.01069,-0.230426 -0.07731,-0.0038 -0.154728,-0.0072 -0.232145,-0.01103 z" fill="#3b3b3b" id="path4-5" style="stroke-width:0.264583"/>
      <path d="m 24.982153,-30.258188 c -0.02233,0.06525 -0.03889,0.145071 -0.04543,0.232489 -0.01656,0.219657 0.0349,0.39915 0.114829,0.400976 0.0799,0.0017 0.158115,-0.174943 0.174651,-0.394679 0.0066,-0.08673 0.0022,-0.166555 -0.01008,-0.232331 -0.07803,-0.0014 -0.155946,-0.0033 -0.233971,-0.0065 z" fill="#3b3b3b" id="path5-3" style="stroke-width:0.264583"/>
      <path d="m 23.344144,-28.662222 c -0.223123,-0.0042 -0.473551,-0.04162 -0.645451,-0.163883 -0.11692,-0.08311 -0.186981,-0.195606 -0.208201,-0.334301 -0.09639,-0.629496 1.091486,-1.189699 1.142101,-1.21322 l 0.07559,0.156025 c -0.312923,0.145706 -1.110959,0.615632 -1.046824,1.034441 0.01405,0.09136 0.05845,0.162666 0.135943,0.217752 0.312261,0.22225 1.006845,0.09673 1.01383,0.09543 l 0.03482,0.169043 c -0.01699,0.0032 -0.240771,0.04363 -0.501809,0.03871 z" fill="#888888" id="path6-8" style="stroke-width:0.264583"/>
      <path d="m 27.339775,-34.053025 c 0.460693,0.575445 0.04837,1.003988 0.04837,1.003988 0,0 0.278183,0.201557 0.401982,0.570703 0.123798,0.369068 -0.190871,2.497297 -0.190871,2.497297 l -0.708554,0.802878 h -0.396901 c 0,0 0.266144,-1.552628 0.217249,-1.659282 -0.04887,-0.106627 -0.328798,-0.07742 -0.40423,-0.397166 -0.07543,-0.319749 -0.07699,-1.307518 -0.295434,-1.564349 -0.272521,-0.320426 -3.886147,-0.630264 -4.217961,-0.320257 -0.331814,0.310018 -0.625343,1.150731 -0.649393,1.232699 -0.07665,0.261382 -0.277072,1.239944 -0.277072,1.239944 0,0 0.08041,-2.056607 0.416454,-2.717904 0.120174,-0.236558 0.235109,-0.316301 0.235109,-0.316301 0,0 0.05128,-1.195202 1.980988,-1.639695 1.929712,-0.444493 2.658428,0.35337 2.760583,0.453372 0.102156,0.100002 0.02267,0.288886 0.02267,0.288886 0,0 0.77597,0.174143 1.057011,0.525187 z" fill="#5a5a5a" id="path7-5" style="stroke-width:0.264583"/>
      <path d="m 27.576154,-30.118991 c -0.437435,0.05218 -0.875559,0.615288 -0.978667,1.257802 -0.103002,0.642594 0.168037,1.121225 0.605552,1.069076 0.437409,-0.05207 0.875532,-0.615289 0.978535,-1.257803 0.103108,-0.642514 -0.168011,-1.121225 -0.60542,-1.069075 z" fill="#b4b4b4" id="path8-1" style="stroke-width:0.264583"/>
      <path d="m 27.313687,-28.150491 -0.204761,-0.02585 0.365972,-1.483942 0.204841,0.02588 z" fill="#888888" id="path9-2" style="stroke-width:0.264583"/>
      <path d="m 27.428649,-28.827216 -0.08924,-0.156369 0.532104,-0.241829 0.08922,0.156395 z" fill="#888888" id="path10-4" style="stroke-width:0.264583"/>
      <path d="m 21.620701,-32.905892 c 0.03448,-0.05104 0.06993,-0.09828 0.105966,-0.140264 -0.144833,-0.16578 -0.209921,-0.409318 -0.191559,-0.726826 2.65e-4,-0.0039 8.47e-4,-0.0077 0.0011,-0.01155 -0.0137,0.06526 -0.0155,0.103883 -0.0155,0.103883 0,0 -0.06749,0.04741 -0.153035,0.17552 0.02508,0.249317 0.110172,0.449667 0.253021,0.599239 z" fill="#505050" id="path11-6" style="stroke-width:0.264583"/>
      <path d="m 22.79516,-33.247297 c -0.13089,-0.140952 -0.228732,-0.336905 -0.213916,-0.606825 0.03252,-0.589841 0.488977,-1.167701 0.70821,-1.413138 -0.108955,0.03026 -0.211455,0.06293 -0.307419,0.09776 -0.242332,0.311301 -0.544909,0.796311 -0.572849,1.305893 -0.01423,0.258972 0.05871,0.461129 0.168724,0.61803 0.06948,-0.0015 0.142055,-0.0021 0.21725,-0.0017 z" fill="#505050" id="path12-7" style="stroke-width:0.264583"/>
      <path d="m 27.40055,-33.041428 -1.266216,0.523301 c 0.01371,0.05345 0.02585,0.11086 0.03672,0.171371 l 1.365885,-0.56441 c -0.06284,-0.07009 -0.115702,-0.114053 -0.136393,-0.130262 z" fill="#505050" id="path13-5" style="stroke-width:0.264583"/>
      <path d="m 23.568061,-34.164351 c 0.02688,-0.46191 0.734668,-1.013992 1.140354,-1.287101 -0.09872,-0.0034 -0.20328,-0.0026 -0.313108,0.0026 -0.438282,0.326818 -0.97372,0.834847 -0.999331,1.274514 -0.02104,0.361473 0.09051,0.703206 0.208465,0.95623 0.06638,0.0041 0.133085,0.0087 0.199919,0.01362 -0.122608,-0.239747 -0.257519,-0.593204 -0.236299,-0.95985 z" fill="#505050" id="path14-5" style="stroke-width:0.264583"/>
      <path d="m 26.102557,-32.615838 c 0.05302,-0.175604 0.159306,-0.427238 0.375709,-0.721039 0.253788,-0.344578 0.686302,-0.447424 1.011475,-0.472512 -0.02326,-0.05293 -0.05371,-0.107847 -0.09215,-0.164311 -0.349329,0.03879 -0.786818,0.166036 -1.058201,0.534492 -0.174149,0.236387 -0.282178,0.448117 -0.349753,0.62062 0.0083,0.0066 0.01569,0.01302 0.02127,0.01958 0.03622,0.04265 0.06604,0.106813 0.09165,0.183171 z" fill="#505050" id="path15-0" style="stroke-width:0.264583"/>
      <path d="m 25.706397,-33.882258 c 0.291835,-0.333973 0.662358,-0.513201 0.899504,-0.600964 -0.10922,-0.03767 -0.202407,-0.06405 -0.26035,-0.07914 -0.236988,0.110434 -0.525436,0.288025 -0.76888,0.566653 -0.295698,0.338542 -0.294692,0.713811 -0.236828,0.978386 0.06501,0.01233 0.12655,0.02491 0.184229,0.03776 -0.06543,-0.223882 -0.09898,-0.580615 0.182325,-0.902692 z" fill="#505050" id="path16-5" style="stroke-width:0.264583"/>
      <path d="m 24.659335,-34.177382 c 0.194151,-0.509926 0.738981,-0.845452 1.126834,-1.027353 -0.06234,-0.03052 -0.131631,-0.06034 -0.207672,-0.0881 -0.398118,0.206903 -0.888735,0.550962 -1.080294,1.054077 -0.170682,0.448458 -0.09017,0.834329 0.02561,1.101664 0.06932,0.0079 0.137769,0.01621 0.204761,0.02483 -0.130625,-0.251817 -0.234659,-0.630534 -0.06924,-1.065112 z" fill="#505050" id="path17-2" style="stroke-width:0.264583"/>
      <g opacity="0.22" id="g18" transform="matrix(0.26458333,0,0,0.26458333,8.6007669,-35.513078)">
        <path d="M 70.8252,5.51837 C 70.4753,5.08111 69.9214,4.71813 69.3372,4.42587 69.0192,4.57901 68.6871,4.70152 68.361,4.75104 67.0215,4.95371 53.987,3.38452 52.7782,2.90196 c -0.3255,-0.13 -0.5468,-0.31051 -0.7028,-0.5034 -1.3506,0.85107 -2.1394,1.80575 -2.6018,2.61901 0.1535,0.46431 0.3646,0.85107 0.6585,0.97879 0.9146,0.39752 14.3381,2.03806 17.7049,1.3851 1.4093,-0.27337 2.5275,-0.8087 3.3486,-1.34372 C 71.0849,5.86864 70.967,5.69563 70.8252,5.51837 Z" fill="#d2d2d2" id="path18-0"/>
      </g>
      <path d="m 24.819857,-27.447202 c -0.08559,-0.0078 -1.823667,-0.118454 -1.841156,-0.119565 l 0.01095,-0.172085 c 0.07173,0.0046 1.757971,0.111918 1.845919,0.119935 z" fill="#888888" id="path19-7" style="stroke-width:0.264583"/>
      <path d="m 24.218592,-26.957935 c -0.608198,-0.0526 -0.629841,-0.05802 -0.637858,-0.06001 l 0.02088,-0.08363 0.01601,-0.08464 c 0.03286,0.0052 0.395208,0.03749 0.615818,0.05654 z" fill="#888888" id="path20-7" style="stroke-width:0.264583"/>
      <path d="m 22.383177,-30.966346 c -0.151791,-0.02939 -0.301281,-0.06898 -0.447754,-0.118718 -0.03993,-0.01352 -0.09795,10e-4 -0.132001,0.02286 -0.03482,0.02241 -0.06723,0.06474 -0.0749,0.106203 -0.0082,0.04448 -0.004,0.09388 0.02283,0.131975 0.02733,0.03871 0.06146,0.05974 0.106204,0.07493 0.146394,0.04966 0.295963,0.0893 0.447781,0.118692 0.0449,0.0087 0.09303,0.0022 0.131974,-0.02283 0.03492,-0.02241 0.06726,-0.06474 0.07493,-0.106204 0.01646,-0.08914 -0.03432,-0.188621 -0.129064,-0.206904 z" fill="#5a5a5a" id="path21-9" style="stroke-width:0.264583"/>
      <path d="m 25.318015,-30.825958 c -0.151554,0.03061 -0.304932,0.05088 -0.459237,0.06062 -0.04207,0.0027 -0.09025,0.03818 -0.113374,0.07138 -0.02371,0.03397 -0.03749,0.08551 -0.02879,0.126735 0.0093,0.04429 0.03207,0.08835 0.07138,0.113348 0.04,0.02543 0.07956,0.03183 0.126736,0.02889 0.154305,-0.0097 0.307684,-0.03 0.459237,-0.06062 0.04482,-0.009 0.08689,-0.03336 0.113348,-0.07138 0.02371,-0.03395 0.03749,-0.08551 0.02879,-0.126709 -0.01871,-0.08872 -0.103531,-0.161396 -0.198093,-0.142267 z" fill="#5a5a5a" id="path22-7" style="stroke-width:0.264583"/>
      <path d="m 21.931824,-24.019869 c 0.05207,0.0639 1.255025,2.775426 1.882193,2.791036 0.602615,0.0149 2.078249,-2.160825 2.205408,-2.401966 0.142928,-0.27096 0.188013,-1.167871 0.188013,-1.167871 0,0 0.747263,0.666644 0.886248,0.843386 0.13896,0.176715 4.63087,0.978032 5.117016,2.022792 0.486198,1.044787 -1.202611,3.889322 -1.115537,4.141417 0.06948,0.20111 0.553112,8.0085406 0.437568,11.9801216 -0.02138,0.7350125 -0.701198,1.209675 -1.256903,1.5324667 -0.442859,0.257175 -11.917786,0.029633 -12.056665,0 -0.299059,-0.063765 -1.696085,-0.4482042 -1.693572,-1.4520333 0.0099,-3.9607067 0.586634,-11.713845 0.586634,-11.713845 0,0 -1.232005,-3.431699 -1.308047,-4.141629 -0.05562,-0.519324 4.598485,-2.347489 4.902438,-2.455254 0.257096,-0.0912 1.326251,-0.793802 1.326251,-0.793802 z" fill="#cecece" id="path23-5" style="stroke-width:0.264583"/>
      <path d="m 32.01446,16.063209 c -0.0092,-0.33364 -0.322871,-0.468842 -0.332184,-0.806715 -0.0077,-0.278341 0.303636,-0.550333 0.295883,-0.830791 -0.007,-0.252942 -0.333031,-0.514086 -0.340095,-0.76835 C 31.406765,5.3213902 31.152633,-3.5032576 31.137869,-3.6392534 31.109876,-3.8974867 30.209922,-5.1225075 30.209922,-5.1225075 H 17.656449 c 0,0 -0.899848,1.2250208 -0.927973,1.4832541 -0.01474,0.1359958 -0.26887,8.9603791 -0.500169,17.2966064 -0.0071,0.254 -0.33311,0.515408 -0.340095,0.76835 -0.0078,0.280458 0.30353,0.55245 0.295857,0.830791 -0.0093,0.337873 -0.323003,0.473075 -0.332158,0.806715 -0.0083,0.300302 0.287946,0.799306 0.279824,1.095375 -0.117846,4.302125 -0.218361,8.087254 -0.260933,9.933781 -0.0039,0.166423 0.4463,0.595842 0.791554,0.832644 0.315542,0.216164 4.519084,0.124354 4.713817,-0.03519 0.02897,-0.02381 0.749697,-0.691356 0.760042,-0.76835 0.263366,-1.962414 0.559567,-5.895181 0.834575,-9.814454 0.01603,-0.228071 -0.361315,-0.493712 -0.34544,-0.721519 0.01344,-0.192616 0.42,-0.347662 0.433282,-0.53975 0.01458,-0.209814 -0.274241,-0.465137 -0.259847,-0.673629 0.01416,-0.205052 0.331496,-0.363008 0.345545,-0.565679 0.30734,-4.458494 0.732949,-8.2576457 0.865373,-8.3692999 0.02707,-0.023019 -1.06e-4,-0.01561 0.08197,0.26035 0.14441,1.0249959 0.371581,4.3547769 0.63037,8.1089499 0.01397,0.202671 0.331285,0.360627 0.345519,0.565679 0.01439,0.208492 -0.274399,0.463815 -0.259821,0.673629 0.01328,0.192088 0.419921,0.347134 0.433282,0.53975 0.01585,0.227807 -0.361394,0.493448 -0.34544,0.721519 0.275008,3.919273 0.571209,7.85204 0.834575,9.814454 0.01034,0.07699 0.730991,0.744538 0.760042,0.76835 0.194734,0.159279 4.398275,0.251354 4.71379,0.03519 0.345282,-0.236802 0.79547,-0.666221 0.791581,-0.832644 -0.04257,-1.846527 -0.143007,-5.631656 -0.260959,-9.933781 -0.0081,-0.296069 0.288105,-0.795073 0.27985,-1.095375 z" fill="#9f9f9f" id="path24-3" style="stroke-width:0.264583"/>
      <path d="m 23.7112,2.810759 c 0.008,-0.3283479 0.157771,-6.5037228 0.157771,-6.5891832 h -0.172429 c -1.58e-4,0.089958 -0.156289,6.5248895 -0.157824,6.5897124 l -1.05e-4,0.00503 0.360706,4.0962791 c 0.04585,-0.2868083 0.08353,-0.4534958 0.109749,-0.4754563 0.01603,-0.013494 0.01318,-0.015875 0.02508,0.040746 z" fill="#8b8b8b" id="path25-9" style="stroke-width:0.264583"/>
      <path d="m 23.627883,2.5260674 c -0.108717,-0.00714 -1.069075,-0.079904 -1.33686,-0.3566584 -0.258789,-0.2677583 -0.0039,-4.5010916 0.08043,-5.7922582 l 0.172085,0.011377 c -0.134567,2.0597813 -0.287681,5.4191958 -0.125968,5.6642 0.185341,0.1912937 0.945118,0.282575 1.221925,0.301625 z" fill="#8b8b8b" id="path26-9" style="stroke-width:0.264583"/>
      <path d="m 26.756925,-4.5406888 h -6.171539 l -0.09154,1.0779125 h 6.263084 z" fill="#3a3a3a" id="path28-4" style="stroke-width:0.264583"/>
      <path d="M 31.136123,-3.6392534 C 31.1212,-3.7763076 30.860242,-4.1864117 30.618862,-4.5406888 h -3.432413 l 0.0099,1.0779125 h 3.94716 c -0.0038,-0.1055688 -0.0063,-0.1661584 -0.0074,-0.1764771 z" fill="#3a3a3a" id="path29-9" style="stroke-width:0.264583"/>
      <path d="m 16.728264,-3.6392534 c -0.0011,0.010319 -0.0036,0.070908 -0.0073,0.1764771 h 3.342058 l 0.0099,-1.0779125 h -2.827391 c -0.241379,0.3542771 -0.502337,0.7641167 -0.51726,0.9014354 z" fill="#3a3a3a" id="path30-1" style="stroke-width:0.264583"/>
      <path d="m 22.58434,-20.292366 c 0.196135,-0.01836 0.408543,-0.256726 0.6545,-0.532659 0.142504,-0.159941 0.307684,-0.344329 0.444262,-0.442172 -0.0476,-0.02405 -0.09745,-0.05948 -0.148829,-0.103637 -0.136286,0.108188 -0.278183,0.267255 -0.424233,0.431059 -0.193701,0.217328 -0.413173,0.463708 -0.541813,0.475773 -0.176213,0.01519 -0.778801,-0.928978 -1.228381,-1.822873 l -0.154067,0.07742 c 0.230875,0.458894 1.012772,1.953578 1.398561,1.917092 z" fill="#b9b9b9" id="path31-5" style="stroke-width:0.264583"/>
      <path d="m 26.662072,-22.155906 c -0.701305,0.915432 -1.546754,1.858486 -1.752468,1.858486 -6.88e-4,0 -0.0014,0 -0.002,0 -0.145415,-0.0044 -0.3125,-0.301731 -0.45982,-0.564065 -0.104748,-0.186373 -0.205872,-0.365443 -0.31742,-0.488474 -0.05493,0.0363 -0.107157,0.06501 -0.156396,0.08543 0.108532,0.105357 0.221219,0.305541 0.323454,0.487521 0.186293,0.33147 0.362161,0.644578 0.605022,0.651907 0.0015,0 0.003,1.06e-4 0.0045,1.06e-4 0.386397,-1.06e-4 1.544955,-1.473068 1.892035,-1.926087 z" fill="#b9b9b9" id="path32-9" style="stroke-width:0.264583"/>
      <path d="m 22.089754,-25.101406 c 0.0084,0.02527 -0.05458,0.266461 -0.05458,0.266461 l -0.277681,0.345626 c 0,0 -0.248787,6.754045 -0.459396,11.670188 -0.210714,4.9161172 -0.509349,11.4354505 -0.684953,12.00007131 -0.175604,0.56488541 -5.51942,-0.50561871 -5.649939,-0.67389371 -0.287787,-0.3706813 1.108022,-9.1748236 1.161653,-9.7527796 0.316892,-3.410426 -0.246221,-10.513536 -0.226377,-10.909988 0.01982,-0.396478 4.947602,-2.278433 4.947602,-2.278433 l 0.946679,-0.850715 z" fill="#696969" id="path33-8" style="stroke-width:0.264583"/>
      <path d="m 22.553013,-3.8538305 0.228468,-0.01905 v -0.2928937 l -0.224076,0.010583 c 0,0 0.01749,-0.3214687 0.0218,-0.3534833 0.0043,-0.032279 1.606867,-0.032279 1.606867,-0.032279 0,0 -0.05241,-0.1860021 -0.144145,-0.2299229 -0.09173,-0.043656 -1.633061,-0.04789 -1.742201,0.043921 -0.06594,0.055298 -0.0699,1.4234583 0,1.4800792 0.06982,0.056621 1.812104,0.06985 1.833932,0.026194 0.0218,-0.043656 0.0349,-0.2420937 0.0349,-0.2420937 0,0 -1.567524,-0.00688 -1.593744,-0.041804 -0.02612,-0.03466 -0.0218,-0.34925 -0.0218,-0.34925 z" fill="#d7d7d7" id="path34-3" style="stroke-width:0.264583"/>
      <path d="m 26.498004,-24.477069 c 0,0 -1.110906,10.688161 -1.114267,14.4805132 -0.0039,4.4004441 0.445453,8.9396357 0.885111,9.40794819 0.48604,0.51778958 6.427232,-0.27887083 6.439641,-0.31591249 0.08189,-0.2455333 -1.008989,-6.2102999 -1.024493,-6.488377 -0.216483,-3.8811989 -0.391134,-9.6316009 -0.391134,-9.6316009 0,0 1.77763,-4.630631 1.583478,-4.908047 -0.19423,-0.277415 -5.111141,-2.083064 -5.111141,-2.083064 l -1.599115,-1.473042 0.0431,0.689928 z" fill="#696969" id="path35-0" style="stroke-width:0.264583"/>
      <path d="m 26.973063,-17.560887 c 0.289745,-0.754751 0.589492,-1.561254 0.822431,-2.212631 0.371819,-1.04021 0.359304,-1.062197 0.334221,-1.105985 -0.02955,-0.05173 -0.137689,-0.120095 -0.551576,-0.364675 -0.106363,-0.06284 -0.233363,-0.137928 -0.335677,-0.201031 0.05638,0.0032 0.116363,0.0071 0.171714,0.01069 0.564409,0.03657 0.779674,0.03836 0.863203,-0.02527 0.05207,-0.03956 0.155972,-0.123349 -0.514667,-2.559103 L 27.52247,-24.24019 c 0.324379,1.167712 0.634577,2.411598 0.630608,2.648241 -0.11766,0.02485 -0.509402,-5.02e-4 -0.727683,-0.01463 -0.411322,-0.02664 -0.465455,-0.02802 -0.506413,0.02654 l -0.02379,0.03482 0.0075,0.03778 c 0.01241,0.06207 0.05699,0.09819 0.587693,0.411718 0.169915,0.100436 0.394996,0.233363 0.472228,0.290777 -0.06456,0.247941 -0.556392,1.63756 -1.173374,3.241808 -0.401056,1.042961 -0.892784,2.185484 -1.164431,2.800323 -0.01344,0.18243 -0.02638,0.363194 -0.03905,0.542422 0.305885,-0.651033 0.882862,-2.026681 1.38729,-3.340496 z" fill="#5d5d5d" id="path36-9" style="stroke-width:0.264583"/>
      <path d="m 18.991748,-29.577177 c 0,0 0.625422,-0.67019 0.774409,-0.67019 0.148881,0 0.476541,0.0074 0.811636,-0.364834 0.335095,-0.372269 0.335095,-1.332891 1.020127,-1.533922 0.685007,-0.20103 1.757548,0.289666 2.029963,0.249052 0.215424,-0.03207 0.224049,-0.334565 0.224049,-0.334565 0,0 0.270272,0.05757 0.335016,-0.180102 0.06482,-0.237675 -0.04752,-0.341392 -0.04752,-0.341392 0,0 0.255006,-0.05188 0.159915,-0.354311 -0.09507,-0.302506 -0.924746,-0.583375 -0.924746,-0.583375 0,0 0.708713,0.172847 0.704427,-0.103711 -0.0043,-0.276559 -1.505056,-0.891141 -2.819638,-0.391647 -1.314529,0.499494 -2.169107,2.602741 -2.267638,2.690397 -0.09856,0.0876 -0.860981,0.604679 -0.88728,0.76245 -0.0263,0.157665 0.740357,1.129321 0.88728,1.15615 z" fill="#b4b4b4" id="path37-0" style="stroke-width:0.264583"/>
      <path d="m 22.756848,-33.3195 c 0.767345,0.100865 1.297623,0.595607 1.462379,0.768909 0.03138,-0.04985 0.06517,-0.09803 0.09991,-0.145627 -0.20267,-0.208875 -0.745966,-0.689835 -1.539848,-0.794234 -0.993563,-0.130694 -1.654704,0.251642 -1.68238,0.267938 l 0.08766,0.14845 c 0.0062,-0.0037 0.639603,-0.368197 1.572286,-0.245436 z" fill="#888888" id="path38-7" style="stroke-width:0.264583"/>
      <path d="m 23.779727,-32.072992 c 0.03241,-0.04249 0.06715,-0.08303 0.108797,-0.117925 0.0037,-0.0031 0.0077,-0.0056 0.01138,-0.0086 -0.115517,-0.146897 -0.399918,-0.402511 -1.061826,-0.591661 -0.954087,-0.272593 -1.536171,0.04913 -1.560565,0.06294 l 0.08501,0.149992 c 0.0053,-0.003 0.547847,-0.298627 1.428142,-0.04715 0.66974,0.191374 0.91268,0.445956 0.989065,0.552424 z" fill="#888888" id="path39-6" style="stroke-width:0.264583"/>
      <path d="m 23.944351,-33.435861 c -0.262414,-0.150177 -0.570971,-0.255008 -0.570971,-0.255008 0,0 0.323983,0.07871 0.532527,0.04422 -1.705292,-0.791138 -3.027759,0.08768 -3.041279,0.09699 l 0.09716,0.14233 c 0.0131,-0.0088 1.311566,-0.870365 2.982568,-0.02853 z" fill="#888888" id="path40-8" style="stroke-width:0.264583"/>
      <path d="m 18.027104,-31.221933 c 0.08456,0.09864 1.706668,2.309971 1.67849,2.549551 -0.0282,0.239475 -4.498314,2.948517 -4.467966,2.948517 0.03043,0 0.456142,-0.07096 0.415608,0.05069 -0.04051,0.121629 -0.283793,0.212831 -0.283793,0.212831 0,0 0.466302,-0.101362 0.466302,0 0,0.101388 -0.121655,0.283818 -0.121655,0.283818 0,0 1.453065,0.08906 2.733437,0.192326 0.08776,0.0071 0.08715,0.285618 0.172852,0.292761 0.09914,0.0083 0.56761,-0.277495 0.662331,-0.269054 0.142849,0.01267 0.0926,0.44278 0.220795,0.455348 0.14396,0.01423 0.393277,-0.329909 0.552,-0.329909 0.172509,0 0.446299,0.493183 0.448469,0.523716 0.01016,0.141896 -1.789271,4.74046 -1.870419,4.770887 -0.08112,0.03043 -9.4465005,-1.793584 -9.8877186,-4.423198 -0.4413896,-2.629826 9.2812676,-7.258288 9.2812676,-7.258288 z" fill="#696969" id="path41-38" style="stroke-width:0.264583"/>
      <path d="m 16.753505,-30.581298 1.760035,2.790323 c 0.0489,-0.03207 0.097,-0.06379 0.144066,-0.09483 l -1.750404,-2.774976 c -0.05001,0.02577 -0.101203,0.05223 -0.153697,0.07948 z" fill="#5d5d5d" id="path42-6" style="stroke-width:0.264583"/>
      <path d="m 15.40847,-25.477485 c 0.0699,-0.03138 0.207936,-0.103029 0.241035,-0.1914 -0.381212,0.02275 -1.112361,0.09803 -2.533518,0.280194 l 0.02191,0.170947 c 0.681566,-0.08734 1.656159,-0.203279 2.270575,-0.259741 z" fill="#5d5d5d" id="path43-1" style="stroke-width:0.264583"/>
      <path d="m 13.371416,-24.70678 c 1.491403,-0.394574 2.156486,-0.596054 2.457185,-0.703025 0.0047,-0.01794 0.008,-0.03527 0.008,-0.05043 0,-0.06363 -0.183356,-0.04741 -0.320093,-0.02657 -0.558032,0.1719 -1.522439,0.436907 -2.189162,0.613384 z" fill="#5d5d5d" id="path44-9" style="stroke-width:0.264583"/>
      <path d="m 24.2709,-33.164094 c 0.03871,0.06811 0.07302,0.171212 0.05474,0.25518 -0.01259,0.05794 -0.05466,0.102576 -0.128534,0.13647 l -0.07448,0.03413 0.03043,0.07612 c 6.09e-4,0.0016 0.05776,0.150442 -0.07699,0.285274 -0.129752,0.130096 -0.28493,0.06294 -0.290883,0.06035 l -0.174043,-0.08096 0.05509,0.18415 c 0.01016,0.03413 0.02948,0.142505 -0.01447,0.191479 -0.03019,0.03344 -0.09914,0.04231 -0.194151,0.02455 -0.09337,-0.01722 -0.202327,-0.04043 -0.320516,-0.06559 -0.440796,-0.0938 -0.98978,-0.210449 -1.368478,-0.166476 -0.612008,0.07112 -0.932894,0.928132 -1.06934,1.429676 0.10205,-0.198966 0.17526,-0.458179 0.279135,-0.698897 -0.02535,0.200872 -0.04982,0.415529 -0.08086,0.636059 0.139488,-0.467942 0.420185,-1.140884 0.890958,-1.195626 0.351049,-0.04053 0.884264,0.07268 1.312809,0.163883 0.11983,0.02543 0.230346,0.04897 0.324988,0.06646 0.161211,0.02974 0.280776,0.0031 0.354409,-0.07967 0.05794,-0.06498 0.07226,-0.148537 0.07123,-0.218519 0.09655,0.0083 0.227568,-0.01019 0.346287,-0.129064 0.144145,-0.144303 0.148114,-0.303292 0.134144,-0.394837 0.126894,-0.08078 0.162745,-0.18931 0.169042,-0.27113 0.0056,-0.07198 -0.01222,-0.156985 -0.03638,-0.222504 -0.068,-0.0097 -0.126365,-0.01052 -0.194125,-0.02052 z" fill="#888888" id="path45-6" style="stroke-width:0.264583"/>
      <path d="m 32.034568,-21.374486 c 0,0 0.531231,-0.701913 0.842434,-0.558032 0.311123,0.14388 0.09422,0.488976 0.09422,0.488976 0,0 7.037969,8.408908 6.769153,10.979335 -0.269081,2.5704537 -6.396117,5.4829869 -6.60535,5.3416995 -0.209232,-0.141023 -1.363477,-2.987675 -1.363477,-2.987675 0,0 3.724116,-3.0683725 3.645535,-3.2458555 -0.07885,-0.177509 -4.684024,-5.191336 -4.762897,-5.250471 -0.07887,-0.05916 1.380384,-4.767977 1.380384,-4.767977 z" fill="#696969" id="path46-7" style="stroke-width:0.264583"/>
      <path d="m 32.490895,-7.9318533 c -0.14724,-0.059002 -0.465799,0.2727854 -0.563906,0.290777 -0.05257,0.00953 -0.514932,-0.6818312 -0.514932,-0.6818312 0.234077,-0.4788958 -0.343879,-0.7598833 -0.662146,-0.7805737 -0.686568,-0.044582 -2.267559,0.2172758 -2.133865,0.6096529 0.115623,0.3391958 1.319424,0.1367895 1.806337,0.053975 0.07646,-0.013229 0.01595,0.1275291 0.01595,0.1275291 0,0 -1.653487,0.2598209 -1.793901,0.5704417 -0.151818,0.3354916 0.23405,0.4616979 0.23405,0.4616979 0,0 -0.273817,0.2661708 -0.148987,0.4534958 0.124831,0.1870604 0.407961,0.2045229 0.407961,0.2045229 0,0 -0.10787,0.3497792 0.113956,0.4310063 0.268791,0.09869 2.104787,-0.00556 2.158312,0.030162 0.05355,0.035719 0.02072,0.5908146 0.452094,0.6977062 0.431403,0.1071563 1.563132,-0.5908146 1.563132,-0.7868708 0,-0.1960562 -0.685086,-1.5819437 -0.934059,-1.6816916 z" fill="#b4b4b4" id="path47-8" style="stroke-width:0.264583"/>
      <path d="m 37.592221,-11.423189 v -0.172429 c -1.390386,0 -2.006071,0.0494 -2.283884,0.100542 0.06324,0.07498 0.10213,0.124301 0.108744,0.138959 0.0087,0.01992 -0.03069,0.07654 -0.107156,0.160946 0.278606,0.0631 0.893762,0.143457 2.277269,0.22225 l 0.0098,-0.172165 c -0.848519,-0.04826 -1.764241,-0.127661 -2.175933,-0.198543 0.412485,-0.05051 1.326092,-0.07956 2.171171,-0.07956 z" fill="#5d5d5d" id="path48-9" style="stroke-width:0.264583"/>
      <path d="m 34.657833,-5.75592 c -0.0015,-1.5329959 -1.262539,-2.71145 -1.877536,-3.1945792 -0.04596,0.038629 -0.09094,0.076465 -0.134991,0.1135063 0.593699,0.4601104 1.88857,1.6435916 1.838484,3.1699729 0.05681,-0.02884 0.114908,-0.058473 0.174043,-0.0889 z" fill="#5d5d5d" id="path49-7" style="stroke-width:0.264583"/>
      <path d="m 28.762572,-7.1291075 c 0.488474,-0.1505479 2.201095,-0.6013979 2.508938,-0.5860521 l 0.01027,-0.1719792 c -0.218625,-0.014288 -0.940276,0.1571625 -1.505797,0.3024188 -0.501994,0.1291166 -0.799862,0.2114021 -0.978402,0.2661708 0.04622,0.026458 0.08284,0.038365 0.08284,0.038365 0,0 -0.06559,0.064029 -0.117846,0.1510771 z" fill="#888888" id="path50-5" style="stroke-width:0.264583"/>
      <path d="m 30.422462,-8.4398533 c 0.06424,-0.011113 0.03215,0.08546 0.02008,0.1172104 0.244052,-0.01561 0.483897,-0.026458 0.70276,-0.031485 l -0.004,-0.1722438 c -0.303451,0.00688 -1.432957,0.043921 -2.200116,0.2061104 0.421719,0.059267 1.133898,-0.06059 1.481322,-0.1195916 z" fill="#888888" id="path51-5" style="stroke-width:0.264583"/>
      <path d="m 29.112034,-6.4644742 c 0.273711,-0.1994958 1.346491,-0.3780896 2.339102,-0.4421187 l -0.01111,-0.1719792 c -0.480271,0.030956 -1.849173,0.1439333 -2.365824,0.4479396 0.03818,0.00714 0.06337,0.00873 0.06337,0.00873 0,0 -0.02191,0.071702 -0.02553,0.1574271 z" fill="#888888" id="path52-2" style="stroke-width:0.264583"/>
      <path d="m 31.950484,-6.5203013 c 0.0086,-0.01614 0.208809,-0.4008437 0.180446,-0.7008812 -0.02199,-0.2333625 -0.202168,-0.3775604 -0.306996,-0.4423834 0.0063,-0.015081 0.0137,-0.033073 0.02225,-0.053446 -0.03924,-0.047096 -0.08776,-0.111125 -0.138721,-0.1812396 0.0089,0.02249 0.01095,0.040217 0.0056,0.052917 -0.05657,0.1349375 -0.07811,0.1875896 -0.07811,0.1875896 l -0.03122,0.077258 0.07604,0.034131 c 0.0026,0.00106 0.258445,0.1182687 0.279585,0.341577 0.02344,0.2487084 -0.159597,0.6008688 -0.161396,0.604573 z" fill="#888888" id="path53-4" style="stroke-width:0.264583"/>
      <path d="m 31.329666,-15.884064 c 0.06114,0.06612 0.126312,0.136816 0.193198,0.209391 l -0.455427,-3.069722 -0.170603,0.02535 0.436377,2.940659 c -0.0012,-0.03535 -0.0024,-0.07146 -0.0035,-0.105675 z" fill="#5d5d5d" id="path54-9" style="stroke-width:0.264583"/>
      <path d="m 16.032172,-19.674591 -0.08207,-1.984348 -0.172244,0.0071 0.06146,1.485979 c 0.05646,0.01492 0.112607,0.02966 0.168037,0.04405 0.0081,0.143616 0.01638,0.293211 0.02482,0.447172 z" fill="#5d5d5d" id="path55-4" style="stroke-width:0.264583"/>
      <path d="m 21.142175,-21.561758 0.02855,-0.04138 -0.01783,-0.0445 c -0.02458,-0.0612 -0.04061,-0.06834 -0.636667,-0.176106 -0.255772,-0.04622 -0.665453,-0.12028 -0.797586,-0.165021 0.07146,-0.266038 0.604996,-1.491403 1.014756,-2.404454 -0.05691,0.02045 -0.133535,0.04802 -0.227171,0.08191 -1.030975,2.296504 -0.98261,2.373763 -0.952262,2.41935 0.04501,0.06752 0.192934,0.105437 0.931492,0.238893 0.07837,0.01413 0.163539,0.02958 0.242755,0.0444 -0.0028,6.88e-4 -0.0056,0.0013 -0.0084,0.002 -0.581555,0.135784 -0.78285,0.197432 -0.828887,0.294746 -0.01439,0.03053 -0.01431,0.06509 -0.0016,0.09036 0.05898,0.158459 1.014942,4.321731 1.493917,6.418501 0.009,-0.219128 0.01802,-0.439394 0.02699,-0.660427 -0.436483,-1.908069 -1.217797,-5.309632 -1.347179,-5.778341 0.110517,-0.05921 0.500354,-0.150257 0.696119,-0.19595 0.32639,-0.0762 0.355018,-0.08543 0.382931,-0.123958 z" fill="#5d5d5d" id="path56-4" style="stroke-width:0.264583"/>
      <path d="m 23.745384,-6.3186888 c -0.14224,0.017198 -0.286464,-0.1100666 -0.275431,-0.2561166 0.01233,-0.163248 0.180949,-0.3243792 0.275008,-0.4487334 0.07731,-0.1021291 0.192326,-0.2328333 0.132398,-0.3706812 -0.05223,-0.1198563 -0.192935,-0.1473729 -0.309404,-0.1672167 -0.340254,-0.057944 -0.680614,0.032808 -1.021556,0.017992 -0.253974,-0.010848 -0.553218,-0.081756 -0.694082,-0.3156479 -0.196718,-0.3267604 -0.04077,-0.8083021 0.106812,-1.1231563 0.04715,-0.1005152 -0.116019,-0.1564481 -0.162745,-0.056885 -0.146738,0.3130021 -0.258974,0.7101417 -0.176397,1.0562167 0.07062,0.2958041 0.305884,0.487627 0.592269,0.5635625 0.333269,0.088371 0.666724,0.023283 1.004491,0.011906 0.09295,-0.00317 0.186399,-0.00185 0.278791,0.00926 0.05096,0.00635 0.115279,0.011377 0.162164,0.033073 0.0726,0.033338 0.06474,0.074612 0.02424,0.1383771 -0.09819,0.1542521 -0.235876,0.2828396 -0.321654,0.4455584 -0.0775,0.1468437 -0.08731,0.3100916 0.0108,0.4500562 0.09361,0.1336146 0.246116,0.2013479 0.407141,0.1815042 0.110279,-0.013229 0.07691,-0.1825625 -0.03283,-0.1690688 z" fill="#b9b9b9" id="path57-7" style="stroke-width:0.264583"/>
    </g>
    <g id="g4" transform="matrix(1.1774511,0,0,1.1774511,11.523407,12.040946)">
      <path d="m 39.074212,-3.6936814 c -1.00076,-0.1177741 -1.057936,0.7954637 -1.057936,0.7954637 0,0 -0.318109,-0.298323 -0.462889,-0.1988794 -0.144753,0.099441 -0.09406,0.2734469 -0.09406,0.2734469 0,0 -1.118658,-0.5095796 -1.610043,-0.1118844 -0.491331,0.3976952 -0.160416,1.0564733 -0.225663,1.0937928 -0.06525,0.037317 -0.49649,-0.074565 -0.556075,0.062124 -0.05956,0.1367605 0.153432,0.3219714 0.153432,0.3219714 0,0 -1.219411,0.043572 -1.379669,0.55059795 -0.160259,0.50704749 0.197141,0.78049436 0.155231,0.84261853 -0.04191,0.06212416 -0.473366,0.13602229 -0.492337,0.22957895 -0.019,0.0935567 0.27387,0.39375291 0.27387,0.39375291 0,0 -1.436476,0.78893456 -1.428326,1.23869976 0.0081,0.4497917 0.797639,1.0036704 0.797639,1.0036704 0,0 -0.414708,0.0635 -0.327925,0.2099469 0.0867,0.1464204 0.250958,0.1376362 0.250958,0.1376362 0,0 -0.667359,0.6296819 -0.682493,1.0324571 -0.01513,0.4027223 0.349197,0.5761567 0.349197,0.5761567 0,0 -0.378434,0.7147718 -0.317923,0.86106 0.06054,0.1462881 0.281384,0.2172229 0.281384,0.2172229 0,0 -0.301599,0.8655843 0.10287,1.2114212 0.404521,0.3458369 1.15779,0.1508654 1.176629,0.2421731 0.01886,0.091281 -0.344858,0.2743994 -0.252413,0.3878792 0.09253,0.1135327 0.408464,0.078767 0.445717,0.083714 0.03723,0.00495 -0.402219,0.9247452 0.304641,1.2229835 0.706861,0.2983442 1.052116,0.019367 1.080559,0.1526381 0.02844,0.1332706 -0.130863,0.4440238 -0.04736,0.5061479 0.0835,0.062124 0.375232,-0.1676135 0.375232,-0.1676135 0,0 -0.09202,0.9739846 0.673021,1.1549856 0.765069,0.180975 4.040108,-1.1240558 4.075165,-1.0867496 0.03508,0.037333 1.673516,1.1434766 2.195169,1.0867496 0.521652,-0.05667 0.68117,-0.9077854 0.68117,-0.9077854 0,0 0.479107,0.194945 0.649552,0.1037431 0.170418,-0.091228 0.137768,-0.3509433 0.137768,-0.3509433 0,0 0.406585,0.1471083 0.678127,-0.1282436 0.271489,-0.275325 0.159544,-0.8510318 0.159544,-0.8510318 0,0 0.906542,-0.3920332 1.120907,-1.2831498 0.214392,-0.8911167 -0.436403,-1.3233665 -0.405262,-1.5288154 0.03114,-0.2053431 0.549751,-0.4139142 0.57441,-0.6047317 0.02466,-0.190791 -0.510751,-0.321601 -0.510751,-0.321601 0,0 0.916516,-0.463894 0.865293,-1.2034837 -0.05122,-0.7395898 -0.927497,-1.1088423 -0.927497,-1.1088423 0,0 0.801423,-0.4511675 0.634498,-0.8663252 -0.166953,-0.4151577 -0.656326,-0.4056327 -0.656326,-0.4056327 0,0 0.451088,-0.46884168 0.19177,-0.7581371 -0.259424,-0.28932187 -0.584279,-0.23394458 -0.584279,-0.23394458 0,0 0.22942,-0.69749457 0.02013,-0.90225561 -0.209365,-0.20486687 -0.639631,-0.0387879 -0.672968,-0.16332729 -0.03331,-0.12453942 0.08628,-0.44286222 -0.05143,-0.47050592 -0.137689,-0.027644 -0.315701,0.1245421 -0.315701,0.1245421 0,0 0.440478,-0.7195979 -0.17489,-1.3147226 -0.615341,-0.5950532 -1.412187,0.027644 -1.502304,-0.083002 -0.09014,-0.1106434 -0.113506,-0.5867585 -0.268234,-0.5674069 -0.16809,0.021095 -0.195157,0.4013359 -0.195157,0.4013359 0,0 -0.342635,-0.3699113 -0.824362,-0.5469731 -0.481701,-0.1770618 -0.813197,0.364527 -0.882465,0.3020404 -0.06924,-0.062489 -0.01767,-0.3541263 -0.245295,-0.4062122 -0.227595,-0.052086 -0.600657,0.1770618 -0.600657,0.1770618 0,0 -0.106416,-0.361324 -0.651193,-0.4254125 z" fill="#404040" id="path1-1" style="stroke-width:0.264583"/>
      <path d="m 42.924508,2.8910984 c 0.08911,0.017912 0.14142,-0.045747 0.12409,-0.1254125 -0.0074,-0.034184 -0.02995,-0.061674 -0.03593,-0.09652 -0.0065,-0.038497 0.0027,-0.080963 0.03493,-0.1092729 0.09327,-0.081836 0.273447,0.00315 0.365549,0.032967 0.160602,0.052149 0.339645,0.104828 0.515461,0.086043 0.212116,-0.022675 0.235558,-0.1966912 0.237146,-0.3675062 8.2e-4,-0.084508 0.133773,-0.094642 0.13298,-0.010107 -0.0014,0.1477433 -0.01402,0.3220508 -0.145124,0.4265877 -0.158221,0.1261269 -0.396452,0.089032 -0.569675,0.052229 -0.106706,-0.022701 -0.206507,-0.062574 -0.310965,-0.09144 -0.01384,-0.00378 -0.109272,-0.036169 -0.118665,-0.023363 -0.0027,0.00365 0.0331,0.087445 0.03455,0.1018381 0.01638,0.1666081 -0.142875,0.2842948 -0.298529,0.2531004 -0.08258,-0.016589 -0.04852,-0.1457061 0.03418,-0.1291431 z" fill="#343434" id="path2-5" style="stroke-width:0.264583"/>
      <path d="m 35.238574,2.1467196 c 0.0694,-0.054213 0.13552,0.055271 0.0667,0.1090348 -0.153935,0.1201738 -0.430583,0.4484688 -0.154887,0.564859 0.20058,0.084693 0.446299,0.059161 0.661643,0.089641 0.116602,0.01651 0.295778,0.064373 0.246089,0.2219325 -0.02373,0.075221 -0.126788,0.1259152 -0.1279,0.2047081 -0.0017,0.1281113 0.165074,0.1620044 0.263208,0.1837531 0.08197,0.018177 0.04807,0.147373 -0.03421,0.1290373 -0.173408,-0.03855 -0.413623,-0.1357312 -0.35425,-0.3623998 0.01164,-0.044529 0.03752,-0.080248 0.06794,-0.1150937 0.0485,-0.055562 0.06046,-0.1005946 -0.01841,-0.1200944 C 35.717523,3.0182042 35.567663,3.0217496 35.426402,3.0091025 35.22897,2.991349 34.937055,2.9571648 34.9025,2.7221884 34.869613,2.4982186 35.069294,2.278879 35.238574,2.1467196 Z" fill="#343434" id="path3-9" style="stroke-width:0.264583"/>
      <path d="m 35.012858,-1.4406123 c 0.128826,-0.013896 0.214366,-0.017023 0.214366,-0.017023 0,0 -0.0031,-0.00276 -0.0085,-0.00778 0.09327,0.039791 0.201163,0.042767 0.305382,0.034401 0.039,-0.00313 0.06265,0.025754 0.06707,0.060526 0.02582,0.2007076 -0.171873,0.3452495 -0.175816,0.54143801 -0.0049,0.24521583 0.210079,0.38854062 0.431298,0.42243375 0.08358,0.0128058 0.04926,0.14184312 -0.03419,0.12903729 -0.231828,-0.03556 -0.444685,-0.16824854 -0.510513,-0.39840958 -0.02881,-0.10054167 -0.02606,-0.20994687 0.01286,-0.31199666 0.03995,-0.10461621 0.125994,-0.19984241 0.142213,-0.30859411 -0.164756,0.0032 -0.330464,-0.032226 -0.444156,-0.1440339 z" fill="#343434" id="path4-1" style="stroke-width:0.264583"/>
      <path d="m 43.2523,0.36800527 c 0.116258,0.009975 0.288449,-0.001164 0.229077,-0.16425333 -0.03302,-0.0906463 -0.07202,-0.17925521 -0.108109,-0.26857854 -0.01569,-0.03899958 0.02402,-0.08461375 0.06353,-0.08728604 0.245137,-0.0169598 0.448972,0.10562167 0.676143,0.16068146 0.124407,0.03010958 0.258472,0.05069416 0.389202,0.04516437 0.171371,-0.007329 0.22688,-0.12088812 0.189124,-0.27286479 -0.02,-0.0807244 0.108189,-0.12430124 0.128244,-0.0434975 0.02614,0.1052777 0.03077,0.22666853 -0.03977,0.32363832 -0.08382,0.11530542 -0.225451,0.12744979 -0.35224,0.12303125 -0.173857,-0.006059 -0.341974,-0.0373856 -0.503555,-0.09218083 -0.126127,-0.04275667 -0.248179,-0.09652 -0.381317,-0.11064875 0.05726,0.11829521 0.126074,0.26175229 0.06591,0.37726937 -0.07705,0.14803438 -0.252121,0.15036271 -0.390498,0.13856229 -0.08446,-0.007197 -0.04961,-0.13623395 0.03426,-0.12903729 z" fill="#343434" id="path5-38" style="stroke-width:0.264583"/>
      <path d="m 43.46566,6.2091585 c 0.10721,0.017145 0.205714,-0.069638 0.198306,-0.1766358 -0.0055,-0.079745 -0.07422,-0.1399646 -0.07377,-0.2199217 7.14e-4,-0.1451239 0.167534,-0.1131887 0.255984,-0.096017 0.178726,0.034634 0.347874,0.1069446 0.531998,0.1209675 0.195077,0.014922 0.465561,-0.067575 0.483526,-0.3040591 0.0064,-0.084164 0.139435,-0.0948 0.13298,-0.010107 -0.01339,0.1766887 -0.131975,0.3220244 -0.29726,0.3955785 -0.222647,0.099166 -0.46482,0.037835 -0.678259,-0.021246 -0.05609,-0.015557 -0.112104,-0.031485 -0.169201,-0.04408 -0.02487,-0.00545 -0.05202,-0.00778 -0.07631,-0.014975 -0.03929,-0.011642 -0.05231,-0.035216 -0.03958,-0.00997 0.04024,0.079931 0.08104,0.1713706 0.06062,0.2663031 -0.0353,0.1639888 -0.205369,0.2683669 -0.363299,0.2431256 -0.08345,-0.013229 -0.04911,-0.1423458 0.03426,-0.1289579 z" fill="#343434" id="path6-89" style="stroke-width:0.264583"/>
      <path d="m 41.231096,8.3021979 c 0.09086,-0.00516 0.204549,-0.00624 0.275563,-0.079216 0.08969,-0.092234 -0.0025,-0.1766093 -0.07215,-0.2331508 -0.05384,-0.04363 0.0052,-0.1195123 0.06429,-0.1139031 0.236352,0.022331 0.475536,0.059214 0.714348,0.062045 0.203333,0.00241 0.459767,-0.059796 0.519986,-0.2895336 0.02175,-0.083079 0.150363,-0.058103 0.128535,0.025109 -0.05898,0.2249223 -0.272495,0.3547004 -0.491543,0.3865033 -0.136975,0.019844 -0.274453,0.0045 -0.409099,-0.00818 -0.104616,-0.00982 -0.209232,-0.019764 -0.313822,-0.02966 0.03709,0.065114 0.04794,0.1401762 0.0018,0.2230967 -0.08504,0.1529291 -0.263048,0.1793345 -0.416613,0.1880393 -0.0857,0.00489 -0.08694,-0.1262591 -0.0013,-0.1311539 z" fill="#343434" id="path7-4" style="stroke-width:0.264583"/>
      <path d="m 42.323348,8.7872056 c 0.07522,-0.020373 0.14351,-0.062627 0.189707,-0.1275292 0.02125,-0.029819 0.0577,-0.046778 0.09102,-0.029686 0.02836,0.014631 0.0454,0.057997 0.02387,0.088186 -0.06665,0.093477 -0.158433,0.1630892 -0.26924,0.1931458 -0.08358,0.022622 -0.119301,-0.1014148 -0.03535,-0.124116 z" fill="#343434" id="path8-3" style="stroke-width:0.264583"/>
      <path d="m 36.147868,7.9075454 c 0.02154,-0.081492 0.151897,-0.056965 0.130201,0.025082 -0.04429,0.1677458 -0.178726,0.4670954 -0.01609,0.6066896 0.149358,0.1281906 0.417354,0.095885 0.594122,0.061833 0.04911,-0.00945 0.08832,0.054266 0.06453,0.0948 -0.01942,0.033179 -0.03805,0.066622 -0.05231,0.1024202 -0.0294,0.073766 -0.01318,0.083158 0.05223,0.110781 0.08678,0.036751 0.175524,0.066437 0.266462,0.09144 0.0817,0.02249 0.0571,0.151765 -0.02532,0.1290638 -0.07644,-0.021034 -0.151871,-0.04482 -0.226007,-0.072972 -0.05876,-0.022331 -0.137134,-0.043074 -0.184124,-0.088318 -0.05834,-0.056224 -0.04191,-0.14097 -0.0095,-0.2169848 -0.204417,0.023865 -0.447463,0.011351 -0.589385,-0.1338527 -0.186876,-0.1911085 -0.06249,-0.4914635 -0.0048,-0.7099829 z" fill="#343434" id="path9-9" style="stroke-width:0.264583"/>
      <path d="m 34.002732,5.1027769 c 0.04686,-0.073263 0.162163,-0.015425 0.114855,0.058499 -0.111654,0.174572 -0.22897,0.4540514 -0.01998,0.5883539 0.1601,0.1029229 0.41791,0.078555 0.605658,0.067283 0.125122,-0.00749 0.337265,-0.054716 0.358563,0.1177132 0.01193,0.09652 -0.04691,0.1828535 -0.02133,0.2824427 0.02511,0.09779 0.08702,0.1814512 0.144701,0.2610908 0.04823,0.066648 -0.06707,0.1398323 -0.115094,0.073554 -0.05805,-0.080169 -0.114856,-0.1632479 -0.147664,-0.2582598 -0.03281,-0.095144 -0.01688,-0.1722438 -0.0054,-0.2702454 0.01056,-0.090038 -0.03302,-0.089905 -0.109405,-0.083211 -0.06199,0.00545 -0.123905,0.00997 -0.18587,0.011933 -0.115517,0.00362 -0.232569,0.00262 -0.34634,-0.010689 -0.176106,-0.020611 -0.341259,-0.094218 -0.40206,-0.2664619 -0.06824,-0.1935163 0.01942,-0.4001029 0.129328,-0.5720027 z" fill="#343434" id="path10-5" style="stroke-width:0.264583"/>
      <path d="m 34.799921,6.6011652 c 0.01286,0.054345 0.04741,0.090144 0.0993,0.1093258 0.03286,0.012171 0.04051,0.05887 0.02384,0.088186 -0.01976,0.034766 -0.05805,0.041831 -0.09099,0.029607 -0.08046,-0.029766 -0.140758,-0.1007533 -0.160417,-0.1837002 -0.01913,-0.080883 0.109062,-0.1245394 0.12827,-0.043418 z" fill="#343434" id="path11-17" style="stroke-width:0.264583"/>
      <path d="m 44.170854,7.7215168 c 0.08353,0.010319 0.183833,0.015134 0.266912,-0.017171 0.07535,-0.029237 0.127371,-0.1534848 0.06757,-0.2151063 -0.05702,-0.058711 0.03696,-0.1579297 0.09435,-0.098795 0.08853,0.091149 0.07792,0.2791354 -0.02,0.3744913 -0.112686,0.1097756 -0.306547,0.1025789 -0.443019,0.085619 -0.08408,-0.010319 -0.04953,-0.1393825 0.03418,-0.1290373 z" fill="#343434" id="path12-4" style="stroke-width:0.264583"/>
      <path d="m 42.729801,4.1199556 c 0.09864,-0.019553 0.223758,-0.015557 0.307711,-0.083291 0.08379,-0.067654 0.05964,-0.2007129 0.05987,-0.2918619 2.12e-4,-0.084534 0.133244,-0.094641 0.132953,-0.010107 -3.44e-4,0.1316831 0.01688,0.279691 -0.09287,0.3837252 -0.111231,0.1054893 -0.268658,0.1052777 -0.406585,0.1326356 -0.08467,0.01688 -0.0849,-0.1145117 -0.0011,-0.1311011 z" fill="#343434" id="path13-51" style="stroke-width:0.264583"/>
      <path d="m 38.252099,-1.7475263 c 0.03405,-0.079438 0.148696,-0.020518 0.114803,0.058484 -0.07567,0.1764771 -0.192617,0.4780836 0.01688,0.5957808 0.179229,0.10067396 0.429551,0.047281 0.627698,0.080751 0.05368,0.0091 0.109855,0.0320675 0.13118,0.0845344 0.02683,0.0661194 -0.02373,0.12991041 -0.04133,0.19415124 -0.06249,0.22762104 0.08504,0.42772541 0.306096,0.46352354 0.08345,0.0135467 0.04911,0.14258396 -0.03418,0.12906375 -0.196268,-0.0318029 -0.359727,-0.16607896 -0.405553,-0.36017729 -0.02355,-0.0998008 -0.01614,-0.20833291 0.02154,-0.30792208 0.02889,-0.0765175 -3.7e-4,-0.0739775 -0.07347,-0.07747 -0.06059,-0.002831 -0.121258,-0.004948 -0.181716,-0.009393 -0.201797,-0.014896 -0.451008,-0.0226219 -0.552344,-0.21793726 -0.104457,-0.2014273 -0.0168,-0.4299215 0.07041,-0.6333887 z" fill="#343434" id="path14-4" style="stroke-width:0.264583"/>
      <path d="m 41.950233,-1.3771705 c 0.08475,-0.00102 0.176054,-0.065543 0.187325,-0.1545828 0.0045,-0.035719 0.02662,-0.067223 0.06591,-0.070641 0.03215,-0.00276 0.07157,0.025101 0.06707,0.060526 -0.01992,0.1574191 -0.15457,0.2938912 -0.319141,0.2958544 -0.08509,0.00102 -0.08662,-0.130138 -0.0012,-0.1311566 z" fill="#343434" id="path15-6" style="stroke-width:0.264583"/>
      <path d="m 36.597024,-1.4032002 c 0.0353,-0.079076 0.150019,-0.020227 0.114882,0.058483 -0.02241,0.05012 0.02064,0.1009756 0.05956,0.123235 0.05151,0.02939 0.115173,0.035788 0.174308,0.043712 0.08387,0.011218 0.04948,0.1402556 -0.03419,0.1290637 -0.09837,-0.013176 -0.205792,-0.031803 -0.274108,-0.105701 -0.063,-0.06831 -0.08059,-0.1588823 -0.04046,-0.248793 z" fill="#343434" id="path16-0" style="stroke-width:0.264583"/>
      <path d="m 39.165785,-2.2918615 c 0.199681,-0.029536 0.352239,0.084675 0.480324,0.2121244 0.03522,0.034991 0.0681,0.07507 0.107156,0.1059868 0.01397,0.011057 0.03717,0.039574 0.06009,0.032808 0.0049,-0.00146 0.03281,-0.043937 0.04183,-0.05325 0.04744,-0.04881 0.111442,-0.078269 0.17772,-0.084235 0.403305,-0.036518 0.4327,0.5222319 0.369914,0.7991739 -0.019,0.083656 -0.147452,0.058415 -0.128534,-0.025096 0.03863,-0.1701509 0.04321,-0.3716576 -0.04104,-0.5223113 -0.03754,-0.067143 -0.09684,-0.1222825 -0.180843,-0.1209728 -0.08919,0.00138 -0.105701,0.062783 -0.163909,0.1115959 -0.109405,0.091877 -0.213704,-0.021976 -0.283845,-0.0913 -0.120174,-0.1188667 -0.243099,-0.262173 -0.43778,-0.2333678 -0.08533,0.012658 -0.08591,-0.118573 -0.0011,-0.1311566 z" fill="#4d4d4d" id="path17-3" style="stroke-width:0.264583"/>
      <path d="m 36.388691,-2.438065 c 0.08292,-0.03448 0.17108,-0.026403 0.252281,-0.00407 0.04101,0.011274 0.08088,0.026405 0.120967,0.040153 0.03609,0.012367 0.117634,0.059722 0.149701,0.058849 0.02641,-7.276e-4 0.0024,0.011203 0.01217,-0.022767 0.0044,-0.015423 0.0039,-0.031353 0.0092,-0.046776 0.01106,-0.032737 0.03127,-0.061616 0.0563,-0.085839 0.06133,-0.059359 0.143219,-0.076089 0.223097,-0.070924 0.190659,0.012367 0.372745,0.1100587 0.518689,0.2180113 0.06612,0.048958 -0.0286,0.1474576 -0.09435,0.09879 -0.112978,-0.083585 -0.244952,-0.1496352 -0.386636,-0.1775672 -0.03821,-0.00757 -0.08832,-0.018045 -0.128482,-0.00291 -0.0726,0.027353 -0.05651,0.051721 -0.06533,0.1040236 -0.0062,0.036883 -0.01156,0.06809 -0.04395,0.093917 -0.07377,0.058777 -0.17944,-0.00167 -0.248629,-0.025461 -0.06874,-0.023569 -0.137848,-0.053689 -0.21074,-0.065037 -0.06795,-0.01062 -0.24138,0.021754 -0.166582,0.1264338 0.04786,0.066998 -0.06744,0.1401789 -0.115094,0.073544 -0.07943,-0.1109345 -0.0096,-0.2595536 0.117422,-0.3123671 z" fill="#4d4d4d" id="path18-2" style="stroke-width:0.264583"/>
      <path d="m 35.79449,0.3755459 c 0.03389,-0.0643202 0.01651,-0.13567833 0.06292,-0.19772313 0.03842,-0.0513556 0.09755,-0.08416395 0.159729,-0.0928952 0.152479,-0.02132542 0.25863,0.09218083 0.333613,0.20158604 0.04657,0.067945 -0.06866,0.14118166 -0.115067,0.0735277 -0.04503,-0.0656167 -0.122079,-0.17203208 -0.220874,-0.14192249 -0.08766,0.0266965 -0.06895,0.14644687 -0.105595,0.21597937 -0.04046,0.0769673 -0.155311,0.0185473 -0.114724,-0.0585523 z" fill="#4d4d4d" id="path19-2" style="stroke-width:0.264583"/>
      <path d="m 34.78656,0.52516777 c 0.009,-0.0589227 0.03638,-0.11186583 0.07422,-0.159385 0.02291,-0.0288131 0.07048,-0.0278606 0.09406,-0.005953 0.02728,0.0252942 0.0227,0.0638704 -3.7e-4,0.0928158 -0.02313,0.0290248 -0.03397,0.0622829 -0.03942,0.0976842 -0.0055,0.0354277 -0.04932,0.0582877 -0.08133,0.0520171 -0.03784,-0.007488 -0.0526,-0.0416719 -0.04715,-0.077179 z" fill="#4d4d4d" id="path20-1" style="stroke-width:0.264583"/>
      <path d="m 33.715685,2.2962621 c 0.101759,-0.095356 0.253577,-0.136525 0.390711,-0.1655498 -0.03186,-0.067151 -0.106204,-0.1189302 -0.130572,-0.1894945 -0.02736,-0.079243 -0.0054,-0.1582209 0.05942,-0.2182548 0.151606,-0.140388 0.384969,-0.1994694 0.579491,-0.2007659 0.08504,-5.821e-4 0.0867,0.1305719 0.0012,0.131154 -0.144992,9.525e-4 -0.372825,0.035216 -0.481939,0.1534848 -0.079,0.085619 0.0213,0.1576387 0.06583,0.2187575 0.03384,0.046487 0.05077,0.090778 0.05413,0.1493308 0.0022,0.038417 -0.03172,0.063817 -0.06591,0.070644 -0.105119,0.021034 -0.220795,0.047493 -0.317818,0.098557 -0.137345,0.072258 -0.115014,0.1772973 -0.05027,0.2874169 0.04167,0.070935 -0.07326,0.1446213 -0.115094,0.073554 -0.07601,-0.1296988 -0.122925,-0.2834217 0.01085,-0.4088342 z" fill="#4d4d4d" id="path21-4" style="stroke-width:0.264583"/>
      <path d="m 41.508591,0.23920611 c 0.253497,-0.0121444 0.516757,-0.0221721 0.75057,0.0701939 0.181795,0.0718873 0.310462,0.23061084 0.197273,0.431165 -0.04067,0.0721519 -0.22995,0.23968604 -0.162587,0.32292389 0.02394,0.029607 0.101627,0.037174 0.137795,0.050112 0.04022,0.01442 0.07702,0.033682 0.109194,0.061119 0.13507,0.1154378 0.166714,0.3130815 0.08255,0.4791605 -0.03926,0.077629 -0.154146,0.01905 -0.114776,-0.058499 0.04255,-0.083926 0.03855,-0.178144 -0.0057,-0.2550319 -0.0481,-0.083503 -0.125359,-0.1014147 -0.21119,-0.1316036 -0.157057,-0.055192 -0.187616,-0.1840442 -0.09334,-0.32959154 0.04614,-0.0710671 0.114511,-0.13319125 0.150601,-0.20952354 0.0571,-0.12067646 -0.03958,-0.19436292 -0.139542,-0.23532042 -0.21627,-0.088609 -0.464238,-0.0752739 -0.699505,-0.0640027 -0.08562,0.004128 -0.08692,-0.12702646 -0.0013,-0.13110104 z" fill="#4d4d4d" id="path22-77" style="stroke-width:0.264583"/>
      <path d="m 44.297458,1.3587376 c 0.09557,0.016669 0.197855,0.042333 0.263101,0.115226 0.06387,0.071358 0.08067,0.16637 0.03987,0.2590535 -0.03485,0.079216 -0.149569,0.020294 -0.114803,-0.058499 0.02315,-0.052441 -0.01606,-0.1080294 -0.05652,-0.1345671 -0.04823,-0.031724 -0.108691,-0.042201 -0.165788,-0.052176 -0.08329,-0.014473 -0.04911,-0.14351 0.03413,-0.1290372 z" fill="#4d4d4d" id="path23-0" style="stroke-width:0.264583"/>
      <path d="m 44.719785,3.4895594 c 0.234686,0.045985 0.538824,0.1871662 0.632222,0.4191 0.04308,0.1069975 0.0034,0.2214827 -0.087,0.3018102 -0.0427,0.037968 -0.09477,0.06395 -0.147584,0.083211 -0.02307,0.00844 -0.05339,0.013679 -0.08469,0.019711 0.176635,0.075803 0.346551,0.2085711 0.254026,0.4141523 -0.03556,0.078978 -0.150204,0.020135 -0.114856,-0.058499 0.07019,-0.1560248 -0.232859,-0.2546879 -0.334036,-0.2817283 -0.04781,-0.012753 -0.06612,-0.067892 -0.02977,-0.1079765 0.09676,-0.1064948 0.545227,-0.1082939 0.406347,-0.3410214 -0.104748,-0.1755246 -0.331258,-0.281014 -0.528849,-0.3197225 -0.08263,-0.01614 -0.04858,-0.1452563 0.03418,-0.1290373 z" fill="#4d4d4d" id="path24-9" style="stroke-width:0.264583"/>
      <path d="m 45.086313,6.4347952 c 0.125068,0.05244 0.253894,0.1210469 0.312446,0.2482056 0.05107,0.1108604 0.03683,0.2369344 -0.0462,0.3373173 -0.05593,0.067654 -0.14949,-0.019341 -0.09369,-0.086783 0.148908,-0.1801019 -0.110569,-0.3267604 -0.239686,-0.3809736 -0.07668,-0.032147 -0.0094,-0.1499129 0.06712,-0.117766 z" fill="#4d4d4d" id="path25-5" style="stroke-width:0.264583"/>
      <path d="m 43.241003,8.3057962 c -0.08147,-0.0195 -0.04771,-0.1486958 0.03421,-0.1290373 0.06284,0.014975 0.114777,0.059717 0.128032,0.124169 0.01482,0.072681 -0.01971,0.1405466 -0.07879,0.1875366 -0.02889,0.022992 -0.07427,0.00939 -0.09086,-0.017753 -0.01971,-0.032147 -0.0048,-0.068236 0.02416,-0.091281 0.03027,-0.024077 0.01476,-0.066066 -0.01675,-0.073634 z" fill="#4d4d4d" id="path26-7" style="stroke-width:0.264583"/>
      <path d="m 33.951112,3.9071248 c 0.04845,-8.731e-4 0.09522,0.0072 0.142213,0.015055 0.02553,0.00421 0.05347,0.013176 0.07982,0.012938 0.09012,-7.937e-4 0.07549,-0.0099 0.0699,-0.062839 -0.0086,-0.081042 -0.02037,-0.1667404 0.03847,-0.2380192 0.109935,-0.1331383 0.342636,-0.077999 0.47379,-0.038126 0.184705,0.056224 0.344963,0.16129 0.467598,0.3053027 0.05268,0.061833 -0.04104,0.1614223 -0.09435,0.098795 -0.0902,-0.1059127 -0.199099,-0.1905265 -0.329247,-0.2459567 -0.09668,-0.041169 -0.44024,-0.1543579 -0.430345,0.042995 0.0052,0.1046956 0.03725,0.2221706 -0.09768,0.2628371 -0.07829,0.023574 -0.500777,-0.088239 -0.448204,0.085963 0.02402,0.079666 -0.104246,0.1228725 -0.128244,0.043524 -0.04815,-0.159385 0.104696,-0.2796381 0.256276,-0.2824692 z" fill="#4d4d4d" id="path27-2" style="stroke-width:0.264583"/>
      <path d="m 40.892297,-0.57907076 c 0.02262,-0.0806185 0.07152,-0.15060083 0.160549,-0.16390937 0.09297,-0.0138906 0.159385,0.0399521 0.242093,0.0626269 0.08038,0.0221192 0.04686,0.15131521 -0.03418,0.12906375 -0.0462,-0.0127265 -0.0862,-0.035216 -0.130651,-0.0512233 -0.05331,-0.0192617 -0.09157,-0.0145521 -0.109246,0.0485246 -0.02323,0.0827088 -0.151845,0.0579173 -0.128561,-0.0250825 z" fill="#4d4d4d" id="path28-9" style="stroke-width:0.264583"/>
      <path d="m 42.772664,-2.1278596 c 0.117104,-0.048593 0.18542,0.025098 0.273076,0.079875 0.08715,0.054486 0.127953,0.00924 0.204497,-0.037828 0.04437,-0.027278 0.08707,-0.038407 0.136234,-0.025895 0.221297,0.056232 0.331284,0.3525916 0.330041,0.5581702 -5.03e-4,0.084529 -0.133562,0.094644 -0.13298,0.010115 6.62e-4,-0.1054815 -0.02371,-0.2036181 -0.07922,-0.2907665 -0.02566,-0.040301 -0.05694,-0.076888 -0.09369,-0.1075875 -0.06395,-0.053393 -0.09435,-0.028009 -0.160337,0.013383 -0.05951,0.037319 -0.12917,0.055724 -0.195025,0.037901 -0.07776,-0.021024 -0.159596,-0.1497065 -0.247253,-0.1132601 -0.08088,0.033536 -0.115676,-0.090789 -0.03535,-0.1241082 z" fill="#4d4d4d" id="path29-7" style="stroke-width:0.264583"/>
      <path d="m 37.564579,-0.31239722 c 0.08366,0.0123825 0.04932,0.14141979 -0.03418,0.12906375 -0.115888,-0.0170921 -0.188039,0.10824104 -0.127582,0.1984375 0.04583,0.0684477 -0.06935,0.14176374 -0.115094,0.07355416 -0.125333,-0.18711333 0.05318,-0.43407541 0.27686,-0.40105541 z" fill="#4d4d4d" id="path30-6" style="stroke-width:0.264583"/>
      <path d="M 40.88928,8.5979756 C 40.816335,8.1529993 40.889651,7.1975625 40.889651,7.142 L 39.674076,7.0225406 38.45858,7.142 c 0,0.055562 0.07334,1.01092 3.7e-4,1.4559756 -0.07297,0.4449762 -1.945428,-0.012885 -1.945428,-0.012885 0,0 1.313339,3.0483174 3.160633,3.0234994 1.847215,0.02482 3.228049,-3.2016434 3.228049,-3.2016434 0,0 -1.940031,0.6360054 -2.012924,0.191029 z" fill="#7f7f7f" id="path31-8" style="stroke-width:0.264583"/>
      <path d="m 39.569962,9.6043712 c 0.353536,-0.00894 1.109795,-0.5088467 1.632691,-0.8498681 -0.174731,-0.00728 -0.296307,-0.051567 -0.313531,-0.1564746 -0.07289,-0.4449762 3.7e-4,-1.4004131 3.7e-4,-1.4559227 L 39.673917,7.0226729 38.458421,7.1421058 c 0,0.05551 0.07332,1.0109465 3.7e-4,1.4559227 -0.01915,0.1167606 -0.162824,0.1709473 -0.363431,0.18796 0.421243,0.3113617 1.07442,0.8285162 1.474602,0.8183827 z" fill="#5f5f5f" id="path32-2" style="stroke-width:0.264583"/>
      <path d="m 39.620339,0.25968486 c -1.529901,0 -2.646389,1.72526854 -2.752461,3.56309074 -0.02159,0.3741473 -0.203597,0.7529248 -0.154146,1.1227594 0.228283,1.7069594 1.245473,3.36677 2.942696,3.3557898 1.700398,-0.01106 2.640118,-1.6793898 2.861998,-3.3863492 C 42.565204,4.5549042 42.287444,4.1866571 42.26686,3.822855 42.162905,1.9849534 41.215988,0.25968486 39.620339,0.25968486 Z" fill="#7f7f7f" id="path33-9" style="stroke-width:0.264583"/>
      <path d="m 38.160103,4.2518769 c 0.06802,0 0.123164,-0.1921404 0.123164,-0.4291277 0,-0.2369873 -0.05514,-0.4291277 -0.123164,-0.4291277 -0.068,0 -0.123137,0.1921404 -0.123137,0.4291277 0,0.2369873 0.05514,0.4291277 0.123137,0.4291277 z" fill="#343434" id="path34-9" style="stroke-width:0.264583"/>
      <path d="m 40.966142,4.2518769 c 0.06802,0 0.123163,-0.1921404 0.123163,-0.4291277 0,-0.2369873 -0.05514,-0.4291277 -0.123163,-0.4291277 -0.06802,0 -0.123164,0.1921404 -0.123164,0.4291277 0,0.2369873 0.05514,0.4291277 0.123164,0.4291277 z" fill="#343434" id="path35-8" style="stroke-width:0.264583"/>
      <path d="m 36.35591,4.0418771 c 0.01879,0.0576 -0.01717,1.0874639 0.1143,1.20015 0.131497,0.1126596 0.655849,-0.087604 0.655849,-0.087604 L 36.900634,3.8928109 Z" fill="#7f7f7f" id="path36-3" style="stroke-width:0.264583"/>
      <path d="m 42.941283,4.0419036 c -0.01876,0.0576 -0.02596,1.0472208 -0.15748,1.1599862 -0.131525,0.112686 -0.612722,-0.04736 -0.612722,-0.04736 V 3.8929167 Z" fill="#7f7f7f" id="path37-7" style="stroke-width:0.264583"/>
      <path d="m 41.05401,5.0987288 c -0.0012,0 -0.0025,0 -0.0038,0 -0.279558,4.497e-4 -0.544935,-0.1109928 -0.747157,-0.313743 -0.21336,-0.2137833 -0.331205,-0.5009885 -0.331866,-0.8086989 -0.0012,-0.6121665 0.47371,-1.1111177 1.059391,-1.114081 0.0012,0 0.0025,0 0.0038,0 0.279559,-4.498e-4 0.544936,0.1109927 0.747157,0.3137429 0.21336,0.2137833 0.331205,0.5010679 0.331787,0.8087783 0.0012,0.6120606 -0.47363,1.1110383 -1.059312,1.1140017 z M 41.04282,2.9968523 c -0.518372,0.00262 -0.938715,0.4463521 -0.937604,0.9907852 5.03e-4,0.2696633 0.102923,0.520409 0.288211,0.7061994 0.174228,0.1746514 0.403357,0.2706158 0.64508,0.2703248 10e-4,0 0.0023,0 0.0033,0 0.518398,-0.00262 0.938715,-0.4462992 0.937631,-0.9907058 C 41.978908,3.7037925 41.876568,3.4529675 41.6912,3.2671771 41.516972,3.0924992 41.287843,2.9965613 41.04604,2.9968523 c -9.52e-4,0 -0.0021,0 -0.0032,0 z" fill="#e2e2e2" id="path38-1" style="stroke-width:0.264583"/>
      <path d="m 39.099506,4.0877294 c 0.0029,-0.033972 0.0048,-0.068236 0.0047,-0.1030023 -5.82e-4,-0.3077104 -0.117105,-0.594995 -0.328083,-0.8087783 -0.199972,-0.2027502 -0.46236,-0.3141927 -0.738796,-0.3137429 -0.0013,0 -0.0025,0 -0.0037,0 -0.57912,0.00296 -1.048676,0.5019145 -1.047511,1.114081 6.61e-4,0.3077104 0.117104,0.5949156 0.328083,0.8086989 0.199972,0.2027502 0.462359,0.3141927 0.738796,0.313743 0.0013,0 0.0025,0 0.0037,0 0.382932,-0.00196 0.717047,-0.2215092 0.899716,-0.5466027 -0.02503,-0.164174 0.02932,-0.3443817 0.143086,-0.4643967 z m -1.054814,0.8763529 c -0.0011,0 -0.0022,0 -0.0033,0 -0.239104,3.704e-4 -0.465614,-0.095647 -0.637884,-0.2703248 -0.18325,-0.1857904 -0.284506,-0.436536 -0.285009,-0.7061994 -0.0011,-0.5444331 0.414496,-0.9880864 0.927127,-0.9907852 0.0011,0 0.0022,0 0.0033,0 0.239025,-3.704e-4 0.465641,0.095647 0.637884,0.2703248 0.183251,0.1857904 0.284454,0.4366154 0.284957,0.7062788 0.0012,0.5444066 -0.414444,0.9880864 -0.927075,0.9907058 z" fill="#e2e2e2" id="path39-2" style="stroke-width:0.264583"/>
      <path d="m 39.781734,5.3934746 c -0.03318,-0.00463 -0.813646,-0.1220523 -0.917389,-0.7748058 -0.103082,-0.6477 0.678497,-1.1362002 0.711808,-1.1567054 l 0.07623,0.1239572 c -0.0073,0.0045 -0.732076,0.4582848 -0.644367,1.0099146 0.08678,0.5460206 0.787109,0.6526742 0.794174,0.6536267 z" fill="#5f5f5f" id="path40-6" style="stroke-width:0.264583"/>
      <path d="m 39.101358,3.8413229 -0.128534,-0.068236 c 0.007,-0.013176 0.17444,-0.3219185 0.595842,-0.3219185 0.428677,0 0.547131,0.3178439 0.552,0.3313641 l -0.137002,0.048948 c -0.0034,-0.00908 -0.09186,-0.2348177 -0.414998,-0.2348177 -0.331047,0 -0.461936,0.2346854 -0.467308,0.2446601 z" fill="#e2e2e2" id="path41-1" style="stroke-width:0.264583"/>
      <path d="m 37.111507,3.5927469 h -0.298239 v 0.1454944 h 0.298239 z" fill="#e2e2e2" id="path42-7" style="stroke-width:0.264583"/>
      <path d="M 42.29562,3.5927469 H 41.997435 V 3.7382413 H 42.29562 Z" fill="#e2e2e2" id="path43-6" style="stroke-width:0.264583"/>
      <path d="m 42.590631,3.9740115 c -0.02625,0.1905264 -0.09216,0.6525154 -0.139224,0.9797256 l 0.144039,0.020664 c 0.08366,-0.5826918 0.121179,-0.8493654 0.138059,-0.9727406 z" fill="#5f5f5f" id="path44-5" style="stroke-width:0.264583"/>
      <path d="m 36.655206,4.9686331 0.145204,-0.00918 -0.06424,-1.0215562 -0.143325,0.039211 z" fill="#5f5f5f" id="path45-0" style="stroke-width:0.264583"/>
      <path d="m 36.259654,5.3693975 c -0.01413,0.151765 0.08043,0.2801408 0.211164,0.2868348 0.13081,0.00669 0.248285,-0.1108604 0.262387,-0.2625196 0.01413,-0.151765 -0.08043,-0.2801408 -0.211164,-0.2868348 -0.130783,-0.00669 -0.248285,0.1108604 -0.262387,0.2625196 z" fill="#d5d5d5" id="path46-4" style="stroke-width:0.264583"/>
      <path d="m 43.043941,5.3693975 c 0.0141,0.151765 -0.08046,0.2801408 -0.211164,0.2868348 -0.13081,0.00669 -0.248285,-0.1108604 -0.262414,-0.2625196 -0.0141,-0.151765 0.08046,-0.2801408 0.211191,-0.2868348 0.13081,-0.00669 0.248285,0.1108604 0.262387,0.2625196 z" fill="#d5d5d5" id="path47-5" style="stroke-width:0.264583"/>
      <path d="m 37.904833,3.4859081 c -0.0046,-0.015875 -0.0095,-0.034052 -0.01826,-0.048948 -0.01667,-0.028522 -0.03106,-0.046143 -0.05776,-0.065775 -0.02873,-0.021167 -0.06932,-0.035507 -0.105198,-0.034475 -0.03963,0.00108 -0.05469,0.00378 -0.09181,0.018098 -0.0181,0.00699 -0.03307,0.018627 -0.04908,0.029845 -0.0088,0.00611 -0.01588,0.013944 -0.02328,0.021458 -0.03559,0.023125 -0.06459,0.057229 -0.09123,0.088741 -0.0095,0.011192 -0.01863,0.022913 -0.02691,0.034978 -0.02794,0.040746 -0.04191,0.08972 -0.03231,0.1390385 0.01609,0.082418 0.09102,0.1357313 0.171768,0.1418431 0.02233,0.00167 0.04516,-7.937e-4 0.06728,-0.00349 0.01281,-0.00153 0.02532,-0.00429 0.0376,-0.00807 0.02204,-0.00677 0.04604,-0.014049 0.06699,-0.024659 0.02146,-0.010927 0.04183,-0.024818 0.06062,-0.039793 0.03651,-0.029184 0.06125,-0.067654 0.08017,-0.1096963 0.01818,-0.040746 0.02392,-0.096097 0.0114,-0.1390915 z" fill="#ffffff" id="path48-1" style="stroke-width:0.264583"/>
      <path d="m 40.781701,3.4990844 c -0.0057,-0.033761 -0.02365,-0.071596 -0.04778,-0.096255 -0.02474,-0.025241 -0.0545,-0.047572 -0.0889,-0.057838 -0.03754,-0.011192 -0.07443,-0.014023 -0.113189,-0.00661 -0.02635,0.00503 -0.05355,0.014843 -0.07713,0.028152 -0.03294,0.018706 -0.0598,0.045773 -0.07258,0.082206 -0.0011,0.00283 -0.0013,0.00574 -0.0022,0.00857 -0.01143,0.012462 -0.02188,0.02577 -0.03085,0.039529 -0.02379,0.036512 -0.04196,0.081386 -0.04516,0.1252538 -0.0053,0.073104 0.03956,0.1369748 0.107209,0.1615546 0.03426,0.012462 0.07226,0.00897 0.107448,0.00527 0.01201,-0.00124 0.02379,-0.00365 0.03535,-0.00706 0.02381,-0.00706 0.04823,-0.014552 0.07051,-0.02577 0.09515,-0.047704 0.176319,-0.1443831 0.157269,-0.2569898 z" fill="#ffffff" id="path49-2" style="stroke-width:0.264583"/>
      <path d="m 44.777306,16.977541 c -0.560123,-3.468634 0.650557,-7.1505494 -0.129037,-8.4054681 -0.451036,-0.7258315 -2.938463,0.138086 -2.938463,0.138086 0,0 -0.339804,2.0412071 -2.01213,2.0631681 -1.672404,-0.02196 -2.038244,-2.0341433 -2.038244,-2.0341433 0,0 -2.554869,-0.9497748 -3.061388,-0.2615935 -0.409628,0.5565775 -0.260429,5.4220268 -0.820552,8.8906618 -0.389625,2.412708 -0.386345,4.518818 -0.279717,4.722362 0.239342,0.456909 0.885745,1.054973 0.885745,1.054973 0,0 2.000779,0.05424 4.651534,0.07699 v 0.0013 c 0.0259,-2.65e-4 0.05149,-5.29e-4 0.07731,-5.29e-4 0.02582,0 0.05122,2.64e-4 0.07721,5.29e-4 v -0.0013 c 2.659115,-0.02275 4.876588,-0.07699 4.876588,-0.07699 0,0 0.646403,-0.598064 0.885745,-1.054973 0.106575,-0.203385 0.215027,-2.700364 -0.174598,-5.113073 z" fill="#c9c9c9" id="path50-3" style="stroke-width:0.264583"/>
      <path d="m 34.449031,22.21936 c -0.395737,0.375074 -1.46349,2.297034 -1.648116,4.302046 -0.184706,2.005012 0.927788,20.860808 2.671762,25.601612 0.142082,0.386292 4.330145,-0.04339 4.330145,-0.07779 0,-0.03413 -0.585602,-21.590265 -0.378196,-21.563277 0.207407,0.02672 2.788762,21.886068 3.065331,21.989785 0.276568,0.103717 4.26458,0.04815 4.278762,-0.325438 0.371581,-9.757304 -0.598461,-25.048633 -0.85008,-26.326041 -0.251619,-1.277408 -1.615757,-3.52671 -1.800728,-3.60082 -0.185155,-0.07427 -9.66888,-8e-5 -9.66888,-8e-5 z" fill="#acacac" id="path51-7" style="stroke-width:0.264583"/>
      <path d="m 45.821034,26.45235 c -0.157109,-0.698236 -0.444817,-1.467115 -0.546232,-1.728523 0.108109,-0.0098 0.199469,-0.01958 0.266541,-0.02752 -0.01987,-0.04657 -0.04016,-0.09287 -0.06088,-0.1397 -0.50427,0.05583 -1.488652,0.115888 -1.757231,-0.09128 -0.278818,-0.215106 -0.372612,-1.254125 -0.389546,-1.72376 h 0.301678 c -0.0123,0.295275 -0.02379,1.234545 0.311785,1.465262 0.271251,0.186531 0.985388,0.120385 1.400334,0.06112 -0.02154,-0.04524 -0.04329,-0.09049 -0.06525,-0.135467 -0.405342,0.05318 -1.042512,0.09922 -1.25267,-0.04551 C 43.781728,23.91658 43.76498,23.101928 43.78141,22.732834 l 0.719244,-0.0058 c -0.03302,-0.05186 -0.06424,-0.09951 -0.09435,-0.144674 l -10.294276,0.08303 c -0.02887,0.04604 -0.05855,0.09525 -0.08874,0.146314 l 0.799333,-0.0066 c 0.01651,0.368829 -1.59e-4,1.184275 -0.248153,1.354666 -0.203756,0.140229 -0.808276,0.101336 -1.214411,0.05054 -0.0173,0.04524 -0.03432,0.09128 -0.05128,0.137848 0.420237,0.05689 1.087755,0.110595 1.348025,-0.06826 0.335598,-0.230717 0.324088,-1.169987 0.311785,-1.465527 h 0.301678 c -0.01693,0.469635 -0.110701,1.508654 -0.389546,1.72376 -0.25445,0.196057 -1.150461,0.152665 -1.672987,0.100277 -0.01556,0.04683 -0.03077,0.09419 -0.04583,0.141817 0.05622,0.0061 0.120915,0.01244 0.192326,0.01852 -0.01461,0.07144 -0.04662,0.194469 -0.07811,0.31459 -0.09202,0.35216 -0.231034,0.884237 -0.273606,1.337997 -0.419443,4.476221 1.622214,22.700192 2.679065,25.734698 l 0.137399,-0.04789 C 34.764838,49.111531 32.728869,30.931216 33.14744,26.464785 c 0.04138,-0.441854 0.178646,-0.967052 0.269451,-1.314714 0.04583,-0.175419 0.07149,-0.27649 0.08313,-0.339725 0.159834,0.01111 0.339433,0.01984 0.518742,0.01984 0.387455,0 0.772927,-0.03995 0.950648,-0.177006 0.372956,-0.287602 0.436615,-1.539346 0.446775,-1.852877 l 2.878455,-0.02302 c -0.04125,0.736336 -0.24384,4.597929 0.01826,4.956969 0.180631,0.247385 0.565521,0.29554 0.836507,0.29554 0.08641,0 0.160549,-0.005 0.213439,-0.0098 l 0.02006,1.717146 C 39.067624,29.6591 37.78593,29.063523 37.687663,28.992614 l -0.04458,0.05768 -0.04548,0.05662 c 0.05921,0.04736 1.435973,0.707232 1.787049,0.777875 l 0.0016,0.137584 c -0.254318,-0.0217 -1.27471,-0.294482 -1.483784,-0.354277 l -0.04008,0.139964 c 0.01259,0.0034 1.200573,0.334698 1.525535,0.35904 l 0.0062,0.528637 c 0.007,-0.140494 0.01643,-0.215371 0.02873,-0.213783 0.01984,0.0026 0.06162,0.206375 0.120967,0.5715 l -0.01056,-0.904081 c 0.0553,-0.01349 0.128826,-0.03334 0.214313,-0.05768 0.06437,0.47334 0.788405,5.79173 1.510189,11.051911 1.525746,11.119114 1.550326,11.142133 1.581388,11.171502 0.01201,0.01138 0.04045,0.0381 0.566049,0.0381 0.258816,0 0.638175,-0.0063 1.195546,-0.02461 0.512049,-0.01667 1.72646,-0.06456 1.944767,-0.150018 0.04686,-0.01826 0.07186,-0.04657 0.07448,-0.0844 0.08083,-1.169988 -0.09448,-7.908132 -0.269213,-13.322829 -0.186293,-5.780088 -0.428255,-11.867621 -0.529749,-12.319 z m -7.390421,1.196181 c -0.180207,-0.246856 -0.09072,-3.089804 0.01003,-4.872567 l 0.861007,-0.0069 0.05972,5.105136 c -0.245797,0.02434 -0.750861,0.02064 -0.930751,-0.22569 z m 8.046747,24.400668 c -0.324882,0.105305 -3.122348,0.194205 -3.52732,0.150813 -0.155178,-0.865981 -2.054992,-14.755548 -3.060964,-22.149329 0.504031,-0.148696 1.250976,-0.389731 1.366785,-0.427037 l -0.04474,-0.138378 c -0.55446,0.179388 -1.375965,0.437092 -1.679363,0.51488 l -0.0015,-0.130969 c 0.397192,-0.130969 1.656397,-0.820738 1.927886,-0.970492 l -0.07035,-0.127529 c -0.738796,0.407723 -1.568952,0.838465 -1.859359,0.947738 l -0.08125,-6.951134 3.740759,-0.03016 c 0.01122,0.329671 0.07739,1.558131 0.446511,1.842823 0.17772,0.137054 0.563192,0.177006 0.950621,0.177006 0.186743,0 0.373698,-0.0095 0.538321,-0.02143 0.08141,0.207433 0.391293,1.017852 0.555705,1.748366 0.08641,0.384175 0.31279,5.668434 0.526521,12.291483 0.173064,5.35993 0.34671,12.015523 0.27178,13.273352 z" fill="#9b9b9b" id="path52-24" style="stroke-width:0.264583"/>
      <path d="m 39.226083,21.480511 c -0.131233,-0.06853 -0.343879,-0.07056 -0.436774,-0.195844 -0.05996,-0.0808 -0.0015,-0.170286 0.04524,-0.241935 0.04911,-0.07514 0.101705,-0.148034 0.157189,-0.218546 0.07493,-0.09528 0.173646,-0.227833 0.05072,-0.331258 -0.103584,-0.08715 -0.270748,-0.06054 -0.394123,-0.05114 -0.703607,0.05339 -1.376998,0.392827 -2.091002,0.328956 -0.175366,-0.01572 -0.366766,-0.06257 -0.496623,-0.189574 -0.118639,-0.116125 -0.181848,-0.309377 -0.09565,-0.461777 0.04583,-0.08112 -0.07443,-0.163036 -0.120623,-0.08133 -0.149252,0.263895 -0.01572,0.585232 0.230531,0.736388 0.291121,0.178726 0.670348,0.166952 0.996818,0.125042 0.376025,-0.04823 0.739378,-0.160972 1.109371,-0.239395 0.19349,-0.04104 0.390049,-0.074 0.588063,-0.08046 0.0472,-0.0015 0.203914,-0.01921 0.177218,0.06591 -0.01172,0.03739 -0.06191,0.08009 -0.08512,0.109829 -0.02918,0.03747 -0.05763,0.07567 -0.08504,0.114432 -0.0998,0.140997 -0.226456,0.318268 -0.113268,0.488209 0.111813,0.167826 0.319352,0.158512 0.481648,0.243179 0.08221,0.04284 0.164412,-0.07734 0.08141,-0.120677 z" fill="#bababa" id="path53-1" style="stroke-width:0.264583"/>
      <path d="m 37.622523,13.954439 c -0.44913,-0.232119 -0.80399,-0.635635 -0.964168,-1.11686 -0.01252,-0.0376 -0.04307,-0.0653 -0.08525,-0.05752 -0.03485,0.0064 -0.06993,0.04802 -0.05755,0.08525 0.172191,0.517366 0.53975,0.958638 1.025631,1.209754 0.08226,0.04254 0.164465,-0.07763 0.08133,-0.120623 z" fill="#bababa" id="path54-8" style="stroke-width:0.264583"/>
      <path d="m 38.505543,2.3166615 c -0.209947,0.00574 -0.438097,0.0136 -0.619363,0.1337733 -0.03302,0.021908 -0.05892,0.043286 -0.0726,0.082206 -0.01199,0.034105 -0.01077,0.080671 0.007,0.1128183 0.01789,0.032385 0.04583,0.061542 0.08221,0.072602 0.03477,0.010557 0.08104,0.014129 0.112818,-0.00698 0.03733,-0.024712 0.0766,-0.043207 0.118004,-0.060007 0.0017,-5.027e-4 0.0033,-0.00103 0.0049,-0.00153 0.01135,-0.00341 0.02275,-0.00646 0.03418,-0.00937 0.02167,-0.0054 0.04358,-0.0099 0.06554,-0.013679 0.04461,-0.00765 0.08956,-0.012383 0.134647,-0.015505 0.0018,-1.323e-4 0.0024,-1.323e-4 0.0038,-2.91e-4 0.01143,-5.028e-4 0.02286,-0.00108 0.03434,-0.00153 0.024,-9.261e-4 0.04807,-0.00159 0.0721,-0.00225 0.04022,-0.00108 0.07594,-0.00828 0.107209,-0.035798 0.02627,-0.023125 0.04786,-0.062547 0.04903,-0.098134 0.0023,-0.07202 -0.05252,-0.1584854 -0.133827,-0.1563158 z" fill="#343434" id="path55-2" style="stroke-width:0.264583"/>
      <path d="m 41.250278,2.4382375 c -0.208492,-0.1260739 -0.44876,-0.176186 -0.690272,-0.1462087 -0.07572,0.00937 -0.132635,0.097763 -0.115093,0.1705769 0.01958,0.081042 0.08948,0.1251214 0.170576,0.1150937 0.01318,-0.00161 0.02635,-0.00278 0.0395,-0.00423 8.2e-4,-7.94e-5 8.73e-4,-1.323e-4 0.0016,-2.117e-4 0.0015,0 0.0021,0 0.0041,-7.94e-5 0.02479,-7.937e-4 0.04961,-5.82e-4 0.0744,7.409e-4 0.02315,0.00116 0.0462,0.00325 0.06919,0.00624 0.0098,0.00124 0.01971,0.0027 0.02947,0.00429 0.0065,0.00111 0.0131,0.0022 0.01955,0.00344 0.01558,0.00304 0.01302,0.00238 -0.0077,-0.0019 0.0208,2.91e-4 0.04741,0.011483 0.06728,0.017463 0.02217,0.00669 0.04408,0.014182 0.0657,0.022542 0.02109,0.00815 0.04159,0.017463 0.0622,0.026855 0.0041,0.00225 0.0084,0.00442 0.01249,0.00669 0.01159,0.0064 0.02299,0.01307 0.03434,0.019923 0.06511,0.039344 0.159464,0.029977 0.20193,-0.039291 0.0395,-0.064373 0.03027,-0.1598877 -0.03926,-0.20193 z" fill="#343434" id="path56-6" style="stroke-width:0.264583"/>
      <path d="m 38.790605,6.6016414 c -0.109564,-0.2553229 0.352161,-0.5703887 0.888577,-0.5703887 0.530304,0 1.035024,0.2262981 0.878602,0.5703887 -0.170365,0.374703 -0.784252,0.038629 -0.923211,0.043445 -0.139091,0.00487 -0.638757,0.4350809 -0.843968,-0.043445 z" fill="#6c6c6c" id="path57-0" style="stroke-width:0.264583"/>
      <path d="m 40.563869,6.7312608 c 0.0294,-0.039 0.05996,-0.077047 0.08993,-0.1155964 -0.13925,-0.1405467 -0.442886,-0.3665538 -0.959591,-0.3665538 -0.560652,0 -0.907626,0.2678377 -1.030949,0.3828521 0.0318,0.036804 0.06358,0.073607 0.09589,0.1099873 0.103082,-0.095726 0.422857,-0.3473715 0.935064,-0.3473715 0.485934,0 0.758137,0.2187575 0.869659,0.3366823 z" fill="#5e5e5e" id="path58-3" style="stroke-width:0.264583"/>
      <path d="m 39.873598,6.9593316 c -0.08737,-6.614e-4 -0.174863,0.00386 -0.261726,0.013176 -0.0176,0.00188 -0.03688,0.01651 -0.04641,0.030692 -0.01,0.014764 -0.01535,0.036962 -0.01114,0.054557 0.0099,0.041037 0.04466,0.061913 0.08528,0.057547 0.0309,-0.00328 0.06189,-0.00569 0.0929,-0.00773 0.04326,-0.00225 0.08655,-0.00349 0.129831,-0.00312 0.01971,1.588e-4 0.0385,-0.00458 0.0536,-0.017886 0.01318,-0.011589 0.02394,-0.031274 0.02453,-0.049027 0.0013,-0.037174 -0.02619,-0.07792 -0.06686,-0.078211 z" fill="#5f5f5f" id="path59-9" style="stroke-width:0.264583"/>
      <path d="M 34.934383,8.5489218 C 35.888867,9.0378454 33.769951,17.55174 32.947124,17.42183 32.124323,17.291919 29.517568,14.097525 29.517568,14.097525 l 0.985203,-1.157367 c 0,0 1.731168,1.729661 1.92606,1.605863 0.194945,-0.123746 1.491192,-6.516635 2.505552,-5.9970992 z" fill="#7f7f7f" id="path60-4" style="stroke-width:0.264583"/>
      <path d="m 30.483165,12.916663 c -0.02307,-0.05186 -0.290327,-0.547555 -1.133528,-0.910484 -0.843182,-0.362902 -2.516608,-0.0114 -2.457757,0.275061 0.05885,0.286464 1.668772,0.189362 1.668772,0.189362 0,0 -1.002498,0.889874 -1.295297,0.769567 -0.292798,-0.120332 -0.559628,-1.001262 -0.91193,-1.044257 -0.352304,-0.04299 -0.01171,0.730435 -0.01171,0.730435 0,0 -0.157487,0.149622 -0.137773,0.552186 0.01237,0.25273 1.332972,1.834938 2.076496,1.691269 0.743527,-0.143695 1.382151,-0.919295 1.382151,-0.919295 l 0.363009,0.392827 c 0,0 1.146677,-0.894768 1.133422,-0.929243 -0.01323,-0.03448 -0.675852,-0.797428 -0.675852,-0.797428 z" fill="#7f7f7f" id="path61-9" style="stroke-width:0.264583"/>
      <path d="m 28.32598,14.790998 -0.0283,-0.208491 c -0.09442,0.0131 -0.190875,-0.1601 -0.284062,-0.327422 -0.13545,-0.243179 -0.303932,-0.54573 -0.613971,-0.513424 -0.01055,0.0011 -0.02037,0.0034 -0.03041,0.0054 l 3.66e-4,-2.91e-4 c -0.02168,-0.03694 -0.207037,-0.340149 -0.469281,-0.397034 -0.002,-0.0042 -0.0041,-0.0085 -0.0061,-0.01265 -0.06882,-0.142954 -0.212122,-0.440399 -0.444977,-0.509667 -0.05012,-0.0149 -0.100609,-0.01855 -0.151094,-0.01119 0.02466,0.06612 0.04401,0.110199 0.04401,0.110199 0,0 -0.03702,0.03567 -0.07296,0.117846 0.05609,-0.02815 0.09508,-0.02254 0.120101,-0.01519 0.130506,0.03884 0.241586,0.248285 0.299344,0.366343 -0.02597,0.02371 -0.05115,0.05696 -0.07282,0.103796 -0.05579,0.120755 -0.07638,0.318849 -0.05725,0.532712 0.08104,0.09747 0.17277,0.200183 0.271632,0.30263 -0.06365,-0.203491 -0.08402,-0.432832 -0.05987,-0.606637 0.01637,-0.117977 0.04729,-0.165999 0.0598,-0.176768 0.146291,0.0098 0.301382,0.219472 0.358413,0.310833 -0.02372,0.03392 -0.04212,0.07377 -0.05347,0.120332 -0.04692,0.193517 0.03099,0.499534 0.158364,0.776552 0.133125,0.105834 0.269153,0.19947 0.402132,0.271331 -0.202448,-0.261673 -0.411511,-0.769118 -0.356007,-0.998273 0.01498,-0.06183 0.04248,-0.07676 0.08198,-0.08088 0.159822,-0.01733 0.269807,0.157929 0.408242,0.406479 0.127447,0.228864 0.258974,0.46564 0.496194,0.433493 z" fill="#5f5f5f" id="path62" style="stroke-width:0.264583"/>
      <path d="m 28.286605,12.700737 c 0.06831,-0.04053 0.200993,-0.137557 0.498597,-0.365707 l -0.128035,-0.166952 c -0.155747,0.11938 -0.328729,0.248788 -0.422714,0.315224 0.192847,-0.0047 0.327858,-0.01273 0.327858,-0.01273 0,0 -0.11385,0.100965 -0.275706,0.230161 z" fill="#5f5f5f" id="path63" style="stroke-width:0.264583"/>
      <path d="m 33.528837,15.505241 -1.080135,-0.985494 c -0.0073,0.01347 -0.01389,0.02278 -0.0195,0.02635 -0.04699,0.0299 -0.183515,-0.04823 -0.363564,-0.183833 l -0.0025,0.0027 1.367605,1.247722 z" fill="#5f5f5f" id="path64" style="stroke-width:0.264583"/>
      <path d="m 29.651791,14.261461 c 0.02786,0.03347 0.06059,0.07252 0.09596,0.114591 l 0.289374,-0.413041 -0.119168,-0.08353 -0.273526,0.390499 c 0.0022,-0.0026 0.0055,-0.0065 0.0074,-0.0085 z" fill="#5f5f5f" id="path65" style="stroke-width:0.264583"/>
      <path d="m 44.221178,8.5489218 c -0.954484,0.4889236 1.164431,9.0028182 1.987233,8.8729082 0.822827,-0.129911 3.429555,-3.324305 3.429555,-3.324305 L 48.65279,12.940158 c 0,0 -1.731169,1.729661 -1.926061,1.605863 -0.194971,-0.123746 -1.491191,-6.516635 -2.505551,-5.9970992 z" fill="#7f7f7f" id="path66-6" style="stroke-width:0.264583"/>
      <path d="m 48.670729,12.916663 c 0.02307,-0.05186 0.290327,-0.547555 1.133528,-0.910484 0.843174,-0.362902 2.516584,-0.0114 2.457741,0.275061 -0.05884,0.286464 -1.668754,0.189362 -1.668754,0.189362 0,0 1.00248,0.889874 1.295295,0.769567 0.292787,-0.120332 0.55962,-1.001262 0.911859,-1.044257 0.352425,-0.04299 0.01164,0.730435 0.01164,0.730435 0,0 0.157692,0.149622 0.137848,0.552186 -0.01244,0.25273 -1.332997,1.834938 -2.07645,1.691269 -0.743453,-0.143695 -1.38213,-0.919295 -1.38213,-0.919295 l -0.363009,0.392827 c 0,0 -1.146677,-0.894768 -1.133448,-0.929243 0.01318,-0.03448 0.675878,-0.797428 0.675878,-0.797428 z" fill="#7f7f7f" id="path67-5" style="stroke-width:0.264583"/>
      <path d="m 50.827903,14.790998 0.02828,-0.208491 c 0.09443,0.0131 0.190897,-0.1601 0.284083,-0.327422 0.135388,-0.243179 0.303927,-0.54573 0.613966,-0.513424 0.01056,0.0011 0.02037,0.0034 0.0304,0.0054 l -3.44e-4,-2.91e-4 c 0.02167,-0.03694 0.20701,-0.340149 0.469265,-0.397034 0.002,-0.0042 0.0041,-0.0085 0.0061,-0.01265 0.06882,-0.142954 0.212116,-0.440399 0.444949,-0.509667 0.05001,-0.0149 0.100542,-0.01855 0.151077,-0.01119 -0.02461,0.06612 -0.04392,0.110199 -0.04392,0.110199 0,0 0.03704,0.03567 0.07303,0.117846 -0.05609,-0.02815 -0.09525,-0.02254 -0.120121,-0.01519 -0.130704,0.03884 -0.241671,0.248285 -0.299429,0.366343 0.02595,0.02371 0.05112,0.05696 0.07281,0.103796 0.0557,0.120755 0.07633,0.318849 0.05728,0.532712 -0.08107,0.09747 -0.172799,0.200183 -0.271647,0.30263 0.06363,-0.203491 0.08401,-0.432832 0.05985,-0.606637 -0.01635,-0.117977 -0.04728,-0.165999 -0.0598,-0.176768 -0.146288,0.0098 -0.301308,0.219472 -0.358405,0.310833 0.02371,0.03392 0.04212,0.07377 0.05339,0.120332 0.04691,0.193517 -0.03098,0.499534 -0.1583,0.776552 -0.133112,0.105834 -0.269161,0.19947 -0.402114,0.271331 0.202433,-0.261673 0.411506,-0.769118 0.355997,-0.998273 -0.01498,-0.06183 -0.04249,-0.07676 -0.08199,-0.08088 -0.159809,-0.01733 -0.269796,0.157929 -0.408226,0.406479 -0.12745,0.228864 -0.258974,0.46564 -0.4962,0.433493 z" fill="#5f5f5f" id="path68-1" style="stroke-width:0.264583"/>
      <path d="m 50.869152,12.700737 c -0.06829,-0.04053 -0.200978,-0.137557 -0.498581,-0.365707 l 0.128032,-0.166952 c 0.155734,0.11938 0.328665,0.248788 0.422698,0.315224 -0.192828,-0.0047 -0.327845,-0.01273 -0.327845,-0.01273 0,0 0.11385,0.100965 0.275696,0.230161 z" fill="#5f5f5f" id="path69-3" style="stroke-width:0.264583"/>
      <path d="m 45.625639,15.505241 1.080109,-0.985494 c 0.0074,0.01347 0.01389,0.02278 0.0195,0.02635 0.04699,0.0299 0.183541,-0.04823 0.36359,-0.183833 l 0.0025,0.0027 -1.367605,1.247722 z" fill="#5f5f5f" id="path70-2" style="stroke-width:0.264583"/>
      <path d="m 49.501441,14.261461 c -0.02791,0.03347 -0.06059,0.07252 -0.09594,0.114591 l -0.289374,-0.413041 0.119168,-0.08353 0.2735,0.390499 c -0.0022,-0.0026 -0.0056,-0.0065 -0.0074,-0.0085 z" fill="#5f5f5f" id="path71-6" style="stroke-width:0.264583"/>
      <path d="m 39.678573,11.283338 c 1.872615,0 2.45245,-1.9360889 2.61329,-2.7492328 -0.05543,0.014975 -0.10758,0.029686 -0.157057,0.043868 -0.172243,0.8147314 -0.741494,2.5598968 -2.456656,2.5598968 -0.009,0 -0.01812,-8e-5 -0.02715,-1.59e-4 -1.849014,-0.01963 -2.292033,-1.8089562 -2.395405,-2.534867 -0.04686,-0.014843 -0.09763,-0.03048 -0.150363,-0.046408 0.09827,0.7179998 0.552344,2.705603 2.54418,2.726769 0.0099,8e-5 0.01934,1.33e-4 0.02916,1.33e-4 z" fill="#dcdcdc" id="path72-9" style="stroke-width:0.264583"/>
    </g>
  </g>
</svg>