<svg viewBox="0 0 212 178" fill="none" xmlns="http://www.w3.org/2000/svg">
<path d="M114.268 115.242C114.268 115.242 110.767 115.482 110.983 116.89C111.2 118.298 112.884 119.095 114.961 118.795L116.825 116.517L114.268 115.242Z" fill="#EB996E"/>
<path d="M109.678 131.728L113.626 148.702L126.472 129.737L135.56 132.664C135.56 132.664 117.268 173.547 112.93 172.833C108.593 172.119 105.003 171.799 102.902 167.209C100.801 162.618 95.7854 145.646 95.7854 145.646L94.2893 138.14L109.193 131.724" fill="#FFBE9D"/>
<path d="M108.112 108.13C108.112 108.13 124.205 110.695 124.857 111.17C125.51 111.644 136.663 123.281 136.732 126.569C136.8 129.856 135.561 132.664 135.561 132.664L126.677 130.53L122.594 125.428C122.594 125.428 119.22 125.496 118.381 124.926C117.543 124.356 116.617 122.94 116.809 122.19C116.809 122.19 114.281 122.077 114.962 118.795C114.962 118.795 112.071 116.989 114.051 115.407C116.03 113.826 119.688 113.29 119.688 113.29C119.688 113.29 109.771 111.712 108.656 110.576C107.54 109.44 108.112 108.13 108.112 108.13Z" fill="#FFBE9D"/>
<path d="M120.73 116.692C120.74 116.756 119.411 116.952 117.868 117.523C116.322 118.084 115.18 118.794 115.147 118.738C115.133 118.716 115.4 118.51 115.87 118.233C116.339 117.955 117.015 117.616 117.797 117.328C118.58 117.042 119.315 116.865 119.852 116.774C120.389 116.682 120.727 116.666 120.73 116.692Z" fill="#EB996E"/>
<path d="M122.115 120.794C122.122 120.855 120.945 121.014 119.532 121.376C118.117 121.732 117.007 122.153 116.984 122.096C116.974 122.071 117.239 121.933 117.687 121.753C118.135 121.573 118.767 121.357 119.482 121.175C120.196 120.994 120.854 120.883 121.333 120.828C121.813 120.772 122.112 120.767 122.115 120.794Z" fill="#EB996E"/>
<path d="M129.908 131.982C129.88 132.032 129.073 131.646 128.103 131.12C127.134 130.593 126.37 130.126 126.397 130.076C126.424 130.025 127.232 130.411 128.201 130.938C129.171 131.464 129.934 131.931 129.908 131.982Z" fill="#EB996E"/>
<path d="M113.174 156.772C113.117 156.768 113.194 154.946 113.347 152.703C113.499 150.459 113.669 148.643 113.726 148.647C113.782 148.651 113.705 150.473 113.552 152.717C113.4 154.96 113.23 156.776 113.174 156.772Z" fill="#EB996E"/>
<path d="M92.4512 101.334C91.0515 99.2786 89.2151 97.4981 88.1839 95.2342C87.5093 93.7534 87.2122 92.1331 86.9205 90.5315C84.6297 77.9483 82.3389 65.3647 80.0481 52.7812L42.3872 48.4023C36.6779 58.5083 33.528 70.0536 33.3121 81.6649C33.2004 87.6743 33.5874 94.4652 29.426 98.7926C27.6692 100.619 25.1365 101.955 24.4462 104.396C23.8567 106.481 24.8402 108.709 24.559 110.858C24.229 113.379 22.2656 115.31 20.8531 117.422C18.8275 120.449 17.8452 124.164 18.1083 127.799C18.235 129.547 18.7764 131.468 20.2868 132.35C21.2199 132.895 22.352 132.938 23.4315 132.967C47.0782 133.595 70.9819 134.202 94.1309 129.324C95.1172 124.616 96.1083 119.869 96.1348 115.058C96.1617 110.248 95.1562 105.308 92.4512 101.334Z" fill="#263238"/>
<path d="M35.2621 135.004C35.2621 135.004 35.2237 134.953 35.158 134.848C35.0884 134.735 34.9922 134.58 34.8691 134.38C34.6209 133.965 34.2893 133.331 33.9317 132.482C33.5943 131.626 33.2399 130.551 33.0115 129.26C32.7827 127.973 32.6794 126.472 32.827 124.827C32.9974 123.19 33.4085 121.401 34.2421 119.644C35.0555 117.885 36.2272 116.162 36.9785 114.137C37.1625 113.631 37.3078 113.105 37.4113 112.566C37.5112 112.025 37.5451 111.468 37.5411 110.907C37.5137 109.781 37.2913 108.642 36.9794 107.508C36.6722 106.371 36.2919 105.23 35.972 104.048C35.6497 102.868 35.4201 101.632 35.3779 100.37C35.2936 97.8389 35.8074 95.4055 36.3929 93.1199C36.9906 90.8295 37.6525 88.6496 38.1164 86.5312C39.0714 82.299 39.4895 78.3996 39.6365 75.1235C39.7689 71.844 39.6507 69.1859 39.5107 67.3561C39.4378 66.441 39.3755 65.7311 39.321 65.2506C39.2986 65.0172 39.281 64.8353 39.2686 64.7031C39.2581 64.5796 39.2577 64.5157 39.2577 64.5157C39.2577 64.5157 39.2719 64.5777 39.2896 64.7005C39.3072 64.8323 39.3311 65.013 39.3622 65.2458C39.4298 65.7248 39.5051 66.4344 39.5903 67.3496C39.7548 69.1796 39.8959 71.8414 39.7817 75.1293C39.6529 78.4136 39.2489 82.3254 38.3013 86.5727C37.8409 88.6994 37.181 90.8869 36.588 93.1701C36.0069 95.4503 35.5 97.8655 35.5838 100.362C35.6434 102.869 36.5595 105.174 37.1745 107.455C37.4868 108.596 37.7122 109.753 37.7383 110.903C37.7414 111.477 37.7054 112.047 37.6018 112.601C37.495 113.152 37.3453 113.688 37.1569 114.202C36.3876 116.257 35.2088 117.976 34.3967 119.717C33.5657 121.452 33.1508 123.22 32.9721 124.841C32.8164 126.47 32.9087 127.96 33.1253 129.24C33.3411 130.523 33.682 131.596 34.0063 132.452C34.3505 133.301 34.6694 133.938 34.9053 134.359C35.0208 134.563 35.1107 134.722 35.1759 134.837C35.2356 134.945 35.2621 135.004 35.2621 135.004Z" fill="#455A64"/>
<path d="M66.1306 35.3357C58.9453 35.0486 51.9646 36.6271 46.8005 41.644C42.0603 46.2495 39.9364 50.5382 39.4989 57.3382C39.3492 59.6681 40.3093 64.816 41.2361 66.9577C42.1629 69.0994 44.7281 74.5302 46.9115 75.3428C49.0949 76.155 50.1822 72.4258 51.7152 70.6683C52.6528 69.5939 53.0816 68.1795 53.504 66.8167C55.2877 61.0546 57.4339 55.2949 61.0667 50.4849C64.6998 45.6749 70.0291 41.873 76.0187 41.2832L79.845 41.2236C74.9989 36.4471 70.8697 35.5252 66.1306 35.3357Z" fill="#455A64"/>
<path d="M72.023 42.9849L52.4322 50.1593C50.4963 50.5686 49.1952 52.3949 49.437 54.3635L55.905 98.1504C56.3468 101.142 57.7601 103.903 59.9261 106.007L62.2064 108.223C67.4055 113.274 76.2215 111.432 78.6748 104.603C78.8462 104.126 78.9531 103.714 78.977 103.39C78.9891 102.986 79.0558 102.711 79.0267 102.373C79.1202 98.897 78.4347 95.6875 78.4347 95.6875C78.0772 91.7575 77.9111 90.1478 77.9175 90.1839C77.9175 90.1839 86.0356 87.9559 86.6369 76.9772C86.9356 71.5171 85.7615 62.7368 84.5691 55.5839C83.4946 49.1452 78.3944 41.6362 72.023 42.9849Z" fill="#FFBE9D"/>
<path d="M81.393 63.4205C81.4939 64.1493 80.9614 64.8364 80.2041 64.956C79.448 65.0756 78.752 64.5834 78.6511 63.8542C78.5502 63.1254 79.0827 62.4379 79.8384 62.3183C80.5961 62.1983 81.2921 62.692 81.393 63.4205Z" fill="#263238"/>
<path d="M83.4836 60.3646C83.3309 60.563 82.204 59.8946 80.717 60.0518C79.2297 60.188 78.2172 61.0679 78.0372 60.9018C77.9495 60.8293 78.091 60.4852 78.5302 60.089C78.9627 59.6956 79.7262 59.2773 80.6527 59.1852C81.5796 59.0947 82.3942 59.356 82.8779 59.6597C83.3707 59.9642 83.5595 60.2747 83.4836 60.3646Z" fill="#263238"/>
<path d="M67.3169 64.6542C67.4182 65.383 66.8854 66.0697 66.128 66.1897C65.3719 66.3089 64.6759 65.8167 64.575 65.0879C64.4737 64.359 65.0066 63.6716 65.7627 63.5516C66.5204 63.432 67.2164 63.9253 67.3169 64.6542Z" fill="#263238"/>
<path d="M68.5723 61.6401C68.4192 61.8385 67.2911 61.1705 65.8053 61.3281C64.3184 61.4635 63.3051 62.3433 63.1251 62.1777C63.0378 62.1048 63.1769 61.7611 63.6185 61.3649C64.051 60.9711 64.8141 60.5528 65.741 60.4607C66.6679 60.3702 67.4821 60.6319 67.9662 60.9352C68.4582 61.2397 68.6478 61.5506 68.5723 61.6401Z" fill="#263238"/>
<path d="M75.074 72.648C75.0584 72.5641 75.9663 72.3088 77.4446 71.9618C77.82 71.8834 78.1719 71.7706 78.2092 71.5043C78.2704 71.2199 78.0695 70.8263 77.8396 70.402C77.3877 69.5177 76.915 68.5904 76.4186 67.6193C74.4351 63.6535 72.9573 60.3764 73.117 60.2979C73.2771 60.2189 75.0151 63.3699 76.9987 67.3357C77.4784 68.3146 77.9375 69.2474 78.374 70.1407C78.5624 70.5583 78.86 71.0236 78.7249 71.6142C78.6518 71.9092 78.3943 72.1445 78.1577 72.2355C77.9218 72.3349 77.7087 72.361 77.522 72.3917C76.0225 72.629 75.088 72.7322 75.074 72.648Z" fill="#263238"/>
<path d="M77.9409 90.1838C77.9409 90.1838 70.7394 91.4012 63.1123 87.8159C63.1123 87.8159 67.5092 94.9188 78.1909 92.7937L77.9409 90.1838Z" fill="#EB996E"/>
<path d="M74.8167 76.3072C74.209 75.6534 73.232 75.361 72.3119 75.5575C71.6736 75.6939 71.0536 76.0732 70.7156 76.6404C70.3776 77.2076 70.3722 77.9642 70.7803 78.4295C71.2398 78.9536 72.092 78.9978 72.7808 78.7222C73.47 78.4465 74.0326 77.9152 74.5646 77.3888C74.7118 77.2431 74.8618 77.0915 74.944 76.9041C75.0261 76.717 75.0236 76.4833 74.8849 76.3497" fill="#EB996E"/>
<path d="M70.8467 74.1331C71.0869 74.0941 71.2562 75.7118 72.7561 76.7176C74.2536 77.7274 75.9556 77.3678 75.9915 77.5927C76.0248 77.6921 75.6405 77.9467 74.9166 78.0415C74.2066 78.1396 73.1428 78.0176 72.2252 77.4024C71.3097 76.7851 70.8507 75.8829 70.7275 75.2245C70.5965 74.5546 70.7351 74.1351 70.8467 74.1331Z" fill="#263238"/>
<path d="M68.4776 54.5753C68.2984 54.9696 66.8257 54.6579 65.0606 54.7293C63.2934 54.765 61.8429 55.165 61.6396 54.7821C61.55 54.5997 61.8263 54.2372 62.4278 53.8895C63.0241 53.5421 63.9558 53.2413 65.0145 53.2082C66.0735 53.1774 67.0211 53.4211 67.637 53.7321C68.2588 54.0424 68.5562 54.3875 68.4776 54.5753Z" fill="#263238"/>
<path d="M76.6146 56.7739C76.8949 56.3959 78.2008 56.5884 79.7209 56.4155C81.2453 56.2856 82.4963 55.8385 82.8359 56.1545C82.9871 56.31 82.8264 56.6734 82.3049 57.0634C81.7909 57.4511 80.8975 57.8275 79.851 57.9322C78.8048 58.0357 77.8627 57.8424 77.2921 57.5627C76.712 57.2825 76.4929 56.9566 76.6146 56.7739Z" fill="#263238"/>
<path d="M54.3645 72.1461C54.2796 71.342 53.1574 69.5412 52.3519 69.4994C50.2015 69.3873 46.4046 69.9518 46.9226 75.3431C47.6313 82.7129 54.8663 80.4797 54.8593 80.267C54.8538 80.1007 54.6567 74.9234 54.3645 72.1461Z" fill="#FFBE9D"/>
<path d="M52.3256 77.6905C52.2913 77.67 52.2061 77.7928 51.9997 77.913C51.7977 78.0301 51.4411 78.1321 51.0438 78.0251C50.2395 77.8146 49.4668 76.6414 49.3036 75.3166C49.2204 74.6474 49.299 73.9953 49.4853 73.4432C49.6578 72.8827 49.9693 72.4721 50.3541 72.3651C50.7342 72.2371 51.0338 72.4449 51.1435 72.6437C51.262 72.8406 51.2295 72.9923 51.2698 73.0006C51.2919 73.0174 51.4158 72.862 51.3274 72.5638C51.283 72.4202 51.1802 72.2544 50.9935 72.1296C50.8033 72.0027 50.5369 71.9547 50.2669 72.0105C49.7038 72.105 49.2438 72.6768 49.0393 73.2827C48.8035 73.8939 48.6993 74.6287 48.7925 75.3797C48.9822 76.8603 49.8742 78.1765 50.967 78.382C51.4968 78.467 51.9135 78.269 52.1196 78.0738C52.3294 77.8699 52.3524 77.7015 52.3256 77.6905Z" fill="#EB996E"/>
<path d="M79.8485 40.9613C77.3157 38.6335 73.9975 37.3032 70.6231 36.6524C67.7146 36.0918 64.6607 36.0295 61.7753 36.6411L61.7714 36.6394C55.2169 36.9805 47.2665 46.6877 46.0482 53.1524C45.4673 56.2372 45.8759 59.4181 46.4147 62.5102C46.6889 64.0824 47.006 65.677 47.7659 67.0799C48.5254 68.4823 49.8021 69.6867 51.3669 69.9812C52.9316 70.2753 54.739 69.4369 55.2169 67.9145C55.5755 66.7718 55.1705 65.4983 55.5086 64.3494C56.2827 61.72 60.2246 61.3483 61.3808 58.863C62.215 57.0701 61.277 54.7977 62.1944 53.0459C63.0925 51.3304 65.2838 50.906 67.0508 50.1208C69.9743 48.8219 72.1502 45.9989 72.7529 42.8607C72.802 42.8587 72.8511 42.8551 72.9006 42.8539C80.0609 42.6869 83.227 50.2779 84.2763 53.3748C84.9209 48.8494 83.2098 44.0513 79.8485 40.9613Z" fill="#263238"/>
<path d="M50.1677 45.0623C50.1689 45.0551 50.2484 45.0609 50.3983 45.0775C50.5703 45.0995 50.7866 45.1269 51.052 45.1607C51.3346 45.2025 51.6818 45.2468 52.086 45.2852C52.4898 45.3276 52.9485 45.3843 53.4589 45.4156C54.4766 45.5067 55.6934 45.5493 57.0434 45.5585C58.3936 45.5494 59.8779 45.4893 61.4298 45.3437C62.981 45.1877 64.4496 44.9609 65.7767 44.7096C67.1 44.4404 68.2859 44.1646 69.2673 43.8789C69.7619 43.7497 70.2016 43.6059 70.5896 43.4863C70.9791 43.3706 71.3109 43.2605 71.5804 43.1649C71.8343 43.0808 72.0415 43.0117 72.2057 42.957C72.3498 42.9117 72.4263 42.8909 72.429 42.8977C72.4318 42.9044 72.3599 42.938 72.2205 42.996C72.0593 43.0603 71.8564 43.1413 71.6075 43.2405C71.3415 43.348 71.0124 43.4697 70.6251 43.596C70.239 43.7264 69.8013 43.8806 69.3074 44.0188C68.3278 44.3236 67.1406 44.6153 65.8133 44.8959C64.4825 45.1587 63.0079 45.3922 61.4492 45.5489C59.8902 45.6953 58.3988 45.7502 57.0428 45.7489C55.6869 45.7294 54.4655 45.6717 53.4459 45.5611C52.9348 45.5203 52.4754 45.4533 52.0717 45.3998C51.6676 45.3503 51.3213 45.2945 51.0395 45.2399C50.7759 45.1903 50.5612 45.1502 50.3909 45.1183C50.2435 45.0886 50.1664 45.0694 50.1677 45.0623Z" fill="#455A64"/>
<path d="M47.2905 49.3709C47.2925 49.3642 47.3874 49.3823 47.5652 49.423C47.7623 49.4709 48.0199 49.5336 48.3403 49.6114C48.5102 49.6544 48.6966 49.701 48.8985 49.7522C49.1032 49.801 49.3301 49.8333 49.5712 49.8799C50.0558 49.9598 50.601 50.0926 51.2181 50.1433C51.5258 50.1782 51.8473 50.2152 52.1818 50.253C52.5168 50.2941 52.8687 50.2908 53.2311 50.3134C53.9562 50.3686 54.7326 50.3372 55.5485 50.3197C57.1783 50.2294 58.9636 49.9923 60.7922 49.5306C62.617 49.0513 64.2944 48.3913 65.769 47.6896C66.1322 47.5031 66.4866 47.3209 66.8311 47.1438C67.1796 46.9743 67.4907 46.7604 67.8068 46.5807C68.1158 46.3894 68.4281 46.226 68.7035 46.0309C68.9816 45.8402 69.249 45.6574 69.5045 45.4824C70.0255 45.1471 70.4487 44.7778 70.8416 44.4824C71.0344 44.3295 71.2202 44.1953 71.38 44.0576C71.5366 43.9196 71.6809 43.7925 71.8128 43.6769C72.0626 43.461 72.263 43.2875 72.4168 43.1546C72.5567 43.0366 72.6323 42.9773 72.6374 42.9825C72.6425 42.9877 72.5763 43.057 72.4455 43.185C72.298 43.3255 72.1058 43.5089 71.8662 43.7372C71.7378 43.8576 71.5967 43.9895 71.444 44.1327C71.2877 44.2751 71.1042 44.4142 70.9146 44.5722C70.5267 44.8776 70.1078 45.2565 69.5895 45.6012C69.3348 45.781 69.0685 45.9686 68.7912 46.1641C68.5161 46.3639 68.2041 46.5318 67.8951 46.7274C67.579 46.9115 67.2678 47.1297 66.9182 47.3032C66.5724 47.4838 66.2168 47.67 65.8528 47.8608C64.3721 48.5771 62.6832 49.2479 60.8437 49.7309C59.0009 50.1965 57.1993 50.4295 55.5569 50.5102C54.7343 50.5229 53.9524 50.5479 53.2226 50.4848C52.8579 50.4586 52.5037 50.4575 52.1672 50.412C51.8311 50.369 51.508 50.3276 51.1988 50.288C50.5794 50.2273 50.0331 50.0838 49.5482 49.9928C49.3071 49.9406 49.0802 49.9028 48.876 49.848C48.6746 49.7905 48.4889 49.7375 48.3199 49.689C48.0028 49.5954 47.7481 49.5204 47.553 49.4626C47.3788 49.4093 47.2884 49.3776 47.2905 49.3709Z" fill="#455A64"/>
<path d="M53.5415 82.1064C53.5486 82.1065 53.5531 82.141 53.5557 82.2085C53.5627 82.2768 53.5525 82.3755 53.5293 82.5035C53.4799 82.7563 53.305 83.1144 52.9496 83.4184C52.5998 83.7224 52.0691 83.9659 51.4491 83.9881C50.8242 84.025 50.1372 83.7075 49.6818 83.1569C49.2214 82.6082 49.027 81.8886 49.1374 81.2736C49.2359 80.6562 49.5586 80.1726 49.8817 79.8486C50.2131 79.525 50.5485 79.347 50.7883 79.26C51.0288 79.1717 51.1714 79.1621 51.1729 79.1709C51.1955 79.2135 50.5995 79.3033 49.9862 79.9501C49.6925 80.2705 49.4055 80.7329 49.3252 81.3016C49.2342 81.8655 49.416 82.5172 49.84 83.024C50.2616 83.5303 50.8757 83.8211 51.4454 83.7977C52.0162 83.7878 52.5201 83.5754 52.8575 83.305C53.1999 83.0354 53.3817 82.7154 53.4519 82.4823C53.5238 82.2479 53.5193 82.1055 53.5415 82.1064Z" fill="#E0E0E0"/>
<path d="M71.4512 72.693C71.4666 72.7538 70.6992 72.9523 69.8698 73.4403C69.0353 73.9208 68.4832 74.4903 68.438 74.4467C68.3963 74.4166 68.8988 73.7622 69.7663 73.2618C70.6299 72.755 71.4461 72.6418 71.4512 72.693Z" fill="#EB996E"/>
<path d="M50.7101 99.2458L55.7353 97.4865L78.6364 96.796L86.5048 99.1618C86.5048 99.1618 76.3821 111.927 67.6951 110.974C59.0081 110.021 50.7101 99.2458 50.7101 99.2458Z" fill="#FFBE9D"/>
<path d="M99.7601 104.698L98.1751 111.911L94.2676 141.406C94.2676 141.406 107.221 139.967 111.419 132.619L111.429 131.388C111.429 131.388 103.174 105.716 99.7601 104.698Z" fill="#FF725E"/>
<path d="M99.7589 104.698L85.8525 98.2847C85.8525 98.2847 82.8933 104.106 70.9158 105.705C58.9382 107.305 50.2101 98.7987 50.2101 98.7987C50.2101 98.7987 45.8946 100.915 39.7411 103.174L40.2777 140.224L42.6731 147.931C42.6731 147.931 40.4432 158.678 39.6515 161.901C38.8597 165.125 40.9967 166.525 40.9967 166.525L39.8409 177.232L99.5109 177.688L95.9914 156.489L99.7589 104.698Z" fill="#FF725E"/>
<path d="M39.7432 103.174C39.7432 103.174 32.101 106.487 29.3119 112.723C26.9363 118.035 22.2453 131.475 22.2453 131.475L41.5008 141.002L41.7032 114.557L39.7432 103.174Z" fill="#FF725E"/>
<path d="M36.3254 122.255C36.3809 122.242 37.465 126.747 38.7467 132.315C40.0289 137.886 41.0229 142.41 40.9674 142.423C40.9119 142.435 39.8282 137.932 38.5461 132.362C37.2639 126.793 36.2699 122.268 36.3254 122.255Z" fill="#263238"/>
<path d="M99.05 116.872C99.0535 116.872 99.0544 116.906 99.0527 116.974C99.0494 117.053 99.045 117.15 99.0402 117.271C99.0234 117.549 99.0003 117.931 98.9713 118.414C98.901 119.424 98.8014 120.855 98.6791 122.616C98.4115 126.178 98.0436 131.07 97.6377 136.473C97.2081 141.877 96.8192 146.768 96.5358 150.328C96.3862 152.087 96.2644 153.516 96.1784 154.524C96.1327 155.006 96.0969 155.387 96.0707 155.664C96.0571 155.784 96.0465 155.881 96.0375 155.96C96.0291 156.027 96.0229 156.061 96.0194 156.061C96.0158 156.06 96.0149 156.026 96.0166 155.959C96.0199 155.879 96.0243 155.781 96.0295 155.661C96.0463 155.383 96.0694 155.001 96.0985 154.517C96.1687 153.508 96.2679 152.077 96.3907 150.315C96.6582 146.754 97.0261 141.862 97.432 136.457C97.8616 131.055 98.2505 126.165 98.5335 122.605C98.6831 120.846 98.8049 119.417 98.891 118.409C98.9366 117.926 98.9724 117.545 98.9986 117.268C99.0122 117.148 99.0229 117.051 99.0318 116.972C99.0402 116.905 99.0464 116.871 99.05 116.872Z" fill="#263238"/>
<path d="M88.914 99.6241C88.9168 99.6265 88.8924 99.6573 88.8429 99.7156C88.7846 99.7818 88.7107 99.8658 88.6181 99.9702C88.4114 100.185 88.1384 100.535 87.7214 100.921C86.9244 101.729 85.6682 102.806 83.9551 103.899C83.5365 104.189 83.0593 104.427 82.5818 104.709C82.0949 104.974 81.5744 105.225 81.0365 105.483C79.9448 105.966 78.7553 106.438 77.4633 106.808C74.8872 107.566 71.9312 107.992 68.8303 107.912C65.7295 107.804 62.8061 107.236 60.2462 106.433C57.6819 105.634 55.4695 104.635 53.6826 103.676C51.8938 102.718 50.5109 101.829 49.5826 101.178C49.1116 100.863 48.7658 100.589 48.5241 100.414C48.4127 100.33 48.3238 100.263 48.2538 100.209C48.1936 100.162 48.1637 100.137 48.1657 100.134C48.1677 100.131 48.2016 100.15 48.2662 100.192C48.3394 100.241 48.4323 100.303 48.5485 100.381C48.7982 100.544 49.1508 100.807 49.6278 101.112C50.5682 101.741 51.9595 102.609 53.7509 103.548C55.5403 104.487 57.7489 105.466 60.303 106.252C62.8523 107.041 65.758 107.599 68.8374 107.706C71.9153 107.785 74.8503 107.368 77.4117 106.626C78.6961 106.263 79.8795 105.8 80.9673 105.327C81.5032 105.074 82.022 104.829 82.5076 104.569C82.9839 104.292 83.4607 104.059 83.8792 103.776C85.5918 102.705 86.8557 101.651 87.6668 100.864C88.0909 100.488 88.3725 100.148 88.5886 99.9426C88.6871 99.8438 88.7661 99.7642 88.8283 99.702C88.8818 99.6477 88.9113 99.6217 88.914 99.6241Z" fill="#263238"/>
<path d="M39.5609 137.507C39.5561 137.52 39.316 137.442 38.8865 137.289C38.4567 137.136 37.8394 136.905 37.0797 136.609C35.5604 136.018 33.4779 135.16 31.2102 134.136C28.9426 133.111 26.9205 132.116 25.4728 131.367C24.7486 130.992 24.1664 130.682 23.7679 130.46C23.369 130.24 23.1515 130.111 23.1583 130.099C23.1648 130.086 23.3947 130.19 23.8049 130.389C24.2441 130.604 24.8293 130.89 25.5379 131.236C27.0013 131.952 29.0299 132.924 31.2948 133.948C33.5593 134.97 35.6298 135.849 37.1338 136.474C37.8626 136.777 38.4635 137.026 38.9152 137.214C39.3358 137.39 39.5658 137.493 39.5609 137.507Z" fill="#263238"/>
<path d="M111.489 131.39C111.498 131.401 111.336 131.554 111.034 131.822C110.734 132.092 110.284 132.466 109.715 132.911C108.58 133.802 106.94 134.95 105.018 136.03C103.093 137.108 101.26 137.908 99.9081 138.412C99.2325 138.666 98.6797 138.855 98.2933 138.97C97.9073 139.088 97.6923 139.147 97.688 139.133C97.6838 139.119 97.8903 139.035 98.2674 138.893C98.6452 138.755 99.1887 138.546 99.8553 138.276C101.189 137.739 103.002 136.922 104.918 135.85C106.83 134.775 108.473 133.652 109.627 132.794C110.205 132.366 110.668 132.01 110.983 131.76C111.3 131.512 111.48 131.379 111.489 131.39Z" fill="#263238"/>
<g opacity="0.3">
<path d="M36.4718 123.231C35.671 128.666 37.2487 135.079 40.3723 139.593C39.4831 134.292 38.0055 128.358 36.4323 123.219" fill="black"/>
</g>
<path d="M38.4113 131.473C38.3851 131.524 35.3191 129.985 31.564 128.036C27.8076 126.087 24.7846 124.466 24.8107 124.416C24.8368 124.365 27.9024 125.903 31.6588 127.853C35.4135 129.801 38.4374 131.422 38.4113 131.473Z" fill="white"/>
<path d="M36.3241 121.439C36.2952 121.487 34.361 120.397 32.0039 119.003C29.6465 117.608 27.7595 116.438 27.7884 116.389C27.8173 116.34 29.7511 117.43 32.109 118.824C34.4656 120.219 36.353 121.39 36.3241 121.439Z" fill="white"/>
<path d="M104.682 112.571C104.682 112.571 104.619 112.586 104.493 112.605C104.358 112.624 104.173 112.65 103.934 112.684C103.432 112.749 102.708 112.843 101.781 112.964C100.846 113.088 99.7017 113.23 98.3691 113.367C97.0373 113.507 95.5228 113.687 93.8427 113.827C93.003 113.902 92.1233 113.981 91.2072 114.064C90.2907 114.144 89.3351 114.204 88.3466 114.278C86.3703 114.436 84.2547 114.541 82.0293 114.664C77.5761 114.869 72.6758 115.001 67.5312 114.984C62.3848 114.952 57.4845 114.775 53.0331 114.528C50.8086 114.384 48.6936 114.259 46.719 114.083C45.7313 113.999 44.7764 113.931 43.8604 113.841C42.9448 113.75 42.0664 113.663 41.2271 113.58C39.5485 113.424 38.0356 113.23 36.7053 113.077C35.3745 112.927 34.2314 112.775 33.2979 112.642C32.3715 112.513 31.6492 112.412 31.1482 112.342C30.9098 112.306 30.7244 112.279 30.59 112.259C30.4643 112.239 30.4007 112.223 30.4007 112.223C30.4007 112.223 30.4663 112.224 30.5929 112.238C30.7282 112.253 30.9144 112.274 31.1541 112.301C31.6559 112.362 32.3803 112.45 33.3084 112.563C34.2432 112.683 35.3872 112.824 36.7188 112.962C38.0496 113.104 39.563 113.288 41.2417 113.434C42.0806 113.514 42.9594 113.596 43.8747 113.683C44.7903 113.768 45.7449 113.832 46.7326 113.912C48.7068 114.081 50.8207 114.199 53.0441 114.338C57.4931 114.575 62.3899 114.746 67.5324 114.778C72.6734 114.795 77.5701 114.669 82.0209 114.475C84.2451 114.357 86.3598 114.259 88.3352 114.108C89.3233 114.037 90.2784 113.982 91.1949 113.905C92.111 113.827 92.9907 113.753 93.83 113.682C95.51 113.551 97.0248 113.382 98.3573 113.252C99.6902 113.126 100.836 112.996 101.772 112.885C102.701 112.78 103.426 112.699 103.929 112.643C104.169 112.618 104.355 112.599 104.49 112.585C104.617 112.572 104.682 112.571 104.682 112.571Z" fill="white"/>
<path d="M97.6759 128.279C97.6755 128.336 84.3399 128.28 67.8943 128.154C51.4427 128.029 38.1111 127.88 38.1115 127.823C38.112 127.766 51.4443 127.822 67.8959 127.948C84.3419 128.074 97.6763 128.223 97.6759 128.279Z" fill="white"/>
<path d="M75.2144 143.482C75.214 143.539 67.761 143.528 58.5697 143.458C49.3752 143.387 41.9246 143.284 41.925 143.227C41.9254 143.171 49.3768 143.181 58.5713 143.252C67.7622 143.322 75.2149 143.425 75.2144 143.482Z" fill="white"/>
<path d="M96.9141 143.767C96.9136 143.824 93.8372 143.847 90.0437 143.818C86.2485 143.789 83.1736 143.719 83.174 143.662C83.1745 143.605 86.2504 143.582 90.0452 143.612C93.8388 143.641 96.9145 143.711 96.9141 143.767Z" fill="white"/>
<path d="M95.9196 156.632C95.9191 156.689 83.6752 156.641 68.5752 156.526C53.4701 156.41 41.2292 156.27 41.2297 156.213C41.2301 156.157 53.4717 156.204 68.5768 156.319C83.6768 156.435 95.92 156.575 95.9196 156.632Z" fill="white"/>
<path d="M98.1813 171.905C98.1808 171.962 85.4576 171.911 69.7671 171.791C54.0707 171.671 41.3513 171.527 41.3517 171.47C41.3522 171.413 54.0727 171.464 69.7687 171.585C85.4592 171.705 98.1817 171.848 98.1813 171.905Z" fill="white"/>
<path d="M106.902 119.923C106.911 119.934 106.804 120.034 106.603 120.205C106.401 120.377 106.105 120.617 105.733 120.908C104.99 121.49 103.944 122.27 102.759 123.089C101.574 123.908 100.475 124.611 99.6675 125.1C99.2638 125.344 98.9342 125.537 98.7029 125.665C98.472 125.792 98.3408 125.857 98.3334 125.845C98.326 125.833 98.443 125.745 98.6611 125.596C98.9185 125.424 99.228 125.217 99.5896 124.976C100.376 124.456 101.459 123.736 102.642 122.919C103.825 122.101 104.882 121.343 105.646 120.791C106 120.537 106.302 120.321 106.554 120.141C106.77 119.99 106.894 119.912 106.902 119.923Z" fill="white"/>
<path d="M110.703 127.815C110.711 127.827 110.542 127.957 110.23 128.183C109.919 128.41 109.462 128.729 108.892 129.116C107.753 129.89 106.156 130.925 104.357 132.01C102.556 133.093 100.893 134.02 99.6767 134.664C99.0687 134.987 98.5732 135.242 98.2271 135.41C97.8815 135.58 97.6873 135.668 97.6806 135.655C97.674 135.643 97.8553 135.531 98.1893 135.339C98.5566 135.131 99.0332 134.861 99.6065 134.536C100.804 133.86 102.452 132.915 104.25 131.832C106.047 130.75 107.654 129.735 108.812 128.994C109.367 128.639 109.829 128.344 110.185 128.117C110.511 127.911 110.695 127.803 110.703 127.815Z" fill="white"/>
<path d="M25.3835 133.029L20.386 153.45L10.7243 133.078L0.447009 132.999C0.447009 132.999 4.51246 154.758 12.1646 167.119C18.0574 176.637 23.4917 176.967 27.0299 175.659C30.5681 174.351 34.0704 169.415 37.3824 157.589C39.308 150.713 40.5257 145.519 40.9598 142.422C41.0373 141.868 40.2765 140.224 40.2765 140.224L25.3835 133.029Z" fill="#FFBE9D"/>
<path d="M25.246 119.362C25.246 119.362 29.2552 119.092 29.2393 121.163C29.2235 123.234 23.599 123.445 23.599 123.445L22.8111 120.537L25.246 119.362Z" fill="#EB996E"/>
<path d="M0.443537 132.999C0.443537 132.999 0.488258 127.156 2.34788 124.71C3.84885 122.736 11.952 116.564 15.0217 114.258C15.7777 113.689 16.717 113.426 17.6575 113.518L34.1391 115.145C34.1391 115.145 34.4294 117.3 32.893 117.596C31.3566 117.891 24.9506 117.809 24.9506 117.809C24.9506 117.809 25.5875 120.398 25.266 121.491C24.9446 122.585 23.5284 123.257 23.5284 123.257C23.5284 123.257 24.3795 124.786 21.7576 126.611C21.7576 126.611 21.9469 129.705 19.0297 129.758C17.6411 129.783 16.2699 129.583 16.2699 129.583C16.2699 129.583 11.4887 132.929 10.7209 133.077C9.95267 133.226 0.443537 132.999 0.443537 132.999Z" fill="#FFBE9D"/>
<path d="M6.30507 134.086C6.29323 134.03 7.26452 133.773 8.47412 133.514C9.68451 133.254 10.6749 133.088 10.6867 133.144C10.6986 133.199 9.72769 133.455 8.5173 133.716C7.3077 133.976 6.31731 134.141 6.30507 134.086Z" fill="#EB996E"/>
<path d="M17.7623 124.108C17.7868 124.059 18.7519 124.504 19.8536 125.211C20.9569 125.916 21.7657 126.607 21.7318 126.65C21.6954 126.698 20.8372 126.085 19.7426 125.386C18.65 124.684 17.7346 124.16 17.7623 124.108Z" fill="#EB996E"/>
<path d="M23.6048 123.124C23.5621 123.169 22.7745 122.44 21.6725 121.723C20.5741 121 19.5914 120.57 19.6156 120.513C19.6318 120.464 20.6666 120.814 21.7854 121.55C22.9071 122.28 23.643 123.09 23.6048 123.124Z" fill="#EB996E"/>
<path d="M20.7275 116.976C20.7382 116.92 21.6907 117.054 22.8551 117.276C24.0198 117.498 24.9546 117.723 24.9442 117.779C24.9335 117.835 23.9811 117.701 22.8167 117.479C21.6523 117.257 20.7168 117.032 20.7275 116.976Z" fill="#EB996E"/>
<path d="M24.6195 160.071C24.5717 160.102 23.5378 158.611 22.3101 156.741C21.082 154.87 20.1248 153.328 20.1726 153.297C20.2203 153.266 21.2538 154.756 22.4823 156.627C23.7101 158.498 24.6672 160.039 24.6195 160.071Z" fill="#EB996E"/>
<path d="M196.812 10.7473C196.812 10.7473 193.211 8.58213 190.77 7.40175C188.31 6.21238 184.282 4.69469 184.282 4.69469C176.853 2.22551 168.987 0.978503 161.063 1.01366C133.753 1.01366 111.614 15.0945 111.614 32.4633C111.614 40.8889 114.653 47.4138 123.135 53.0604L107.784 71.9745L142.049 61.0098C149.478 63.479 153.14 63.948 161.063 63.9129C188.374 63.9129 210.512 49.832 210.512 32.4633C210.512 24.0376 205.293 16.3939 196.812 10.7473Z" fill="#FAFAFA" stroke="black" stroke-width="2"/>
<g clip-path="url(#clip0_2678_3365)">
<path d="M172.169 50.3029C162.06 56.1392 149.134 52.6757 143.298 42.5669C137.462 32.458 140.925 19.5318 151.034 13.6955C161.143 7.85927 174.069 11.3228 179.905 21.4316C185.742 31.5403 182.278 44.4665 172.169 50.3029Z" fill="#78D2FA"/>
<path d="M163.094 25.6746C162.941 25.7102 162.647 25.7851 162.519 25.8874C162.36 26.015 162.609 26.1809 162.518 26.2536C162.361 26.3791 162.247 26.6066 161.912 26.5852C161.21 26.5404 160.132 25.6331 159.491 25.2901C160.525 24.2267 158.89 24.0674 158.253 24.1206C157.427 24.1897 156 24.1152 155.254 24.5349C154.737 24.8261 154.042 26.0349 153.625 26.515C153.045 27.1833 152.461 27.7635 152.083 28.5635C150.697 31.4986 152.831 34.8681 156.185 34.474C157.116 34.3646 158.093 33.7791 158.919 34.5517C159.527 35.121 159.205 35.6568 159.366 36.3208C159.506 36.8953 160.142 37.2488 160.362 37.7765C160.784 38.7879 160.517 39.4205 160.215 40.3535C159.82 41.5776 160.843 43.0311 161.241 44.2125C161.441 44.8074 162.025 46.4732 162.599 46.7338C163.5 47.1437 164.914 45.9144 165.452 45.2532C165.873 44.7363 165.736 44.2112 166.018 43.7272C166.324 43.2034 166.712 43.0461 166.926 42.3709C167.157 41.643 167.397 41.4619 167.885 40.9307C168.671 40.0758 168.549 39.5759 168.235 38.5622C167.582 36.4562 169.953 35.4717 171.021 33.9258C172.136 32.3114 169.98 32.8496 169.136 32.2974C168.267 31.7297 167.887 30.6508 167.469 29.7563C167.05 28.8618 166.704 27.5176 166.011 26.7828C165.476 26.2171 163.852 25.9546 163.094 25.6746Z" fill="#A5DC69"/>
<path d="M174.003 39.8021C173.666 40.9376 173.329 42.0732 172.993 43.2088C172.757 44.0027 171.924 46.5997 170.756 44.9362C170.312 44.3041 170.673 43.4757 170.921 42.894C171.233 42.1601 170.811 41.7906 171.029 41.0958C171.279 40.2994 172.307 40.2721 172.793 39.712C173.133 39.3215 173.342 38.7006 173.59 38.2434C173.728 38.7631 173.866 39.2825 174.003 39.8021Z" fill="#A5DC69"/>
<path d="M179.905 21.4316C176.265 15.1265 169.866 11.407 163.114 10.9165L160.35 14.3836L154.426 16.4603L152.837 20.3127L155.288 23.7467L155.549 23.0207C155.984 21.8086 157.133 21.0002 158.421 21.0002H162.461L167.105 22.6321L168.705 24.159V25.1289L170.928 29.3886L171.576 29.1498C172.974 28.6342 174.244 27.8214 175.298 26.7675L174.761 25.9621C174.59 25.706 174.774 25.363 175.082 25.363H176.378C176.757 25.363 177.118 25.5292 177.364 25.8178L178.423 27.0573C178.524 27.1754 178.602 27.3106 178.656 27.4566L179.824 30.6692L180.38 30.1131C180.731 29.7623 180.908 29.2846 180.916 28.7888C180.923 28.3901 181.096 28.0119 181.394 27.746L181.82 27.3661C181.927 27.2707 182.046 27.1931 182.174 27.1344C181.711 25.1806 180.961 23.26 179.905 21.4316Z" fill="#A5DC69"/>
<path d="M148.286 22.2572L149.297 21.1739C150.034 20.3841 150.243 19.2368 149.832 18.2379C149.396 17.1817 148.442 16.497 147.386 16.3553C143.653 19.7411 141.332 24.2931 140.664 29.1148C141.453 29.8047 142.279 30.5433 142.275 30.6083C142.265 30.7329 145.232 30.2355 145.232 30.2355L143.705 27.9956L145.897 26.4277L148.286 22.2572Z" fill="#A5DC69"/>
<path d="M150.342 43.3165C151.295 43.0069 151.816 41.9835 151.507 41.0307L151.235 40.1929C151.116 39.8269 151.116 39.4326 151.236 39.0669C151.576 38.0304 150.931 36.9304 149.86 36.7211L147.725 36.3037L143.823 33.3374L140.598 34.3852C140.914 37.1864 141.798 39.9695 143.298 42.5668C144.685 44.9689 146.472 46.9948 148.527 48.6108L149.488 43.5939L150.342 43.3165Z" fill="#A5DC69"/>
<path d="M171.738 49.5597L171.705 49.5788C171.294 49.817 171.154 50.3428 171.392 50.7533C171.552 51.0281 171.84 51.1816 172.137 51.1816C172.283 51.1816 172.431 51.144 172.567 51.0653L172.6 51.0462C173.011 50.8081 173.15 50.2822 172.912 49.8717C172.674 49.4614 172.148 49.3216 171.738 49.5597Z" fill="black"/>
<path d="M180.649 21.002C177.712 15.9141 172.969 12.2747 167.294 10.7542C161.62 9.23358 155.692 10.014 150.604 12.9514C145.516 15.8888 141.877 20.6319 140.357 26.3066C138.836 31.9813 139.616 37.9087 142.554 42.9965C145.189 47.5604 149.377 51.0289 154.346 52.763C156.702 53.5849 159.161 53.9951 161.616 53.9951C164.286 53.9951 166.951 53.5099 169.469 52.5417C169.913 52.3715 170.134 51.8743 169.963 51.4313C169.793 50.9883 169.296 50.767 168.853 50.9376C162.148 53.5146 154.89 52.3437 149.467 48.2732L150.237 44.2543L150.608 44.1338C152.009 43.6784 152.779 42.1672 152.324 40.7653L152.052 39.9274C151.989 39.7336 151.989 39.5286 152.053 39.3349C152.292 38.6068 152.206 37.8103 151.819 37.1493C151.431 36.4882 150.777 36.0249 150.025 35.8778L148.086 35.4988L144.343 32.6534C144.119 32.4829 143.826 32.4332 143.558 32.5202L141.367 33.2319C141.32 32.4482 141.319 31.6648 141.364 30.8855C141.45 30.9661 141.506 31.0208 141.541 31.0567C141.584 31.1281 141.637 31.1936 141.699 31.2503C141.878 31.4133 142.04 31.4872 142.38 31.4872C142.693 31.4871 143.156 31.4248 143.921 31.3119C144.646 31.2047 145.367 31.084 145.374 31.0828C145.663 31.0344 145.907 30.8419 146.022 30.5725C146.137 30.303 146.107 29.9935 145.942 29.7513L144.888 28.2058L146.397 27.1266C146.498 27.0547 146.582 26.962 146.643 26.8547L148.983 22.7705L149.926 21.7601C150.889 20.7273 151.164 19.2163 150.626 17.9103C150.309 17.1401 149.754 16.4988 149.061 16.0666C149.812 15.4762 150.613 14.931 151.464 14.4397C154.586 12.6367 157.994 11.763 161.367 11.7295L159.832 13.6545L154.142 15.6494C153.911 15.7304 153.725 15.9062 153.632 16.1326L152.042 19.985C151.93 20.2588 151.965 20.5711 152.137 20.812L154.458 24.0632C154.126 24.3665 153.802 24.8082 153.416 25.3567C153.247 25.5972 153.087 25.8243 152.976 25.9517C152.88 26.0625 152.784 26.1708 152.688 26.2781C152.189 26.8397 151.673 27.4205 151.306 28.1964C150.5 29.903 150.663 31.8866 151.731 33.3732C152.764 34.8105 154.467 35.5411 156.285 35.3273C156.581 35.2926 156.857 35.2243 157.124 35.1581C157.861 34.9758 158.095 34.9576 158.331 35.1788C158.446 35.2865 158.456 35.3068 158.454 35.6719C158.452 35.9043 158.451 36.1934 158.531 36.5235C158.659 37.0515 158.991 37.4165 159.257 37.7097C159.39 37.8554 159.527 38.0061 159.569 38.1073C159.837 38.7496 159.72 39.1053 159.464 39.8847C159.442 39.9514 159.42 40.0195 159.398 40.0893C159.009 41.292 159.551 42.4849 160.028 43.5374C160.184 43.8792 160.33 44.2018 160.426 44.4869C161.199 46.7797 161.778 47.3048 162.243 47.5162C162.486 47.6268 162.738 47.6754 162.993 47.6753C164.232 47.6752 165.524 46.525 166.118 45.7959C166.491 45.338 166.583 44.8795 166.65 44.5446C166.683 44.3781 166.71 44.2466 166.76 44.1606C166.837 44.0292 166.927 43.9272 167.042 43.7982C167.272 43.5387 167.559 43.2159 167.745 42.6308C167.886 42.1863 167.988 42.0773 168.328 41.7157C168.387 41.6529 168.45 41.5857 168.518 41.5121C169.662 40.2666 169.367 39.3152 169.055 38.3079C168.793 37.4603 169.252 36.9182 170.363 35.8836C170.845 35.4351 171.343 34.9713 171.728 34.4142C171.896 34.1703 172.408 33.4284 172.091 32.6931C171.78 31.972 170.99 31.8509 170.356 31.7536C170.105 31.7151 169.726 31.657 169.606 31.5782C169.074 31.2306 168.749 30.5051 168.434 29.8034C168.371 29.6638 168.31 29.5259 168.247 29.3921C168.135 29.1534 168.024 28.8645 167.905 28.5588C167.593 27.7496 167.238 26.8324 166.635 26.193C166.093 25.6185 165.071 25.3418 164.169 25.0976C163.866 25.0155 163.58 24.938 163.391 24.8683C163.233 24.8098 163.061 24.7993 162.897 24.8378C162.458 24.9406 162.184 25.054 161.981 25.2169C161.927 25.26 161.768 25.4013 161.675 25.6286C161.361 25.4776 160.928 25.1893 160.662 25.0118C160.656 25.0081 160.651 25.0044 160.645 25.0007C160.735 24.6417 160.654 24.3535 160.569 24.1736C160.088 23.1581 158.495 23.2376 158.181 23.2643C158.002 23.2793 157.776 23.2873 157.537 23.2957C157.162 23.309 156.747 23.324 156.336 23.37L156.357 23.3111C156.669 22.4429 157.498 21.8594 158.421 21.8594H158.909C159.384 21.8594 159.768 21.4746 159.768 21.0001C159.768 20.5256 159.384 20.1409 158.909 20.1409H158.421C157.051 20.1409 155.797 20.8616 155.094 21.9961L153.812 20.2006L155.074 17.1439L160.634 15.1944C160.786 15.1409 160.921 15.0455 161.022 14.9191L163.493 11.8186C169.809 12.4194 175.754 15.9605 179.161 21.8612C180.069 23.4329 180.74 25.0875 181.186 26.7799L180.822 27.1047C180.346 27.529 180.068 28.1375 180.057 28.7744C180.057 28.7814 180.057 28.7882 180.057 28.7951L179.463 27.163C179.375 26.9194 179.244 26.6961 179.076 26.4992L178.017 25.2597C177.607 24.7792 177.009 24.5038 176.378 24.5038H175.082C174.622 24.5038 174.201 24.7558 173.984 25.1612C173.767 25.5666 173.791 26.0563 174.046 26.4389L174.177 26.6358C173.34 27.3558 172.372 27.932 171.34 28.3206L169.564 24.9181V24.159C169.564 23.9243 169.468 23.6995 169.298 23.5375L167.698 22.0105C167.61 21.9263 167.505 21.8618 167.39 21.8214L165.95 21.3154C165.502 21.1578 165.012 21.3935 164.854 21.8411C164.697 22.2889 164.932 22.7794 165.38 22.9367L166.646 23.3815L167.845 24.5268V25.129C167.845 25.2675 167.879 25.4039 167.943 25.5267L170.167 29.7864C170.367 30.1697 170.821 30.3448 171.226 30.1949L171.873 29.9562C173.378 29.4014 174.772 28.5089 175.906 27.3754C176.195 27.0857 176.24 26.6321 176.013 26.2911L175.967 26.2225H176.378C176.506 26.2225 176.627 26.2784 176.711 26.376L177.769 27.6155C177.804 27.6555 177.83 27.7007 177.848 27.7503L179.016 30.9629C179.117 31.2389 179.351 31.4445 179.638 31.5081C179.699 31.5217 179.762 31.5284 179.824 31.5284C180.049 31.5284 180.269 31.4397 180.431 31.2767L180.987 30.7206C181.34 30.3684 181.582 29.9227 181.698 29.4286C182.558 36.3213 179.855 43.4513 174.143 47.935C173.769 48.228 173.704 48.7681 173.997 49.1415C174.29 49.5149 174.83 49.58 175.204 49.2869C179.328 46.0499 182.161 41.42 183.182 36.2501C184.212 31.0303 183.313 25.615 180.649 21.002ZM143.661 34.2937L147.204 36.988C147.309 37.0676 147.431 37.1221 147.56 37.1473L149.696 37.5646C149.968 37.6179 150.196 37.7791 150.336 38.0187C150.477 38.2582 150.506 38.5353 150.42 38.7993C150.242 39.3418 150.241 39.9156 150.417 40.4585L150.69 41.2962C150.852 41.7968 150.577 42.3366 150.076 42.4993L149.223 42.7768C148.925 42.8736 148.703 43.1248 148.644 43.4323L147.957 47.0201C146.446 45.6371 145.119 44.0026 144.042 42.1373C142.728 39.862 141.907 37.435 141.546 34.981L143.661 34.2937ZM141.417 30.6614C141.42 30.6987 141.424 30.7357 141.431 30.7724C141.424 30.7378 141.42 30.7006 141.417 30.6614ZM149.037 18.5651C149.32 19.2511 149.175 20.045 148.669 20.5876L147.658 21.6707C147.613 21.7191 147.574 21.7726 147.541 21.83L145.245 25.8377L143.205 27.2966C142.825 27.5683 142.732 28.0937 142.995 28.4797L143.758 29.599C143.318 29.6644 142.923 29.7184 142.661 29.747C142.61 29.6987 142.558 29.6496 142.503 29.5989C142.299 29.4091 142.015 29.1557 141.592 28.7854C142.29 24.4659 144.371 20.3966 147.645 17.2904C148.271 17.4876 148.786 17.9553 149.037 18.5651ZM157.598 25.0133C157.858 25.0041 158.104 24.9954 158.324 24.977C158.44 24.9673 158.569 24.9691 158.69 24.9785C158.636 25.1178 158.618 25.2706 158.642 25.4221C158.683 25.6888 158.847 25.9204 159.085 26.0477C159.247 26.134 159.471 26.2836 159.708 26.442C160.38 26.8897 161.141 27.3972 161.857 27.4427C162.507 27.4849 162.869 27.1143 163.024 26.9563C163.036 26.9438 163.048 26.9312 163.06 26.9198C163.148 26.8486 163.229 26.7532 163.29 26.6382C163.428 26.6774 163.572 26.7165 163.72 26.7567C164.229 26.8944 165.176 27.1509 165.385 27.3726C165.757 27.7666 166.047 28.5166 166.302 29.1782C166.431 29.5126 166.553 29.8282 166.69 30.1208C166.749 30.2463 166.807 30.3757 166.866 30.5066C167.262 31.3911 167.712 32.3937 168.665 33.0169C169.098 33.2995 169.628 33.3807 170.095 33.4525C170.152 33.4612 170.217 33.4711 170.282 33.482C170.005 33.8692 169.61 34.2372 169.192 34.626C168.128 35.6167 166.804 36.8498 167.414 38.8168C167.702 39.7456 167.715 39.846 167.252 40.3494C167.189 40.4181 167.131 40.4806 167.075 40.5392C166.679 40.9612 166.366 41.2945 166.107 42.1109C166.032 42.348 165.934 42.4578 165.757 42.6572C165.615 42.8167 165.439 43.0154 165.276 43.2938C165.081 43.6274 165.017 43.9486 164.965 44.2067C164.914 44.4606 164.885 44.5881 164.786 44.7106C164.559 44.9892 164.135 45.3938 163.701 45.6699C163.297 45.9263 163.061 45.9614 162.981 45.9566C162.889 45.8583 162.557 45.4279 162.055 43.9382C161.931 43.5708 161.759 43.1926 161.593 42.827C161.227 42.0209 160.849 41.1873 161.033 40.6176C161.055 40.5504 161.076 40.4848 161.097 40.4206C161.392 39.5242 161.669 38.6778 161.155 37.4455C160.998 37.0702 160.749 36.796 160.529 36.554C160.387 36.3975 160.226 36.2201 160.201 36.118C160.171 35.9935 160.172 35.8497 160.173 35.6833C160.176 35.2342 160.18 34.5558 159.506 33.9241C158.555 33.034 157.446 33.3082 156.712 33.4897C156.486 33.5454 156.274 33.5982 156.085 33.6203C154.878 33.7618 153.8 33.3063 153.127 32.3699C152.423 31.3905 152.321 30.0725 152.86 28.9304C153.121 28.3777 153.516 27.9337 153.973 27.4198C154.073 27.3074 154.173 27.1942 154.274 27.0782C154.442 26.885 154.626 26.6234 154.821 26.3464C155.054 26.0157 155.487 25.4005 155.676 25.2834C156.059 25.0679 156.948 25.0364 157.598 25.0133Z" fill="black"/>
<path d="M171.742 46.3228C172.619 46.1795 173.278 45.2677 173.816 43.4531L174.827 40.0463C174.872 39.8949 174.874 39.734 174.834 39.5814L174.42 38.023C174.33 37.6827 174.041 37.4319 173.692 37.3902C173.342 37.3493 173.002 37.5242 172.834 37.8337C172.74 38.0073 172.655 38.1912 172.573 38.369C172.435 38.6681 172.293 38.9775 172.144 39.1483C172.061 39.2442 171.847 39.3476 171.64 39.4474C171.145 39.6862 170.468 40.0131 170.209 40.8383C170.048 41.3502 170.108 41.7551 170.152 42.0507C170.19 42.3071 170.199 42.3959 170.13 42.5572L170.121 42.5772C169.848 43.219 169.339 44.414 170.052 45.4299C170.562 46.1548 171.097 46.3412 171.513 46.3412C171.594 46.3415 171.671 46.3344 171.742 46.3228ZM171.459 44.4422C171.294 44.2083 171.54 43.6321 171.702 43.2508L171.711 43.2307C171.973 42.6159 171.903 42.1438 171.852 41.799C171.819 41.5782 171.808 41.4834 171.849 41.353C171.882 41.2458 172.084 41.1418 172.387 40.9954C172.521 40.9304 172.669 40.859 172.819 40.7726L172.169 42.9642C171.894 43.8894 171.651 44.3213 171.511 44.5127C171.495 44.4923 171.477 44.4689 171.459 44.4422Z" fill="black"/>
<path d="M162.746 20.1894C162.298 20.0327 161.807 20.268 161.65 20.7159C161.493 21.1638 161.729 21.654 162.177 21.8111L162.235 21.8314C162.329 21.8644 162.425 21.8801 162.519 21.8801C162.874 21.8801 163.206 21.6586 163.33 21.305C163.487 20.8571 163.251 20.3668 162.804 20.2097L162.746 20.1894Z" fill="black"/>
</g>
<defs>
<clipPath id="clip0_2678_3365">
<rect width="44" height="44" fill="white" transform="translate(139.598 9.99512)"/>
</clipPath>
</defs>
</svg>
