<?xml version="1.0" encoding="UTF-8" standalone="no"?>
<!-- Created with Inkscape (http://www.inkscape.org/) -->

<svg
   width="280"
   height="160"
   viewBox="0 0 74.083332 42.333333"
   version="1.1"
   id="svg1"
   xmlns="http://www.w3.org/2000/svg"
   xmlns:svg="http://www.w3.org/2000/svg">
  <defs
     id="defs1" />
  <g
     id="layer1">
    <path
       d="m 25.105948,21.58921 c 0,0 0.358563,0.114565 0.324167,0.20619 -0.0344,0.09163 -0.09165,0.2735 -0.09165,0.2735 l 0.427169,1.729105 c 0,0 0.830104,-0.03828 0.930699,0.219763 0.100594,0.258048 1.357127,8.052223 1.005046,9.15117 -0.352081,1.099079 -1.731486,2.313781 -1.982973,2.313781 -0.530727,0 -2.754206,-1.630362 -2.754206,-1.630362 0,0 -0.137293,-9.148921 -0.126551,-9.224354 0.01072,-0.07546 2.2683,-3.038793 2.2683,-3.038793 z"
       fill="#875e51"
       id="path1"
       style="stroke-width:0.264583" />
    <path
       d="m 17.771089,16.05754 c 0,0 0.05686,2.232819 0.526177,2.716371 0.469318,0.483579 2.047875,0.696886 2.047875,0.696886 0,0 -3.540548,4.010528 -4.650158,3.910939 -1.109609,-0.09959 -4.438888,-3.725201 -4.438888,-3.725201 0,0 1.949794,-0.640927 2.091981,-0.925327 0.142214,-0.284401 0.227568,-2.801726 0.227568,-2.801726 z"
       fill="#fc9c76"
       id="path2"
       style="stroke-width:0.264583" />
    <path
       d="m 13.373794,18.657415 c 0.104484,-0.411374 0.174096,-1.983925 0.195633,-2.534893 0.798301,0.08046 3.642651,0.423571 4.232063,0.49485 0.03551,0.496517 0.111416,1.216395 0.26797,1.707171 -0.374385,0.577215 -1.293892,1.790383 -2.367254,1.70606 -0.84656,-0.06646 -1.746567,-0.800312 -2.328412,-1.373188 z"
       fill="#db6952"
       id="path3"
       style="stroke-width:0.264583" />
    <path
       d="m 18.589737,9.8706824 c 0.448151,1.3942746 1.088152,4.3515226 -0.100145,6.6410946 -0.958506,1.846791 -4.440926,1.787525 -5.47452,0.09618 -1.076881,-1.762284 -1.443752,-6.056577 -0.934667,-7.0606972 0.831585,-1.6404141 5.723784,-2.1202861 6.509332,0.3234266 z"
       fill="#fc9c76"
       id="path4"
       style="stroke-width:0.264583" />
    <path
       d="m 19.522102,11.812618 c 0.374835,0.05466 0.631507,0.613754 0.573246,1.248939 -0.05823,0.635212 -0.409231,1.105826 -0.78404,1.051296 -0.374835,-0.05466 -0.631507,-0.613754 -0.573272,-1.248966 0.05815,-0.635185 0.409231,-1.105799 0.784066,-1.051269 z"
       fill="#fc9c76"
       id="path5"
       style="stroke-width:0.264583" />
    <path
       d="m 11.551688,12.188485 c 0.385736,0.05583 0.772027,0.659871 0.862912,1.348978 0.09088,0.689108 -0.148193,1.202532 -0.533929,1.146599 -0.385763,-0.05593 -0.772054,-0.659898 -0.862939,-1.349084 -0.09078,-0.689108 0.148299,-1.202452 0.533956,-1.146493 z"
       fill="#fc9c76"
       id="path6"
       style="stroke-width:0.264583" />
    <path
       d="m 17.23806,12.150174 c 0.01757,0.236616 0.10115,0.428201 0.18669,0.428016 0.08551,-2.91e-4 0.14052,-0.192246 0.122952,-0.428837 -0.01757,-0.236617 -0.101124,-0.428201 -0.186664,-0.428016 -0.08551,2.91e-4 -0.140547,0.192326 -0.122978,0.428837 z"
       fill="#56312b"
       id="path7"
       style="stroke-width:0.264583" />
    <path
       d="m 13.83573,12.4101 c 0.01754,0.236617 0.101124,0.428175 0.186663,0.42799 0.08551,-2.64e-4 0.140547,-0.19222 0.122979,-0.42881 -0.01757,-0.236617 -0.101151,-0.428175 -0.18669,-0.42799 -0.08551,1.85e-4 -0.140626,0.19222 -0.122952,0.42881 z"
       fill="#56312b"
       id="path8"
       style="stroke-width:0.264583" />
    <path
       d="m 19.462227,13.718385 0.08025,-1.496906 -0.184653,-0.01072 -0.08025,1.496906 z"
       fill="#db6952"
       id="path9"
       style="stroke-width:0.264583" />
    <path
       d="m 19.508105,13.085238 0.345176,-0.282946 -0.114274,-0.151553 -0.345175,0.282945 z"
       fill="#db6952"
       id="path10"
       style="stroke-width:0.264583" />
    <path
       d="m 11.84728,14.299675 0.200528,-0.02776 -0.358378,-1.591575 -0.200528,0.02781 z"
       fill="#db6952"
       id="path11"
       style="stroke-width:0.264583" />
    <path
       d="m 11.731366,13.57387 0.08737,-0.167719 -0.520991,-0.259451 -0.08739,0.167825 z"
       fill="#db6952"
       id="path12"
       style="stroke-width:0.264583" />
    <path
       d="m 15.895141,13.827605 c 0.238654,0 0.506492,-0.03514 0.690509,-0.163089 0.125095,-0.08699 0.200078,-0.20656 0.222832,-0.355335 0.103347,-0.675032 -1.166944,-1.301538 -1.221131,-1.327891 l -0.08091,0.166238 c 0.334619,0.163089 1.188032,0.684556 1.119241,1.133633 -0.01508,0.098 -0.0626,0.173752 -0.145548,0.231432 -0.334036,0.232621 -1.07696,0.08358 -1.084447,0.08213 l -0.03725,0.181107 c 0.01812,0.0037 0.257387,0.05178 0.536708,0.05178 z"
       fill="#db6952"
       id="path13"
       style="stroke-width:0.264583" />
    <path
       d="m 15.860613,16.27934 c 0.304006,0 0.481356,-0.153458 0.492177,-0.163168 l -0.122528,-0.13851 c -0.01265,0.0109 -0.314537,0.263499 -0.824918,-0.01183 l -0.08774,0.162719 c 0.208942,0.112713 0.391663,0.150786 0.543005,0.150786 z"
       fill="#db6952"
       id="path14"
       style="stroke-width:0.264583" />
    <path
       d="M 12.324007,7.8402779 C 11.840348,8.4574449 12.14065,9.003246 12.14065,9.003246 c 0,0 -0.392218,0.1100137 -0.522102,0.5058304 -0.12991,0.3958166 0.236961,2.8776346 0.236961,2.8776346 l 0.324617,0.49104 0.201745,-0.01831 c 0,0 -0.109273,-1.75977 -0.05794,-1.874229 0.0513,-0.114379 0.29427,-0.264901 0.373512,-0.607827 0.07924,-0.342953 0.07424,-1.0347324 0.248444,-1.1772106 0.174202,-0.1424781 4.448969,-0.5620649 4.797372,-0.2295789 0.348377,0.3325812 0.459793,1.3842995 0.507312,1.4307075 0.04755,0.04633 0.484029,0.492469 0.47924,0.583909 -0.0048,0.09144 0.182033,1.611472 0.182033,1.611472 l 0.144516,-0.01204 0.03995,-0.548826 0.106971,-0.144224 c 0,0 -0.351631,-2.8353014 -0.628624,-3.0881663 -0.277018,-0.2528782 -0.542739,-0.43502 -0.542739,-0.43502 0,0 -0.0539,-1.2818612 -2.07989,-1.758585 -2.025967,-0.47672 -2.791089,0.378998 -2.898325,0.4862488 -0.107262,0.1072541 -0.02387,0.3098297 -0.02387,0.3098297 0,0 -0.410686,0.057785 -0.705828,0.4343744 z"
       fill="#775042"
       id="path15"
       style="stroke-width:0.264583" />
    <path
       d="m 17.015148,8.0502591 c -0.03244,-0.5442188 -0.463206,-1.0786374 -0.710274,-1.3429804 0.130202,0.04133 0.24945,0.08655 0.360786,0.134255 0.242253,0.3079832 0.506942,0.7427254 0.534035,1.1977214 0.02257,0.3788066 -0.155337,0.6361298 -0.365945,0.8068098 -0.106415,-8.334e-4 -0.218863,-1.005e-4 -0.336285,0.00221 0.247808,-0.1248199 0.543401,-0.365215 0.517683,-0.7980178 z"
       fill="#6b463b"
       id="path16"
       style="stroke-width:0.264583" />
    <path
       d="m 17.886897,8.8995108 c 0.118084,-0.1131703 0.186849,-0.2762779 0.205899,-0.4860687 0.04096,0.029771 0.09959,0.073319 0.168831,0.1276853 -0.03622,0.2041498 -0.118719,0.3697525 -0.248259,0.4932865 -0.04548,0.043365 -0.09401,0.078105 -0.143483,0.1072356 -0.03339,-0.057679 -0.0698,-0.1086379 -0.109273,-0.1505215 0.044,-0.024024 0.08692,-0.053803 0.126285,-0.091617 z"
       fill="#6b463b"
       id="path17"
       style="stroke-width:0.264583" />
    <path
       d="m 12.139592,9.003246 c 0,0 -0.0039,-0.00741 -0.0094,-0.019235 l 0.726916,0.3703109 c -0.01783,0.053631 -0.03273,0.1158346 -0.04522,0.184441 l -0.867437,-0.44196 c 0.10668,-0.068236 0.195157,-0.093557 0.195157,-0.093557 z"
       fill="#6b463b"
       id="path18"
       style="stroke-width:0.264583" />
    <path
       d="m 14.790532,7.7342567 c -0.207566,-0.5032587 -0.79293,-0.835189 -1.208987,-1.015116 0.06951,-0.03347 0.146526,-0.06574 0.231589,-0.09561 0.425133,0.205814 0.944404,0.5456021 1.148371,1.0401692 0.230876,0.5597498 0.03956,1.0213155 -0.125015,1.2782629 -0.08239,0.00701 -0.16383,0.014237 -0.244078,0.021646 0.173064,-0.2155349 0.426217,-0.6762618 0.19812,-1.2293547 z"
       fill="#6b463b"
       id="path19"
       style="stroke-width:0.264583" />
    <path
       d="M 12.838833,8.5685197 C 12.707176,8.4033853 12.48527,8.2252149 12.127368,8.1722347 c 0.02265,-0.056399 0.0526,-0.1146413 0.08755,-0.1737228 0.37928,0.071194 0.621427,0.270256 0.768535,0.4547156 0.199337,0.2498249 0.270351,0.4795811 0.283184,0.6686576 -0.07228,0.012012 -0.13425,0.023574 -0.184256,0.034502 C 13.075481,8.995785 13.017661,8.7927332 12.838832,8.56852 Z"
       fill="#6b463b"
       id="path20"
       style="stroke-width:0.264583" />
    <path
       d="m 15.956974,7.7431176 c -0.02783,-0.4417722 -0.789967,-1.0022579 -1.228223,-1.2749209 0.108929,-0.0024 0.223468,-5.53e-4 0.344964,0.0071 0.467942,0.319356 1.039707,0.8092029 1.067832,1.2561503 0.0291,0.4619307 -0.176345,0.8904843 -0.330464,1.1425316 -0.07591,0.00397 -0.152559,0.00841 -0.229394,0.013126 0.134884,-0.1970325 0.405897,-0.6579473 0.375285,-1.144008 z"
       fill="#6b463b"
       id="path21"
       style="stroke-width:0.264583" />
    <path
       d="M 13.667084,8.0290157 C 13.39496,7.7415565 13.058596,7.5698631 12.807929,7.472687 c 0.127794,-0.053163 0.21979,-0.06658 0.21979,-0.06658 0,0 -0.0078,-0.020243 -0.01564,-0.049739 0.246962,0.1102122 0.539962,0.2820961 0.789252,0.5455153 0.383249,0.4049712 0.306387,0.8626527 0.214207,1.1204389 -0.07138,0.00804 -0.140732,0.015981 -0.207116,0.024024 0.08414,-0.1803003 0.22987,-0.6251178 -0.141341,-1.0173309 z"
       fill="#6b463b"
       id="path22"
       style="stroke-width:0.264583" />
    <g
       opacity="0.22"
       id="g23"
       transform="matrix(0.26458333,0,0,0.26458333,3.4188456,6.2986487)">
      <path
         d="m 33.6509,5.82664 c 0.405,-0.51649 0.867,-0.87295 1.292,-1.11896 0.4053,0.27292 0.8603,0.5095 1.3013,0.58603 1.2483,0.21736 13.3967,-1.46558 14.5233,-1.98312 0.317,-0.14572 0.5298,-0.34982 0.6759,-0.56718 1.1815,0.69471 1.9943,1.47048 2.5531,2.20294 -0.143,0.75202 -0.3781,1.49043 -0.7629,1.68298 C 52.3809,7.05567 39.8705,8.81516 36.7327,8.11485 35.2081,7.77448 34.0465,7.05531 33.2627,6.39834 33.3756,6.20929 33.5,6.01954 33.6509,5.82664 Z"
         fill="#ffc988"
         id="path23" />
    </g>
    <path
       d="m 13.36538,18.980736 c 0.05585,0.0685 1.346015,2.976642 2.018665,2.99339 0.646192,0.01598 2.228929,-2.317512 2.365322,-2.576115 0.153273,-0.290592 0.236882,-1.265688 0.236882,-1.265688 0,0 0.766206,0.728134 0.915246,0.917655 0.14904,0.189547 4.966653,1.418801 5.488014,2.539312 0.521388,1.120537 -1.289791,3.801507 -1.196419,4.071858 0.07453,0.215688 0.315833,8.589142 0.191955,12.848934 -0.02294,0.787929 -0.752052,1.297252 -1.348052,1.643327 -0.47498,0.27596 -12.7819944,0.03175 -12.9308494,0 -0.320754,-0.06826 -1.452457,-0.184679 -1.449784,-1.261004 0.01064,-4.247886 0.539961,-12.859306 0.539961,-12.859306 0,0 -1.598718,-3.680539 -1.680263,-4.441957 -0.05964,-0.556975 5.2092764,-2.517669 5.5352954,-2.633239 0.275696,-0.09782 1.418881,-0.908712 1.409727,-0.879105 -0.01842,0.06001 -0.0957,0.901938 -0.0957,0.901938 z"
       fill="#e8c7ac"
       id="path24"
       style="stroke-width:0.264583" />
    <path
       d="m 23.100115,43.65808 c -0.04733,-1.071034 -0.269319,-3.206486 -0.444897,-4.428596 H 8.1508656 c -0.194072,1.262856 -0.451115,3.383227 -0.497337,4.428596 -0.08184,1.218141 -0.118798,2.613818 -0.043,4.04786 0.152744,10.553965 1.253834,27.451579 1.822926,27.579902 0.7592754,0.170921 5.3007154,0.0093 5.3007154,0.0093 0,0 0.377429,-25.303956 0.642594,-25.303956 0.517499,0 0.272759,25.303956 0.272759,25.303956 0,0 4.541414,0.161661 5.300715,-0.0093 0.569066,-0.128323 2.040017,-17.025937 2.192761,-27.579902 0.07601,-1.434042 0.03903,-2.829719 -0.04289,-4.04786 z"
       fill="#82a6c4"
       id="path26"
       style="stroke-width:0.264583" />
    <path
       d="m 21.908617,42.919628 c -0.210159,-0.163513 -0.265165,-1.051984 -0.244528,-2.008452 l -0.184917,-0.0053 c -0.01,0.582612 -0.03662,1.885421 0.315912,2.159794 0.149702,0.116681 0.458047,0.151077 0.771102,0.151077 0.176504,0 0.35433,-0.01111 0.506227,-0.02461 -0.004,-0.0598 -0.0085,-0.121709 -0.01312,-0.184944 -0.4563,0.03942 -0.986922,0.03995 -1.150673,-0.08758 z"
       fill="#6d93ad"
       id="path41"
       style="stroke-width:0.264583" />
    <path
       d="m 18.657999,39.86369 h -6.619002 l -0.09819,1.155965 h 6.717189 z"
       fill="#423733"
       id="path42"
       style="stroke-width:0.264583" />
    <path
       d="m 22.739885,39.86369 h -3.621987 l 0.01061,1.155965 h 3.746367 c -0.04355,-0.402167 -0.08959,-0.797454 -0.13499,-1.155965 z"
       fill="#423733"
       id="path43"
       style="stroke-width:0.264583" />
    <path
       d="m 7.9118406,40.987376 3.5658164,0.03228 0.01064,-1.155965 H 8.0591376 c -0.04908,0.351367 -0.09948,0.734484 -0.147294,1.123686 z"
       fill="#423733"
       id="path44"
       style="stroke-width:0.264583" />
    <path
       d="m 14.151457,40.60029 0.245004,-0.02037 v -0.31406 l -0.240294,0.01138 c 0,0 0.01878,-0.345017 0.02339,-0.379413 0.0046,-0.03439 1.723363,-0.03439 1.723363,-0.03439 0,0 -0.0562,-0.199761 -0.154596,-0.246592 -0.09837,-0.04683 -1.751462,-0.05133 -1.868514,0.04683 -0.07072,0.05953 -0.0749,1.526911 0,1.587765 0.0749,0.06059 1.943497,0.07488 1.966886,0.02805 0.02342,-0.04683 0.03747,-0.259821 0.03747,-0.259821 0,0 -1.681215,-0.0071 -1.709314,-0.04472 -0.02802,-0.03731 -0.02339,-0.37465 -0.02339,-0.37465 z"
       fill="#e0d5cd"
       id="path45"
       style="stroke-width:0.264583" />
    <path
       d="m 18.73277,41.028386 h 4.383696 c -0.0052,-0.113242 -0.0083,-0.178329 -0.0093,-0.189442 -0.01267,-0.147108 -0.282814,-0.586845 -0.533295,-0.966787 h -3.851777 z"
       fill="#423733"
       id="path48"
       style="stroke-width:0.264583" />
    <path
       d="m 14.064515,22.978511 c 0.210344,-0.01969 0.43815,-0.275352 0.70194,-0.571315 0.152849,-0.171503 0.330014,-0.369279 0.476461,-0.474213 -0.05104,-0.0258 -0.104484,-0.06371 -0.159596,-0.111151 -0.146183,0.116046 -0.298371,0.286623 -0.455004,0.462306 -0.207751,0.233098 -0.443151,0.497338 -0.581078,0.510276 -0.188992,0.01627 -0.83529,-0.996342 -1.317466,-1.955059 l -0.165233,0.08303 c 0.247518,0.492178 1.086221,2.095235 1.499976,2.05613 z"
       fill="#d6b196"
       id="path49"
       style="stroke-width:0.264583" />
    <path
       d="m 18.437019,20.979928 c -0.752157,0.981816 -1.658911,1.993238 -1.87952,1.993238 -7.41e-4,0 -0.0015,0 -0.0021,0 -0.156015,-0.0047 -0.335218,-0.323612 -0.493227,-0.604864 -0.112342,-0.199892 -0.220874,-0.391953 -0.340439,-0.523875 -0.0589,0.03892 -0.114909,0.06969 -0.16772,0.09152 0.116417,0.113083 0.237252,0.327687 0.346922,0.52287 0.199787,0.355494 0.388408,0.691303 0.648891,0.699162 0.0016,0 0.0032,1.05e-4 0.0048,1.05e-4 0.414416,0 1.656979,-1.579853 2.029221,-2.065734 z"
       fill="#d6b196"
       id="path50"
       style="stroke-width:0.264583" />
    <path
       d="m 18.262606,18.490331 c 0,0 -0.800973,11.665532 -0.831771,15.732707 -0.03789,5.006446 -0.177879,9.401175 0.295963,9.901238 0.272203,0.287337 6.719888,-0.09631 6.757696,-0.11483 0.08869,-0.04313 -1.079473,-17.526158 -1.079473,-17.526158 0,0 1.906535,-4.596554 1.698202,-4.894078 -0.208307,-0.29755 -5.481744,-2.603949 -5.481744,-2.603949 l -1.739714,-1.558132 0.09237,0.687891 z"
       fill="#875e51"
       id="path51"
       style="stroke-width:0.264583" />
    <path
       d="m 13.512383,17.288355 c 0.0091,0.02709 -0.04882,0.790337 -0.04882,0.790337 l -0.339778,0.398489 c 0,0 -0.266859,7.243763 -0.492839,12.51638 -0.225955,5.27259 0.248443,12.556833 0.06011,13.162465 -0.188251,0.605895 -5.8585364,-0.397669 -5.9986074,-0.578115 -0.559461,-0.72046 0.933741,-16.873749 0.933741,-16.958813 0,-0.08506 -1.699117,-5.135668 -1.67785,-5.560906 0.02126,-0.425212 6.1979394,-2.521824 6.1979394,-2.521824 z"
       fill="#875e51"
       id="path52"
       style="stroke-width:0.264583" />
    <path
       d="m 5.9480086,21.058112 c -0.687806,0.916543 -2.542727,10.53256 -2.497607,12.577287 0.04521,2.0447 0.420413,9.05801 0.872171,9.69592 0.451757,0.638175 4.380558,-0.693473 4.380558,-0.693473 l 0.613013,-16.754078 z"
       fill="#875e51"
       id="path53"
       style="stroke-width:0.264583" />
    <path
       d="m 6.1717826,43.422865 -0.02828,-0.182827 c 0.820578,-0.126735 1.720744,-0.290248 1.911694,-0.360627 -0.0039,-0.322792 -0.207857,-2.341562 -0.388885,-4.132527 -0.369835,-3.659981 -0.376872,-3.839369 -0.343958,-3.896519 0.03866,-0.06747 0.151156,-0.132821 0.398674,-0.265906 0.106071,-0.05715 0.232727,-0.125148 0.301969,-0.173831 -0.05768,-0.03572 -0.168169,-0.08414 -0.247306,-0.118534 -0.165312,-0.07223 -0.33618,-0.147108 -0.418386,-0.23495 -0.05427,-0.05821 -0.05022,-0.114829 -0.04289,-0.143404 0.02799,-0.110331 0.171397,-0.158221 0.369835,-0.224366 0.123428,-0.04127 0.308345,-0.102923 0.351525,-0.162984 -0.042177,-0.05662 -0.294669,-0.141552 -0.546341,-0.182298 l -0.07998,-0.01296 0.24003,-8.179726 0.184811,0.0054 -0.235294,8.018701 c 0.203226,0.03889 0.536522,0.124619 0.608462,0.2794 0.0245,0.05292 0.0209,0.110596 -0.01016,0.162189 -0.07194,0.119857 -0.266462,0.18468 -0.454448,0.24765 -0.07313,0.02434 -0.176054,0.05874 -0.226986,0.08652 0.07231,0.05689 0.2159,0.119592 0.333957,0.171186 0.237993,0.103981 0.363194,0.162718 0.383805,0.264054 0.0087,0.04233 -0.0039,0.0844 -0.03532,0.117739 -0.05982,0.06324 -0.187034,0.134144 -0.38952,0.242888 -0.108479,0.05821 -0.267494,0.143933 -0.3166,0.186531 -8e-5,0.248444 0.189918,2.128838 0.358298,3.79439 0.404416,4.001293 0.410793,4.19682 0.370576,4.257939 -0.02643,0.03995 -0.08803,0.133615 -2.049277,0.436827 z"
       fill="#7a5348"
       id="path54"
       style="stroke-width:0.264583" />
    <path
       d="m 4.0208756,41.967657 c 0.0084,0.06297 0.01683,0.123825 0.02534,0.183356 0.125654,-0.0254 0.311502,-0.06429 0.58583,-0.121973 1.076693,-0.226483 2.878635,-0.605366 3.387614,-0.620712 l -0.0056,-0.184679 c -0.525356,0.01588 -2.337379,0.396875 -3.420083,0.624416 -0.221348,0.04657 -0.425775,0.08943 -0.573064,0.119592 z"
       fill="#7a5348"
       id="path55"
       style="stroke-width:0.264583" />
    <path
       d="m 7.7713206,27.107202 -0.171582,-0.06898 c 0.227621,-0.566129 0.666168,-1.661504 0.697045,-1.754347 l 0.175392,0.05845 c -0.0403,0.121312 -0.673841,1.697832 -0.700855,1.764878 z"
       fill="#7a5348"
       id="path56"
       style="stroke-width:0.264583" />
    <path
       d="m 12.340384,21.676205 0.03043,-0.04418 -0.01905,-0.04744 c -0.02617,-0.06517 -0.04326,-0.07284 -0.678659,-0.187695 -0.272653,-0.04927 -0.709268,-0.128138 -0.850265,-0.175842 0.07739,-0.288105 0.66331,-1.632109 1.102598,-2.609665 -0.06686,0.02291 -0.147584,0.05075 -0.240215,0.08292 -1.123103,2.499095 -1.070584,2.58101 -1.03796,2.629932 0.04792,0.07194 0.205634,0.112421 0.992928,0.254635 0.0835,0.01516 0.174281,0.03154 0.258789,0.04733 -0.0029,7.41e-4 -0.006,0.0014 -0.009,0.0021 -0.619945,0.1447 -0.834442,0.210449 -0.883523,0.314192 -0.01534,0.03254 -0.01527,0.06935 -0.0017,0.09633 0.06739,0.181134 1.23452,5.272247 1.694868,7.290621 0.0096,-0.233072 0.01931,-0.467837 0.02895,-0.703792 -0.432297,-1.891906 -1.389797,-6.069333 -1.538652,-6.608369 0.117792,-0.06316 0.5334,-0.160152 0.741971,-0.208862 0.348218,-0.08128 0.378725,-0.09117 0.40849,-0.132239 z"
       fill="#7a5348"
       id="path57"
       style="stroke-width:0.264583" />
    <path
       d="m 18.836011,25.99693 c 0.310753,-0.809492 0.632248,-1.674442 0.882068,-2.373074 0.39878,-1.115615 0.385365,-1.13919 0.358457,-1.186153 -0.0317,-0.05548 -0.147637,-0.1288 -0.591529,-0.391107 -0.114115,-0.06739 -0.250296,-0.147929 -0.360045,-0.215715 0.06046,0.0034 0.124831,0.0077 0.184177,0.01148 0.60534,0.03918 0.836295,0.04112 0.925803,-0.02712 0.0563,-0.04278 0.169651,-0.132477 -0.570309,-2.81141 -0.02717,-0.01193 -0.04233,-0.01857 -0.04233,-0.01857 l -0.206008,-0.184467 c 0.351155,1.261692 0.689557,2.616623 0.685297,2.87274 -0.126206,0.02662 -0.546311,-5.82e-4 -0.780441,-0.01574 -0.441114,-0.02858 -0.49919,-0.03006 -0.54311,0.0285 l -0.02551,0.03736 0.008,0.04048 c 0.01331,0.06657 0.06112,0.105304 0.630291,0.44159 0.182245,0.107712 0.42365,0.250295 0.506491,0.311864 -0.06924,0.265933 -0.596741,1.756278 -1.258464,3.476863 -0.420502,1.093418 -0.743823,1.887379 -0.983033,2.438507 -0.009,0.169862 -0.01765,0.338693 -0.02625,0.506782 0.280246,-0.597561 0.682995,-1.579483 1.206394,-2.942802 z"
       fill="#7a5348"
       id="path58"
       style="stroke-width:0.264583" />
    <path
       d="m 7.0693816,33.513426 c -0.484955,-0.106892 -0.984806,-0.109802 -1.46993,-0.0013 -0.115946,0.02593 -0.08109,0.207433 0.03531,0.181504 0.451397,-0.100806 0.921165,-0.105304 1.373497,-0.0056 0.04908,0.01058 0.09938,-0.0058 0.117872,-0.05689 0.01535,-0.0426 -0.008,-0.107156 -0.05675,-0.117739 z"
       fill="#7a5348"
       id="path59"
       style="stroke-width:0.264583" />
    <path
       d="m 6.8783256,33.966657 c -0.01249,-0.05159 -0.05686,-0.07911 -0.108373,-0.07303 l -0.310753,0.03704 c -0.04818,0.0058 -0.08424,0.06218 -0.07313,0.108214 0.01246,0.05186 0.05686,0.07938 0.108373,0.07329 l 0.310753,-0.03704 c 0.04815,-0.0058 0.08422,-0.06218 0.07313,-0.108479 z"
       fill="#7a5348"
       id="path60"
       style="stroke-width:0.264583" />
    <path
       d="m 26.914692,25.220299 c -0.77843,0.122793 -2.741903,0.391663 -4.175204,0.582771 -0.0078,-0.689372 -0.0093,-1.189117 -0.0048,-1.358132 0.361897,-0.07472 2.155137,-0.430028 3.252628,-0.646933 -0.128243,-0.0041 -0.222726,7.9e-5 -0.222726,7.9e-5 L 25.73057,23.66021 c -1.293786,0.255931 -3.07557,0.60915 -3.112294,0.621347 l -0.0489,0.01783 -0.01238,0.049 c -0.0182,0.07239 0.04363,9.235149 0.380921,9.594983 0.166158,0.17727 0.642329,0.554302 1.012984,0.840052 -0.0053,-0.08202 -0.01061,-0.164307 -0.01588,-0.246063 -0.339514,-0.263789 -0.721281,-0.569912 -0.857938,-0.715169 -0.03773,-0.06297 -0.169307,-0.592402 -0.276834,-4.766759 -0.02876,-1.115536 -0.04797,-2.214325 -0.05853,-3.06623 2.578973,-0.343403 3.705145,-0.506783 4.202297,-0.589095 -0.01008,-0.06157 -0.01979,-0.121206 -0.02932,-0.179811 z"
       fill="#7a5348"
       id="path68"
       style="stroke-width:0.264583" />
    <path
       d="m 23.486883,19.406715 c 0.06813,-0.665903 0.640821,-3.048211 1.082225,-3.026383 0.441325,0.02191 -0.128693,2.378154 -0.254714,3.016779 -0.10549,0.534855 -0.827511,0.0096 -0.827511,0.0096 z"
       fill="#ffa681"
       id="path69"
       style="stroke-width:0.264583" />
    <path
       d="m 23.752445,24.311667 c -0.08377,-0.09292 0,-0.965544 0,-0.965544 0,0 -1.591045,-0.524722 -1.836525,-1.276059 -0.245481,-0.751311 0.301519,-1.92315 0.486701,-2.034275 0.185208,-0.111152 0.435107,-0.103108 0.435107,-0.103108 0,0 0.111707,-0.738744 0.51861,-0.877809 0.406823,-0.139144 2.905654,0.875956 2.93534,1.337337 0.02966,0.46146 -0.706676,2.251683 -0.680985,2.386674 0.02572,0.13499 0.189151,1.464839 0.06056,1.515401 -0.128614,0.05059 -1.706986,0.252518 -1.918812,0.01738 z"
       fill="#ffa681"
       id="path70"
       style="stroke-width:0.264583" />
    <path
       d="m 26.292419,20.392341 c -0.01942,-0.302075 -1.096645,-0.84119 -1.952652,-1.138634 0.165682,-0.788511 0.638255,-2.852843 0.22524,-2.873296 -0.38092,-0.01886 -0.859419,1.752494 -1.027245,2.66618 -0.07784,-0.0074 -0.139964,-0.0054 -0.180631,0.0084 -0.406823,0.139144 -0.518636,0.877808 -0.518636,0.877808 0,0 -0.249793,-0.0082 -0.435081,0.103082 -0.185208,0.111151 -0.732208,1.282991 -0.486727,2.034302 0.24548,0.751337 1.836526,1.276032 1.836526,1.276032 0,0 -0.08377,0.872728 0,0.96557 0.211904,0.235109 1.790118,0.03328 1.918705,-0.01728 0.128614,-0.05067 -0.03485,-1.380437 -0.06056,-1.515427 -0.02551,-0.13507 0.71075,-1.925399 0.681064,-2.386753 z"
       fill="#fc9c76"
       id="path71"
       style="stroke-width:0.264583" />
    <path
       d="m 25.044273,20.620994 c 0.02662,-0.05178 0.05538,-0.108003 0.07702,-0.146182 0.07395,0.05778 0.213465,0.189071 0.327924,0.305197 l 0.119646,-0.117978 c -0.36531,-0.370655 -0.431509,-0.376952 -0.459793,-0.379545 -0.07543,-0.0076 -0.105516,0.04948 -0.214418,0.261779 -0.121391,0.236326 -0.373804,0.727922 -0.572135,0.736044 -0.02802,0.0014 -0.0639,-0.0053 -0.09874,-0.0648 -0.131471,-0.224684 -0.05511,-0.877173 0.236987,-1.35038 0.143219,-0.232172 0.330518,-0.331285 0.503317,-0.368168 -0.07776,-0.03365 -0.156051,-0.0663 -0.234182,-0.09755 -0.14777,0.06824 -0.293291,0.184838 -0.412115,0.377508 -0.205158,0.332396 -0.323242,0.771207 -0.323507,1.115351 -0.0159,0.03543 -0.07342,0.127317 -0.24548,0.131392 -0.114565,0.0048 -0.172138,-0.05615 -0.20783,-0.152189 0.05445,-0.05882 0.102711,-0.153035 0.09197,-0.302074 -0.0045,-0.06323 -0.01884,-0.121418 -0.04059,-0.175128 -0.0046,-0.05768 -0.01876,-0.409046 0.271939,-0.832697 0.148563,-0.216429 0.330279,-0.291332 0.478208,-0.311123 0.01082,-0.0513 0.02291,-0.108268 0.03596,-0.169387 -0.195474,0.01222 -0.451828,0.09274 -0.652647,0.385578 -0.191029,0.278394 -0.26334,0.528584 -0.289507,0.704056 -0.156078,-0.148564 -0.380312,-0.241961 -0.584359,-0.298635 -0.0077,0.03762 -0.01138,0.06104 -0.01138,0.06104 0,0 -0.148458,-0.0046 -0.301387,0.04419 0.301043,0.04485 0.897202,0.198702 0.926333,0.604229 0.0065,0.09078 -0.01572,0.15449 -0.06776,0.194892 -0.168381,0.130466 -0.59981,0.02664 -0.751893,-0.02439 l -0.09737,-0.03265 -0.01275,0.101891 c -0.03781,0.299932 -0.04088,0.324432 0.03411,0.347821 0.0149,0.0046 0.02304,0.0043 0.0494,0.0028 0.607351,-0.03207 1.033515,0.05585 1.13956,0.235956 0.193331,0.328348 0.103347,0.84148 0.102526,0.846666 l 0.165312,0.03014 c 0.0044,-0.02347 0.102447,-0.579358 -0.123058,-0.962131 -0.03032,-0.05159 -0.0735,-0.09522 -0.126021,-0.132318 0.103558,-0.0065 0.180393,-0.03643 0.236882,-0.07451 0.01397,0.07099 0.03484,0.13425 0.06453,0.184918 0.05604,0.09586 0.140652,0.148113 0.23913,0.148113 0.0039,0 0.0077,-1.05e-4 0.01154,-2.91e-4 0.296069,-0.01238 0.547925,-0.502787 0.714639,-0.827405 z m -2.360321,0.37936 c 0.0019,-0.01831 0.0041,-0.03866 0.0066,-0.05972 0.07787,0.02117 0.191214,0.04723 0.312896,0.05964 -0.113189,-0.0047 -0.222568,-0.0034 -0.319458,7.9e-5 z m 0.439076,0.0069 c 0.09655,0.002 0.193172,-0.0099 0.276384,-0.04255 0.01561,0.03402 0.03291,0.06519 0.05315,0.09155 -0.104564,-0.02469 -0.217197,-0.04022 -0.329539,-0.049 z"
       fill="#db6952"
       id="path72"
       style="stroke-width:0.264583" />
    <path
       d="m 24.338392,19.249235 h 0.0044 c 0.0096,-0.04585 0.02024,-0.09559 0.0317,-0.149225 -0.318505,-0.115014 -0.629629,-0.182324 -0.80346,-0.214683 -0.01156,0.05749 -0.02236,0.112978 -0.03199,0.165391 0.171423,0.03217 0.485801,0.100516 0.799412,0.215451 z"
       fill="#db6952"
       id="path73"
       style="stroke-width:0.264583" />
    <path
       d="m 14.38937,14.616196 c 0.05575,-0.02387 3.000428,-0.218943 3.032231,-0.177059 0.0318,0.04178 0.09549,0.177059 0.09549,0.177059 0,0 -0.175101,1.026663 -1.647428,1.058492 -1.472327,0.0318 -1.543976,-0.847037 -1.543976,-0.847037 z"
       fill="#56312b"
       id="path74"
       style="stroke-width:0.264583" />
    <path
       d="m 14.354789,10.860489 c -0.02386,-0.09903 -0.114644,-0.164016 -0.216826,-0.146262 -0.216826,0.0377 -0.430027,0.109908 -0.62521,0.211614 -0.08573,0.04466 -0.132398,0.159332 -0.0834,0.247994 0.04771,0.08625 0.156078,0.131286 0.247968,0.0834 0.0835,-0.04355 0.170127,-0.08035 0.258815,-0.111866 0.08922,-0.02876 0.179996,-0.05196 0.272362,-0.06805 0.09543,-0.01664 0.169492,-0.120941 0.146288,-0.216826 z"
       fill="#775042"
       id="path75"
       style="stroke-width:0.264583" />
    <path
       d="m 17.698461,10.624692 c -0.198146,-0.01942 -0.397219,-0.02551 -0.596185,-0.01839 -0.05141,0.0018 -0.09626,0.01027 -0.136287,0.04548 -0.03336,0.02932 -0.06091,0.07951 -0.06231,0.124725 -0.0016,0.04855 0.0109,0.100224 0.04548,0.136286 0.03117,0.03246 0.07768,0.06398 0.124725,0.06234 0.198993,-0.0071 0.398065,-0.001 0.596212,0.01839 0.09623,0.0094 0.195448,-0.07183 0.198596,-0.170206 0.0032,-0.101891 -0.06723,-0.188542 -0.170233,-0.198623 z"
       fill="#775042"
       id="path76"
       style="stroke-width:0.264583" />
    <path
       d="m 17.256977,14.434321 c -0.505195,0.01093 -2.036153,0.10967 -2.629005,0.15793 0.01323,0.118243 0.04154,0.323427 0.08221,0.355415 0.0577,0.0453 2.459434,-0.0725 2.500577,-0.120015 0.0282,-0.03262 0.04096,-0.256196 0.04622,-0.39333 z"
       fill="#ffffff"
       id="path77"
       style="stroke-width:0.264583" />
    <path
       d="m 57.297746,8.2524145 c -1.160272,0.06089 -1.04761,1.1098642 -1.04761,1.1098642 0,0 -0.419559,-0.2771311 -0.564753,-0.1359664 -0.145194,0.1411666 -0.05368,0.3290515 -0.05368,0.3290515 0,0 -1.370555,-0.3615124 -1.851591,0.1861233 -0.481037,0.5476349 0.02325,1.2319099 -0.04369,1.2870059 -0.06694,0.05512 -0.578763,0.01184 -0.619848,0.178838 -0.04111,0.166997 0.237029,0.336087 0.237029,0.336087 0,0 -1.377424,0.286776 -1.460896,0.894216 -0.08344,0.607439 0.37595,0.848677 0.340378,0.927424 -0.03549,0.07878 -0.511476,0.246696 -0.514844,0.356752 -0.0034,0.110029 0.387925,0.394225 0.387925,0.394225 0,0 -1.479079,1.176023 -1.382369,1.68568 0.09671,0.509548 1.101811,0.985452 1.101811,0.985452 0,0 -0.458906,0.152824 -0.331905,0.302389 0.127081,0.149539 0.312029,0.107613 0.312029,0.107613 0,0 -0.635958,0.845473 -0.5748,1.306144 0.06113,0.460644 0.50887,0.586885 0.50887,0.586885 0,0 -0.290985,0.885986 -0.193746,1.040413 0.09721,0.154507 0.361993,0.192088 0.361993,0.192088 0,0 -0.174357,1.042424 0.352624,1.356787 0.52701,0.314365 1.345219,-0.05377 1.384403,0.0463 0.03916,0.100064 -0.338613,0.378965 -0.211368,0.489944 0.127245,0.111033 0.479517,0.01006 0.522799,0.0084 0.04336,-0.0015 -0.277134,1.12918 0.584197,1.33072 0.861359,0.201484 1.199455,-0.182667 1.257755,-0.03683 0.0583,0.145954 -0.06232,0.530023 0.04469,0.584467 0.107042,0.05433 0.393817,-0.263558 0.393817,-0.263558 0,0 0.08489,1.124808 0.989581,1.181669 0.904696,0.05685 4.372941,-2.063448 4.42,-2.027903 0.04714,0.03557 2.124435,0.973994 2.706215,0.808 0.58186,-0.165912 0.597528,-1.164128 0.597528,-1.164128 0,0 0.582457,0.128412 0.758335,-0.0085 0.175987,-0.136883 0.08834,-0.425695 0.08834,-0.425695 0,0 0.490758,0.08808 0.745736,-0.277707 0.255005,-0.365713 0.01577,-0.998298 0.01577,-0.998298 0,0 0.954036,-0.621884 1.024311,-1.676391 0.0703,-1.054398 -0.753475,-1.419106 -0.75801,-1.658579 -0.0045,-0.239473 0.544307,-0.577407 0.535155,-0.799014 -0.009,-0.221604 -0.643011,-0.266138 -0.643011,-0.266138 0,0 0.951428,-0.705493 0.749265,-1.536141 -0.202135,-0.830619 -1.269812,-1.079733 -1.269812,-1.079733 0,0 0.823016,-0.668591 0.552507,-1.108027 -0.270511,-0.439356 -0.824782,-0.333318 -0.824782,-0.333318 0,0 0.421515,-0.620609 0.07046,-0.898913 -0.351022,-0.278331 -0.709593,-0.152254 -0.709593,-0.152254 0,0 0.125155,-0.837259 -0.152661,-1.029337 -0.277706,-0.19208 -0.734494,0.08035 -0.796569,-0.05469 -0.06207,-0.135043 0.0119,-0.5201219 -0.149972,-0.5247362 -0.161894,-0.00472 -0.334594,0.2029842 -0.334594,0.2029842 0,0 0.360581,-0.9035264 -0.454534,-1.4601355 C 62.581517,7.9953323 61.797087,8.858095 61.673128,8.749809 61.549169,8.641524 61.430043,8.1049597 61.257941,8.1571316 61.070956,8.2138356 61.11424,8.6511692 61.11424,8.6511692 c 0,0 -0.461323,-0.3537946 -1.043264,-0.4612411 C 59.489034,8.0824816 59.217709,8.7624735 59.126769,8.7048498 59.035939,8.6473048 59.037789,8.3058457 58.768958,8.2909151 58.500132,8.2759821 58.12076,8.608979 58.12076,8.608979 c 0,0 -0.191329,-0.3897787 -0.823016,-0.3566467 z"
       fill="#493b44"
       id="path7-2"
       style="stroke-width:0.271542" />
    <path
       d="m 55.486207,14.130617 c 0,0 0.134196,2.934691 0.06542,3.087678 -0.505693,1.124646 -0.34475,2.587198 0.384149,3.507672 1.04017,1.313612 2.402905,1.200623 2.402905,1.200623 0,0 0.04605,0.786278 0.0183,0.945293 -0.02767,0.159041 -0.893617,0.476501 -0.893617,0.476501 0,0 -0.642333,1.498641 0.20181,2.41181 1.054072,1.140232 2.310633,1.074573 3.151082,0.746171 1.5706,-0.613712 2.603139,-3.541371 2.603139,-3.541371 0,0 -1.736511,-0.329055 -1.966671,-0.629162 -0.231408,-0.301793 -0.307413,-1.390107 -0.307413,-1.390107 0,0 1.085952,-4.698465 0.460482,-6.791294 -0.62547,-2.092802 -5.351688,-2.897027 -6.119581,-0.02381 z"
       fill="#c56647"
       id="path8-9"
       style="stroke-width:0.271542" />
    <path
       d="m 61.670278,17.86576 c 0,0 0.08353,-5.119763 -2.779205,-5.173121 -3.112089,-0.05795 -3.324896,4.429884 -3.324896,4.429884 0,0 -2.435869,-5.767554 2.3282,-5.681178 4.764152,0.0864 5.251625,1.60552 5.328199,2.052397 0.07649,0.446985 -0.585282,3.392592 -0.681651,3.493824 -0.09646,0.101419 -0.870647,0.878194 -0.870647,0.878194 z"
       fill="#493b44"
       id="path9-8"
       style="stroke-width:0.271542" />
    <path
       d="m 61.344021,22.111618 c -0.147203,-0.429198 -0.198796,-1.165974 -0.198796,-1.165974 0,0 0.166591,-0.720591 0.33158,-1.722933 l -0.07096,-0.013 c 0,0 -0.109458,1.157014 -0.947655,1.916435 -0.72127,0.653493 -1.939163,0.799855 -2.119331,0.80648 0.0035,0.06207 0.04445,0.78701 0.01795,0.939183 -0.01662,0.09561 -0.555358,0.332149 -0.807649,0.43892 0.04847,0.05594 0.101071,0.06299 0.0541,0.08412 0,0 2.466254,-0.03003 3.477803,-0.961802 0.102507,-0.09447 0.18864,-0.203575 0.262961,-0.321424 z"
       fill="#954b36"
       id="path10-1"
       style="stroke-width:0.271542" />
    <path
       d="m 58.339408,21.92659 c 0,0 1.09e-4,0.0021 1.9e-4,0.0027 0.0021,-0.0016 0.0027,-0.0028 -1.9e-4,-0.0027 z"
       fill="#954b36"
       id="path11-1"
       style="stroke-width:0.271542" />
    <path
       d="m 62.460249,18.187701 c 0,0 0.15057,1.070771 -0.251611,1.115223 -0.402127,0.04445 -0.897664,-0.121543 -0.897664,-0.121543 l 0.265297,-1.353176 z"
       fill="#c56647"
       id="path12-6"
       style="stroke-width:0.271542" />
    <path
       d="m 61.868287,18.893845 -0.143102,-0.01645 c 0,0 0.03338,-0.709839 0.06072,-0.964327 l 0.14503,0.05895 -0.0208,0.172701 0.250035,-0.07942 0.110057,0.04481 0.02625,0.07505 -0.377878,0.103432 z"
       fill="#954b36"
       id="path13-1"
       style="stroke-width:0.271542" />
    <path
       d="m 62.967055,14.95738 c 0.104761,0.0031 0.151819,-0.07951 0.116573,-0.166645 -0.0151,-0.03742 -0.04613,-0.06425 -0.05954,-0.102751 -0.01493,-0.04243 -0.01268,-0.09259 0.01844,-0.131018 0.09009,-0.111225 0.311458,-0.04966 0.42184,-0.03365 0.192659,0.02803 0.406363,0.05311 0.602553,-0.0024 0.236621,-0.06701 0.229507,-0.269343 0.198062,-0.463768 -0.01552,-0.0962 0.133599,-0.133626 0.149212,-0.03742 0.02715,0.168193 0.04671,0.368727 -0.08195,0.513078 -0.155268,0.174141 -0.433218,0.178322 -0.63731,0.170203 -0.125642,-0.005 -0.246831,-0.03095 -0.371224,-0.04336 -0.01645,-0.0016 -0.131182,-0.01988 -0.139411,-0.0035 -0.0023,0.0047 0.05469,0.09292 0.05903,0.108942 0.0511,0.186142 -0.107097,0.350967 -0.290035,0.345753 -0.09705,-0.0028 -0.08353,-0.156081 0.01376,-0.153339 z"
       fill="#3a3037"
       id="path14-1"
       style="stroke-width:0.271542" />
    <path
       d="m 54.090127,15.606014 c 0.06827,-0.07506 0.164718,0.0365 0.09697,0.110898 -0.151575,0.166591 -0.402126,0.593428 -0.06617,0.67212 0.244416,0.05718 0.518673,-0.01963 0.769388,-0.02686 0.135717,-0.0039 0.348686,0.01561 0.322836,0.204418 -0.01232,0.09015 -0.119587,0.167758 -0.105494,0.257502 0.02297,0.145955 0.21908,0.151983 0.334839,0.157686 0.0967,0.0048 0.08337,0.158118 -0.01376,0.153339 -0.20458,-0.01006 -0.496488,-0.07384 -0.473163,-0.342985 0.0046,-0.05284 0.0271,-0.09846 0.05487,-0.144025 0.04426,-0.07264 0.04915,-0.12616 -0.04429,-0.132947 -0.162301,-0.01181 -0.331906,0.0214 -0.494967,0.03449 -0.227824,0.01828 -0.566247,0.03623 -0.651239,-0.224214 -0.08076,-0.248026 0.103511,-0.536214 0.270185,-0.719423 z"
       fill="#3a3037"
       id="path15-8"
       style="stroke-width:0.271542" />
    <path
       d="m 53.133702,11.573288 c 0.143673,-0.04087 0.240368,-0.06107 0.240368,-0.06107 0,0 -0.0041,-0.0025 -0.01124,-0.0072 0.113749,0.02703 0.236974,0.0096 0.353792,-0.02028 0.04372,-0.01116 0.07617,0.01703 0.08801,0.0557 0.06842,0.223018 -0.128169,0.425832 -0.09447,0.649556 0.0422,0.279715 0.314392,0.40066 0.572302,0.396152 0.09749,-0.0016 0.08355,0.15163 -0.01375,0.153313 -0.270428,0.0047 -0.53817,-0.104679 -0.657783,-0.353466 -0.05224,-0.108698 -0.07043,-0.233499 -0.04603,-0.357132 0.02498,-0.126648 0.104327,-0.251638 0.101553,-0.378367 -0.186631,0.03582 -0.381788,0.02766 -0.532766,-0.07725 z"
       fill="#3a3037"
       id="path16-1"
       style="stroke-width:0.271542" />
    <path
       d="m 62.856646,12.025053 c 0.134034,-0.01132 0.327616,-0.05746 0.228394,-0.231245 -0.05517,-0.09665 -0.116763,-0.189673 -0.175036,-0.284279 -0.02553,-0.04127 0.01081,-0.100823 0.05517,-0.111549 0.275371,-0.06694 0.530783,0.03272 0.799772,0.051 0.147204,0.01006 0.303638,0.0073 0.451086,-0.02441 0.19342,-0.04168 0.234368,-0.181499 0.161894,-0.346921 -0.03851,-0.0879 0.09873,-0.162383 0.137237,-0.07441 0.05016,0.114591 0.07899,0.251637 0.01767,0.375624 -0.07288,0.147285 -0.231408,0.18864 -0.376357,0.208355 -0.198768,0.02699 -0.39599,0.02406 -0.590142,-0.0068 -0.151656,-0.02406 -0.300897,-0.0614 -0.454888,-0.05149 0.08806,0.123279 0.19418,0.272926 0.148371,0.415866 -0.05879,0.183182 -0.257232,0.219922 -0.416845,0.233417 -0.09749,0.0084 -0.08307,-0.145031 0.01366,-0.153149 z"
       fill="#3a3037"
       id="path17-1"
       style="stroke-width:0.271542" />
    <path
       d="m 64.233717,18.622575 c 0.125154,-0.0014 0.220275,-0.119099 0.191003,-0.23931 -0.02181,-0.08951 -0.11155,-0.144678 -0.126647,-0.235536 -0.02734,-0.16507 0.168329,-0.161215 0.272248,-0.158933 0.209957,0.0046 0.416139,0.05385 0.628158,0.03397 0.224647,-0.02104 0.515931,-0.167325 0.490351,-0.4396 -0.0091,-0.09688 0.140089,-0.134794 0.149213,-0.03742 0.01914,0.203411 -0.0873,0.391617 -0.260843,0.507375 -0.233771,0.156028 -0.520954,0.133463 -0.775036,0.107775 -0.06675,-0.0067 -0.133518,-0.01399 -0.200887,-0.01719 -0.02935,-0.0014 -0.06063,0.0013 -0.08958,-0.0021 -0.04687,-0.0055 -0.06626,-0.02987 -0.04689,-0.0036 0.06123,0.08304 0.125506,0.179081 0.120727,0.290875 -0.0082,0.193257 -0.1812,0.344914 -0.36555,0.346923 -0.09746,0.0013 -0.08364,-0.152064 0.01375,-0.15315 z"
       fill="#3a3037"
       id="path18-5"
       style="stroke-width:0.271542" />
    <path
       d="m 62.097577,21.436158 c 0.102241,-0.02357 0.231327,-0.04689 0.297774,-0.143673 0.08404,-0.122303 -0.03725,-0.200207 -0.127409,-0.25096 -0.06971,-0.03918 -0.01746,-0.136802 0.05092,-0.142016 0.272926,-0.02056 0.551991,-0.02526 0.823912,-0.06843 0.231599,-0.03683 0.510908,-0.157439 0.534639,-0.430204 0.0085,-0.09873 0.159532,-0.09528 0.150896,0.0035 -0.02325,0.26717 -0.240721,0.456137 -0.483479,0.534884 -0.15182,0.04927 -0.311106,0.05854 -0.46651,0.07039 -0.120782,0.0092 -0.241645,0.01828 -0.362427,0.02735 0.05485,0.06677 0.08169,0.149972 0.04546,0.253132 -0.06686,0.190323 -0.26413,0.255005 -0.436911,0.29484 -0.09637,0.02212 -0.123307,-0.126647 -0.02686,-0.148805 z"
       fill="#3a3037"
       id="path19-0"
       style="stroke-width:0.271542" />
    <path
       d="m 63.274468,21.83565 c 0.08155,-0.03783 0.150895,-0.09914 0.190839,-0.181742 0.01837,-0.03802 0.05646,-0.06444 0.09762,-0.05143 0.03517,0.01109 0.06284,0.05705 0.04429,0.09553 -0.05754,0.119207 -0.148289,0.216174 -0.268393,0.271868 -0.09058,0.04192 -0.155267,-0.09203 -0.06437,-0.134224 z"
       fill="#3a3037"
       id="path20-0"
       style="stroke-width:0.271542" />
    <path
       d="m 56.250001,21.976147 c 0.0085,-0.0968 0.16154,-0.09428 0.152905,0.0032 -0.01771,0.199311 -0.112228,0.565676 0.09974,0.692675 0.194697,0.116655 0.492959,0.02784 0.68722,-0.04529 0.05394,-0.02031 0.11087,0.04453 0.09175,0.0952 -0.01561,0.04152 -0.03027,0.0832 -0.03951,0.126565 -0.01904,0.08958 0.0012,0.09705 0.08086,0.115759 0.105765,0.0249 0.212373,0.04133 0.320664,0.05208 0.09729,0.0097 0.09444,0.161378 -0.0037,0.151657 -0.09102,-0.009 -0.181337,-0.0214 -0.271081,-0.03893 -0.07114,-0.01391 -0.164256,-0.02221 -0.226412,-0.06449 -0.07725,-0.0526 -0.07505,-0.152064 -0.05301,-0.244768 -0.227634,0.06685 -0.506291,0.09998 -0.695854,-0.03747 -0.249601,-0.181092 -0.166564,-0.546642 -0.143591,-0.806154 z"
       fill="#3a3037"
       id="path21-8"
       style="stroke-width:0.271542" />
    <path
       d="m 53.265563,19.2062 c 0.03899,-0.09242 0.181254,-0.04906 0.141908,0.04413 -0.09292,0.220166 -0.171941,0.560626 0.09175,0.67261 0.201973,0.0858 0.490269,0.008 0.701394,-0.04136 0.140739,-0.03288 0.372664,-0.127816 0.430447,0.064 0.0324,0.107367 -0.01771,0.216988 0.03071,0.325198 0.04747,0.106174 0.134197,0.189293 0.215223,0.268556 0.06778,0.06636 -0.04899,0.171967 -0.116436,0.105956 -0.08152,-0.07978 -0.1623,-0.163143 -0.217994,-0.264809 -0.05577,-0.101748 -0.05265,-0.192496 -0.0587,-0.306162 -0.0055,-0.104328 -0.05501,-0.09578 -0.140497,-0.07329 -0.06934,0.01819 -0.138811,0.03539 -0.208842,0.04964 -0.130612,0.02658 -0.263804,0.04814 -0.395746,0.0552 -0.204144,0.01089 -0.406146,-0.04068 -0.508788,-0.22462 -0.115351,-0.206425 -0.05594,-0.458308 0.03557,-0.675053 z"
       fill="#3a3037"
       id="path22-3"
       style="stroke-width:0.271542" />
    <path
       d="m 54.464313,20.753339 c 0.02523,0.0593 0.07136,0.09326 0.134114,0.104923 0.03968,0.0075 0.05746,0.05907 0.04429,0.09553 -0.01569,0.04336 -0.05778,0.05882 -0.09764,0.05143 -0.09721,-0.0182 -0.179571,-0.08715 -0.217995,-0.177561 -0.03758,-0.08817 0.09957,-0.162736 0.137238,-0.07432 z"
       fill="#3a3037"
       id="path23-7"
       style="stroke-width:0.271542" />
    <path
       d="m 65.32939,20.203846 c 0.09696,-0.0045 0.211857,-0.01855 0.3,-0.07147 0.07994,-0.04798 0.114997,-0.199203 0.035,-0.257585 -0.07624,-0.05562 0.01124,-0.186711 0.08807,-0.130585 0.118364,0.0863 0.142858,0.302037 0.05007,0.429445 -0.106689,0.146687 -0.328458,0.17623 -0.486821,0.183508 -0.09764,0.0046 -0.08344,-0.148779 0.01369,-0.153313 z"
       fill="#3a3037"
       id="path24-0"
       style="stroke-width:0.271542" />
    <path
       d="m 62.990923,16.391612 c 0.108291,-0.04145 0.251286,-0.06123 0.333482,-0.154588 0.08211,-0.09319 0.02871,-0.239718 0.01124,-0.343311 -0.01618,-0.09613 0.133029,-0.133463 0.149212,-0.03742 0.02526,0.149728 0.07359,0.314554 -0.03085,0.454207 -0.105847,0.141502 -0.284848,0.17186 -0.43626,0.229807 -0.093,0.03566 -0.118745,-0.113559 -0.02682,-0.148697 z"
       fill="#3a3037"
       id="path25"
       style="stroke-width:0.271542" />
    <path
       d="m 56.758735,10.594039 c 0.02322,-0.09697 0.164988,-0.05218 0.141907,0.04412 -0.0516,0.215327 -0.125913,0.580768 0.13512,0.673799 0.22337,0.07951 0.497383,-0.02987 0.729145,-0.03039 0.06276,-8.2e-5 0.1311,0.0151 0.165504,0.07055 0.04336,0.06995 -0.0016,0.152253 -0.0093,0.228747 -0.02674,0.270836 0.179843,0.469523 0.438079,0.467269 0.09749,-8.41e-4 0.08364,0.152499 -0.01375,0.15334 -0.229318,0.002 -0.44112,-0.118772 -0.530947,-0.330411 -0.04621,-0.108863 -0.05887,-0.233663 -0.03549,-0.354201 0.01795,-0.09259 -0.01483,-0.08404 -0.09855,-0.07372 -0.06946,0.0085 -0.138813,0.01804 -0.208354,0.02465 -0.232251,0.02229 -0.517017,0.06197 -0.670193,-0.140251 -0.157962,-0.208682 -0.102675,-0.485301 -0.04321,-0.733504 z"
       fill="#3a3037"
       id="path26-1"
       style="stroke-width:0.271542" />
    <path
       d="m 61.041361,10.294914 c 0.09613,-0.01761 0.187391,-0.108788 0.182856,-0.212126 -0.0018,-0.04143 0.01711,-0.08161 0.06115,-0.093107 0.03599,-0.00944 0.08622,0.014595 0.08807,0.055698 0.008,0.182767 -0.11842,0.364027 -0.305132,0.398334 -0.09662,0.01769 -0.123905,-0.131017 -0.02694,-0.1488 z"
       fill="#3a3037"
       id="path27"
       style="stroke-width:0.271542" />
    <path
       d="m 54.941901,11.307502 c 0.02473,-0.09672 0.166483,-0.05219 0.141907,0.0441 -0.01567,0.06131 0.04313,0.110817 0.09167,0.128413 0.06425,0.02341 0.13789,0.0183 0.206589,0.01577 0.09756,-0.0035 0.08347,0.149811 -0.01375,0.153341 -0.114319,0.0043 -0.24007,0.0039 -0.332069,-0.06685 -0.08488,-0.06525 -0.122546,-0.164744 -0.09436,-0.274774 z"
       fill="#3a3037"
       id="path28"
       style="stroke-width:0.271542" />
    <path
       d="m 57.698324,9.7972697 c 0.221171,-0.072468 0.41679,0.027679 0.587129,0.1476241 0.04681,0.032964 0.09203,0.072046 0.142424,0.099561 0.01807,0.0099 0.04999,0.03775 0.07476,0.02559 0.0053,-0.0027 0.02876,-0.05636 0.03715,-0.06861 0.04437,-0.064668 0.111386,-0.1106358 0.185544,-0.1303469 0.451167,-0.12003 0.593348,0.5093859 0.575886,0.8363399 -0.0052,0.09881 -0.156244,0.09512 -0.150895,-0.0035 0.01076,-0.200888 -0.02322,-0.430794 -0.148209,-0.585548 -0.05569,-0.06903 -0.133788,-0.1201123 -0.229072,-0.102333 -0.10107,0.01896 -0.107937,0.09193 -0.164554,0.158697 -0.106445,0.125648 -0.247185,0.01661 -0.340378,-0.04856 -0.159694,-0.111723 -0.32729,-0.2506255 -0.542948,-0.1800007 -0.09469,0.030871 -0.120863,-0.1180984 -0.02682,-0.1488834 z"
       fill="#564752"
       id="path29"
       style="stroke-width:0.271542" />
    <path
       d="m 54.509009,10.172199 c 0.08757,-0.05528 0.189318,-0.06333 0.285852,-0.05369 0.04882,0.0048 0.09713,0.01435 0.145274,0.02214 0.04336,0.0071 0.145276,0.04504 0.181608,0.03783 0.02985,-0.006 0.0049,0.01224 0.0095,-0.02818 0.002,-0.01837 -0.0016,-0.0364 0.0013,-0.05494 0.0063,-0.03934 0.02357,-0.07616 0.0473,-0.108535 0.05822,-0.079436 0.148045,-0.1143279 0.239746,-0.123973 0.21908,-0.023061 0.444948,0.052588 0.631823,0.14687 0.08472,0.04278 -0.0038,0.173123 -0.08806,0.130682 -0.144704,-0.07306 -0.307494,-0.122379 -0.474004,-0.126572 -0.04486,-0.0011 -0.103837,-0.0034 -0.146523,0.02163 -0.07717,0.04513 -0.0542,0.06979 -0.054,0.130932 1.61e-4,0.0432 8.1e-5,0.07968 -0.03171,0.115332 -0.07237,0.08119 -0.204227,0.03296 -0.287509,0.01946 -0.08271,-0.01341 -0.167107,-0.03413 -0.252154,-0.03296 -0.07926,0.0011 -0.270075,0.07172 -0.164744,0.176142 0.06745,0.06685 -0.04939,0.172453 -0.11641,0.105939 -0.111713,-0.110887 -0.06123,-0.293404 0.07288,-0.378119 z"
       fill="#564752"
       id="path30"
       style="stroke-width:0.271542" />
    <path
       d="m 54.379185,13.485433 c 0.02598,-0.07968 -0.0076,-0.15744 0.03305,-0.236947 0.03362,-0.06584 0.09452,-0.114646 0.16347,-0.13664 0.16917,-0.05385 0.311866,0.05445 0.418392,0.164229 0.06617,0.06812 -0.05059,0.173813 -0.116438,0.105955 -0.0639,-0.06584 -0.172185,-0.171778 -0.278547,-0.118366 -0.09436,0.04738 -0.04991,0.179924 -0.07801,0.265976 -0.0312,0.09536 -0.173108,0.05143 -0.141908,-0.0442 z"
       fill="#564752"
       id="path31"
       style="stroke-width:0.271542" />
    <path
       d="m 53.265264,13.850792 c -0.0012,-0.0687 0.01955,-0.134195 0.05336,-0.195591 0.02044,-0.03717 0.07473,-0.04537 0.105683,-0.02509 0.03599,0.02341 0.03823,0.06819 0.01771,0.105522 -0.02064,0.0375 -0.02653,0.07741 -0.02577,0.118691 7.59e-4,0.04136 -0.04469,0.07581 -0.08236,0.07489 -0.04445,-9.67e-4 -0.06785,-0.03699 -0.06862,-0.07842 z"
       fill="#564752"
       id="path32"
       style="stroke-width:0.271542" />
    <path
       d="m 52.392202,16.072442 c 0.09705,-0.128249 0.261604,-0.204579 0.411822,-0.26413 -0.04923,-0.07012 -0.143837,-0.11459 -0.185275,-0.18997 -0.04654,-0.08472 -0.0369,-0.178756 0.02506,-0.259621 0.14503,-0.189049 0.398759,-0.301603 0.619523,-0.340948 0.09665,-0.01719 0.123905,0.131506 0.02686,0.148804 -0.164582,0.02927 -0.416872,0.112554 -0.517858,0.268148 -0.07315,0.112717 0.05485,0.174955 0.117333,0.23578 0.04756,0.04621 0.07532,0.09328 0.09058,0.159206 0.01,0.04318 -0.02365,0.07867 -0.06115,0.09308 -0.115405,0.04437 -0.241646,0.09688 -0.342034,0.173812 -0.142016,0.108863 -0.0962,0.223779 -0.0012,0.336415 0.0612,0.07256 -0.05512,0.178673 -0.116436,0.105956 -0.111631,-0.132377 -0.194941,-0.297937 -0.06726,-0.466538 z"
       fill="#564752"
       id="path33"
       style="stroke-width:0.271542" />
    <path
       d="m 60.84308,12.218634 c 0.285772,-0.06308 0.583028,-0.125723 0.866708,-0.06626 0.220574,0.0463 0.397647,0.201647 0.308065,0.451683 -0.03221,0.0899 -0.214708,0.317134 -0.122031,0.398569 0.03296,0.02903 0.122791,0.02248 0.166319,0.03011 0.04849,0.0085 0.09412,0.02332 0.135961,0.04822 0.176068,0.104951 0.250389,0.323434 0.187066,0.52853 -0.02963,0.09578 -0.171452,0.05164 -0.141935,-0.04413 0.03196,-0.103674 0.0092,-0.210037 -0.05618,-0.288785 -0.07088,-0.08556 -0.162138,-0.09086 -0.26565,-0.108453 -0.189211,-0.03212 -0.249031,-0.17262 -0.170175,-0.356399 0.03848,-0.08975 0.104163,-0.173624 0.130422,-0.267416 0.04143,-0.148287 -0.08288,-0.213214 -0.204417,-0.240287 -0.263043,-0.05865 -0.542269,0.0048 -0.807485,0.06332 -0.0962,0.02137 -0.123226,-0.127408 -0.02666,-0.148724 z"
       fill="#564752"
       id="path34"
       style="stroke-width:0.271542" />
    <path
       d="m 64.237872,12.948133 c 0.111902,3.25e-4 0.233119,0.0097 0.321425,0.07978 0.08649,0.06867 0.124067,0.173352 0.09572,0.286694 -0.02425,0.09678 -0.165993,0.05217 -0.141934,-0.04412 0.01602,-0.06416 -0.03923,-0.119614 -0.09042,-0.142016 -0.06104,-0.02658 -0.131751,-0.02682 -0.198606,-0.02699 -0.09721,-2.72e-4 -0.08346,-0.153585 0.01382,-0.153341 z"
       fill="#564752"
       id="path35"
       style="stroke-width:0.271542" />
    <path
       d="m 65.124511,15.288011 c 0.275615,0.0067 0.648796,0.107884 0.800018,0.353304 0.06979,0.113232 0.04689,0.251121 -0.04019,0.359928 -0.04117,0.05148 -0.09529,0.09107 -0.151548,0.123281 -0.02458,0.01409 -0.05806,0.02593 -0.09236,0.03883 0.21547,0.05184 0.434387,0.169604 0.369299,0.421242 -0.02498,0.09673 -0.166835,0.05217 -0.141909,-0.04413 0.04939,-0.190976 -0.314228,-0.244171 -0.434493,-0.255142 -0.05678,-0.0052 -0.08841,-0.06433 -0.05485,-0.116924 0.08925,-0.139818 0.598532,-0.229155 0.395473,-0.4667 -0.15315,-0.179082 -0.431127,-0.254897 -0.663213,-0.260437 -0.09705,-0.0022 -0.08348,-0.155593 0.01376,-0.153258 z"
       fill="#564752"
       id="path36"
       style="stroke-width:0.271542" />
    <path
       d="m 66.113902,18.564031 c 0.152335,0.03533 0.312111,0.08817 0.403376,0.22136 0.07959,0.116003 0.0879,0.26212 0.01316,0.392378 -0.05043,0.08774 -0.173624,0.0071 -0.123389,-0.08043 0.134115,-0.233689 -0.189237,-0.349855 -0.346488,-0.38635 -0.09343,-0.02164 -0.03986,-0.168519 0.05333,-0.146958 z"
       fill="#564752"
       id="path37"
       style="stroke-width:0.271542" />
    <path
       d="m 64.388089,21.04932 c -0.09648,-0.0063 -0.0832,-0.159613 0.01375,-0.153314 0.07441,0.0048 0.142097,0.04554 0.169687,0.116247 0.03104,0.07968 0.0049,0.163551 -0.05301,0.228476 -0.02835,0.03179 -0.08253,0.02518 -0.106687,-0.0024 -0.02859,-0.03272 -0.01871,-0.0766 0.0098,-0.108455 0.02971,-0.03331 0.0039,-0.07801 -0.03345,-0.08046 z"
       fill="#564752"
       id="path38"
       style="stroke-width:0.271542" />
    <path
       d="m 52.966622,17.858184 c 0.05494,-0.01048 0.109621,-0.01031 0.164555,-0.01056 0.02987,-1.63e-4 0.06335,0.0045 0.09319,-8.41e-4 0.102261,-0.01844 0.08388,-0.0259 0.06726,-0.08505 -0.02549,-0.09042 -0.05559,-0.185546 -0.0026,-0.277978 0.09906,-0.172701 0.374267,-0.155323 0.531028,-0.135445 0.220845,0.02792 0.423415,0.116165 0.590822,0.255982 0.0718,0.06007 -0.01526,0.19141 -0.08806,0.130692 -0.123146,-0.102831 -0.263397,-0.177831 -0.422086,-0.215494 -0.117849,-0.02792 -0.530348,-0.08983 -0.480765,0.13262 0.02634,0.117931 0.08553,0.245257 -0.05991,0.317651 -0.08437,0.04201 -0.586313,-0.0029 -0.492603,0.184865 0.04276,0.08581 -0.09452,0.159939 -0.137239,0.07441 -0.08573,-0.171696 0.0646,-0.338124 0.236378,-0.370845 z"
       fill="#564752"
       id="path39"
       style="stroke-width:0.271542" />
    <path
       d="m 59.985333,11.408625 c 0.01,-0.09596 0.05197,-0.18503 0.150543,-0.217479 0.102996,-0.03389 0.188885,0.01434 0.287373,0.02406 0.09561,0.0095 0.08261,0.162898 -0.01376,0.15334 -0.05501,-0.0054 -0.104841,-0.02325 -0.158444,-0.03281 -0.06433,-0.01148 -0.106933,0.0013 -0.114753,0.07633 -0.01031,0.09863 -0.161188,0.09545 -0.150951,-0.0035 z"
       fill="#564752"
       id="path40"
       style="stroke-width:0.271542" />
    <path
       d="m 61.82275,9.2828666 c 0.123634,-0.078009 0.215631,-0.0076 0.32585,0.037655 0.109622,0.044962 0.147203,-0.014348 0.225054,-0.082699 0.04511,-0.039595 0.09152,-0.060562 0.149783,-0.055953 0.262473,0.020885 0.445139,0.3362643 0.483644,0.5701979 0.01585,0.096123 -0.133355,0.133533 -0.149213,0.037409 -0.0198,-0.1199443 -0.0665,-0.2268017 -0.146605,-0.315042 -0.03701,-0.040765 -0.07971,-0.076326 -0.127408,-0.1040064 -0.08304,-0.048236 -0.112662,-0.013506 -0.179598,0.046379 -0.06038,0.054015 -0.135961,0.088406 -0.2143,0.081027 -0.09243,-0.00882 -0.210446,-0.1390669 -0.303041,-0.080687 -0.08532,0.05385 -0.148969,-0.08077 -0.06416,-0.1342884 z"
       fill="#564752"
       id="path41-3"
       style="stroke-width:0.271542" />
    <path
       d="m 56.260292,12.358642 c 0.09756,-0.0022 0.08355,0.15114 -0.01375,0.153312 -0.134984,0.0031 -0.192687,0.159532 -0.106363,0.250389 0.06542,0.06887 -0.05118,0.174548 -0.116438,0.105929 -0.178891,-0.188233 -0.02406,-0.503683 0.236541,-0.50963 z"
       fill="#564752"
       id="path42-4"
       style="stroke-width:0.271542" />
    <path
       d="m 56.21451,15.177493 c 0.25601,-0.188911 0.635788,-0.202244 0.943717,-0.189835 0.229128,0.0093 0.221415,0.363025 -0.0086,0.35382 -0.119505,-0.0048 -0.239363,-0.0035 -0.358326,0.01121 -0.09787,0.01216 -0.24876,0.0198 -0.330629,0.08019 -0.07802,0.05753 -0.179164,0.06897 -0.25229,-0.0052 -0.06083,-0.06175 -0.07123,-0.193176 0.0062,-0.250119 z"
       fill="#3a3037"
       id="path43-3"
       style="stroke-width:0.271542" />
    <path
       d="m 59.538212,15.015355 c 0.294243,0.0087 0.572791,0.08448 0.83214,0.22109 0.202571,0.106798 0.01485,0.408318 -0.187471,0.301711 -0.203305,-0.107097 -0.423253,-0.162301 -0.653249,-0.169091 -0.229318,-0.0067 -0.221335,-0.360498 0.0086,-0.35371 z"
       fill="#3a3037"
       id="path44-7"
       style="stroke-width:0.271542" />
    <path
       d="m 61.805318,19.397203 c 0.04495,0.151657 0.215874,0.250443 0.381868,0.2206 0.165995,-0.02979 0.264048,-0.17691 0.219189,-0.328538 -0.04496,-0.151656 -0.215902,-0.250471 -0.381896,-0.220601 -0.165994,0.02985 -0.264129,0.176882 -0.219161,0.328539 z"
       fill="#e4cece"
       id="path45-7"
       style="stroke-width:0.271542" />
    <path
       d="m 55.630559,16.549732 -0.749891,-0.113235 0.02376,-0.148559 0.749863,0.113233 z"
       fill="#ecdce8"
       id="path46"
       style="stroke-width:0.271542" />
    <path
       d="m 56.239275,18.009786 c -0.0015,2.44e-4 -0.0028,5.16e-4 -0.0043,7.6e-4 -0.310916,0.05209 -0.615831,-0.02349 -0.858644,-0.212807 -0.256092,-0.199611 -0.412255,-0.498986 -0.440034,-0.842786 -0.0551,-0.684095 0.42928,-1.329551 1.080439,-1.441018 0.0014,-2.46e-4 0.0028,-4.9e-4 0.0043,-7.61e-4 0.310861,-0.05209 0.61583,0.02349 0.858561,0.212808 0.256092,0.199637 0.412365,0.498985 0.440035,0.842866 0.05517,0.684042 -0.429201,1.329469 -1.08033,1.440938 z m -0.196949,-2.347645 c -0.576402,0.09865 -1.004869,0.672285 -0.955884,1.280648 0.02425,0.301357 0.160129,0.562824 0.382577,0.736258 0.209113,0.163143 0.4724,0.22815 0.741227,0.183128 0.0012,-1.89e-4 0.0024,-4.34e-4 0.0037,-5.97e-4 0.576321,-0.09865 1.004842,-0.672284 0.955856,-1.280647 -0.02425,-0.301356 -0.160101,-0.562798 -0.382548,-0.736259 -0.209116,-0.16306 -0.472403,-0.228068 -0.741229,-0.183019 -0.0013,8.1e-5 -0.0026,3.26e-4 -0.0037,4.88e-4 z"
       fill="#ecdce8"
       id="path47"
       style="stroke-width:0.271542" />
    <path
       d="m 59.669503,18.096354 c -0.0015,2.43e-4 -0.0028,5.16e-4 -0.0043,6.78e-4 -0.310861,0.05209 -0.615831,-0.0235 -0.858589,-0.212807 -0.256064,-0.199637 -0.412337,-0.498904 -0.440007,-0.842786 -0.05501,-0.684122 0.429362,-1.329551 1.080493,-1.441019 0.0015,-2.45e-4 0.0028,-5.15e-4 0.0043,-7.6e-4 0.310862,-0.05209 0.61583,0.02349 0.858561,0.212808 0.256091,0.19961 0.412364,0.498986 0.440034,0.842866 0.05502,0.684014 -0.429389,1.329552 -1.08052,1.44102 z m -0.19695,-2.347645 c -0.576321,0.09865 -1.00484,0.672284 -0.955856,1.280647 0.02425,0.301358 0.160129,0.562798 0.382576,0.736258 0.209088,0.163063 0.472375,0.228069 0.74131,0.183021 0.0012,-1.64e-4 0.0024,-4.07e-4 0.0037,-6.52e-4 0.576321,-0.09865 1.004869,-0.672202 0.955883,-1.280646 -0.02425,-0.301359 -0.160128,-0.562826 -0.382575,-0.736287 -0.209088,-0.163034 -0.472375,-0.228041 -0.741311,-0.183019 -0.0012,2.7e-4 -0.0024,4.34e-4 -0.0037,6.78e-4 z"
       fill="#ecdce8"
       id="path48-5"
       style="stroke-width:0.271542" />
    <path
       d="m 59.63431,16.72884 c -0.02005,0.272845 0.0277,0.484568 0.106717,0.472809 0.079,-0.01173 0.159368,-0.242487 0.179408,-0.515332 0.02005,-0.272845 -0.02767,-0.484567 -0.106689,-0.472809 -0.07902,0.01173 -0.159287,0.242405 -0.179436,0.515332 z"
       fill="#3a3037"
       id="path49-1"
       style="stroke-width:0.271542" />
    <path
       d="m 56.354598,16.719499 c -0.02005,0.272846 0.0277,0.484567 0.106689,0.47281 0.07902,-0.01173 0.159368,-0.242488 0.179436,-0.515334 0.02005,-0.272872 -0.0277,-0.484566 -0.10669,-0.472808 -0.07902,0.01173 -0.159394,0.242487 -0.179435,0.515332 z"
       fill="#3a3037"
       id="path50-2"
       style="stroke-width:0.271542" />
    <path
       d="m 58.059774,18.654183 0.07741,-0.17061 c -0.0086,-0.0033 -0.82986,-0.282323 -0.925905,-0.94445 -0.09496,-0.654499 0.866709,-1.119923 0.876755,-1.124864 l -0.08754,-0.153747 c -0.04437,0.02196 -1.086303,0.546206 -0.978366,1.290287 0.106717,0.735335 0.999656,1.08872 1.037646,1.103384 z"
       fill="#954b36"
       id="path51-6"
       style="stroke-width:0.271542" />
    <path
       d="m 58.550668,16.606511 -0.149131,0.0196 c -0.0022,-0.01602 -0.06047,-0.399493 -0.476095,-0.39026 -0.431643,0.0098 -0.599211,0.443944 -0.60619,0.462409 l -0.141066,-0.05209 c 0.0083,-0.0224 0.208924,-0.549058 0.743916,-0.560734 0.441609,-0.0098 0.604236,0.336603 0.628566,0.521062 z"
       fill="#ecdce8"
       id="path52-6"
       style="stroke-width:0.271542" />
    <path
       d="m 61.995396,17.230975 -1.035199,-0.411738 -0.275317,-9.24e-4 4.34e-4,-0.150407 0.303964,9.67e-4 1.061648,0.42233 z"
       fill="#ecdce8"
       id="path53-5"
       style="stroke-width:0.271542" />
    <path
       d="m 56.314221,16.069075 c -0.0161,-0.04225 -0.04176,-0.07766 -0.07674,-0.106255 -0.01819,-0.01116 -0.03641,-0.02241 -0.05461,-0.03356 -0.04027,-0.01804 -0.08236,-0.02506 -0.126241,-0.02121 -0.02642,0.0045 -0.05317,0.0096 -0.07851,0.01836 -0.0032,0.0012 -0.0062,0.0026 -0.0093,0.0039 -0.02091,0.01 -0.04372,0.02241 -0.06351,0.0344 -0.01333,0.0081 -0.02473,0.02121 -0.03557,0.03144 -0.01173,0.01116 -0.02498,0.02164 -0.0343,0.03514 -0.02173,0.02509 -0.03606,0.05352 -0.04296,0.08532 -0.01214,0.03044 -0.0161,0.06232 -0.01181,0.09561 0.002,0.03489 0.01241,0.06661 0.0312,0.09512 0.01325,0.03071 0.03348,0.05621 0.06083,0.07665 0.01819,0.01115 0.03638,0.02241 0.05461,0.03356 0.04024,0.01804 0.08236,0.02509 0.126211,0.02121 0.02181,-0.005 0.04369,-0.01016 0.0655,-0.01518 0.02819,-0.01072 0.05311,-0.02615 0.07516,-0.04529 0.0013,-7.32e-4 0.0026,-0.0014 0.0038,-0.002 0.03072,-0.01325 0.05621,-0.03345 0.07669,-0.0608 0.02173,-0.02509 0.03606,-0.05352 0.04293,-0.08532 0.01216,-0.03044 0.0161,-0.06232 0.01184,-0.09561 -0.0052,-0.02181 -0.01026,-0.0436 -0.01529,-0.06545 z"
       fill="#ffffff"
       id="path54-4"
       style="stroke-width:0.271542" />
    <path
       d="m 59.449852,16.24039 c -0.01064,-0.01972 -0.02128,-0.03943 -0.03196,-0.05915 -0.02615,-0.03545 -0.05931,-0.0624 -0.09947,-0.08068 -0.02047,-0.0063 -0.04091,-0.01249 -0.06131,-0.01871 -0.04462,-0.0073 -0.08808,-0.0031 -0.130449,0.01276 -0.0085,0.0045 -0.01692,0.009 -0.02539,0.01358 -0.03272,0.011 -0.0603,0.0291 -0.08271,0.05436 -0.0255,0.02044 -0.04453,0.04613 -0.05714,0.07698 -0.01483,0.02987 -0.02148,0.06115 -0.01996,0.0938 -0.0041,0.03345 5.17e-4,0.06617 0.014,0.09795 0.01064,0.01972 0.02131,0.03943 0.03196,0.05914 0.02618,0.03549 0.05931,0.0624 0.09947,0.0807 0.02047,0.0062 0.04087,0.01249 0.06134,0.01871 0.04462,0.0073 0.08807,0.0031 0.130504,-0.01276 0.0085,-0.0045 0.01694,-0.009 0.02541,-0.01358 0.0328,-0.011 0.0603,-0.0291 0.08269,-0.05436 0.02549,-0.02047 0.04456,-0.04613 0.05713,-0.07702 0.01485,-0.02985 0.02148,-0.06113 0.01996,-0.09376 0.004,-0.03346 -6.79e-4,-0.06617 -0.01409,-0.09797 z"
       fill="#ffffff"
       id="path55-1"
       style="stroke-width:0.271542" />
    <path
       d="m 62.384652,22.692068 c 0,0 -1.445852,2.457183 -2.962524,2.41724 -1.516672,-0.03991 -1.782403,-1.982095 -1.782403,-1.982095 0,0 -2.458187,0.690396 -3.042221,1.483951 -0.47232,0.641762 -1.003511,4.345949 -1.649374,8.345384 -0.449239,2.782003 -0.894378,4.950808 -0.771396,5.185693 0.275941,0.526791 1.02127,1.216508 1.02127,1.216508 0,0 11.544529,0.225651 11.970958,0 0.426431,-0.225922 1.299601,-1.05847 1.349756,-1.334358 0.02357,-0.129796 -0.381219,-4.627837 -0.381219,-5.415607 0,-0.996886 1.068273,-6.875499 0.213133,-8.330693 -0.51525,-0.876837 -3.96598,-1.586023 -3.96598,-1.586023 z"
       fill="#ffc166"
       id="path56-7"
       style="stroke-width:0.271542" />
    <path
       d="m 57.257014,37.795754 c 0.112718,-0.144462 0.25153,-0.309287 0.198769,-0.506698 -0.05425,-0.202843 -0.282404,-0.238142 -0.46241,-0.251721 -0.233172,-0.01765 -0.468681,0.01493 -0.701284,0.0277 -0.25457,0.01412 -0.509576,0.02009 -0.764553,0.01819 -0.241048,-0.0019 -0.489428,8.14e-4 -0.72871,-0.0315 -0.21718,-0.02934 -0.378449,-0.139844 -0.440197,-0.35572 -0.129852,-0.453747 0.08982,-0.993843 0.394305,-1.328383 0.07188,-0.07902 -0.03799,-0.206019 -0.110706,-0.126105 -0.297937,0.327317 -0.489184,0.763414 -0.483237,1.210915 0.0026,0.193066 0.04412,0.395907 0.170881,0.5477 0.138541,0.165912 0.352598,0.213975 0.558779,0.228909 0.537654,0.03965 1.082095,0.02716 1.619342,-0.01114 0.132104,-0.0096 0.26421,-0.02118 0.396723,-0.01738 0.101993,0.003 0.318165,-0.0014 0.378285,0.10183 0.06131,0.104815 -0.03545,0.231082 -0.09602,0.310915 -0.07877,0.10373 -0.160046,0.205558 -0.239989,0.308201 -0.151058,0.19388 -0.373261,0.410028 -0.394794,0.669079 -0.01637,0.197411 0.118854,0.409486 0.328538,0.416274 0.107694,0.0035 0.120945,-0.163739 0.01292,-0.167269 -0.09648,-0.0033 -0.157114,-0.08526 -0.171967,-0.175688 -0.01819,-0.110789 0.04313,-0.219407 0.103023,-0.307657 0.132186,-0.193882 0.287861,-0.375 0.432295,-0.560463 z"
       fill="#f4b056"
       id="path57-1"
       style="stroke-width:0.271542" />
    <path
       d="m 65.289609,38.567747 c 1.362245,2.109883 1.903238,5.099288 1.903238,7.961614 0,3.095851 -2.407599,27.285905 -2.871367,27.41 -0.463658,0.123551 -4.827964,-0.588704 -4.827964,-0.588704 L 58.771323,48.132274 c 0,0 -2.450884,5.836796 -2.840575,8.735779 -0.389717,2.898712 2.622906,15.974549 1.954913,16.178205 -0.667993,0.203386 -3.911943,0.701937 -4.579937,0.52462 -0.668021,-0.177317 -4.510341,-12.110233 -4.621647,-16.89752 -0.111388,-4.787559 4.056649,-18.005412 4.464207,-18.046415 0.407558,-0.04073 12.141325,-0.05919 12.141325,-0.05919 z"
       fill="#80bad8"
       id="path60-3"
       style="stroke-width:0.271542" />
    <path
       d="m 66.225642,41.723338 c 0.147637,-0.01168 0.278466,-0.02389 0.384666,-0.03476 -0.01461,-0.05484 -0.0291,-0.109974 -0.04429,-0.164554 -0.654904,0.06436 -2.18852,0.178947 -2.674852,-0.101018 -0.471884,-0.271814 -0.312598,-1.566798 -0.196515,-2.12373 h 0.03128 0.209441 c -0.01561,0.395907 -0.04192,1.548875 0.166673,1.795164 0.202733,0.239772 1.645246,0.125995 2.353671,0.05403 -0.01686,-0.05457 -0.03381,-0.109159 -0.05127,-0.163467 -1.010868,0.09939 -2.067222,0.127624 -2.174346,0.0012 -0.136964,-0.161839 -0.150543,-1.089155 -0.126646,-1.68872 l 1.602396,-0.0076 c -0.0291,-0.05621 -0.05862,-0.112148 -0.08866,-0.16727 l -1.892024,0.0089 h -0.165071 l -1.62e-4,8.15e-4 -10.711221,0.05105 c -0.02173,0.05268 -0.0442,0.108616 -0.0677,0.168084 l 0.797846,-0.0038 c 0.05681,0.616401 0.04826,1.287924 -0.05862,1.367215 -0.114807,0.08526 -0.770907,0.02145 -1.215531,-0.04725 -0.01746,0.05133 -0.03516,0.103457 -0.05295,0.156136 0.477453,0.08064 1.192233,0.156137 1.368382,0.0258 0.222367,-0.164825 0.166347,-1.079922 0.127408,-1.502713 l 0.313197,-0.0016 c 0.05854,0.460806 0.12347,1.433471 -0.128657,1.679759 -0.19065,0.186278 -1.042423,0.147176 -1.766624,0.05648 -0.01779,0.05349 -0.03574,0.107532 -0.05377,0.162383 0.31268,0.04073 0.717739,0.08174 1.082339,0.08174 0.38024,0 0.716002,-0.04481 0.855222,-0.180847 0.331498,-0.323678 0.228394,-1.416907 0.180521,-1.800324 l 3.160722,-0.01493 c -0.06819,0.719316 -0.476148,5.824035 -0.162626,6.116486 0.257829,0.240857 1.205484,0.349203 1.448541,0.373642 l -0.02859,1.463883 c -0.241401,-0.08092 -1.166383,-0.527878 -1.989046,-0.945509 l -0.07592,0.14962 c 0.300787,0.152605 1.749844,0.88414 2.061629,0.967775 l -0.0033,0.165641 c -0.264455,-0.06952 -1.1414,-0.35925 -1.604651,-0.515115 l -0.05352,0.159123 c 0.0418,0.01412 0.737969,0.24819 1.22889,0.402425 -0.312518,0.803493 -3.328835,8.590506 -3.305835,9.696225 0.02358,1.130701 2.34368,14.984235 2.442412,15.573481 l 0.165478,-0.02796 c -0.02417,-0.14419 -2.416832,-14.430291 -2.440159,-15.549043 -0.02221,-1.067161 3.042576,-8.983426 3.298749,-9.642731 0.116083,0.03531 0.209929,0.06246 0.265296,0.07576 l -0.01361,0.695147 c 0.09279,-0.227552 0.146876,-0.356264 0.146876,-0.356264 l 0.01662,0.580286 0.01811,-0.927044 c 0.407476,-0.09042 1.435479,-0.539283 1.778356,-0.69189 L 60.516017,46.9403 c -0.672609,0.298967 -1.41677,0.600108 -1.706913,0.675868 l 0.0035,-0.179761 c 0.198198,-0.06979 0.629759,-0.289193 1.614806,-0.85047 0.0885,-0.0505 0.146958,-0.08391 0.16021,-0.09042 l -0.07509,-0.150162 c -0.01393,0.0071 -0.07541,0.04209 -0.168247,0.09477 -0.914934,0.521633 -1.340685,0.738867 -1.528239,0.817343 l 0.154833,-7.935546 4.552946,-0.02173 c -0.08162,0.413017 -0.330331,1.914372 0.283844,2.268192 0.268717,0.154778 0.801863,0.201755 1.350405,0.201755 0.302796,0 0.610047,-0.01439 0.880286,-0.03285 0.04672,0.208544 0.402967,1.906226 0.396749,5.033033 -0.0067,3.339152 -2.723485,26.598631 -2.750911,26.833244 l 0.166564,0.01955 c 0.02742,-0.234613 2.745399,-23.503868 2.752106,-26.852525 0.006,-3.108884 -0.325687,-4.803306 -0.37728,-5.047152 z m -7.546263,3.927856 c -0.356317,-0.03638 -1.146857,-0.149892 -1.333978,-0.324222 -0.214327,-0.313087 0.121027,-5.449034 0.207921,-5.998363 l 1.249446,-0.006 z"
       fill="#6aacc6"
       id="path61"
       style="stroke-width:0.271542" />
    <path
       d="m 62.915489,22.822814 c -0.526004,0.824104 -1.845725,2.610769 -3.469765,2.73576 -0.526329,0.04024 -0.977414,-0.09749 -1.340005,-0.410083 -0.615749,-0.530946 -0.83578,-1.440937 -0.909151,-1.885154 -0.05118,0.0167 -0.105195,0.03449 -0.162652,0.05385 0.07918,0.474601 0.311267,1.396568 0.961665,1.957791 0.35287,0.30448 0.780141,0.458227 1.272229,0.458227 0.0626,0 0.126159,-0.0026 0.190759,-0.0075 1.751093,-0.134713 3.114017,-2.029153 3.629349,-2.856704 -0.06038,-0.01643 -0.117821,-0.03177 -0.172429,-0.04621 z"
       fill="#ffd894"
       id="path66"
       style="stroke-width:0.271542" />
    <path
       d="m 64.229726,31.762143 c -0.0151,-0.106934 -0.179761,-0.07464 -0.164663,0.03204 0.03783,0.268339 -0.103485,0.529942 -0.300108,0.70392 -0.22052,0.195074 -0.506291,0.296741 -0.785165,0.376003 -0.103076,0.02927 -0.07198,0.194262 0.03204,0.164664 0.318221,-0.09042 0.646515,-0.207676 0.891174,-0.4396 0.2269,-0.21506 0.371253,-0.520981 0.32672,-0.837029 z"
       fill="#f4b056"
       id="path67"
       style="stroke-width:0.271542" />
    <path
       d="m 56.874276,19.094379 c 0.331987,-0.395881 1.297102,0.06059 1.297102,0.06059 0,0 1.121088,-0.6602 1.451664,-0.277299 0.330548,0.382902 -0.04809,1.763422 -1.507032,1.758805 -1.45905,-0.0046 -1.435316,-1.311249 -1.241734,-1.542088 z"
       fill="#b44d4d"
       id="path70-4"
       style="stroke-width:0.271542" />
    <path
       d="m 54.320775,25.021736 c -0.925333,0.590576 -4.123651,8.283226 -2.76123,9.197482 0.547294,0.367207 8.293791,0.144026 8.293791,0.144026 l 0.203983,-1.919693 c 0,0 -6.565073,-0.17539 -6.774785,-0.404218 -0.211694,-0.231001 1.038241,-7.017597 1.038241,-7.017597 z"
       fill="#c56647"
       id="path71-8"
       style="stroke-width:0.271542" />
    <path
       d="m 56.963857,19.117379 c 0.224619,-0.21422 0.6936,0.193175 1.243827,0.193175 0.432376,0 1.136865,-0.513921 1.345897,-0.421732 0.209006,0.09216 0,1.439825 -1.37031,1.439825 -1.321486,-8.2e-5 -1.442866,-0.998217 -1.219414,-1.211268 z"
       fill="#3a3037"
       id="path72-6"
       style="stroke-width:0.271542" />
    <path
       d="m 59.301943,18.921352 c -0.306978,0.109567 -0.774004,0.38912 -1.093147,0.38912 -0.40028,0 -0.757004,-0.214653 -1.008452,-0.249709 -0.02826,0.09412 -0.03709,0.251039 0.05301,0.36639 0.182341,0.233419 1.630474,0.288189 1.995265,-0.08388 0.04562,-0.04649 0.05352,-0.261278 0.05333,-0.421922 z"
       fill="#ecdce8"
       id="path73-1"
       style="stroke-width:0.271542" />
    <path
       d="m 55.495032,25.537013 -0.441012,-1.17966 c 0,0 -0.210471,-1.881542 -0.760018,-2.238185 -0.496977,-0.322511 -1.524303,-0.275697 -1.524303,-0.275697 -0.82174,-0.18454 -3.521848,-0.827199 -3.667376,-0.480873 -0.113485,0.269994 2.158418,0.730067 2.458364,0.948903 0,0 -0.219,0.01569 -0.25984,0.283517 -0.04212,0.276268 0.197438,0.506018 0.197438,0.506018 0,0 -0.214056,0.04304 -0.258671,0.292886 -0.04465,0.249792 0.191818,0.430639 0.191818,0.430639 0,0 -0.220601,0.06845 -0.191899,0.396316 0.0281,0.321098 0.704815,0.829804 0.981434,0.93682 0.27662,0.107123 1.177733,0.04465 1.258082,0.124909 0.08026,0.08026 0.336251,1.101211 0.336251,1.101211 z"
       fill="#c56647"
       id="path74-5"
       style="stroke-width:0.271542" />
    <path
       d="m 55.026459,24.285286 c 0,0 2.927903,7.668647 3.522335,7.75144 1.186449,0.165314 5.345143,-8.602127 7.198011,-7.675707 1.852839,0.926421 -5.526832,12.416723 -8.277934,10.030547 -2.751183,-2.38623 -3.897117,-9.20772 -3.897117,-9.20772 z"
       fill="#c56647"
       id="path75-0"
       style="stroke-width:0.271542" />
    <path
       d="m 60.095714,32.617093 c 0.237954,-0.01084 0.999304,-1.246324 2.930592,-1.201384 1.931261,0.04489 2.481406,2.335479 2.369096,2.57126 -0.112309,0.23578 -1.134014,-1.482104 -1.830193,-1.482104 0,0 0.662453,0.47156 0.684937,0.741065 0.02248,0.269479 -0.23578,0.40419 -0.23578,0.40419 0,0 0.06493,0.352463 -0.10468,0.52204 -0.169605,0.169605 -0.40704,0.0848 -0.40704,0.0848 0,0 0.06786,0.364627 -0.29677,0.398598 -0.364599,0.03389 -0.898913,-0.619007 -1.060046,-0.534205 -0.161105,0.08481 -0.0848,0.435063 -0.907385,0.535535 -0.822582,0.100495 -2.296296,-0.402425 -2.296296,-0.402425 0,0 0.150462,-1.675443 0.195348,-1.645436 0.04504,0.02978 0.749375,0.01762 0.958217,0.0081 z"
       fill="#c56647"
       id="path76-6"
       style="stroke-width:0.271542" />
    <path
       d="m 62.733122,31.280074 c -0.02542,0.02979 -2.280139,2.657392 -3.799987,3.34252 0.170012,-0.05151 0.345076,-0.1229 0.524239,-0.213242 0.04234,0.0116 0.08706,0.02349 0.132758,0.03541 1.402948,-0.914011 3.022099,-2.767285 3.247234,-3.028563 -0.0379,9.22e-4 -0.07581,0.0018 -0.112907,0.0036 0.02325,-0.0291 0.04614,-0.05886 0.06929,-0.08814 z"
       fill="#954b36"
       id="path77-5"
       style="stroke-width:0.271542" />
    <path
       d="m 55.873752,32.286273 c -0.064,-0.0033 -0.12749,-0.0066 -0.19065,-0.0098 0.173053,0.382494 0.708698,1.475994 1.446477,2.141299 0.08713,-0.0012 0.173191,-0.0023 0.258237,-0.0035 C 56.65859,33.837139 56.0899,32.743041 55.873752,32.286334 Z"
       fill="#954b36"
       id="path78"
       style="stroke-width:0.271542" />
    <path
       d="m 58.523161,32.028417 c 0.0039,0.101665 0.01165,0.230675 0.02365,0.395311 0.0043,0.05814 0.0075,0.100064 0.0075,0.113151 h 0.167758 c 0,-0.0145 -0.0032,-0.06087 -0.0079,-0.125398 -0.0059,-0.07902 -0.01778,-0.244414 -0.02365,-0.392297 -0.05043,0.01645 -0.09756,0.0235 -0.140414,0.01746 -0.0085,-0.0012 -0.01754,-0.004 -0.02694,-0.0082 z"
       fill="#954b36"
       id="path79"
       style="stroke-width:0.271542" />
    <path
       d="m 64.015397,33.650065 c 0,0 0.02952,-0.01569 0.06753,-0.04621 -0.149809,-0.18177 -0.720509,-0.805963 -1.521721,-0.843545 l -0.0079,0.167569 c 0.83768,0.03935 1.428419,0.817721 1.434394,0.825542 l 0.0229,0.0306 0.01669,0.0013 c -0.0016,-0.07851 -0.01193,-0.135201 -0.01193,-0.135201 z"
       fill="#954b36"
       id="path80"
       style="stroke-width:0.271542" />
    <path
       d="m 63.598635,32.529576 c -0.02099,-0.01559 -0.03389,-0.02481 -0.03389,-0.02481 0.213812,0 0.45839,0.1623 0.697863,0.380131 -0.243084,-0.320256 -0.721705,-0.708778 -1.650895,-0.867549 -0.01694,-0.003 -0.02884,-0.0048 -0.0347,-0.0062 l -0.02124,0.08111 -0.02208,0.08092 c 0.0071,0.0019 0.02409,0.0051 0.04974,0.0095 0.437427,0.07484 0.766481,0.201892 1.015186,0.346923 z"
       fill="#954b36"
       id="path81"
       style="stroke-width:0.271542" />
    <path
       d="m 63.646344,34.278089 c -0.160698,-0.52356 -1.098632,-0.759504 -1.13996,-0.769659 l -0.04003,0.162897 c 0.262879,0.06449 0.960308,0.315369 1.030095,0.697348 l 0.01067,-0.0019 c 0.0057,-0.06215 -0.0028,-0.109785 -0.0028,-0.109785 0,0 0.06039,0.02145 0.142016,0.02112 z"
       fill="#954b36"
       id="path82"
       style="stroke-width:0.271542" />
    <path
       d="m 53.283865,32.039442 c -0.01466,-0.01602 -0.02197,-0.06542 -0.02349,-0.140251 -0.438594,-0.05256 -0.868718,-0.104571 -0.897474,-0.10927 l -0.03137,0.1648 c 0.02481,0.0049 0.65724,0.08094 1.090322,0.132783 -0.07501,-0.01567 -0.122981,-0.03179 -0.137997,-0.04806 z"
       fill="#954b36"
       id="path83"
       style="stroke-width:0.271542" />
    <path
       d="m 53.964865,27.020801 -0.28778,-1.134612 c -0.03899,0.06794 -0.07878,0.139058 -0.119098,0.213134 l 0.336766,1.327515 c 0.02364,-0.138216 0.04714,-0.273932 0.07011,-0.406037 z"
       fill="#954b36"
       id="path84"
       style="stroke-width:0.271542" />
    <path
       d="m 53.970622,22.281006 0.05393,-0.158797 c -0.02962,-0.01006 -0.401095,-0.136206 -0.813704,-0.271759 -0.253728,-0.01534 -0.441526,-0.007 -0.441526,-0.007 -0.121624,-0.02734 -0.285092,-0.06484 -0.474656,-0.10753 0.534721,0.157602 1.663277,0.540749 1.675959,0.545039 z"
       fill="#954b36"
       id="path85"
       style="stroke-width:0.271542" />
    <path
       d="m 51.814062,23.397154 0.05586,-0.158202 c -0.09863,-0.03482 -0.285092,-0.131181 -0.43683,-0.214381 0.03615,0.04806 0.06542,0.07641 0.06542,0.07641 0,0 -0.07096,0.0145 -0.139655,0.07429 0.175823,0.09487 0.381218,0.195781 0.455213,0.221877 z"
       fill="#954b36"
       id="path86"
       style="stroke-width:0.271542" />
    <path
       d="m 51.55998,22.311528 c 0,0 -0.09335,0.0072 -0.169524,0.08645 l 0.673534,0.218512 0.05176,-0.159532 -0.958964,-0.311105 -2.56e-4,0.002 c 0.193254,0.06224 0.341217,0.118093 0.403455,0.163576 z"
       fill="#954b36"
       id="path87"
       style="stroke-width:0.271542" />
    <path
       d="m 51.716389,24.196817 0.086,-0.143997 -0.01268,-0.0072 c -0.13873,-0.07875 -0.259676,-0.153748 -0.358218,-0.221009 -1.9e-4,0 -0.07685,0.0245 -0.133897,0.111551 0.13816,0.09729 0.29837,0.192332 0.409323,0.25533 z"
       fill="#954b36"
       id="path88"
       style="stroke-width:0.271542" />
  </g>
</svg>
