<svg width="48" height="48" viewBox="0 0 48 48" fill="none" xmlns="http://www.w3.org/2000/svg">
<circle cx="24" cy="24" r="24" fill="#8AC65B"/>
<path d="M31.7397 32.7433C32.1394 32.5137 33.0194 31.8163 33.342 30.8639C33.6646 29.9114 33.376 28.8625 33.1914 28.457" stroke="#FAFAFA" stroke-linecap="round"/>
<path d="M33.305 35.8908C34.1448 35.4083 35.994 33.9429 36.6719 31.9415C37.3497 29.94 36.7434 27.7357 36.3555 26.8838" stroke="#FAFAFA" stroke-linecap="round"/>
<path d="M34.5905 39.0292C35.869 38.2946 38.6841 36.0638 39.716 33.0169C40.748 29.97 39.8249 26.6144 39.2344 25.3174" stroke="#FAFAFA" stroke-linecap="round"/>
<path d="M28.7514 25.3461C28.3612 25.3569 28.0506 25.6763 28.0506 26.0666V26.6278C28.0506 26.6917 28.0175 26.7529 27.9595 26.7863L27.6505 26.9614C27.5512 27.0198 27.5291 27.156 27.6036 27.245L27.885 27.5731C27.9457 27.6454 27.9457 27.7538 27.8767 27.8233L27.4657 28.2542C27.4132 28.3154 27.4022 28.4044 27.4436 28.4739C27.634 28.7992 27.7222 29.1411 27.7222 29.472C27.7222 30.6035 26.7235 31.6156 25.4681 31.4209L22.6263 30.9761L22.5459 31.8621C22.4523 32.8924 21.5886 33.6813 20.5541 33.6813H14.5179C13.2309 33.6813 12.2931 32.4821 12.418 31.2012C12.5036 30.3235 12.5259 29.4223 12.5144 28.3293C12.5033 27.612 12.2854 27.473 11.3308 26.1218C0.164876 10.3356 22.756 1.75299 27.8657 15.6292C28.3091 16.8286 28.2102 18.0838 27.8518 19.2919C27.6616 19.933 27.7177 20.6331 28.0914 21.1876L29.6701 23.5306C30.1778 24.2896 29.6591 25.3183 28.7514 25.3461Z" fill="#FAFAFA"/>
</svg>
