<svg width="164" height="118" viewBox="0 0 164 118" fill="none" xmlns="http://www.w3.org/2000/svg">
<rect width="164" height="118" rx="10" fill="#69ACFF"/>
<rect x="10" y="96" width="144" height="12" rx="6" fill="#2B4AB0"/>
<rect x="10.8984" y="97" width="9" height="10" rx="4.5" fill="#FAFAFA"/>
<path d="M83.3917 86.0001H71.9552H70.138V81.6883V80.2302V79.9725V78.9673H72.1521H74.1294H78.7652H82.0238H82.0367H83.7599H83.9477H85.6875V86.0001H83.3917Z" fill="#6F4659"/>
<path d="M87.3972 24.511C89.3027 23.7561 91.3095 24.6877 92.4472 26.3907C93.2481 27.5874 93.4303 29.0933 93.4138 30.533C93.3972 31.9727 93.3015 33.2835 93.7194 34.6606C95.507 40.5612 96.6172 38.873 97.0775 43.0705C97.1713 44.0187 97.1051 45.0312 96.5822 45.8266C96.0594 46.6219 94.9695 47.0987 94.1576 45.9186C93.9587 46.6937 93.6568 47.4614 93.1358 48.0708C92.6148 48.6802 91.8489 49.1147 91.048 49.0944C90.2472 49.0742 89.4463 48.5311 89.0763 47.5903C88.1778 48.7925 86.7382 49.5731 85.2414 49.6688C83.7446 49.7646 82.2165 49.1736 81.4231 48.0634C79.7698 48.9214 77.833 49.2215 75.9993 48.9011C74.1657 48.5808 72.4443 47.6437 71.0874 46.2224C70.2534 47.038 68.8211 46.9091 67.8582 46.25C66.8954 45.5909 66.2934 44.536 65.5698 43.6173C65.023 44.1181 64.1375 44.1236 63.4968 43.7517C62.8561 43.3798 62.4401 42.6986 62.2339 41.9862C62.0277 41.2737 62.0037 40.5244 61.7736 39.5946C61.6576 40.0015 61.1384 40.1967 60.7389 40.0567C60.3394 39.9168 60.0706 39.5265 59.9639 39.1178C59.8571 38.7091 59.8847 38.2783 60.0688 37.8254C61.0353 31.8383 65.0267 30.7779 66.8383 29.5941C68.9666 28.2041 69.9534 25.6359 71.5956 23.6954C74.4124 20.3723 79.4034 19.0983 83.4666 20.6669C85.4255 21.4235 87.296 23.0547 87.3972 24.511Z" fill="#A83246"/>
<mask id="mask0_960_4930" style="mask-type:luminance" maskUnits="userSpaceOnUse" x="59" y="20" width="39" height="30">
<path d="M87.3972 24.5111C89.3027 23.7563 91.3095 24.6878 92.4472 26.3908C93.2481 27.5875 93.4303 29.0934 93.4138 30.5331C93.3972 31.9728 92.67 33.72 93.2481 35.0382C94.8498 38.6871 96.9246 39.1713 97.0775 43.0725C97.1713 44.0206 97.1051 45.0332 96.5822 45.8285C96.0594 46.6239 94.9695 47.1007 94.1576 45.9206C93.9587 46.6957 93.6568 47.4634 93.1358 48.0728C92.6148 48.6821 91.8489 49.1166 91.048 49.0964C90.2472 49.0761 89.4463 48.533 89.0763 47.5923C88.1778 48.7945 86.7382 49.5751 85.2414 49.6708C83.7446 49.7665 82.2165 49.1755 81.4231 48.0654C79.7698 48.9233 77.833 49.2234 75.9993 48.9031C74.1657 48.5827 72.4443 47.6456 71.0874 46.2244C70.2534 47.0399 68.8211 46.9111 67.8582 46.252C66.8954 45.5929 66.2934 44.538 65.5698 43.6193C65.023 44.12 64.1375 44.1256 63.4968 43.7537C62.8561 43.3818 62.4401 42.7006 62.2339 41.9881C62.0277 41.2756 62.0037 40.5263 61.7736 39.5966C61.6576 40.0035 61.1384 40.1986 60.7389 40.0587C60.3394 39.9188 60.0706 39.5285 59.9639 39.1198C59.8571 38.7111 59.8847 38.2803 60.0688 37.8274C60.5088 35.5481 61.0685 33.0664 62.9003 31.6433C64.0712 30.7338 65.5974 30.4061 66.8383 29.5961C68.9666 28.2061 69.9534 25.6378 71.5956 23.6973C74.4124 20.3743 79.4034 19.1003 83.4666 20.6688C85.4255 21.4237 87.296 23.0548 87.3972 24.5111Z" fill="white"/>
</mask>
<g mask="url(#mask0_960_4930)">
<path d="M85.5499 32.4074C85.5499 32.4074 92.5035 42.4006 90.4305 49.6819C90.4305 49.6819 72.7878 53.7414 68.7154 50.5822C64.643 47.4229 64.1128 47.051 64.1128 47.051C64.1128 47.051 66.7013 38.3134 71.9758 34.8394C77.2063 31.3966 85.5499 32.4074 85.5499 32.4074Z" fill="#701934"/>
<path d="M93.4399 34.9239C93.0901 33.6794 93.4491 30.6527 93.1398 29.399C92.2561 25.8108 88.4359 24.7043 87.1398 25.0118C83.1853 18.3895 73.5032 22.7454 70.8687 24.1465C72.7134 22.1047 76.6569 19.2806 79.4075 19.2548C82.158 19.229 84.8993 20.4036 86.779 22.4104C87.1306 22.7859 87.4639 23.1965 87.9149 23.4413C88.5722 23.7967 89.3638 23.7433 90.0947 23.8942C91.6154 24.2091 92.8323 25.4334 93.4749 26.8454C94.1174 28.2575 94.2665 29.8445 94.2794 31.3983C94.2978 32.9503 94.1892 34.5097 93.4399 34.9239Z" fill="#C95559"/>
</g>
<path d="M69.2969 27.0278C69.2969 27.0278 67.4061 30.2036 64.5451 31.5126C61.6842 32.8216 58.5673 38.8621 61.3712 40.0385C61.3712 40.0385 59.729 40.6718 59.3055 38.1385C58.9668 36.1171 60.6348 32.5896 64.2837 30.8222C66.5924 29.7029 68.82 27.9686 69.2969 27.0278Z" fill="#C95559"/>
<path d="M93.9396 35.272C93.9396 35.272 94.8123 38.0501 96.1949 39.6702C97.4855 41.1836 99.3707 45.197 95.5966 46.5649C95.5966 46.5649 97.9384 44.5435 96.5815 42.128C95.2265 39.7107 93.9396 37.5015 93.9396 35.272Z" fill="#C95559"/>
<path d="M81.4619 46.0215L82.7617 50.9776C82.7617 50.9776 78.8845 56.5044 73.0023 50.1804L74.5746 44.8433C74.5746 44.8433 79.4755 46.5683 81.4619 46.0215Z" fill="#F18361"/>
<path d="M87.427 37.8859C87.427 37.8859 89.7431 34.688 90.8182 38.0681C91.5326 40.3142 89.8609 44.1786 86.3371 41.5459C86.3371 41.5459 87.0662 41.2182 87.3479 39.622C87.5872 38.2651 87.427 37.8859 87.427 37.8859Z" fill="#FBA07F"/>
<path d="M88.2029 43.3242C87.7088 43.3242 87.3082 42.9236 87.3082 42.4294C87.3082 41.9353 87.7088 41.5347 88.2029 41.5347C88.6971 41.5347 89.0977 41.9353 89.0977 42.4294C89.0977 42.9236 88.6971 43.3242 88.2029 43.3242Z" fill="#C0F0F0"/>
<path d="M70.8828 36.049C70.8828 36.049 67.8101 32.8713 67.3498 36.3895C67.0773 38.4754 68.4489 42.3416 71.9727 39.7089C71.9727 39.7089 71.2436 39.3812 70.9619 37.7851C70.7226 36.4282 70.8828 36.049 70.8828 36.049Z" fill="#FBA07F"/>
<path d="M69.3084 41.4892C68.8142 41.4892 68.4136 41.0886 68.4136 40.5945C68.4136 40.1003 68.8142 39.6997 69.3084 39.6997C69.8025 39.6997 70.2031 40.1003 70.2031 40.5945C70.2031 41.0886 69.8025 41.4892 69.3084 41.4892Z" fill="#C0F0F0"/>
<path d="M88.6617 32.1255C89.295 36.8883 88.2622 46.5814 80.2684 47.5259C76.2144 48.0045 73.3553 46.1101 71.586 43.6394C69.8168 41.1687 69.6179 37.0245 70.0101 34.0126C70.1887 32.6447 70.0009 32.8785 70.7667 31.7315C71.8033 30.1795 73.4565 29.1596 75.1006 28.2741C76.8367 27.3388 78.6464 26.4901 80.5813 26.1108C82.5163 25.7316 84.6022 25.8549 86.342 26.7828C88.0818 27.7107 88.2953 29.3676 88.6617 32.1255Z" fill="#F9AF88"/>
<path d="M88.9805 35.119C87.7875 34.5445 86.5871 33.6111 86.0919 32.3832C85.731 31.4884 85.0075 30.3083 85.5083 29.3068C84.087 31.03 81.5132 31.6965 79.3039 32.0315C77.0947 32.3666 75.0106 32.7256 72.7848 32.9097C72.1717 32.9594 71.5513 33.0349 70.9806 33.265C70.4099 33.4952 70.1337 33.9002 69.8778 34.4599C69.6642 33.543 69.8962 32.5691 70.6197 31.9689C71.3433 31.3687 72.2748 31.0797 73.1954 30.8827C75.1174 30.4703 77.0947 30.3948 79.0352 30.0837C80.9738 29.7744 82.9382 29.1926 84.4441 27.9297C84.724 27.694 84.9891 27.4344 85.3113 27.2632C85.6335 27.092 86.0348 27.0184 86.3643 27.1748C86.8209 27.3939 86.9829 27.9536 87.0603 28.4525C87.2444 29.6418 87.2296 30.8569 87.4635 32.037C87.6954 33.219 88.6031 34.2702 88.9805 35.119Z" fill="#F18361"/>
<path d="M73.1772 37.4846C74.4493 36.4499 75.5632 36.8089 76.4727 38.0682C75.7602 37.6171 75.2502 37.352 74.3831 37.3889C74.0204 37.4091 73.8749 37.4349 73.5159 37.4975C73.365 37.4975 72.8513 37.7202 73.1772 37.4846Z" fill="#2F3961"/>
<path d="M84.0127 38.4619C84.4122 38.6147 84.7031 38.959 84.9074 39.3235C84.9663 39.4303 85.0179 39.5408 85.0547 39.6568C84.9424 39.5518 84.819 39.4616 84.6938 39.3714C84.3035 39.0879 84.0771 38.9701 83.6592 38.8522C83.186 38.705 83.1124 38.6865 82.6742 38.6884C82.4183 38.7086 82.2434 38.7123 81.9728 38.8467C82.4459 38.2613 83.348 38.171 84.0127 38.4619Z" fill="#2F3961"/>
<path d="M84.1609 32.7787C84.9931 32.7216 85.5859 32.6829 86.1861 33.1506C86.9722 33.7636 87.0477 33.968 87.3312 34.6602C87.5227 34.2441 87.3165 33.4157 87.0642 33.0346C86.7163 32.5099 86.5211 32.2466 85.9246 32.0422C85.3281 31.8397 84.8071 31.7458 84.2106 31.9502C83.9842 32.0275 83.6344 32.1472 83.6086 32.4215C83.5884 32.6608 83.7872 32.8044 84.1609 32.7787Z" fill="#701934"/>
<path d="M76.8413 32.0111C76.0404 31.7791 75.4697 31.6152 74.783 31.9448C73.8846 32.3774 73.7686 32.5597 73.3433 33.1783C73.2457 32.7309 73.6213 31.965 73.949 31.6465C74.4001 31.2065 74.6468 30.9911 75.2727 30.9193C75.8987 30.8475 76.4289 30.8678 76.9665 31.1918C77.1727 31.317 77.4893 31.5066 77.4544 31.7809C77.4249 32.0184 77.2003 32.116 76.8413 32.0111Z" fill="#701934"/>
<path d="M79.447 39.2354C79.447 39.2354 79.7857 40.3105 79.0346 41.1721C79.0346 41.1721 80.2902 40.7082 79.447 39.2354Z" fill="#F18361"/>
<path d="M80.5117 42.796C80.5117 42.796 78.0871 43.8565 76.6621 42.0522C76.6621 42.0541 77.4758 44.3002 80.5117 42.796Z" fill="#C9102C"/>
<path d="M83.9699 42.3483C82.0635 42.3483 80.518 40.8193 80.518 38.9332C80.518 37.0471 82.0635 35.5181 83.9699 35.5181C85.8764 35.5181 87.4219 37.0471 87.4219 38.9332C87.4219 40.8193 85.8764 42.3483 83.9699 42.3483Z" stroke="#FAFAFA" stroke-width="0.552313" stroke-miterlimit="10"/>
<path d="M74.5598 40.8884C72.6533 40.8884 71.1078 39.3594 71.1078 37.4732C71.1078 35.5871 72.6533 34.0581 74.5598 34.0581C76.4662 34.0581 78.0117 35.5871 78.0117 37.4732C78.0117 39.3594 76.4662 40.8884 74.5598 40.8884Z" stroke="#FAFAFA" stroke-width="0.552313" stroke-miterlimit="10"/>
<path d="M81.4375 36.5141C80.4525 35.6065 78.9024 35.3708 77.691 35.9471" stroke="#FAFAFA" stroke-width="0.552313" stroke-miterlimit="10"/>
<path d="M71.4531 35.6892C70.8879 35.4867 70.3246 35.286 69.7594 35.0835" stroke="#FAFAFA" stroke-width="0.552313" stroke-miterlimit="10"/>
<path d="M87.0201 37.4971C87.6295 37.4308 88.2241 37.2449 88.7617 36.9521" stroke="#FAFAFA" stroke-width="0.552313" stroke-miterlimit="10"/>
<path d="M88.6621 36.7559C88.6621 36.1005 88.6971 35.2536 88.3307 34.6129C87.9644 33.9722 87.4452 33.4328 87.0291 32.8234C86.0239 31.3561 85.641 29.4764 86.0534 27.7606C85.8582 28.5025 85.1991 29.0235 84.5345 29.4065C81.6662 31.0597 78.1921 31.1002 74.915 31.5734C73.7975 31.7354 72.6653 31.96 71.6877 32.5233C70.7101 33.0867 69.9958 33.9612 69.8761 35.0842C68.812 32.2527 70.9476 29.307 73.4293 27.8361C74.9519 26.9339 76.7322 26.597 78.4462 26.1533C80.1086 25.7244 81.7564 25.1776 83.4667 25.0395C85.177 24.9014 87.0089 25.2199 88.3142 26.3356C89.1702 27.0665 89.741 28.0938 90.0558 29.1745C90.3706 30.2552 90.4442 31.3929 90.4222 32.5178C90.4074 33.28 90.3485 34.0514 90.1092 34.7731C89.8643 35.5003 89.474 36.2018 88.6621 36.7559Z" fill="#A83246"/>
<path d="M83.3914 85.9999C83.3822 84.5473 83.3914 83.08 83.5497 81.4746C83.5497 81.4746 83.5497 81.4733 83.5497 81.4709C83.5571 81.377 83.5663 81.2813 83.5773 81.1874C80.1401 82.0674 76.4912 81.7286 73.262 80.4841H73.2601C72.995 80.381 72.7373 80.2724 72.4777 80.1582H72.4722C72.4335 80.1398 72.3948 80.1232 72.358 80.1067C72.358 80.1067 72.3568 80.1067 72.3543 80.1067C72.3543 80.1067 72.3525 80.1048 72.3507 80.1067C72.2255 80.0496 72.1076 79.9925 71.9843 79.9336H71.9824L71.9383 79.9115C71.9401 79.9686 71.9401 80.0275 71.9401 80.0864C71.9419 80.0956 71.9419 80.1048 71.9419 80.114C71.9419 80.1472 71.9419 80.1822 71.9419 80.2171V80.2245C71.9419 80.2797 71.9456 80.3331 71.9456 80.3902C71.9512 80.7547 71.9548 81.1303 71.9567 81.5132C71.9659 82.9603 71.9585 84.4994 71.9548 85.9999H60.1151C60.0819 85.1493 60.2016 83.6194 60.3599 81.8593C60.4925 80.392 60.6527 78.7646 60.7779 77.2402C63.0663 49.4515 59.3897 56.9924 59.8978 55.9614C60.3931 54.958 61.2749 54.0706 62.3667 53.3011H62.3685C65.5001 51.0881 70.3642 49.8197 72.8441 49.4128H72.8459C72.9895 49.3889 73.1239 49.3686 73.2491 49.352C73.783 49.2747 74.1604 49.2508 74.3224 49.2766C75.3092 49.4312 74.8913 50.0277 75.0423 50.626C75.0809 50.777 75.1546 50.928 75.2963 51.0734C75.3626 51.1397 75.4418 51.206 75.5393 51.2686C77.7099 52.6751 80.7329 52.6125 82.7231 50.8249C82.7544 50.7991 82.7838 50.7715 82.8151 50.742C83.0582 50.7604 83.303 50.7807 83.546 50.8028C85.2711 50.9574 86.998 51.2354 88.5445 51.9958C89.3177 52.375 90.0431 52.8979 90.6359 53.5294C92.2707 54.6855 94.1597 57.1397 95.0378 58.9825C95.1152 59.1409 95.1833 59.2955 95.2422 59.4428C94.1762 61.3225 93.0624 65.1316 91.9688 68.1049C91.9707 68.1086 91.9707 68.1104 91.9688 68.1123C91.8123 68.5376 91.6558 68.9463 91.5012 69.3292C91.5527 70.0785 91.6117 70.8297 91.6706 71.5771C91.724 72.2638 91.7773 72.9726 91.8271 73.6962C91.9725 75.7802 92.1014 77.9895 92.2155 80.1785C92.3223 82.1742 92.4162 84.1515 92.4972 85.9999H83.3914Z" fill="#0A7AC4"/>
<path d="M91.3319 73.9264C91.0925 67.4386 90.6967 60.9581 89.8204 54.1426C91.3429 60.5328 92.1401 67.0943 92.1953 73.6632C91.6706 73.7073 91.1459 73.7534 91.3319 73.9264Z" fill="#0464AC"/>
<path d="M92.4366 57.3276L91.4922 67.7056C92.6483 64.3438 92.954 60.6949 92.4366 57.3276Z" fill="#0464AC"/>
<path d="M82.0453 48.413C82.4466 48.4461 82.5166 49.1789 82.616 49.5692C82.743 50.0718 82.7154 50.2246 82.8848 50.3277C83.2217 50.5302 83.4169 50.4161 83.5881 50.9058C84.5252 53.5955 83.4905 55.9263 83.2088 58.9162C83.1499 59.752 83.0928 60.5878 83.299 61.2709C83.4518 66.945 83.6028 72.6209 83.7556 78.295C83.7832 79.2947 83.7225 80.0477 83.6544 80.6975C83.6065 81.167 83.6875 81.6273 83.1499 81.8721C81.7047 82.5294 71.9416 82.1943 71.8901 81.4063C71.8238 80.4214 72.1092 79.2523 72.3835 77.7592C74.0202 68.8744 74.0036 58.8241 72.8106 49.8196C72.7591 49.3519 72.8382 49.5765 73.0997 48.8364C73.1659 48.6523 73.3905 47.7134 73.5489 47.5974C73.895 47.3452 74.1527 47.6766 74.4988 47.9288C76.4964 49.3851 79.4218 49.5489 82.0453 48.413Z" fill="#FE80AB"/>
<path d="M75.0478 50.6279C75.845 50.8083 76.4562 50.8323 77.4596 50.8875C78.428 50.963 79.3982 50.9427 80.3611 50.8249C80.8526 50.7586 81.5522 50.6905 82.1211 50.453C81.4178 50.9022 80.5949 51.1287 79.7922 51.3312C77.9603 51.7693 75.9554 51.5539 74.3132 50.6113C74.1862 50.5395 73.9542 50.4162 73.8953 50.3628C74.2764 50.4696 74.663 50.5451 75.0478 50.6279Z" fill="#D12863"/>
<path d="M101.138 46.7398C101.509 46.6072 101.931 46.8724 102.102 47.2277C102.274 47.583 102.257 47.9972 102.218 48.3912C102.18 48.7834 102.123 49.1865 102.227 49.5676C102.485 50.5176 103.57 50.93 104.289 51.602C105.433 52.6698 105.609 54.5403 104.897 55.9321C104.185 57.324 102.726 58.2426 101.195 58.5519C101.178 59.1705 101.16 59.7891 101.143 60.4077C101.125 61.0484 101.079 61.7553 100.624 62.2046C100.042 62.779 99.0922 62.6611 98.2969 62.4697C97.5641 62.2948 96.7909 62.061 96.3104 61.4792C95.7176 60.763 95.7433 59.7228 95.9201 58.8115C96.0968 57.8984 96.3987 56.9778 96.2146 56.0481C95.3825 54.2089 95.8888 51.8561 97.4003 50.5195C98.0483 49.9469 98.84 49.5621 99.5322 49.0429C100.224 48.5238 100.432 47.3971 101.138 46.7398Z" fill="#F9AF88"/>
<path fill-rule="evenodd" clip-rule="evenodd" d="M107.119 47.2458C106.747 47.2093 106.376 47.1579 106.008 47.0917C105.738 47.0432 105.485 46.9245 105.276 46.7473C105.066 46.5702 104.907 46.3409 104.814 46.0826C104.721 45.8243 104.698 45.5461 104.746 45.2759C104.795 45.0058 104.914 44.7532 105.092 44.5437C105.946 43.5361 106.53 42.3272 106.787 41.0312C106.835 40.7917 106.742 40.3708 106.258 39.9C102.821 36.5562 100.688 32.0208 100.688 27C100.688 16.5208 109.912 8.25 121 8.25C132.087 8.25 141.312 16.5208 141.312 27C141.312 37.4792 132.087 45.75 121 45.75C119.265 45.75 117.577 45.5479 115.965 45.1688C113.329 46.8252 110.216 47.556 107.119 47.2458Z" fill="#FAFAFA"/>
<path d="M121.002 14.75C119.186 14.7496 117.421 15.348 115.981 16.4526C114.54 17.5571 113.504 19.106 113.033 20.8593C112.562 22.6126 112.682 24.4723 113.375 26.1502C114.068 27.8281 115.296 29.2305 116.867 30.14C117.553 30.538 117.982 31.148 118.001 31.763C118.006 31.9277 118.065 32.0861 118.17 32.2138C118.274 32.3414 118.417 32.4311 118.578 32.469C118.93 32.552 119.288 32.617 119.652 32.664C119.975 32.705 120.252 32.446 120.252 32.12V27.459C119.936 27.4243 119.623 27.3671 119.315 27.288C119.219 27.2634 119.13 27.2203 119.051 27.1611C118.972 27.1019 118.906 27.0278 118.856 26.943C118.806 26.8582 118.773 26.7643 118.759 26.6668C118.745 26.5692 118.751 26.4699 118.775 26.3745C118.8 26.2791 118.843 26.1895 118.902 26.1107C118.961 26.032 119.036 25.9657 119.12 25.9156C119.205 25.8655 119.299 25.8326 119.397 25.8187C119.494 25.8049 119.593 25.8104 119.689 25.835C120.55 26.057 121.454 26.057 122.315 25.835C122.411 25.8072 122.512 25.7991 122.612 25.811C122.711 25.8229 122.807 25.8547 122.895 25.9045C122.982 25.9542 123.058 26.0209 123.119 26.1007C123.18 26.1804 123.224 26.2715 123.249 26.3686C123.274 26.4657 123.279 26.5669 123.264 26.6661C123.25 26.7653 123.215 26.8605 123.163 26.9461C123.111 27.0317 123.042 27.106 122.96 27.1646C122.879 27.2231 122.787 27.2648 122.689 27.287C122.381 27.3665 122.068 27.4239 121.752 27.459V32.119C121.752 32.446 122.029 32.705 122.352 32.664C122.716 32.617 123.074 32.552 123.426 32.469C123.586 32.4311 123.73 32.3414 123.834 32.2138C123.938 32.0861 123.998 31.9277 124.003 31.763C124.023 31.148 124.451 30.538 125.137 30.14C126.708 29.2305 127.935 27.8281 128.629 26.1502C129.322 24.4723 129.442 22.6126 128.971 20.8593C128.5 19.106 127.464 17.5571 126.023 16.4526C124.582 15.348 122.817 14.7496 121.002 14.75Z" fill="#FED401"/>
<path fill-rule="evenodd" clip-rule="evenodd" d="M118.013 34.283C118.031 34.1862 118.069 34.094 118.123 34.0116C118.177 33.9292 118.246 33.8582 118.328 33.8028C118.409 33.7474 118.501 33.7085 118.597 33.6885C118.694 33.6684 118.793 33.6676 118.89 33.686C120.284 33.9505 121.716 33.9505 123.11 33.686C123.208 33.6644 123.309 33.6627 123.408 33.681C123.507 33.6993 123.601 33.7372 123.684 33.7924C123.768 33.8476 123.84 33.9191 123.895 34.0026C123.951 34.0861 123.989 34.1799 124.008 34.2784C124.027 34.3769 124.026 34.4783 124.004 34.5763C123.983 34.6744 123.943 34.7672 123.885 34.8493C123.828 34.9314 123.754 35.0011 123.669 35.0543C123.584 35.1075 123.489 35.1431 123.39 35.159C121.811 35.4587 120.189 35.4587 118.61 35.159C118.415 35.1219 118.242 35.0088 118.13 34.8445C118.018 34.6803 117.976 34.4783 118.013 34.283ZM118.754 36.727C118.764 36.629 118.794 36.534 118.841 36.4474C118.888 36.3608 118.951 36.2843 119.028 36.2223C119.104 36.1603 119.192 36.1139 119.287 36.0859C119.381 36.0579 119.48 36.0487 119.578 36.059C120.523 36.1578 121.477 36.1578 122.422 36.059C122.62 36.0383 122.818 36.0971 122.972 36.2223C123.127 36.3476 123.225 36.5291 123.246 36.727C123.267 36.9248 123.208 37.1228 123.083 37.2773C122.957 37.4319 122.776 37.5303 122.578 37.551C121.529 37.6608 120.471 37.6608 119.422 37.551C119.324 37.5408 119.229 37.5113 119.142 37.4644C119.056 37.4174 118.979 37.3539 118.917 37.2774C118.855 37.2008 118.809 37.1129 118.781 37.0184C118.753 36.924 118.744 36.825 118.754 36.727Z" fill="#FED401"/>
<path d="M109.461 48.6912C107.894 48.2659 106.28 48.021 104.656 47.9658C104.194 47.9492 103.686 47.9658 103.336 48.2696C103.071 48.5015 102.949 48.8845 103.034 49.2269C103.117 49.5693 103.402 49.8529 103.774 49.9873C103.218 49.805 102.59 49.8547 102.069 50.1198C101.926 50.1935 101.786 50.2855 101.683 50.4089C101.535 50.5874 101.469 50.8286 101.493 51.0606C101.535 51.4693 101.867 51.8301 102.303 51.867C101.939 51.7234 101.491 51.8338 101.235 52.1284C100.979 52.423 100.933 52.8832 101.125 53.2238C101.289 53.5147 101.591 53.697 101.885 53.8571C102.931 54.4242 104.043 54.8697 105.166 55.2195C104.625 55.4828 104.006 55.5822 103.41 55.5012C103.091 55.457 102.773 55.3631 102.452 55.3889C102.132 55.4147 101.791 55.6061 101.725 55.9209C101.644 56.3112 102.001 56.6445 102.333 56.8672C103.124 57.3956 103.993 57.8062 104.905 58.0823C105.564 58.283 106.359 58.3843 106.871 57.9222C107.366 57.4766 107.36 56.6555 107.013 56.0885C106.665 55.5214 106.061 55.1643 105.457 54.855C105.715 54.9691 106.026 54.8936 106.25 54.7243C106.525 54.5162 106.69 54.1701 106.666 53.8277C106.642 53.4852 106.422 53.1612 106.013 52.8832C106.352 53.0544 106.712 53.2091 107.092 53.2293C107.471 53.2496 107.88 53.1078 108.093 52.793C108.312 52.469 108.285 52.0253 108.11 51.6755C107.935 51.3257 107.633 51.0587 107.224 50.7071C107.653 50.8397 108.117 50.8894 108.55 50.7752C108.984 50.6611 109.382 50.3665 109.555 49.9541C109.728 49.5362 109.64 49.0078 109.461 48.6912Z" fill="#FABE93"/>
<path d="M101.118 60.3819C101.87 60.1794 102.455 60.949 102.698 61.6891C102.941 62.4292 102.796 63.2337 102.646 63.9867C103.125 64.0843 103.495 64.4911 103.674 64.944C103.852 65.3969 103.869 65.8977 103.867 66.3856C103.854 69.6847 103.053 72.9802 101.551 75.9185C100.623 77.7338 99.362 79.4754 97.5541 80.4217C95.7462 81.368 93.305 81.3146 91.8653 79.8694C90.5821 78.5806 90.3777 76.5868 90.3906 74.7678C90.4256 69.843 91.5265 64.9275 93.5959 60.4574C93.7984 60.0192 94.0212 59.5719 94.3931 59.2681C94.7649 58.9643 95.4167 58.8594 95.8677 59.0361C95.8825 59.8554 96.4127 60.5476 97.1436 60.9195C97.8745 61.2914 98.7085 61.3871 99.5222 61.4773C99.953 61.5271 101.387 61.4332 101.118 60.3819Z" fill="#138ACF"/>
<path d="M95.0339 63.0328C96.4275 63.3605 97.8322 63.6551 99.2425 63.9C99.8887 64.0196 101.03 64.0436 101.91 64.0399C101.054 64.224 100.198 64.4468 99.3161 64.4633C97.5819 64.5002 95.8384 63.9847 94.4134 62.9905C94.3048 62.9169 94.198 62.8395 94.0912 62.7622C94.4024 62.8598 94.7172 62.95 95.0339 63.0328Z" fill="#0464AC"/>
<path d="M70.0484 59.6982L68.6823 61.3276L81.1223 63.2294C81.1223 63.2294 83.6518 63.5018 84.0495 62.6365C84.449 61.7713 84.9719 61.1214 83.65 60.5856C82.3281 60.0517 70.0484 59.6982 70.0484 59.6982Z" fill="#FAFAFA"/>
<path d="M83.0547 62.5117L81.9188 80.9056L69.0075 79.882C68.2196 79.8194 67.6212 79.1474 67.6507 78.3576L68.2472 62.1638C68.2748 61.4255 68.9247 60.8677 69.6593 60.9524L83.0547 62.5117Z" fill="#FED401"/>
<path opacity="0.37" d="M68.1858 63.9678C68.1858 63.9678 74.9645 78.3537 81.9531 80.8778C81.9531 80.8778 70.1226 80.5629 67.2506 79.7971L68.1858 63.9678Z" fill="#F2A905"/>
<path d="M80.0492 67.2837L80.1615 66.1183C80.191 65.8053 79.9627 65.5273 79.6497 65.4979L71.7774 64.7394C71.4644 64.7099 71.1864 64.9382 71.157 65.2512L71.0447 66.4166C71.0152 66.7295 71.2435 67.0075 71.5565 67.037L79.4288 67.7955C79.7417 67.8268 80.0197 67.5967 80.0492 67.2837Z" fill="#FFF582"/>
<path d="M84.0773 61.2136C84.2246 61.3241 84.3885 62.3882 82.9101 62.495L81.9215 80.9036C81.9215 80.9036 83.6189 81.3841 83.8785 80.1451L84.9389 62.1452C84.9389 62.1452 85.3127 60.8104 83.2212 60.3005C80.2498 59.5751 69.5644 59.3008 69.5644 59.3008C69.5644 59.3008 69.0065 59.5788 69.5073 59.8881C69.5055 59.8881 82.9782 60.387 84.0773 61.2136Z" fill="#F2A905"/>
<path d="M73.0235 78.1643C74.1944 77.4279 75.9286 77.2935 77.0056 76.616C78.9295 77.3911 81.1112 77.5108 83.1087 76.9511C83.4438 76.8572 83.8046 76.721 83.974 76.4154C84.1434 76.1097 83.9445 75.6182 83.626 75.5887C83.9629 75.4138 84.3312 75.2997 84.6589 75.1064C84.9866 74.9149 85.2848 74.6203 85.3529 74.2466C85.4211 73.8729 85.1707 73.4329 84.6791 73.4476C85.2572 73.3003 85.7819 72.9487 86.1372 72.4682C86.2698 72.2896 86.3839 72.0723 86.3416 71.8532C86.3048 71.6636 86.1556 71.5108 85.9844 71.4224C85.8132 71.3341 85.618 71.2991 85.4174 71.2089C85.8795 71.0487 86.2624 70.6787 86.4373 70.2221C86.5202 70.0067 86.5551 69.7563 86.452 69.5483C86.2974 69.2408 85.9089 69.1469 85.5683 69.1156C84.8466 69.0475 84.1139 69.1027 83.4235 69.2408C83.0387 69.3237 82.654 69.4083 82.271 69.4912C82.9872 69.1303 83.5892 68.5467 83.9703 67.8398C84.0697 67.6557 84.1544 67.4274 84.0568 67.2414C83.9022 66.9505 83.4751 67.015 83.1639 67.1218C82.1955 67.4513 81.229 67.7827 80.2625 68.1122C79.3751 68.416 78.4619 68.7327 77.7549 69.3494C77.1106 69.9109 76.6835 70.6823 76.0833 71.2936C75.0891 72.308 73.701 72.8143 72.3625 73.2911C72.7952 74.7547 72.5724 76.6436 73.0235 78.1643Z" fill="#F9AF88"/>
<path d="M76.5625 76.8261C76.5625 76.8261 73.6978 74.6463 73.6978 72.7905L73.0719 72.9268L73.7402 78.4223L76.5625 76.8261Z" fill="#F18361"/>
<path d="M62.7958 53.2145C67.7188 52.5591 69.442 57.5686 68.5178 63.6146C68.1496 66.0264 68.0299 69.2942 67.6838 71.5605C68.6559 71.5605 70.6921 71.5072 70.7915 72.319C71.1578 72.1736 71.5297 72.0245 71.9219 71.9858C72.314 71.9472 72.7356 72.03 73.0265 72.2951C73.334 72.575 73.4463 73.0058 73.5383 73.4108C73.8586 74.845 74.0759 76.3012 74.1882 77.7649C74.2361 78.3816 74.2434 79.0665 73.8458 79.5415C73.3376 80.1453 72.4208 80.1324 71.9329 80.0864C71.723 81.2076 70.4085 81.6936 69.2855 81.898C66.7504 82.3583 64.1416 82.419 61.5881 82.0766C60.1944 81.8906 58.7363 81.5445 57.7329 80.5596C56.6394 79.4862 56.2988 77.8716 56.1441 76.3472C55.5108 70.1429 56.8511 54.0062 62.7958 53.2145Z" fill="#138ACF"/>
<path d="M71.6713 75.9218C71.8131 76.7982 71.8536 77.9746 71.8039 78.7184C71.2479 76.789 70.9773 74.7859 71.0067 72.7773C71.1982 73.8323 71.4964 74.8651 71.6713 75.9218Z" fill="#0464AC"/>
<path fill-rule="evenodd" clip-rule="evenodd" d="M21.1875 69C21.1875 61.3712 27.3712 55.1875 35 55.1875C42.6287 55.1875 48.8125 61.3712 48.8125 69C48.8125 76.6287 42.6287 82.8125 35 82.8125C27.3712 82.8125 21.1875 76.6287 21.1875 69ZM41.0548 67.6074C41.303 67.7455 41.5097 67.9475 41.6537 68.1923C41.7976 68.4371 41.8735 68.716 41.8735 69C41.8735 69.284 41.7976 69.5629 41.6537 69.8077C41.5097 70.0525 41.303 70.2545 41.0548 70.3926L33.1172 74.8027C32.8747 74.9373 32.6012 75.0063 32.3238 75.0028C32.0464 74.9994 31.7748 74.9235 31.5357 74.7829C31.2965 74.6422 31.0983 74.4416 30.9605 74.2008C30.8227 73.9601 30.7502 73.6875 30.75 73.4101V64.5899C30.75 63.3758 32.0547 62.6066 33.1172 63.1973L41.0548 67.6074Z" fill="#FAFAFA"/>
</svg>
