<svg width="164" height="118" viewBox="0 0 164 118" fill="none" xmlns="http://www.w3.org/2000/svg">
<rect width="164" height="118" rx="10" fill="#FBD65B"/>
<path d="M128.527 56.2422H133.865C138.351 56.2422 142 59.9594 142 64.5284V74.5152C142 77.5112 139.609 79.9488 136.669 79.9488C135.503 79.9488 134.423 79.5642 133.544 78.9133V80.8558C133.544 81.5447 133.367 82.2293 132.876 82.7132C131.668 83.9058 128.605 86.0001 122 86.0001C115.383 86.0001 112.255 83.4703 111.063 82.1309C110.619 81.6323 110.456 80.971 110.456 80.3035V78.9134C109.577 79.5646 108.497 79.949 107.331 79.949C104.391 79.949 102 77.5116 102 74.5154V64.5286C102 59.9594 105.649 56.2422 110.135 56.2422H115.472H128.527Z" fill="#FAFAFA"/>
<path d="M110.456 78.9134C109.577 79.5646 108.497 79.949 107.331 79.949C104.391 79.949 102 77.5116 102 74.5154V64.5286C102 59.9594 105.649 56.2422 110.135 56.2422C110.135 56.2422 113.388 56.2422 115.472 56.2422H128.527C130.612 56.2422 133.865 56.2422 133.865 56.2422C138.351 56.2422 142 59.9594 142 64.5284V74.5152C142 77.5112 139.609 79.9488 136.669 79.9488C135.503 79.9488 134.423 79.5642 133.544 78.9133M110.456 78.9134V80.3035C110.456 80.971 110.619 81.6323 111.063 82.1309C112.255 83.4703 115.383 86.0001 122 86.0001C128.605 86.0001 131.668 83.9058 132.876 82.7132C133.367 82.2293 133.544 81.5447 133.544 80.8558V78.9133M110.456 78.9134V66.5003M133.544 78.9133V66.5003" stroke="#3F3F46" stroke-width="2" stroke-linecap="round"/>
<path d="M131.436 46.5611C131.436 51.8529 127.201 56.1221 122.001 56.1221C116.802 56.1221 112.566 51.8529 112.566 46.5611C112.566 41.2693 116.802 37 122.001 37C127.201 37 131.436 41.2693 131.436 46.5611Z" fill="#FAFAFA" stroke="#3F3F46" stroke-width="2"/>
<path fill-rule="evenodd" clip-rule="evenodd" d="M68.4906 55.9286C68.1151 55.8912 67.7413 55.8386 67.3699 55.7708C67.0972 55.7212 66.8422 55.5996 66.6305 55.4182C66.4189 55.2368 66.2581 55.0021 66.1643 54.7376C66.0705 54.4731 66.047 54.1882 66.0963 53.9116C66.1455 53.635 66.2657 53.3764 66.4448 53.1619C67.3074 52.1302 67.8965 50.8923 68.1563 49.5654C68.2047 49.3201 68.1101 48.8892 67.6223 48.4071C64.153 44.9833 62 40.3394 62 35.1985C62 24.4687 71.3102 16 82.5 16C93.6898 16 103 24.4687 103 35.1985C103 45.9283 93.6898 54.397 82.5 54.397C80.7486 54.397 79.0455 54.1901 77.4181 53.8018C74.758 55.4979 71.6167 56.2463 68.4906 55.9286Z" fill="#FAFAFA" stroke="#3F3F46" stroke-width="2"/>
<path d="M48.5275 56.2422H53.8654C58.3509 56.2422 62 59.9594 62 64.5284V74.5152C62 77.5112 59.6085 79.9488 56.6691 79.9488C55.5029 79.9488 54.4227 79.5642 53.5445 78.9133V80.8558C53.5445 81.5447 53.3665 82.2293 52.8762 82.7132C51.6677 83.9058 48.6051 86.0001 42 86.0001C35.3826 86.0001 32.2552 83.4703 31.0631 82.1309C30.6193 81.6323 30.4555 80.971 30.4555 80.3035V78.9134C29.5771 79.5646 28.4971 79.949 27.3309 79.949C24.3915 79.949 22 77.5116 22 74.5154V64.5286C22 59.9594 25.6491 56.2422 30.1346 56.2422H35.4725H48.5275Z" fill="#FAFAFA"/>
<path d="M30.4555 78.9134C29.5771 79.5646 28.4971 79.949 27.3309 79.949C24.3915 79.949 22 77.5116 22 74.5154V64.5286C22 59.9594 25.6491 56.2422 30.1346 56.2422C30.1346 56.2422 33.3879 56.2422 35.4725 56.2422H48.5275C50.6121 56.2422 53.8654 56.2422 53.8654 56.2422C58.3509 56.2422 62 59.9594 62 64.5284V74.5152C62 77.5112 59.6085 79.9488 56.6691 79.9488C55.5029 79.9488 54.4227 79.5642 53.5445 78.9133M30.4555 78.9134V80.3035C30.4555 80.971 30.6193 81.6323 31.0631 82.1309C32.2552 83.4703 35.3826 86.0001 42 86.0001C48.6051 86.0001 51.6677 83.9058 52.8762 82.7132C53.3665 82.2293 53.5445 81.5447 53.5445 80.8558V78.9133M30.4555 78.9134V66.5003M53.5445 78.9133V66.5003" stroke="#3F3F46" stroke-width="2" stroke-linecap="round"/>
<path d="M51.436 46.5611C51.436 51.8529 47.2006 56.1221 42.0012 56.1221C36.8018 56.1221 32.5664 51.8529 32.5664 46.5611C32.5664 41.2693 36.8018 37 42.0012 37C47.2006 37 51.436 41.2693 51.436 46.5611Z" fill="#FAFAFA" stroke="#3F3F46" stroke-width="2"/>
<rect x="10" y="96" width="144" height="12" rx="6" fill="#CA8A04"/>
<rect x="10.8984" y="97" width="9" height="10" rx="4.5" fill="#FAFAFA"/>
</svg>
