<svg width="164" height="118" viewBox="0 0 164 118" fill="none" xmlns="http://www.w3.org/2000/svg">
<rect width="164" height="118" rx="10" fill="#F36889"/>
<path d="M45.5292 36.0005H118.471C118.763 36.0005 119 36.2374 119 36.5297V84.4706C119 84.7628 118.763 84.9997 118.471 84.9997H85.3842C84.5346 84.1064 83.3327 83.547 81.9999 83.547C80.6671 83.547 79.4652 84.1064 78.6157 84.9997H45.5292C45.2369 84.9997 45 84.7628 45 84.4706V36.5297C45 36.2374 45.2369 36.0005 45.5292 36.0005Z" fill="#FFB1D2" stroke="#3F3F46" stroke-width="2"/>
<path d="M114.885 36.5297C114.885 36.3482 114.866 36.1711 114.829 36.0005H118.472C118.764 36.0005 119.001 36.2374 119.001 36.5297V84.4706C119.001 84.7628 118.764 84.9997 118.472 84.9997H114.829C114.866 84.8291 114.885 84.6521 114.885 84.4706V36.5297Z" fill="#FFB1D2" stroke="#3F3F46" stroke-width="2"/>
<path d="M49.9922 43.1895H114.007V80.2473H49.9922V43.1895Z" fill="#DEE3E7" stroke="#3F3F46" stroke-width="2"/>
<path d="M80.9997 78.8446C80.7676 78.7005 80.5114 78.5471 80.2315 78.3868C78.6865 77.5019 76.4168 76.4077 73.4906 75.5479C67.8768 73.8986 59.8765 73.1222 49.9922 76.2999V34.2361C50.0311 34.22 50.0718 34.2033 50.1145 34.1859C50.5826 33.9951 51.275 33.7284 52.1591 33.4311C53.9285 32.8361 56.4597 32.1206 59.4934 31.6436C65.4223 30.7114 73.2169 30.698 80.9997 34.2183V78.8446Z" fill="#EAEEF1" stroke="#3F3F46" stroke-width="2"/>
<path d="M80.9983 34.555V76.9408C80.0283 75.4292 78.6699 73.544 76.8831 71.5693C72.8374 67.0982 66.5725 62.1449 57.6367 60.0678V15.706C65.8323 17.7267 71.6161 22.3109 75.4001 26.4928C77.3833 28.6847 78.8111 30.7597 79.7411 32.2829C80.2058 33.0441 80.5453 33.666 80.767 34.094C80.8688 34.2904 80.9456 34.4459 80.9983 34.555Z" fill="#FAFAFA" stroke="#3F3F46" stroke-width="2"/>
<path d="M81.0024 34.3082L81.0024 34.3088L81.0024 34.309L81.0021 34.3199V34.3316V69.9218C80.969 69.833 80.9354 69.7441 80.9011 69.655C78.728 64.0003 74.278 57.7963 65.2852 55.6189V11.2637C73.1452 13.3418 77.0598 18.8165 79.0343 23.9542C80.0741 26.66 80.5676 29.2591 80.8001 31.1857C80.9161 32.1472 80.9665 32.9366 80.988 33.4818C80.9988 33.7543 81.0023 33.9655 81.0031 34.1063C81.0035 34.1767 81.0033 34.2295 81.003 34.2635L81.0026 34.3003L81.0024 34.3079L81.0024 34.3082Z" fill="#EAEEF1" stroke="#3F3F46" stroke-width="2"/>
<path d="M113.885 34.1859C113.928 34.2033 113.969 34.22 114.007 34.2361V76.2999C104.123 73.1222 96.1229 73.8986 90.509 75.5479C87.5828 76.4077 85.3132 77.5019 83.7681 78.3868C83.4883 78.5471 83.2321 78.7005 83 78.8446V34.2183C90.7827 30.698 98.5773 30.7114 104.506 31.6436C107.54 32.1206 110.071 32.8361 111.841 33.4311C112.725 33.7284 113.417 33.9951 113.885 34.1859Z" fill="#EAEEF1" stroke="#3F3F46" stroke-width="2"/>
<path d="M83.0039 78.4817V34.7443C83.0492 34.7003 83.1001 34.6514 83.1567 34.5979C83.4498 34.3203 83.8941 33.9181 84.4866 33.4326C85.6719 32.4611 87.4477 31.1582 89.7893 29.853C94.2957 27.3412 100.895 24.8226 109.424 24.6382V69.0561C100.492 69.2411 93.5611 71.8793 88.8155 74.5244C86.3559 75.8953 84.4825 77.2684 83.2188 78.304C83.1451 78.3644 83.0735 78.4237 83.0039 78.4817Z" fill="#FAFAFA" stroke="#3F3F46" stroke-width="2"/>
<rect x="10" y="96" width="144" height="12" rx="6" fill="#B43855"/>
<rect x="10.8984" y="97" width="9" height="10" rx="4.5" fill="#FAFAFA"/>
</svg>
