<svg width="164" height="118" viewBox="0 0 164 118" fill="none" xmlns="http://www.w3.org/2000/svg">
<rect width="164" height="118" rx="10" fill="#F69F4E"/>
<rect x="0.668129" y="1.26801" width="46.9762" height="48.9548" rx="7" transform="matrix(0.9511 0.308882 -0.282971 0.959128 89.8095 9.84545)" fill="#FAFAFA" stroke="#3F3F46" stroke-width="2"/>
<path d="M100.707 58.2325C109.306 61.0253 118.369 55.9653 121.003 47.037C123.637 38.1087 118.884 28.562 110.284 25.7692C101.685 22.9763 92.6225 28.0363 89.9884 36.9646C87.3542 45.893 92.1072 55.4397 100.707 58.2325Z" fill="#FF8C8C" stroke="#3F3F46" stroke-width="2"/>
<path d="M110.003 26.7293C109.274 26.4923 108.54 26.3157 107.807 26.1969C114.506 29.5664 118.021 37.6649 115.758 45.3341C113.495 53.0032 106.235 57.6024 98.8925 56.4117C99.5613 56.748 100.262 57.0374 100.992 57.2744C109.031 59.8852 117.565 55.1639 120.054 46.7291C122.542 38.2943 118.042 29.3401 110.003 26.7293Z" fill="#FF7878"/>
<path d="M104.843 44.2206C102.604 43.4936 100.228 43.7255 98.1526 44.8736C97.1893 45.4066 97.9781 46.9681 98.9415 46.4354C100.618 45.5077 102.538 45.3201 104.345 45.9072C106.153 46.4944 107.636 47.7867 108.52 49.5461C109.028 50.5569 110.52 49.7357 110.012 48.725C108.917 46.5474 107.082 44.9477 104.843 44.2206Z" fill="#3F3F46"/>
<path d="M103.209 40.0298C104.039 40.2994 104.607 39.1846 104.075 38.5858L100.663 34.7426C99.9208 33.9061 98.6867 35.1077 99.4292 35.9442L102.841 39.7874C102.945 39.9047 103.072 39.9857 103.209 40.0298Z" fill="#3F3F46"/>
<path d="M113.399 38.8785L108.514 40.0274C107.422 40.2842 107.869 41.9898 108.885 41.7504L113.77 40.6015C114.833 40.3514 114.462 38.6281 113.399 38.8785Z" fill="#3F3F46"/>
<rect x="1.21013" y="0.698266" width="47.9741" height="50.0953" rx="7" transform="matrix(0.962682 -0.270636 0.247447 0.968901 27.8724 35.8741)" fill="#FAFAFA" stroke="#3F3F46" stroke-width="2"/>
<path d="M62.7754 70.7422C71.6472 68.248 76.8475 58.711 74.4959 49.5028C72.1442 40.2946 63.0956 34.7632 54.2237 37.2574C45.3518 39.7515 40.1515 49.2886 42.5032 58.4968C44.8549 67.705 53.9035 73.2363 62.7754 70.7422Z" fill="#A6F5CF" stroke="#3F3F46" stroke-width="2"/>
<path d="M54.4721 38.2255C53.7185 38.4374 52.9927 38.7038 52.2975 39.0197C59.8359 38.1063 67.0748 43.0991 69.0977 51.0199C71.1206 58.9406 67.2308 67.062 60.2671 70.2255C61.0197 70.1343 61.7753 69.9844 62.5289 69.7725C70.8318 67.4384 75.759 58.4842 73.5342 49.7727C71.3093 41.0611 62.775 35.8914 54.4721 38.2255Z" fill="#8AEDBD"/>
<path d="M54.469 52.7952C54.5918 53.2761 55.0638 53.5614 55.5232 53.4322C55.9826 53.3031 56.2555 52.8084 56.1326 52.3275C55.641 50.4023 53.7474 49.2559 51.9115 49.772C50.0756 50.2881 48.982 52.2743 49.4737 54.1995C49.5965 54.6804 50.0686 54.9657 50.528 54.8365C50.9874 54.7074 51.2602 54.2127 51.1374 53.7318C50.891 52.767 51.4378 51.7721 52.3563 51.5138C53.2749 51.2556 54.2226 51.8304 54.469 52.7952Z" fill="#3F3F46"/>
<path d="M65.6052 50.5992C66.0646 50.4701 66.3375 49.9754 66.2147 49.4945C65.723 47.5693 63.8294 46.4229 61.9935 46.939C60.1577 47.4551 59.0641 49.4413 59.5557 51.3665C59.6786 51.8474 60.1506 52.1327 60.61 52.0035C61.0694 51.8744 61.3423 51.3797 61.2194 50.8987C60.973 49.934 61.5198 48.9391 62.4384 48.6808C63.3569 48.4226 64.3046 48.9974 64.551 49.9622C64.6738 50.4431 65.1459 50.7284 65.6052 50.5992Z" fill="#3F3F46"/>
<path d="M60.6374 62.337C62.9496 61.687 64.8829 60.1297 66.0811 57.9523C66.3186 57.5206 66.1771 56.9693 65.7653 56.7209C65.3532 56.4726 64.8267 56.6212 64.5892 57.0529C63.6211 58.8122 62.0597 60.0702 60.1926 60.5951C58.3255 61.12 56.3738 60.8496 54.6969 59.8339C54.2855 59.5848 53.7588 59.7321 53.5202 60.1633C53.2818 60.5945 53.422 61.1461 53.8335 61.3954C55.9089 62.6526 58.3253 62.987 60.6374 62.337Z" fill="#3F3F46"/>
<rect x="10" y="96" width="144" height="12" rx="6" fill="#C07027"/>
<rect x="10.8984" y="97" width="9" height="10" rx="4.5" fill="#FAFAFA"/>
</svg>
