<?xml version="1.0" encoding="utf-8"?>
<!-- Generator: Adobe Illustrator 25.4.1, SVG Export Plug-In . SVG Version: 6.00 Build 0)  -->
<svg version="1.1" id="Layer_1" xmlns="http://www.w3.org/2000/svg" xmlns:xlink="http://www.w3.org/1999/xlink" x="0px" y="0px"
	 viewBox="0 0 92.2 300" style="enable-background:new 0 0 92.2 300;" xml:space="preserve">
<style type="text/css">
	.st0{fill:none;stroke:#020203;stroke-width:5;stroke-linecap:round;stroke-linejoin:round;stroke-miterlimit:10;}
</style>
<path class="st0" d="M5.7,201.3c0,0,2.2-14.2,3.2-18.6c2.2-9.5,9.5-51.2,15.2-75.9c7.9-34,17-69.7,25.3-103.2
	C58.8,26.7,67.9,69.1,69,73.4c8.8,34.3,12.2,67.6,16,102.9c0.9,8.4,0.9,10.5,2.2,18.8l0.9,6.2"/>
<path class="st0" d="M29.4,100.6c-0.6,0-1.1,0-1.7,0c14.9,0,28.9-0.2,43.8,0.2c-0.4,0-0.8,0-1.2,0"/>
</svg>
