<?xml version="1.0" encoding="utf-8"?>
<svg version="1.1" id="Layer_2" x="0px" y="0px" viewBox="0 0 100 300" style="enable-background:new 0 0 97.07 300;" xmlns="http://www.w3.org/2000/svg">
  <style type="text/css">
	.st0{fill:none;stroke:#000000;stroke-width:5;stroke-linecap:round;stroke-linejoin:round;stroke-miterlimit:10;}
</style>
  <path class="st0" d="M 65.59 117.5 C 48.59 105.05 41.39 104.02 30.13 110.26 C 18.66 116.61 8.77 135.08 6.26 154.03 C 4.47 167.49 7.63 183.22 19.9 190.98 C 31.73 198.46 46.48 192.33 50.9 187.1 C 58.81 177.73 64.55 170.1 65.46 157.87 C 66.37 145.65 66.79 133.41 65.93 121.18 C 65.58 116.17 65.23 111.17 64.87 106.16 C 65.56 124.32 66.25 142.48 66.94 160.64 C 67.26 169.2 67.73 178.22 72.34 185.44 C 76.95 192.66 87.26 196.99 94.38 192.22" style="stroke-width: 10px;"/>
</svg>