<?xml version="1.0" encoding="utf-8"?>
<svg version="1.1" id="Layer_2" x="0px" y="0px" viewBox="0 0 100.6 100.3" style="enable-background:new 0 0 97.07 300;" xmlns="http://www.w3.org/2000/svg">
  <defs/>
  <style type="text/css">
	.st0{fill:none;stroke:#000000;stroke-width:5;stroke-linecap:round;stroke-linejoin:round;stroke-miterlimit:10;}
</style>
  <path class="st0" d="M 65.78 17.258 C 48.78 4.808 41.58 3.778 30.32 10.018 C 18.85 16.368 8.96 34.838 6.45 53.788 C 4.66 67.248 7.82 82.978 20.09 90.738 C 31.92 98.218 46.67 92.088 51.09 86.858 C 59 77.488 64.74 69.858 65.65 57.628 C 66.56 45.408 66.98 33.168 66.12 20.938 C 65.77 15.928 65.42 10.928 65.06 5.918 C 65.75 24.078 66.44 42.238 67.13 60.398 C 67.45 68.958 67.92 77.978 72.53 85.198 C 77.14 92.418 87.45 96.748 94.57 91.978" style="stroke-width: 12px;"/>
</svg>