<?xml version="1.0" encoding="utf-8"?>
<svg version="1.1" id="Layer_2" x="0px" y="0px" viewBox="0 0 102 300" style="enable-background:new 0 0 97.07 300;" xmlns="http://www.w3.org/2000/svg">
  <style type="text/css">
	.st0{fill:none;stroke:#000000;stroke-width:5;stroke-linecap:round;stroke-linejoin:round;stroke-miterlimit:10;}
</style>
  <path class="st0" d="M 66.59 117.5 C 49.59 105.05 42.39 104.02 31.13 110.26 C 19.66 116.61 9.77 135.08 7.26 154.03 C 5.47 167.49 8.63 183.22 20.9 190.98 C 32.73 198.46 47.48 192.33 51.9 187.1 C 59.81 177.73 65.55 170.1 66.46 157.87 C 67.37 145.65 67.79 133.41 66.93 121.18 C 66.58 116.17 66.23 111.17 65.87 106.16 C 66.56 124.32 67.25 142.48 67.94 160.64 C 68.26 169.2 68.73 178.22 73.34 185.44 C 77.95 192.66 88.26 196.99 95.38 192.22" style="stroke-width: 12px;"/>
</svg>