<?xml version="1.0" encoding="utf-8"?>
<svg id="Layer_2" data-name="Layer 2" viewBox="0 0 100.57 100.32" xmlns="http://www.w3.org/2000/svg">
  <defs>
    <style>
      .cls-1 {
        fill: #000;
        stroke-width: 0px;
      }
    </style>
  </defs>
  <path class="cls-1" d="M32.39,100.32c-5.13,0-10.49-1.25-15.51-4.43C1.87,86.4-1.43,67.55.5,53.08,3.3,31.9,14.37,12.07,27.41,4.85c10.94-6.06,19.38-6.16,31.65.86.14-3.04,2.57-5.53,5.66-5.7,3.29-.18,6.08,2.29,6.31,5.56.36,5.01.71,10.02,1.06,15.03.48,6.87.6,14.13.36,22.2l.66,17.45c.33,8.92.87,16.18,4.46,21.8,1.82,2.86,5.09,5.14,8.32,5.81,1.44.3,3.54.41,5.33-.79,2.75-1.85,6.48-1.11,8.32,1.64,1.84,2.75,1.11,6.48-1.64,8.32-4.1,2.75-9.23,3.66-14.46,2.57-6.42-1.34-12.39-5.49-15.98-11.1-1.65-2.59-2.85-5.32-3.73-8.11-2.34,3.51-5.08,6.88-8.06,10.41-3.89,4.6-13.13,9.51-23.28,9.51ZM42.25,12.38c-3.09,0-5.78,1.17-9.02,2.97-9.61,5.32-18.57,22.22-20.83,39.31-1.44,10.79.68,24.62,10.9,31.09,8.87,5.61,20.44.6,23.21-2.68,7.44-8.82,12.38-15.38,13.16-25.8.38-5.14.65-9.92.79-14.42l-.86-22.56c-8.17-5.74-13.13-7.91-17.35-7.91Z" style="fill: rgb(217, 217, 217);"/>
</svg>