<?xml version="1.0" encoding="utf-8"?>
<!-- Generator: Adobe Illustrator 25.4.1, SVG Export Plug-In . SVG Version: 6.00 Build 0)  -->
<svg version="1.1" id="Layer_2" xmlns="http://www.w3.org/2000/svg" xmlns:xlink="http://www.w3.org/1999/xlink" x="0px" y="0px"
	 viewBox="0 0 97.07 300" style="enable-background:new 0 0 97.07 300;" xml:space="preserve">
<style type="text/css">
	.st0{fill:none;stroke:#000000;stroke-width:5;stroke-linecap:round;stroke-linejoin:round;stroke-miterlimit:10;}
</style>
<path class="st0" d="M64.59,117.5c-17-12.45-24.2-13.48-35.46-7.24c-11.47,6.35-21.36,24.82-23.87,43.77
	c-1.79,13.46,1.37,29.19,13.64,36.95c11.83,7.48,26.58,1.35,31-3.88c7.91-9.37,13.65-17,14.56-29.23
	c0.91-12.22,1.33-24.46,0.47-36.69c-0.35-5.01-0.7-10.01-1.06-15.02c0.69,18.16,1.38,36.32,2.07,54.48
	c0.32,8.56,0.79,17.58,5.4,24.8c4.61,7.22,14.92,11.55,22.04,6.78"/>
</svg>
