<?xml version="1.0" encoding="utf-8"?>
<!-- Generator: Adobe Illustrator 25.4.1, SVG Export Plug-In . SVG Version: 6.00 Build 0)  -->
<svg version="1.1" id="Layer_2_00000109028509887737941560000012681198502865293977_"
	 xmlns="http://www.w3.org/2000/svg" xmlns:xlink="http://www.w3.org/1999/xlink" x="0px" y="0px" viewBox="0 0 71.8 300"
	 style="enable-background:new 0 0 71.8 300;" xml:space="preserve">
<style type="text/css">
	.st0{fill:none;stroke:#000000;stroke-width:5;stroke-linecap:round;stroke-linejoin:round;stroke-miterlimit:10;}
</style>
<path class="st0" d="M66,115.7c-9.9-10.4-22.4-15.9-36.1-10.6C0.3,116.6,3.6,153.7,4,159.5c1.2,15.7,8.9,34.7,29.4,36.6
	c13.2,1.2,18.3-2.9,22.6-7.8c4.6-5.2,8.9-15,10.3-24.3c2.7-18.7,0.9-60.3,0.7-61.6l0.4,16.1l0.6,23.3l-0.1,45.8
	c0,0,0.9,45.1-1.4,67.4c-1.3,12.5-3,37.3-26.1,39.8c-32.2,3.6-33.1-29.3-33-31.2"/>
</svg>
