<?xml version="1.0" encoding="utf-8"?>
<!-- Generator: Adobe Illustrator 25.4.1, SVG Export Plug-In . SVG Version: 6.00 Build 0)  -->
<svg version="1.1" id="Layer_2_00000109028509887737941560000012681198502865293977_"
	 xmlns="http://www.w3.org/2000/svg" xmlns:xlink="http://www.w3.org/1999/xlink" x="0px" y="0px" viewBox="0 0 89.2 300"
	 style="enable-background:new 0 0 89.2 300;" xml:space="preserve">
<style type="text/css">
	.st0{fill:none;stroke:#000000;stroke-width:5;stroke-linecap:round;stroke-linejoin:round;stroke-miterlimit:10;}
</style>
<path class="st0" d="M76.9-12.2"/>
<path class="st0" d="M65,116.7c-21.7-24.7-43.5-11.8-52,4.2c-6.5,12.3-11.2,31.3-6.4,46.7c4.5,14.3,14.9,31.1,37,27
	c17.4-3.2,21.2-27.8,22.3-39.5c0,0,1-52.4,1-53.4c0,0-1,61.8-1,95.8c0,19.5,1,38.8,1,58.2c0,13.4-0.5,26,1.9,39.3
	c9.1-15.8,8.3-14.4,16.1-26.8"/>
</svg>
