<?xml version="1.0" encoding="utf-8"?>
<svg version="1.1" id="Layer_1" x="0px" y="0px" viewBox="0 0 2550 1700" style="enable-background:new 0 0 2550 1700;" xmlns="http://www.w3.org/2000/svg">
  <defs/>
  <g transform="matrix(1, 0, 0, 1, -901.098816, -812.075623)">
    <path style="fill:#FFAF8A;" d="M1243.168,1166.446c0,0-18.201,13.521-36.922,14.041c-18.721,0.52-45.242-17.161-45.242-17.161&#10;&#9;&#9;l2.85-42.039l1.311-19.324l69.683-0.52c0,0,1.789,24.129,2.455,36.755c0.063,0.998,0.104,1.934,0.146,2.766&#10;&#9;&#9;C1237.968,1152.405,1243.168,1166.446,1243.168,1166.446z"/>
    <path style="fill:#B27142;" d="M1312.84,1410.78l1.868,34.647c0,0,18.597,22.27,31.616,59.175&#10;&#9;&#9;c12.705,36.016,22.931,116.146,22.931,116.146l-289.934,1.58c0,0-4.322-73.908,13.939-120.353&#10;&#9;&#9;c10.474-26.639,25.249-53.398,25.249-53.398l4.671-21.26L1312.84,1410.78z"/>
    <path style="fill:#E56B54;" d="M1159.45,1138.108c0,0,21.674,16.748,44.334,15.763c22.659-0.985,31.526-15.763,31.526-15.763&#10;&#9;&#9;s51.23-0.985,81.771-13.793c30.541-12.807,59.112-36.452,59.112-36.452l-81.279-79.555l33.004-37.684&#10;&#9;&#9;c0,0,65.023,16.748,106.401,55.171c41.378,38.423,53.201,66.008,23.645,109.357c-29.556,43.349-136.943,140.883-136.943,140.883&#10;&#9;&#9;s6.836,92.437,5.851,125.934c-0.985,33.497-12.784,35.474-24.606,39.415c-11.822,3.941-153.952,13.722-153.952,13.722&#10;&#9;&#9;l-33.199,49.495c0,0-34.482-23.645-64.038-55.171c-29.556-31.526-50.245-67.979-40.393-105.416&#10;&#9;&#9;c9.852-37.438,48.64-136.073,68.344-161.688C1098.733,1156.711,1159.45,1138.108,1159.45,1138.108z"/>
    <path style="fill:#FFAF8A;" d="M1122.013,1494.749c0,0,27.914,24.958,37.766,28.242c9.852,3.284,24.302-0.985,26.272-1.97&#10;&#9;&#9;c1.97-0.985,11.494-1.314,14.121-3.941s2.299-7.882-3.612-13.793c-5.911-5.911-49.67-47.207-49.67-47.207L1122.013,1494.749z"/>
    <g>
      <path d="M1173.557,1493.137c7.638,8.443,15.447,19.013,26.297,23.466c1.279,0.525,2.042-1.507,0.919-2.181&#10;&#9;&#9;&#9;c-10.106-6.06-17.54-14.445-25.551-22.951C1174.178,1490.363,1172.544,1492.017,1173.557,1493.137L1173.557,1493.137z"/>
    </g>
    <g>
      <path d="M1164.144,1499.752c6.233,8.693,14.375,16.364,23.975,21.227c1.468,0.744,2.725-1.358,1.297-2.22&#10;&#9;&#9;&#9;c-9.013-5.439-16.797-11.789-23.159-20.243C1165.328,1497.282,1163.216,1498.458,1164.144,1499.752L1164.144,1499.752z"/>
    </g>
    <g>
      <path d="M1150.504,1503.72c6.124,10.445,16.915,19.472,29.29,20.888c1.406,0.161,1.536-1.953,0.319-2.359&#10;&#9;&#9;&#9;c-11.534-3.848-20.954-9.099-27.575-19.718C1151.738,1501.249,1149.733,1502.406,1150.504,1503.72L1150.504,1503.72z"/>
    </g>
    <g>
      <path d="M1143.991,1283.233c-13.804,32.551-28.957,64.474-45.647,95.647c-0.238,0.444-0.294,1.036,0,1.476&#10;&#9;&#9;&#9;c16.654,24.918,33.307,49.838,49.971,74.75c1.058,1.581,3.632,0.096,2.565-1.5c-13.124-19.621-26.255-39.238-39.386-58.854&#10;&#9;&#9;&#9;c-2.716-4.058-6.484-8.299-8.529-12.741c-0.312-0.677-1.876-2.05-1.897-2.833c-0.07-2.689,6.34-11.192,7.74-13.901&#10;&#9;&#9;&#9;c13.676-26.469,26.227-53.489,37.644-81.006C1147.033,1282.874,1144.587,1281.829,1143.991,1283.233L1143.991,1283.233z"/>
    </g>
    <g>
      <path d="M1094.965,1372.434c-10.148,2.183-21.345,7.511-28.908,14.676c-1.087,1.03,0.328,2.911,1.614,2.091&#10;&#9;&#9;&#9;c9.209-5.87,17.614-10.594,27.982-14.273C1097.215,1374.373,1096.605,1372.081,1094.965,1372.434L1094.965,1372.434z"/>
    </g>
    <g>
      <path d="M1090.887,1379.892c-1.997,2.259-3.994,4.518-5.991,6.777c-1.821,2.061-4.014,4.074-5.369,6.472&#10;&#9;&#9;&#9;c-0.818,1.448,0.983,2.569,2.152,1.66c2.187-1.7,3.91-4.251,5.696-6.363c1.842-2.178,3.684-4.355,5.526-6.533&#10;&#9;&#9;&#9;C1094.073,1380.521,1092.111,1378.508,1090.887,1379.892L1090.887,1379.892z"/>
    </g>
    <g>
      <path d="M1315.916,1229.782c2.204,18.656,3.581,37.33,4.311,56.099c0.075,1.924,3.062,1.937,3.002,0&#10;&#9;&#9;&#9;c-0.585-18.895-2.262-37.71-4.818-56.436C1318.22,1228.042,1315.748,1228.358,1315.916,1229.782L1315.916,1229.782z"/>
    </g>
    <g>
      <path d="M1378.132,1089.547c9.466-2.427,19.528-4.933,28.355-9.206c1.331-0.644,0.389-2.726-0.99-2.349&#10;&#9;&#9;&#9;c-9.45,2.579-18.627,6.301-28.073,8.987C1375.776,1087.447,1376.468,1089.973,1378.132,1089.547L1378.132,1089.547z"/>
    </g>
    <g>
      <path d="M1382.948,1091.427c3.837,2.838,8.75,5.937,13.57,6.626c1.314,0.188,2.491-1.712,1.008-2.392&#10;&#9;&#9;&#9;c-2.246-1.029-4.639-1.647-6.877-2.727c-2.235-1.078-4.335-2.376-6.349-3.82&#10;&#9;&#9;&#9;C1382.89,1088.103,1381.582,1090.416,1382.948,1091.427L1382.948,1091.427z"/>
    </g>
    <g>
      <path d="M1186.134,1189.062c7.328,11.373,29.152,7.327,40.455,6.162c18.311-1.888,36.485-7.999,49.834-21.096&#10;&#9;&#9;&#9;c1.279-1.255-0.527-3.29-1.875-2.077c-11.368,10.231-24.572,16.29-39.591,19.022c-7.613,1.385-15.345,1.948-23.076,2.075&#10;&#9;&#9;&#9;c-7.119,0.117-18.909,1.631-23.555-5.211C1187.455,1186.652,1185.265,1187.714,1186.134,1189.062L1186.134,1189.062z"/>
    </g>
    <path style="fill:#FFAF8A;" d="M1255.62,996.148c0,0,21.126,56.445,15.89,77.632c-5.236,21.187-25.756,39.601-51.76,40.923&#10;&#9;&#9;c-26.005,1.322-48.736-4.249-58.375-14.262c-9.639-10.013-19.089-55.247-19.089-55.247s3.635-17.71,8.483-28.051&#10;&#9;&#9;c5.713-12.188,14.346-34.776,14.346-34.776s8.688-9.792,32.045-12.335c23.357-2.543,40.285,6.975,46.52,8.811&#10;&#9;&#9;C1249.913,980.678,1255.62,996.148,1255.62,996.148z"/>
    <path d="M1223.115,1004.303c4.548,3.139,8.462,4.797,13.834,6.168c4.321,1.103,9.43,2.211,13.516,0.038&#10;&#9;&#9;c0.867-0.461,1.025-1.997-0.13-2.3c-6.449-1.693-12.827-3.647-19.105-5.898c-1.516-0.544-7.579-3.819-9.22-0.759&#10;&#9;&#9;C1221.465,1002.57,1222.281,1003.727,1223.115,1004.303z"/>
    <path d="M1177.239,1017.588c-3.456,4.397-6.737,7.182-11.509,10.14c-3.838,2.379-8.435,5.005-13.015,4.176&#10;&#9;&#9;c-0.972-0.176-1.578-1.596-0.555-2.24c5.715-3.596,11.284-7.418,16.669-11.496c1.3-0.985,6.175-5.976,8.661-3.551&#10;&#9;&#9;C1178.316,1015.424,1177.872,1016.782,1177.239,1017.588z"/>
    <g>
      <path style="fill:#F9A280;" d="M1216.177,1033.434c2.594,6.55,5.412,13.342,7.075,20.205c1.017,4.196-2.5,6.042-5.995,7.681&#10;&#9;&#9;&#9;c-1.399,0.656-2.373-1.534-0.978-2.189c2.989-1.402,5.011-2.37,4.337-5.978c-0.408-2.184-1.413-4.453-2.124-6.547&#10;&#9;&#9;&#9;c-1.394-4.104-2.907-8.165-4.504-12.195C1213.421,1032.98,1215.608,1031.999,1216.177,1033.434L1216.177,1033.434z"/>
    </g>
    <path style="fill:#E56B54;" d="M1256.536,1043.876c-3.339-1.469-7.217-1.672-10.691-0.558c-3.473,1.114-6.511,3.534-8.372,6.671&#10;&#9;&#9;c-0.909,1.532-1.554,3.297-1.38,5.07c0.24,2.449,2.05,4.549,4.248,5.656c2.198,1.106,4.734,1.348,7.194,1.268&#10;&#9;&#9;c4.144-0.134,8.686-1.433,10.833-4.981c0.7-1.157,1.092-2.477,1.344-3.805c0.34-1.787,0.436-3.656-0.053-5.408&#10;&#9;&#9;C1259.17,1046.038,1257.995,1044.518,1256.536,1043.876z"/>
    <path style="fill:#E56B54;" d="M1155.225,1058.556c2.938-2.163,6.678-3.207,10.311-2.878c3.633,0.328,7.125,2.027,9.627,4.682&#10;&#9;&#9;c1.222,1.297,2.236,2.879,2.454,4.647c0.3,2.442-1.007,4.887-2.911,6.447c-1.903,1.559-4.326,2.349-6.743,2.808&#10;&#9;&#9;c-4.074,0.774-8.79,0.498-11.659-2.495c-0.936-0.976-1.606-2.178-2.143-3.419c-0.722-1.67-1.224-3.473-1.129-5.289&#10;&#9;&#9;C1153.127,1061.241,1153.942,1059.501,1155.225,1058.556z"/>
    <path style="fill:#FFFFFF;" d="M1182.163,1044.58c-2.973,1.385-6.178,2.103-9.456,2.211c-1.951,0.064-3.938-0.119-5.757-0.827&#10;&#9;&#9;c-1.943-0.757-4.152-2.325-4.524-4.513c1.523-3.172,5.502-4.228,8.555-5.863c2.536-1.358,5.352-2.344,8.209-2.171&#10;&#9;&#9;c2.743,0.165,9.207,6.272,9.306,6.421C1188.515,1039.866,1185.186,1043.171,1182.163,1044.58z"/>
    <path d="M1176.647,1033.545c-1.586,0.118-3.034,1.128-3.866,2.483c-0.832,1.355-1.088,3.014-0.908,4.594&#10;&#9;&#9;c0.107,0.942,0.372,1.888,0.934,2.651c0.805,1.094,2.122,1.689,3.429,2.061c1.867,0.53,3.941,0.679,5.696-0.151&#10;&#9;&#9;c2.887-1.366,4.057-5.15,3.16-8.215c-0.407-1.388-1.214-2.721-2.473-3.433c-0.768-0.435-1.657-0.614-2.538-0.667&#10;&#9;&#9;C1178.511,1032.771,1176.919,1033.063,1176.647,1033.545z"/>
    <g>
      <path d="M1159.034,1039.254c0.453,0.75,1.02,1.38,1.743,1.879c0.568,0.392,1.533,1.001,2.221,0.612&#10;&#9;&#9;&#9;c0.073-0.041,0.103-0.164,0.03-0.222c-0.23-0.187-0.443-0.24-0.724-0.328c-0.43-0.135-0.842-0.338-1.223-0.576&#10;&#9;&#9;&#9;c-0.669-0.417-1.313-0.936-1.843-1.52C1159.14,1038.991,1158.958,1039.129,1159.034,1039.254L1159.034,1039.254z"/>
    </g>
    <g>
      <path d="M1160.283,1037.015c0.642,0.841,1.406,1.525,2.341,2.025c0.71,0.379,1.768,0.885,2.549,0.467&#10;&#9;&#9;&#9;c0.091-0.049,0.096-0.195,0.002-0.245c-0.766-0.402-1.669-0.435-2.459-0.85c-0.805-0.423-1.588-0.955-2.249-1.579&#10;&#9;&#9;&#9;C1160.343,1036.715,1160.185,1036.886,1160.283,1037.015L1160.283,1037.015z"/>
    </g>
    <g>
      <path d="M1162.882,1034.88c0.568,0.904,1.282,1.73,2.192,2.308c0.661,0.42,1.901,0.858,2.453,0.089&#10;&#9;&#9;&#9;c0.102-0.143-0.004-0.343-0.155-0.389c-0.375-0.115-0.732,0.014-1.115-0.074c-0.425-0.098-0.812-0.336-1.158-0.592&#10;&#9;&#9;&#9;c-0.646-0.479-1.234-1.082-1.751-1.695C1163.133,1034.27,1162.704,1034.598,1162.882,1034.88L1162.882,1034.88z"/>
    </g>
    <g>
      <g>
        <path d="M1163.043,1044.924c0.957-4.396,5.814-9.288,11.203-10.115c4.903-0.753,10.027,0.957,12.866,4.331&#10;&#9;&#9;&#9;&#9;c1.087,1.292,1.983-0.564,0.936-1.847c-3.323-4.072-10.254-5.288-15.909-3.945c-5.847,1.389-10.321,6.465-10.365,11.55&#10;&#9;&#9;&#9;&#9;C1161.767,1045.609,1162.891,1045.62,1163.043,1044.924L1163.043,1044.924z"/>
      </g>
    </g>
    <path style="fill:#FFFFFF;" d="M1233.829,1035.088c3.261,0.347,6.526-0.012,9.662-0.972c1.866-0.572,3.687-1.388,5.178-2.648&#10;&#9;&#9;c1.593-1.345,3.174-3.545,2.818-5.736c-2.469-2.507-6.576-2.217-9.993-2.775c-2.839-0.463-5.823-0.483-8.469,0.606&#10;&#9;&#9;c-2.541,1.045-6.678,8.917-6.724,9.09C1226.291,1032.687,1230.512,1034.735,1233.829,1035.088z"/>
    <path d="M1241.974,1022.178c1.538-0.402,3.235,0.084,4.462,1.096c1.226,1.012,2.006,2.499,2.348,4.052&#10;&#9;&#9;c0.204,0.925,0.26,1.906-0.025,2.81c-0.408,1.296-1.461,2.286-2.576,3.06c-1.595,1.107-3.508,1.92-5.437,1.703&#10;&#9;&#9;c-3.174-0.357-5.507-3.557-5.651-6.748c-0.065-1.445,0.267-2.967,1.227-4.05c0.585-0.66,1.368-1.118,2.185-1.454&#10;&#9;&#9;C1239.96,1022.05,1241.56,1021.811,1241.974,1022.178z"/>
    <g>
      <path d="M1254.257,1023.912c-0.302,0.7-0.726,1.368-1.198,1.966c-0.261,0.331-0.559,0.638-0.889,0.901&#10;&#9;&#9;&#9;c-0.26,0.208-0.516,0.333-0.697,0.623c-0.057,0.092-0.015,0.205,0.095,0.225c0.776,0.144,1.497-0.762,1.906-1.314&#10;&#9;&#9;&#9;c0.521-0.704,0.844-1.483,1.03-2.336C1254.537,1023.831,1254.314,1023.782,1254.257,1023.912L1254.257,1023.912z"/>
    </g>
    <g>
      <path d="M1251.841,1020.736c-0.408,0.774-0.949,1.498-1.541,2.142c-0.623,0.678-1.478,1.018-2.103,1.656&#10;&#9;&#9;&#9;c-0.082,0.084-0.061,0.233,0.07,0.251c0.875,0.125,1.691-0.672,2.24-1.26c0.73-0.781,1.235-1.68,1.573-2.691&#10;&#9;&#9;&#9;C1252.133,1020.674,1251.918,1020.59,1251.841,1020.736L1251.841,1020.736z"/>
    </g>
    <g>
      <path d="M1248.363,1019.496c-0.308,0.788-0.688,1.583-1.184,2.27c-0.252,0.349-0.562,0.703-0.953,0.899&#10;&#9;&#9;&#9;c-0.311,0.156-0.624,0.155-0.91,0.362c-0.137,0.099-0.129,0.323,0.005,0.419c0.734,0.525,1.742-0.254,2.219-0.818&#10;&#9;&#9;&#9;c0.72-0.85,1.135-1.912,1.389-2.982C1249.007,1019.316,1248.483,1019.19,1248.363,1019.496L1248.363,1019.496z"/>
    </g>
    <g>
      <g>
        <path d="M1252.029,1029.218c-2.33-3.849-8.51-6.903-13.876-5.939c-4.883,0.877-9.176,4.154-10.768,8.266&#10;&#9;&#9;&#9;&#9;c-0.61,1.575-2.059,0.109-1.484-1.445c1.824-4.929,7.987-8.325,13.772-8.887c5.981-0.58,11.859,2.772,13.548,7.569&#10;&#9;&#9;&#9;&#9;C1253.457,1029.452,1252.398,1029.827,1252.029,1029.218L1252.029,1029.218z"/>
      </g>
    </g>
    <g>
      <path style="fill:#E56B54;" d="M1211.396,1033.247c0.017,4.015,1.471,7.635,2.951,11.305c0.819,2.03,1.651,4.081,2.11,6.238&#10;&#9;&#9;&#9;c0.141,0.664,0.559,1.847,0.321,2.456c-0.285,0.731-1.224,0.59-2.015,0.567c-4.885-0.142-4.749,7.418,0.185,7.182&#10;&#9;&#9;&#9;c5.895-0.282,9.126-4.251,7.51-10.585c-1.585-6.214-5.118-11.982-7.949-17.637&#10;&#9;&#9;&#9;C1213.82,1031.395,1211.388,1031.367,1211.396,1033.247L1211.396,1033.247z"/>
    </g>
    <g>
      <path d="M1292.5,1101.443c-2.948-13.449-7.5-7.979-11.471-26.814c-3.705-17.573-7.879-53.644-12.612-70.97&#10;&#9;&#9;&#9;c-11.452-41.93-49.344-67.196-93.273-55.128c-23.673,6.503-41.912,26.548-51.108,48.335c-10.016,23.729-6.174,51.713,2.373,75.299&#10;&#9;&#9;&#9;c3.996,11.028,9.25,21.599,15.441,31.584c2.753,4.44,5.63,7.863,6.177,13.155c0.156,1.509,0.031,12.646-3.241,12.183&#10;&#9;&#9;&#9;c6.042,0.856,10.246,6.61,10.969,12.439c0.723,5.829-1.296,11.678-3.602,17.165c-0.485,1.153-0.993,2.391-0.724,3.595&#10;&#9;&#9;&#9;c0.21,0.941,0.869,1.718,1.524,2.44c18.626,20.53,48.755,25.069,75.352,21.218c28.005-4.055,57.441-17.021,65.838-46.041&#10;&#9;&#9;&#9;c1.95-6.739,2.595-13.714,2.372-20.708C1296.301,1112.416,1293.951,1108.062,1292.5,1101.443z M1219.242,1115.394&#10;&#9;&#9;&#9;c-37.814,6.614-62.563-20.086-71.229-51.545c-1.286-4.67-3.455-9.475-2.793-14.33c5.178-37.971,25.714-70.515,59.644-74.707&#10;&#9;&#9;&#9;c33.93-4.192,54.399,23.036,58.764,60.634c1.123,9.67,4.603,21.879,3.054,31.257&#10;&#9;&#9;&#9;C1262.21,1093.791,1250.201,1109.979,1219.242,1115.394z"/>
      <path d="M1155.615,1137.536c5.709-4.28,10.709-10.942,9.408-17.516c-0.128-0.646-0.329-1.254-0.578-1.837&#10;&#9;&#9;&#9;c-3.468-8.123-18.021-10.307-25.297-11.786c-8.153-1.656-16.305-3.313-24.457-4.97c-10.244-2.082-20.726-4.173-31.071-2.802&#10;&#9;&#9;&#9;c-10.344,1.371-20.708,6.888-24.933,16.252c3.43-0.792,6.991-1.237,10.49-0.767c7.383,0.993,13.588,5.882,18.967,10.974&#10;&#9;&#9;&#9;c5.379,5.092,10.536,10.705,17.292,13.822c4.055,1.871,8.497,2.746,12.908,3.477c2.878,0.476,5.804,0.887,8.736,1.157&#10;&#9;&#9;&#9;c0.709-0.274,6.745,0.3,7.454,0.026C1141.165,1141.009,1148.495,1134.662,1155.615,1137.536z"/>
      <path d="M1160.731,1134.257c-0.679-0.533-1.444-0.929-2.273-1.219c-7.251-2.536-19.601,3.559-26.086,6.429&#10;&#9;&#9;&#9;c-0.694,0.307-1.388,0.615-2.082,0.921c-6.86,3.036-13.72,6.073-20.58,9.109c-9.492,4.201-19.184,8.524-26.95,15.01&#10;&#9;&#9;&#9;c-7.766,6.486-13.374,15.658-11.932,23.993c2.398-2.368,5.085-4.584,8.201-6.174c6.575-3.355,14.226-3.557,21.306-3.181&#10;&#9;&#9;&#9;c7.08,0.376,14.25,1.209,21.423-0.435c4.306-0.987,8.408-2.826,12.408-4.743c6.092-2.919,12.22-6.193,17.392-10.248&#10;&#9;&#9;&#9;c2.788-2.185,5.302-4.593,7.374-7.302C1163.508,1150.431,1166.899,1139.098,1160.731,1134.257z"/>
    </g>
    <g>
      <path d="M1216.153,1033.219c2.594,6.551,5.412,13.342,7.075,20.205c1.017,4.196-2.5,6.042-5.995,7.682&#10;&#9;&#9;&#9;c-1.399,0.656-2.373-1.534-0.978-2.189c2.989-1.402,5.011-2.37,4.337-5.978c-0.408-2.184-1.413-4.453-2.124-6.547&#10;&#9;&#9;&#9;c-1.394-4.105-2.907-8.165-4.504-12.195C1213.397,1032.765,1215.584,1031.784,1216.153,1033.219L1216.153,1033.219z"/>
    </g>
    <g>
      <path d="M1233.42,1078.651c-7.746-0.166-17.107,2.259-22.248,8.48c-0.916,1.109,0.266,3.066,1.654,2.144&#10;&#9;&#9;&#9;c6.688-4.443,12.236-7.829,20.594-7.845C1235.211,1081.427,1235.209,1078.689,1233.42,1078.651L1233.42,1078.651z"/>
    </g>
    <path style="fill:#FFAF8A;" d="M1326.934,972.594c0,0-19.211-20.689-38.423-26.108s-51.23-5.665-52.708,0.985&#10;&#9;&#9;c-1.453,6.54,11.822,2.463,19.704,5.419c7.881,2.956,10.344,4.926,10.344,4.926s-25.615,5.911-30.049,11.33&#10;&#9;&#9;c-4.433,5.419,14.285,2.463,14.285,2.463s-7.389,0.985-6.896,3.941c0.493,2.956,12.315,1.97,12.315,1.97s-6.896,1.97-4.926,3.941&#10;&#9;&#9;c1.97,1.97,11.132-0.739,16.748-0.739c6.157,0,15.517,2.463,20.443,6.896s15.763,12.561,15.763,12.561L1326.934,972.594z"/>
    <g>
      <path d="M1246.634,973.185c8.646-2.642,17.355-4.557,26.281-5.958c0.771-0.121,0.598-1.479-0.186-1.376&#10;&#9;&#9;&#9;c-8.988,1.184-17.828,3.267-26.439,6.087C1245.505,972.195,1245.833,973.429,1246.634,973.185L1246.634,973.185z"/>
    </g>
    <g>
      <path d="M1253.002,978.341c3.713,0.287,7.143-1.541,10.601-2.704c4.7-1.581,9.323-2.65,14.316-2.546&#10;&#9;&#9;&#9;c0.949,0.02,0.942-1.427,0-1.47c-3.911-0.178-7.596,0.427-11.351,1.513c-4.329,1.251-8.99,4.03-13.566,3.853&#10;&#9;&#9;&#9;C1252.124,976.952,1252.142,978.274,1253.002,978.341L1253.002,978.341z"/>
    </g>
    <g>
      <path d="M1164.227,1467.679c21.951,5.412,48.573-0.113,71.332-2.195c25.501-2.333,54.867-2.161,78.992-9.967&#10;&#9;&#9;&#9;c2.174-0.703,1.095-2.998-1.157-2.474c-23.431,5.451-48.15,6.528-72.233,8.74c-23.09,2.121-52.933,8.485-75.16,3.289&#10;&#9;&#9;&#9;C1163.684,1464.53,1161.875,1467.099,1164.227,1467.679L1164.227,1467.679z"/>
    </g>
    <g>
      <path d="M1235.682,1466.37c3.107,49.39,4.884,99.221,10.064,148.452c0.174,1.657,2.825,1.732,2.771,0&#10;&#9;&#9;&#9;c-1.533-49.457-6.539-99.092-10.156-148.452C1238.241,1464.742,1235.578,1464.721,1235.682,1466.37L1235.682,1466.37z"/>
    </g>
    <g>
      <path d="M1223.995,1467.204c1.002,16.625,2.068,33.595,4.595,50.078c1.223,7.974,1.965,24.375,12.721,26.435&#10;&#9;&#9;&#9;c1.849,0.354,2.638-2.354,0.782-2.704c-4.226-0.797-7.398-8.811-8.285-12.232c-0.588-2.27-1.09-4.553-1.538-6.852&#10;&#9;&#9;&#9;c-1.323-6.795-2.081-13.676-2.744-20.553c-1.098-11.386-1.903-22.806-3.207-34.172&#10;&#9;&#9;&#9;C1226.161,1465.817,1223.908,1465.755,1223.995,1467.204L1223.995,1467.204z"/>
    </g>
  </g>
</svg>