<?xml version="1.0" encoding="utf-8"?>
<!-- Generator: Adobe Illustrator 25.4.1, SVG Export Plug-In . SVG Version: 6.00 Build 0)  -->
<svg version="1.1" id="Layer_2_00000109028509887737941560000012681198502865293977_"
	 xmlns="http://www.w3.org/2000/svg" xmlns:xlink="http://www.w3.org/1999/xlink" x="0px" y="0px" viewBox="0 0 93.7 300"
	 style="enable-background:new 0 0 93.7 300;" xml:space="preserve">
<style type="text/css">
	.st0{fill:none;stroke:#000000;stroke-width:5;stroke-linecap:round;stroke-linejoin:round;stroke-miterlimit:10;}
</style>
<path class="st0" d="M3.9,101.5l0.1,18c-0.3,9.1,0.1,27,0.1,27c0,10.3,1.5,25.3,5.2,33c4.9,10.1,11.5,15,22.5,16.4
	c5.3,0.7,12.7-0.1,17.1-2.5c5.4-2.9,9.8-7.5,12-12.9c6-14.9,6.4-35.7,7-46.7c0.5-10.3,0.6-23.4,0.9-32.5c0,2.6-0.1,5.9-0.1,8.6
	c-0.1,4.4,0.1,9.4,0.1,13.8c-0.1,4.8-1,22.9-1,33.8c0,12,0.9,28.5,12,35.6c3.7,2.4,7.4,2.9,9.5,2.6"/>
</svg>
