<svg width="40" height="40" viewBox="0 0 40 40" fill="none" xmlns="http://www.w3.org/2000/svg">
<g clip-path="url(#clip0_1591_642)">
<circle cx="20" cy="20" r="20" fill="#FDE7A1"/>
<path d="M14.116 20.6881C14.116 20.6881 10.4686 20.8967 8.02017 24.6679C5.57177 28.4391 5.52462 35.2258 6.94022 37.3388C8.35582 39.4516 10.7213 39.0225 10.7213 39.0225C10.7213 39.0225 8.44039 46.0839 10.8889 47.2071C13.3374 48.3302 28.7176 47.8435 29.7506 46.9075C30.7836 45.9715 30.204 39.1546 30.204 39.1546C30.204 39.1546 32.7238 38.6784 33.3987 37.085C34.5548 34.3559 34.0737 24.6239 31.207 22.2808C29.2911 20.7149 26.9716 20.5089 26.9716 20.5089C26.9716 20.5089 30.1933 16.3833 21.6082 16.3833C11.773 16.3832 12.1501 19.4874 14.116 20.6881Z" fill="#6A5B8E"/>
<path d="M18.9225 23.0442L18.9355 22.7798C15.6226 22.6241 14.4347 21.2044 14.1102 20.6882C14.0965 20.6891 13.9924 20.6967 13.8164 20.7237C14.0735 21.2031 15.2292 22.8705 18.9225 23.0442Z" fill="#594E7C"/>
<path d="M26.9719 20.5087C26.9719 20.5087 26.9871 20.4892 27.0119 20.4539C26.5662 21.0145 25.3648 22.2371 23.2188 22.4763L23.2494 22.7394C25.6026 22.4771 26.8532 21.1172 27.279 20.5508C27.0841 20.5187 26.9719 20.5087 26.9719 20.5087Z" fill="#594E7C"/>
<path d="M18.171 20.6178C18.1491 20.6112 16.0059 19.6965 16.0924 18.9347C16.1081 18.7964 16.1373 18.5391 18.1979 18.3447C19.308 18.24 20.7567 18.1833 21.9801 18.1975C24.124 18.2218 24.1886 18.424 24.2232 18.5326C24.3815 19.0282 23.2701 19.9645 22.9258 20.2396L22.7548 20.0346C23.3743 19.5394 23.9996 18.8753 23.9695 18.632C23.5695 18.3929 19.5142 18.3953 17.3805 18.7068C16.5412 18.8292 16.386 18.9471 16.3603 18.9746C16.3362 19.4205 17.8831 20.2268 18.2563 20.3666L18.171 20.6178Z" fill="#594E7C"/>
<path d="M18.2088 22.5776L18.0898 28.2849L18.3603 28.2904L18.4787 22.6146C18.3885 22.6033 18.2987 22.5901 18.2088 22.5776Z" fill="#D6D2C4"/>
<path d="M23.6988 22.2534C23.6102 22.2659 23.5218 22.2796 23.4336 22.2937C23.5538 23.1435 23.7647 26.1926 23.8832 28.1502L24.1532 28.1345C24.1524 28.1196 24.0617 26.6262 23.9542 25.1318C23.8287 23.3875 23.7515 22.6103 23.6988 22.2534Z" fill="#D6D2C4"/>
<path d="M18.1376 27.3932C17.9154 27.3887 17.8366 27.8825 17.9385 27.9551C18.0403 28.0276 18.4942 28.0592 18.5219 27.9188C18.5497 27.7783 18.5127 27.4203 18.3598 27.3931C18.2071 27.3661 18.1376 27.3932 18.1376 27.3932Z" fill="#D6D2C4"/>
<path d="M23.9799 27.3894C23.6694 27.4016 23.6282 27.7916 23.7058 27.881C23.7835 27.9704 24.3223 27.9481 24.3407 27.7872C24.3589 27.6263 24.3224 27.376 23.9799 27.3894Z" fill="#D6D2C4"/>
<path d="M16.9684 13.7104C16.9777 14.6318 16.4912 15.3669 15.8819 15.3522C15.2726 15.3374 14.7711 14.5787 14.7618 13.6572C14.7526 12.7357 15.2391 12.0006 15.8484 12.0154C16.4577 12.0301 16.9591 12.7889 16.9684 13.7104Z" fill="#BA7367"/>
<path d="M15.818 14.7793L15.7555 12.5803L15.5255 12.5886L15.5547 13.6178C15.3881 13.5653 15.2394 13.5174 15.2168 13.508L15.1172 13.7169C15.1261 13.7213 15.1525 13.7345 15.5617 13.8626L15.5879 14.7875L15.818 14.7793Z" fill="#914F46"/>
<path d="M17.7522 16.143C17.7481 16.2359 17.6776 20.3552 17.7701 20.4852C17.8626 20.6153 20.1368 21.9523 20.61 21.9337C21.0834 21.9152 23.2257 20.0448 23.2257 20.0448L23.1452 16.0986L17.7522 16.143Z" fill="#BA7367"/>
<path d="M17.7509 16.1431C17.7468 16.236 17.6356 19.7267 17.7281 19.8568C17.8205 19.9869 20.211 21.2959 20.6843 21.2772C21.1576 21.2585 23.2202 19.832 23.2202 19.832L23.1441 16.0986L17.7509 16.1431Z" fill="#914F46"/>
<path d="M16.8864 7.56155C16.4948 8.10962 16.0764 9.94458 15.8636 12.1565C15.5245 15.683 15.9997 19.6028 19.7766 19.6023C24.737 19.6016 24.5709 13.3677 24.5709 13.3677L25.0175 12.503C25.0175 12.503 26.0318 8.23329 23.4079 6.79289C21.5305 5.76214 17.8471 6.21663 16.8864 7.56155Z" fill="#BA7367"/>
<path d="M23.7471 13.9287C23.6548 14.8464 24.074 15.6078 24.6836 15.6293C25.2931 15.6508 25.8621 14.9244 25.9544 14.0067C26.0468 13.0891 25.6275 12.3277 25.018 12.3061C24.4084 12.2846 23.8395 13.011 23.7471 13.9287Z" fill="#BA7367"/>
<path d="M21.9337 12.7407C21.9173 13.1013 21.7986 13.3902 21.6686 13.3858C21.5385 13.3814 21.4464 13.0854 21.4628 12.7247C21.4792 12.3641 21.598 12.0752 21.728 12.0796C21.858 12.084 21.9501 12.3799 21.9337 12.7407Z" fill="#51424E"/>
<path d="M17.9064 12.5617C17.89 12.9224 17.7712 13.2112 17.6412 13.2068C17.5112 13.2024 17.4191 12.9065 17.4355 12.5458C17.4519 12.1851 17.5706 11.8963 17.7006 11.9007C17.8307 11.9051 17.9228 12.2011 17.9064 12.5617Z" fill="#51424E"/>
<path d="M32.3715 34.6759C31.1916 34.091 29.8548 33.8657 28.1758 33.9816V34.413C28.6856 34.5099 28.8316 34.539 28.9688 34.5764C29.2873 34.6633 29.6029 34.7601 29.9152 34.8666C30.531 35.0763 31.1324 35.3241 31.7175 35.6057C31.8579 35.6733 31.9366 35.448 31.7978 35.3812C31.2297 35.1078 30.6462 34.8662 30.049 34.6604C29.755 34.559 29.4578 34.4662 29.1583 34.3821C29.0054 34.3392 28.8322 34.3094 28.6702 34.2595C29.888 34.1195 31.1388 34.3294 32.2356 34.8731C32.3735 34.9415 32.5109 34.745 32.3715 34.6759Z" fill="#594E7C"/>
<path d="M19.8549 14.8559C19.4348 14.8434 18.5849 14.7269 18.407 14.0019C18.1466 12.9407 19.56 11.9396 19.6204 11.8975L19.7515 12.0872C19.738 12.0966 18.408 13.0394 18.6303 13.9462C18.8176 14.7094 20.0593 14.623 20.072 14.622L20.0891 14.8525C20.0751 14.8535 19.9859 14.8598 19.8549 14.8559Z" fill="#914F46"/>
<path d="M15.8727 12.0337L16.0091 12.9809L16.1259 12.9843C16.1259 12.9843 16.3558 10.5969 16.3838 10.4552C16.4119 10.3134 16.7419 9.98806 16.745 9.8852C16.7482 9.78234 17.0324 8.0468 17.3313 7.81016C17.6304 7.57352 22.928 7.76806 23.1178 8.00339C23.3076 8.23872 23.1601 9.99805 23.1894 10.0702C23.2187 10.1424 23.6841 10.5497 23.736 10.6542C23.7879 10.7587 23.7172 13.3087 23.7172 13.3087L24.0628 13.358L24.3455 12.5585C24.3455 12.5585 25.0522 12.342 25.0586 12.3091C25.2984 11.0935 26.2335 6.18211 20.6066 6.0041C15.4673 5.8413 15.7521 10.5778 15.8727 12.0337Z" fill="#51424E"/>
<path d="M24.4609 14.9291L24.9089 12.7734L25.134 12.8203L24.9244 13.8292C25.0978 13.8054 25.2527 13.7833 25.2766 13.7778L25.3381 14.0004C25.3286 14.0032 25.3002 14.0118 24.8746 14.0691L24.6862 14.9758L24.4609 14.9291Z" fill="#914F46"/>
<path d="M11.8713 34.1163C11.4826 31.66 10.5807 25.9319 10.6019 25.7915L10.7221 25.809L10.8434 25.8135C10.8475 26.0487 11.7603 31.8605 12.1116 34.08L11.8713 34.1163Z" fill="#594E7C"/>
<path d="M28.3211 34.3222C28.324 33.4827 28.9949 28.5326 29.4732 25.2185L29.2326 25.1853C29.2293 25.2081 28.8982 27.5041 28.5947 29.7836C28.197 32.77 28.0865 33.8734 28.0859 34.2965C28.1643 34.3044 28.2428 34.3122 28.3211 34.3222Z" fill="#594E7C"/>
<path d="M24.4648 33.7577C24.4857 33.6959 24.6381 32.6467 25.4895 31.6296C26.3946 30.5486 28.5194 29.7131 28.8624 30.0325C29.3432 30.48 26.9429 31.6055 26.9429 31.6055C26.9429 31.6055 28.7289 30.9391 29.6856 31.2824C30.4039 31.5402 30.0597 32.041 30.0597 32.041C30.0597 32.041 30.3071 32.391 30.1966 32.6255C30.0862 32.86 29.6594 32.9122 29.6594 32.9122C29.6594 32.9122 29.9696 33.1334 29.773 33.4487C29.5764 33.7639 28.7787 33.4771 28.5506 33.7119C28.3731 33.8948 28.2641 34.2758 28.2641 34.2758L24.4648 33.7577Z" fill="#BA7367"/>
<path d="M30.0577 32.0411C30.0577 32.0411 30.107 31.9692 30.1294 31.8657C29.918 31.7592 29.3595 31.5374 28.6274 31.7102C27.7802 31.9101 26.7432 32.5514 26.3438 33.3848C26.439 33.4072 26.5343 33.4298 26.6298 33.4515C27.0053 32.7247 27.9326 32.1641 28.6949 31.9842C29.4187 31.8134 29.9551 32.0907 30.0484 32.1437C30.0946 32.1948 30.1414 32.2469 30.1875 32.2982C30.1387 32.1561 30.0577 32.0411 30.0577 32.0411Z" fill="#914F46"/>
<path d="M29.6568 32.9124C29.6568 32.9124 29.8206 32.8921 29.9714 32.8211C29.6675 32.6174 28.9069 32.4093 28.2512 32.7611C27.7919 33.0074 27.4777 33.3817 27.3203 33.6018C27.4236 33.6236 27.527 33.6451 27.6304 33.6664C27.7866 33.4677 28.0439 33.1937 28.3897 33.0083C28.9156 32.7263 29.5138 32.8827 29.7646 33.026C29.7146 32.9537 29.6568 32.9124 29.6568 32.9124Z" fill="#914F46"/>
<path d="M25.7401 33.2363C25.9832 32.8308 26.7776 31.6675 28.09 31.2871C27.4613 31.4119 26.9415 31.6056 26.9415 31.6056C26.9415 31.6056 27.522 31.3333 28.0549 31.0034C26.5159 31.4221 25.6554 32.797 25.4492 33.1646C25.5464 33.1877 25.6434 33.2116 25.7401 33.2363Z" fill="#914F46"/>
<path d="M30.2055 39.1593C25.6403 40.6948 19.8649 37.7887 19.8068 37.7592L19.7638 37.7371L19.717 37.7503C19.6791 37.761 15.9032 38.8084 10.7062 39.0735C10.691 39.1221 10.6657 39.2043 10.6328 39.3156C15.5898 39.0716 19.2852 38.1133 19.7378 37.9914C20.1642 38.2005 23.636 39.8437 27.2568 39.8437C28.2551 39.8437 29.2642 39.717 30.2244 39.4026C30.2142 39.2651 30.2072 39.1795 30.2055 39.1593Z" fill="#594E7C"/>
<path d="M11.9375 34.026C11.9375 34.026 12.3778 32.6044 13.7928 32.39C14.8433 32.2308 15.648 32.6144 15.648 32.6144L14.2191 34.5685L11.9375 34.026Z" fill="#BA7367"/>
<path d="M19.9361 38.0889C18.5828 37.4283 14.1545 35.2564 13.988 35.0391C13.9334 34.9679 13.9542 34.8749 13.9746 34.8111C14.1342 34.311 15.5791 32.3704 15.8599 32.2788C15.9841 32.2384 17.977 32.5416 27.7986 34.213C28.8029 34.3839 29.5284 34.5073 29.5733 34.5131L29.5598 34.6129V34.7503C29.5397 34.7503 29.537 34.7503 27.7569 34.4474C24.3585 33.869 16.4497 32.5231 15.9292 32.509C15.6723 32.6739 14.2495 34.5684 14.1976 34.9089C14.5091 35.1429 17.8384 36.7991 20.0446 37.876L19.9361 38.0889Z" fill="#594E7C"/>
<path d="M15.1266 35.6285C14.945 33.7809 16.6834 32.4586 16.7574 32.4033L16.905 32.5923C16.8879 32.605 15.2001 33.8913 15.3684 35.6058L15.1266 35.6285Z" fill="#594E7C"/>
<path d="M11.6262 33.6995C10.9364 33.7082 10.2466 33.8377 9.5737 33.9781C8.92708 34.1129 8.28703 34.3 7.71065 34.6232C7.57576 34.6988 7.68258 34.9126 7.81881 34.8363C8.37768 34.5229 8.99319 34.3423 9.61999 34.2116C10.0123 34.1298 10.4117 34.0503 10.8131 33.9978C9.9797 34.328 9.1621 34.6954 8.36359 35.1006C8.22506 35.1709 8.33236 35.3844 8.47174 35.3137C9.50832 34.7877 10.5765 34.3239 11.6708 33.9248C11.7819 33.8841 11.7433 33.698 11.6262 33.6995Z" fill="#594E7C"/>
<path d="M10.7149 34.5794C10.6999 34.5529 10.6766 34.5291 10.6462 34.5201C10.6155 34.5109 10.5811 34.5106 10.5519 34.5258C10.4593 34.5743 10.3668 34.6228 10.2742 34.6713C10.2468 34.6857 10.224 34.7094 10.2136 34.7385C10.2036 34.7663 10.2046 34.8045 10.2194 34.8308C10.2344 34.8573 10.2577 34.8811 10.2881 34.8901C10.3188 34.8993 10.3532 34.8996 10.3824 34.8844C10.475 34.8359 10.5675 34.7874 10.6601 34.7389C10.6875 34.7245 10.7102 34.7008 10.7207 34.6717C10.7308 34.6437 10.7297 34.6057 10.7149 34.5794Z" fill="#594E7C"/>
<path d="M16.4694 30.5606C15.7753 30.2374 15.3428 29.4746 15.4105 28.7293C15.4244 28.5764 15.1819 28.5585 15.1681 28.7109C15.0899 29.5704 15.5963 30.416 16.389 30.7852C16.5305 30.8509 16.6093 30.6257 16.4694 30.5606Z" fill="#594E7C"/>
<path d="M23.5135 31.0904C23.4526 31.0885 23.382 31.1333 23.383 31.1998C23.3835 31.2343 23.3823 31.2686 23.3786 31.303C23.3767 31.322 23.374 31.3409 23.3707 31.3598C23.3697 31.3656 23.3686 31.3713 23.3676 31.3769C23.3672 31.3785 23.3652 31.3871 23.3642 31.3915C23.3559 31.4249 23.3456 31.458 23.3334 31.4903C23.3273 31.5065 23.3208 31.5225 23.3138 31.5383C23.31 31.5471 23.3059 31.5558 23.3017 31.5645C23.301 31.566 23.2979 31.5719 23.2959 31.5758C23.2637 31.6347 23.2257 31.6905 23.1813 31.7413C23.1782 31.7445 23.1734 31.7499 23.1721 31.7512C23.1655 31.7582 23.1587 31.765 23.1517 31.7718C23.1393 31.7839 23.1265 31.7957 23.1133 31.8071C23.0855 31.8312 23.0561 31.8533 23.0253 31.874C22.9728 31.9095 22.9726 31.9992 23.0143 32.0418C23.0642 32.0928 23.1296 32.0906 23.1859 32.0526C23.4588 31.8689 23.6299 31.542 23.6253 31.2181C23.6244 31.1562 23.5832 31.0925 23.5135 31.0904Z" fill="#594E7C"/>
<path d="M18.2751 10.7444C18.0434 10.7341 17.8089 10.7487 17.5807 10.7889C17.4555 10.8109 17.3579 10.944 17.3884 11.0677C17.4197 11.1946 17.5392 11.2794 17.6734 11.2559C17.7749 11.238 17.8771 11.2263 17.9799 11.2192C18.0658 11.2156 18.1517 11.215 18.2376 11.2189C18.3018 11.2217 18.368 11.2024 18.4168 11.1604C18.4606 11.1226 18.4968 11.0581 18.4987 11C18.5028 10.8744 18.4109 10.7505 18.2751 10.7444Z" fill="#51424E"/>
<path d="M22.3427 10.9069C22.1136 10.831 21.8703 10.7878 21.6284 10.7849C21.5628 10.7842 21.4996 10.8 21.4493 10.8434C21.4054 10.8813 21.3692 10.9457 21.3674 11.0039C21.3653 11.0663 21.3817 11.1328 21.4272 11.1791C21.4693 11.2222 21.528 11.2586 21.5911 11.2593C21.719 11.2607 21.8462 11.2745 21.9717 11.2983C22.0427 11.3142 22.113 11.333 22.182 11.3558C22.3025 11.3958 22.4535 11.3337 22.4918 11.2101C22.5296 11.0877 22.4713 10.9496 22.3427 10.9069Z" fill="#51424E"/>
<path d="M19.76 16.1107C18.8005 16.1107 18.234 15.7658 18.1953 15.7414L18.3268 15.5413L18.2611 15.6413L18.3265 15.5412C18.3414 15.5503 19.8299 16.4465 22.0993 15.2166L22.217 15.4247C21.245 15.9514 20.4119 16.1107 19.76 16.1107Z" fill="#914F46"/>
<path d="M20.023 16.9236C19.6515 16.9236 19.4078 16.7806 19.3906 16.7701L19.5179 16.5675C19.5426 16.5821 20.131 16.919 20.8757 16.3831L21.0199 16.5746C20.6442 16.8449 20.2984 16.9236 20.023 16.9236Z" fill="#914F46"/>
</g>
<defs>
<clipPath id="clip0_1591_642">
<rect width="40" height="40" rx="20" fill="white"/>
</clipPath>
</defs>
</svg>
