<svg
  width="41"
  height="40"
  viewBox="0 0 41 40"
  fill="none"
  xmlns="http://www.w3.org/2000/svg"
>
  <g clip-path="url(#clip0_1457_25)">
    <circle cx="20.5" cy="20" r="20" fill="#D9D9D9" />
    <path
      d="M19.9125 4.01783C18.214 3.81754 18.117 5.37065 18.117 5.37065C18.117 5.37065 17.5771 4.8633 17.3314 5.03242C17.0858 5.20154 17.1718 5.49746 17.1718 5.49746C17.1718 5.49746 15.2733 4.63084 14.4393 5.30718C13.6055 5.98353 14.1671 7.10389 14.0563 7.16736C13.9456 7.23082 13.2137 7.04055 13.1126 7.27301C13.0115 7.50559 13.373 7.82057 13.373 7.82057C13.373 7.82057 11.3034 7.89468 11.0315 8.75697C10.7595 9.61926 11.366 10.0843 11.2949 10.19C11.2238 10.2956 10.4916 10.4213 10.4593 10.5804C10.4271 10.7395 10.9242 11.2501 10.9242 11.2501C10.9242 11.2501 8.48623 12.5918 8.50006 13.3567C8.51376 14.1216 9.85379 15.0636 9.85379 15.0636C9.85379 15.0636 9.15007 15.1716 9.29724 15.4206C9.4444 15.6696 9.72318 15.6547 9.72318 15.6547C9.72318 15.6547 8.59056 16.7255 8.56476 17.4105C8.53908 18.0954 9.15736 18.3904 9.15736 18.3904C9.15736 18.3904 8.51513 19.606 8.61785 19.8548C8.72057 20.1036 9.09538 20.2242 9.09538 20.2242C9.09538 20.2242 8.58352 21.6963 9.27008 22.2844C9.95663 22.8725 11.235 22.541 11.267 22.6962C11.299 22.8515 10.6817 23.1629 10.8387 23.3559C10.9958 23.549 11.5318 23.4899 11.5952 23.4983C11.6584 23.5067 10.9126 25.071 12.1122 25.5782C13.3119 26.0855 13.8978 25.6111 13.9461 25.8377C13.9943 26.0644 13.724 26.5929 13.8657 26.6985C14.0074 26.8042 14.5025 26.4135 14.5025 26.4135C14.5025 26.4135 14.3463 28.0699 15.6447 28.3777C16.9432 28.6855 22.5014 26.4661 22.5609 26.5296C22.6204 26.593 25.4011 28.4742 26.2864 28.3777C27.1717 28.2812 27.4424 26.8339 27.4424 26.8339C27.4424 26.8339 28.2555 27.1654 28.5448 27.0103C28.8341 26.8552 28.7786 26.4135 28.7786 26.4135C28.7786 26.4135 29.4687 26.6637 29.9294 26.1954C30.3902 25.7271 30.2002 24.7481 30.2002 24.7481C30.2002 24.7481 31.7387 24.0814 32.1025 22.5659C32.4664 21.0504 31.3619 20.3152 31.4147 19.9659C31.4676 19.6166 32.3477 19.2619 32.3896 18.9374C32.4314 18.6129 31.5228 18.3905 31.5228 18.3905C31.5228 18.3905 33.0783 17.6016 32.9913 16.3438C32.9044 15.086 31.4172 14.458 31.4172 14.458C31.4172 14.458 32.7773 13.6907 32.494 12.9847C32.2107 12.2786 31.3802 12.2948 31.3802 12.2948C31.3802 12.2948 32.1457 11.4975 31.7056 11.0055C31.2655 10.5135 30.714 10.6076 30.714 10.6076C30.714 10.6076 31.1035 9.42144 30.7482 9.07318C30.393 8.7248 29.6626 9.00724 29.6061 8.79544C29.5495 8.58365 29.7525 8.04227 29.5188 7.99526C29.2851 7.94825 28.983 8.20706 28.983 8.20706C28.983 8.20706 29.7304 6.98327 28.686 5.97116C27.6417 4.95918 26.2893 6.01817 26.1364 5.83C25.9834 5.64171 25.9438 4.83212 25.6813 4.86503C25.396 4.90091 25.3501 5.54757 25.3501 5.54757C25.3501 5.54757 24.7686 4.91847 23.951 4.61735C23.1335 4.31623 22.5709 5.23729 22.4534 5.13102C22.3358 5.02475 22.4234 4.52877 22.0371 4.44019C21.6508 4.35161 21.0177 4.74132 21.0177 4.74132C21.0177 4.74132 20.8372 4.12682 19.9125 4.01783Z"
      fill="#493B44"
    />
    <path
      d="M26.4354 15.2162C26.5867 15.2466 26.6754 15.1384 26.646 15.0029C26.6335 14.9448 26.5952 14.898 26.5851 14.8388C26.574 14.7733 26.5896 14.7011 26.6443 14.6529C26.8026 14.5138 27.1084 14.6583 27.2647 14.709C27.5373 14.7977 27.8411 14.8873 28.1395 14.8553C28.4995 14.8167 28.5393 14.5208 28.542 14.2303C28.5434 14.0866 28.769 14.0694 28.7677 14.2131C28.7653 14.4644 28.7439 14.7608 28.5214 14.9386C28.2529 15.1531 27.8485 15.09 27.5546 15.0274C27.3735 14.9888 27.2041 14.921 27.0268 14.8719C27.0033 14.8655 26.8414 14.8104 26.8254 14.8322C26.8209 14.8384 26.8817 14.9809 26.8841 15.0054C26.9119 15.2887 26.6416 15.4889 26.3774 15.4358C26.2373 15.4076 26.2951 15.188 26.4354 15.2162Z"
      fill="#3A3037"
    />
    <path
      d="M13.3967 13.9505C13.5145 13.8583 13.6267 14.0445 13.5099 14.1359C13.2487 14.3403 12.7791 14.8986 13.247 15.0966C13.5874 15.2406 14.0045 15.1972 14.3699 15.249C14.5678 15.2771 14.8719 15.3585 14.7876 15.6264C14.7473 15.7544 14.5724 15.8406 14.5705 15.9746C14.5677 16.1925 14.8507 16.2501 15.0172 16.2871C15.1563 16.318 15.0988 16.5377 14.9592 16.5066C14.6648 16.441 14.2572 16.2757 14.3579 15.8902C14.3777 15.8145 14.4216 15.7538 14.4732 15.6945C14.5556 15.6 14.5758 15.5234 14.4421 15.4902C14.2096 15.4326 13.9553 15.4386 13.7156 15.4171C13.3805 15.3869 12.8851 15.3288 12.8264 14.9292C12.7705 14.5483 13.1094 14.1753 13.3967 13.9505Z"
      fill="#3A3037"
    />
    <path
      d="M13.0117 7.84931C13.2302 7.82568 13.3756 7.82036 13.3756 7.82036C13.3756 7.82036 13.3701 7.81567 13.3611 7.80713C13.5194 7.8748 13.7025 7.87986 13.8794 7.86563C13.9456 7.86031 13.9857 7.90943 13.9932 7.96857C14.037 8.3099 13.7015 8.55572 13.6948 8.88937C13.6865 9.30642 14.0514 9.55013 14.4268 9.60779C14.5687 9.62956 14.5104 9.84904 14.3688 9.82726C13.9753 9.76676 13.6141 9.5411 13.5023 9.14967C13.4536 8.9787 13.4581 8.79264 13.5242 8.61907C13.592 8.44116 13.738 8.27921 13.7656 8.09426C13.4858 8.0997 13.2047 8.03946 13.0117 7.84931Z"
      fill="#3A3037"
    />
    <path
      d="M26.9999 10.925C27.1972 10.9419 27.4894 10.923 27.3887 10.6456C27.3326 10.4915 27.2664 10.3408 27.2052 10.1889C27.1785 10.1226 27.2459 10.045 27.313 10.0404C27.729 10.0116 28.075 10.2201 28.4605 10.3137C28.6716 10.3649 28.8992 10.3999 29.121 10.3905C29.412 10.378 29.5061 10.1849 29.442 9.92648C29.4081 9.78916 29.6256 9.71505 29.6597 9.8525C29.704 10.0315 29.7118 10.238 29.5921 10.4029C29.4499 10.599 29.2095 10.6197 28.9944 10.6121C28.6993 10.6018 28.414 10.5485 28.1398 10.4554C27.9257 10.3826 27.7185 10.2912 27.4926 10.2672C27.5898 10.4684 27.7066 10.7123 27.6045 10.9088C27.4737 11.1605 27.1766 11.1645 26.9417 11.1444C26.7985 11.1322 26.8577 10.9127 26.9999 10.925Z"
      fill="#3A3037"
    />
    <path
      d="M27.3583 20.859C27.5403 20.8882 27.7074 20.7406 27.6949 20.5586C27.6855 20.423 27.5689 20.3206 27.5697 20.1846C27.5709 19.9378 27.854 19.9921 28.0041 20.0213C28.3075 20.0802 28.5945 20.2032 28.907 20.2271C29.2381 20.2524 29.6971 20.1121 29.7276 19.7099C29.7385 19.5668 29.9643 19.5487 29.9533 19.6928C29.9304 19.9933 29.7293 20.2404 29.4488 20.3655C29.0709 20.5341 28.6599 20.4298 28.2977 20.3294C28.2025 20.3029 28.1075 20.2758 28.0105 20.2544C27.9683 20.2451 27.9223 20.2412 27.881 20.2289C27.8144 20.2091 27.7923 20.169 27.8139 20.212C27.8821 20.3479 27.9514 20.5034 27.9167 20.6649C27.8568 20.9437 27.5682 21.1213 27.3002 21.0783C27.1587 21.0558 27.2168 20.8362 27.3583 20.859Z"
      fill="#3A3037"
    />
    <path
      d="M23.5651 24.4189C23.7193 24.4101 23.9122 24.4082 24.0327 24.2842C24.1849 24.1273 24.0284 23.9838 23.9102 23.8877C23.8189 23.8134 23.919 23.6844 24.0194 23.6939C24.4205 23.7319 24.8264 23.7946 25.2317 23.7994C25.5768 23.8035 26.012 23.6977 26.1142 23.307C26.1513 23.1658 26.3694 23.2082 26.3324 23.3497C26.2322 23.7323 25.8699 23.953 25.4982 24.007C25.2657 24.0408 25.0323 24.0147 24.8038 23.9932C24.6263 23.9765 24.4488 23.9595 24.2712 23.9427C24.3342 24.0534 24.3525 24.1811 24.2743 24.3221C24.13 24.5822 23.8279 24.6271 23.5673 24.6419C23.4217 24.6502 23.4196 24.4272 23.5651 24.4189Z"
      fill="#3A3037"
    />
    <path
      d="M25.4211 25.2435C25.5487 25.2089 25.6647 25.137 25.7431 25.0267C25.7791 24.9759 25.841 24.9471 25.8975 24.9762C25.9457 25.0011 25.9745 25.0748 25.938 25.1261C25.825 25.2851 25.6691 25.4035 25.4811 25.4546C25.3392 25.4931 25.2787 25.2821 25.4211 25.2435Z"
      fill="#3A3037"
    />
    <path
      d="M14.9412 23.7474C14.9777 23.6089 15.199 23.6506 15.1622 23.7901C15.087 24.0754 14.8589 24.5845 15.1349 24.8219C15.3884 25.0399 15.8432 24.9849 16.1432 24.927C16.2265 24.911 16.2931 25.0193 16.2527 25.0882C16.2197 25.1447 16.1881 25.2016 16.1639 25.2624C16.1141 25.3879 16.1416 25.4038 16.2526 25.4509C16.3999 25.5133 16.5505 25.5638 16.7048 25.6064C16.8435 25.6446 16.8017 25.8644 16.6618 25.8258C16.5321 25.7901 16.4041 25.7496 16.2783 25.7017C16.1785 25.6638 16.0455 25.6285 15.9658 25.5516C15.8668 25.4559 15.8947 25.3118 15.9496 25.1825C15.6027 25.2231 15.1902 25.2018 14.9494 24.9549C14.6322 24.6299 14.8433 24.1191 14.9412 23.7474Z"
      fill="#3A3037"
    />
    <path
      d="M11.2993 18.9777C11.3788 18.8531 11.5745 18.9515 11.4942 19.0772C11.3047 19.3741 11.1056 19.8494 11.4603 20.0778C11.732 20.2528 12.1695 20.2114 12.4882 20.1922C12.7005 20.1795 13.0605 20.0992 13.0967 20.3924C13.117 20.5566 13.0171 20.7034 13.0605 20.8728C13.1031 21.039 13.2082 21.1813 13.3061 21.3168C13.3879 21.4301 13.1923 21.5546 13.1108 21.4419C13.0123 21.3055 12.9158 21.1642 12.8602 21.0027C12.8045 20.8408 12.8315 20.7097 12.851 20.5431C12.8689 20.3899 12.795 20.3902 12.6653 20.4015C12.5602 20.4108 12.4551 20.4185 12.35 20.4218C12.1539 20.428 11.9553 20.4263 11.7623 20.4036C11.4632 20.3686 11.1831 20.2434 11.0799 19.9505C10.9641 19.6214 11.1127 19.27 11.2993 18.9777Z"
      fill="#3A3037"
    />
    <path
      d="M12.6585 21.5255C12.6803 21.6177 12.7388 21.6785 12.827 21.7111C12.8828 21.7317 12.8958 21.811 12.8675 21.8607C12.8339 21.9197 12.769 21.9317 12.713 21.911C12.5765 21.8605 12.4742 21.74 12.4408 21.5992C12.4082 21.4619 12.6258 21.3879 12.6585 21.5255Z"
      fill="#3A3037"
    />
    <path
      d="M28.5581 23.4311C28.6999 23.4486 28.8701 23.4568 29.0111 23.4019C29.139 23.3521 29.2274 23.1408 29.1258 23.0361C29.029 22.9362 29.1884 22.7675 29.2859 22.868C29.4362 23.0231 29.4182 23.3427 29.252 23.5049C29.0607 23.6916 28.7317 23.6794 28.5001 23.6505C28.3574 23.633 28.416 23.4135 28.5581 23.4311Z"
      fill="#3A3037"
    />
    <path
      d="M26.1102 17.3063C26.2776 17.273 26.4899 17.2798 26.6324 17.1647C26.7746 17.0496 26.7335 16.8233 26.734 16.6683C26.7344 16.5246 26.9602 16.5074 26.9597 16.6511C26.9591 16.875 26.9883 17.1268 26.802 17.3037C26.6133 17.4831 26.3461 17.4827 26.112 17.5293C25.9684 17.558 25.9679 17.3345 26.1102 17.3063Z"
      fill="#3A3037"
    />
    <path
      d="M18.5127 7.32754C18.5704 7.19244 18.765 7.29265 18.7076 7.42701C18.5792 7.72714 18.3807 8.24006 18.7362 8.44023C19.0406 8.61145 19.4653 8.52064 19.8017 8.57755C19.8928 8.59302 19.9881 8.63211 20.0243 8.72131C20.0698 8.83376 19.9842 8.94227 19.9542 9.05151C19.8481 9.43861 20.0984 9.77895 20.4737 9.83981C20.6153 9.86282 20.557 10.0823 20.4157 10.0593C20.0826 10.0052 19.8051 9.77684 19.7274 9.44677C19.6874 9.27703 19.7 9.09245 19.7639 8.92308C19.8129 8.79294 19.7633 8.79727 19.6392 8.79133C19.5364 8.78651 19.4334 8.78292 19.3308 8.77537C18.9884 8.75001 18.5654 8.7369 18.3934 8.40473C18.2159 8.06216 18.3648 7.67357 18.5127 7.32754Z"
      fill="#3A3037"
    />
    <path
      d="M24.7951 7.95757C24.939 7.95584 25.0939 7.8461 25.113 7.69468C25.1207 7.63393 25.1582 7.58036 25.2249 7.57454C25.2795 7.56984 25.3464 7.61723 25.3387 7.67748C25.3049 7.94519 25.0764 8.17728 24.7971 8.18062C24.6527 8.18236 24.6499 7.9593 24.7951 7.95757Z"
      fill="#3A3037"
    />
    <path
      d="M15.7005 7.91334C15.7604 7.77886 15.9551 7.87894 15.8955 8.0128C15.8574 8.09804 15.9305 8.18453 15.9966 8.22238C16.084 8.27236 16.192 8.28324 16.2924 8.29673C16.4349 8.31578 16.3763 8.53526 16.2344 8.51621C16.0674 8.49381 15.8851 8.46214 15.7692 8.33645C15.6623 8.22028 15.6324 8.06625 15.7005 7.91334Z"
      fill="#3A3037"
    />
    <path
      d="M20.0645 6.40204C20.4034 6.35181 20.6623 6.54605 20.8797 6.7628C20.9394 6.8223 20.9954 6.89047 21.0615 6.94304C21.0853 6.96185 21.1246 7.01034 21.1635 6.99884C21.172 6.99636 21.2192 6.92412 21.2345 6.90828C21.315 6.82527 21.4237 6.77517 21.5361 6.76502C22.2205 6.70292 22.2704 7.65317 22.1639 8.12415C22.1317 8.26642 21.9137 8.22349 21.9458 8.08147C22.0113 7.7921 22.0191 7.44941 21.8761 7.1932C21.8124 7.07901 21.7118 6.98523 21.5692 6.98746C21.4178 6.98981 21.3897 7.09422 21.2911 7.17724C21.1054 7.33336 20.9283 7.13987 20.8093 7.02197C20.6054 6.81982 20.3967 6.57611 20.0663 6.6251C19.9214 6.64662 19.9204 6.42344 20.0645 6.40204Z"
      fill="#564752"
    />
    <path
      d="M15.3464 6.15315C15.4871 6.09451 15.6368 6.10824 15.7744 6.14622C15.8441 6.1654 15.9117 6.19113 15.9797 6.21451C16.041 6.23555 16.1794 6.31608 16.2338 6.31459C16.2786 6.31336 16.2379 6.33365 16.2544 6.27587C16.262 6.24965 16.2611 6.22255 16.27 6.19632C16.2888 6.14065 16.3231 6.09154 16.3656 6.05034C16.4696 5.94939 16.6088 5.92094 16.7442 5.92972C17.0678 5.95075 17.3767 6.1169 17.6243 6.30049C17.7366 6.38375 17.5758 6.55126 17.4642 6.4685C17.2725 6.32635 17.0485 6.21402 16.808 6.16651C16.7432 6.15365 16.6582 6.13583 16.59 6.16156C16.4668 6.20808 16.4941 6.24952 16.4791 6.33847C16.4686 6.40119 16.4595 6.45427 16.4046 6.49819C16.2794 6.59815 16.1 6.49535 15.9826 6.45489C15.8659 6.41481 15.7486 6.36358 15.6249 6.34428C15.5096 6.32622 15.2153 6.38128 15.3422 6.55931C15.4234 6.67325 15.2278 6.7977 15.1469 6.68438C15.0123 6.49571 15.1307 6.24296 15.3464 6.15315Z"
      fill="#564752"
    />
    <path
      d="M14.3388 10.9379C14.3963 10.8285 14.3668 10.7071 14.4456 10.6016C14.5108 10.5143 14.6111 10.4585 14.7167 10.4436C14.9755 10.4074 15.1556 10.6004 15.2829 10.7864C15.3619 10.902 15.1663 11.0266 15.0876 10.9115C15.0113 10.7999 14.8804 10.6189 14.7129 10.6701C14.5641 10.7155 14.5958 10.9192 14.5337 11.0375C14.4647 11.1683 14.2698 11.069 14.3388 10.9379Z"
      fill="#564752"
    />
    <path
      d="M12.6346 11.1919C12.6499 11.0919 12.6964 11.0021 12.7606 10.9214C12.7995 10.8726 12.8802 10.8742 12.9202 10.9113C12.9665 10.9543 12.9587 11.0197 12.9196 11.0689C12.8803 11.1181 12.8619 11.1745 12.8527 11.2347C12.8434 11.2948 12.769 11.3335 12.7146 11.3229C12.6504 11.3102 12.6255 11.2522 12.6346 11.1919Z"
      fill="#564752"
    />
    <path
      d="M10.8117 14.2046C10.9844 14.0424 11.2419 13.9724 11.4748 13.9231C11.4207 13.8089 11.2945 13.7208 11.2532 13.6008C11.2068 13.4661 11.244 13.3317 11.3542 13.2296C11.6115 12.9909 12.0075 12.8904 12.3376 12.8882C12.4821 12.8872 12.4848 13.1103 12.3396 13.1112C12.0936 13.1128 11.7069 13.1711 11.5217 13.3723C11.3876 13.5179 11.5579 13.6404 11.6334 13.7443C11.6908 13.8234 11.7196 13.8987 11.7253 13.9983C11.7291 14.0636 11.6715 14.1068 11.6134 14.1184C11.435 14.1542 11.2387 14.1992 11.074 14.286C10.8409 14.4089 10.879 14.5875 10.9887 14.7748C11.0595 14.8955 10.8644 15.0208 10.7934 14.8999C10.6643 14.6793 10.5845 14.4179 10.8117 14.2046Z"
      fill="#564752"
    />
    <path
      d="M24.0377 10.7063C24.4679 10.6856 24.9147 10.6685 25.3115 10.8256C25.6201 10.9479 25.8385 11.2178 25.6464 11.5589C25.5773 11.6816 25.2561 11.9665 25.3703 12.1081C25.4109 12.1584 25.5428 12.1713 25.6041 12.1933C25.6724 12.2178 25.7349 12.2506 25.7894 12.2972C26.0188 12.4936 26.0724 12.8297 25.9296 13.1121C25.8629 13.2442 25.668 13.1446 25.7347 13.0127C25.8068 12.8699 25.8002 12.7097 25.725 12.5789C25.6434 12.4369 25.5124 12.4065 25.3666 12.3551C25.1001 12.2612 25.0481 12.0421 25.2082 11.7946C25.2863 11.6737 25.4025 11.5681 25.4638 11.4383C25.5607 11.233 25.3965 11.1077 25.2268 11.0381C24.8598 10.8874 24.4389 10.91 24.0397 10.9292C23.8945 10.9363 23.8923 10.7132 24.0377 10.7063Z"
      fill="#564752"
    />
    <path
      d="M28.772 12.6101C28.9342 12.6384 29.1078 12.6821 29.2185 12.8061C29.3269 12.9274 29.3555 13.089 29.2862 13.2466C29.2271 13.3813 29.0324 13.2811 29.0914 13.1471C29.1306 13.0579 29.0641 12.9634 28.9955 12.9183C28.9136 12.8643 28.811 12.8465 28.7141 12.8296C28.5729 12.8049 28.6309 12.5855 28.772 12.6101Z"
      fill="#564752"
    />
    <path
      d="M29.4864 16.2338C29.8847 16.312 30.4009 16.5522 30.5594 16.9466C30.6325 17.1285 30.5651 17.3233 30.4117 17.4598C30.3393 17.5244 30.2509 17.5686 30.1613 17.6014C30.1221 17.6157 30.0706 17.6246 30.0175 17.6349C30.3173 17.7638 30.6057 17.9896 30.4487 18.3392C30.3883 18.4736 30.1937 18.3735 30.2537 18.2397C30.3728 17.9744 29.8585 17.8066 29.6867 17.7606C29.6056 17.7389 29.5744 17.6452 29.6362 17.577C29.8004 17.3959 30.5615 17.3928 30.3258 16.997C30.148 16.6985 29.7636 16.5191 29.4283 16.4533C29.288 16.4258 29.3458 16.2062 29.4864 16.2338Z"
      fill="#564752"
    />
    <path
      d="M30.105 21.2428C30.3172 21.332 30.5358 21.4486 30.6352 21.6649C30.7219 21.8534 30.6977 22.0678 30.5568 22.2386C30.4619 22.3536 30.3031 22.2056 30.3978 22.091C30.6505 21.7846 30.2101 21.5352 29.991 21.4431C29.8609 21.3884 29.975 21.1881 30.105 21.2428Z"
      fill="#564752"
    />
    <path
      d="M26.9778 24.4248C26.8395 24.3917 26.8968 24.1719 27.0358 24.2053C27.1425 24.2308 27.2306 24.3069 27.2531 24.4165C27.2783 24.5401 27.2196 24.6556 27.1194 24.7355C27.0704 24.7746 26.9933 24.7514 26.9652 24.7053C26.9317 24.6506 26.957 24.5892 27.0062 24.55C27.0577 24.5091 27.0314 24.4377 26.9778 24.4248Z"
      fill="#564752"
    />
    <path
      d="M11.2042 16.9442C11.2865 16.9427 11.3658 16.9564 11.4455 16.9698C11.4889 16.977 11.5363 16.9922 11.581 16.9918C11.7339 16.9905 11.7091 16.975 11.6996 16.8849C11.6851 16.7471 11.6651 16.6014 11.7649 16.4802C11.9515 16.2538 12.3464 16.3475 12.569 16.4153C12.8825 16.511 13.1545 16.6896 13.3626 16.9346C13.4519 17.0397 13.2929 17.2091 13.2025 17.1026C13.0494 16.9224 12.8646 16.7785 12.6437 16.6843C12.4796 16.6143 11.8965 16.4218 11.9133 16.7574C11.9222 16.9354 11.9765 17.1352 11.7475 17.2044C11.6147 17.2445 10.8976 17.0543 10.9869 17.3506C11.0276 17.4861 10.81 17.5596 10.7692 17.4246C10.6875 17.1535 10.9469 16.949 11.2042 16.9442Z"
      fill="#564752"
    />
    <path
      d="M22.9891 9.31422C23.0275 9.17743 23.1105 9.05865 23.2616 9.03606C23.4194 9.01248 23.5321 9.10385 23.6726 9.14237C23.809 9.1799 23.7521 9.39915 23.6145 9.36137C23.5361 9.33977 23.4682 9.30162 23.3928 9.27446C23.3023 9.24175 23.2374 9.24977 23.2074 9.35681C23.1679 9.49718 22.9497 9.45508 22.9891 9.31422Z"
      fill="#564752"
    />
    <path
      d="M26.179 6.68075C26.3777 6.59811 26.4937 6.72343 26.6424 6.81659C26.7903 6.90925 26.8596 6.8323 26.9895 6.75226C27.0648 6.70586 27.1372 6.68694 27.2207 6.70822C27.5963 6.80385 27.7831 7.30786 27.7808 7.65748C27.78 7.80123 27.5542 7.81844 27.5551 7.67468C27.5563 7.49529 27.5149 7.3284 27.4207 7.18019C27.3771 7.11165 27.324 7.04942 27.2617 6.99722C27.1532 6.90641 27.1016 6.94958 26.9896 7.01997C26.8886 7.08344 26.7703 7.11474 26.6586 7.08443C26.5266 7.04868 26.3877 6.82983 26.239 6.89181C26.1015 6.94885 26.0425 6.73741 26.179 6.68075Z"
      fill="#564752"
    />
    <path
      d="M17.3448 9.76828C17.4868 9.78931 17.4285 10.0088 17.2868 9.98775C17.0901 9.95868 16.9677 10.1718 17.0703 10.3252C17.148 10.4417 16.9526 10.5664 16.875 10.4503C16.6622 10.1321 16.9653 9.71211 17.3448 9.76828Z"
      fill="#564752"
    />
    <path
      d="M22.9859 25.4166C22.8621 24.6598 22.9865 23.035 22.9865 22.9405L20.9237 22.7373L18.8608 22.9405C18.8608 23.035 18.9852 24.6597 18.8614 25.4166C18.7376 26.1735 15.4453 27.0415 15.4453 27.0415C15.4453 27.0415 17.7888 30.5788 20.9238 30.5367C24.0588 30.5788 26.4023 27.0415 26.4023 27.0415C26.4023 27.0415 23.1098 26.1734 22.9859 25.4166Z"
      fill="#C56647"
    />
    <path
      d="M18.2227 26.02C18.8988 26.4916 19.9817 27.1476 20.7491 27.1282C21.4326 27.1109 22.5853 26.4633 23.4468 25.9126C23.1897 25.7486 23.0147 25.58 22.9879 25.4166C22.8642 24.6598 22.9885 23.035 22.9885 22.9405L20.9257 22.7373L18.8628 22.9405C18.8628 23.035 18.9872 24.6597 18.8634 25.4166C18.8307 25.616 18.5771 25.823 18.2227 26.02Z"
      fill="#954B36"
    />
    <path
      d="M20.8301 10.741C18.2337 10.741 16.3388 13.6751 16.1588 16.8006C16.1222 17.4369 15.8133 18.0811 15.8972 18.71C16.2846 21.613 17.9497 24.1922 20.8301 24.1735C23.716 24.1547 25.372 21.561 25.7486 18.6581C25.828 18.0457 25.3566 17.4194 25.3217 16.8007C25.1451 13.6751 23.5381 10.741 20.8301 10.741Z"
      fill="#C56647"
    />
    <path
      d="M18.3535 17.5306C18.469 17.5306 18.5626 17.2039 18.5626 16.8008C18.5626 16.3978 18.469 16.071 18.3535 16.071C18.2381 16.071 18.1445 16.3978 18.1445 16.8008C18.1445 17.2039 18.2381 17.5306 18.3535 17.5306Z"
      fill="#3A3037"
    />
    <path
      d="M23.1114 17.5306C23.2268 17.5306 23.3204 17.2039 23.3204 16.8008C23.3204 16.3978 23.2268 16.071 23.1114 16.071C22.9959 16.071 22.9023 16.3978 22.9023 16.8008C22.9023 17.2039 22.9959 17.5306 23.1114 17.5306Z"
      fill="#3A3037"
    />
    <path
      d="M15.293 17.1737C15.3248 17.2716 15.2638 19.0231 15.4869 19.2147C15.7101 19.4063 16.6 19.0657 16.6 19.0657L16.2174 16.9202L15.293 17.1737Z"
      fill="#C56647"
    />
    <path
      d="M26.4673 17.1735C26.4355 17.2715 26.4233 18.9545 26.2 19.1463C25.9768 19.3379 25.1602 19.0657 25.1602 19.0657V16.9202L26.4673 17.1735Z"
      fill="#C56647"
    />
    <path
      d="M18.9519 14.8924C18.6097 14.8891 18.2667 14.9096 17.9273 14.9541C17.7991 14.9709 17.7021 15.1197 17.732 15.2442C17.7651 15.3814 17.8841 15.4578 18.0215 15.4399C18.1762 15.4196 18.3336 15.3993 18.4897 15.3946C18.4938 15.3945 18.4976 15.3944 18.4994 15.3942C18.5182 15.3932 18.5371 15.3924 18.5559 15.3916C18.5935 15.39 18.6312 15.3888 18.6688 15.3878C18.7504 15.3857 18.8322 15.3853 18.9138 15.3861C19.0425 15.3873 19.1745 15.298 19.1791 15.1583C19.1833 15.0316 19.0901 14.8938 18.9519 14.8924Z"
      fill="#3A3037"
    />
    <path
      d="M23.6103 14.9238C23.2436 14.8702 22.8742 14.8391 22.5037 14.8304C22.3748 14.8274 22.2429 14.9196 22.2384 15.0581C22.2343 15.1862 22.3276 15.3208 22.4657 15.3239C22.8362 15.3324 23.2056 15.3636 23.5723 15.4173C23.7002 15.436 23.8335 15.3168 23.8376 15.1895C23.8421 15.0479 23.7473 14.9437 23.6103 14.9238Z"
      fill="#3A3037"
    />
    <path
      d="M23.2596 18.9706C23.2575 18.9706 23.2554 18.9706 23.2531 18.9706C22.7787 18.9713 22.3283 18.7818 21.9851 18.437C21.623 18.0734 21.423 17.585 21.4219 17.0617C21.4199 16.0206 22.2258 15.1721 23.2198 15.167C23.2219 15.167 23.224 15.167 23.2262 15.167C23.7007 15.1663 24.1509 15.3558 24.4943 15.7006C24.8564 16.0642 25.0564 16.5527 25.0574 17.076C25.0595 18.117 24.2535 18.9655 23.2596 18.9706ZM23.2407 15.396C22.3609 15.4004 21.6476 16.1551 21.6494 17.081C21.6503 17.5396 21.824 17.966 22.1386 18.282C22.4342 18.579 22.8231 18.7422 23.2335 18.7417C23.2352 18.7417 23.2372 18.7417 23.2391 18.7417C24.1188 18.7373 24.8322 17.9827 24.8303 17.0569C24.8295 16.5982 24.6558 16.1717 24.3412 15.8557C24.0454 15.5587 23.6566 15.3955 23.2462 15.396C23.2445 15.396 23.2424 15.396 23.2407 15.396Z"
      fill="#ECDCE8"
    />
    <path
      d="M19.9539 17.2512C19.9589 17.1934 19.9621 17.1352 19.9619 17.076C19.961 16.5527 19.7632 16.0642 19.4051 15.7006C19.0658 15.3558 18.6204 15.1663 18.1513 15.167C18.1491 15.167 18.1471 15.167 18.145 15.167C17.1621 15.1721 16.3652 16.0206 16.3672 17.0617C16.3683 17.585 16.566 18.0734 16.924 18.437C17.2634 18.7818 17.7087 18.9713 18.1778 18.9706C18.1799 18.9706 18.182 18.9706 18.1841 18.9706C18.834 18.9673 19.4011 18.5939 19.7111 18.041C19.6687 17.7618 19.7608 17.4553 19.9539 17.2512ZM18.1639 18.7416C18.162 18.7416 18.1601 18.7416 18.1583 18.7416C17.7525 18.7422 17.3681 18.5789 17.0757 18.2819C16.7647 17.9659 16.5929 17.5395 16.592 17.0809C16.5902 16.155 17.2955 15.4004 18.1655 15.3959C18.1673 15.3959 18.1693 15.3959 18.171 15.3959C18.5767 15.3952 18.9613 15.5585 19.2537 15.8556C19.5646 16.1715 19.7364 16.5981 19.7372 17.0567C19.7391 17.9826 19.0338 18.7371 18.1639 18.7416Z"
      fill="#ECDCE8"
    />
    <path
      d="M21.108 19.4721C21.0517 19.4642 19.7271 19.2645 19.551 18.1544C19.3761 17.0529 20.7025 16.2221 20.7591 16.1873L20.8885 16.3981C20.8761 16.4057 19.646 17.1775 19.7949 18.1156C19.9422 19.0442 21.1307 19.2256 21.1427 19.2272L21.108 19.4721Z"
      fill="#954B36"
    />
    <path
      d="M19.1345 20.3846C19.4383 19.6384 20.8356 20.4735 20.8356 20.4735C20.8356 20.4735 22.4853 19.4804 22.6785 20.4201C22.8555 21.2808 21.7528 21.6191 20.7515 21.6369C19.7504 21.6546 18.8804 21.0088 19.1345 20.3846Z"
      fill="#B44D4D"
    />
    <path
      d="M20.7013 20.9166C19.4406 20.9166 18.8304 20.4717 18.793 20.4435L18.9708 20.2072L18.8819 20.3253L18.9701 20.2068C18.9829 20.2162 20.2703 21.1362 23.0219 20.1855L23.1182 20.4651C22.1403 20.8031 21.3378 20.9166 20.7013 20.9166Z"
      fill="#9F4242"
    />
    <path
      d="M19.9525 16.8324L19.7344 16.7164C19.7462 16.694 20.0304 16.1689 20.7456 16.1689C21.4732 16.1689 21.6743 16.7095 21.6824 16.7325L21.45 16.8157C21.4442 16.8003 21.294 16.4164 20.7456 16.4164C20.1838 16.4164 19.9617 16.8155 19.9525 16.8324Z"
      fill="#ECDCE8"
    />
    <path
      d="M16.5765 16.4097H16.0703V16.6566H16.5765V16.4097Z"
      fill="#ECDCE8"
    />
    <path
      d="M25.3732 16.4097H24.8672V16.6566H25.3732V16.4097Z"
      fill="#ECDCE8"
    />
    <path
      d="M25.873 17.0581C25.8285 17.3821 25.7166 18.1678 25.6367 18.7243L25.8813 18.7594C26.0231 17.7685 26.0869 17.3149 26.1156 17.1051L25.873 17.0581Z"
      fill="#954B36"
    />
    <path
      d="M15.8011 18.7495L16.0475 18.7339L15.9387 16.9966L15.6953 17.0633L15.8011 18.7495Z"
      fill="#954B36"
    />
    <path
      d="M15.1352 19.4311C15.1112 19.6891 15.2717 19.9075 15.4937 19.9189C15.7157 19.9303 15.9151 19.7303 15.939 19.4724C15.963 19.2143 15.8025 18.996 15.5806 18.9846C15.3585 18.9732 15.1591 19.1731 15.1352 19.4311Z"
      fill="#E4CECE"
    />
    <path
      d="M26.6421 19.4311C26.6661 19.6891 26.5056 19.9075 26.2836 19.9189C26.0616 19.9303 25.8623 19.7303 25.8383 19.4724C25.8144 19.2143 25.9749 18.996 26.1967 18.9846C26.4188 18.9732 26.6182 19.1731 26.6421 19.4311Z"
      fill="#E4CECE"
    />
    <path
      d="M17.9208 16.2279C17.9129 16.201 17.9047 16.1701 17.8898 16.1447C17.8616 16.0962 17.8371 16.0663 17.7918 16.0328C17.7431 15.9968 17.6742 15.9725 17.6133 15.9742C17.546 15.9761 17.5205 15.9806 17.4575 16.005C17.4268 16.0169 17.4013 16.0367 17.3742 16.0557C17.3592 16.0661 17.3473 16.0795 17.3347 16.0922C17.2743 16.1316 17.225 16.1896 17.1798 16.2432C17.1637 16.2622 17.1482 16.2821 17.1342 16.3027C17.0867 16.372 17.063 16.4552 17.0793 16.5391C17.1066 16.6793 17.2338 16.7699 17.3709 16.7803C17.4087 16.7832 17.4476 16.779 17.4852 16.7744C17.5068 16.7718 17.5281 16.7671 17.549 16.7607C17.5864 16.7492 17.6271 16.7368 17.6627 16.7187C17.6991 16.7002 17.7337 16.6765 17.7655 16.651C17.8275 16.6014 17.8695 16.536 17.9016 16.4645C17.9324 16.3952 17.9421 16.3011 17.9208 16.2279Z"
      fill="white"
    />
    <path
      d="M22.7998 16.2503C22.7901 16.1929 22.7596 16.1285 22.7188 16.0866C22.6768 16.0437 22.6263 16.0057 22.5679 15.9882C22.5042 15.9692 22.4416 15.9644 22.3758 15.977C22.3311 15.9855 22.2849 16.0022 22.2449 16.0249C22.189 16.0567 22.1434 16.1027 22.1217 16.1647C22.1199 16.1695 22.1195 16.1744 22.118 16.1792C22.0986 16.2004 22.0809 16.2231 22.0657 16.2464C22.0253 16.3085 21.9944 16.3849 21.989 16.4595C21.98 16.5838 22.0562 16.6924 22.1711 16.7342C22.2293 16.7554 22.2937 16.7495 22.3535 16.7432C22.3737 16.7411 22.3938 16.737 22.4135 16.7311C22.4538 16.7191 22.4953 16.7064 22.5331 16.6874C22.6943 16.6062 22.8321 16.4418 22.7998 16.2503Z"
      fill="white"
    />
    <path
      d="M29.4051 40.332C28.4544 34.433 30.2432 29.7827 29.548 28.8362C28.6882 27.6657 24.3078 26.217 24.3078 26.217C24.3078 26.217 23.8009 29.0788 20.9626 29.1162C18.1243 29.0788 17.6173 26.217 17.6173 26.217C17.6173 26.217 12.6111 27.8754 11.7514 29.0458C11.0562 29.9923 11.8659 34.433 10.9151 40.3319C10.2539 44.4351 10.2595 48.0169 10.4404 48.363C10.8466 49.1401 11.9437 50.1573 11.9437 50.1573C11.9437 50.1573 15.3393 50.2493 19.838 50.2882V50.2904C19.8819 50.29 19.9254 50.2897 19.9692 50.2893C20.013 50.2897 20.0561 50.29 20.1002 50.2904V50.2882C24.6131 50.2493 28.3765 50.1573 28.3765 50.1573C28.3765 50.1573 29.4736 49.1401 29.8797 48.363C30.0606 48.0171 30.0663 44.4352 29.4051 40.332Z"
      fill="#FFC166"
    />
    <path
      d="M25.1378 26.5108C24.5872 27.5753 23.2066 29.6463 20.7393 29.811C18.1316 29.9828 17.2654 27.5265 17.0091 26.427C16.938 26.4522 16.8619 26.4794 16.7812 26.5086C17.0615 27.6372 17.9577 30.0671 20.4824 30.0671C20.5714 30.0671 20.6627 30.0641 20.7558 30.0578C23.3616 29.8838 24.8047 27.6988 25.3706 26.5972C25.2895 26.5668 25.212 26.538 25.1378 26.5108Z"
      fill="#FFD894"
    />
    <path
      d="M13.9931 40.4404L22.1396 39.8357L24.5903 41.8014C24.5903 41.8014 12.1138 44.1444 11.3686 43.7052C10.6234 43.266 9.7007 29.416 12.3154 29.049C13.8167 28.8382 13.9931 40.4404 13.9931 40.4404Z"
      fill="#C56647"
    />
    <path
      d="M26.864 38.5977L26.6488 39.5461C26.6488 39.5461 16.6815 38.2313 15.5764 38.4817C14.9629 38.6207 13.9922 40.4401 13.9922 40.4401C13.9922 40.4401 28.4172 43.5244 29.1902 43.0852C29.9632 42.646 31.0115 28.9455 29.3075 29.046C27.8439 29.1322 26.864 38.5977 26.864 38.5977Z"
      fill="#C56647"
    />
    <path
      d="M23.0742 39.0996C23.0964 39.0366 23.2784 37.9687 24.1394 36.9336C25.0546 35.8333 26.924 35.2875 27.0643 35.6303C27.2406 36.0609 25.5543 36.9091 25.5543 36.9091C25.5543 36.9091 27.3132 36.2308 28.2331 36.5803C28.9237 36.8426 28.5727 37.3524 28.5727 37.3524C28.5727 37.3524 28.8022 37.7087 28.6873 37.9473C28.5722 38.186 28.1554 38.2392 28.1554 38.2392C28.1554 38.2392 28.4501 38.4643 28.2488 38.7851C28.0474 39.1059 27.2805 38.8141 27.0511 39.0531C26.8724 39.2392 26.7542 39.627 26.7542 39.627L23.0742 39.0996Z"
      fill="#C56647"
    />
    <path
      d="M28.5705 37.3524C28.5705 37.3524 28.6209 37.2792 28.6459 37.1739C28.4436 37.0654 27.9073 36.8396 27.1895 37.0156C26.359 37.219 25.3295 37.8717 24.9141 38.7199C25.006 38.7428 25.098 38.7658 25.1902 38.7878C25.5789 38.0481 26.499 37.4775 27.2465 37.2944C27.9561 37.1207 28.4691 37.4029 28.5582 37.4567C28.6014 37.5088 28.6454 37.5618 28.6884 37.6141C28.6456 37.4695 28.5705 37.3524 28.5705 37.3524Z"
      fill="#954B36"
    />
    <path
      d="M28.1547 38.2392C28.1547 38.2392 28.3147 38.2186 28.4637 38.1464C28.1745 37.939 27.4412 37.7273 26.792 38.0853C26.3373 38.3359 26.0195 38.717 25.8594 38.941C25.9593 38.9632 26.0591 38.9852 26.159 39.0068C26.3173 38.8047 26.5763 38.5258 26.9188 38.337C27.4395 38.0499 28.0164 38.2092 28.2558 38.3551C28.2097 38.2814 28.1547 38.2392 28.1547 38.2392Z"
      fill="#954B36"
    />
    <path
      d="M24.1055 38.5754L24.4297 38.631C24.443 38.5647 24.7817 36.9987 27.1018 36.519L27.1011 36.5146C26.3174 36.6157 25.5543 36.909 25.5543 36.909C25.5543 36.909 26.1007 36.634 26.539 36.3176C24.4419 36.9596 24.119 38.5051 24.1055 38.5754Z"
      fill="#954B36"
    />
    <path
      d="M28.7368 37.1443C28.821 37.0067 28.8382 36.8396 28.7875 36.6477C28.6762 36.2245 27.7173 36.1712 27.168 36.1801L27.122 36.5111C27.7094 36.4687 28.4193 36.5594 28.4682 36.7453C28.4936 36.8416 28.4906 36.9169 28.4595 36.9695C28.418 37.0394 28.3321 37.0613 28.3323 37.0613L27.9279 37.147L28.2686 37.3701C28.2711 37.3717 28.51 37.531 28.4216 37.7212C28.321 37.9373 28.0685 37.9381 28.0552 37.9389L27.3912 37.9248L27.962 38.2561C27.9642 38.2574 28.1827 38.3894 28.1548 38.5538C28.143 38.6238 28.0468 38.7318 27.904 38.7437C27.86 38.7473 27.8088 38.7471 27.7525 38.747C27.4031 38.7475 26.7663 38.7459 26.6211 39.6034L26.9466 39.6506C27.035 39.1282 27.3286 39.0853 27.7341 39.0853H27.7414C27.8059 39.0858 27.8655 39.0854 27.9204 39.0808C28.1972 39.0577 28.438 38.8514 28.4804 38.6012C28.5073 38.4427 28.4595 38.3052 28.3856 38.196C28.5088 38.1368 28.637 38.0348 28.7193 37.8584C28.8301 37.6202 28.7532 37.4087 28.6403 37.2603C28.6748 37.2292 28.7083 37.1909 28.7368 37.1443Z"
      fill="#954B36"
    />
    <path
      d="M28.1427 39.6147L23.1554 38.783C23.1025 38.9642 23.0802 39.0803 23.0733 39.0997L23.0742 39.0998C23.0008 39.091 22.9265 39.0822 22.8522 39.0734L22.8516 39.0765L28.0794 39.9484L28.1427 39.6147Z"
      fill="#954B36"
    />
    <path
      d="M17.4416 34.5263C16.6793 34.1316 16.0771 33.4453 15.8052 32.6269C15.784 32.563 15.7323 32.5159 15.6606 32.5291C15.6014 32.54 15.5419 32.6107 15.5629 32.6741C15.8551 33.5539 16.479 34.3044 17.3035 34.7315C17.4433 34.8038 17.5828 34.5994 17.4416 34.5263Z"
      fill="#F4B056"
    />
  </g>
  <defs>
    <clipPath id="clip0_1457_25">
      <rect x="0.5" width="40" height="40" rx="20" fill="white" />
    </clipPath>
  </defs>
</svg>
