<?xml version="1.0" encoding="utf-8"?>
<!-- Generator: Adobe Illustrator 25.4.1, SVG Export Plug-In . SVG Version: 6.00 Build 0)  -->
<svg version="1.1" id="Layer_1" xmlns="http://www.w3.org/2000/svg" xmlns:xlink="http://www.w3.org/1999/xlink" x="0px" y="0px"
	 viewBox="0 0 91.3 300" style="enable-background:new 0 0 91.3 300;" xml:space="preserve">
<style type="text/css">
	.st0{fill:none;stroke:#020203;stroke-width:5;stroke-linecap:round;stroke-linejoin:round;stroke-miterlimit:10;}
</style>
<path class="st0" d="M4.8,4.1c0,55.3-1.1,111.4,0,166.5C5,179.2,4.7,200,4.7,200"/>
<path class="st0" d="M5.5,3.7c10.4-0.1,22.9-0.6,33.2,0.4c12.4,1.2,22.1,3.1,31.5,8C81.4,18,84.7,30.1,85.7,32.5
	c3.1,8.6,3.3,38.9-9.6,49.8c-4.6,3.8-11,8.7-22.4,12.4c-7,2.2-17.6,4.7-25.1,5.2c-9.1,0.6-16.3,0.6-22.5,0.6"/>
</svg>
