<?xml version="1.0" encoding="utf-8"?>
<!-- Generator: Adobe Illustrator 25.4.1, SVG Export Plug-In . SVG Version: 6.00 Build 0)  -->
<svg version="1.1" id="Layer_1" xmlns="http://www.w3.org/2000/svg" xmlns:xlink="http://www.w3.org/1999/xlink" x="0px" y="0px"
	 viewBox="0 0 79 300" style="enable-background:new 0 0 79 300;" xml:space="preserve">
<style type="text/css">
	.st0{fill:none;stroke:#020203;stroke-width:5;stroke-linecap:round;stroke-linejoin:round;stroke-miterlimit:10;}
</style>
<path class="st0" d="M3.6,3.2c0,46.6,1.8,105.4,1.1,151.9c-0.1,6.6-0.1,27.9-0.1,45.6"/>
<path class="st0" d="M3.6,3.2c5.1,0,12.6,0,17.8,0c5.9,0.1,12.5,0.9,18.4,1.6c8,1,13.8,2.2,20,7.5c3.6,3.1,8.1,8.8,10,13.1
	c4,8.8,5,22.3,4.3,32c0,0-0.6,8.3-1.6,12.1c-1,4-2.3,7.6-4.5,10.9c-3.6,5.4-7.1,7.4-10.8,9.7c-4.1,2.5-7.2,3.9-14.2,6.3
	c-4.9,1.7-15.5,4.3-21.5,4.6c-2.6,0.1-12.8,0.7-15.4,0.6l68.2,99.1"/>
</svg>
