<?xml version="1.0" encoding="utf-8"?>
<svg viewBox="0 0 900 1600" width="900px" height="1600px" xmlns="http://www.w3.org/2000/svg">
  <defs/>
  <g style="clip-path: url('#SVGID_00000019645004573418836110000011175136242518747265_');" transform="matrix(0.361561, 0, 0, 0.361561, 1.223609, 778.171875)">
    <g>
      <defs>
        <path id="SVGID_00000142176331297944564160000010402711358190447238_" d="M1452.485,1511.008&#10;&#9;&#9;&#9;&#9;&#9;&#9;c-44.074,77.506-56.092,170.055-49.032,257.887c2.061,25.632,61.197,261.762,50.563,263.343&#10;&#9;&#9;&#9;&#9;&#9;&#9;c46.455-6.908,89.613-27.502,131.707-48.333c45.115-22.326,89.948-45.222,134.485-68.68&#10;&#9;&#9;&#9;&#9;&#9;&#9;c14.139-7.448,29.015-15.684,36.742-29.672c5.517-9.986,6.682-21.719,7.669-33.085c10.287-118.517,16.05-240.271,9.455-359.073&#10;&#9;&#9;&#9;&#9;&#9;&#9;c-6.889-124.069-59.293-234.553-103.139-349.299c-13.505-35.343-25.618-69.774-27.233-107.6&#10;&#9;&#9;&#9;&#9;&#9;&#9;c-2.595-60.815,1.262-120.956,3.193-181.615c0.031-0.986,0.052-2.018-0.38-2.908c-7.008-14.42-32.575-8.1-44.521-6.903&#10;&#9;&#9;&#9;&#9;&#9;&#9;c-20.987,2.103-34.556,13.144-47.969,29.473c-20.08,24.445-33.957,53.88-40.376,84.838&#10;&#9;&#9;&#9;&#9;&#9;&#9;c-6.217,29.98-13.303,61.794-8.449,92.453c5.003,31.599,2.838,64.551,3.583,96.821c0.817,35.375,2.077,70.743,2.2,106.131&#10;&#9;&#9;&#9;&#9;&#9;&#9;c0.171,49.398,0.062,98.812-2.09,148.172c-1.067,24.466-1.736,35.027-16.881,53.616&#10;&#9;&#9;&#9;&#9;&#9;&#9;C1477.904,1473.891,1463.553,1491.545,1452.485,1511.008z"/>
      </defs>
      <path d="M1452.485,1511.008&#10;&#9;&#9;&#9;&#9;&#9;&#9;c-44.074,77.506-56.092,170.055-49.032,257.887c2.061,25.632,61.197,261.762,50.563,263.343&#10;&#9;&#9;&#9;&#9;&#9;&#9;c46.455-6.908,89.613-27.502,131.707-48.333c45.115-22.326,89.948-45.222,134.485-68.68&#10;&#9;&#9;&#9;&#9;&#9;&#9;c14.139-7.448,29.015-15.684,36.742-29.672c5.517-9.986,6.682-21.719,7.669-33.085c10.287-118.517,16.05-240.271,9.455-359.073&#10;&#9;&#9;&#9;&#9;&#9;&#9;c-6.889-124.069-59.293-234.553-103.139-349.299c-13.505-35.343-25.618-69.774-27.233-107.6&#10;&#9;&#9;&#9;&#9;&#9;&#9;c-2.595-60.815,1.262-120.956,3.193-181.615c0.031-0.986,0.052-2.018-0.38-2.908c-7.008-14.42-32.575-8.1-44.521-6.903&#10;&#9;&#9;&#9;&#9;&#9;&#9;c-20.987,2.103-34.556,13.144-47.969,29.473c-20.08,24.445-33.957,53.88-40.376,84.838&#10;&#9;&#9;&#9;&#9;&#9;&#9;c-6.217,29.98-13.303,61.794-8.449,92.453c5.003,31.599,2.838,64.551,3.583,96.821c0.817,35.375,2.077,70.743,2.2,106.131&#10;&#9;&#9;&#9;&#9;&#9;&#9;c0.171,49.398,0.062,98.812-2.09,148.172c-1.067,24.466-1.736,35.027-16.881,53.616&#10;&#9;&#9;&#9;&#9;&#9;&#9;C1477.904,1473.891,1463.553,1491.545,1452.485,1511.008z" style="overflow: visible; fill: rgb(249, 174, 143);"/>
      <clipPath id="SVGID_00000093878618801999457330000003639912267648113066_">
        <path d="M1452.485,1511.008&#10;&#9;&#9;&#9;&#9;&#9;&#9;c-44.074,77.506-56.092,170.055-49.032,257.887c2.061,25.632,61.197,261.762,50.563,263.343&#10;&#9;&#9;&#9;&#9;&#9;&#9;c46.455-6.908,89.613-27.502,131.707-48.333c45.115-22.326,89.948-45.222,134.485-68.68&#10;&#9;&#9;&#9;&#9;&#9;&#9;c14.139-7.448,29.015-15.684,36.742-29.672c5.517-9.986,6.682-21.719,7.669-33.085c10.287-118.517,16.05-240.271,9.455-359.073&#10;&#9;&#9;&#9;&#9;&#9;&#9;c-6.889-124.069-59.293-234.553-103.139-349.299c-13.505-35.343-25.618-69.774-27.233-107.6&#10;&#9;&#9;&#9;&#9;&#9;&#9;c-2.595-60.815,1.262-120.956,3.193-181.615c0.031-0.986,0.052-2.018-0.38-2.908c-7.008-14.42-32.575-8.1-44.521-6.903&#10;&#9;&#9;&#9;&#9;&#9;&#9;c-20.987,2.103-34.556,13.144-47.969,29.473c-20.08,24.445-33.957,53.88-40.376,84.838&#10;&#9;&#9;&#9;&#9;&#9;&#9;c-6.217,29.98-13.303,61.794-8.449,92.453c5.003,31.599,2.838,64.551,3.583,96.821c0.817,35.375,2.077,70.743,2.2,106.131&#10;&#9;&#9;&#9;&#9;&#9;&#9;c0.171,49.398,0.062,98.812-2.09,148.172c-1.067,24.466-1.736,35.027-16.881,53.616&#10;&#9;&#9;&#9;&#9;&#9;&#9;C1477.904,1473.891,1463.553,1491.545,1452.485,1511.008z" style="overflow: visible;"/>
      </clipPath>
      <path style="opacity:0.3;clip-path:url(#SVGID_00000093878618801999457330000003639912267648113066_);fill:#FFFFFF;" d="&#10;&#9;&#9;&#9;&#9;&#9;M1606.708,871.334c-4.675,5.777-7.513,13.229-9.65,20.476c-9.307,31.541-10.11,65.547-2.302,97.497&#10;&#9;&#9;&#9;&#9;&#9;c4.961,20.273,80.397,0.252,80.591,6.314c-1.255-39.203-2.53-78.404-3.823-117.605c-0.099-3.015-0.234-6.159-1.695-8.797&#10;&#9;&#9;&#9;&#9;&#9;c-7.74-13.969-45.321-11.278-56.614-3.855C1610.709,867.012,1608.564,869.041,1606.708,871.334z"/>
    </g>
    <path style="fill:#F9AE8F;" d="M598.471,691.637c-41.658-67.418,7.623-137.995,88.711-118.488&#10;&#9;&#9;&#9;&#9;c58.531,14.081,107.149,57.612,153.377,93.75c48.448,37.876,85.956,97.675,51.576,141.633&#10;&#9;&#9;&#9;&#9;c-66.815,85.432-185.658-10.61-239.847-59.011c-17.758-15.861-35.676-31.899-49.458-51.315&#10;&#9;&#9;&#9;&#9;C601.28,696.023,599.827,693.832,598.471,691.637z"/>
    <g>
      <defs>
        <path id="SVGID_00000178178780152153039580000002198520011363352197_" d="M1777.318,1912.297&#10;&#9;&#9;&#9;&#9;&#9;&#9;c-20.789-53.851-33.104-110.981-36-168.636c0.204,4.062-49.071-25.338-53.488-31.713&#10;&#9;&#9;&#9;&#9;&#9;&#9;c-13.152-18.979-12.237-39.326-15.402-61.732c-13.993-99.06-36.485-197.569-74.074-290.497&#10;&#9;&#9;&#9;&#9;&#9;&#9;c-19.166-47.385-42.171-93.614-74.905-133.227c-23.406-28.325-51.457-52.879-79.398-77.318&#10;&#9;&#9;&#9;&#9;&#9;&#9;c-40.141-35.113-78.519-73.861-120.609-106.787c-33.148-25.926-110.882-39.547-154.781-22.265&#10;&#9;&#9;&#9;&#9;&#9;&#9;c-43.904,17.283-83.681,44.958-122.032,71.644c-80.088,55.728-159.187,114.643-225.349,185.107&#10;&#9;&#9;&#9;&#9;&#9;&#9;c-17.962,19.13-34.981,39.168-50.651,60.224c-10.105,13.578-18.948,42.928-38.75,40.289c-6.813-0.908-13.178-3.79-19.724-5.888&#10;&#9;&#9;&#9;&#9;&#9;&#9;c-17.228-5.522-35.66-5.598-53.752-5.623c-10.469-0.015-21.139,0-31.109,3.195c-7.611,2.439-14.577,6.681-20.615,11.917&#10;&#9;&#9;&#9;&#9;&#9;&#9;c-24.075,20.877-31.721,56.21-26.07,87.571c5.651,31.361,22.669,59.468,41.367,85.272&#10;&#9;&#9;&#9;&#9;&#9;&#9;c30.511,42.107,66.53,80.846,106.078,114.181c85.639,72.184,164.103,145.464,237.365,229.504&#10;&#9;&#9;&#9;&#9;&#9;&#9;c51.042,58.55,108.079,113.351,177.855,148.984c66.478,33.948,140.12,59.119,185.086,123.028&#10;&#9;&#9;&#9;&#9;&#9;&#9;c12.427,17.662,21.704,37.305,30.917,56.836c9.903,20.995,22.662,71.633,45.746,71.74&#10;&#9;&#9;&#9;&#9;&#9;&#9;c19.971,0.092,42.166-41.805,55.855-53.881c38.847-34.267,90.388-58.681,134.605-85.666&#10;&#9;&#9;&#9;&#9;&#9;&#9;c78.666-47.913,159.965-91.504,243.416-130.492C1813.764,1992.166,1793.099,1953.176,1777.318,1912.297z"/>
      </defs>
      <path d="M1777.318,1912.297&#10;&#9;&#9;&#9;&#9;&#9;&#9;c-20.789-53.851-33.104-110.981-36-168.636c0.204,4.062-49.071-25.338-53.488-31.713&#10;&#9;&#9;&#9;&#9;&#9;&#9;c-13.152-18.979-12.237-39.326-15.402-61.732c-13.993-99.06-36.485-197.569-74.074-290.497&#10;&#9;&#9;&#9;&#9;&#9;&#9;c-19.166-47.385-42.171-93.614-74.905-133.227c-23.406-28.325-51.457-52.879-79.398-77.318&#10;&#9;&#9;&#9;&#9;&#9;&#9;c-40.141-35.113-78.519-73.861-120.609-106.787c-33.148-25.926-110.882-39.547-154.781-22.265&#10;&#9;&#9;&#9;&#9;&#9;&#9;c-43.904,17.283-83.681,44.958-122.032,71.644c-80.088,55.728-159.187,114.643-225.349,185.107&#10;&#9;&#9;&#9;&#9;&#9;&#9;c-17.962,19.13-34.981,39.168-50.651,60.224c-10.105,13.578-18.948,42.928-38.75,40.289c-6.813-0.908-13.178-3.79-19.724-5.888&#10;&#9;&#9;&#9;&#9;&#9;&#9;c-17.228-5.522-35.66-5.598-53.752-5.623c-10.469-0.015-21.139,0-31.109,3.195c-7.611,2.439-14.577,6.681-20.615,11.917&#10;&#9;&#9;&#9;&#9;&#9;&#9;c-24.075,20.877-31.721,56.21-26.07,87.571c5.651,31.361,22.669,59.468,41.367,85.272&#10;&#9;&#9;&#9;&#9;&#9;&#9;c30.511,42.107,66.53,80.846,106.078,114.181c85.639,72.184,164.103,145.464,237.365,229.504&#10;&#9;&#9;&#9;&#9;&#9;&#9;c51.042,58.55,108.079,113.351,177.855,148.984c66.478,33.948,140.12,59.119,185.086,123.028&#10;&#9;&#9;&#9;&#9;&#9;&#9;c12.427,17.662,21.704,37.305,30.917,56.836c9.903,20.995,22.662,71.633,45.746,71.74&#10;&#9;&#9;&#9;&#9;&#9;&#9;c19.971,0.092,42.166-41.805,55.855-53.881c38.847-34.267,90.388-58.681,134.605-85.666&#10;&#9;&#9;&#9;&#9;&#9;&#9;c78.666-47.913,159.965-91.504,243.416-130.492C1813.764,1992.166,1793.099,1953.176,1777.318,1912.297z" style="overflow: visible; fill: rgb(249, 174, 143);"/>
      <clipPath id="SVGID_00000176742375178844183320000011214161435753432251_">
        <path d="M1777.318,1912.297&#10;&#9;&#9;&#9;&#9;&#9;&#9;c-20.789-53.851-33.104-110.981-36-168.636c0.204,4.062-49.071-25.338-53.488-31.713&#10;&#9;&#9;&#9;&#9;&#9;&#9;c-13.152-18.979-12.237-39.326-15.402-61.732c-13.993-99.06-36.485-197.569-74.074-290.497&#10;&#9;&#9;&#9;&#9;&#9;&#9;c-19.166-47.385-42.171-93.614-74.905-133.227c-23.406-28.325-51.457-52.879-79.398-77.318&#10;&#9;&#9;&#9;&#9;&#9;&#9;c-40.141-35.113-78.519-73.861-120.609-106.787c-33.148-25.926-110.882-39.547-154.781-22.265&#10;&#9;&#9;&#9;&#9;&#9;&#9;c-43.904,17.283-83.681,44.958-122.032,71.644c-80.088,55.728-159.187,114.643-225.349,185.107&#10;&#9;&#9;&#9;&#9;&#9;&#9;c-17.962,19.13-34.981,39.168-50.651,60.224c-10.105,13.578-18.948,42.928-38.75,40.289c-6.813-0.908-13.178-3.79-19.724-5.888&#10;&#9;&#9;&#9;&#9;&#9;&#9;c-17.228-5.522-35.66-5.598-53.752-5.623c-10.469-0.015-21.139,0-31.109,3.195c-7.611,2.439-14.577,6.681-20.615,11.917&#10;&#9;&#9;&#9;&#9;&#9;&#9;c-24.075,20.877-31.721,56.21-26.07,87.571c5.651,31.361,22.669,59.468,41.367,85.272&#10;&#9;&#9;&#9;&#9;&#9;&#9;c30.511,42.107,66.53,80.846,106.078,114.181c85.639,72.184,164.103,145.464,237.365,229.504&#10;&#9;&#9;&#9;&#9;&#9;&#9;c51.042,58.55,108.079,113.351,177.855,148.984c66.478,33.948,140.12,59.119,185.086,123.028&#10;&#9;&#9;&#9;&#9;&#9;&#9;c12.427,17.662,21.704,37.305,30.917,56.836c9.903,20.995,22.662,71.633,45.746,71.74&#10;&#9;&#9;&#9;&#9;&#9;&#9;c19.971,0.092,42.166-41.805,55.855-53.881c38.847-34.267,90.388-58.681,134.605-85.666&#10;&#9;&#9;&#9;&#9;&#9;&#9;c78.666-47.913,159.965-91.504,243.416-130.492C1813.764,1992.166,1793.099,1953.176,1777.318,1912.297z" style="overflow: visible;"/>
      </clipPath>
      <g style="clip-path:url(#SVGID_00000176742375178844183320000011214161435753432251_);">
        <path style="fill:#F58F70;" d="M800.018,1479.309c11.156,35.653-6.256,77.148-41.264,91.672&#10;&#9;&#9;&#9;&#9;&#9;&#9;c-40.354,16.741-92.514-0.616-126.775-23.831c-39.919-27.049-73.16-77.462-50.261-126.761&#10;&#9;&#9;&#9;&#9;&#9;&#9;c14.524-31.269,50.12-51.335,84.394-47.575C714.789,1378.156,783.151,1425.41,800.018,1479.309z"/>
        <polygon style="fill:#F58F70;" points="1474.578,1798.214 905.461,1899.537 790.562,1763.537 &#9;&#9;&#9;&#9;&#9;"/>
      </g>
    </g>
    <path style="fill:#005793;" d="M1462.094,183.65H760.406c-28.792,0-52.133,23.341-52.133,52.133v1323.861v3.867v182.57&#10;&#9;&#9;&#9;&#9;c0,28.792,23.341,52.133,52.133,52.133h701.688c28.792,0,52.133-23.341,52.133-52.133v-182.57v-3.867V235.783&#10;&#9;&#9;&#9;&#9;C1514.227,206.991,1490.886,183.65,1462.094,183.65z"/>
    <rect x="746.649" y="340.309" style="fill:#FFFFFF;" width="727.929" height="1338.621"/>
    <path style="fill:#45A0BE;" d="M1217.807,270.724h-213.114c-4.673,0-8.496-3.823-8.496-8.496l0,0&#10;&#9;&#9;&#9;&#9;c0-4.673,3.823-8.496,8.496-8.496h213.114c4.673,0,8.496,3.823,8.496,8.496l0,0&#10;&#9;&#9;&#9;&#9;C1226.304,266.901,1222.48,270.724,1217.807,270.724z"/>
    <polygon style="fill:#ACDFEA;" points="1878.562,1891.537 1241.568,2255.537 1686.231,3125.917 2743.094,3025.014 &#9;&#9;&#9;"/>
    <path style="fill:#F9AE8F;" d="M803.862,1447.556c15.661,33.917,3.746,77.31-29.097,96.228&#10;&#9;&#9;&#9;&#9;c-37.858,21.806-91.821,11.32-128.79-7.282c-43.074-21.675-82.539-67.379-66.19-119.221&#10;&#9;&#9;&#9;&#9;c10.37-32.881,43.081-57.371,77.553-58.062C706.3,1358.239,780.184,1396.282,803.862,1447.556z"/>
    <path style="fill:#F9AE8F;" d="M797.203,1246.584c8.412,15.503,14.041,32.19,14.012,49.705&#10;&#9;&#9;&#9;&#9;c-0.04,23.382-10.852,46.53-28.757,61.568c-64.213,53.932-138.526-21.268-185.129-63.061&#10;&#9;&#9;&#9;&#9;c-37.649-33.762-65.047-90.855-34.269-138.839c19.522-30.434,59.354-46.242,94.432-37.479&#10;&#9;&#9;&#9;&#9;c25.606,6.397,46.818,23.931,66.206,41.84c19.127,17.667,37.485,36.258,53.622,56.692&#10;&#9;&#9;&#9;&#9;C784.624,1226.259,791.544,1236.153,797.203,1246.584z"/>
    <path style="fill:#F9AE8F;" d="M802.156,975.182c-3.362,22.682-14.482,44.132-32.449,58.85&#10;&#9;&#9;&#9;&#9;c-38.968,31.922-93.933,22.197-132.297-5.477c-21.393-15.432-38.528-39.251-34.396-66.841&#10;&#9;&#9;&#9;&#9;c3.921-26.175,15.797-50.787,31.379-71.979c13.452-18.297,32.907-42.871,57.86-43.168c8.777-0.105,17.319,2.794,25.34,6.361&#10;&#9;&#9;&#9;&#9;c37.986,16.893,74.983,45.273,83.706,88.145C803.582,952.295,803.83,963.891,802.156,975.182z"/>
    <path style="opacity:0.3;fill:#FFFFFF;" d="M667.103,1473.87c0.805,23.253,20.433,45.527,40.23,55.631&#10;&#9;&#9;&#9;&#9;c22.891,11.685,35.791-4.275,48.336-22.459c8.221-11.917,19.829-30.195,22.167-44.469c2-12.204-3.984-21.834-14.524-27.484&#10;&#9;&#9;&#9;&#9;c-14.018-7.517-29.114-14.462-45.017-14.101c-25.686,0.583-47.64,21.18-50.876,46.079&#10;&#9;&#9;&#9;&#9;C667.125,1469.337,667.024,1471.608,667.103,1473.87z"/>
    <path style="opacity:0.3;fill:#FFFFFF;" d="M654.567,1260.484c-5.06,25.322,10.459,54.388,29.266,70.353&#10;&#9;&#9;&#9;&#9;c21.746,18.459,39.75,4.512,57.94-11.93c11.92-10.775,29.12-27.558,35.286-42.38c5.273-12.673,1.266-24.599-8.677-33.392&#10;&#9;&#9;&#9;&#9;c-13.226-11.695-27.759-23.048-45.03-26.714c-27.894-5.922-56.862,10.726-66.708,36.796&#10;&#9;&#9;&#9;&#9;C655.747,1255.592,655.06,1258.021,654.567,1260.484z"/>
    <path style="opacity:0.3;fill:#FFFFFF;" d="M671.386,988.506c1.093,18.388,19.566,58.793,47.651,50.887&#10;&#9;&#9;&#9;&#9;c4.114-1.159,7.482-3.759,10.629-6.39c26.652-22.283,46.16-51.466,55.728-83.371c9.578-31.939-42.852-35.782-63.495-26.943&#10;&#9;&#9;&#9;&#9;c-23.542,10.079-47.237,32.263-50.239,56.763C671.29,982.471,671.207,985.493,671.386,988.506z"/>
    <polygon style="fill:#52BBD0;" points="1878.562,1891.537 1241.568,2255.537 1305.494,2380.666 1985.879,2032.239 &#9;&#9;&#9;"/>
  </g>
  <g style="" transform="matrix(0.423414, 0, 0, 0.423414, -103.92395, 646.593872)">
    <defs>
      <rect id="SVGID_1_" x="1" y="0" width="2165.513" height="2273"/>
    </defs>
    <clipPath id="SVGID_00000019645004573418836110000011175136242518747265_">
      <rect x="1" y="0" width="2165.513" height="2273" style="overflow: visible;"/>
    </clipPath>
  </g>
  <g transform="matrix(0.217808, -0.077406, 0.077406, 0.217808, -713.164673, -772.782593)" style="transform-origin: 1060.66px 1060.68px;">
    <path style="fill:#9686BE;" d="M1964.967,517.722c-0.107-0.132-0.264-0.215-0.434-0.229c-28.041-2.129-57.251-3.192-89.297-3.255&#10;&#9;&#9;c-0.319,0-0.587,0.239-0.621,0.555l-110.895,1035.09c-46.981-18.499-94.138-32.706-140.174-42.226&#10;&#9;&#9;c-9.552-1.978-19.6-3.859-29.861-5.593c-0.183-0.029-0.353,0.01-0.49,0.122c-0.139,0.112-0.224,0.273-0.236,0.448l-0.484,6.568&#10;&#9;&#9;c-0.516,6.986-1.033,13.968-1.523,20.959c-4.516-9.115-9.216-18.903-14.689-30.586c-0.09-0.19-0.269-0.322-0.476-0.356&#10;&#9;&#9;c-21.023-3.089-42.587-5.427-64.094-6.948c-0.2-0.029-0.419,0.078-0.546,0.254l-27.147,36.945&#10;&#9;&#9;c1.447-11.688,2.86-24.093,4.317-37.837c0.017-0.171-0.036-0.341-0.149-0.473c-0.112-0.127-0.272-0.205-0.446-0.214&#10;&#9;&#9;c-39.695-1.691-79.853-0.682-119.361,3.016c-82.747,7.732-246.473,60.389-253.452,62.645&#10;&#9;&#9;c-5.396-2.202-109.18-44.467-158.529-57.544c-90.428-23.961-184.425-31.376-279.384-22.017&#10;&#9;&#9;c-92.794,9.14-184.907,35.791-266.446,77.086L266.718,519.281c-0.044-0.307-0.309-0.536-0.619-0.536c-0.008,0-0.017,0-0.027,0&#10;&#9;&#9;c-39.115,1.617-74.876,4.731-109.324,9.516c-0.341,0.048-0.58,0.36-0.533,0.701l159.419,1183.556&#10;&#9;&#9;c0.029,0.204,0.154,0.38,0.334,0.472c0.09,0.044,0.188,0.068,0.285,0.068c0.1,0,0.2-0.024,0.292-0.073&#10;&#9;&#9;c209.346-110.863,398.175-141.124,519.723-146.99c133.565-6.475,218.288,14.26,222.061,17.608&#10;&#9;&#9;c1.727,16.516,10.1,54.251,50.45,54.246c0.39,0,0.789-0.005,1.189-0.01c23.311-0.424,41.588-20.014,44.582-47.707&#10;&#9;&#9;c134.888-24.389,266.782-25.944,392.011-4.609c94.555,16.112,184.885,44.326,284.28,88.794c0.185,0.073,0.392,0.068,0.565-0.029&#10;&#9;&#9;c0.173-0.097,0.287-0.273,0.309-0.468l133.39-1155.629C1965.125,518.019,1965.076,517.849,1964.967,517.722z M382.832,1637.318&#10;&#9;&#9;c-2.156,0.219-3.754-0.74-4.392-2.655c-0.711-2.149-0.017-5.208,2.377-6.621c0.295-0.171,0.395-0.551,0.224-0.848&#10;&#9;&#9;c-0.115-0.2-0.324-0.312-0.541-0.312c-0.105,0-0.207,0.024-0.305,0.078c-0.799,0.448-1.52,1.052-2.085,1.7&#10;&#9;&#9;c-0.597-11.503-2.115-23.132-3.586-34.387c-0.351-2.69-0.702-5.374-1.04-8.058c-3.798-30.11-7.924-60.058-11.822-88.16&#10;&#9;&#9;c-4.887-35.201-10.212-72.823-17.271-121.977c-6.214-43.264-13.055-90.406-20.913-144.131&#10;&#9;&#9;c-7.111-48.618-14.526-99.024-22.674-154.094c-7.482-50.587-14.994-101.164-22.529-151.74&#10;&#9;&#9;c-6.899-46.299-13.82-92.594-20.755-138.888c-5.657-37.764-11.325-75.527-17.006-113.29c-3.857-25.627-7.717-51.259-11.586-76.891&#10;&#9;&#9;l-4.266-28.239c-0.511-3.391,2.061-5.851,4.845-6.27c2-0.287,4.29,0.453,4.748,3.474l0.085,0.604&#10;&#9;&#9;c0.056,0.409,0.112,0.818,0.19,1.218c1.788,9.213,3.089,18.723,4.346,27.922c0.636,4.638,1.269,9.271,1.963,13.875&#10;&#9;&#9;c4.456,29.549,8.904,59.098,13.345,88.647c6.146,40.901,12.28,81.802,18.399,122.703c7.262,48.535,14.504,97.066,21.722,145.607&#10;&#9;&#9;c7.698,51.756,15.372,103.522,23.006,155.292c8.117,55.045,15.479,105.256,22.504,153.489&#10;&#9;&#9;c7.771,53.379,14.17,97.763,20.141,139.672c4.789,33.622,10.431,73.485,15.966,114.197l0.061,0.434&#10;&#9;&#9;c3.403,25.023,6.923,50.898,9.893,76.403l0.154,1.33c0.716,6.144,1.454,12.497,1.907,18.758l0.022,0.317&#10;&#9;&#9;C388.313,1631.257,388.71,1636.675,382.832,1637.318z M971.255,1539.818c-0.482,2.655-2.836,5.125-6.214,4.531&#10;&#9;&#9;c-38.273-6.928-77.339-11.328-116.118-13.077c-138.796-6.251-278.48,20.302-403.973,76.823c-3.208,1.442-6.119-0.433-7.245-2.938&#10;&#9;&#9;c-0.809-1.792-0.745-4.341,2.092-5.617c36.058-16.239,73.054-30.09,109.962-41.169c83.824-25.169,171.324-37.851,258.785-37.851&#10;&#9;&#9;c53.383,0,106.764,4.726,159.256,14.231C970.924,1535.316,971.614,1537.835,971.255,1539.818z M1766.559,1614.395&#10;&#9;&#9;c-0.928,0.677-2.86,1.647-5.306,0.565c-37.958-16.794-77.763-30.908-118.308-41.944c-71.576-19.478-145.668-29.549-220.218-29.929&#10;&#9;&#9;c-1.464-0.009-2.916-0.009-4.38-0.009c-72.81,0-145.12,9.335-214.965,27.756c-1.761,0.463-3.391,0.063-4.584-1.14&#10;&#9;&#9;c-1.347-1.354-1.92-3.493-1.425-5.316c0.432-1.583,1.618-2.704,3.343-3.157c40.738-10.748,82.815-18.524,125.071-23.123&#10;&#9;&#9;c74.194-8.068,149.847-6.328,224.86,5.179c74.236,11.391,146.829,32.633,215.767,63.132c1.51,0.668,2.387,1.759,2.536,3.153&#10;&#9;&#9;C1769.134,1611.271,1768.172,1613.216,1766.559,1614.395z M1914.616,560.606c-0.054,0.404-0.107,0.809-0.134,1.218&#10;&#9;&#9;c-0.646,8.906-1.839,17.978-2.994,26.753c-0.587,4.453-1.171,8.901-1.691,13.34l-115.339,987.276&#10;&#9;&#9;c-0.314,2.67-2.141,3.839-3.203,4.297c-1.842,0.789-3.998,0.638-5.369-0.39c-1.116-0.829-1.605-2.129-1.415-3.761l0.073-0.57&#10;&#9;&#9;c0.053-0.405,0.107-0.809,0.134-1.218c0.646-8.906,1.839-17.978,2.994-26.753c0.587-4.453,1.172-8.901,1.691-13.34l115.339-987.275&#10;&#9;&#9;c0.314-2.67,2.141-3.839,3.203-4.297c0.782-0.336,1.62-0.502,2.431-0.502c1.099,0,2.148,0.302,2.938,0.892&#10;&#9;&#9;c1.116,0.828,1.605,2.129,1.415,3.761L1914.616,560.606z"/>
    <g>
      <path style="fill:#E2D1E8;" d="M1879.635,476.246c-14.965-8.999-31.213-17.369-48.299-24.872&#10;&#9;&#9;&#9;c-0.178-0.078-0.385-0.063-0.558,0.024c-0.171,0.097-0.285,0.268-0.312,0.463l-124.128,948.718&#10;&#9;&#9;&#9;c-28.526-10.056-61.208-16.482-102.764-20.209c-0.4-0.078-0.646,0.22-0.677,0.565c-3.637,40.487-6.982,81.432-9.939,121.699&#10;&#9;&#9;&#9;c-0.024,0.317,0.2,0.604,0.517,0.658c10.248,1.734,20.28,3.61,29.817,5.583c46.214,9.559,93.563,23.849,140.732,42.47&#10;&#9;&#9;&#9;c0.073,0.03,0.151,0.044,0.229,0.044c0.112,0,0.224-0.029,0.322-0.088c0.168-0.102,0.277-0.277,0.299-0.467l115.061-1073.983&#10;&#9;&#9;&#9;C1879.959,476.607,1879.842,476.373,1879.635,476.246z"/>
      <path style="fill:#E2D1E8;" d="M1549.742,1440.53c-0.224-0.039-0.443,0.068-0.575,0.248l-38.022,51.746&#10;&#9;&#9;&#9;c-0.136,0.185-0.158,0.423-0.063,0.633c0.095,0.205,0.295,0.341,0.521,0.361c21.476,1.515,43.008,3.849,64.002,6.938&#10;&#9;&#9;&#9;c0.029,0.005,0.061,0.005,0.09,0.005c0.195,0,0.382-0.093,0.499-0.254c0.139-0.18,0.163-0.428,0.066-0.633&#10;&#9;&#9;&#9;c-9.359-19.99-18.112-39.727-26.017-58.665C1550.159,1440.701,1549.966,1440.555,1549.742,1440.53z"/>
      <path style="fill:#E2D1E8;" d="M1496.949,1373.817c-15.822-0.886-32.816-1.7-50.104-1.7c-0.46,0-0.92,0-1.383,0&#10;&#9;&#9;&#9;c-30.11,0.073-60.029,1.871-88.927,5.345c-60.014,7.211-116.289,20.677-167.26,40.024c-32.395,12.302-60.711,27.546-84.17,45.315&#10;&#9;&#9;&#9;c-46.891-48.258-115.378-80.803-192.914-91.658c-82.857-11.6-171.906-10.592-272.243,3.079&#10;&#9;&#9;&#9;c-53.315,7.264-109.366,17.944-176.345,33.598L316.876,468.87c-0.029-0.181-0.136-0.341-0.293-0.434&#10;&#9;&#9;&#9;c-0.153-0.097-0.348-0.122-0.521-0.058c-19.428,6.475-37.245,12.896-54.467,19.63c-0.27,0.102-0.431,0.38-0.392,0.667&#10;&#9;&#9;&#9;l148.23,1066.495c0.029,0.2,0.151,0.37,0.329,0.463c0.183,0.092,0.395,0.097,0.572,0.005&#10;&#9;&#9;&#9;c81.595-41.452,173.848-68.199,266.782-77.354c94.805-9.32,188.659-1.934,278.94,21.987&#10;&#9;&#9;&#9;c50.343,13.34,157.514,57.135,158.591,57.574c0.075,0.034,0.156,0.048,0.237,0.048c0.065,0,0.129-0.01,0.192-0.029&#10;&#9;&#9;&#9;c1.683-0.551,169.404-54.815,253.401-62.665c39.452-3.678,79.551-4.702,119.19-3.006c0.01,0,0.02,0,0.027,0&#10;&#9;&#9;&#9;c0.317,0,0.587-0.239,0.621-0.56c4.105-38.728,7.209-78.148,9.223-117.158C1497.555,1374.129,1497.292,1373.836,1496.949,1373.817&#10;&#9;&#9;&#9;z"/>
    </g>
    <g>
      <path style="fill:#ACD7C7;" d="M389.18,1626.073c-0.453-6.29-1.193-12.658-1.91-18.816l-0.156-1.33&#10;&#9;&#9;&#9;c-2.97-25.515-6.49-51.395-9.895-76.423l-0.059-0.433c-5.537-40.716-11.179-80.579-15.97-114.206&#10;&#9;&#9;&#9;c-5.968-41.914-12.368-86.294-20.141-139.672c-7.024-48.239-14.385-98.45-22.504-153.499&#10;&#9;&#9;&#9;c-7.635-51.771-15.308-103.536-23.006-155.292c-7.218-48.54-14.461-97.071-21.722-145.606&#10;&#9;&#9;&#9;c-6.12-40.901-12.253-81.802-18.399-122.703c-4.441-29.549-8.889-59.098-13.344-88.647c-0.695-4.604-1.325-9.228-1.959-13.861&#10;&#9;&#9;&#9;c-1.262-9.213-2.565-18.743-4.36-27.985c-0.073-0.38-0.124-0.765-0.178-1.15l-0.087-0.624c-0.56-3.683-3.491-4.946-6.168-4.521&#10;&#9;&#9;&#9;c-3.388,0.511-6.519,3.527-5.89,7.688l4.266,28.239c3.868,25.632,7.729,51.264,11.585,76.891&#10;&#9;&#9;&#9;c5.681,37.763,11.349,75.527,17.006,113.29c6.935,46.294,13.856,92.589,20.755,138.888c7.534,50.577,15.047,101.154,22.528,151.74&#10;&#9;&#9;&#9;c8.146,55.064,15.564,105.47,22.674,154.094c7.856,53.714,14.697,100.861,20.913,144.121&#10;&#9;&#9;&#9;c7.057,49.154,12.382,86.776,17.267,121.977c3.9,28.093,8.024,58.041,11.822,88.141c0.338,2.685,0.689,5.374,1.043,8.063&#10;&#9;&#9;&#9;c1.513,11.586,3.077,23.562,3.627,35.366c0.01,0.161-0.01,0.356-0.024,0.551c-0.034,0.414-0.073,0.877,0.041,1.276&#10;&#9;&#9;&#9;c0.02,0.068,0.051,0.132,0.09,0.185c-0.176,1.13-0.093,2.266,0.231,3.24c0.748,2.261,2.572,3.547,4.955,3.547&#10;&#9;&#9;&#9;c0.246,0,0.499-0.015,0.758-0.044c7.074-0.77,6.589-7.357,6.236-12.171L389.18,1626.073z"/>
      <path style="fill:#ACD7C7;" d="M968.025,1533.524c-138.691-25.106-283.447-16.926-418.625,23.649&#10;&#9;&#9;&#9;c-36.96,11.099-74.007,24.969-110.114,41.228c-3.442,1.549-3.844,4.77-2.718,7.269c1.055,2.343,3.439,4.165,6.185,4.165&#10;&#9;&#9;&#9;c0.877,0,1.79-0.185,2.709-0.599c125.316-56.443,264.831-82.966,403.402-76.715c38.726,1.744,77.739,6.138,115.953,13.057&#10;&#9;&#9;&#9;c4.204,0.755,7.079-2.29,7.666-5.54C972.98,1537.289,971.794,1534.206,968.025,1533.524z"/>
      <path style="fill:#ACD7C7;" d="M1766.92,1605.269c-69.04-30.548-141.741-51.819-216.083-63.23&#10;&#9;&#9;&#9;c-75.125-11.517-150.886-13.262-225.187-5.179c-42.314,4.604-84.455,12.395-125.251,23.152c-2.176,0.575-3.676,2.008-4.229,4.039&#10;&#9;&#9;&#9;c-0.609,2.241,0.093,4.862,1.742,6.524c1.52,1.53,3.579,2.051,5.788,1.467c69.749-18.397,141.94-27.717,214.649-27.717&#10;&#9;&#9;&#9;c1.457,0,2.916,0,4.375,0.01c74.44,0.38,148.425,10.436,219.895,29.891c40.485,11.016,80.229,25.106,118.128,41.875&#10;&#9;&#9;&#9;c0.886,0.395,1.8,0.585,2.704,0.585c1.349,0,2.675-0.434,3.844-1.286c1.961-1.432,3.125-3.829,2.894-5.973&#10;&#9;&#9;&#9;C1769.991,1607.589,1768.829,1606.112,1766.92,1605.269z"/>
      <path style="fill:#ACD7C7;" d="M1914.019,555.271c-1.722-1.276-4.377-1.501-6.609-0.531c-2.227,0.96-3.666,2.889-3.946,5.296&#10;&#9;&#9;&#9;l-115.339,987.275c-0.519,4.434-1.104,8.877-1.691,13.325c-1.157,8.789-2.353,17.881-2.999,26.826&#10;&#9;&#9;&#9;c-0.026,0.38-0.078,0.76-0.129,1.14l-0.073,0.59c-0.243,2.07,0.434,3.815,1.907,4.911c1.004,0.745,2.324,1.13,3.693,1.13&#10;&#9;&#9;&#9;c0.979,0,1.985-0.195,2.916-0.599c2.227-0.96,3.666-2.889,3.946-5.296l115.339-987.276c0.519-4.433,1.104-8.877,1.691-13.325&#10;&#9;&#9;&#9;c1.157-8.789,2.353-17.88,2.998-26.825c0.027-0.38,0.078-0.76,0.129-1.14l0.073-0.59&#10;&#9;&#9;&#9;C1916.17,558.112,1915.493,556.367,1914.019,555.271z"/>
    </g>
    <path style="fill:#EF83B3;" d="M1603.574,1380.37c-20.178-1.817-40.675-2.889-60.494-3.922l-5.995-0.317&#10;&#9;&#9;c-8.066-0.424-16.126-0.901-24.18-1.383c-5.32-0.312-10.638-0.629-15.956-0.931c-0.115-0.009-0.326,0.049-0.451,0.161&#10;&#9;&#9;c-0.124,0.107-0.198,0.263-0.207,0.428c-2.013,38.991-5.113,78.387-9.218,117.1c-1.552,14.665-3.06,27.81-4.606,40.185&#10;&#9;&#9;c-0.034,0.282,0.124,0.55,0.387,0.657c0.26,0.102,0.565,0.015,0.733-0.209l65.931-89.734c7.8,18.645,16.414,38.051,25.613,57.695&#10;&#9;&#9;c5.892,12.58,10.889,22.962,15.724,32.672c0.107,0.214,0.324,0.346,0.558,0.346c0.039,0,0.08-0.005,0.122-0.01&#10;&#9;&#9;c0.275-0.058,0.48-0.292,0.499-0.57c0.536-7.751,1.108-15.498,1.681-23.245l0.485-6.573c2.957-40.253,6.302-81.193,9.939-121.68&#10;&#9;&#9;C1604.171,1380.701,1603.917,1380.399,1603.574,1380.37z"/>
    <path style="fill:#F5EAF5;" d="M1831.345,451.272c-0.514-0.224-1.033-0.439-1.554-0.653c-0.461-0.186-0.921-0.375-1.376-0.57&#10;&#9;&#9;c-0.724-0.317-1.452-0.619-2.178-0.916l-1.276-0.531c-4.653-1.959-9.257-3.81-13.681-5.501c-1.396-0.541-2.792-1.067-4.193-1.583&#10;&#9;&#9;c-4.475-1.666-9.125-3.318-13.817-4.896l-1.357-0.463c-0.748-0.258-1.498-0.511-2.248-0.76c-5.995-1.964-11.583-3.693-17.079-5.281&#10;&#9;&#9;l-0.314-0.093c-6.119-1.759-12.394-3.435-18.662-4.984l-0.689-0.156c-5.454-1.34-11.033-2.607-17.05-3.874&#10;&#9;&#9;c-0.848-0.18-1.7-0.351-2.55-0.521l-1.535-0.307c-4.714-0.96-9.43-1.851-14.017-2.66c-1.6-0.283-3.203-0.56-4.806-0.828&#10;&#9;&#9;c-4.453-0.746-9.179-1.472-14.046-2.168l-1.683-0.243c-0.855-0.122-1.712-0.249-2.57-0.366c-6.446-0.867-12.292-1.574-17.861-2.153&#10;&#9;&#9;l-0.249-0.029c-5.912-0.619-11.99-1.154-18.579-1.642c-0.828-0.058-1.657-0.112-2.488-0.161l-1.646-0.107&#10;&#9;&#9;c-4.916-0.336-9.484-0.599-13.959-0.804c-2.005-0.093-4.01-0.166-6.017-0.239c-4.4-0.161-8.409-0.277-12.256-0.351l-1.065-0.02&#10;&#9;&#9;c-1.773-0.034-3.547-0.068-5.32-0.083c-4.187-0.039-8.385-0.034-12.577-0.005l-2.036,0.01c-1.191,0.005-2.38,0.01-3.571,0.029&#10;&#9;&#9;c-6.458,0.098-12.338,0.259-17.975,0.483c-102.669,4.112-210.563,27.834-312.024,68.604l-8.799,3.532&#10;&#9;&#9;c-51.524,20.648-104.798,42.002-147.786,76.336c-21.564-23.664-46.477-44.716-74.058-62.577c-3.953-2.563-8.17-5.155-13.781-8.477&#10;&#9;&#9;c-49.919-29.564-108.484-50.241-179.039-63.215c-53.171-9.779-110.228-14.231-174.41-13.647&#10;&#9;&#9;c-64.913,0.595-130.939,6.899-196.247,18.733c-7.232,1.311-15.135,2.841-24.158,4.682c-1.927,0.39-3.846,0.799-5.771,1.203&#10;&#9;&#9;l-1.513,0.322c-5.88,1.237-11.749,2.523-17.442,3.82l-1.993,0.453c-1.893,0.424-3.788,0.853-5.678,1.296&#10;&#9;&#9;c-8.373,1.963-15.805,3.781-22.721,5.559c-1.607,0.414-3.213,0.843-4.816,1.277l-2.682,0.716&#10;&#9;&#9;c-6.044,1.598-10.996,2.933-15.588,4.215c-3.625,1.013-7.24,2.046-10.853,3.094c-4.095,1.184-8.18,2.402-12.26,3.634l-2.468,0.745&#10;&#9;&#9;c-2.972,0.897-5.944,1.788-8.904,2.719c-5.422,1.696-11.245,3.576-17.805,5.749l-2.209,0.712c-0.29,0.097-0.461,0.434-0.414,0.735&#10;&#9;&#9;l146.829,939.612c0.027,0.171,0.124,0.322,0.268,0.419c0.144,0.098,0.319,0.127,0.49,0.093&#10;&#9;&#9;c67.23-15.727,123.434-26.446,176.885-33.73c100.223-13.651,189.165-14.655,271.898-3.079&#10;&#9;&#9;c77.478,10.846,145.87,43.405,192.578,91.688c0.122,0.127,0.285,0.19,0.448,0.19c0.132,0,0.265-0.044,0.378-0.127&#10;&#9;&#9;c23.452-17.842,51.812-33.145,84.299-45.476c50.876-19.313,107.054-32.755,166.968-39.956c28.848-3.464,58.719-5.261,88.782-5.335&#10;&#9;&#9;c0.458,0,0.918,0,1.378,0c17.257,0,34.231,0.814,50.036,1.7c5.316,0.297,10.631,0.614,15.949,0.931&#10;&#9;&#9;c8.058,0.478,16.121,0.955,24.192,1.384l5.993,0.312c19.81,1.038,40.295,2.11,60.448,3.917&#10;&#9;&#9;c41.802,3.756,74.592,10.236,103.185,20.404c0.181,0.068,0.378,0.044,0.536-0.058c0.161-0.098,0.268-0.263,0.292-0.449&#10;&#9;&#9;l124.24-949.59C1831.75,451.642,1831.599,451.379,1831.345,451.272z M1022.012,1161.673c0.185,1.247-0.26,2.538-1.108,3.21&#10;&#9;&#9;c-0.67,0.531-1.53,0.624-2.49,0.239c-35.608-14.129-72.625-25.213-110.026-32.94c-133.541-27.605-275.274-13.7-399.093,39.142&#10;&#9;&#9;c-1.99,0.853-3.915-0.341-4.616-1.983c-0.483-1.13-0.385-2.597,1.33-3.328c35.746-15.259,72.699-27.396,109.831-36.068&#10;&#9;&#9;c50.911-11.898,103.14-17.793,155.283-17.793c85.32,0,170.381,15.795,248.822,46.913&#10;&#9;&#9;C1021.501,1159.68,1021.908,1160.966,1022.012,1161.673z M445.659,631.538c-0.483-1.13-0.385-2.602,1.33-3.332&#10;&#9;&#9;c35.751-15.255,72.704-27.391,109.831-36.063c134.213-31.366,277.723-21.023,404.106,29.116c1.557,0.619,1.963,1.905,2.068,2.611&#10;&#9;&#9;c0.183,1.247-0.263,2.538-1.11,3.206c-0.675,0.536-1.537,0.614-2.49,0.238c-35.641-14.134-72.659-25.217-110.023-32.935&#10;&#9;&#9;c-133.546-27.605-275.276-13.7-399.09,39.142C448.28,634.374,446.363,633.18,445.659,631.538z M456.539,769.276&#10;&#9;&#9;c-1.572,0.672-2.794,0.019-3.379-0.414c-1.011-0.76-1.605-1.978-1.476-3.03c0.1-0.828,0.643-1.471,1.566-1.866c0,0,0,0,0.002,0&#10;&#9;&#9;c35.744-15.259,72.696-27.396,109.828-36.068c50.911-11.898,103.145-17.793,155.287-17.793c85.32,0,170.376,15.79,248.819,46.908&#10;&#9;&#9;c1.978,0.784,2.492,2.948,1.841,4.585c-0.465,1.179-1.6,2.173-3.374,1.476c-35.607-14.129-72.625-25.208-110.023-32.94&#10;&#9;&#9;C722.083,702.529,580.357,716.439,456.539,769.276z M478.117,903.049c-0.482-1.13-0.388-2.597,1.33-3.328&#10;&#9;&#9;c35.741-15.259,72.694-27.391,109.828-36.068c50.913-11.897,103.139-17.788,155.285-17.788c85.322,0,170.386,15.79,248.821,46.908&#10;&#9;&#9;c1.557,0.614,1.964,1.9,2.068,2.607c0.185,1.247-0.26,2.538-1.109,3.21c-0.68,0.531-1.542,0.614-2.492,0.239&#10;&#9;&#9;c-35.61-14.129-72.628-25.213-110.023-32.94c-133.541-27.601-275.274-13.7-399.09,39.142&#10;&#9;&#9;C480.741,905.885,478.819,904.691,478.117,903.049z M494.075,1038.804c-0.482-1.13-0.384-2.597,1.33-3.328&#10;&#9;&#9;c35.746-15.259,72.699-27.396,109.831-36.067c50.913-11.898,103.139-17.788,155.285-17.788c85.32,0,170.384,15.791,248.819,46.909&#10;&#9;&#9;c1.978,0.784,2.492,2.948,1.844,4.579c-0.466,1.179-1.598,2.168-3.374,1.476c-35.608-14.129-72.625-25.213-110.026-32.94&#10;&#9;&#9;c-133.541-27.605-275.274-13.695-399.09,39.142C496.694,1041.635,494.777,1040.446,494.075,1038.804z M1020.904,1288.283&#10;&#9;&#9;c-0.677,0.536-1.542,0.614-2.488,0.239c-0.002,0-0.002,0-0.002,0c-35.608-14.129-72.625-25.213-110.026-32.94&#10;&#9;&#9;c-133.538-27.61-275.274-13.695-399.093,39.142c-1.99,0.853-3.915-0.341-4.616-1.983c-0.483-1.13-0.385-2.597,1.33-3.328&#10;&#9;&#9;c35.746-15.259,72.699-27.396,109.831-36.068c50.904-11.893,103.142-17.788,155.278-17.788c85.327,0,170.378,15.791,248.826,46.909&#10;&#9;&#9;c1.557,0.619,1.966,1.905,2.07,2.616C1022.198,1286.329,1021.752,1287.615,1020.904,1288.283z M1103.693,1076.947&#10;&#9;&#9;c0.828,104.204,3.847,210.215,8.967,315.091c0.102,2.071-1.42,2.884-2.755,2.948c-1.659,0.083-3.381-0.93-3.481-3.006&#10;&#9;&#9;c-2.892-59.196-5.126-118.854-6.638-177.324c-2.716-104.944-3.279-211.394-1.676-316.402&#10;&#9;&#9;c1.593-104.209,5.384-210.176,11.272-314.969c0.066-1.184,0.66-2.115,1.674-2.626c1.101-0.565,2.487-0.512,3.442,0.112&#10;&#9;&#9;c0.553,0.366,1.199,1.082,1.12,2.446c-3.32,59.137-5.99,118.79-7.934,177.299C1104.2,865.466,1102.857,971.925,1103.693,1076.947z&#10;&#9;&#9; M1663.461,1294.31c-0.592,0.444-1.815,1.087-3.382,0.414c-35.313-15.069-72.445-27.137-110.362-35.868&#10;&#9;&#9;c-49.551-11.406-100.401-17.057-151.224-17.057c-84.769,0-169.421,15.737-247.53,46.723c-0.957,0.38-1.818,0.302-2.49-0.239&#10;&#9;&#9;c-0.848-0.667-1.291-1.958-1.109-3.201c0.105-0.711,0.511-1.998,2.068-2.616c36.212-14.368,73.873-25.574,111.941-33.315&#10;&#9;&#9;c134.384-27.313,277.143-13.023,401.994,40.263c0.926,0.395,1.469,1.042,1.569,1.871&#10;&#9;&#9;C1665.064,1292.337,1664.472,1293.55,1663.461,1294.31z M1663.461,1170.91c-0.592,0.443-1.815,1.087-3.382,0.414&#10;&#9;&#9;c-35.305-15.064-72.435-27.137-110.362-35.873c-49.539-11.405-100.398-17.057-151.211-17.057&#10;&#9;&#9;c-84.779,0-169.421,15.737-247.542,46.728c-0.957,0.38-1.818,0.302-2.49-0.239c-0.848-0.668-1.291-1.954-1.109-3.201&#10;&#9;&#9;c0.105-0.711,0.511-1.998,2.068-2.616c36.212-14.368,73.873-25.574,111.941-33.315c134.391-27.323,277.15-13.023,401.994,40.263&#10;&#9;&#9;c0.926,0.395,1.469,1.043,1.569,1.871C1665.064,1168.937,1664.472,1170.15,1663.461,1170.91z M1674.066,1040.373&#10;&#9;&#9;c-0.59,0.443-1.818,1.087-3.382,0.414c-35.313-15.069-72.445-27.138-110.362-35.868c-49.549-11.405-100.401-17.057-151.224-17.057&#10;&#9;&#9;c-84.769,0-169.421,15.737-247.53,46.723c-0.957,0.38-1.818,0.302-2.49-0.239c-0.848-0.667-1.291-1.954-1.109-3.201&#10;&#9;&#9;c0.105-0.711,0.511-1.998,2.068-2.616c36.205-14.368,73.866-25.574,111.938-33.316c134.387-27.317,277.15-13.023,401.997,40.263&#10;&#9;&#9;c0.926,0.395,1.469,1.043,1.569,1.871C1675.668,1038.4,1675.076,1039.613,1674.066,1040.373z M1690.024,904.618&#10;&#9;&#9;c-0.59,0.443-1.815,1.082-3.381,0.414c-35.306-15.065-72.436-27.138-110.362-35.873c-49.542-11.405-100.399-17.052-151.212-17.052&#10;&#9;&#9;c-84.779,0-169.424,15.732-247.54,46.723c-0.957,0.375-1.818,0.297-2.492-0.239c-0.846-0.667-1.291-1.958-1.109-3.205&#10;&#9;&#9;c0.105-0.711,0.514-1.993,2.068-2.612c36.212-14.367,73.873-25.573,111.941-33.315c134.391-27.318,277.15-13.023,401.996,40.263&#10;&#9;&#9;c0.926,0.395,1.467,1.043,1.567,1.871C1691.627,902.644,1691.035,903.858,1690.024,904.618z M1716.221,768.862&#10;&#9;&#9;c-0.59,0.438-1.818,1.087-3.381,0.414c-35.33-15.079-72.462-27.147-110.362-35.873c-49.539-11.405-100.399-17.057-151.211-17.057&#10;&#9;&#9;c-84.776,0-169.421,15.736-247.542,46.728c-1.774,0.697-2.909-0.302-3.374-1.472c-0.651-1.637-0.139-3.8,1.842-4.589&#10;&#9;&#9;c36.209-14.363,73.87-25.569,111.94-33.315c134.398-27.313,277.157-13.018,401.996,40.268c0.926,0.395,1.469,1.043,1.569,1.871&#10;&#9;&#9;C1717.824,766.889,1717.232,768.103,1716.221,768.862z M1723.719,631.534c-0.702,1.646-2.621,2.84-4.619,1.988&#10;&#9;&#9;c-35.327-15.074-72.46-27.147-110.365-35.873c-49.539-11.406-100.401-17.057-151.214-17.057&#10;&#9;&#9;c-84.776,0-169.416,15.732-247.54,46.723c-0.957,0.38-1.813,0.297-2.49-0.233c-0.846-0.668-1.291-1.954-1.109-3.201&#10;&#9;&#9;c0.105-0.716,0.511-2.003,2.07-2.621h-0.002c36.212-14.363,73.873-25.569,111.941-33.315&#10;&#9;&#9;c134.384-27.317,277.14-13.023,401.994,40.263C1724.104,628.937,1724.201,630.408,1723.719,631.534z"/>
    <g>
      <path style="fill:#724192;" d="M849.117,595.597c37.296,7.708,74.243,18.767,109.819,32.877c1.369,0.541,2.694,0.395,3.722-0.419&#10;&#9;&#9;&#9;c1.204-0.95,1.82-2.665,1.571-4.365c-0.243-1.661-1.281-2.972-2.845-3.59c-126.618-50.226-270.4-60.584-404.847-29.174&#10;&#9;&#9;&#9;c-37.198,8.692-74.218,20.847-110.038,36.131c-2.4,1.028-2.729,3.235-1.988,4.969c0.726,1.7,2.429,3.035,4.412,3.035&#10;&#9;&#9;&#9;c0.595,0,1.218-0.122,1.846-0.39C574.355,581.921,715.827,568.05,849.117,595.597z"/>
      <path style="fill:#724192;" d="M855.378,731.353c37.33,7.717,74.277,18.782,109.819,32.881c2.463,0.974,4.282-0.39,4.992-2.178&#10;&#9;&#9;&#9;c0.875-2.207,0.163-5.131-2.543-6.202c-126.618-50.226-270.4-60.579-404.847-29.174c-37.203,8.692-74.226,20.853-110.036,36.136&#10;&#9;&#9;&#9;c-1.34,0.57-2.163,1.589-2.319,2.865c-0.18,1.506,0.59,3.143,1.966,4.18c0.841,0.629,1.798,0.95,2.775,0.95&#10;&#9;&#9;&#9;c0.614,0,1.237-0.126,1.842-0.385C580.615,717.681,722.088,703.806,855.378,731.353z"/>
      <path style="fill:#724192;" d="M881.573,867.108c37.327,7.717,74.275,18.782,109.819,32.881c1.372,0.541,2.695,0.4,3.725-0.424&#10;&#9;&#9;&#9;c1.203-0.955,1.82-2.665,1.569-4.365c-0.247-1.661-1.284-2.967-2.846-3.586c-126.605-50.226-270.387-60.589-404.846-29.179&#10;&#9;&#9;&#9;c-37.208,8.696-74.228,20.853-110.038,36.136c-2.399,1.028-2.725,3.235-1.985,4.97c0.723,1.696,2.426,3.031,4.407,3.031&#10;&#9;&#9;&#9;c0.597,0,1.22-0.122,1.846-0.39C606.813,853.432,748.283,839.561,881.573,867.108z"/>
      <path style="fill:#724192;" d="M897.531,1002.863c37.33,7.717,74.28,18.782,109.821,32.882c2.471,0.974,4.283-0.39,4.992-2.178&#10;&#9;&#9;&#9;c0.875-2.202,0.161-5.125-2.545-6.197c-126.608-50.231-270.385-60.598-404.845-29.179c-37.203,8.692-74.226,20.853-110.038,36.136&#10;&#9;&#9;&#9;c-2.4,1.028-2.728,3.235-1.988,4.969c0.723,1.695,2.427,3.03,4.407,3.03c0.597,0,1.221-0.122,1.846-0.39&#10;&#9;&#9;&#9;C622.771,989.192,764.244,975.321,897.531,1002.863z"/>
      <path style="fill:#724192;" d="M1020.403,1157.907c-126.615-50.231-270.398-60.584-404.845-29.179&#10;&#9;&#9;&#9;c-37.203,8.691-74.226,20.852-110.038,36.136c-2.4,1.028-2.728,3.235-1.988,4.97c0.723,1.696,2.426,3.03,4.407,3.03&#10;&#9;&#9;&#9;c0.597,0,1.22-0.122,1.847-0.39c123.59-52.745,265.057-66.62,398.35-39.074c37.33,7.717,74.28,18.782,109.821,32.881&#10;&#9;&#9;&#9;c1.371,0.541,2.697,0.4,3.722-0.424c1.203-0.95,1.82-2.665,1.569-4.365C1023.002,1159.831,1021.966,1158.525,1020.403,1157.907z"/>
      <path style="fill:#724192;" d="M1020.403,1281.306c-126.615-50.231-270.39-60.589-404.845-29.179&#10;&#9;&#9;&#9;c-37.203,8.692-74.226,20.853-110.038,36.136c-2.4,1.028-2.728,3.235-1.988,4.969c0.723,1.695,2.426,3.03,4.407,3.03&#10;&#9;&#9;&#9;c0.597,0,1.22-0.122,1.847-0.39c123.59-52.745,265.065-66.611,398.35-39.074c37.33,7.717,74.28,18.782,109.821,32.881&#10;&#9;&#9;&#9;c1.367,0.545,2.689,0.395,3.722-0.419c1.201-0.95,1.82-2.665,1.569-4.36C1023.004,1283.236,1021.966,1281.925,1020.403,1281.306z"/>
      <path style="fill:#724192;" d="M1722.876,627.056c-125.083-53.378-268.105-67.712-402.733-40.331&#10;&#9;&#9;&#9;c-38.141,7.756-75.873,18.987-112.152,33.374c-1.562,0.624-2.599,1.934-2.843,3.6c-0.248,1.696,0.368,3.411,1.572,4.361&#10;&#9;&#9;&#9;c1.03,0.804,2.351,0.955,3.722,0.414c124.72-49.476,266.068-59.99,398.016-29.608c37.832,8.706,74.893,20.755,110.152,35.805&#10;&#9;&#9;&#9;c0.626,0.268,1.247,0.385,1.844,0.385c1.983,0,3.688-1.335,4.412-3.03C1725.607,630.291,1725.278,628.084,1722.876,627.056z"/>
      <path style="fill:#724192;" d="M1716.618,762.816c-125.073-53.378-268.098-67.717-402.735-40.336&#10;&#9;&#9;&#9;c-38.143,7.756-75.875,18.987-112.152,33.374c-2.707,1.077-3.415,4.005-2.541,6.212c0.709,1.779,2.533,3.138,4.992,2.168&#10;&#9;&#9;&#9;c124.715-49.476,266.068-60.005,398.018-29.613c37.827,8.707,74.888,20.755,110.15,35.805c0.607,0.258,1.23,0.385,1.844,0.385&#10;&#9;&#9;&#9;c0.977,0,1.934-0.321,2.775-0.95c1.376-1.033,2.148-2.675,1.966-4.175C1718.781,764.409,1717.958,763.391,1716.618,762.816z"/>
      <path style="fill:#724192;" d="M1690.421,898.571c-125.078-53.383-268.103-67.712-402.732-40.331&#10;&#9;&#9;&#9;c-38.141,7.751-75.873,18.981-112.15,33.373c-1.562,0.619-2.599,1.929-2.843,3.591c-0.25,1.701,0.366,3.415,1.567,4.365&#10;&#9;&#9;&#9;c1.035,0.819,2.356,0.96,3.725,0.419c124.71-49.476,266.061-59.985,398.016-29.612c37.851,8.716,74.913,20.765,110.15,35.805&#10;&#9;&#9;&#9;c0.607,0.258,1.23,0.385,1.844,0.385c0.977,0,1.934-0.322,2.775-0.95c1.376-1.033,2.149-2.675,1.968-4.176&#10;&#9;&#9;&#9;C1692.584,900.165,1691.76,899.146,1690.421,898.571z"/>
      <path style="fill:#724192;" d="M1674.46,1034.327c-125.071-53.383-268.1-67.712-402.733-40.331&#10;&#9;&#9;&#9;c-38.143,7.751-75.877,18.982-112.148,33.373c-1.564,0.619-2.599,1.93-2.845,3.591c-0.248,1.7,0.366,3.415,1.569,4.365&#10;&#9;&#9;&#9;c1.028,0.814,2.353,0.955,3.722,0.419c124.71-49.476,266.058-59.99,398.018-29.608c37.843,8.711,74.903,20.755,110.15,35.8&#10;&#9;&#9;&#9;c0.607,0.258,1.23,0.385,1.844,0.385c0.977,0,1.934-0.321,2.775-0.95c1.376-1.033,2.148-2.675,1.966-4.175&#10;&#9;&#9;&#9;C1676.625,1035.92,1675.802,1034.901,1674.46,1034.327z"/>
      <path style="fill:#724192;" d="M1663.859,1164.864c-125.076-53.388-268.103-67.712-402.733-40.331&#10;&#9;&#9;&#9;c-38.141,7.751-75.873,18.982-112.15,33.374c-1.563,0.619-2.599,1.929-2.845,3.591c-0.248,1.7,0.366,3.416,1.569,4.365&#10;&#9;&#9;&#9;c1.03,0.819,2.353,0.96,3.722,0.419c124.717-49.476,266.073-60,398.018-29.612c37.851,8.716,74.913,20.765,110.15,35.804&#10;&#9;&#9;&#9;c0.607,0.258,1.23,0.385,1.844,0.385c0.977,0,1.934-0.322,2.775-0.95c1.376-1.033,2.148-2.675,1.966-4.175&#10;&#9;&#9;&#9;C1666.022,1166.457,1665.198,1165.439,1663.859,1164.864z"/>
      <path style="fill:#724192;" d="M1663.856,1288.264c-125.078-53.378-268.102-67.717-402.73-40.331&#10;&#9;&#9;&#9;c-38.141,7.751-75.873,18.982-112.15,33.374c-1.563,0.619-2.599,1.929-2.845,3.591c-0.248,1.7,0.366,3.416,1.569,4.365&#10;&#9;&#9;&#9;c1.03,0.814,2.353,0.96,3.722,0.419c124.708-49.476,266.058-59.99,398.018-29.608c37.844,8.711,74.903,20.755,110.15,35.8&#10;&#9;&#9;&#9;c0.607,0.258,1.23,0.385,1.844,0.385c0.977,0,1.934-0.321,2.775-0.95c1.376-1.033,2.148-2.675,1.966-4.175&#10;&#9;&#9;&#9;C1666.022,1289.857,1665.198,1288.838,1663.856,1288.264z"/>
      <path style="fill:#724192;" d="M1116.864,583.286c0.085-1.525-0.514-2.792-1.683-3.557c-1.32-0.858-3.206-0.935-4.689-0.185&#10;&#9;&#9;&#9;c-1.408,0.711-2.266,2.051-2.358,3.673c-5.885,104.808-9.678,210.794-11.272,315.018c-1.603,105.022-1.04,211.496,1.676,316.45&#10;&#9;&#9;&#9;c1.513,58.479,3.747,118.153,6.638,177.353c0.136,2.767,2.404,4.2,4.555,4.2c0.078,0,0.156-0.005,0.234-0.005&#10;&#9;&#9;&#9;c1.993-0.097,4.075-1.471,3.942-4.253c-5.123-104.862-8.139-210.858-8.967-315.043c-0.836-105.003,0.507-211.448,3.99-316.382&#10;&#9;&#9;&#9;C1110.872,702.062,1113.542,642.418,1116.864,583.286z"/>
    </g>
  </g>
  <g transform="matrix(0.911965, 0, 0, 0.911965, -343.936981, -303.498047)" style="">
    <g transform="matrix(1, 0, 0, 1, -576.21936, -1732.802368)">
      <g transform="matrix(0.294393, 0, 0, 0.294393, 1357.879517, 2359.704834)" style="">
        <g>
          <path style="fill:#D95E83;" d="M1590.625,546.631c2.512-2.511,4.709-5.221,6.593-8.082c1.884-2.86,3.454-5.87,4.709-8.98&#10;&#9;&#9;&#9;&#9;&#9;c1.256-3.11,2.197-6.319,2.825-9.579c0.628-3.26,0.941-6.569,0.941-9.879c0-3.31-0.314-6.62-0.941-9.879&#10;&#9;&#9;&#9;&#9;&#9;c-0.629-3.26-1.57-6.469-2.826-9.579c-1.256-3.11-2.826-6.12-4.709-8.981c-1.885-2.86-4.082-5.571-6.594-8.082l-12.716-12.717&#10;&#9;&#9;&#9;&#9;&#9;l-12.716-12.717l-12.716-12.717l-12.716-12.717l-12.716-12.717l-12.716-12.717l-12.715-12.717l-12.716-12.717&#10;&#9;&#9;&#9;&#9;&#9;c-2.511-2.511-5.222-4.708-8.082-6.591s-5.871-3.453-8.981-4.708c-3.11-1.255-6.32-2.197-9.58-2.825&#10;&#9;&#9;&#9;&#9;&#9;c-3.26-0.628-6.569-0.941-9.879-0.941s-6.619,0.314-9.879,0.941c-3.26,0.628-6.471,1.57-9.58,2.825&#10;&#9;&#9;&#9;&#9;&#9;c-3.109,1.255-6.119,2.825-8.979,4.708s-5.57,4.081-8.081,6.591l-9.503,9.503l-9.503,9.503l-9.504,9.503l-9.503,9.502&#10;&#9;&#9;&#9;&#9;&#9;l-9.503,9.503l-9.504,9.503l-9.503,9.503l-9.503,9.503l21.847,21.847l21.847,21.847l21.847,21.847l21.847,21.847l21.847,21.847&#10;&#9;&#9;&#9;&#9;&#9;l21.847,21.847l21.847,21.847l21.847,21.847l9.503-9.503l9.503-9.503l9.502-9.503l9.503-9.502l9.503-9.503l9.502-9.503&#10;&#9;&#9;&#9;&#9;&#9;l9.503-9.503L1590.625,546.631z"/>
          <path style="fill:#CF4D73;" d="M1590.623,473.59l-2.123-2.123l-2.123-2.123l-2.123-2.123l-2.122-2.123l-2.122-2.123&#10;&#9;&#9;&#9;&#9;&#9;l-2.123-2.123l-2.123-2.123l-2.123-2.123c3.938,5.743,6.159,11.801,6.967,18.069c0.809,6.268,0.203,12.748-1.513,19.335&#10;&#9;&#9;&#9;&#9;&#9;c-1.716,6.586-4.542,13.28-8.176,19.978c-3.634,6.697-8.075,13.398-13.021,19.999c-4.946,6.601-10.396,13.101-16.05,19.397&#10;&#9;&#9;&#9;&#9;&#9;c-5.652,6.296-11.508,12.389-17.262,18.173c-5.754,5.785-11.408,11.262-16.657,16.327c-5.249,5.066-10.095,9.72-14.234,13.859&#10;&#9;&#9;&#9;&#9;&#9;l2.614,2.614l2.613,2.614l2.613,2.613l2.613,2.614l2.613,2.614l2.614,2.613l2.614,2.614l2.613,2.614l9.503-9.503l9.503-9.503&#10;&#9;&#9;&#9;&#9;&#9;l9.502-9.503l9.503-9.502l9.503-9.503l9.502-9.503l9.503-9.503l9.503-9.503c2.512-2.511,4.709-5.221,6.593-8.082&#10;&#9;&#9;&#9;&#9;&#9;c1.884-2.86,3.454-5.87,4.709-8.98c1.256-3.11,2.197-6.319,2.825-9.579c0.628-3.26,0.941-6.569,0.941-9.879&#10;&#9;&#9;&#9;&#9;&#9;c0-3.31-0.314-6.62-0.941-9.879c-0.629-3.26-1.57-6.469-2.826-9.579c-1.256-3.11-2.826-6.12-4.709-8.981&#10;&#9;&#9;&#9;&#9;&#9;C1595.332,478.811,1593.135,476.101,1590.623,473.59z"/>
          <path style="fill:#EFEFEF;" d="M1418.996,713.695l0.291,0.291l0.291,0.291l0.291,0.29l0.29,0.291l0.29,0.291l0.291,0.29&#10;&#9;&#9;&#9;&#9;&#9;l0.291,0.291l0.291,0.291c0.437,0.437,0.908,0.818,1.408,1.143c0.499,0.325,1.025,0.595,1.571,0.808&#10;&#9;&#9;&#9;&#9;&#9;c0.545,0.214,1.108,0.373,1.682,0.476c0.573,0.103,1.155,0.151,1.739,0.143c0.583-0.008,1.167-0.071,1.743-0.189&#10;&#9;&#9;&#9;&#9;&#9;c0.575-0.118,1.144-0.291,1.694-0.519c0.551-0.229,1.086-0.512,1.594-0.85c0.509-0.338,0.991-0.731,1.439-1.18l10.924-10.924&#10;&#9;&#9;&#9;&#9;&#9;l10.924-10.924l10.924-10.924l10.923-10.924l10.923-10.924l10.924-10.924l10.924-10.924l10.924-10.924&#10;&#9;&#9;&#9;&#9;&#9;c0.448-0.447,0.842-0.93,1.181-1.438s0.622-1.041,0.851-1.592c0.229-0.551,0.402-1.118,0.521-1.694&#10;&#9;&#9;&#9;&#9;&#9;c0.118-0.575,0.182-1.159,0.189-1.742c0.007-0.583-0.04-1.166-0.144-1.739c-0.103-0.573-0.261-1.137-0.475-1.682&#10;&#9;&#9;&#9;&#9;&#9;c-0.214-0.545-0.483-1.072-0.809-1.572s-0.706-0.973-1.143-1.41l-0.291-0.291l-0.291-0.292l-0.291-0.292l-0.292-0.291&#10;&#9;&#9;&#9;&#9;&#9;l-0.292-0.291l-0.291-0.292l-0.291-0.292l-0.291-0.291l0.002-0.002l0.002-0.002l0.002-0.001l0.003-0.001l0.003-0.002&#10;&#9;&#9;&#9;&#9;&#9;l0.002-0.001l0.002-0.001l0.002-0.002l-21.276-21.275l-21.276-21.275l-21.277-21.275l-21.276-21.275l-21.276-21.275&#10;&#9;&#9;&#9;&#9;&#9;l-21.277-21.275l-21.276-21.275l-21.276-21.275l-0.001,0.002l-0.001,0.001l-0.002,0.001l-0.001,0.002l-0.001,0.002l-0.002,0.001&#10;&#9;&#9;&#9;&#9;&#9;l-0.001,0.001l-0.001,0.002l-0.291-0.291l-0.291-0.291l-0.291-0.291l-0.292-0.291l-0.292-0.291l-0.291-0.291l-0.291-0.291&#10;&#9;&#9;&#9;&#9;&#9;l-0.291-0.291c-0.437-0.437-0.909-0.818-1.408-1.143c-0.5-0.326-1.027-0.596-1.572-0.81c-0.545-0.214-1.108-0.373-1.682-0.476&#10;&#9;&#9;&#9;&#9;&#9;c-0.572-0.103-1.155-0.151-1.738-0.143c-0.583,0.008-1.167,0.071-1.743,0.189c-0.575,0.118-1.144,0.292-1.694,0.521&#10;&#9;&#9;&#9;&#9;&#9;s-1.086,0.513-1.594,0.852c-0.509,0.338-0.992,0.732-1.44,1.181l-10.923,10.924l-10.924,10.923l-10.923,10.923l-10.923,10.924&#10;&#9;&#9;&#9;&#9;&#9;l-10.924,10.924l-10.923,10.923l-10.923,10.923l-10.924,10.924c-0.448,0.448-0.842,0.932-1.181,1.44s-0.622,1.042-0.851,1.593&#10;&#9;&#9;&#9;&#9;&#9;c-0.229,0.551-0.402,1.119-0.521,1.695c-0.118,0.576-0.182,1.16-0.189,1.743c-0.007,0.583,0.04,1.166,0.144,1.739&#10;&#9;&#9;&#9;&#9;&#9;c0.103,0.573,0.261,1.136,0.475,1.682c0.214,0.545,0.483,1.072,0.809,1.572c0.325,0.5,0.706,0.973,1.143,1.41l0.291,0.292&#10;&#9;&#9;&#9;&#9;&#9;l0.291,0.291l0.291,0.292l0.292,0.292l0.292,0.292l0.291,0.292l0.291,0.292l0.291,0.292l0,0l0,0l0,0l0,0l0,0l0,0l0,0h-0.001&#10;&#9;&#9;&#9;&#9;&#9;l21.275,21.275l21.275,21.275l21.275,21.275l21.275,21.275l21.275,21.275l21.275,21.275l21.275,21.275l21.275,21.275h0.001l0,0&#10;&#9;&#9;&#9;&#9;&#9;h0.001h0.001l0,0H1418.996L1418.996,713.695L1418.996,713.695z"/>
          <path style="fill:#F8E9A9;" d="M706.031,1256.455c-3.882-3.882-10.578-5.667-19.322-5.819&#10;&#9;&#9;&#9;&#9;&#9;c-8.745-0.152-19.539,1.328-31.619,3.979c-12.08,2.651-25.445,6.472-39.331,10.997c-13.886,4.527-28.294,9.76-42.459,15.234&#10;&#9;&#9;&#9;&#9;&#9;c-14.165,5.475-28.087,11.193-41.003,16.689c-12.916,5.497-24.825,10.773-34.964,15.365&#10;&#9;&#9;&#9;&#9;&#9;c-10.139,4.592-18.507,8.499-24.34,11.258c-5.833,2.76-9.132,4.371-9.132,4.371l-13.667,34.257l-13.667,34.257l-13.667,34.256&#10;&#9;&#9;&#9;&#9;&#9;l-13.667,34.257l-13.668,34.257l-13.667,34.256l-13.667,34.257l-13.667,34.257c0,0-0.017,0.044-0.044,0.125&#10;&#9;&#9;&#9;&#9;&#9;c-0.026,0.08-0.063,0.197-0.1,0.344s-0.076,0.322-0.108,0.52c-0.033,0.197-0.059,0.416-0.07,0.649&#10;&#9;&#9;&#9;&#9;&#9;c-0.012,0.233-0.009,0.48,0.016,0.735c0.025,0.254,0.072,0.516,0.149,0.776c0.077,0.261,0.185,0.521,0.33,0.773&#10;&#9;&#9;&#9;&#9;&#9;c0.146,0.253,0.329,0.497,0.558,0.727c0.227,0.226,0.469,0.407,0.719,0.551c0.251,0.144,0.51,0.251,0.769,0.327&#10;&#9;&#9;&#9;&#9;&#9;c0.259,0.076,0.52,0.123,0.774,0.148c0.254,0.025,0.501,0.027,0.734,0.017c0.233-0.011,0.452-0.036,0.649-0.067&#10;&#9;&#9;&#9;&#9;&#9;c0.197-0.032,0.373-0.07,0.519-0.106c0.147-0.036,0.264-0.072,0.345-0.099c0.081-0.025,0.125-0.043,0.125-0.043l34.237-13.658&#10;&#9;&#9;&#9;&#9;&#9;l34.237-13.658l34.237-13.658l34.237-13.657l34.237-13.657l34.237-13.658l34.237-13.658l34.237-13.658&#10;&#9;&#9;&#9;&#9;&#9;c0,0,1.614-3.3,4.378-9.135c2.764-5.836,6.678-14.207,11.277-24.349c4.6-10.142,9.885-22.056,15.392-34.976&#10;&#9;&#9;&#9;&#9;&#9;c5.507-12.92,11.235-26.848,16.721-41.017c5.486-14.169,10.729-28.582,15.265-42.473c4.537-13.891,8.366-27.259,11.025-39.342&#10;&#9;&#9;&#9;&#9;&#9;s4.147-22.879,4-31.626C711.695,1267.033,709.913,1260.337,706.031,1256.455z"/>
          <path style="fill:#383838;" d="M423.08,1539.402c-1.248-1.248-2.531-2.442-3.847-3.584c-1.315-1.142-2.664-2.23-4.042-3.268&#10;&#9;&#9;&#9;&#9;&#9;s-2.786-2.021-4.222-2.953c-1.436-0.933-2.899-1.813-4.388-2.64c-1.488-0.827-3.002-1.604-4.539-2.327&#10;&#9;&#9;&#9;&#9;&#9;c-1.537-0.725-3.096-1.396-4.675-2.018s-3.18-1.189-4.798-1.707c-1.618-0.519-3.254-0.984-4.905-1.4l-4.143,10.385&#10;&#9;&#9;&#9;&#9;&#9;l-4.143,10.385l-4.143,10.385l-4.143,10.384l-4.143,10.384l-4.142,10.385l-4.143,10.385l-4.143,10.385&#10;&#9;&#9;&#9;&#9;&#9;c0,0-0.017,0.044-0.044,0.125c-0.026,0.08-0.063,0.197-0.1,0.344s-0.076,0.322-0.108,0.52c-0.033,0.197-0.059,0.416-0.07,0.649&#10;&#9;&#9;&#9;&#9;&#9;c-0.012,0.233-0.009,0.48,0.016,0.735c0.025,0.254,0.072,0.516,0.149,0.776c0.077,0.261,0.185,0.521,0.33,0.773&#10;&#9;&#9;&#9;&#9;&#9;c0.146,0.253,0.329,0.497,0.558,0.727c0.227,0.226,0.469,0.407,0.719,0.551c0.251,0.144,0.51,0.251,0.769,0.327&#10;&#9;&#9;&#9;&#9;&#9;c0.259,0.076,0.52,0.123,0.774,0.148c0.254,0.025,0.501,0.027,0.734,0.017c0.233-0.011,0.452-0.036,0.649-0.067&#10;&#9;&#9;&#9;&#9;&#9;c0.197-0.032,0.373-0.07,0.519-0.106c0.147-0.036,0.264-0.072,0.345-0.099c0.081-0.025,0.125-0.043,0.125-0.043l10.386-4.144&#10;&#9;&#9;&#9;&#9;&#9;l10.386-4.144l10.386-4.144l10.386-4.144l10.386-4.144l10.386-4.144l10.386-4.145l10.386-4.144&#10;&#9;&#9;&#9;&#9;&#9;c-0.415-1.649-0.881-3.284-1.398-4.901c-0.517-1.617-1.086-3.216-1.706-4.795c-0.62-1.578-1.292-3.137-2.016-4.673&#10;&#9;&#9;&#9;&#9;&#9;c-0.724-1.536-1.5-3.05-2.327-4.537c-0.828-1.488-1.707-2.951-2.64-4.387c-0.932-1.437-1.917-2.845-2.954-4.223&#10;&#9;&#9;&#9;&#9;&#9;c-1.037-1.378-2.126-2.727-3.269-4.043C425.523,1541.936,424.328,1540.651,423.08,1539.402z"/>
          <g>
            <g>
              <polygon style="fill:#CFCFCF;" points="1298.43,553.184 1296.962,551.716 1295.494,550.248 1294.025,548.781 &#10;&#9;&#9;&#9;&#9;&#9;&#9;&#9;1292.558,547.313 1291.09,545.846 1289.621,544.378 1288.153,542.911 1286.686,541.443 1294.077,534.052 1301.469,526.661 &#10;&#9;&#9;&#9;&#9;&#9;&#9;&#9;1308.86,519.27 1316.252,511.879 1323.644,504.488 1331.035,497.097 1338.427,489.706 1345.818,482.315 1347.285,483.782 &#10;&#9;&#9;&#9;&#9;&#9;&#9;&#9;1348.753,485.249 1350.221,486.716 1351.688,488.184 1353.154,489.651 1354.622,491.118 1356.09,492.585 1357.557,494.053 &#10;&#9;&#9;&#9;&#9;&#9;&#9;&#9;1350.166,501.444 1342.775,508.835 1335.385,516.227 1327.993,523.618 1320.602,531.01 1313.211,538.401 1305.82,545.792 &#10;&#9;&#9;&#9;&#9;&#9;&#9;&#9;&#9;&#9;&#9;&#9;&#9;&#9;"/>
            </g>
            <g>
              <polygon style="fill:#CFCFCF;" points="1339.298,594.053 1337.83,592.586 1336.363,591.119 1334.896,589.652 &#10;&#9;&#9;&#9;&#9;&#9;&#9;&#9;1333.428,588.185 1331.96,586.718 1330.492,585.251 1329.025,583.784 1327.558,582.317 1334.949,574.926 1342.34,567.534 &#10;&#9;&#9;&#9;&#9;&#9;&#9;&#9;1349.731,560.143 1357.123,552.752 1364.515,545.36 1371.906,537.969 1379.297,530.577 1386.688,523.185 1388.156,524.652 &#10;&#9;&#9;&#9;&#9;&#9;&#9;&#9;1389.623,526.12 1391.091,527.587 1392.559,529.054 1394.025,530.521 1395.493,531.988 1396.961,533.455 1398.428,534.922 &#10;&#9;&#9;&#9;&#9;&#9;&#9;&#9;1391.037,542.313 1383.646,549.705 1376.254,557.096 1368.863,564.487 1361.472,571.879 1354.08,579.27 1346.689,586.661 &#10;&#9;&#9;&#9;&#9;&#9;&#9;&#9;&#9;&#9;&#9;&#9;&#9;&#9;"/>
            </g>
            <g>
              <polygon style="fill:#CFCFCF;" points="1380.172,634.925 1378.704,633.456 1377.236,631.988 1375.769,630.521 &#10;&#9;&#9;&#9;&#9;&#9;&#9;&#9;1374.301,629.052 1372.833,627.584 1371.365,626.116 1369.898,624.648 1368.431,623.18 1375.822,615.789 1383.213,608.398 &#10;&#9;&#9;&#9;&#9;&#9;&#9;&#9;1390.604,601.008 1397.996,593.617 1405.387,586.227 1412.778,578.836 1420.17,571.445 1427.561,564.055 1429.027,565.521 &#10;&#9;&#9;&#9;&#9;&#9;&#9;&#9;1430.494,566.989 1431.961,568.456 1433.429,569.923 1434.896,571.39 1436.363,572.857 1437.83,574.324 1439.297,575.791 &#10;&#9;&#9;&#9;&#9;&#9;&#9;&#9;1431.906,583.183 1424.516,590.574 1417.125,597.966 1409.734,605.358 1402.344,612.75 1394.953,620.142 1387.563,627.533 &#10;&#9;&#9;&#9;&#9;&#9;&#9;&#9;&#9;&#9;&#9;&#9;&#9;&#9;"/>
            </g>
            <g>
              <polygon style="fill:#CFCFCF;" points="1421.039,675.797 1419.572,674.329 1418.105,672.861 1416.639,671.394 &#10;&#9;&#9;&#9;&#9;&#9;&#9;&#9;1415.171,669.926 1413.703,668.459 1412.236,666.991 1410.77,665.523 1409.303,664.056 1416.693,656.665 1424.083,649.273 &#10;&#9;&#9;&#9;&#9;&#9;&#9;&#9;1431.473,641.883 1438.863,634.492 1446.254,627.101 1453.645,619.71 1461.035,612.319 1468.425,604.928 1469.893,606.394 &#10;&#9;&#9;&#9;&#9;&#9;&#9;&#9;1471.359,607.861 1472.827,609.328 1474.295,610.795 1475.763,612.262 1477.23,613.729 1478.698,615.195 1480.166,616.662 &#10;&#9;&#9;&#9;&#9;&#9;&#9;&#9;1472.775,624.054 1465.385,631.446 1457.994,638.838 1450.603,646.229 1443.211,653.621 1435.82,661.013 1428.43,668.405 &#10;&#9;&#9;&#9;&#9;&#9;&#9;&#9;&#9;&#9;&#9;&#9;&#9;&#9;"/>
            </g>
          </g>
          <g>
            <polygon style="fill:#D4A427;" points="647.839,1489.421 647.84,1489.42 647.842,1489.419 647.844,1489.418 647.846,1489.416 &#10;&#9;&#9;&#9;&#9;&#9;&#9;647.848,1489.414 647.85,1489.411 647.852,1489.408 647.853,1489.405 647.849,1489.409 647.845,1489.413 647.841,1489.417 &#10;&#9;&#9;&#9;&#9;&#9;&#9;647.836,1489.421 647.832,1489.425 647.828,1489.429 647.824,1489.433 647.819,1489.437 647.822,1489.435 647.825,1489.432 &#10;&#9;&#9;&#9;&#9;&#9;&#9;647.827,1489.429 647.83,1489.427 647.832,1489.425 647.834,1489.423 647.837,1489.422 &#9;&#9;&#9;&#9;&#9;"/>
            <path style="fill:#CF9A08;" d="M1421.275,715.979l-6.711-6.71l-6.71-6.711l-6.71-6.71l-6.711-6.711l-6.711-6.71l-6.711-6.71&#10;&#9;&#9;&#9;&#9;&#9;&#9;l-6.711-6.71l-6.71-6.71l-96.68,96.68l-96.68,96.68l-96.68,96.68l-96.679,96.68l-96.679,96.681l-96.68,96.681l-96.68,96.68&#10;&#9;&#9;&#9;&#9;&#9;&#9;l-96.68,96.681c-2.024,2.023-3.796,4.204-5.314,6.503c-1.518,2.299-2.784,4.715-3.796,7.211&#10;&#9;&#9;&#9;&#9;&#9;&#9;c-1.012,2.495-1.771,5.069-2.277,7.683c-0.506,2.613-0.759,5.267-0.759,7.919s0.253,5.306,0.759,7.919&#10;&#9;&#9;&#9;&#9;&#9;&#9;c0.506,2.614,1.265,5.188,2.277,7.684c1.013,2.495,2.278,4.913,3.796,7.212c1.519,2.299,3.29,4.48,5.315,6.504&#10;&#9;&#9;&#9;&#9;&#9;&#9;c2.023,2.023,4.126,3.717,6.289,5.099c2.163,1.382,4.385,2.454,6.648,3.233c2.262,0.78,4.565,1.269,6.887,1.484&#10;&#9;&#9;&#9;&#9;&#9;&#9;c2.322,0.217,4.665,0.16,7.007-0.148c2.342-0.309,4.684-0.87,7.007-1.665s4.625-1.823,6.888-3.066s4.485-2.699,6.649-4.351&#10;&#9;&#9;&#9;&#9;&#9;&#9;c2.163-1.652,4.267-3.498,6.29-5.521l0.004-0.004l0.004-0.004l0.004-0.004l0.004-0.004l0.004-0.004l0.004-0.004l0.004-0.004&#10;&#9;&#9;&#9;&#9;&#9;&#9;l0.004-0.004l96.678-96.679l96.678-96.678l96.678-96.679l96.678-96.679l96.678-96.678l96.678-96.679l96.678-96.678&#10;&#9;&#9;&#9;&#9;&#9;&#9;L1421.275,715.979z"/>
          </g>
          <path style="fill:#E3AE1E;" d="M594.41,1435.481l96.647-96.647l96.648-96.648l96.647-96.648L981,1048.889l96.648-96.648&#10;&#9;&#9;&#9;&#9;&#9;l96.647-96.648l96.647-96.648l96.647-96.648l-8.427-8.426l-8.426-8.426l-8.427-8.426l-8.427-8.426l-8.426-8.426l-8.427-8.426&#10;&#9;&#9;&#9;&#9;&#9;l-8.427-8.426l-8.426-8.426l-96.67,96.67l-96.67,96.67l-96.67,96.67l-96.669,96.67l-96.67,96.67l-96.669,96.67l-96.669,96.67&#10;&#9;&#9;&#9;&#9;&#9;l-96.67,96.67c-0.004,0.004-0.008,0.008-0.011,0.011c-0.003,0.003-0.007,0.007-0.011,0.01s-0.007,0.007-0.011,0.01&#10;&#9;&#9;&#9;&#9;&#9;c-0.004,0.003-0.007,0.006-0.01,0.009s-0.007,0.006-0.01,0.009c-0.003,0.003-0.006,0.006-0.01,0.009s-0.006,0.006-0.01,0.009&#10;&#9;&#9;&#9;&#9;&#9;c-0.003,0.003-0.006,0.006-0.009,0.009c-0.003,0.003-0.006,0.006-0.009,0.009c-0.004,0.003-0.006,0.007-0.009,0.01&#10;&#9;&#9;&#9;&#9;&#9;c-0.003,0.003-0.006,0.007-0.009,0.01c-0.003,0.003-0.006,0.007-0.009,0.01c-0.003,0.003-0.006,0.007-0.009,0.011&#10;&#9;&#9;&#9;&#9;&#9;c-0.003,0.003-0.006,0.006-0.009,0.01c-0.003,0.004-0.006,0.007-0.009,0.01c-0.003,0.004-0.006,0.007-0.009,0.01&#10;&#9;&#9;&#9;&#9;&#9;c-1.976,1.986-3.628,4.203-4.974,6.593c-1.346,2.39-2.387,4.952-3.141,7.631c-0.754,2.678-1.223,5.471-1.424,8.32&#10;&#9;&#9;&#9;&#9;&#9;c-0.202,2.851-0.137,5.759,0.176,8.666s0.872,5.815,1.66,8.664c0.788,2.849,1.804,5.64,3.028,8.315&#10;&#9;&#9;&#9;&#9;&#9;c1.225,2.676,2.658,5.236,4.281,7.622c1.623,2.387,3.435,4.601,5.417,6.582c1.975,1.976,4.179,3.781,6.557,5.4&#10;&#9;&#9;&#9;&#9;&#9;c2.377,1.618,4.927,3.05,7.592,4.273c2.665,1.224,5.446,2.241,8.284,3.032c2.839,0.791,5.735,1.356,8.633,1.676&#10;&#9;&#9;&#9;&#9;&#9;c2.898,0.319,5.796,0.393,8.638,0.202c2.842-0.191,5.628-0.647,8.299-1.388s5.229-1.764,7.617-3.092&#10;&#9;&#9;&#9;&#9;&#9;c2.387-1.328,4.603-2.959,6.591-4.913c0.011-0.01,0.021-0.02,0.032-0.029c0.011-0.01,0.022-0.021,0.033-0.03&#10;&#9;&#9;&#9;&#9;&#9;c0.011-0.01,0.021-0.02,0.033-0.029c0.011-0.01,0.022-0.02,0.033-0.03c0.011-0.011,0.022-0.021,0.033-0.03&#10;&#9;&#9;&#9;&#9;&#9;c0.011-0.01,0.022-0.02,0.033-0.03s0.022-0.021,0.033-0.03c0.011-0.011,0.021-0.021,0.032-0.031&#10;&#9;&#9;&#9;&#9;&#9;c0.011-0.012,0.021-0.022,0.032-0.033c0.011-0.012,0.021-0.022,0.031-0.033c0.01-0.012,0.021-0.022,0.031-0.033&#10;&#9;&#9;&#9;&#9;&#9;c0.01-0.011,0.021-0.021,0.031-0.032s0.021-0.022,0.031-0.033c0.01-0.011,0.021-0.021,0.031-0.032&#10;&#9;&#9;&#9;&#9;&#9;c0.01-0.011,0.021-0.021,0.031-0.032C594.389,1435.504,594.399,1435.492,594.41,1435.481z"/>
          <path style="fill:#F0CB62;" d="M528.336,1366.736l96.481-96.48l96.48-96.481l96.48-96.481l96.48-96.481l96.481-96.481&#10;&#9;&#9;&#9;&#9;&#9;l96.48-96.482l96.48-96.481l96.48-96.481l-6.71-6.71l-6.71-6.71l-6.709-6.71l-6.71-6.71l-6.71-6.711l-6.709-6.71l-6.71-6.71&#10;&#9;&#9;&#9;&#9;&#9;l-6.71-6.71l-96.586,96.585l-96.585,96.584l-96.585,96.584l-96.585,96.585l-96.585,96.584l-96.585,96.585l-96.585,96.585&#10;&#9;&#9;&#9;&#9;&#9;l-96.585,96.584c-0.032,0.031-0.065,0.063-0.097,0.094c-0.032,0.031-0.065,0.063-0.097,0.093&#10;&#9;&#9;&#9;&#9;&#9;c-0.032,0.03-0.065,0.062-0.097,0.092c-0.033,0.03-0.065,0.062-0.097,0.092s-0.065,0.062-0.097,0.092&#10;&#9;&#9;&#9;&#9;&#9;c-0.032,0.03-0.064,0.062-0.097,0.093c-0.032,0.031-0.064,0.062-0.097,0.093c-0.032,0.031-0.064,0.063-0.096,0.095&#10;&#9;&#9;&#9;&#9;&#9;c-0.03,0.029-0.06,0.059-0.089,0.089c-0.029,0.029-0.058,0.06-0.087,0.089c-0.029,0.03-0.058,0.061-0.086,0.091&#10;&#9;&#9;&#9;&#9;&#9;c-0.028,0.03-0.057,0.061-0.085,0.091c-0.029,0.031-0.057,0.062-0.085,0.092c-0.028,0.031-0.057,0.063-0.086,0.093&#10;&#9;&#9;&#9;&#9;&#9;c-0.028,0.03-0.058,0.062-0.086,0.093c-0.029,0.03-0.058,0.061-0.087,0.092c-0.002,0.002-0.004,0.003-0.005,0.005&#10;&#9;&#9;&#9;&#9;&#9;c-0.001,0.001-0.003,0.003-0.005,0.005c-0.002,0.002-0.004,0.004-0.006,0.006c-0.002,0.002-0.004,0.004-0.006,0.006&#10;&#9;&#9;&#9;&#9;&#9;c-0.002,0.002-0.004,0.004-0.006,0.006c-0.002,0.002-0.004,0.004-0.006,0.006c-0.002,0.002-0.004,0.004-0.006,0.006&#10;&#9;&#9;&#9;&#9;&#9;c-0.002,0.002-0.004,0.004-0.006,0.006c-0.953,1.002-1.846,2.041-2.679,3.11s-1.607,2.171-2.32,3.299&#10;&#9;&#9;&#9;&#9;&#9;c-0.713,1.128-1.368,2.282-1.962,3.46c-0.595,1.177-1.129,2.377-1.604,3.594c-0.475,1.218-0.891,2.453-1.246,3.702&#10;&#9;&#9;&#9;&#9;&#9;c-0.356,1.249-0.652,2.511-0.889,3.782c-0.237,1.271-0.414,2.552-0.531,3.836c-0.118,1.285-0.176,2.574-0.174,3.863&#10;&#9;&#9;&#9;&#9;&#9;c0.002,1.324-0.011,2.571-0.018,3.756c-0.007,1.184-0.01,2.305,0.012,3.377s0.068,2.097,0.157,3.087&#10;&#9;&#9;&#9;&#9;&#9;c0.09,0.99,0.223,1.946,0.419,2.883c0.196,0.937,0.456,1.853,0.797,2.765c0.342,0.912,0.766,1.818,1.293,2.734&#10;&#9;&#9;&#9;&#9;&#9;s1.154,1.842,1.904,2.791c0.749,0.949,1.62,1.922,2.631,2.934c1.959,1.959,4.066,3.682,6.284,5.166&#10;&#9;&#9;&#9;&#9;&#9;c2.218,1.486,4.547,2.734,6.953,3.746c2.406,1.012,4.887,1.787,7.409,2.324c2.521,0.538,5.083,0.84,7.65,0.903&#10;&#9;&#9;&#9;&#9;&#9;c2.567,0.064,5.139-0.108,7.68-0.517c2.541-0.41,5.051-1.056,7.496-1.938c2.444-0.883,4.822-2.003,7.099-3.359&#10;&#9;&#9;&#9;&#9;&#9;c2.276-1.356,4.451-2.95,6.488-4.78c0.068-0.062,0.137-0.123,0.206-0.186c0.068-0.063,0.137-0.126,0.206-0.189&#10;&#9;&#9;&#9;&#9;&#9;c0.069-0.063,0.138-0.127,0.206-0.19c0.069-0.063,0.138-0.128,0.206-0.192c0.068-0.064,0.137-0.129,0.206-0.194&#10;&#9;&#9;&#9;&#9;&#9;c0.068-0.065,0.136-0.132,0.205-0.197c0.068-0.065,0.136-0.132,0.203-0.198c0.067-0.066,0.135-0.134,0.202-0.201&#10;&#9;&#9;&#9;&#9;&#9;c0.066-0.066,0.133-0.133,0.199-0.2c0.066-0.066,0.132-0.134,0.197-0.201c0.065-0.067,0.13-0.135,0.195-0.203&#10;&#9;&#9;&#9;&#9;&#9;c0.065-0.067,0.129-0.136,0.193-0.203c0.064-0.067,0.128-0.136,0.192-0.204c0.064-0.068,0.127-0.137,0.19-0.205&#10;&#9;&#9;&#9;&#9;&#9;c0.063-0.068,0.126-0.138,0.189-0.207C528.211,1366.875,528.273,1366.806,528.336,1366.736z"/>
          <path style="fill:#878787;" d="M391.382,1534.666l-3.199,7.327l-3.199,7.327l-3.199,7.326l-3.199,7.327l-3.199,7.327&#10;&#9;&#9;&#9;&#9;&#9;l-3.199,7.326l-3.199,7.327l-3.199,7.327l4.852-6.236l4.852-6.236l4.852-6.236l4.852-6.236l4.852-6.236l4.852-6.236l4.852-6.236&#10;&#9;&#9;&#9;&#9;&#9;l4.851-6.236c-0.513-0.44-1.031-0.871-1.554-1.293c-0.523-0.421-1.052-0.833-1.585-1.235c-0.533-0.401-1.071-0.794-1.614-1.177&#10;&#9;&#9;&#9;&#9;&#9;s-1.09-0.756-1.643-1.12c-0.552-0.364-1.109-0.718-1.67-1.063c-0.561-0.344-1.126-0.679-1.695-1.004&#10;&#9;&#9;&#9;&#9;&#9;c-0.569-0.325-1.142-0.64-1.719-0.945C392.547,1535.248,391.966,1534.952,391.382,1534.666z"/>
          <g>
            <path style="fill:#E87B9C;" d="M1531.441,447.294c-0.025,0-0.055-0.002-0.088-0.008c-0.034-0.005-0.072-0.014-0.115-0.026&#10;&#9;&#9;&#9;&#9;&#9;&#9;s-0.09-0.029-0.143-0.051c-0.053-0.021-0.111-0.047-0.175-0.079c-0.063-0.032-0.134-0.068-0.21-0.112&#10;&#9;&#9;&#9;&#9;&#9;&#9;c-0.075-0.043-0.158-0.093-0.247-0.15c-0.089-0.057-0.186-0.121-0.29-0.193c-0.104-0.072-0.215-0.152-0.334-0.241l-7.555-5.275&#10;&#9;&#9;&#9;&#9;&#9;&#9;l-7.555-5.275l-7.555-5.275l-7.555-5.275l-7.555-5.275l-7.555-5.275l-7.555-5.275l-7.555-5.275&#10;&#9;&#9;&#9;&#9;&#9;&#9;c-0.617-0.424-1.238-0.818-1.864-1.185c-0.626-0.366-1.258-0.703-1.897-1.012c-0.64-0.309-1.287-0.59-1.946-0.844&#10;&#9;&#9;&#9;&#9;&#9;&#9;c-0.658-0.254-1.327-0.48-2.009-0.681s-1.377-0.374-2.087-0.522c-0.71-0.148-1.437-0.27-2.181-0.367&#10;&#9;&#9;&#9;&#9;&#9;&#9;c-0.744-0.097-1.506-0.169-2.288-0.217c-0.782-0.048-1.585-0.071-2.411-0.071c-0.706,0-1.406,0.023-2.104,0.07&#10;&#9;&#9;&#9;&#9;&#9;&#9;c-0.696,0.047-1.389,0.118-2.079,0.213c-0.69,0.095-1.379,0.214-2.066,0.358c-0.687,0.144-1.374,0.312-2.061,0.505&#10;&#9;&#9;&#9;&#9;&#9;&#9;s-1.375,0.411-2.065,0.655c-0.69,0.244-1.383,0.513-2.079,0.808c-0.696,0.295-1.396,0.616-2.102,0.963&#10;&#9;&#9;&#9;&#9;&#9;&#9;c-0.705,0.347-1.416,0.72-2.134,1.12l-5.816,3.484l-5.816,3.484l-5.816,3.484l-5.816,3.484l-5.816,3.484l-5.816,3.484&#10;&#9;&#9;&#9;&#9;&#9;&#9;l-5.816,3.484l-5.816,3.484c-0.168,0.104-0.327,0.197-0.478,0.279c-0.15,0.082-0.292,0.154-0.426,0.217&#10;&#9;&#9;&#9;&#9;&#9;&#9;c-0.134,0.063-0.258,0.117-0.374,0.163s-0.225,0.083-0.323,0.115c-0.099,0.032-0.19,0.057-0.272,0.076&#10;&#9;&#9;&#9;&#9;&#9;&#9;c-0.083,0.02-0.158,0.035-0.224,0.046c-0.066,0.011-0.125,0.017-0.175,0.021c-0.051,0.004-0.093,0.005-0.127,0.005&#10;&#9;&#9;&#9;&#9;&#9;&#9;c-0.031,0-0.062-0.001-0.091-0.002c-0.03-0.002-0.059-0.005-0.087-0.01c-0.028-0.004-0.057-0.01-0.084-0.018&#10;&#9;&#9;&#9;&#9;&#9;&#9;c-0.027-0.007-0.055-0.017-0.082-0.028c-0.027-0.012-0.055-0.025-0.083-0.042c-0.028-0.016-0.057-0.035-0.086-0.056&#10;&#9;&#9;&#9;&#9;&#9;&#9;c-0.029-0.021-0.06-0.045-0.091-0.073c-0.031-0.027-0.063-0.058-0.098-0.091c-0.08-0.08-0.15-0.166-0.21-0.257&#10;&#9;&#9;&#9;&#9;&#9;&#9;c-0.06-0.091-0.109-0.186-0.149-0.285c-0.039-0.099-0.069-0.201-0.089-0.305c-0.021-0.104-0.03-0.208-0.03-0.314&#10;&#9;&#9;&#9;&#9;&#9;&#9;c0-0.105,0.01-0.211,0.03-0.314c0.02-0.104,0.05-0.206,0.09-0.305c0.04-0.099,0.09-0.195,0.15-0.286&#10;&#9;&#9;&#9;&#9;&#9;&#9;c0.06-0.091,0.13-0.178,0.21-0.258l5.779-5.778l5.778-5.778l5.778-5.778l5.779-5.779l5.779-5.779l5.778-5.778l5.778-5.778&#10;&#9;&#9;&#9;&#9;&#9;&#9;l5.779-5.778c0.653-0.653,1.334-1.271,2.041-1.85c0.707-0.579,1.438-1.121,2.193-1.623c0.754-0.503,1.531-0.967,2.329-1.391&#10;&#9;&#9;&#9;&#9;&#9;&#9;c0.797-0.424,1.614-0.808,2.45-1.151c0.835-0.344,1.688-0.646,2.556-0.907c0.868-0.261,1.751-0.48,2.646-0.655&#10;&#9;&#9;&#9;&#9;&#9;&#9;c0.896-0.176,1.805-0.309,2.723-0.398c0.919-0.089,1.848-0.134,2.784-0.134s1.865,0.045,2.784,0.134&#10;&#9;&#9;&#9;&#9;&#9;&#9;c0.918,0.089,1.827,0.222,2.723,0.398c0.896,0.176,1.778,0.395,2.646,0.655c0.868,0.261,1.721,0.563,2.556,0.906&#10;&#9;&#9;&#9;&#9;&#9;&#9;c0.836,0.343,1.653,0.728,2.45,1.151c0.798,0.424,1.575,0.888,2.329,1.391c0.755,0.503,1.486,1.044,2.193,1.623&#10;&#9;&#9;&#9;&#9;&#9;&#9;s1.388,1.196,2.041,1.85l7.565,7.567l7.565,7.567l7.565,7.567l7.565,7.567l7.565,7.567l7.565,7.567l7.566,7.567l7.565,7.567&#10;&#9;&#9;&#9;&#9;&#9;&#9;c0.054,0.053,0.101,0.106,0.143,0.161s0.079,0.109,0.112,0.163c0.032,0.054,0.061,0.109,0.085,0.163&#10;&#9;&#9;&#9;&#9;&#9;&#9;c0.024,0.053,0.044,0.106,0.062,0.158c0.018,0.051,0.031,0.102,0.042,0.15c0.011,0.048,0.019,0.095,0.025,0.139&#10;&#9;&#9;&#9;&#9;&#9;&#9;c0.007,0.044,0.011,0.085,0.013,0.124c0.003,0.038,0.004,0.074,0.004,0.105c0,0.032-0.001,0.067-0.004,0.105&#10;&#9;&#9;&#9;&#9;&#9;&#9;c-0.002,0.038-0.006,0.079-0.013,0.124c-0.007,0.044-0.015,0.09-0.025,0.139c-0.011,0.048-0.024,0.098-0.042,0.15&#10;&#9;&#9;&#9;&#9;&#9;&#9;c-0.018,0.051-0.037,0.104-0.062,0.157c-0.024,0.054-0.053,0.108-0.085,0.162c-0.033,0.054-0.07,0.108-0.111,0.163&#10;&#9;&#9;&#9;&#9;&#9;&#9;c-0.043,0.054-0.09,0.107-0.142,0.16c-0.053,0.053-0.106,0.1-0.161,0.142c-0.054,0.042-0.108,0.079-0.163,0.112&#10;&#9;&#9;&#9;&#9;&#9;&#9;c-0.054,0.032-0.108,0.06-0.162,0.085c-0.054,0.024-0.106,0.044-0.158,0.062c-0.052,0.017-0.102,0.031-0.149,0.042&#10;&#9;&#9;&#9;&#9;&#9;&#9;c-0.049,0.011-0.095,0.02-0.139,0.025c-0.044,0.006-0.086,0.011-0.124,0.013&#10;&#9;&#9;&#9;&#9;&#9;&#9;C1531.508,447.293,1531.473,447.294,1531.441,447.294z"/>
          </g>
        </g>
      </g>
    </g>
  </g>
</svg>