<?xml version="1.0" encoding="utf-8"?>
<svg viewBox="0 0 900 1600" xmlns="http://www.w3.org/2000/svg">
  <defs/>
  <rect x="-50.098" y="-52.153" width="1042.882" height="1692.999" style="stroke: rgb(0, 0, 0); fill: rgb(250, 250, 250);"/>
  <g id="Stairs" transform="matrix(3.526634, 0, 0, 3.526634, -398.170197, -241.349472)" style="">
    <g>
      <rect x="133.895" y="416.793" style="fill:#407BFF;" width="121.916" height="29.93"/>
      <rect x="158.166" y="390.678" style="fill:#407BFF;" width="109.114" height="26.115"/>
      <rect x="174.881" y="366.004" style="fill:#407BFF;" width="100.628" height="24.674"/>
      <rect x="193.112" y="340.679" style="fill:#407BFF;" width="91.602" height="25.325"/>
      <rect x="209.068" y="316.394" style="fill:#407BFF;" width="86.37" height="24.285"/>
      <rect x="225.195" y="296.093" style="fill:#407BFF;" width="79.118" height="20.301"/>
      <rect x="238.913" y="275.819" style="fill:#407BFF;" width="73.143" height="20.274"/>
      <rect x="252.253" y="258.815" style="fill:#407BFF;" width="65.372" height="17.497"/>
      <rect x="263.04" y="241.463" style="fill:#407BFF;" width="61.531" height="17.497"/>
      <rect x="275.613" y="224.32" style="fill:#407BFF;" width="53.513" height="17.497"/>
      <rect x="287.786" y="206.92" style="fill:#407BFF;" width="48.141" height="17.497"/>
      <rect x="299.361" y="193.805" style="fill:#407BFF;" width="43.726" height="13.517"/>
      <rect x="307.942" y="180.243" style="fill:#407BFF;" width="37.867" height="13.517"/>
      <rect x="317.911" y="166.711" style="fill:#407BFF;" width="33.153" height="13.517"/>
      <rect x="343.518" y="166.711" style="opacity:0.3;" width="7.546" height="13.049"/>
      <rect x="326.876" y="155.286" style="fill:#407BFF;" width="28.275" height="11.528"/>
      <rect x="238.913" y="416.793" style="opacity:0.3;" width="16.897" height="29.93"/>
      <rect x="250.383" y="390.66" style="opacity:0.3;" width="16.897" height="26.133"/>
      <rect x="258.586" y="365.86" style="opacity:0.3;" width="16.898" height="24.882"/>
      <rect x="267.869" y="340.373" style="opacity:0.3;" width="16.897" height="25.805"/>
      <rect x="278.535" y="316.394" style="opacity:0.3;" width="16.897" height="24.285"/>
      <rect x="287.416" y="296.093" style="opacity:0.3;" width="16.897" height="20.301"/>
      <rect x="295.159" y="275.776" style="opacity:0.3;" width="16.897" height="20.317"/>
      <rect x="302.37" y="259.223" style="opacity:0.3;" width="15.26" height="17.089"/>
      <rect x="309.78" y="241.667" style="opacity:0.3;" width="14.792" height="17.089"/>
      <rect x="316.423" y="224.442" style="opacity:0.3;" width="12.714" height="17.089"/>
      <rect x="325.009" y="207.206" style="opacity:0.3;" width="10.919" height="17.089"/>
      <g transform="matrix(1, 0, 0, 1, -4.064112, 1.60281)">
        <g>
          <path style="fill:#263238;" d="M137.671,416.052c31.647,0,63.295,0,94.942,0c8.828,0,17.656,0,26.484,0&#10;&#9;&#9;&#9;&#9;&#9;c0.483,0,0.483-0.75,0-0.75c-31.647,0-63.295,0-94.942,0c-8.828,0-17.656,0-26.484,0&#10;&#9;&#9;&#9;&#9;&#9;C137.188,415.302,137.188,416.052,137.671,416.052L137.671,416.052z"/>
        </g>
      </g>
      <g transform="matrix(1, 0, 0, 1, -4.064112, 1.60281)">
        <g>
          <path style="fill:#263238;" d="M161.91,389.195c28.483,0,56.966,0,85.449,0c7.995,0,15.99,0,23.985,0c0.483,0,0.483-0.75,0-0.75&#10;&#9;&#9;&#9;&#9;&#9;c-28.483,0-56.966,0-85.448,0c-7.995,0-15.99,0-23.986,0C161.428,388.445,161.427,389.195,161.91,389.195L161.91,389.195z"/>
        </g>
      </g>
      <g transform="matrix(1, 0, 0, 1, -4.064112, 1.60281)">
        <g>
          <path style="fill:#263238;" d="M178.938,364.632c28.483,0,56.966,0,85.449,0c7.995,0,15.99,0,23.986,0&#10;&#9;&#9;&#9;&#9;&#9;c0.483,0,0.483-0.75,0-0.75c-28.483,0-56.966,0-85.448,0c-7.995,0-15.99,0-23.986,0&#10;&#9;&#9;&#9;&#9;&#9;C178.455,363.882,178.454,364.632,178.938,364.632L178.938,364.632z"/>
        </g>
      </g>
      <g transform="matrix(1, 0, 0, 1, -4.064112, 1.60281)">
        <g>
          <path style="fill:#263238;" d="M197.253,339.145c23.793,0,47.587,0,71.38,0c6.715,0,13.43,0,20.146,0c0.483,0,0.483-0.75,0-0.75&#10;&#9;&#9;&#9;&#9;&#9;c-23.793,0-47.587,0-71.38,0c-6.715,0-13.43,0-20.146,0C196.77,338.395,196.77,339.145,197.253,339.145L197.253,339.145z"/>
        </g>
      </g>
      <g transform="matrix(1, 0, 0, 1, -4.064112, 1.60281)">
        <g>
          <path style="fill:#263238;" d="M213.65,315.166c24.596,0,49.192,0,73.787,0c6.98,0,13.96,0,20.94,0c0.483,0,0.483-0.75,0-0.75&#10;&#9;&#9;&#9;&#9;&#9;c-24.596,0-49.192,0-73.787,0c-6.98,0-13.96,0-20.94,0C213.167,314.416,213.167,315.166,213.65,315.166L213.65,315.166z"/>
        </g>
      </g>
      <g transform="matrix(1, 0, 0, 1, -4.064112, 1.60281)">
        <g>
          <path style="fill:#263238;" d="M229.621,294.865c22.5,0,45,0,67.5,0c6.333,0,12.667,0,19,0c0.483,0,0.483-0.75,0-0.75&#10;&#9;&#9;&#9;&#9;&#9;c-22.5,0-45,0-67.5,0c-6.333,0-12.667,0-19,0C229.138,294.115,229.137,294.865,229.621,294.865L229.621,294.865z"/>
        </g>
      </g>
      <g transform="matrix(1, 0, 0, 1, -4.064112, 1.60281)">
        <g>
          <path style="fill:#263238;" d="M242.977,274.693c20.425,0,40.851,0,61.276,0c5.812,0,11.624,0,17.436,0&#10;&#9;&#9;&#9;&#9;&#9;c0.483,0,0.483-0.75,0-0.75c-20.425,0-40.851,0-61.276,0c-5.812,0-11.624,0-17.436,0&#10;&#9;&#9;&#9;&#9;&#9;C242.495,273.943,242.494,274.693,242.977,274.693L242.977,274.693z"/>
        </g>
      </g>
      <g transform="matrix(1, 0, 0, 1, -4.064112, 1.60281)">
        <g>
          <path style="fill:#263238;" d="M256.351,257.995c18.778,0,37.555,0,56.333,0c5.318,0,10.635,0,15.953,0&#10;&#9;&#9;&#9;&#9;&#9;c0.483,0,0.483-0.75,0-0.75c-18.777,0-37.555,0-56.333,0c-5.318,0-10.635,0-15.953,0&#10;&#9;&#9;&#9;&#9;&#9;C255.868,257.245,255.867,257.995,256.351,257.995L256.351,257.995z"/>
        </g>
      </g>
      <g transform="matrix(1, 0, 0, 1, -4.064112, 1.60281)">
        <g>
          <path style="fill:#263238;" d="M267.077,240.589c17.15,0,34.299,0,51.449,0c4.888,0,9.776,0,14.664,0c0.483,0,0.483-0.75,0-0.75&#10;&#9;&#9;&#9;&#9;&#9;c-17.15,0-34.299,0-51.449,0c-4.888,0-9.776,0-14.664,0C266.595,239.839,266.594,240.589,267.077,240.589L267.077,240.589z"/>
        </g>
      </g>
      <g transform="matrix(1, 0, 0, 1, -4.064112, 1.60281)">
        <g>
          <path style="fill:#263238;" d="M279.6,223.19c20.131,0,40.261,0,60.392,0c0.483,0,0.483-0.75,0-0.75&#10;&#9;&#9;&#9;&#9;&#9;c-20.131,0-40.261,0-60.392,0C279.117,222.44,279.116,223.19,279.6,223.19L279.6,223.19z"/>
        </g>
      </g>
      <g transform="matrix(1, 0, 0, 1, -4.064112, 1.60281)">
        <g>
          <path style="fill:#263238;" d="M292.616,205.614c18.178,0,36.356,0,54.535,0c0.483,0,0.483-0.75,0-0.75&#10;&#9;&#9;&#9;&#9;&#9;c-18.178,0-36.356,0-54.535,0C292.134,204.864,292.133,205.614,292.616,205.614L292.616,205.614z"/>
        </g>
      </g>
      <g transform="matrix(1, 0, 0, 1, -4.064112, 1.60281)">
        <g>
          <path style="fill:#263238;" d="M303.53,192.577c15.448,0,30.895,0,46.343,0c0.483,0,0.483-0.75,0-0.75&#10;&#9;&#9;&#9;&#9;&#9;c-15.447,0-30.895,0-46.343,0C303.048,191.827,303.047,192.577,303.53,192.577L303.53,192.577z"/>
        </g>
      </g>
      <g transform="matrix(1, 0, 0, 1, -4.064112, 1.60281)">
        <g>
          <path style="fill:#263238;" d="M312.124,179.015c14.335,0,28.669,0,43.004,0c0.483,0,0.483-0.75,0-0.75&#10;&#9;&#9;&#9;&#9;&#9;c-14.335,0-28.669,0-43.004,0C311.641,178.265,311.641,179.015,312.124,179.015L312.124,179.015z"/>
        </g>
      </g>
      <rect x="333.839" y="194.262" style="opacity:0.3;" width="9.248" height="12.58"/>
      <rect x="336.552" y="180.683" style="opacity:0.3;" width="9.248" height="12.58"/>
      <rect x="347.605" y="155.253" style="opacity:0.3;" width="7.546" height="11.595"/>
      <g transform="matrix(1, 0, 0, 1, -4.064112, 1.60281)">
        <g>
          <path style="fill:#263238;" d="M322.391,165.587c12.275,0,24.549,0,36.824,0c0.483,0,0.483-0.75,0-0.75&#10;&#9;&#9;&#9;&#9;&#9;c-12.275,0-24.549,0-36.824,0C321.908,164.837,321.908,165.587,322.391,165.587L322.391,165.587z"/>
        </g>
      </g>
      <g id="OBJECTS" transform="matrix(0.466219, 0, 0, 0.466219, 622.558716, 8.976441)" style="">
        <g transform="matrix(2.028566, 0, 0, 2.028566, -1185.470581, 397.626953)" style="">
          <g>
            <path style="fill:#7487A3;" d="M170.614,116.345c0.444,2.378,0.565,2.967,0.625,3.015c0.06,0.06,2.943-1.526,4.288-2.354&#10;&#9;&#9;&#9;&#9;c0.096-0.06,0.997-0.601,1.982-1.201c5.946-3.592,9.874-6.318,15.027-10.414c1.465-1.153,6.499-5.369,8.384-6.991&#10;&#9;&#9;&#9;&#9;c2.847-2.475,9.562-8.637,9.562-8.781c0-0.048-0.324-0.12-0.721-0.144c-0.625-0.048-0.781-0.108-1.141-0.456&#10;&#9;&#9;&#9;&#9;c-0.577-0.564-0.589-1.237-0.024-2.186l0.408-0.661l-0.564-0.204c-0.312-0.108-0.721-0.372-0.913-0.565&#10;&#9;&#9;&#9;&#9;c-0.312-0.324-0.348-0.444-0.361-1.201c-0.012-0.841-0.012-0.841-0.504-1.201c-0.829-0.613-0.913-1.429-0.312-3.123&#10;&#9;&#9;&#9;&#9;c0.372-1.021,0.36-1.225-0.072-2.559c-0.529-1.574-1.345-2.775-2.162-3.195c-0.24-0.12-0.625-0.252-0.877-0.3&#10;&#9;&#9;&#9;&#9;c-0.384-0.072-0.48-0.036-0.793,0.264c-0.649,0.661-0.853,1.658-0.973,4.781c-0.144,3.688-0.42,5.237-1.261,6.907&#10;&#9;&#9;&#9;&#9;c-0.613,1.213-1.177,1.862-4.372,5.021c-3.483,3.435-3.604,3.556-7.159,6.823c-3.724,3.423-8.565,7.015-12.853,9.537&#10;&#9;&#9;&#9;&#9;c-1.477,0.877-5.718,3.111-6.174,3.255c-0.168,0.06-0.084,0.697,0.432,3.231C170.314,114.759,170.302,114.735,170.614,116.345z"/>
            <path style="fill:#7487A3;" d="M148.982,233.097c0,0.86-0.94,1.63-2.74,2.23c-3.06,1.02-8.47,0.92-12.4-0.24&#10;&#9;&#9;&#9;&#9;c-1.45-0.44-2.48-1.31-2.88-2.44c-0.98-2.79-0.37-9.68,1.43-16.12c0.26-0.93,0.59-2.12,0.72-2.64c0.12-0.53,0.48-1.91,0.78-3.07&#10;&#9;&#9;&#9;&#9;c1-3.91,1.5-7.66,1.32-9.88l-0.08-0.93l1.97-0.01c3.01-0.01,6.69-0.16,9.18-0.34c0.66-0.06,1.32-0.1,1.47-0.1&#10;&#9;&#9;&#9;&#9;c0.18-0.03,0.27,0.04,0.27,0.2c0,0.2-0.41,1.48-1.21,3.84c-0.21,0.61-0.45,1.3-0.71,2.06c-0.48,1.35-1.53,4.41-2.35,6.78&#10;&#9;&#9;&#9;&#9;c-0.81,2.38-1.81,5.28-2.22,6.43c-1.76,5.01-2.16,6.25-2.16,6.77c0,1.29,0.64,1.75,4.68,3.4c2.14,0.87,3.76,1.96,4.49,2.96&#10;&#9;&#9;&#9;&#9;C148.832,232.387,148.982,232.757,148.982,233.097z"/>
            <path style="fill:#D0E2FB;" d="M163.642,162.937c-0.01,0.77-0.03,1.42-0.05,1.91c-0.2,4.01-0.24,4.89-0.45,7.95&#10;&#9;&#9;&#9;&#9;c-0.06,1.06-0.14,2.27-0.17,2.71c-0.04,0.77-0.1,1.35-0.48,5.16c-0.09,1.02-0.18,1.98-0.18,2.13c0,0.25-0.06,0.27-0.61,0.27&#10;&#9;&#9;&#9;&#9;c-0.34,0-1.27,0.16-2.08,0.35c-1.4,0.34-2.8,0.57-5.06,0.84c-1.06,0.14-3,0.27-7.68,0.51c-1.58,0.08-7.86,0.12-13.3,0.12&#10;&#9;&#9;&#9;&#9;c-3.5,0-6.65-0.02-7.96-0.06c-3.74-0.14-6.15-0.25-8.11-0.38h-0.01c-1.27-0.08-2.35-0.17-3.48-0.29&#10;&#9;&#9;&#9;&#9;c-1.22-0.14-2.52-0.27-2.88-0.3c-0.36-0.05-1.22-0.15-1.92-0.24c-0.7-0.1-2.1-0.29-3.12-0.43c-3.11-0.4-5.76-0.91-5.97-1.12&#10;&#9;&#9;&#9;&#9;c-0.04-0.04,0-0.97,0.07-2.08c0.05-0.77,0.1-1.54,0.15-2.34c0.12-1.74,0.22-3.61,0.34-5.81c0.15-2.57,0.13-11.36-0.02-14.53&#10;&#9;&#9;&#9;&#9;c-0.05-1.17-0.11-2.24-0.16-3.2c-0.2-3.98-0.36-6.34-0.55-8.27c-0.07-0.76-0.13-1.47-0.13-1.56c0-0.1-0.16-1.65-0.36-3.43&#10;&#9;&#9;&#9;&#9;c-0.2-1.79-0.41-3.7-0.47-4.26c-0.06-0.57-0.13-1.15-0.17-1.32c-0.04-0.17-0.19-1.36-0.36-2.65c-0.17-1.28-0.33-2.53-0.36-2.76&#10;&#9;&#9;&#9;&#9;c-0.04-0.23-0.16-0.94-0.25-1.56c-0.1-0.62-0.23-1.42-0.29-1.74c-0.07-0.34-0.21-1.09-0.3-1.68c-0.07-0.4-0.18-1.04-0.3-1.66&#10;&#9;&#9;&#9;&#9;c-0.06-0.33-0.12-0.65-0.18-0.93c-0.17-0.82-0.31-1.61-0.34-1.74c-1.02-5.46-3.05-13.7-5.32-21.54&#10;&#9;&#9;&#9;&#9;c-0.87-3.02-2.24-7.19-3.41-10.48c-0.47-1.32-0.91-2.5-1.27-3.41c-0.27-0.69-0.5-1.22-0.67-1.55c-0.13-0.25-0.2-0.51-0.14-0.56&#10;&#9;&#9;&#9;&#9;c0.05-0.04,0.59-0.3,1.18-0.56h0.01c0.6-0.28,1.56-0.71,2.15-0.97c2.93-1.32,7.97-3.19,12.94-4.85c3.38-1.12,6.72-2.15,9.34-2.85&#10;&#9;&#9;&#9;&#9;c1.02-0.28,2.16-0.59,2.52-0.7c0.36-0.11,0.75-0.22,0.85-0.23c0.09-0.02,1.02-0.23,2.04-0.47c1.59-0.37,3-0.66,6.06-1.26&#10;&#9;&#9;&#9;&#9;c1.74-0.33,5.68-0.9,7.93-1.14c1.12-0.11,1.99-0.2,2.76-0.27c1.54-0.14,2.7-0.2,4.58-0.26c2.14-0.07,3.35-0.11,4.08-0.11&#10;&#9;&#9;&#9;&#9;c0.9,0,1.09,0.06,1.39,0.17c0.26,0.11,0.52,0.32,0.58,0.46c0.12,0.28,1.53,3.89,2.67,6.8c1.95,4.99,3.05,8.01,4.51,12.4v0.01&#10;&#9;&#9;&#9;&#9;c0.14,0.44,0.29,0.87,0.44,1.34c1.72,5.25,3.34,10.58,4.11,13.46c1.2,4.56,2.29,9,3,12.19c1.18,5.36,2.46,12.68,3.05,17.48&#10;&#9;&#9;&#9;&#9;c0.07,0.6,0.17,1.33,0.26,1.98c0.07,0.5,0.13,0.95,0.17,1.26c0.1,0.72,0.23,1.86,0.29,2.52c0.06,0.66,0.17,1.68,0.24,2.28&#10;&#9;&#9;&#9;&#9;c0.22,1.87,0.48,4.82,0.66,7.69C163.622,151.787,163.702,158.897,163.642,162.937z"/>
            <path style="fill:#7487A3;" d="M87.722,165.467c-0.55,1.3-1.98,3.03-3.05,3.72c-1.46,0.91-3.75,1.63-5.18,1.63&#10;&#9;&#9;&#9;&#9;c-1.77,0-4.41-0.84-5.9-1.86c-1.49-1.04-2.9-3.05-3.22-4.5v-0.01h-0.01c-0.04-0.19-0.06-0.38-0.06-0.55&#10;&#9;&#9;&#9;&#9;c0-0.69,0.15-0.96,0.64-1.11c0.33-0.12,0.56-0.08,1.64,0.28c1.41,0.49,1.59,0.5,1.85,0.23c0.41-0.39,0.09-1.07-0.79-1.63&#10;&#9;&#9;&#9;&#9;c-0.22-0.14-0.35-0.39-0.46-0.82c-0.2-0.85-0.07-1.37,0.51-2c0.82-0.87,0.84-0.87,1.6-0.06c0.75,0.83,1.22,1.08,1.62,0.86&#10;&#9;&#9;&#9;&#9;c0.35-0.18,0.49-0.62,0.36-1.08c-0.15-0.5-0.72-1.25-2.54-3.3c-0.81-0.93-1.89-2.18-2.39-2.77c-0.49-0.6-0.97-1.15-1.04-1.23&#10;&#9;&#9;&#9;&#9;c-0.09-0.09-0.16-0.2-0.16-0.24c0-0.05-0.18-0.28-0.39-0.51c-0.36-0.38-1.49-1.87-2.49-3.27c-0.22-0.31-0.45-0.54-0.52-0.49&#10;&#9;&#9;&#9;&#9;c-0.07,0.04-0.08,0.01-0.03-0.06c0.03-0.07-0.09-0.36-0.28-0.65c-0.6-0.89-1.32-2.4-1.53-3.22c-0.36-1.44,0.04-3.42,1.12-5.56&#10;&#9;&#9;&#9;&#9;c0.36-0.73,1.23-2.11,1.44-2.34c0.09-0.1,0.22-0.28,0.3-0.42c0.42-0.8,3.84-5.09,6.32-7.95c1.15-1.32,2.37-2.73,2.72-3.12&#10;&#9;&#9;&#9;&#9;c0.79-0.93,2.61-2.98,3.76-4.24c0.99-1.11,2.01-1.88,2.36-1.78c0.07,0.01,0.37,1.29,0.68,2.84c0.25,1.26,0.54,2.82,0.73,3.83&#10;&#9;&#9;&#9;&#9;c0.04,0.23,0.08,0.44,0.11,0.61c0.15,0.89,0.39,2.27,0.55,3.06l0.27,1.44l-0.31,0.54c-1.33,2.28-5.2,6.33-9.75,10.19&#10;&#9;&#9;&#9;&#9;c-0.57,0.48-1.07,0.98-1.12,1.11c-0.13,0.37,0.1,0.83,0.41,0.85c0.44,0.02,0.74-0.03,0.88-0.15c0.19-0.19,0.29-0.12,1.15,0.94&#10;&#9;&#9;&#9;&#9;c2.07,2.57,4.32,5.76,5.71,8.06c0.32,0.54,0.74,1.25,0.93,1.56c0.68,1.09,2.08,3.94,2.59,5.25&#10;&#9;&#9;&#9;&#9;C88.262,161.387,88.522,163.597,87.722,165.467z"/>
            <path style="fill:#C96888;" d="M172.872,152.077c0.09,0,0.11-0.06,0.05-0.15c-0.12-0.18-0.1,0.02-0.21-2.07&#10;&#9;&#9;&#9;&#9;c-0.26-5.26-0.87-11.85-1.63-17.42c-0.12-0.92-0.23-1.76-0.23-1.86c0-0.09-0.02-0.31-0.06-0.48c-0.02-0.17-0.14-0.84-0.25-1.5&#10;&#9;&#9;&#9;&#9;c-0.1-0.66-0.32-2.04-0.49-3.06c-0.54-3.31-0.66-4.12-0.6-4.28c0.03-0.08,0.01-0.17-0.04-0.19c-0.09-0.04-0.29-1.05-1.09-5.5&#10;&#9;&#9;&#9;&#9;c-0.12-0.7-0.34-1.78-0.48-2.4c-0.13-0.63-0.33-1.53-0.41-1.99c-0.43-2.3-2.64-11.55-3.52-14.65c-0.16-0.6-0.31-1.19-0.32-1.32&#10;&#9;&#9;&#9;&#9;c-0.02-0.15-0.06-0.32-0.11-0.39c-0.05-0.07-0.22-0.61-0.37-1.19c-0.16-0.59-0.46-1.67-0.68-2.39c-0.35-1.21-0.67-2.29-2.64-8.77&#10;&#9;&#9;&#9;&#9;c-1.23-4-2.4-7.47-3.74-10.99c-1.85-4.9-2-5.27-3.37-8.46l-1.24-2.89l-0.96-0.08c-0.53-0.05-2.28-0.18-3.9-0.29&#10;&#9;&#9;&#9;&#9;c-3.31-0.23-10.74-0.31-14.06-0.16c-4.05,0.18-9.46,0.74-13.69,1.39c-9.8,1.5-21.97,4.84-30.33,8.33&#10;&#9;&#9;&#9;&#9;c-2.37,0.99-3.28,1.37-4.48,1.94c-0.55,0.26-1.03,0.46-1.07,0.46c-0.17,0-5.06,2.53-6.53,3.37c-0.32,0.18-0.63,0.37-0.93,0.56&#10;&#9;&#9;&#9;&#9;c-1.26,0.76-2.29,1.47-2.31,1.62c0,0.05,0.28,0.58,0.6,1.19c0.34,0.62,0.6,1.13,0.6,1.16c0,0.02,0.27,0.61,0.61,1.29&#10;&#9;&#9;&#9;&#9;c1.12,2.36,2.63,6.33,4.07,10.75c2.06,6.37,2.94,9.29,3.76,12.38c0.19,0.75,0.47,1.79,0.59,2.28c0.51,1.92,1.29,5.04,1.61,6.42&#10;&#9;&#9;&#9;&#9;c0.18,0.8,0.43,1.88,0.56,2.41s0.26,1.17,0.29,1.44c0.03,0.26,0.13,0.78,0.23,1.14c0.67,2.63,1.86,8.54,1.86,9.26&#10;&#9;&#9;&#9;&#9;c0,0.13,0.07,0.42,0.17,0.63c0.19,0.4,0.39,1.58,1.27,7.41c0.13,0.84,0.55,4.31,0.66,5.4c0.02,0.36,0.12,1.2,0.19,1.86&#10;&#9;&#9;&#9;&#9;c0.24,2.32,0.47,5.31,0.59,7.81c0.06,1.38,0.15,3,0.18,3.61c0.25,4.43,0.16,16-0.19,21.02c-0.18,2.63-0.32,4.58-0.4,5.34&#10;&#9;&#9;&#9;&#9;c-0.03,0.36-0.12,1.33-0.19,2.16c-0.07,0.83-0.16,1.66-0.18,1.87c-0.04,0.19-0.08,0.73-0.13,1.2c-0.12,1.37-0.37,3.1-0.52,3.46&#10;&#9;&#9;&#9;&#9;c-0.07,0.19-0.13,0.36-0.13,0.39c0,0.18,6.02,2.78,8.41,3.62c3.76,1.34,7.71,2.36,11.47,2.98c0.6,0.09,1.68,0.27,2.4,0.39&#10;&#9;&#9;&#9;&#9;c0.73,0.14,1.89,0.3,2.58,0.38c0.7,0.08,1.84,0.22,2.54,0.32c2.21,0.29,5.12,0.54,10.56,0.9c2.36,0.16,12.07,0.21,15.37,0.07&#10;&#9;&#9;&#9;&#9;c6.01-0.22,9.53-0.62,14.53-1.61c3.55-0.69,4.88-1.01,8.16-2.06c0.49-0.16,1.03-0.34,1.63-0.53c2.43-0.79,3-1.02,3.07-1.24&#10;&#9;&#9;&#9;&#9;c0.1-0.23,0.38-1.9,0.72-4.01c0.06-0.43,0.21-1.3,0.31-1.92c0.11-0.63,0.23-1.54,0.29-2.04c0.05-0.5,0.23-1.9,0.4-3.13&#10;&#9;&#9;&#9;&#9;c0.66-4.73,0.83-6.94,1.04-12.91c0.14-3.69,0.17-15.05,0.05-15.81C172.752,152.227,172.772,152.077,172.872,152.077z&#10;&#9;&#9;&#9;&#9; M165.462,168.057c-0.17,2.92-0.44,6.68-0.62,8.47c-0.26,2.34-0.87,6.26-1.05,6.64c-0.2,0.43-0.65,0.67-1.01,0.57&#10;&#9;&#9;&#9;&#9;c-0.13-0.05-0.23-0.03-0.23,0.04c0,0.41-1.74,0.94-4.8,1.46c-5.46,0.91-12.49,1.26-24.69,1.23c-12.87-0.03-17.46-0.3-25.73-1.53&#10;&#9;&#9;&#9;&#9;c-4.85-0.74-6.73-1.13-8.1-1.75c-0.97-0.42-0.97-0.42-0.88-3.36c0.03-1.42,0.08-3.01,0.12-3.54c0.25-4.53,0.32-6.67,0.35-11.05&#10;&#9;&#9;&#9;&#9;c0.02-4.92-0.13-10.81-0.41-15.08c-0.07-1.15-0.16-2.59-0.19-3.18c-0.03-0.6-0.11-1.49-0.17-1.98c-0.06-0.5-0.15-1.4-0.18-1.99&#10;&#9;&#9;&#9;&#9;c-0.11-1.39-0.12-1.58-0.36-3.7c-0.11-0.98-0.18-1.87-0.16-1.98c0.01-0.12,0-0.26-0.05-0.32c-0.03-0.07-0.13-0.75-0.21-1.5&#10;&#9;&#9;&#9;&#9;c-0.29-2.89-1.5-10.96-1.98-13.28c-0.1-0.46-0.34-1.7-0.54-2.76c-0.21-1.06-0.43-2.14-0.49-2.4c-0.06-0.27-0.36-1.6-0.66-2.97&#10;&#9;&#9;&#9;&#9;c-0.61-2.77-0.61-2.74-0.76-3.4c-0.08-0.26-0.41-1.62-0.75-3c-0.68-2.82-2.43-9.05-3.39-12.13c-1.05-3.39-1.74-5.48-2.09-6.49&#10;&#9;&#9;&#9;&#9;c-0.24-0.66-0.55-1.55-0.69-1.98c-0.16-0.43-0.53-1.49-0.83-2.36c-0.3-0.86-0.56-1.69-0.56-1.82c0-0.88,8.76-4.95,15.44-7.18&#10;&#9;&#9;&#9;&#9;c0.34-0.11,1.6-0.54,2.82-0.97c2.29-0.79,5.62-1.82,7.75-2.39c0.66-0.18,1.44-0.39,1.74-0.49c1.19-0.35,5.25-1.28,7.75-1.78&#10;&#9;&#9;&#9;&#9;c2.38-0.48,3.92-0.74,7.51-1.33c1.49-0.24,5.79-0.65,8.15-0.77c5.85-0.29,8.41-0.02,8.99,0.94c0.11,0.17,0.29,0.46,0.41,0.62&#10;&#9;&#9;&#9;&#9;c0.27,0.41,3.05,7.1,4.37,10.56c0.56,1.49,1.1,2.9,1.2,3.13c0.1,0.22,0.53,1.39,0.96,2.58c0.43,1.19,0.88,2.38,0.97,2.64&#10;&#9;&#9;&#9;&#9;c1.25,3.21,4.53,13.26,5.28,16.17c0.18,0.68,0.45,1.68,0.61,2.21c0.32,1.12,1.96,7.59,2.26,9.01c0.12,0.53,0.29,1.31,0.4,1.73&#10;&#9;&#9;&#9;&#9;c0.09,0.42,0.22,1.02,0.27,1.32c0.06,0.3,0.24,1.2,0.41,1.99c0.82,3.99,1.73,9.31,1.79,10.44c0.01,0.34,0.06,0.64,0.1,0.67&#10;&#9;&#9;&#9;&#9;c0.04,0.05,0.32,1.97,0.52,3.73c0.04,0.23,0.16,1.31,0.3,2.4s0.29,2.41,0.36,2.94c0.16,1.34,0.56,5.79,0.75,8.47&#10;&#9;&#9;&#9;&#9;C165.652,152.377,165.652,164.477,165.462,168.057z"/>
            <path style="fill:#7487A3;" d="M121.052,207.037c-0.59,1.33-1.5,3.54-1.5,3.6c0,0.05-0.37,0.87-0.84,1.83&#10;&#9;&#9;&#9;&#9;c-0.46,0.96-0.84,1.78-0.84,1.8c0,0.07-3.82,7.7-5.05,10.08c-2.27,4.36-4.49,7.69-5.79,8.65c-1.46,1.07-3.64,1.59-7.71,1.85&#10;&#9;&#9;&#9;&#9;c-3.57,0.22-6.86-0.38-7.81-1.43c-0.33-0.37-0.28-1.01,0.02-1.75h0.01c0.61-1.48,2.25-3.36,4-4.27c1.06-0.55,3.12-1.25,4.49-1.51&#10;&#9;&#9;&#9;&#9;c2.81-0.55,3.02-0.63,3.39-1.49c0.6-1.37,3.4-9.77,3.79-11.36c0.04-0.13,0.26-0.94,0.48-1.8c0.24-0.86,0.46-1.69,0.5-1.86&#10;&#9;&#9;&#9;&#9;c0.02-0.17,0.14-0.67,0.25-1.13c0.17-0.7,0.48-2.44,0.76-4.22c0.34-2.08,0.66-4.21,0.69-4.8c0.09-1.39,0.1-1.43,0.51-1.34&#10;&#9;&#9;&#9;&#9;c0.18,0.03,1.19,0.2,2.24,0.37c1.06,0.17,3.46,0.47,5.35,0.67c1.88,0.2,3.61,0.4,3.84,0.42c0.23,0.02,0.7,0.05,1.02,0.06&#10;&#9;&#9;&#9;&#9;c0.34,0,0.68,0.05,0.75,0.1C123.812,199.647,122.232,204.317,121.052,207.037z"/>
            <g>
              <path style="fill:#ECF2FB;" d="M91.878,87.142c3.2,6.809,5.766,13.916,7.848,21.162c0.503,1.816,1.002,3.635,1.471,5.462&#10;&#9;&#9;&#9;&#9;&#9;l1.288,5.51l1.087,5.555l0.929,5.584l0.714,5.616l0.555,5.633l0.346,5.648c0.074,1.885,0.122,3.77,0.16,5.654&#10;&#9;&#9;&#9;&#9;&#9;c0.086,7.539-0.334,15.084-1.45,22.525c-0.131-7.52-0.368-14.988-0.889-22.43c-0.164-1.859-0.317-3.716-0.443-5.574l-0.552-5.56&#10;&#9;&#9;&#9;&#9;&#9;l-0.637-5.548l-0.77-5.53l-0.847-5.519l-0.979-5.498l-1.067-5.485c-0.412-1.816-0.795-3.64-1.174-5.467&#10;&#9;&#9;&#9;&#9;&#9;C95.831,101.604,93.913,94.382,91.878,87.142z"/>
            </g>
            <path style="fill:#993558;" d="M165.302,194.137c-3.28,1.05-4.61,1.37-8.16,2.06c-5,0.99-8.52,1.39-14.53,1.61&#10;&#9;&#9;&#9;&#9;c-3.3,0.14-13.01,0.09-15.37-0.07c-5.44-0.36-8.35-0.61-10.56-0.9c-0.7-0.1-1.84-0.24-2.54-0.32c-0.69-0.08-1.85-0.24-2.58-0.38&#10;&#9;&#9;&#9;&#9;c-0.72-0.12-1.8-0.3-2.4-0.39c-3.76-0.62-7.71-1.64-11.47-2.98c-2.39-0.84-8.41-3.44-8.41-3.62c0-0.03,0.06-0.2,0.13-0.39&#10;&#9;&#9;&#9;&#9;c0.15-0.36,0.4-2.09,0.52-3.46c0.05-0.47,0.09-1.01,0.13-1.2c0.02-0.21,0.11-1.04,0.18-1.87c0.07-0.83,0.16-1.8,0.19-2.16&#10;&#9;&#9;&#9;&#9;c0.08-0.76,0.22-2.71,0.4-5.34c0.35-5.02,0.44-16.59,0.19-21.02c-0.03-0.61-0.12-2.23-0.18-3.61c-0.12-2.5-0.35-5.49-0.59-7.81&#10;&#9;&#9;&#9;&#9;c-0.07-0.66-0.17-1.5-0.19-1.86c-0.11-1.09-0.53-4.56-0.66-5.4c-0.88-5.83-1.08-7.01-1.27-7.41c-0.1-0.21-0.17-0.5-0.17-0.63&#10;&#9;&#9;&#9;&#9;c0-0.72-1.19-6.63-1.86-9.26c-0.1-0.36-0.2-0.88-0.23-1.14c-0.03-0.27-0.16-0.91-0.29-1.44s-0.38-1.61-0.56-2.41&#10;&#9;&#9;&#9;&#9;c-0.32-1.38-1.1-4.5-1.61-6.42c-0.12-0.49-0.4-1.53-0.59-2.28c-0.82-3.09-1.7-6.01-3.76-12.38c-1.44-4.42-2.95-8.39-4.07-10.75&#10;&#9;&#9;&#9;&#9;c-0.34-0.68-0.61-1.27-0.61-1.29c0-0.03-0.26-0.54-0.6-1.16c-0.32-0.61-0.6-1.14-0.6-1.19c0.02-0.15,1.05-0.86,2.31-1.62&#10;&#9;&#9;&#9;&#9;c15.9,33.07,22.762,74.365,18.482,110.825C113.869,198.43,145.362,196.087,165.302,194.137z"/>
            <path style="fill-rule:evenodd;clip-rule:evenodd;fill:#B6D1F4;" d="M163.642,162.937c-0.01,0.77-0.03,1.42-0.05,1.91&#10;&#9;&#9;&#9;&#9;c-0.2,4.01-0.24,4.89-0.45,7.95c-0.06,1.06-0.14,2.27-0.17,2.71c-0.04,0.77-0.1,1.35-0.48,5.16c-0.09,1.02-0.18,1.98-0.18,2.13&#10;&#9;&#9;&#9;&#9;c0,0.25-0.06,0.27-0.61,0.27c-0.34,0-1.27,0.16-2.08,0.35c-1.4,0.34-2.8,0.57-5.06,0.84c-1.06,0.14-3,0.27-7.68,0.51&#10;&#9;&#9;&#9;&#9;c-1.58,0.08-7.86,0.12-13.3,0.12c-3.5,0-6.65-0.02-7.96-0.06c-3.74-0.14-6.15-0.25-8.11-0.38h-0.01&#10;&#9;&#9;&#9;&#9;c-1.27-0.08-2.35-0.17-3.48-0.29c-1.22-0.14-2.52-0.27-2.88-0.3c-0.36-0.05-1.22-0.15-1.92-0.24c-0.7-0.1-2.1-0.29-3.12-0.43&#10;&#9;&#9;&#9;&#9;c-3.11-0.4-5.76-0.91-5.97-1.12c-0.04-0.04,0-0.97,0.07-2.08c0.05-0.77,0.1-1.54,0.15-2.34c18.94,3.6,38.8,4.03,57.64,0.67&#10;&#9;&#9;&#9;&#9;c5.27-36.85-0.34-75.17-15.91-108.98c0.9,0,1.09,0.06,1.39,0.17c0.26,0.11,0.52,0.32,0.58,0.46c0.12,0.28,1.53,3.89,2.67,6.8&#10;&#9;&#9;&#9;&#9;c1.95,4.99,3.05,8.01,4.51,12.4v0.01c0.14,0.44,0.29,0.87,0.44,1.34c1.72,5.25,3.34,10.58,4.11,13.46c1.2,4.56,2.29,9,3,12.19&#10;&#9;&#9;&#9;&#9;c1.18,5.36,2.46,12.68,3.05,17.48c0.07,0.6,0.17,1.33,0.26,1.98c0.07,0.5,0.13,0.95,0.17,1.26c0.1,0.72,0.23,1.86,0.29,2.52&#10;&#9;&#9;&#9;&#9;c0.06,0.66,0.17,1.68,0.24,2.28c0.22,1.87,0.48,4.82,0.66,7.69C163.622,151.787,163.702,158.897,163.642,162.937z"/>
            <path style="fill:#4E586F;" d="M213.552,89.077c-0.63,0.47-1.22,0.8-1.74,0.97c-0.57,0.21-0.84,0.44-2.4,2.09&#10;&#9;&#9;&#9;&#9;c-4.18,4.44-4.71,4.94-11.11,10.49c-6.7,5.8-11.37,9.42-16.72,12.93c-1.26,0.82-2.45,1.59-2.64,1.71&#10;&#9;&#9;&#9;&#9;c-0.2,0.11-0.92,0.53-1.61,0.94c-1.59,0.94-4.59,2.46-5.25,2.67c-0.6,0.18-0.61,0.24-0.34,1.79c0.13,0.7,0.22,1.26,0.31,1.87&#10;&#9;&#9;&#9;&#9;c-0.48-0.43-0.92-0.9-1.29-1.43c-1.21-1.71-2.35-5.04-1.23-7.06c0.2-0.36,0.49-0.68,0.83-0.96v-0.01&#10;&#9;&#9;&#9;&#9;c1.41-1.18,3.78-1.86,5.18-2.58c5.69-2.88,11.3-6.02,16.3-10.01c6.53-5.21,12.05-12.05,14.31-20.06c0.1-0.36,0.19-0.72,0.28-1.09&#10;&#9;&#9;&#9;&#9;c-0.05,0.59,0.05,1.15,0.26,1.68c0.12,0.31,0.28,0.61,0.47,0.9c0.7,1.07,1.8,1.97,2.89,2.68c0.05,0.03,0.1,0.06,0.15,0.09&#10;&#9;&#9;&#9;&#9;c0.65,0.43,1.34,0.84,1.99,1.3c0.01,0,0.01,0.01,0.02,0.01c0.05,0.03,0.09,0.06,0.14,0.1c0.1,0.06,0.2,0.13,0.29,0.21&#10;&#9;&#9;&#9;&#9;C212.962,88.547,213.272,88.807,213.552,89.077z"/>
            <path style="fill:#4E586F;" d="M86.752,157.547c-0.51-1.31-1.91-4.16-2.59-5.25c-0.19-0.31-0.61-1.02-0.93-1.56&#10;&#9;&#9;&#9;&#9;c-1.39-2.3-3.64-5.49-5.71-8.06c-0.86-1.06-0.96-1.13-1.15-0.94c-0.14,0.12-0.44,0.17-0.88,0.15c-0.31-0.02-0.54-0.48-0.41-0.85&#10;&#9;&#9;&#9;&#9;c0.05-0.13,0.55-0.63,1.12-1.11c4.55-3.86,8.42-7.91,9.75-10.19l0.31-0.54l-0.27-1.44c-0.16-0.79-0.4-2.17-0.55-3.06&#10;&#9;&#9;&#9;&#9;c-0.03-0.17-0.07-0.38-0.11-0.61c-0.38,0.28-0.69,0.67-0.98,1.05c-3.39,4.48-6.79,8.95-10.18,13.43&#10;&#9;&#9;&#9;&#9;c-0.72,0.95-1.48,2.01-1.41,3.2c0.07,0.97,0.67,1.8,1.25,2.58c1.7,2.28,3.4,4.55,5.11,6.83c1.66,2.22,3.36,4.51,4.11,7.19&#10;&#9;&#9;&#9;&#9;c0.75,2.67,0.37,5.85-1.68,7.73c-1.77,1.63-4.48,1.96-6.78,1.24c-1.82-0.58-3.01-1.74-4.4-2.88c0.32,1.45,1.73,3.46,3.22,4.5&#10;&#9;&#9;&#9;&#9;c1.49,1.02,4.13,1.86,5.9,1.86c1.43,0,3.72-0.72,5.18-1.63c1.07-0.69,2.5-2.42,3.05-3.72&#10;&#9;&#9;&#9;&#9;C88.522,163.597,88.262,161.387,86.752,157.547z"/>
            <path style="fill:#4E586F;" d="M121.052,207.037c-0.59,1.33-1.5,3.54-1.5,3.6c0,0.05-0.37,0.87-0.84,1.83&#10;&#9;&#9;&#9;&#9;c-0.46,0.96-0.84,1.78-0.84,1.8c0,0.07-3.82,7.7-5.05,10.08c-2.27,4.36-4.49,7.69-5.79,8.65c-1.46,1.07-3.64,1.59-7.71,1.85&#10;&#9;&#9;&#9;&#9;c-3.57,0.22-6.86-0.38-7.81-1.43c-0.33-0.37-0.28-1.01,0.02-1.75h0.01c2.22-0.09,4.28,0.49,6.54,0.08&#10;&#9;&#9;&#9;&#9;c2.38-0.44,4.67-1.43,6.56-2.95c3.59-2.88,5.62-7.23,7.52-11.43c2.05-4.5,4.1-9.01,6.15-13.52c-2.62-0.42-5.28,0.33-7.93,0.28&#10;&#9;&#9;&#9;&#9;c-0.39-0.01-0.78-0.04-1.18-0.1c0.34-2.08,0.66-4.21,0.69-4.8c0.09-1.39,0.1-1.43,0.51-1.34c0.18,0.03,1.19,0.2,2.24,0.37&#10;&#9;&#9;&#9;&#9;c1.06,0.17,3.46,0.47,5.35,0.67c1.88,0.2,3.61,0.4,3.84,0.42c0.23,0.02,0.7,0.05,1.02,0.06c0.34,0,0.68,0.05,0.75,0.1&#10;&#9;&#9;&#9;&#9;C123.812,199.647,122.232,204.317,121.052,207.037z"/>
            <path style="fill:#4E586F;" d="M148.982,233.097c0,0.86-0.94,1.63-2.74,2.23c-3.06,1.02-8.47,0.92-12.4-0.24&#10;&#9;&#9;&#9;&#9;c-1.45-0.44-2.48-1.31-2.88-2.44c-0.98-2.79-0.37-9.68,1.43-16.12c0.26-0.93,0.59-2.12,0.72-2.64c0.12-0.53,0.48-1.91,0.78-3.07&#10;&#9;&#9;&#9;&#9;c1-3.91,1.5-7.66,1.32-9.88l-0.08-0.93l1.97-0.01c3.01-0.01,6.69-0.16,9.18-0.34c0.66-0.06,1.32-0.1,1.47-0.1&#10;&#9;&#9;&#9;&#9;c0.18-0.03,0.27,0.04,0.27,0.2c0,0.2-0.41,1.48-1.21,3.84c-2.74,0.54-5.56,0.7-8.35,0.46c-0.42,6.54-1.47,13.24-3.04,19.6&#10;&#9;&#9;&#9;&#9;c-0.46,1.87-0.97,3.87-0.34,5.7c1.1,3.15,5.09,4.28,8.4,3.85c1.72-0.23,3.39-0.74,5.06-1.21&#10;&#9;&#9;&#9;&#9;C148.832,232.387,148.982,232.757,148.982,233.097z"/>
            <g>
              <path style="fill:#ECF2FB;" d="M122.949,153.313c2.661,1.187,5.217,2.542,7.736,3.955c2.525,1.403,4.989,2.904,7.44,4.425&#10;&#9;&#9;&#9;&#9;&#9;c2.431,1.552,4.849,3.126,7.204,4.798c2.362,1.661,4.687,3.383,6.905,5.273c-2.662-1.185-5.219-2.539-7.737-3.952&#10;&#9;&#9;&#9;&#9;&#9;c-2.525-1.403-4.988-2.905-7.438-4.427c-2.43-1.554-4.848-3.128-7.203-4.8C127.493,156.921,125.168,155.201,122.949,153.313z"/>
            </g>
            <g>
              <path style="fill:#ECF2FB;" d="M114.786,158.313c1.693,0.578,3.281,1.322,4.832,2.125c1.55,0.804,3.064,1.666,4.536,2.595&#10;&#9;&#9;&#9;&#9;&#9;c1.475,0.923,2.905,1.918,4.3,2.969c1.394,1.051,2.751,2.163,4.001,3.443c-1.694-0.575-3.283-1.319-4.833-2.123&#10;&#9;&#9;&#9;&#9;&#9;c-1.55-0.805-3.064-1.665-4.534-2.597c-1.473-0.926-2.904-1.92-4.299-2.971C117.395,160.702,116.038,159.591,114.786,158.313z"/>
            </g>
            <g>
              <path style="fill:#ECF2FB;" d="M111.71,132.881c1.693,0.577,3.281,1.322,4.832,2.125c1.55,0.804,3.064,1.666,4.536,2.595&#10;&#9;&#9;&#9;&#9;&#9;c1.475,0.923,2.905,1.918,4.3,2.968c1.394,1.052,2.751,2.163,4.001,3.443c-1.694-0.575-3.283-1.319-4.833-2.123&#10;&#9;&#9;&#9;&#9;&#9;c-1.55-0.805-3.064-1.665-4.534-2.597c-1.473-0.926-2.904-1.92-4.299-2.971C114.319,135.27,112.962,134.159,111.71,132.881z"/>
            </g>
            <path style="fill-rule:evenodd;clip-rule:evenodd;fill:#30304A;" d="M216.652,83.637c-0.33-0.34-0.61-0.49-0.97-0.54l-0.5-0.09&#10;&#9;&#9;&#9;&#9;l0.42-0.61c0.33-0.5,0.41-0.72,0.41-1.25c0-1.17-0.77-1.86-2.09-1.86c-0.68,0-0.7-0.01-0.62-0.27c0.21-0.64,0.21-1.78,0.02-2.31&#10;&#9;&#9;&#9;&#9;c-0.73-1.86-3.01-1.8-5,0.14c-0.42,0.42-0.79,0.76-0.81,0.76s-0.03-0.11-0.03-0.25c0-0.44-0.74-2.07-1.28-2.83&#10;&#9;&#9;&#9;&#9;c-0.92-1.32-1.87-1.88-3.18-1.89c-1.08-0.02-1.62,0.33-2.16,1.43c-0.39,0.78-0.39,0.78-0.54,3.76c-0.19,3.71-0.47,4.99-1.56,7.3&#10;&#9;&#9;&#9;&#9;c-0.39,0.82-0.77,1.37-1.53,2.22c-0.96,1.07-5.08,5.09-6.63,6.48c-0.4,0.34-1.18,1.05-1.74,1.56&#10;&#9;&#9;&#9;&#9;c-5.48,4.98-10.79,8.79-16.1,11.56c-1.68,0.88-3.58,1.71-3.67,1.61c-0.06-0.06-0.52-1.86-1.12-4.52&#10;&#9;&#9;&#9;&#9;c-1.01-4.35-2.76-10.75-4.28-15.56c-0.34-1.13-0.91-2.93-1.26-4.02c-0.33-1.1-0.68-2.19-0.78-2.43&#10;&#9;&#9;&#9;&#9;c-0.09-0.24-0.38-1.13-0.65-1.98c-1.13-3.64-2.93-8.42-4.68-12.37c-0.83-1.88-2.76-5.81-3.51-7.09c-0.4-0.67-0.71-1.29-0.71-1.35&#10;&#9;&#9;&#9;&#9;c0-0.35-0.71-0.49-4.26-0.85c-4.91-0.49-11.47-0.61-16.94-0.29c-10.83,0.64-18.11,1.86-29.13,4.9&#10;&#9;&#9;&#9;&#9;c-7.7,2.12-13.45,4.33-20.57,7.89c-4.42,2.22-6.72,3.66-8.34,5.23c-0.51,0.49-0.64,0.68-0.64,1c0,0.2,0.36,1.31,0.8,2.45&#10;&#9;&#9;&#9;&#9;c2.12,5.56,2.77,7.4,4.02,11.37c0.53,1.68,1.15,3.63,1.37,4.33c1.33,4.17,3.64,12.84,4.68,17.59c0.23,1.06,0.48,2.17,0.56,2.47&#10;&#9;&#9;&#9;&#9;c0.07,0.29,0.07,0.55,0.02,0.56c-0.06,0.03-0.46,0.24-0.88,0.49c-0.57,0.33-1.59,1.27-3.9,3.57&#10;&#9;&#9;&#9;&#9;c-6.49,6.46-11.96,13.11-13.79,16.72c-0.7,1.36-1.37,4.18-1.24,5.08c0.03,0.17,0.09,0.62,0.13,1c0.28,2.4,2.47,5.86,7.39,11.68&#10;&#9;&#9;&#9;&#9;c0.83,0.97,1.64,1.92,1.79,2.11l0.29,0.35l-0.35,0.27c-1.21,0.94-1.78,1.96-1.72,3.12l0.04,0.62l-0.68,0.13&#10;&#9;&#9;&#9;&#9;c-1.17,0.24-1.89,1.13-1.98,2.27c-0.05,0.5,0.02,1.04,0.23,1.6c1.54,4.11,6.81,7.58,11.11,7.32c1.84-0.11,3.52-0.63,5.13-1.58&#10;&#9;&#9;&#9;&#9;c0.96-0.55,2.92-2.53,3.27-3.28c0.12-0.27,0.3-0.53,0.4-0.56c0.17-0.06,0.15,1.33-0.05,5.52c-0.04,0.77-0.11,1.89-0.2,3.13v0.01&#10;&#9;&#9;&#9;&#9;c-0.18,2.79-0.44,6.16-0.57,7.43c-0.29,2.67-0.42,5.46-0.28,5.91c0.08,0.26,0.16,0.6,0.21,0.79c0.03,0.18,0.21,0.43,0.41,0.56&#10;&#9;&#9;&#9;&#9;c0.99,0.71,4.89,2.74,6.8,3.53c1.4,0.6,4.94,1.89,5.08,1.86c0.04-0.01,0.25,0.05,0.44,0.14c0.54,0.22,2.5,0.73,4.17,1.13&#10;&#9;&#9;&#9;&#9;c0.87,0.2,1.67,0.37,2.14,0.45c1.35,0.2,1.47,0.28,1.39,0.75c-0.04,0.2-0.13,0.92-0.19,1.58c-0.11,1.07-0.34,2.51-0.62,4.06&#10;&#9;&#9;&#9;&#9;c-0.48,2.62-1.13,5.56-1.68,7.56c-0.33,1.21-0.62,2.28-0.64,2.37c-0.02,0.1-0.06,0.27-0.11,0.37c-0.04,0.09-0.34,1.02-0.66,2.04&#10;&#9;&#9;&#9;&#9;c-0.75,2.36-1.46,4.41-2.31,6.62c-0.34,0.87-0.53,1.13-0.89,1.16c-1.64,0.16-4.71,1.08-6.51,1.96c-1.03,0.52-1.43,0.79-2.44,1.75&#10;&#9;&#9;&#9;&#9;c-1.67,1.58-2.5,3.02-2.67,4.61c-0.03,0.11-0.03,0.23-0.04,0.35c-0.04,0.78,0,0.99,0.26,1.53c0.99,2.02,4.72,3.01,10.06,2.68&#10;&#9;&#9;&#9;&#9;c2.84-0.18,5.35-0.71,6.74-1.41c1.99-1.01,3.84-3.17,6.21-7.28c1.26-2.16,5.59-10.9,6.87-13.83c2.51-5.78,4.03-9.9,4.76-12.89&#10;&#9;&#9;&#9;&#9;l0.39-1.59h0.62c0.34,0,1.46,0.05,2.48,0.11c0.26,0.02,0.57,0.04,0.89,0.05c0.74,0.04,1.59,0.08,2.29,0.11&#10;&#9;&#9;&#9;&#9;c0.22,0.01,0.42,0.02,0.6,0.03c1.05,0.04,1.94,0.1,1.96,0.12c0.04,0.03-0.01,0.47-0.08,0.99c-0.08,0.51-0.2,1.74-0.26,2.74&#10;&#9;&#9;&#9;&#9;c-0.2,2.88-0.57,4.72-2.18,10.69c-2.26,8.37-2.73,11.06-2.58,14.95c0.08,2.21,0.34,3.6,0.88,4.6c0.34,0.6,1.79,2.06,1.97,1.95&#10;&#9;&#9;&#9;&#9;c0.05-0.04,0.12-0.01,0.17,0.06c0.19,0.3,1.89,0.97,2.91,1.15c0.18,0.04,0.42,0.08,0.52,0.11c0.09,0.03,0.92,0.17,1.83,0.3&#10;&#9;&#9;&#9;&#9;c2.71,0.4,6.23,0.31,8.56-0.19c0.98-0.21,2.63-0.84,2.83-1.08c0.07-0.1,0.2-0.17,0.28-0.17c0.07-0.01,0.43-0.24,0.79-0.52&#10;&#9;&#9;&#9;&#9;c1.4-1.1,1.67-2.62,0.91-4.13c-0.48-0.97-1.37-1.93-2.65-2.78c-0.46-0.3-1.84-0.99-3.07-1.53c-2.73-1.2-3.23-1.46-3.32-1.69&#10;&#9;&#9;&#9;&#9;c-0.04-0.09,0.35-1.34,0.85-2.76c0.96-2.66,2.49-7.22,3.08-9.11c0.18-0.61,0.85-2.58,1.5-4.39c0.63-1.81,1.29-3.76,1.46-4.32&#10;&#9;&#9;&#9;&#9;c0.19-0.62,0.37-1.23,0.53-1.79c0.43-1.48,0.73-2.66,0.78-3.05c0.05-0.32,0.13-0.61,0.19-0.64c0.05-0.04,0.93-0.17,1.94-0.29&#10;&#9;&#9;&#9;&#9;c0.76-0.09,1.96-0.27,3.2-0.48c1.55-0.27,3.15-0.57,4.03-0.77c0.4-0.09,1.13-0.26,1.62-0.37c2.73-0.61,9.43-2.8,9.73-3.17&#10;&#9;&#9;&#9;&#9;c0.04-0.04,0.17-0.09,0.3-0.11c0.55-0.08,0.9-0.3,0.97-0.61c0.04-0.17,0.15-0.51,0.23-0.74c0.29-0.79,1.02-4.52,1.86-9.55&#10;&#9;&#9;&#9;&#9;c0.41-2.46,0.99-8.26,1.2-12.13c0.33-5.55,0.26-22.74-0.09-23.29c-0.04-0.07-0.06-0.31-0.04-0.55c0.06-0.65-0.21-4.16-0.6-7.93&#10;&#9;&#9;&#9;&#9;c-0.56-5.38-0.57-5.55-0.69-6.18c-0.08-0.34-0.16-0.99-0.2-1.45c-0.03-0.46-0.16-1.4-0.3-2.1c-0.12-0.7-0.33-2.02-0.48-2.94&#10;&#9;&#9;&#9;&#9;c-0.15-0.96-0.25-1.64-0.35-2.26c-0.09-0.61-0.18-1.17-0.31-1.87c-0.27-1.55-0.26-1.61,0.34-1.79c0.66-0.21,3.66-1.73,5.25-2.67&#10;&#9;&#9;&#9;&#9;c0.69-0.41,1.41-0.83,1.61-0.94c0.19-0.12,1.38-0.89,2.64-1.71c5.35-3.51,10.02-7.13,16.72-12.93c6.4-5.55,6.93-6.05,11.11-10.49&#10;&#9;&#9;&#9;&#9;c1.56-1.65,1.83-1.88,2.4-2.09c0.52-0.17,1.11-0.5,1.74-0.97c0.55-0.4,1.14-0.9,1.74-1.5c1.24-1.25,1.68-1.96,1.77-2.9&#10;&#9;&#9;&#9;&#9;C217.112,84.127,217.092,84.067,216.652,83.637z M214.602,80.517c0.26,0.13,0.28,0.9,0.01,1.29c-0.53,0.78-1.34,1.48-2.29,1.94&#10;&#9;&#9;&#9;&#9;c-0.54,0.25-1.05,0.53-1.14,0.61c-0.33,0.31-1.14,0.82-1.31,0.82c-0.29,0-1.28-0.68-1.34-0.92c-0.02-0.13,0-0.46,0.06-0.75&#10;&#9;&#9;&#9;&#9;C208.942,81.787,213.082,79.737,214.602,80.517z M208.142,79.167c1.25-1.92,3.16-3.04,3.85-2.27c0.3,0.34,0.3,1.51,0,2.28&#10;&#9;&#9;&#9;&#9;c-0.19,0.52-0.28,0.59-1.34,1.14c-0.64,0.33-1.47,0.85-1.85,1.16c-0.75,0.6-0.9,0.66-1.21,0.42&#10;&#9;&#9;&#9;&#9;C207.092,81.507,207.312,80.427,208.142,79.167z M87.722,165.467c-0.55,1.3-1.98,3.03-3.05,3.72c-1.46,0.91-3.75,1.63-5.18,1.63&#10;&#9;&#9;&#9;&#9;c-1.77,0-4.41-0.84-5.9-1.86c-0.12-0.08-0.23-0.17-0.35-0.26c-0.09-0.08-0.19-0.15-0.28-0.24c-0.16-0.13-0.31-0.28-0.46-0.44&#10;&#9;&#9;&#9;&#9;c-0.09-0.09-0.18-0.18-0.26-0.28c-0.15-0.17-0.29-0.34-0.44-0.52c-0.17-0.22-0.33-0.46-0.49-0.69c-0.15-0.23-0.28-0.46-0.4-0.68&#10;&#9;&#9;&#9;&#9;c-0.07-0.13-0.13-0.25-0.19-0.38c-0.05-0.11-0.1-0.23-0.14-0.34c-0.06-0.14-0.1-0.28-0.14-0.41c-0.03-0.09-0.05-0.18-0.07-0.26&#10;&#9;&#9;&#9;&#9;v-0.01c-0.02-0.09-0.04-0.18-0.05-0.27c-0.01-0.1-0.02-0.19-0.02-0.28c0-0.69,0.15-0.96,0.64-1.11c0.33-0.12,0.56-0.08,1.64,0.28&#10;&#9;&#9;&#9;&#9;c1.41,0.49,1.59,0.5,1.85,0.23c0.41-0.39,0.09-1.07-0.79-1.63c-0.22-0.14-0.35-0.39-0.46-0.82c-0.2-0.85-0.07-1.37,0.51-2&#10;&#9;&#9;&#9;&#9;c0.82-0.87,0.84-0.87,1.6-0.06c0.75,0.83,1.22,1.08,1.62,0.86c0.35-0.18,0.49-0.62,0.36-1.08c-0.15-0.5-0.72-1.25-2.54-3.3&#10;&#9;&#9;&#9;&#9;c-0.81-0.93-1.89-2.18-2.39-2.77c-0.49-0.6-0.97-1.15-1.04-1.23c-0.09-0.09-0.16-0.2-0.16-0.24c0-0.05-0.18-0.28-0.39-0.51&#10;&#9;&#9;&#9;&#9;c-0.36-0.38-1.49-1.87-2.49-3.27c-0.22-0.31-0.45-0.54-0.52-0.49c-0.07,0.04-0.08,0.01-0.03-0.06c0.03-0.07-0.09-0.36-0.28-0.65&#10;&#9;&#9;&#9;&#9;c-0.6-0.89-1.32-2.4-1.53-3.22c-0.36-1.44,0.04-3.42,1.12-5.56c0.36-0.73,1.23-2.11,1.44-2.34c0.09-0.1,0.22-0.28,0.3-0.42&#10;&#9;&#9;&#9;&#9;c0.42-0.8,3.84-5.09,6.32-7.95c1.15-1.32,2.37-2.73,2.72-3.12c0.39-0.47,1.05-1.21,1.75-2c0.35-0.39,0.71-0.79,1.05-1.18&#10;&#9;&#9;&#9;&#9;c0.35-0.38,0.67-0.75,0.96-1.06c0.99-1.11,2.01-1.88,2.36-1.78c0.07,0.01,0.37,1.29,0.68,2.84c0.13,0.63,0.26,1.33,0.39,2.01&#10;&#9;&#9;&#9;&#9;c0.12,0.67,0.24,1.32,0.34,1.82c0.04,0.23,0.08,0.44,0.11,0.61c0.15,0.89,0.39,2.27,0.55,3.06l0.27,1.44l-0.31,0.54&#10;&#9;&#9;&#9;&#9;c-1.33,2.28-5.2,6.33-9.75,10.19c-0.57,0.48-1.07,0.98-1.12,1.11c-0.13,0.37,0.1,0.83,0.41,0.85c0.44,0.02,0.74-0.03,0.88-0.15&#10;&#9;&#9;&#9;&#9;c0.19-0.19,0.29-0.12,1.15,0.94c2.07,2.57,4.32,5.76,5.71,8.06c0.32,0.54,0.74,1.25,0.93,1.56c0.68,1.09,2.08,3.94,2.59,5.25&#10;&#9;&#9;&#9;&#9;C88.262,161.387,88.522,163.597,87.722,165.467z M88.912,158.387c-1.02-2.69-1.74-4.16-3.26-6.67c-2.78-4.59-4.54-7.02-7.17-9.94&#10;&#9;&#9;&#9;&#9;c-0.47-0.53-0.84-0.99-0.84-1.02c1.01-0.77,2.63-2.23,4.18-3.74c1.81-1.79,4.25-4.42,4.6-5c0.15-0.22,0.34-0.32,0.34-0.16&#10;&#9;&#9;&#9;&#9;c0,0.03,0.13,0.63,0.29,1.34c0.49,2.14,1.14,7.94,1.56,13.84c0.29,4.03,0.3,4.41,0.37,8.17&#10;&#9;&#9;&#9;&#9;C89.032,157.917,89.002,158.667,88.912,158.387z M121.052,207.037c-0.59,1.33-1.5,3.54-1.5,3.6c0,0.05-0.37,0.87-0.84,1.83&#10;&#9;&#9;&#9;&#9;c-0.46,0.96-0.84,1.78-0.84,1.8c0,0.07-3.82,7.7-5.05,10.08c-2.27,4.36-4.49,7.69-5.79,8.65c-1.46,1.07-3.64,1.59-7.71,1.85&#10;&#9;&#9;&#9;&#9;c-3.57,0.22-6.86-0.38-7.81-1.43c-0.04-0.04-0.07-0.09-0.1-0.14c-0.06-0.1-0.1-0.21-0.12-0.34c-0.01-0.13-0.01-0.28,0.01-0.44&#10;&#9;&#9;&#9;&#9;c0.01-0.05,0.01-0.09,0.02-0.13c0.01-0.04,0.02-0.09,0.03-0.14c0.02-0.08,0.05-0.18,0.08-0.27c0.03-0.1,0.07-0.19,0.11-0.29&#10;&#9;&#9;&#9;&#9;c0.06-0.14,0.13-0.28,0.2-0.43c0.08-0.14,0.16-0.29,0.25-0.44c0.12-0.19,0.25-0.39,0.4-0.59c0.11-0.16,0.23-0.32,0.37-0.47&#10;&#9;&#9;&#9;&#9;c0.04-0.06,0.09-0.12,0.13-0.17c0.12-0.13,0.24-0.26,0.36-0.39c0.08-0.1,0.18-0.19,0.28-0.28c0.12-0.12,0.24-0.23,0.36-0.34&#10;&#9;&#9;&#9;&#9;c0.12-0.11,0.25-0.21,0.38-0.32c0.07-0.06,0.15-0.12,0.23-0.18c0.01-0.01,0.03-0.03,0.05-0.04c0.32-0.23,0.65-0.44,0.99-0.62&#10;&#9;&#9;&#9;&#9;c1.06-0.55,3.12-1.25,4.49-1.51c2.81-0.55,3.02-0.63,3.39-1.49c0.6-1.37,3.4-9.77,3.79-11.36c0.04-0.13,0.26-0.94,0.48-1.8&#10;&#9;&#9;&#9;&#9;c0.24-0.86,0.46-1.69,0.5-1.86c0.02-0.17,0.14-0.67,0.25-1.13c0.02-0.09,0.04-0.2,0.07-0.31c0.02-0.12,0.05-0.25,0.08-0.39&#10;&#9;&#9;&#9;&#9;c0.03-0.15,0.06-0.3,0.09-0.47c0.16-0.84,0.35-1.94,0.52-3.05c0.06-0.39,0.12-0.79,0.19-1.17c0-0.04,0.01-0.09,0.02-0.14&#10;&#9;&#9;&#9;&#9;c0.03-0.18,0.06-0.36,0.09-0.54c0.03-0.24,0.07-0.46,0.1-0.68c0.02-0.15,0.04-0.29,0.06-0.43c0.04-0.27,0.08-0.52,0.11-0.74&#10;&#9;&#9;&#9;&#9;c0.01-0.09,0.02-0.17,0.03-0.24c0.02-0.16,0.04-0.3,0.05-0.42c0.01-0.12,0.02-0.22,0.03-0.3c0-0.05,0.01-0.1,0.01-0.14&#10;&#9;&#9;&#9;&#9;c0.09-1.39,0.1-1.43,0.51-1.34c0.18,0.03,1.19,0.2,2.24,0.37c1.06,0.17,3.46,0.47,5.35,0.67c1.88,0.2,3.61,0.4,3.84,0.42&#10;&#9;&#9;&#9;&#9;c0.23,0.02,0.7,0.05,1.02,0.06c0.34,0,0.68,0.05,0.75,0.1C123.812,199.647,122.232,204.317,121.052,207.037z M146.102,205.657&#10;&#9;&#9;&#9;&#9;c-0.48,1.35-1.53,4.41-2.35,6.78c-0.81,2.38-1.81,5.28-2.22,6.43c-1.76,5.01-2.16,6.25-2.16,6.77c0,1.29,0.64,1.75,4.68,3.4&#10;&#9;&#9;&#9;&#9;c0.19,0.07,0.37,0.15,0.54,0.23c0.18,0.08,0.35,0.16,0.52,0.24c0.39,0.19,0.77,0.38,1.11,0.59c0.21,0.12,0.41,0.25,0.6,0.37&#10;&#9;&#9;&#9;&#9;c0.19,0.13,0.37,0.26,0.54,0.38c0.17,0.13,0.33,0.26,0.47,0.39c0.03,0.03,0.07,0.06,0.1,0.09c0.11,0.1,0.2,0.19,0.29,0.29&#10;&#9;&#9;&#9;&#9;c0.06,0.07,0.12,0.13,0.17,0.19c0.06,0.06,0.1,0.12,0.15,0.19c0.03,0.05,0.07,0.1,0.1,0.15c0.03,0.04,0.07,0.09,0.09,0.14&#10;&#9;&#9;&#9;&#9;c0.05,0.08,0.09,0.17,0.12,0.25c0.02,0.05,0.04,0.1,0.06,0.15c0.02,0.05,0.03,0.1,0.04,0.15c0.02,0.09,0.03,0.17,0.03,0.26&#10;&#9;&#9;&#9;&#9;c0,0.86-0.94,1.63-2.74,2.23c-3.06,1.02-8.47,0.92-12.4-0.24c-1.45-0.44-2.48-1.31-2.88-2.44c-0.98-2.79-0.37-9.68,1.43-16.12&#10;&#9;&#9;&#9;&#9;c0.03-0.12,0.07-0.24,0.1-0.36c0.07-0.24,0.14-0.5,0.21-0.75c0.04-0.12,0.07-0.24,0.1-0.36c0.07-0.24,0.13-0.47,0.18-0.67&#10;&#9;&#9;&#9;&#9;c0.05-0.2,0.1-0.37,0.13-0.5c0.12-0.53,0.48-1.91,0.78-3.07c1-3.91,1.5-7.66,1.32-9.88l-0.08-0.93l1.97-0.01&#10;&#9;&#9;&#9;&#9;c3.01-0.01,6.69-0.16,9.18-0.34c0.66-0.06,1.32-0.1,1.47-0.1c0.18-0.03,0.27,0.04,0.27,0.2c0,0.08-0.06,0.32-0.19,0.74&#10;&#9;&#9;&#9;&#9;c-0.06,0.2-0.14,0.44-0.23,0.72s-0.19,0.61-0.32,0.97c-0.06,0.2-0.14,0.43-0.22,0.66c-0.08,0.24-0.16,0.49-0.25,0.75&#10;&#9;&#9;&#9;&#9;C146.602,204.207,146.362,204.897,146.102,205.657z M172.712,149.857c0.11,2.09,0.09,1.89,0.21,2.07&#10;&#9;&#9;&#9;&#9;c0.06,0.09,0.04,0.15-0.05,0.15c-0.1,0-0.12,0.15-0.06,0.47c0.12,0.76,0.09,12.12-0.05,15.81c-0.21,5.97-0.38,8.18-1.04,12.91&#10;&#9;&#9;&#9;&#9;c-0.17,1.23-0.35,2.63-0.4,3.13c-0.06,0.5-0.18,1.41-0.29,2.04c-0.1,0.62-0.25,1.49-0.31,1.92c-0.34,2.11-0.62,3.78-0.72,4.01&#10;&#9;&#9;&#9;&#9;c-0.07,0.22-0.64,0.45-3.07,1.24c-4.56,1.49-5.7,1.8-9.79,2.59c-0.63,0.12-1.23,0.24-1.82,0.34c-4.1,0.75-7.46,1.08-12.71,1.27&#10;&#9;&#9;&#9;&#9;c-2.04,0.09-6.54,0.1-10.23,0.06c-1.32-0.01-2.53-0.03-3.49-0.06c-0.7-0.02-1.27-0.04-1.65-0.07c-5.44-0.36-8.35-0.61-10.56-0.9&#10;&#9;&#9;&#9;&#9;c-0.7-0.1-1.84-0.24-2.54-0.32c-0.69-0.08-1.85-0.24-2.58-0.38c-0.72-0.12-1.8-0.3-2.4-0.39c-0.88-0.15-1.77-0.31-2.67-0.5h-0.01&#10;&#9;&#9;&#9;&#9;c-2.93-0.62-5.91-1.45-8.79-2.48c-2.39-0.84-8.41-3.44-8.41-3.62c0-0.03,0.06-0.2,0.13-0.39c0.15-0.36,0.4-2.09,0.52-3.46&#10;&#9;&#9;&#9;&#9;c0.05-0.47,0.09-1.01,0.13-1.2c0.02-0.21,0.11-1.04,0.18-1.87c0.07-0.83,0.16-1.8,0.19-2.16c0.08-0.76,0.22-2.71,0.4-5.34&#10;&#9;&#9;&#9;&#9;c0.03-0.45,0.06-0.94,0.09-1.48c0.27-5.53,0.33-15.5,0.1-19.54c-0.03-0.61-0.12-2.23-0.18-3.61c-0.12-2.5-0.35-5.49-0.59-7.81&#10;&#9;&#9;&#9;&#9;c-0.07-0.66-0.17-1.5-0.19-1.86c-0.11-1.09-0.53-4.56-0.66-5.4c-0.88-5.83-1.08-7.01-1.27-7.41c-0.1-0.21-0.17-0.5-0.17-0.63&#10;&#9;&#9;&#9;&#9;c0-0.29-0.19-1.41-0.47-2.82c-0.4-2.11-0.99-4.86-1.39-6.44c-0.1-0.36-0.2-0.88-0.23-1.14c-0.03-0.27-0.16-0.91-0.29-1.44&#10;&#9;&#9;&#9;&#9;s-0.38-1.61-0.56-2.41c-0.32-1.38-1.1-4.5-1.61-6.42c-0.12-0.49-0.4-1.53-0.59-2.28c-0.82-3.09-1.7-6.01-3.76-12.38&#10;&#9;&#9;&#9;&#9;c-1.44-4.42-2.95-8.39-4.07-10.75c-0.34-0.68-0.6-1.27-0.6-1.29c0-0.03-0.27-0.54-0.61-1.16c-0.32-0.61-0.6-1.14-0.6-1.19&#10;&#9;&#9;&#9;&#9;c0.02-0.18,1.59-1.23,3.24-2.18c1.47-0.84,6.36-3.37,6.53-3.37c0.04,0,0.52-0.2,1.07-0.46c1.2-0.57,2.11-0.95,4.48-1.94&#10;&#9;&#9;&#9;&#9;c8.36-3.49,20.53-6.83,30.33-8.33c4.23-0.65,9.64-1.21,13.69-1.39c3.32-0.15,10.75-0.07,14.06,0.16c1.62,0.11,3.37,0.24,3.9,0.29&#10;&#9;&#9;&#9;&#9;l0.96,0.08l1.24,2.89c1.37,3.19,1.52,3.56,3.37,8.46c1.34,3.52,2.51,6.99,3.74,10.99c1.97,6.48,2.29,7.56,2.64,8.77&#10;&#9;&#9;&#9;&#9;c0.22,0.72,0.52,1.8,0.68,2.39c0.15,0.58,0.32,1.12,0.37,1.19c0.05,0.07,0.09,0.24,0.11,0.39c0.01,0.13,0.16,0.72,0.32,1.32&#10;&#9;&#9;&#9;&#9;c0.88,3.1,3.09,12.35,3.52,14.65c0.08,0.46,0.28,1.36,0.41,1.99c0.14,0.62,0.36,1.7,0.48,2.4c0.8,4.45,1,5.46,1.09,5.5&#10;&#9;&#9;&#9;&#9;c0.05,0.02,0.07,0.11,0.04,0.19c-0.06,0.16,0.06,0.97,0.6,4.28c0.17,1.02,0.39,2.4,0.49,3.06c0.11,0.66,0.23,1.33,0.25,1.5&#10;&#9;&#9;&#9;&#9;c0.04,0.17,0.06,0.39,0.06,0.48c0,0.1,0.11,0.94,0.23,1.86C171.842,138.007,172.452,144.597,172.712,149.857z M200.922,98.397&#10;&#9;&#9;&#9;&#9;c-1.89,1.62-6.92,5.84-8.39,6.99c-5.15,4.1-9.08,6.83-15.02,10.42c-0.99,0.6-1.89,1.14-1.98,1.2c-1.35,0.83-4.23,2.41-4.29,2.35&#10;&#9;&#9;&#9;&#9;c-0.06-0.04-0.18-0.63-0.63-3.01c-0.03-0.15-0.06-0.28-0.08-0.4c-0.03-0.13-0.05-0.24-0.07-0.34c-0.04-0.21-0.07-0.38-0.1-0.52&#10;&#9;&#9;&#9;&#9;v-0.01c-0.05-0.24-0.08-0.43-0.12-0.64c-0.02-0.07-0.03-0.15-0.05-0.23c-0.03-0.16-0.06-0.33-0.11-0.56&#10;&#9;&#9;&#9;&#9;c-0.51-2.54-0.6-3.18-0.43-3.24c0.46-0.14,4.7-2.37,6.18-3.25c4.28-2.52,9.13-6.12,12.85-9.54c3.55-3.27,3.67-3.39,7.16-6.82&#10;&#9;&#9;&#9;&#9;c3.19-3.16,3.76-3.81,4.37-5.02c0.84-1.67,1.12-3.22,1.26-6.91c0.12-3.12,0.33-4.12,0.97-4.78c0.32-0.3,0.41-0.34,0.8-0.26&#10;&#9;&#9;&#9;&#9;c0.25,0.04,0.63,0.18,0.87,0.3c0.82,0.42,1.64,1.62,2.17,3.19c0.43,1.33,0.44,1.54,0.07,2.56c-0.3,0.85-0.43,1.49-0.38,1.98&#10;&#9;&#9;&#9;&#9;c0.02,0.14,0.05,0.27,0.1,0.39c0.02,0.06,0.05,0.12,0.08,0.18v0.01c0.12,0.22,0.28,0.39,0.51,0.56c0.01,0.01,0.02,0.02,0.03,0.02&#10;&#9;&#9;&#9;&#9;c0.26,0.2,0.37,0.29,0.43,0.48c0.01,0.03,0.01,0.06,0.01,0.09c0.02,0.09,0.02,0.19,0.03,0.33c0.01,0.08,0.01,0.17,0.01,0.28&#10;&#9;&#9;&#9;&#9;c0.01,0.76,0.04,0.88,0.36,1.21c0.19,0.19,0.6,0.45,0.91,0.56l0.56,0.2l-0.41,0.66c-0.56,0.95-0.55,1.63,0.03,2.19&#10;&#9;&#9;&#9;&#9;c0.36,0.35,0.52,0.41,1.14,0.46c0.4,0.02,0.72,0.09,0.72,0.14C210.482,89.767,203.772,95.927,200.922,98.397z M213.702,87.417&#10;&#9;&#9;&#9;&#9;c-0.47,0.39-0.91,0.77-1.01,0.86c-0.02,0.02-0.03,0.03-0.05,0.03c-0.1,0.08-0.15,0.04-0.24-0.13c-0.02-0.03-0.03-0.06-0.05-0.08&#10;&#9;&#9;&#9;&#9;c-0.05-0.04-0.09-0.07-0.14-0.1c-0.01,0-0.01-0.01-0.02-0.01c-0.17-0.04-0.49-0.03-1.22,0.02c-1.39,0.09-1.53,0.04-1.4-0.47&#10;&#9;&#9;&#9;&#9;c0.04-0.18,0.27-0.48,0.63-0.85c0.28-0.29,0.64-0.62,1.05-0.95c1.34-1.1,2.53-1.63,3.64-1.64c0.52,0,0.65,0.04,0.76,0.24&#10;&#9;&#9;&#9;&#9;C215.962,84.917,215.132,86.247,213.702,87.417z"/>
            <path style="fill-rule:evenodd;clip-rule:evenodd;fill:#30304A;" d="M135.515,68.009c-2.366,0.12-6.667,0.529-8.156,0.769&#10;&#9;&#9;&#9;&#9;c-3.592,0.589-5.129,0.853-7.507,1.333c-2.498,0.493-6.559,1.429-7.748,1.778c-0.3,0.096-1.081,0.312-1.742,0.493&#10;&#9;&#9;&#9;&#9;c-2.126,0.565-5.465,1.598-7.748,2.39c-1.225,0.42-2.486,0.853-2.823,0.961c-6.679,2.234-15.435,6.306-15.435,7.183&#10;&#9;&#9;&#9;&#9;c0,0.132,0.252,0.961,0.553,1.826s0.673,1.922,0.829,2.354c0.144,0.432,0.456,1.321,0.697,1.982&#10;&#9;&#9;&#9;&#9;c0.348,1.009,1.033,3.099,2.09,6.487c0.961,3.087,2.703,9.309,3.387,12.132c0.336,1.381,0.673,2.739,0.745,3.003&#10;&#9;&#9;&#9;&#9;c0.156,0.661,0.156,0.625,0.769,3.399c0.3,1.369,0.601,2.703,0.661,2.967c0.06,0.264,0.276,1.345,0.48,2.402&#10;&#9;&#9;&#9;&#9;c0.204,1.057,0.444,2.294,0.54,2.763c0.481,2.318,1.694,10.39,1.982,13.273c0.084,0.757,0.18,1.429,0.216,1.501&#10;&#9;&#9;&#9;&#9;c0.048,0.06,0.06,0.204,0.048,0.324c-0.024,0.108,0.048,0.997,0.156,1.982c0.24,2.114,0.252,2.306,0.36,3.7&#10;&#9;&#9;&#9;&#9;c0.036,0.589,0.12,1.49,0.18,1.982c0.06,0.493,0.144,1.381,0.168,1.982c0.036,0.589,0.12,2.03,0.192,3.183&#10;&#9;&#9;&#9;&#9;c0.276,4.264,0.432,10.162,0.408,15.075c-0.024,4.384-0.096,6.522-0.348,11.051c-0.036,0.529-0.084,2.126-0.12,3.544&#10;&#9;&#9;&#9;&#9;c-0.084,2.943-0.084,2.943,0.877,3.363c1.369,0.613,3.255,1.009,8.108,1.742c8.264,1.237,12.853,1.501,25.73,1.538&#10;&#9;&#9;&#9;&#9;c12.192,0.024,19.231-0.324,24.685-1.237c3.063-0.516,4.805-1.045,4.805-1.453c0-0.072,0.096-0.096,0.228-0.048&#10;&#9;&#9;&#9;&#9;c0.36,0.108,0.805-0.132,1.009-0.564c0.18-0.384,0.793-4.3,1.045-6.643c0.18-1.79,0.456-5.55,0.625-8.468&#10;&#9;&#9;&#9;&#9;c0.192-3.579,0.192-15.676,0-18.498c-0.192-2.679-0.589-7.135-0.745-8.468c-0.072-0.528-0.228-1.85-0.36-2.943&#10;&#9;&#9;&#9;&#9;c-0.144-1.093-0.264-2.174-0.3-2.402c-0.204-1.754-0.48-3.676-0.529-3.724c-0.036-0.036-0.084-0.336-0.096-0.673&#10;&#9;&#9;&#9;&#9;c-0.06-1.129-0.973-6.45-1.79-10.438c-0.168-0.793-0.348-1.694-0.408-1.994c-0.048-0.3-0.18-0.901-0.276-1.321&#10;&#9;&#9;&#9;&#9;c-0.108-0.42-0.276-1.201-0.396-1.73c-0.3-1.417-1.934-7.892-2.258-9.009c-0.156-0.529-0.432-1.525-0.613-2.21&#10;&#9;&#9;&#9;&#9;c-0.745-2.907-4.024-12.961-5.273-16.168c-0.096-0.264-0.541-1.453-0.973-2.643c-0.432-1.189-0.865-2.354-0.961-2.583&#10;&#9;&#9;&#9;&#9;s-0.637-1.634-1.201-3.123c-1.321-3.459-4.096-10.15-4.372-10.559c-0.12-0.168-0.3-0.456-0.408-0.625&#10;&#9;&#9;&#9;&#9;C143.924,67.985,141.365,67.72,135.515,68.009z M143.467,69.51c0.264,0.108,0.529,0.312,0.589,0.456&#10;&#9;&#9;&#9;&#9;c0.12,0.276,1.526,3.892,2.667,6.799c2.138,5.489,3.255,8.588,4.949,13.754c1.718,5.249,3.339,10.583,4.108,13.453&#10;&#9;&#9;&#9;&#9;c1.201,4.565,2.294,9.009,3.003,12.192c1.177,5.357,2.463,12.685,3.051,17.477c0.132,1.057,0.324,2.51,0.433,3.243&#10;&#9;&#9;&#9;&#9;c0.096,0.721,0.228,1.862,0.288,2.523c0.06,0.661,0.168,1.682,0.24,2.282c0.216,1.862,0.48,4.817,0.661,7.688&#10;&#9;&#9;&#9;&#9;c0.192,2.871,0.276,12.384,0.132,15.471c-0.192,4.012-0.24,4.889-0.444,7.952c-0.06,1.057-0.144,2.27-0.168,2.703&#10;&#9;&#9;&#9;&#9;c-0.048,0.769-0.108,1.357-0.48,5.165c-0.096,1.021-0.18,1.982-0.18,2.126c0,0.252-0.06,0.276-0.613,0.276&#10;&#9;&#9;&#9;&#9;c-0.336,0-1.273,0.156-2.078,0.348c-1.405,0.336-2.799,0.565-5.057,0.841c-1.069,0.132-3.003,0.264-7.688,0.505&#10;&#9;&#9;&#9;&#9;c-2.595,0.132-17.922,0.168-21.261,0.06c-6.174-0.228-8.733-0.372-11.592-0.673c-1.225-0.132-2.523-0.264-2.883-0.3&#10;&#9;&#9;&#9;&#9;c-0.36-0.048-1.225-0.144-1.922-0.24s-2.102-0.288-3.123-0.42c-3.111-0.408-5.754-0.913-5.97-1.129&#10;&#9;&#9;&#9;&#9;c-0.036-0.036,0-0.961,0.072-2.078c0.168-2.45,0.324-4.949,0.493-8.144c0.144-2.571,0.132-11.363-0.024-14.535&#10;&#9;&#9;&#9;&#9;c-0.276-5.994-0.468-9.069-0.709-11.471c-0.072-0.757-0.132-1.465-0.132-1.561c0-0.096-0.156-1.646-0.36-3.424&#10;&#9;&#9;&#9;&#9;c-0.192-1.79-0.409-3.7-0.468-4.264c-0.06-0.565-0.132-1.153-0.168-1.321c-0.036-0.168-0.192-1.357-0.36-2.643&#10;&#9;&#9;&#9;&#9;c-0.168-1.285-0.324-2.535-0.36-2.763c-0.036-0.228-0.156-0.937-0.252-1.562c-0.096-0.625-0.228-1.417-0.288-1.742&#10;&#9;&#9;&#9;&#9;c-0.072-0.336-0.204-1.093-0.3-1.682c-0.096-0.601-0.312-1.754-0.48-2.582c-0.168-0.829-0.312-1.61-0.336-1.742&#10;&#9;&#9;&#9;&#9;c-1.021-5.465-3.051-13.706-5.321-21.537c-1.478-5.141-4.408-13.597-5.345-15.447c-0.132-0.252-0.204-0.505-0.144-0.552&#10;&#9;&#9;&#9;&#9;c0.048-0.048,0.589-0.3,1.177-0.565c0.601-0.276,1.573-0.709,2.162-0.973c4.925-2.222,15.82-5.982,22.282-7.7&#10;&#9;&#9;&#9;&#9;c1.021-0.276,2.162-0.589,2.522-0.697c0.36-0.108,0.745-0.216,0.841-0.228c0.096-0.024,1.021-0.228,2.042-0.468&#10;&#9;&#9;&#9;&#9;c1.598-0.372,3.003-0.661,6.066-1.261c1.742-0.336,5.682-0.901,7.928-1.141c3.327-0.348,4.505-0.444,7.339-0.528&#10;&#9;&#9;&#9;&#9;C142.723,69.294,142.927,69.294,143.467,69.51z"/>
            <path style="fill:#7487A3;" d="M124.416,65.018l1.321-0.204l0.036-0.36c0.024-0.192,0.012-0.637-0.036-0.985&#10;&#9;&#9;&#9;&#9;c-0.096-0.757,0.168-0.721-2.643-0.324c-7.063,0.997-10.835,1.862-16.276,3.724c-1.754,0.589-3.135,1.105-3.219,1.189&#10;&#9;&#9;&#9;&#9;c-0.024,0.012,0.156,0.36,0.396,0.757c0.228,0.396,0.42,0.817,0.42,0.925c0,0.108,0.048,0.168,0.108,0.132&#10;&#9;&#9;&#9;&#9;c0.06-0.048,0.132-0.012,0.156,0.06c0.036,0.096,0.673-0.084,1.838-0.492c3.243-1.141,7.327-2.39,9.069-2.763&#10;&#9;&#9;&#9;&#9;c0.565-0.12,1.646-0.36,2.402-0.517C119.407,65.846,122.074,65.366,124.416,65.018z"/>
            <path style="fill:#993558;" d="M145.714,189.69c-0.084,0.012-0.505,0.06-0.937,0.12c-3.003,0.372-13.393,0.793-16.516,0.661&#10;&#9;&#9;&#9;&#9;c-0.985-0.036-2.535-0.108-3.423-0.144c-0.889-0.036-2.318-0.144-3.171-0.24c-1.057-0.12-1.574-0.144-1.634-0.06&#10;&#9;&#9;&#9;&#9;c-0.108,0.18-0.396,1.946-0.324,2.018c0.036,0.024,0.805,0.096,1.73,0.156c0.913,0.06,2.138,0.144,2.715,0.18&#10;&#9;&#9;&#9;&#9;c1.958,0.12,13.345,0.168,14.979,0.06c0.889-0.06,2.402-0.228,3.363-0.36c0.961-0.132,2.09-0.276,2.522-0.324l0.781-0.096&#10;&#9;&#9;&#9;&#9;l0.036-0.997C145.858,189.918,145.834,189.678,145.714,189.69z"/>
            <path style="fill:#993558;" d="M91.359,71.732c-0.36-0.18-0.516-0.168-0.997,0.096c-0.372,0.192-0.42,0.276-0.384,0.625&#10;&#9;&#9;&#9;&#9;c0.072,0.636,0.348,1.177,0.673,1.321c0.601,0.276,1.405-0.36,1.393-1.117C92.032,72.345,91.732,71.937,91.359,71.732z"/>
            <path style="fill:#FFFFFF;" d="M126.262,105.387c-0.27,1.94-0.8,3.77-1.6,5.37c-1.12,2.25-2.27,3.41-3.85,3.91&#10;&#9;&#9;&#9;&#9;c-2,0.62-4.8-0.36-6.69-2.34c-2.12-2.22-3.76-5.81-4.1-8.97c-0.22-2.09-0.22-4.84,0-5.99c0.06-0.29,0.13-0.6,0.22-0.94&#10;&#9;&#9;&#9;&#9;c0.56-2.03,1.69-4.7,2.62-6.07c0.51-0.75,1.75-1.91,2.52-2.35c1.24-0.7,2.61-0.92,3.9-0.58c1.27,0.33,2.4,1.09,3.41,2.27&#10;&#9;&#9;&#9;&#9;c1.16,1.38,1.82,2.63,2.57,4.88C126.442,98.147,126.772,101.947,126.262,105.387z"/>
            <path style="fill:#FFFFFF;" d="M143.042,104.957c-0.44,1.79-1.12,3.43-2.01,4.81c-0.59,0.92-2.13,2.49-2.84,2.89&#10;&#9;&#9;&#9;&#9;c-1.45,0.83-3.24,0.78-4.98-0.14c-0.87-0.47-2.22-1.76-2.89-2.75c-1.02-1.52-1.94-3.66-2.42-5.61c-0.26-1.03-0.33-1.6-0.39-2.93&#10;&#9;&#9;&#9;&#9;c-0.03-0.91-0.09-1.82-0.13-2.02c-0.05-0.21-0.08-1.41-0.08-2.67v-0.61c0-1.65,0.03-1.84,0.33-3.02c1.05-4.09,2.64-6.28,5.2-7.08&#10;&#9;&#9;&#9;&#9;c0.6-0.2,1.66-0.19,2.44,0.02c2.31,0.58,5.04,3.06,6.5,5.9c1.12,2.15,1.72,4.59,1.84,7.4&#10;&#9;&#9;&#9;&#9;C143.692,101.147,143.492,103.127,143.042,104.957z"/>
            <path style="fill-rule:evenodd;clip-rule:evenodd;fill:#DDE5F0;" d="M126.262,105.387c-0.2-1.87-0.47-3.73-1.01-5.53&#10;&#9;&#9;&#9;&#9;c-0.72-2.37-1.98-4.65-3.93-6.18c-1.95-1.54-4.67-2.22-7-1.38c-1.88,0.68-3.32,2.27-4.08,4.13c0.56-2.03,1.69-4.7,2.62-6.07&#10;&#9;&#9;&#9;&#9;c0.51-0.75,1.75-1.91,2.52-2.35c1.24-0.7,2.61-0.92,3.9-0.58c1.27,0.33,2.4,1.09,3.41,2.27c1.16,1.38,1.82,2.63,2.57,4.88&#10;&#9;&#9;&#9;&#9;C126.442,98.147,126.772,101.947,126.262,105.387z"/>
            <path style="fill-rule:evenodd;clip-rule:evenodd;fill:#DDE5F0;" d="M143.042,104.957c-0.19-1.73-0.46-3.44-0.97-5.1&#10;&#9;&#9;&#9;&#9;c-0.72-2.37-1.98-4.65-3.93-6.18c-1.95-1.54-4.66-2.22-7-1.38c-1.7,0.62-3.05,1.99-3.84,3.63c0-1.65,0.03-1.84,0.33-3.02&#10;&#9;&#9;&#9;&#9;c1.05-4.09,2.64-6.28,5.2-7.08c0.6-0.2,1.66-0.19,2.44,0.02c2.31,0.58,5.04,3.06,6.5,5.9c1.12,2.15,1.72,4.59,1.84,7.4&#10;&#9;&#9;&#9;&#9;C143.692,101.147,143.492,103.127,143.042,104.957z"/>
            <path style="fill-rule:evenodd;clip-rule:evenodd;fill:#30304A;" d="M122.554,62.063c-7.375,0.769-13.85,2.354-18.45,4.541&#10;&#9;&#9;&#9;&#9;c-1.165,0.565-1.345,0.685-1.478,1.033c-0.072,0.216-0.132,0.493-0.132,0.613c0,0.276,1.585,2.667,1.934,2.919&#10;&#9;&#9;&#9;&#9;c0.264,0.18,0.3,0.168,0.589-0.096c0.517-0.468,6.835-2.33,11.832-3.471c1.249-0.288,2.571-0.553,7.135-1.417&#10;&#9;&#9;&#9;&#9;c1.093-0.204,2.102-0.42,2.246-0.468c0.468-0.18,0.625-0.685,0.673-2.09c0.036-1.297,0.036-1.297-0.312-1.586&#10;&#9;&#9;&#9;&#9;C126.194,61.69,126.218,61.69,122.554,62.063z M125.738,63.468c0.048,0.348,0.06,0.793,0.036,0.985l-0.036,0.36l-1.321,0.204&#10;&#9;&#9;&#9;&#9;c-2.342,0.348-5.009,0.829-6.426,1.141c-0.757,0.156-1.838,0.396-2.402,0.517c-1.742,0.372-5.826,1.622-9.069,2.763&#10;&#9;&#9;&#9;&#9;c-1.165,0.408-1.802,0.589-1.838,0.492c-0.024-0.072-0.096-0.108-0.156-0.06c-0.06,0.036-0.108-0.024-0.108-0.132&#10;&#9;&#9;&#9;&#9;s-0.192-0.529-0.42-0.925c-0.24-0.396-0.42-0.745-0.396-0.757c0.084-0.084,1.465-0.601,3.219-1.189&#10;&#9;&#9;&#9;&#9;c5.441-1.862,9.213-2.727,16.276-3.724C125.906,62.748,125.642,62.711,125.738,63.468z"/>
            <path style="fill-rule:evenodd;clip-rule:evenodd;fill:#30304A;" d="M132.491,84.693c-0.799,0.245-1.939,0.906-2.685,1.577&#10;&#9;&#9;&#9;&#9;c-0.927,0.831-2.035,2.418-2.035,2.898c0,0.128-0.043,0.234-0.096,0.234c-0.053,0-0.202,0.277-0.33,0.607&#10;&#9;&#9;&#9;&#9;c-0.234,0.629-0.927,3.366-0.98,3.91c-0.021,0.245-0.106,0.107-0.447-0.746c-0.543-1.374-0.895-2.088-1.502-2.983&#10;&#9;&#9;&#9;&#9;c-0.575-0.842-1.907-2.248-2.589-2.717c-2.003-1.406-4.474-1.662-6.435-0.671c-1.225,0.618-2.578,1.822-3.388,3.015&#10;&#9;&#9;&#9;&#9;c-1.161,1.715-2.376,4.975-2.77,7.415c-0.256,1.555-0.064,5.668,0.32,6.925c0.053,0.171,0.224,0.938,0.362,1.705&#10;&#9;&#9;&#9;&#9;c0.416,2.173,1.065,3.846,2.141,5.54c1.79,2.813,5.135,4.677,8.064,4.506c2.791-0.171,4.922-2.397,6.349-6.637&#10;&#9;&#9;&#9;&#9;c0.416-1.215,0.767-2.663,0.767-3.143c0-0.383,0.181-0.224,0.32,0.288c0.138,0.479,0.33,0.948,1.012,2.429&#10;&#9;&#9;&#9;&#9;c0.714,1.555,2.322,3.441,3.643,4.293c2.291,1.47,4.688,1.555,6.701,0.245c2.323-1.491,4.059-4.187,5.092-7.873&#10;&#9;&#9;&#9;&#9;c0.629-2.237,0.756-3.196,0.756-5.881c0-2.855-0.117-3.633-0.895-6.254c-0.969-3.271-3.654-6.584-6.477-8.011&#10;&#9;&#9;&#9;&#9;c-1.225-0.618-1.811-0.778-3.068-0.82C133.407,84.511,133.002,84.544,132.491,84.693z M135.271,85.843&#10;&#9;&#9;&#9;&#9;c2.312,0.586,5.039,3.068,6.498,5.902c1.119,2.152,1.726,4.591,1.843,7.404c0.16,3.952-0.778,7.819-2.578,10.621&#10;&#9;&#9;&#9;&#9;c-0.596,0.916-2.131,2.482-2.844,2.887c-1.449,0.831-3.239,0.778-4.975-0.139c-0.874-0.469-2.227-1.758-2.898-2.748&#10;&#9;&#9;&#9;&#9;c-1.012-1.523-1.939-3.665-2.418-5.614c-0.256-1.033-0.33-1.598-0.384-2.93c-0.032-0.906-0.096-1.822-0.138-2.024&#10;&#9;&#9;&#9;&#9;c-0.043-0.202-0.075-1.406-0.075-2.663c-0.011-2.237,0-2.322,0.33-3.633c1.044-4.091,2.642-6.275,5.199-7.085&#10;&#9;&#9;&#9;&#9;C133.428,85.63,134.494,85.641,135.271,85.843z M119.281,87.43c1.268,0.33,2.397,1.087,3.409,2.269&#10;&#9;&#9;&#9;&#9;c1.161,1.374,1.822,2.631,2.567,4.879c1.843,5.582,1.619,11.729-0.597,16.182c-1.119,2.248-2.269,3.409-3.846,3.91&#10;&#9;&#9;&#9;&#9;c-2.003,0.618-4.805-0.362-6.69-2.344c-2.12-2.216-3.761-5.806-4.102-8.97c-0.224-2.088-0.224-4.837,0-5.987&#10;&#9;&#9;&#9;&#9;c0.394-2.067,1.758-5.423,2.834-7.01c0.511-0.756,1.758-1.918,2.525-2.354C116.617,87.303,117.992,87.09,119.281,87.43z"/>
            <path style="fill-rule:evenodd;clip-rule:evenodd;fill:#30304A;" d="M89.918,70.988c-0.613,0.444-0.877,1.093-0.877,2.126&#10;&#9;&#9;&#9;&#9;c0,1.153,0.48,1.886,1.381,2.09c1.585,0.36,3.267-1.586,2.643-3.075C92.489,70.735,91.011,70.195,89.918,70.988z M91.359,71.732&#10;&#9;&#9;&#9;&#9;c0.372,0.204,0.673,0.613,0.685,0.925c0.012,0.757-0.793,1.393-1.393,1.117c-0.324-0.144-0.601-0.685-0.673-1.321&#10;&#9;&#9;&#9;&#9;c-0.036-0.348,0.012-0.433,0.384-0.625C90.843,71.564,90.999,71.552,91.359,71.732z"/>
            <path style="fill-rule:evenodd;clip-rule:evenodd;fill:#30304A;" d="M144.152,188.489c-0.745,0.048-2.739,0.168-4.42,0.276&#10;&#9;&#9;&#9;&#9;c-3.327,0.216-11.676,0.312-14.715,0.168c-5.49-0.264-5.381-0.264-5.718,0c-0.168,0.132-0.372,0.456-0.444,0.721&#10;&#9;&#9;&#9;&#9;c-0.156,0.517-0.192,2.535-0.048,2.727c0.589,0.817,3.952,1.321,9.754,1.478c5.117,0.144,10.21,0,13.453-0.396&#10;&#9;&#9;&#9;&#9;c1.333-0.168,2.51-0.372,3.868-0.673c0.685-0.156,0.877-0.492,1.129-1.946c0.156-0.853,0.144-1.045-0.012-1.61&#10;&#9;&#9;&#9;&#9;c-0.204-0.709-0.457-0.901-1.081-0.853C145.69,188.405,144.885,188.453,144.152,188.489z M145.834,190.663l-0.036,0.997&#10;&#9;&#9;&#9;&#9;l-0.781,0.096c-0.432,0.048-1.562,0.192-2.522,0.324c-0.961,0.132-2.475,0.3-3.363,0.36c-1.634,0.108-13.021,0.06-14.979-0.06&#10;&#9;&#9;&#9;&#9;c-0.576-0.036-1.802-0.12-2.715-0.18c-0.925-0.06-1.694-0.132-1.73-0.156c-0.072-0.072,0.216-1.838,0.324-2.018&#10;&#9;&#9;&#9;&#9;c0.06-0.084,0.577-0.06,1.634,0.06c0.853,0.096,2.282,0.204,3.171,0.24c0.889,0.036,2.438,0.108,3.423,0.144&#10;&#9;&#9;&#9;&#9;c3.123,0.132,13.514-0.288,16.516-0.661c0.432-0.06,0.853-0.108,0.937-0.12C145.834,189.678,145.858,189.918,145.834,190.663z"/>
            <path style="fill-rule:evenodd;clip-rule:evenodd;fill:#30304A;" d="M135.111,77.832c-0.82,0.32-1.31,0.639-1.918,1.257&#10;&#9;&#9;&#9;&#9;c-0.714,0.724-0.916,1.097-0.724,1.321c0.192,0.234,0.437,0.181,0.927-0.224c0.714-0.565,1.534-0.831,2.365-0.767&#10;&#9;&#9;&#9;&#9;c0.383,0.021,0.863,0.117,1.065,0.224c0.394,0.181,1.768,1.183,3.09,2.248c1.246,1.001,1.736,1.332,2.088,1.396&#10;&#9;&#9;&#9;&#9;c0.788,0.149,1.023-0.448,0.49-1.193c-0.597-0.81-3.75-3.505-4.741-4.048c-0.447-0.245-0.714-0.298-1.406-0.33&#10;&#9;&#9;&#9;&#9;C135.804,77.693,135.357,77.736,135.111,77.832z"/>
            <path style="fill-rule:evenodd;clip-rule:evenodd;fill:#30304A;" d="M115.243,79.632c-0.352,0.138-0.81,0.373-1.012,0.533&#10;&#9;&#9;&#9;&#9;c-0.437,0.33-3.473,3.494-3.739,3.899c-0.426,0.628-0.085,1.268,0.597,1.14c0.469-0.085,1.044-0.554,2.727-2.195&#10;&#9;&#9;&#9;&#9;c2.12-2.088,2.621-2.418,3.388-2.28c0.565,0.106,0.863,0.277,1.406,0.842c0.618,0.629,1.108,0.938,1.374,0.852&#10;&#9;&#9;&#9;&#9;c0.309-0.096,0.383-0.437,0.16-0.778c-0.341-0.533-1.555-1.619-2.141-1.896C117.171,79.345,116.127,79.302,115.243,79.632z"/>
            <path style="fill-rule:evenodd;clip-rule:evenodd;fill:#30304A;" d="M137.199,96.059c-0.635-0.854-1.638-1.678-2.363-1.956&#10;&#9;&#9;&#9;&#9;c-0.616-0.238-1.648-0.288-2.413-0.109c-0.903,0.209-1.747,0.854-2.512,1.906c-0.695,0.943-1.142,1.857-1.36,2.74&#10;&#9;&#9;&#9;&#9;c-0.278,1.082-0.248,3.813,0.05,5.093c0.119,0.516,0.248,1.191,0.278,1.489c0.079,0.606,0.735,2.006,1.321,2.78&#10;&#9;&#9;&#9;&#9;c1.39,1.817,3.842,2.204,5.828,0.913c0.784-0.506,1.33-1.052,1.886-1.877C139.869,104.18,139.552,99.206,137.199,96.059z&#10;&#9;&#9;&#9;&#9; M134.101,106.126c-0.129,0.566-0.337,1.172-0.804,1.519c-0.467,0.338-1.142,0.338-1.628,0.04&#10;&#9;&#9;&#9;&#9;c-1.102-0.655-1.311-2.631-0.983-3.723c0.218-0.774,0.874-1.469,1.678-1.489c0.784-0.03,1.469,0.606,1.727,1.34&#10;&#9;&#9;&#9;&#9;C134.349,104.548,134.27,105.362,134.101,106.126z"/>
            <path style="fill-rule:evenodd;clip-rule:evenodd;fill:#30304A;" d="M120.301,98.799c-0.645-0.854-1.638-1.678-2.363-1.956&#10;&#9;&#9;&#9;&#9;c-0.625-0.238-1.658-0.288-2.413-0.109c-0.903,0.218-1.747,0.854-2.512,1.906c-0.695,0.953-1.142,1.857-1.36,2.74&#10;&#9;&#9;&#9;&#9;c-0.278,1.082-0.248,3.813,0.05,5.093c0.119,0.516,0.248,1.191,0.278,1.489c0.07,0.606,0.735,2.006,1.32,2.78&#10;&#9;&#9;&#9;&#9;c1.38,1.827,3.842,2.204,5.828,0.913c0.784-0.506,1.33-1.052,1.886-1.867C122.972,106.92,122.654,101.946,120.301,98.799z&#10;&#9;&#9;&#9;&#9; M117.054,108.846c-0.129,0.566-0.328,1.172-0.804,1.509c-0.467,0.347-1.132,0.347-1.628,0.05&#10;&#9;&#9;&#9;&#9;c-1.092-0.655-1.301-2.631-0.983-3.733c0.228-0.765,0.884-1.46,1.678-1.489c0.784-0.02,1.469,0.616,1.737,1.35&#10;&#9;&#9;&#9;&#9;C117.313,107.268,117.223,108.082,117.054,108.846z"/>
            <path style="fill-rule:evenodd;clip-rule:evenodd;fill:#30304A;" d="M105.549,105.754c-0.352,0.234-2.035,2.983-2.557,4.155&#10;&#9;&#9;&#9;&#9;c-0.309,0.724-0.277,1.172,0.128,1.353c0.352,0.17,0.66-0.021,1.044-0.618c0.17-0.266,0.341-0.447,0.383-0.394&#10;&#9;&#9;&#9;&#9;c0.043,0.043,0.383,0.565,0.767,1.15c0.874,1.364,1.918,2.642,3.462,4.293c2.951,3.143,7.766,6.2,11.111,7.052&#10;&#9;&#9;&#9;&#9;c2.503,0.639,3.292,0.756,5.54,0.82c2.408,0.064,3.856-0.075,5.678-0.554c2.354-0.607,5.945-2.301,6.775-3.185&#10;&#9;&#9;&#9;&#9;c0.266-0.277,0.245-0.554-0.043-0.66c-0.085-0.032-0.916,0.298-1.832,0.735c-4.346,2.045-7.542,2.578-11.91,1.939&#10;&#9;&#9;&#9;&#9;c-6.339-0.916-12.368-4.783-16.747-10.76c-0.426-0.586-1.023-1.406-1.332-1.811l-0.543-0.746l0.394-1.119&#10;&#9;&#9;&#9;&#9;c0.437-1.268,0.469-1.545,0.181-1.705C105.783,105.562,105.804,105.562,105.549,105.754z"/>
            <path style="fill-rule:evenodd;clip-rule:evenodd;fill:#30304A;" d="M116.926,123.993c-0.309,0.575,0.884,1.492,3.089,2.365&#10;&#9;&#9;&#9;&#9;c1.428,0.565,2.642,0.756,5.252,0.831c2.226,0.053,2.354,0.053,2.599-0.149c0.202-0.16,0.245-0.266,0.181-0.49&#10;&#9;&#9;&#9;&#9;c-0.085-0.373-0.447-0.458-2.567-0.607c-3.228-0.224-4.911-0.607-6.818-1.555C117.416,123.779,117.075,123.694,116.926,123.993z"/>
            <path style="fill:#7487A3;" d="M208.8,81.473c0.384-0.312,1.213-0.829,1.85-1.153c1.057-0.553,1.153-0.625,1.345-1.141&#10;&#9;&#9;&#9;&#9;c0.3-0.769,0.3-1.946,0-2.282c-0.697-0.769-2.607,0.348-3.856,2.27c-0.829,1.261-1.045,2.342-0.553,2.727&#10;&#9;&#9;&#9;&#9;C207.9,82.133,208.056,82.074,208.8,81.473z"/>
            <path style="fill:#7487A3;" d="M209.569,87.539c-0.132,0.505,0.012,0.552,1.405,0.468c1.225-0.084,1.297-0.072,1.43,0.168&#10;&#9;&#9;&#9;&#9;c0.108,0.204,0.156,0.216,0.288,0.096c0.096-0.084,0.54-0.468,1.009-0.853c1.429-1.177,2.258-2.498,1.946-3.087&#10;&#9;&#9;&#9;&#9;c-0.108-0.192-0.24-0.24-0.757-0.24c-1.105,0.012-2.294,0.541-3.64,1.646C210.326,86.494,209.653,87.215,209.569,87.539z"/>
            <path style="fill:#7487A3;" d="M208.596,83.503c-0.06,0.288-0.084,0.625-0.06,0.757c0.06,0.24,1.045,0.913,1.333,0.913&#10;&#9;&#9;&#9;&#9;c0.168,0,0.985-0.505,1.309-0.817c0.096-0.084,0.601-0.36,1.141-0.613c0.949-0.456,1.766-1.153,2.294-1.934&#10;&#9;&#9;&#9;&#9;c0.264-0.396,0.252-1.165-0.012-1.297C213.077,79.731,208.945,81.785,208.596,83.503z"/>
          </g>
        </g>
      </g>
    </g>
  </g>
</svg>