<?xml version="1.0" encoding="utf-8"?>
<!-- Generator: Adobe Illustrator 27.5.0, SVG Export Plug-In . SVG Version: 6.00 Build 0)  -->
<svg version="1.1" id="Layer_1" xmlns="http://www.w3.org/2000/svg" xmlns:xlink="http://www.w3.org/1999/xlink" x="0px" y="0px"
	 viewBox="0 0 4000 2663" style="enable-background:new 0 0 4000 2663;" xml:space="preserve">
<rect style="fill:#FFFFFF;" width="4000" height="2663"/>
<g>
	<path d="M2142.332,2333.13c0.125,6.555-0.125,13.174-7.465,15.588c-7.873,2.572-14.773,0.094-19.478-6.932
		c-6.367-9.504-6.68-19.76-2.352-31.679c-15.651,5.426-15.745-4.297-15.777-14.303c0-8.218,0.188-16.372,2.352-24.59
		c-11.762,2.258-12.42,2.258-12.734-10.225c-0.282-11.668,0.972-23.367,1.568-35.16c-5.363-1.349-5.583,5.144-11.135,5.709
		c-1.223-17.471,2.415-34.376,6.179-51.376c-5.176-0.533-6.618,4.548-11.762,5.332c-0.534-21.328,8.656-40.774,11.855-62.385
		c-7.559,2.039-9.911,8.845-16.247,11.449c0.251-25.531,6.775-49.588,11.825-73.896c4.987-23.932,9.755-47.863,11.699-74.367
		c-14.647,11.072-27.068,21.83-46.64,25.029c5.991-4.736,9.88-7.622,13.581-10.758c7.245-6.179,12.044-14.083,11.009-23.618
		c-6.366-58.402,10.414-113.385,24.434-168.776c9.661-38.046,17.659-76.374,16.122-115.925c-0.44-11.198,7.339-15.275,14.522-20.324
		c7.904-1.38,10.099,3.23,11.26,9.911c5.677,32.495,7.998,65.302,8.782,98.204c1.317,56.959-1.444,113.604-13.864,169.434
		c-0.501,2.29,1.851,6.68-4.673,4.077c-5.238-2.07-2.823,3.889-2.791,5.991c0.157,19.572,4.078,38.799,4.925,58.966
		c-7.183-13.456-14.334-26.88-22.144-41.496c-3.732,8.029-3.262,14.741-3.419,21.297c-1.097,42.312,0.564,84.936-4.266,126.809
		c-1.944,16.843,1.788,33.498-2.29,49.902c-1.787,7.214,2.729,13.613,3.545,20.481c2.352,20.105,8.124,39.552,11.887,59.155
		c3.293,17.345,16.498,31.052,14.93,49.275c-0.314,3.512,3.387,3.921,5.364,5.583
		C2138.38,2315.754,2142.113,2323.532,2142.332,2333.13z"/>
	<path d="M2108.181,1702.458c2.742-19.787-16.344-37.15-27.965-51.11c-14.147-16.995-30.411-32.071-45.874-47.832
		c-31.02-31.616-54.606-66.776-54.449-113.353c0.031-3.419-1.067-5.583-4.548-7.182c-21.485-9.912-25.657-29.233-25.563-49.996
		c0.063-16.467-2.603-32.526-10.319-46.985c-5.018-9.44-7.433-19.665-10.194-31.71c-2.823,9.472-4.924,17.47-7.559,25.249
		c-2.321,6.869-6.116,12.985-13.33,15.526c-6.994,2.447-6.775,6.68-5.395,12.86c4.723,21.137,0.262,37.078,2.179,57.975
		c1.999,21.783,1.714,44.7-8.591,64.57c-5.519,10.642-13.653,19.867-18.247,30.94c-5.536,13.344-0.391,21.964,1.98,34.779
		c2.428,13.123,0.979,28.367-0.421,41.531c-3.122,29.35-12.052,57.857-23.172,85.088
		c-46.004,112.643-130.267,209.257-235.612,270.144c-42.823,24.751-90.455,44.035-139.917,43.933s-100.905-22.617-125.742-65.391
		c-22.486-38.725-20.338-86.642-14.501-131.04c12.488-94.984,39.498-189.52,91.644-269.886
		c28.556-44.009,64.925-83.256,107.625-113.845c39.415-28.236,89.366-56.741,138.953-52.844c2.792,0.219,7.183,1.349,7.935-2.729
		c0.596-3.042-2.509-5.395-4.956-7.465c-2.886-2.446-6.273-3.23-9.786-3.45c-72.234-4.297-136.814-31.396-198.792-66.274
		c-4.799-2.697-10.131-4.517-14.585-7.622c-20.293-14.083-41.622-9.943-63.263-4.642c-4.893,1.192-5.489,4.83-7.528,8.03
		c-37.011,58.182-68.344,119.72-104.916,178.185c-12.766,20.387-28.479,38.265-47.173,53.603
		c-19.415,15.965-19.635,17.533-12.765,41.778c-14.114-12.797-13.236-30.675-19.791-49.212
		c-7.904,22.74-15.307,42.374-21.517,62.353c-6.053,19.415-14.773,37.921-18.913,57.963c-0.219,0.972-0.721,2.384-1.474,2.666
		c-11.731,4.516-11.825,4.61-12.797,17.188c-0.188,2.635-0.408,5.301-0.69,9.127c-7.277-6.367-5.144-16.215-11.511-22.677
		c-6.712,19.321-12.86,38.015-22.583,55.83c-5.991-3.575-3.356-11.479-9.033-14.867c-6.179,16.843-10.006,34.596-20.074,49.933
		c-5.99-1.286-3.262-9.597-9.253-10.978c-3.858,2.164-3.325,6.461-4.391,10.006c-2.697,8.97-4.799,18.161-10.79,25.814
		c-4.14,5.332-7.496,7.966-11.887,0.063c-3.858-6.932-6.9-4.109-9.221,1.568c-2.384,5.802-5.426,11.26-9.472,16.122
		c-5.175,6.21-10.57,9.755-17.595,2.697c-3.89-3.889-6.273-2.823-8.845,1.694c-3.293,5.834-7.81,10.821-13.706,14.24
		c-6.336,3.639-12.86,3.67-18.819-0.596c-5.395-3.889-8.594-9.19-7.371-16.184c1.254-7.057,6.179-10.602,12.672-12.296
		c2.634-0.69,5.332-1.223,8.029-1.693c8.28-1.412,17.439-0.909,22.143-10.194c0.314-0.627,1.192-1.192,1.882-1.318
		c20.042-3.45,32.776-18.788,46.42-31.114c17.188-15.494,34.533-31.648,45.981-52.568c2.038-3.701,5.458-6.618,8.28-9.88
		c9.975-11.511,20.231-22.833,27.727-36.321c-4.234-4.203-8.5,1.725-13.236-1.694c30.675-37.889,58.308-77.754,77.221-123.798
		c-13.675,3.67-25.406,10.288-38.077,15.369c5.05-5.677,9.441-12.232,15.306-16.906c13.864-10.978,15.369-29.044,25.845-42.155
		c46.671-58.465,101.56-108.774,156.512-159.052c9.943-9.096,20.45-16.906,24.904-31.177c4.203-13.33,17.125-19.509,30.205-17.909
		c39.269,4.799,79.04,3.356,118.121,10.57c66.306,12.201,128.503,34.125,183.36,74.273c8.72,6.367,18.035,4.422,26.692,2.038
		c15.682-4.328,31.02-4.83,46.044,1.224c7.183,2.854,9.849,0.941,10.915-5.991c3.952-26.158,20.262-43.252,44.13-57.869
		c-14.365-2.478-25.123-8.061-33.498-17.784c-0.878-1.035-3.732-0.973-5.52-0.596c-14.428,3.105-26.88-2.196-39.206-8.751
		c-46.044-24.465-81.11-61.005-112.35-101.811c-17.407-22.74-33.309-46.483-47.895-71.105c-3.795-6.461-8.249-8.468-15.714-9.441
		c-18.631-2.415-33.529,4.14-47.737,15.055c-19.039,14.648-35.536,31.961-52.787,48.49c-18.349,17.627-39.677,29.075-64.706,33.435
		c-7.904,1.38-13.989,4.642-15.62,13.769c-3.858-13.738,5.301-24.214,7.465-38.548c-25.374,24.308-57.649,37.575-75.088,67.937
		c-4.171-2.698-2.07-9.315-5.52-14.146c-6.242,4.234-12.546,8.532-20.324,13.801c0.847-6.524,6.493-9.158,6.399-16.184
		c-13.236,6.304-27.758,6.398-39.739,15.055c-7.591,5.489-15.118,15.776-25.594,3.23c-2.227-2.697-4.799,0.941-6.649,2.76
		c-6.461,6.305-14.334,9.441-23.117,10.507c-3.544,0.439-7.747,0.972-9.284-3.011c-4.14-10.727-9.817-6.022-16.184-2.478
		c-17.502,9.755-23.336,8.688-33.718-7.089c-3.419-5.175-5.771-2.415-8.312-0.408c-6.806,5.458-14.459,5.771-22.3,3.921
		c-9.41-2.227-14.554-11.354-12.139-20.952c2.447-9.755,9.974-12.797,18.066-9.598c19.227,7.59,39.615,10.037,59.562,11.825
		c17.408,1.568,35.631,2.76,53.446-2.258c11.166-3.168,23.304-2.604,34.816-4.799c22.74-4.36,40.398-20.168,61.695-28.26
		c20.419-7.716,40.837-16.341,57.43-31.396c4.203-3.795,11.73-6.744,1.537-13.205c-4.987-3.136-0.251-6.179,3.042-8.657
		c24.935-18.85,52.976-31.836,81.988-42.845c19.791-7.559,40.022-13.644,60.974-17.126c5.771-0.941,11.322-2.697,16.748-5.206
		c9.253-4.297,18.819-4.391,28.417-0.063c34.847,15.651,66.181,36.791,94.911,61.789c34.031,29.64,66.682,60.66,95.35,95.632
		c4.203,5.144,8.594,10.288,11.918,15.965c6.242,10.664,11.48,20.857,27.382,18.725c9.253-1.223,17.314,6.21,28.041,11.511
		c-2.258-33.372,8.751-61.318,31.208-85.344c-12.076-4.768-23.022-8.72-24.747-22.301c-0.282-2.258-1.881-3.042-3.921-3.67
		c-19.383-5.991-30.236-21.673-40.963-37.073c-26.096-37.45-41.966-79.51-54.23-123.108c-8.061-28.636-16.247-57.241-23.963-85.972
		c-2.572-9.597-7.621-13.33-17.752-14.553c-33.812-4.015-65.271-15.902-95.381-31.491c-12.546-6.524-18.568-20.921-29.985-26.065
		c-0.878-2.76-2.446-5.52-4.956-8.155c-2.447-2.572-5.426-4.579-8.657-6.21c0.847-2.007,1.098-4.266,0.69-6.775
		c-2.29-13.487-14.177-21.422-15.274-33.341c-0.91-10.194-7.685-16.216-10.508-24.277c-4.516-12.922-8.5-26.378-11.605-39.489
		c-2.195-9.315-2.133-19.29-6.869-28.543c-3.701-7.214-2.039-14.647,4.705-20.01c5.143-4.109,10.758-4.83,16.278-0.91
		c7.12,5.019,8.5,12.201,5.395,19.76c-2.948,7.276-3.293,13.205,2.227,19.729c3.576,4.234,3.105,10.538,1.945,15.933
		c-1.13,5.176-1.255,9.096,2.979,13.456c8.03,8.249,0.063,22.081,6.995,29.076c8.249,8.343,11.511,16.843,12.358,27.758
		c0.753,9.315,12.076,13.643,12.327,23.524c1.066-0.063,2.384,0.282,3.199-0.22c12.86-7.935,26.096-4.203,38.579,0.031
		c36.885,12.515,72.422,27.789,100.964,55.579c1.317,1.317,3.23,2.886,4.861,2.854c15.432-0.282,20.733,11.26,27.539,22.049
		c31.553,50.216,59.656,102.188,78.444,158.645c9.252,27.821,17.972,55.987,17.408,85.846c-0.094,4.14,0.847,5.489,4.83,5.928
		c3.042,0.345,6.869,0.941,8.782,2.948c14.334,14.961,29.484,6.242,44.695,2.321c5.709-1.443,6.556-3.764,5.364-9.034
		c-5.66-25.1-6.697-48.212-2.36-74.022c4.466-26.584,15.446-52.106,32.015-73.397c21.952-28.207,53.522-48.757,88.111-57.687
		c36.485-9.419,77.443,2.514,107.718,24.569c-6.712-13.738-13.581-27.005-19.226-40.869c-12.107-29.828-18.537-59.939-4.172-91.021
		c10.476-22.646,26.723-39.394,49.902-49.023c5.489-2.29,9.723-5.301,13.456-10.413c15.62-21.423,64.77-26.221,84.529-8.312
		c3.702,3.387,6.994,2.792,10.633,2.635c31.145-1.317,60.754,4.392,88.229,19.54c3.199,1.757,5.803,2.447,8.406-0.219
		c10.319-10.57,24.182-15.839,35.882-24.277c10.727-7.716,11.668-11.793,3.45-21.987c-27.539-34.188-56.018-67.591-82.993-102.156
		c-19.039-24.402-36.383-50.121-54.168-75.433c-6.084-8.657-11.668-17.784-10.664-29.201c0.126-1.505,0.251-2.728,0.408-3.732
		c-0.879-1.913-0.345-4.736,2.101-8.939c13.079-22.646,29.985-41.151,53.572-51.627c5.708-2.478,12.608-5.206,17.94-2.509
		c1.237-10.464,11.5-18.443,19.993-23.246c5.427-3.069,11.303-5.407,17.385-6.796c2.949-0.674,5.956-1.121,8.979-1.265
		c1.46-0.069,2.907-0.027,4.366,0.017c1.852,0.055,1.418-1.441,1.769-3.01c1.796-8.035,7.338-15.198,14.757-18.809
		c4.543-2.211,9.709-3.044,14.726-2.546c2.544,0.253,5.055,0.847,7.436,1.781c1.218,0.478,2.42,1.035,3.545,1.703
		c0.713,0.423,1.833,2.12,2.675,1.941c1.029-0.219,0.878-1.926,0.975-2.716c2.353-19.257,14.429-29.795,35.035-29.701
		c7.496,0.031,12.546-1.662,16.059-8.218c4.485-8.469,12.703-12.138,22.364-13.048c5.927-0.564,11.134-1.254,13.957-7.622
		c5.332-11.762,16.059-16.749,28.887-17.596c6.744-0.439,11.009-2.635,15.212-7.935c11.072-14.052,32.399-19.352,48.208-13.205
		c13.456,5.238,18.788,17.219,13.33,29.954c-5.74,13.299-23.524,24.025-38.611,24.402c-7.935,0.188-5.645-6.524-10.068-10.319
		c0.439,15.557-6.932,25.876-22.175,29.295c-7.277,1.599-16.154,5.363-22.238-3.262c-6.963,22.896-24.967,31.992-45.26,22.834
		c-8.281,21.673-34.69,32.776-47.33,19.916c0.824,0.838-2.854,7.767-3.391,8.765c-5.355,9.953-15.177,16.492-26.268,18.268
		c-3.003,0.481-5.962,0.495-8.991,0.487c-3.112-0.008-4.487,2.662-7.004,4.514c-6.341,4.666-12.853,9.175-19.973,12.582
		c-5.361,2.565-11.085,4.48-16.989,5.274c-2.934,0.394-5.89,0.493-8.843,0.282c-1.234-0.088-4.87-1.167-5.586,0.178
		c-0.876,1.647-0.372,5.744-0.831,7.752c-0.564,2.468-1.367,4.881-2.304,7.231c-1.098,2.729-2.51,5.74-4.548,7.684
		c-14.585,14.02-31.648,22.552-48.083,28.134c0.031,0.094,0.063,0.188,0.094,0.282c26.033,70.195,72.736,125.46,126.213,175.927
		c7.402,6.995,14.553,14.271,19.478,23.399c10.162,18.756,6.242,36.979-10.696,49.964c-13.142,10.099-28.98,15.181-44.093,22.995
		c10.719,7.783,20.963,16.247,30.34,25.615c4.412,4.409,9.874,9.202,13.201,14.511c1.924,3.071,1.473,8.492,4.663,10.701
		c3.832,2.653,10.863-2.119,15.061-3.55c11.763-4.011,23.861-6.911,35.875-10.051c4.799-1.254,7.214-4.077,9.661-7.684
		c24.872-36.697,46.672-75.182,66.997-114.578c5.646-10.943,11.701-20.375,21.852-27.633c4.929-3.525,10.288-6.447,15.918-8.687
		c5.302-2.11,11.502-2.639,16.455-5.412c10.816-6.057,23.167-8.434,35.604-8.262c2.728,0.031,5.646,0.094,8.343,0.69
		c1.976-1.851,4.549-3.481,7.904-4.83c16.875-6.743,34.596-11.448,54.011-12.044c6.381-0.187,13.32-0.798,19.476,1.295
		c3.434,1.169,3.41,2.178,6.78,0.291c2.749-1.539,5.39-3.314,8.074-4.964c2.311-1.421,4.637-2.849,7.162-3.841
		c9.422-3.701,17.937-0.549,26.98,1.819c7.439,1.948,9.607-7.042,13.526-11.552c9.965-11.469,24.558-12.995,38.286-7.857
		c4.705,1.757,7.684,1.349,11.542-1.85c12.577-10.413,26.598-14.522,42.374-7.591c2.886,1.286,5.081,1.38,7.183-1.286
		c5.217-6.619,12.537-10.718,20.922-11.567c3.805-0.385,8.316-0.485,12.061,0.234c4.816,0.924,9.268,3.433,14.258,3.487
		c6.078,0.066,11.469-3.605,16.555-6.934c7.364-4.82,13.882-6.773,22.483-4.422c7.569,2.069,14.699,6.228,19.61,12.427
		c8.406,10.57,5.363,26.064-6.806,34.815c-6.142,4.417-13.833,6.553-21.367,6.311c-7.623-0.245-12.087-3.426-18.401-6.944
		c-6.824-3.803-9.114,3.655-13.731,7.477c-6.167,5.104-15.285,6.14-22.986,5.633c-3.55-0.234-7.914-0.279-11.083-2.049
		c-2.44-1.362-4.639-6.781-7.188-7.182c-2.675-0.42-4.283,6.072-6.036,8.107c-2.578,2.992-5.93,5.317-9.51,6.95
		c-8.649,3.944-19.719,4.068-27.383-2.116c-3.003-2.423-8.112-9.98-10.924-4.135c-1.152,2.395-1.046,5.003-2.55,7.337
		c-1.384,2.147-3.44,3.997-5.489,5.495c-4.113,3.006-9.063,4.641-14.072,5.353c-3.469,0.493-7.014,0.829-10.514,0.47
		c-4.309-0.442-8.215-2.149-11.093-5.447c-1.587-1.819-2.531-3.878-3.718-5.94c-0.883-1.532-3-1.329-4.274-0.146
		c-0.964,0.895-1.002,2.11-1.243,3.308c-0.242,1.205-0.688,2.392-1.222,3.502c-1.776,3.69-4.851,6.541-8.271,8.707
		c-6.172,3.908-14.468,4.866-21.604,5.082c-3.875,0.117-6.017-0.082-9.148-2.104c-2.986-1.93-5.987-3.933-9.742-3.614
		c-3.298,0.28-6.115,2.361-8.926,4.108c-16.301,10.13-36.688,10.428-55.86,9.554c-4.301-0.196-10.537-1.42-14.713-0.084
		c-2.193,0.702-3.97,2.812-5.65,4.28c-1.113,0.973-5.021,5.582-6.385,5.582c-3.148,2.752-5.255,3.346-9.121,3.956
		c-3.453,0.545-6.843,2.245-10.285,3.098c-7.54,1.868-15.3,2.58-22.955,3.828c-3.705,0.604-7.483,0.296-11.214,0.208
		c-3.108-0.073-9.389-1.597-11.991-0.153c-1.628,0.903-2.463,2.738-3.191,4.451c-4.441,10.442-10.893,19.497-16.808,29.237
		c-6.336,10.432-12.661,20.872-19.095,31.244c-12.877,20.76-26.201,41.271-40.835,60.845c-0.032,0.043-0.873,1.018-0.873,1.165
		c-7.528,9.974-16.154,16.09-28.166,19.164c-14.177,3.638-29.107,5.05-43.096,12.389c16.655,12.922,29.577,28.166,43.064,42.782
		c11.982,12.954,19.697,28.291,20.01,46.421c0.094,4.454,1.788,7.151,5.426,9.566c19.353,12.828,34.815,30.298,53.007,44.57
		c11.793,9.284,16.184,22.614,14.208,39.677c-4.046-9.472-8.03-16.874-17.219-19.509c-8.312-2.384-15.495-2.666-19.729,6.712
		c-2.854,6.336-8.375,7.716-14.679,7.245c-12.068-0.902-23.835-3.699-35.632-6.246c-13.935-3.009-24.9-7.818-38.29-0.928
		c-12.928,6.653-26.492,12.069-40.463,16.101c-28.069,8.101-57.495,10.395-86.571,8.23c-44.068-3.262-81.236-21.422-113.197-51.407
		c-4.768-4.454-7.653-13.769-17.626-8.751c-10.984,5.526-12.696,13.809-10.717,25.071c2.064,11.751,1.119,22.951,2.708,34.775
		c4.105,30.547-4.497,54.951-17.428,81.845c-13.366,27.795-23.559,55.102-41.778,80.563c-2.039,2.854-4.549,5.426-6.461,8.343
		c-2.823,4.234-11.323,5.959-9.818,10.382c1.757,5.206,8.312,8.688,12.546,13.142c2.604,2.76,4.862,1.819,7.151,0.031
		c30.864-23.775,67.686-31.679,104.603-39.018c19.195-3.826,38.422-7.402,58.245-6.43c6.022,0.314,12.138-2.352,18.255-3.45
		c15.651-2.854,28.291,3.105,35.129,16.906c1.412,2.823,2.196,5.332,5.646,6.68c46.859,18.443,84.184,50.749,120.975,83.714
		c9.033,8.092,16.435,18.098,25.876,25.594c6.9,5.489,4.831,14.804,11.166,19.885c0.784,0.596,0.784,2.227-0.815,2.666
		c-13.864,3.733-2.604,9.755-0.283,12.766c19.07,24.778,44.1,43.253,68.031,62.824c4.799,3.921,10.319,7.026,13.895,12.358
		c-1.694,3.168-5.301,0.658-7.685,3.481c5.144,8.625,15.997,10.1,22.489,16.561c13.612,13.518,33.184,13.989,48.396,23.9
		c4.454,2.917,11.385,2.133,17.188,2.917c6.493,0.91,13.424,0.157,18.035,6.493c1.568,2.133,4.14,1.474,6.524,1.411
		c11.918-0.314,24.12-4.171,35.411,3.356c2.509,1.662,5.238-0.69,7.716-1.631c6.712-2.604,13.643-3.826,20.732-3.45
		c8.814,0.471,15.055,4.423,15.84,13.989c0.721,8.845-6.053,16.718-15.118,17.816c-11.573,1.349-20.606-3.168-27.883-12.985
		c-6.367,5.458-10.915,14.052-20.983,12.295c-8.594-1.474-14.679-6.963-20.419-12.986c-2.447-2.572-5.05-5.708-8.249-0.659
		c-5.583,8.782-12.672,6.116-19.352,1.945c-4.925-3.106-9.535-6.869-13.738-10.915c-3.481-3.325-5.928-7.998-10.162-0.784
		c-2.164,3.67-5.583,2.792-7.873,0.126c-13.048-15.338-31.051-24.371-47.204-36.885v15.965c-5.771-6.932-10.539-12.64-15.307-18.349
		c-4.642,2.384-1.914,8.092-5.896,10.037c-17.91-32.557-37.732-63.985-62.135-96.135c-0.972,14.46-3.858,25.438-14.648,35.6
		c4.454-13.895-3.261-18.882-12.169-23.273c-20.167-9.911-35.6-25.531-49.494-42.656c-26.848-33.216-50.968-68.502-78.224-101.466
		c-7.621-9.221-13.706-14.49-25.939-13.8c-10.664,0.596-19.979,0.376-28.856,8.845c-22.771,21.736-47.362,40.868-79.197,48.553
		c-22.802,5.52-45.009,4.642-67.278-1.599c-3.012-0.816-5.991-2.102-8.594-3.764c-10.037-6.43-18.693-13.361-32.338-14.396
		c-12.797-0.973-22.551-11.825-23.681-26.723c-0.157-2.133-0.501-3.921-2.133-5.144c-17-12.922-13.926-29.859-9.472-47.078
		c0.564-2.164,1.003-4.329,1.85-8.061c-20.418,6.806-40.272,5.301-61.475,5.018c4.015,6.304,7.779,11.197,10.507,16.592
		c16.467,32.557,18.913,64.989-1.443,97.107c-5.081,7.998-7.684,14.585,5.552,18.725c15.494,4.861,26.974,16.027,33.059,31.365
		c2.478,6.242,5.363,5.708,10.664,4.611c43.159-8.814,85.439-5.27,127.343,8.374c20.043,6.524,35.6,15.871,39.583,38.234
		c0.25,1.349,1.568,2.635,2.603,3.701c50.122,51.596,85.752,112.695,113.761,178.185c3.513,8.25,7.904,18.192,10.288,29.421
		c-5.112-2.509-8.814-4.297-15.808-7.716c9.535,19.446,20.356,34.125,31.93,48.365c11.573,14.24,22.99,28.636,34.25,42.656
		c-2.885,5.427-7.057-0.721-10.037,3.011c2.321,2.885,4.359,6.273,7.182,8.751c16.875,14.993,29.797,33.592,46.139,49.275
		c18.222,17.47,38.296,31.647,58.653,46.169c10.632,7.559,21.046,13.267,33.341,16.812c6.43,1.85,12.076,5.771,12.17,14.02
		c0.094,7.12-3.073,12.044-9.347,14.898c-7.183,3.262-13.738,1.819-19.603-3.324c-6.242-5.52-10.037-12.829-13.958-20.105
		c-14.679,12.232-22.269,7.026-34.345-22.802c-13.048,6.587-15.745,5.552-24.057-7.716c-4.046-6.461-5.489-13.738-7.873-22.3
		c-8.093,13.581-12.263,5.457-16.341-2.07c-2.447-4.485-3.889-9.566-6.807-13.644c-2.728-3.826,0.597-14.993-10.727-9.943
		c-0.345,0.157-2.571-3.544-3.701-5.583c-5.081-9.128-10.068-18.286-16.028-29.138c-2.791,8.406-0.847,15.683-4.046,21.893
		c-17.815-36.76-31.835-74.931-52.693-113.793c-3.074,15.055-7.402,25.97-14.898,35.756c-2.854-4.078,1.097-7.026,1.537-10.413
		c0.972-7.622-0.784-14.177-6.807-18.945c-24.684-19.54-37.669-46.483-48.49-74.994c-16.404-43.19-29.483-87.634-50.184-129.162
		c-3.544-7.12-7.307-12.609-15.024-15.118c-2.917-0.941-6.492-2.29-8.06-4.611c-9.284-13.518-18.725-8.123-29.421-1.725
		c-28.134,16.78-58.276,25.531-91.083,17.721c-18.663-4.454-36.604-11.041-40.179-33.875c-0.408-2.697-1.757-4.454-4.109-5.175
		c-18.693-5.771-25.249-20.858-29.201-37.889c-1.003-4.391-1.725-8.406-7.873-7.967c-9.315,0.659-12.891-6.053-15.557-13.299
		c-3.795-10.225-7.402-20.513-14.773-29.295c10.852,34.909,17.345,69.066-12.923,98.988c12.546,14.271,23.587,30.174,25.876,50.624
		c0.345,3.042,1.945,5.614,5.646,6.712c16.969,5.081,28.229,17.753,39.52,30.33c23.053,25.657,38.798,55.892,53.948,86.504
		c9.469,19.133,22.992,40.756,28.284,61.469c4.809,18.821,3.974,41.298,6.18,60.93"/>
</g>
</svg>
