<?xml version="1.0" encoding="UTF-8" standalone="no"?>
<!-- Generator: Adobe Illustrator 27.5.0, SVG Export Plug-In . SVG Version: 6.00 Build 0)  -->

<svg
   version="1.1"
   id="Layer_1"
   x="0px"
   y="0px"
   viewBox="0 0 351.088 416.729"
   style="enable-background:new 0 0 351.088 416.729;"
   xml:space="preserve"
   xmlns="http://www.w3.org/2000/svg"
   xmlns:svg="http://www.w3.org/2000/svg"><defs
   id="defs138" />
<g
   id="g138">
	
	<g
   id="g137">
		<g
   id="g18"
   transform="translate(0,40.420356)">
			<g
   style="opacity:0.45"
   id="g8">
				<polygon
   style="fill:#adafb2"
   points="21.687,318.19 131.941,342.43 221.864,307.243 137.414,296.296 41.236,310.371 "
   id="polygon7" />
			</g>
			<g
   id="g17">
				<g
   id="g16">
					<g
   id="g9">
						<polygon
   style="fill:#d7a478"
   points="32.634,232.568 5.266,249.77 105.355,210.673 116.302,201.29 "
   id="polygon8" />
					</g>
					<g
   id="g10">
						<polygon
   style="fill:#b08763"
   points="116.302,201.29 144.452,220.478 239.067,238.823 213.262,221.621 "
   id="polygon9" />
					</g>
					<g
   id="g11">
						<polygon
   style="fill:#c49165"
   points="116.302,287.304 116.302,201.29 213.262,221.621 213.262,307.634 "
   id="polygon10" />
					</g>
					<g
   style="opacity:0.45"
   id="g12">
						<polygon
   style="fill:#d7a478"
   points="116.302,287.304 116.302,201.29 213.262,221.621 213.262,307.634 "
   id="polygon11" />
					</g>
					<g
   style="opacity:0.45"
   id="g13">
						<polygon
   style="fill:#d7a478"
   points="116.302,307.634 116.302,221.621 213.262,241.951 213.262,275.184 "
   id="polygon12" />
					</g>
					<g
   id="g14">
						<path
   style="fill:#d79e6e"
   d="m 32.634,318.581 83.668,-31.277 V 201.29 l -83.668,31.278 c 0,0 -0.405,86.419 0,86.013 z"
   id="path13" />
					</g>
					<g
   style="opacity:0.45"
   id="g15">
						<path
   style="fill:#d7a478"
   d="m 32.634,305.679 83.668,1.955 v -86.013 l -83.668,31.278 c 0,-0.001 -0.405,53.186 0,52.78 z"
   id="path14" />
					</g>
				</g>
			</g>
		</g>
		<g
   id="g25"
   transform="translate(0,40.420356)">
			<g
   id="g19">
				<path
   style="fill:#d79e6e"
   d="m 129.595,338.912 83.668,-31.278 v -86.013 l -83.668,31.278 c 0,-0.001 -0.406,86.418 0,86.013 z"
   id="path18" />
			</g>
			<g
   style="opacity:0.54"
   id="g20">
				<path
   style="fill:#d79e6e"
   d="m 129.595,293.95 83.668,-35.578 v -36.751 l -83.668,31.278 c 0,-0.001 0,44.57 0,41.051 z"
   id="path19" />
			</g>
			<g
   id="g21">
				<polygon
   style="fill:#edbb7d"
   points="32.634,318.581 32.634,232.568 129.595,252.898 129.595,338.912 "
   id="polygon20" />
			</g>
			<g
   style="opacity:0.44"
   id="g22">
				<polygon
   style="fill:#edbb7d"
   points="32.634,270.883 32.634,232.568 129.595,252.898 129.204,293.95 "
   id="polygon21" />
			</g>
			<g
   id="g23">
				<polygon
   style="fill:#d7a478"
   points="153.835,281.048 235.157,246.643 213.262,221.621 129.595,252.898 "
   id="polygon22" />
			</g>
			<g
   id="g24">
				<polygon
   style="fill:#edbb7d"
   points="113.174,282.612 10.74,259.154 32.634,232.568 129.595,252.898 "
   id="polygon23" />
			</g>
		</g>
		<g
   id="g134"
   transform="translate(0,40.420356)">
			<g
   id="g39">
				<g
   id="g35">
					<g
   id="g26">
						<path
   style="fill:#5c5d60"
   d="m 196.682,66.977 c -0.203,-0.797 -0.627,-1.532 -0.916,-2.304 -0.246,-0.66 -0.491,-1.322 -0.741,-1.981 1.005,-0.238 1.564,-1.3 1.918,-2.361 0.503,-1.507 1.201,-2.721 2.466,-3.716 0.739,-0.58 1.525,-1.033 1.757,-1.992 0.423,-1.751 -2.324,-0.691 -2.891,-0.409 -1.132,0.565 -2.351,1.594 -3.172,2.76 0.004,-2.072 -0.313,-4.143 -1.063,-6.083 -0.517,-1.34 -1.915,-4.106 -3.697,-3.636 -1.803,0.475 -0.959,2.817 -0.498,3.944 0.504,1.232 0.969,2.436 1.247,3.743 0.116,0.543 0.174,1.079 0.206,1.615 -0.493,-1.57 -1.232,-3.063 -2.103,-4.465 -0.824,-1.328 -2.221,-3.164 -3.91,-2.093 -1.644,1.042 -0.635,3.002 0.168,4.185 0.684,1.007 1.371,1.98 1.941,3.059 0.295,0.556 0.512,1.104 0.685,1.659 -0.884,-0.855 -2.183,-1.542 -3.024,-1.887 -1.275,-0.523 -2.921,-0.893 -3.865,0.388 -0.939,1.275 0.84,2.294 1.736,2.776 1.025,0.554 1.977,1.052 2.768,1.937 0.301,0.337 0.531,0.723 0.745,1.118 -0.011,0.173 -0.015,0.349 -0.005,0.534 0.053,0.909 0.912,1.71 1.579,2.211 0.419,0.315 0.885,0.448 1.364,0.474 0.134,0.389 0.289,0.775 0.422,1.157 0.196,0.558 0.365,1.223 0.624,1.792 0.084,0.56 0.239,1.252 0.736,1.455 0.878,0.357 1.799,-0.176 2.566,-0.59 1.346,-0.73 2.532,-1.769 2.638,-3.103 0.115,0.063 0.354,-0.05 0.319,-0.187 z"
   id="path25" />
					</g>
					<g
   id="g27">
						<path
   style="fill:#5c5d60"
   d="m 185.453,54.184 c 0.684,1.007 1.371,1.98 1.941,3.059 0.277,0.522 0.483,1.036 0.651,1.557 0.211,0.285 0.412,0.574 0.583,0.883 -0.093,-2.227 -1.755,-4.175 -2.738,-6.104 -0.549,-1.075 -1.135,-2.507 -0.604,-3.581 -0.001,0.001 -0.002,0.001 -0.002,0.001 -1.642,1.042 -0.634,3.002 0.169,4.185 z"
   id="path26" />
					</g>
					<g
   id="g28">
						<path
   style="fill:#5c5d60"
   d="m 191.092,54.942 c 0.087,0.41 0.136,0.816 0.171,1.221 0.18,0.529 0.337,1.066 0.464,1.616 1.048,-2.769 -1.075,-5.289 -1.891,-7.857 -0.257,-0.81 -0.396,-1.685 -0.147,-2.32 -0.891,0.828 -0.235,2.644 0.155,3.596 0.505,1.233 0.97,2.437 1.248,3.744 z"
   id="path27" />
					</g>
					<g
   id="g29">
						<path
   style="fill:#5c5d60"
   d="m 194.138,59.618 c -0.654,0.729 -1.42,1.174 -2.045,1.811 0.474,-0.259 0.994,-0.432 1.598,-0.581 0.7,-0.174 0.886,-1.084 1.151,-1.671 0.225,-0.499 0.589,-0.961 0.919,-1.395 1.385,-1.816 3.107,-3.4 5.4,-3.748 -0.207,-0.55 -1.113,-0.432 -1.876,-0.205 -1.368,0.564 -2.488,1.876 -3.334,3.079 -0.611,0.873 -1.104,1.918 -1.813,2.71 z"
   id="path28" />
					</g>
					<g
   id="g30">
						<path
   style="fill:#5c5d60"
   d="m 185.554,58.698 c 0.749,0.56 1.22,1.195 1.723,1.898 -0.376,-1.982 -3.837,-3.725 -5.444,-3.121 0.458,-0.045 0.945,0.01 1.391,0.119 0.855,0.207 1.622,0.575 2.33,1.104 z"
   id="path29" />
					</g>
					<g
   id="g31">
						<path
   style="fill:#5c5d60"
   d="m 193.154,53.041 c 0.22,1.4 0.482,2.98 0.283,4.401 -0.153,1.089 -0.499,1.605 -1.271,2.374 -0.788,0.784 -1.515,1.781 -1.839,2.873 0.772,-1.052 1.583,-2.06 2.8,-2.645 0.829,-0.398 1.105,-1.152 1.574,-1.903 0.467,-0.745 0.952,-1.49 1.551,-2.139 0.45,-0.489 0.986,-1.025 1.576,-1.544 -0.996,0.591 -2.011,1.501 -2.725,2.515 0.001,-0.496 -0.017,-0.99 -0.055,-1.484 -0.022,-0.047 -0.027,-0.099 -0.012,-0.15 -0.128,-1.519 -0.444,-3.019 -0.995,-4.449 -0.497,-1.29 -1.813,-3.892 -3.5,-3.667 1.687,0.871 2.372,4.282 2.613,5.818 z"
   id="path30" />
					</g>
					<g
   id="g32">
						<path
   style="fill:#5c5d60"
   d="m 185.352,50.477 c 1.173,0.148 2.101,0.906 2.773,1.851 1.475,2.079 2.268,4.563 2.342,7.101 0.8,-1.357 0.774,-2.804 0.314,-4.268 -0.44,-1.063 -0.977,-2.09 -1.586,-3.069 -0.824,-1.328 -2.221,-3.164 -3.91,-2.093 -0.241,0.152 -0.419,0.327 -0.555,0.514 0.191,-0.049 0.4,-0.064 0.622,-0.036 z"
   id="path31" />
					</g>
					<g
   id="g33">
						<path
   style="fill:#5c5d60"
   d="m 182.57,56.575 c 0.407,0.043 0.813,0.148 1.157,0.274 1.982,0.718 3.448,2.228 4.741,3.835 -0.08,-0.768 -0.339,-1.437 -0.704,-2.064 -0.859,-0.723 -1.963,-1.297 -2.708,-1.603 -0.772,-0.318 -1.679,-0.572 -2.486,-0.442 z"
   id="path32" />
					</g>
					<g
   id="g34">
						<path
   style="fill:#5c5d60"
   d="m 195.765,64.673 c -0.246,-0.66 -0.491,-1.322 -0.741,-1.981 1.005,-0.238 1.564,-1.3 1.918,-2.361 0.503,-1.507 1.201,-2.721 2.466,-3.716 0.739,-0.58 1.525,-1.033 1.757,-1.992 0.024,-0.1 0.036,-0.189 0.04,-0.271 -1.077,0.989 -2.567,1.888 -3.015,2.226 -1.564,1.18 -2.201,3.325 -3.44,4.822 -0.964,1.163 -2.029,2.329 -3.289,3.176 -0.994,0.669 -2.225,1.306 -3.414,0.758 -1.479,-0.679 -1.418,-2.61 -2.034,-3.859 -0.805,-1.631 -2.927,-1.736 -4.227,-2.844 -0.467,-0.398 -0.612,-0.842 -0.548,-1.282 -0.014,0.019 -0.031,0.036 -0.047,0.056 -0.939,1.275 0.84,2.294 1.736,2.776 1.025,0.554 1.977,1.052 2.768,1.937 0.301,0.337 0.531,0.723 0.745,1.118 -0.011,0.173 -0.015,0.349 -0.005,0.534 0.053,0.909 0.912,1.71 1.579,2.211 0.419,0.315 0.885,0.448 1.364,0.474 0.134,0.389 0.289,0.775 0.422,1.157 0.196,0.558 0.365,1.223 0.624,1.792 0.084,0.56 0.239,1.252 0.736,1.455 0.878,0.357 1.799,-0.176 2.566,-0.59 1.346,-0.73 2.532,-1.769 2.638,-3.103 0.114,0.062 0.353,-0.051 0.318,-0.188 -0.204,-0.798 -0.627,-1.533 -0.917,-2.305 z"
   id="path33" />
					</g>
				</g>
				<g
   id="g36">
					<path
   style="fill:#747679"
   d="m 189.779,67.657 c 0.002,-0.258 1.588,1.166 2.118,1.858 -0.282,-1.279 -0.083,-4.431 0.103,-4.193 0.142,0.183 0.516,0.878 0.871,1.362 -0.129,-0.653 0.335,-2.439 0.531,-2.286 0.212,0.163 0.373,0.361 0.535,0.56 -0.044,-0.589 0.683,-2.388 0.835,-2.081 1.543,3.079 4.804,5.913 7.73,7.663 3.386,2.026 7.197,3.943 11.069,4.794 5.904,1.295 11.455,0.393 16.67,-1.933 0.134,-0.015 0.268,-0.027 0.401,-0.044 1.842,-0.225 3.819,-0.719 5.67,-0.327 0.803,0.17 1.539,0.556 2.043,1.216 1.911,11.44 -6.23,23.973 -17.784,23.992 -6.707,0.011 -20.422,-5.623 -24.678,-10.86 -2.139,-2.632 -3.892,-5.662 -4.902,-8.911 -1.113,-3.584 -1.251,-7.087 -1.212,-10.81 z"
   id="path35" />
				</g>
				<g
   id="g37">
					<path
   style="fill:#9a9da5"
   d="m 215.458,96.712 c 3.915,0.181 7.992,-0.346 11.595,-1.946 3.329,-1.479 6.153,-3.892 8.249,-6.86 1.049,-1.485 1.915,-3.088 2.62,-4.761 -2.12,8.208 -8.797,15.08 -17.35,15.093 -2.527,0.004 -6.048,-0.793 -9.683,-2.069 1.509,0.286 3.035,0.472 4.569,0.543 z"
   id="path36" />
				</g>
				<g
   style="opacity:0.5"
   id="g38">
					<path
   style="fill:#74777e"
   d="m 191.896,69.515 c -0.282,-1.279 -0.083,-4.431 0.103,-4.193 0.142,0.183 0.516,0.878 0.871,1.362 -0.129,-0.653 0.335,-2.439 0.531,-2.287 0.212,0.163 0.373,0.361 0.535,0.56 -0.044,-0.589 0.683,-2.388 0.835,-2.081 1.543,3.079 4.804,5.913 7.73,7.663 3.386,2.026 7.197,3.943 11.069,4.794 5.904,1.295 11.455,0.393 16.67,-1.933 0.134,-0.015 0.268,-0.027 0.401,-0.044 1.842,-0.225 3.819,-0.719 5.67,-0.327 0.803,0.17 1.539,0.556 2.043,1.216 0.642,3.841 0.146,7.803 -1.228,11.375 0.021,-0.091 0.047,-0.181 0.067,-0.273 0.463,-2.129 0.508,-4.486 -0.598,-6.434 -0.059,-0.104 -0.233,-0.113 -0.271,0.017 -0.424,1.479 -0.809,2.979 -1.526,4.335 0.21,-0.765 0.375,-1.543 0.475,-2.329 0.148,-1.162 0.165,-2.362 -0.102,-3.508 -0.034,-0.146 -0.228,-0.153 -0.283,-0.019 -0.493,1.214 -0.828,2.493 -1.336,3.7 0.134,-0.914 0.173,-1.906 -0.216,-2.756 -0.438,-0.957 -1.394,-1.398 -2.396,-1.512 -0.756,-0.086 -1.537,-0.056 -2.295,-0.014 -0.787,0.043 -1.571,0.123 -2.352,0.225 -1.622,0.212 -3.23,0.513 -4.846,0.763 -3.09,0.476 -6.242,0.657 -9.358,0.337 -2.933,-0.301 -5.845,-1.065 -8.452,-2.463 -2.677,-1.436 -4.936,-3.514 -6.636,-6.028 -0.082,-0.122 -0.293,-0.011 -0.255,0.125 0.265,0.949 0.602,1.876 1.007,2.774 0.491,1.088 1.083,2.124 1.744,3.114 -0.995,-1.09 -1.957,-2.215 -3.042,-3.214 -0.097,-0.089 -0.297,-0.032 -0.255,0.125 0.15,0.558 0.354,1.1 0.595,1.625 0.336,0.731 0.733,1.44 1.179,2.119 -0.94,-0.987 -1.865,-1.989 -2.727,-3.048 -0.076,-0.094 -0.263,-0.043 -0.258,0.087 0.056,1.377 0.314,2.737 0.714,4.054 0.754,2.491 1.973,4.833 3.461,6.962 1.43,2.047 3.136,3.934 5.124,5.454 0.127,0.097 0.262,-0.061 0.212,-0.181 0.88,0.7 1.786,1.366 2.707,2.005 2.223,1.542 4.505,3.007 6.98,4.112 2.578,1.152 5.317,1.96 8.115,2.356 -0.568,0.064 -1.144,0.105 -1.73,0.106 -6.707,0.011 -20.422,-5.623 -24.678,-10.86 -2.139,-2.631 -3.892,-5.662 -4.902,-8.911 -1.114,-3.584 -1.252,-7.086 -1.214,-10.81 0.003,-0.257 1.589,1.168 2.118,1.86 z"
   id="path37" />
				</g>
			</g>
			<g
   id="g119">
				<g
   id="g118">
					<g
   id="g48">
						<g
   id="g40">
							<path
   style="fill:#818385"
   d="m 341.475,109.883 c -1.421,-1.375 -3.118,-2.423 -4.972,-3.034 -1.794,-0.896 -3.807,-1.417 -5.804,-1.612 -4.459,-0.434 -9.897,0.957 -13.134,4.279 0.176,-0.276 0.341,-0.558 0.451,-0.872 0.026,-0.072 0.053,-0.31 -0.092,-0.286 -0.535,0.087 -0.947,0.433 -1.387,0.728 -0.824,0.551 -1.596,1.151 -2.339,1.806 -0.668,0.587 -1.31,1.146 -1.91,1.809 -0.527,0.581 -0.952,1.236 -1.457,1.831 0.1,-0.88 0.951,-2.031 1.409,-2.59 0.095,-0.115 0.121,-0.522 -0.115,-0.357 -3.336,2.343 -5.85,5.546 -8.109,8.898 -1.194,1.773 -2.204,3.647 -3.346,5.451 -1.298,2.052 -3.03,3.849 -4.948,5.333 -3.79,2.931 -8.379,4.259 -13.081,4.766 -2.249,0.242 -4.525,0.309 -6.786,0.269 -2.311,-0.042 -4.59,-0.484 -6.85,-0.932 -10e-4,-0.01 0,-0.021 -0.003,-0.03 -0.025,-0.078 -0.05,-0.155 -0.075,-0.232 -0.05,-0.157 -0.251,0.102 -0.217,0.212 0.607,2.002 0.268,4.278 0.658,6.323 0.01,0.056 0.046,0.108 0.108,0.105 0.332,-0.017 0.625,-0.175 0.959,-0.192 0.659,-0.033 1.094,0.081 1.719,0.314 1.234,0.462 2.227,1.251 3.313,1.969 0.879,0.58 1.781,1.125 2.705,1.629 1.123,0.615 2.151,1.407 3.241,2.078 1.018,0.626 2.023,1.261 3.136,1.708 1.156,0.464 2.402,0.666 3.593,1.015 1.09,0.318 2.213,0.519 3.321,0.761 0.514,0.112 1.006,0.213 1.53,0.275 0.565,0.068 1.048,0.315 1.621,0.228 0.19,-0.029 0.316,-0.38 0.139,-0.492 -0.522,-0.331 -1.034,-0.642 -1.462,-1.091 1.472,0.682 2.91,1.396 4.528,1.752 0.943,0.206 1.887,0.355 2.846,0.462 0.859,0.094 1.918,0.274 2.775,0.134 0.182,-0.03 0.302,-0.335 0.179,-0.477 -0.352,-0.406 -0.776,-0.645 -1.195,-0.937 0.716,0.248 1.45,0.439 2.185,0.527 1.705,0.203 3.504,-0.011 5.208,-0.162 3.67,-0.326 7.282,-1.06 10.75,-2.312 3.185,-1.15 6.317,-2.537 8.685,-5.017 1.576,-1.652 2.697,-3.601 3.563,-5.674 -0.037,0.61 -0.172,1.229 -0.215,1.84 -0.043,0.583 -0.401,1.028 -0.579,1.564 -0.025,0.075 -0.031,0.319 0.12,0.244 1.694,-0.852 2.945,-2.88 3.883,-4.453 0.531,-0.889 0.854,-1.895 1.137,-2.886 -0.011,0.124 -0.022,0.247 -0.031,0.371 -0.061,0.768 -0.571,1.473 -0.651,2.265 -0.005,0.055 0.032,0.169 0.109,0.151 1.025,-0.239 1.701,-1.86 2.188,-2.67 0.552,-0.915 0.957,-1.89 1.271,-2.898 0.11,0.697 0.172,1.402 0.369,2.082 -0.012,0.053 -0.01,0.105 0.04,0.114 0.006,0.001 0.01,0.002 0.017,0.003 0.075,0.013 0.13,-0.07 0.14,-0.145 0.273,-0.412 0.456,-0.923 0.701,-1.356 0.365,-0.641 0.691,-1.309 0.976,-1.989 0.542,-1.296 0.842,-2.813 0.931,-4.213 0.099,-1.566 -0.021,-2.98 -0.39,-4.506 -0.147,-0.611 -0.521,-1.199 -0.794,-1.762 -0.132,-0.273 -0.27,-0.536 -0.423,-0.786 0.003,0.002 0.006,0.004 0.008,0.006 0.499,0.357 0.993,0.648 1.436,1.081 0.397,0.389 0.804,0.832 1.076,1.317 0.144,0.256 0.257,0.485 0.528,0.612 0.102,0.047 0.203,-0.105 0.228,-0.18 0.344,-1.007 -0.219,-2.042 -0.534,-2.989 -0.39,-1.166 -1.369,-2.145 -2.157,-3.146 0.397,0.131 0.661,0.333 1.037,0.522 0.507,0.255 0.99,0.514 1.424,0.886 0.356,0.305 0.542,0.793 0.884,1.122 0.178,0.171 0.308,-0.262 0.267,-0.383 -1.006,-3.012 -2,-5.917 -4.336,-8.181 z"
   id="path39" />
						</g>
						<g
   style="opacity:0.6"
   id="g45">
							<g
   id="g41">
								<path
   style="fill:#353737"
   d="m 336.366,122.363 c 1.201,0.122 2.049,0.839 2.946,1.54 -1.023,-2.277 -2.443,-4.491 -4.737,-5.629 -0.187,-0.092 -0.084,-0.38 0.118,-0.341 1.317,0.256 2.456,0.893 3.626,1.506 -1.247,-2.805 -3.26,-5.125 -6.023,-6.544 -0.152,-0.078 -0.119,-0.353 0.072,-0.345 1.253,0.049 2.257,0.67 3.353,1.171 -1.331,-2.649 -4.287,-4.782 -7.212,-5.096 -0.213,-0.023 -0.17,-0.343 0.027,-0.36 1.148,-0.1 2.302,-0.135 3.445,-0.287 -0.842,-0.555 -1.77,-0.863 -2.783,-1.023 -0.203,-0.032 -0.18,-0.363 0.027,-0.36 0.88,0.017 1.761,0.001 2.641,0.028 -1.412,-0.862 -3.113,-1.396 -4.775,-1.352 -0.559,0.061 -1.121,0.146 -1.679,0.258 -0.275,0.082 -0.547,0.18 -0.811,0.302 -0.092,0.042 -0.163,10e-4 -0.2,-0.067 -2.437,0.635 -4.748,1.777 -6.5,3.434 -0.358,0.65 -0.719,1.298 -1.036,1.969 1.203,-0.802 2.653,-1.161 4.104,-1.14 0.189,0.003 0.249,0.217 0.111,0.333 -0.752,0.63 -1.591,1.142 -2.28,1.833 1.175,-0.366 2.366,-0.627 3.599,-0.321 0.137,0.034 0.185,0.189 0.099,0.298 -0.735,0.938 -1.838,1.446 -2.826,2.087 2.027,-0.17 4.251,0.394 5.662,1.884 0.101,0.107 0.068,0.249 -0.063,0.309 -0.956,0.449 -2.002,0.613 -3.008,0.912 2.019,0.484 3.991,1.659 5.265,3.273 0.064,0.081 0.024,0.196 -0.05,0.252 -0.806,0.617 -1.847,0.332 -2.818,0.244 1.059,0.527 2.145,1.009 3.04,1.799 0.107,0.095 0.065,0.259 -0.062,0.309 -0.634,0.25 -1.302,0.301 -1.969,0.382 2.007,1 3.967,2.636 4.822,4.709 0.059,0.141 -0.085,0.246 -0.209,0.235 -1.118,-0.093 -2.131,-0.634 -3.23,-0.786 1.845,1.53 3.527,3.31 4.193,5.672 0.047,0.165 -0.155,0.326 -0.293,0.194 -0.951,-0.907 -1.871,-1.864 -3.088,-2.355 1.645,2.069 2.821,4.411 3.193,7.072 0.155,1.11 0.114,2.194 -0.013,3.271 0.697,-1.07 1.278,-2.21 1.772,-3.393 -0.037,0.61 -0.172,1.229 -0.215,1.84 -0.043,0.583 -0.401,1.028 -0.579,1.564 -0.025,0.075 -0.031,0.319 0.12,0.244 1.694,-0.852 2.945,-2.88 3.883,-4.453 0.531,-0.889 0.854,-1.895 1.137,-2.886 -0.011,0.124 -0.022,0.247 -0.031,0.371 -0.061,0.768 -0.571,1.473 -0.651,2.265 -0.005,0.055 0.032,0.169 0.109,0.151 1.025,-0.239 1.701,-1.86 2.188,-2.67 0.552,-0.915 0.957,-1.89 1.271,-2.898 0.11,0.697 0.172,1.402 0.369,2.082 -0.012,0.053 -0.01,0.105 0.04,0.114 0.006,0.001 0.01,0.002 0.017,0.003 0.075,0.013 0.13,-0.07 0.14,-0.145 0.085,-0.129 0.16,-0.268 0.233,-0.411 -0.081,-0.506 -0.187,-0.994 -0.277,-1.43 -0.441,-2.113 -1.354,-3.839 -2.488,-5.659 -0.095,-0.152 0.065,-0.346 0.233,-0.264 0.649,0.321 1.079,0.887 1.611,1.34 -0.817,-1.866 -2.206,-3.361 -3.715,-4.722 -0.147,-0.128 -0.019,-0.33 0.155,-0.313 z"
   id="path40" />
							</g>
							<g
   id="g42">
								<path
   style="fill:#353737"
   d="m 277.92,143.275 c -0.095,-0.129 0.036,-0.316 0.188,-0.28 1.376,0.331 2.459,1.291 3.509,2.208 -0.597,-1.502 -1.577,-2.746 -2.577,-4.03 -0.106,-0.136 0.043,-0.301 0.188,-0.28 0.819,0.12 1.544,0.537 2.348,0.698 -0.376,-0.977 -1.439,-1.636 -2.296,-2.141 -0.121,-0.071 -0.146,-0.299 0.024,-0.335 1.219,-0.26 2.411,-0.443 3.535,-0.916 -1.146,0.106 -2.297,0.044 -3.429,-0.201 -0.187,-0.041 -0.181,-0.283 -0.021,-0.35 1.567,-0.668 3.261,-0.946 4.757,-1.76 -0.065,-0.006 -0.135,-0.013 -0.205,-0.02 -0.432,0.062 -0.865,0.118 -1.299,0.165 -2.249,0.242 -4.525,0.309 -6.786,0.269 -2.311,-0.042 -4.59,-0.484 -6.85,-0.932 -10e-4,-0.01 0,-0.021 -0.003,-0.03 -0.025,-0.078 -0.05,-0.155 -0.075,-0.232 -0.05,-0.157 -0.251,0.102 -0.217,0.212 0.607,2.002 0.268,4.278 0.658,6.323 0.01,0.056 0.046,0.108 0.108,0.105 0.332,-0.017 0.625,-0.175 0.959,-0.192 0.659,-0.033 1.094,0.081 1.719,0.314 1.234,0.462 2.227,1.251 3.313,1.969 0.879,0.58 1.781,1.125 2.705,1.629 1.123,0.615 2.151,1.407 3.241,2.078 0.151,0.092 0.301,0.184 0.452,0.277 -1.124,-1.634 -2.799,-2.999 -3.946,-4.548 z"
   id="path41" />
							</g>
							<g
   id="g43">
								<path
   style="fill:#353737"
   d="m 298.812,144.21 c 1.148,-0.037 2.349,0.51 3.469,0.181 -0.957,-1.126 -2.298,-1.798 -3.629,-2.397 -0.183,-0.082 -0.094,-0.318 0.071,-0.345 0.848,-0.143 1.778,0.082 2.552,-0.335 -0.976,-1.146 -2.836,-1.175 -4.194,-1.548 -0.202,-0.056 -0.179,-0.334 0.027,-0.36 1.038,-0.13 2.278,0.125 3.242,-0.356 -1.221,-0.878 -2.857,-1.057 -4.317,-1.12 -0.197,-0.009 -0.274,-0.287 -0.068,-0.355 0.419,-0.139 3.433,-1.116 2.916,-1.763 -0.415,-0.518 -1.678,-0.024 -2.183,0.115 -0.522,0.143 -1.048,0.328 -1.587,0.392 -0.194,0.023 -0.241,-0.23 -0.111,-0.333 0.806,-0.642 1.557,-1.332 2.257,-2.081 -0.585,0.333 -1.13,0.729 -1.739,1.031 -0.177,0.087 -0.379,-0.101 -0.238,-0.271 0.358,-0.434 0.723,-0.86 1.104,-1.27 -0.646,0.308 -1.28,0.634 -1.994,0.767 -0.17,0.031 -0.232,-0.192 -0.147,-0.301 0.762,-0.984 1.675,-1.832 2.406,-2.836 -0.503,0.193 -0.988,0.425 -1.471,0.647 -1.309,0.941 -2.706,1.701 -4.163,2.314 -0.748,1.151 -1.913,2.057 -3.064,2.925 1.304,-0.362 2.756,-1.182 3.951,-0.415 0.094,0.061 0.143,0.191 0.055,0.283 -1.008,1.064 -2.46,1.264 -3.709,1.904 1.187,0.026 2.364,-0.299 3.553,-0.073 0.145,0.028 0.176,0.192 0.1,0.298 -0.777,1.088 -2.106,1.163 -3.254,1.631 1.104,0.303 2.248,0.467 2.804,1.616 0.054,0.111 -0.058,0.23 -0.162,0.24 -0.832,0.078 -1.616,-0.169 -2.429,-0.256 1.266,1.298 2.555,2.582 3.409,4.202 0.057,0.108 0.012,0.291 -0.141,0.283 -0.775,-0.039 -1.404,-0.474 -1.986,-0.965 0.81,1.262 1.908,2.313 2.792,3.53 0.066,0.091 0.019,0.245 -0.093,0.274 -1.095,0.279 -2.071,-0.349 -2.944,-1.038 0.711,0.986 1.474,1.933 2.349,2.764 0.247,0.046 0.494,0.086 0.749,0.116 0.565,0.068 1.048,0.315 1.621,0.228 0.19,-0.029 0.316,-0.38 0.139,-0.492 -0.522,-0.331 -1.034,-0.642 -1.462,-1.091 1.472,0.682 2.91,1.396 4.528,1.752 0.943,0.206 1.887,0.355 2.846,0.462 0.859,0.094 1.918,0.274 2.775,0.134 0.182,-0.03 0.302,-0.335 0.179,-0.477 -0.352,-0.406 -0.776,-0.645 -1.195,-0.937 0.652,0.226 1.319,0.4 1.988,0.497 -1.464,-1.607 -2.93,-3.489 -4.951,-4.379 -0.19,-0.084 -0.082,-0.389 0.119,-0.341 0.935,0.22 1.848,0.545 2.797,0.692 -0.966,-1.234 -2.499,-1.806 -3.676,-2.822 -0.121,-0.106 -0.052,-0.317 0.109,-0.321 z"
   id="path42" />
							</g>
							<g
   id="g44">
								<path
   style="fill:#353737"
   d="m 318.72,136.593 c 1.376,-0.043 2.547,0.875 3.882,0.92 -0.791,-1.803 -2.633,-3.002 -4.197,-4.083 -0.168,-0.116 -10e-4,-0.33 0.157,-0.315 1.122,0.109 2.185,0.464 3.266,0.758 -0.456,-1.813 -3.147,-2.819 -4.625,-3.553 -0.163,-0.08 -0.112,-0.336 0.071,-0.345 1.029,-0.044 2.052,0.188 3.074,0.067 -0.955,-1.435 -2.7,-2.15 -4.283,-2.67 -0.158,-0.051 -0.212,-0.296 -0.021,-0.351 1.061,-0.303 2.255,-0.131 3.267,-0.583 -1.179,-1.251 -3.176,-1.807 -4.842,-1.679 -0.206,0.015 -0.263,-0.292 -0.068,-0.355 1.063,-0.342 2.165,-0.589 3.09,-1.226 -1.233,-0.721 -2.664,-0.691 -4.06,-0.663 -0.165,0.004 -0.282,-0.245 -0.111,-0.333 0.825,-0.421 1.804,-0.639 2.507,-1.258 -1.307,-0.305 -2.652,0.179 -3.802,0.814 -0.173,0.095 -0.387,-0.111 -0.238,-0.271 0.8,-0.865 1.791,-1.504 2.663,-2.286 -1.778,-0.358 -3.406,0.124 -5.09,0.768 -0.138,0.053 -0.31,-0.119 -0.22,-0.254 0.701,-1.049 1.644,-1.879 2.503,-2.79 -1.626,-0.017 -3.155,1.345 -4.074,2.561 -0.108,0.143 -0.367,0.016 -0.315,-0.157 0.341,-1.127 0.974,-2.096 1.571,-3.094 -1.962,0.789 -3.804,2.191 -4.539,4.223 -0.049,0.134 -0.187,0.125 -0.271,0.049 -0.76,1.127 -1.445,2.296 -2.137,3.461 0.394,-0.414 0.794,-0.822 1.219,-1.206 0.117,-0.106 0.379,-0.038 0.315,0.157 -0.411,1.251 -1.081,2.39 -1.565,3.608 0.569,-0.649 1.144,-1.287 1.863,-1.782 0.161,-0.11 0.326,0.072 0.264,0.232 -0.47,1.218 -0.671,2.48 -0.791,3.763 0.361,-0.751 0.743,-1.485 1.299,-2.123 0.099,-0.114 0.322,-0.054 0.319,0.11 -0.026,1.18 -0.074,2.36 -0.126,3.539 1.152,-0.78 2.382,-1.26 3.811,-1.149 0.151,0.012 0.169,0.201 0.1,0.298 -0.814,1.143 -1.509,2.359 -2.188,3.586 1.173,-0.479 2.433,-0.688 3.604,-0.042 0.097,0.053 0.142,0.197 0.056,0.283 -0.625,0.626 -1.405,1.051 -2.112,1.573 1.499,-0.029 2.985,0.314 4,1.513 0.06,0.071 0.031,0.209 -0.049,0.253 -0.874,0.47 -1.847,0.528 -2.805,0.678 1.392,0.299 2.947,1.047 3.454,2.278 0.049,0.118 -0.054,0.223 -0.163,0.24 -0.633,0.098 -1.251,0.003 -1.876,-0.062 1.376,0.91 2.823,1.791 3.51,3.361 0.058,0.133 -0.085,0.257 -0.21,0.236 -1.064,-0.188 -2.041,-0.723 -3.118,-0.736 1.104,0.972 2.452,1.622 3.337,2.844 0.09,0.125 -0.034,0.325 -0.189,0.28 -0.641,-0.184 -1.221,-0.526 -1.843,-0.753 0.949,1.018 2.126,1.843 2.574,3.222 0.039,0.12 -0.047,0.222 -0.163,0.239 -0.888,0.129 -1.673,-0.402 -2.472,-0.809 0.956,0.859 1.94,1.875 2.541,3.017 2.068,-0.398 4.105,-0.941 6.095,-1.659 0.902,-0.326 1.799,-0.672 2.676,-1.055 -0.229,-0.834 -0.668,-1.653 -1.057,-2.304 -0.785,-1.316 -1.734,-2.508 -2.626,-3.75 -0.092,-0.128 0.034,-0.318 0.188,-0.28 0.82,0.201 1.502,0.697 2.261,1.032 -0.728,-1.189 -1.775,-2.143 -2.537,-3.313 -0.094,-0.145 0.035,-0.295 0.188,-0.28 0.688,0.067 1.302,0.346 1.936,0.591 -0.717,-1.141 -2.023,-1.747 -2.988,-2.664 -0.112,-0.108 -0.057,-0.315 0.11,-0.321 z"
   id="path43" />
							</g>
						</g>
						<g
   style="opacity:0.6"
   id="g46">
							<path
   style="fill:#2a2b2b"
   d="m 341.475,109.883 c -1.421,-1.375 -3.118,-2.423 -4.972,-3.034 -1.794,-0.896 -3.807,-1.417 -5.804,-1.612 -4.459,-0.434 -9.897,0.957 -13.134,4.279 0.176,-0.276 0.341,-0.558 0.451,-0.872 0.026,-0.072 0.053,-0.31 -0.092,-0.286 -0.4,0.065 -0.731,0.275 -1.056,0.499 -0.95,1.215 -1.628,2.701 -1.97,4.119 2.916,-3.609 7.062,-6.411 11.9,-5.453 0.214,0.041 0.17,0.332 -0.027,0.36 -1.99,0.28 -3.802,0.932 -5.157,2.228 3.178,-1.529 7.1,-1.404 10,0.739 3.468,2.563 6.081,7.066 5.096,11.469 -0.04,0.182 -0.286,0.187 -0.35,0.021 -0.582,-1.494 -1.102,-3.986 -2.665,-4.821 1.269,3.703 2.842,7.603 1.279,11.465 -0.057,0.142 -0.3,0.129 -0.335,-0.024 -0.399,-1.736 -0.96,-3.413 -1.788,-4.961 0.555,1.812 0.828,3.749 0.781,5.607 -0.06,2.333 -0.609,4.823 -2.568,6.301 -0.14,0.105 -0.297,-0.043 -0.28,-0.188 0.143,-1.257 0.304,-2.573 -0.092,-3.784 -0.427,2.746 -0.941,5.712 -3.044,7.684 -0.105,0.098 -0.323,0.067 -0.319,-0.109 0.012,-0.532 0.044,-1.062 0.078,-1.59 -0.484,1.657 -1.239,3.223 -2.348,4.577 -1.058,1.291 -2.37,2.396 -3.749,3.331 -1.185,0.804 -2.55,1.658 -4.027,1.692 -0.182,0.004 -0.259,-0.227 -0.111,-0.333 0.681,-0.49 1.303,-1.035 1.844,-1.644 -2.165,1.149 -4.877,1.603 -7.105,2.012 -1.925,0.353 -3.815,0.574 -5.766,0.265 -1.549,-0.246 -3.038,-0.701 -4.5,-1.245 1.129,0.729 2.342,1.314 3.509,1.993 0.175,0.102 0.091,0.384 -0.118,0.341 -3.18,-0.645 -6.415,-0.359 -9.58,-1.178 -1.889,-0.488 -3.69,-1.166 -5.332,-2.154 0.864,0.815 1.746,1.611 2.664,2.367 0.136,0.112 0.021,0.368 -0.157,0.315 -1.665,-0.495 -3.202,-1.276 -4.74,-2.062 0.827,0.794 1.755,1.468 2.758,2.04 0.203,0.115 0.05,0.43 -0.162,0.325 -2.208,-1.082 -4.645,-1.8 -6.556,-3.407 -2.012,-1.693 -3.405,-4.006 -5.625,-5.475 -0.195,-0.129 -0.06,-0.41 0.162,-0.325 1.487,0.567 3.202,0.702 4.745,0.264 -1.939,-0.929 -3.991,-1.773 -5.529,-3.312 -0.609,0.006 -1.217,0.004 -1.825,-0.006 -2.311,-0.042 -4.59,-0.484 -6.85,-0.932 -0.001,-0.01 0,-0.021 -0.003,-0.03 -0.025,-0.078 -0.05,-0.155 -0.075,-0.232 -0.05,-0.157 -0.251,0.102 -0.217,0.212 0.607,2.002 0.268,4.278 0.658,6.323 0.01,0.056 0.046,0.108 0.108,0.105 0.332,-0.017 0.625,-0.175 0.959,-0.192 0.659,-0.033 1.094,0.081 1.719,0.314 1.234,0.462 2.227,1.251 3.313,1.969 0.879,0.58 1.781,1.125 2.705,1.629 1.123,0.615 2.151,1.407 3.241,2.078 1.018,0.626 2.023,1.261 3.136,1.708 1.156,0.464 2.402,0.666 3.593,1.015 1.09,0.318 2.213,0.519 3.321,0.761 0.514,0.112 1.006,0.213 1.53,0.275 0.565,0.068 1.048,0.315 1.621,0.228 0.19,-0.029 0.316,-0.38 0.139,-0.492 -0.522,-0.331 -1.034,-0.642 -1.462,-1.091 1.472,0.682 2.91,1.396 4.528,1.752 0.943,0.206 1.887,0.355 2.846,0.462 0.859,0.094 1.918,0.274 2.775,0.134 0.182,-0.03 0.302,-0.335 0.179,-0.477 -0.352,-0.406 -0.776,-0.645 -1.195,-0.937 0.716,0.248 1.45,0.439 2.185,0.527 1.705,0.203 3.504,-0.011 5.208,-0.162 3.67,-0.326 7.282,-1.06 10.75,-2.312 3.185,-1.15 6.317,-2.537 8.685,-5.017 1.576,-1.652 2.697,-3.601 3.563,-5.674 -0.037,0.61 -0.172,1.229 -0.215,1.84 -0.043,0.583 -0.401,1.028 -0.579,1.564 -0.025,0.075 -0.031,0.319 0.12,0.244 1.694,-0.852 2.945,-2.88 3.883,-4.453 0.531,-0.889 0.854,-1.895 1.137,-2.886 -0.011,0.124 -0.022,0.247 -0.031,0.371 -0.061,0.768 -0.571,1.473 -0.651,2.265 -0.005,0.055 0.032,0.169 0.109,0.151 1.025,-0.239 1.701,-1.86 2.188,-2.67 0.552,-0.915 0.957,-1.89 1.271,-2.898 0.11,0.697 0.172,1.402 0.369,2.082 -0.012,0.053 -0.01,0.105 0.04,0.114 0.006,0.001 0.01,0.002 0.017,0.003 0.075,0.013 0.13,-0.07 0.14,-0.145 0.273,-0.412 0.456,-0.923 0.701,-1.356 0.365,-0.641 0.691,-1.309 0.976,-1.989 0.542,-1.296 0.842,-2.813 0.931,-4.213 0.099,-1.566 -0.021,-2.98 -0.39,-4.506 -0.147,-0.611 -0.521,-1.199 -0.794,-1.762 -0.132,-0.273 -0.27,-0.536 -0.423,-0.786 0.003,0.002 0.006,0.004 0.008,0.006 0.499,0.357 0.993,0.648 1.436,1.081 0.397,0.389 0.804,0.832 1.076,1.317 0.144,0.256 0.257,0.485 0.528,0.612 0.102,0.047 0.203,-0.105 0.228,-0.18 0.344,-1.007 -0.219,-2.042 -0.534,-2.989 -0.39,-1.166 -1.369,-2.145 -2.157,-3.146 0.397,0.131 0.661,0.333 1.037,0.522 0.507,0.255 0.99,0.514 1.424,0.886 0.356,0.305 0.542,0.793 0.884,1.122 0.178,0.171 0.308,-0.262 0.267,-0.383 -1.01,-3.011 -2.004,-5.916 -4.34,-8.18 z"
   id="path45" />
						</g>
						<g
   style="opacity:0.4"
   id="g47">
							<path
   style="fill:#6c6b6b"
   d="m 276.97,139.327 c 2.066,0.713 4.125,1.601 5.72,3.099 -0.568,-0.939 -1.425,-1.683 -2.211,-2.457 -0.117,-0.115 -0.03,-0.378 0.158,-0.315 0.992,0.33 1.936,0.788 2.93,1.104 -0.606,-0.519 -1.312,-0.912 -1.88,-1.481 -0.116,-0.117 -0.052,-0.298 0.111,-0.319 1.377,-0.177 2.758,-0.129 4.139,-0.221 1.582,-0.104 3.087,-0.506 4.577,-1.036 3.106,-1.104 5.922,-2.735 8.476,-4.813 2.368,-1.928 4.601,-4.064 6.096,-6.759 1.276,-2.302 2.039,-4.858 3.618,-6.991 0.117,-0.158 0.338,-0.009 0.315,0.157 -0.171,1.188 -0.351,2.374 -0.321,3.572 0.972,-2.023 1.871,-4.078 3.343,-5.804 0.102,-0.12 0.313,-0.05 0.318,0.11 0.023,0.785 -0.101,1.551 -0.271,2.31 0.657,-1.179 1.555,-2.245 2.605,-3.124 0.141,-0.184 0.282,-0.368 0.428,-0.547 1.481,-1.821 3.234,-3.578 5.512,-4.334 0.123,-0.041 0.275,0.074 0.236,0.21 -0.165,0.574 -0.449,1.083 -0.741,1.591 2.244,-1.636 5.029,-2.866 7.823,-2.303 0.153,0.031 0.198,0.244 0.065,0.33 -0.834,0.536 -1.784,0.859 -2.629,1.361 2.775,-0.605 5.714,-0.733 8.424,0.219 2.72,0.955 4.848,2.832 6.427,5.181 -0.471,-1.896 -1.403,-3.58 -2.371,-5.295 -0.086,-0.152 0.06,-0.352 0.233,-0.265 0.688,0.349 1.348,0.728 1.96,1.185 -0.331,-0.842 -0.706,-1.665 -1.007,-2.519 -0.058,-0.165 0.114,-0.27 0.254,-0.22 2.561,0.899 4.635,2.767 5.839,5.172 -0.835,-2.302 -1.841,-4.468 -3.67,-6.24 -1.421,-1.375 -3.118,-2.423 -4.972,-3.034 -1.794,-0.896 -3.807,-1.417 -5.804,-1.612 -4.459,-0.434 -9.897,0.957 -13.134,4.279 0.176,-0.276 0.341,-0.558 0.451,-0.872 0.026,-0.072 0.053,-0.31 -0.092,-0.286 -0.535,0.087 -0.947,0.433 -1.387,0.728 -0.824,0.551 -1.596,1.151 -2.339,1.806 -0.668,0.587 -1.31,1.146 -1.91,1.809 -0.527,0.581 -0.952,1.236 -1.457,1.831 0.1,-0.88 0.951,-2.031 1.409,-2.59 0.095,-0.115 0.121,-0.522 -0.115,-0.357 -3.336,2.343 -5.85,5.546 -8.109,8.898 -1.194,1.773 -2.204,3.647 -3.346,5.451 -1.298,2.052 -3.03,3.849 -4.948,5.333 -3.79,2.931 -8.379,4.259 -13.081,4.766 -2.249,0.242 -4.525,0.309 -6.786,0.269 -2.311,-0.042 -4.59,-0.484 -6.85,-0.932 -10e-4,-0.01 0,-0.021 -0.003,-0.03 -0.025,-0.078 -0.05,-0.155 -0.075,-0.232 -0.05,-0.157 -0.251,0.102 -0.217,0.212 0.124,0.41 0.207,0.831 0.266,1.258 1.111,0.357 2.206,0.763 3.303,1.169 1.551,0.572 3.13,1.038 4.69,1.578 z"
   id="path46" />
						</g>
					</g>
					<g
   id="g60">
						<g
   id="g56">
							<g
   id="g49">
								<path
   style="fill:#5c5d60"
   d="m 232.568,176.786 c -0.603,-0.929 -1.855,-1.535 -2.887,-1.772 -1.762,-0.406 -3.346,0.179 -3.907,1.808 -1.713,-2.053 -3.487,-4.056 -5.343,-5.979 -2.092,-2.168 -4.294,-4.226 -6.555,-6.215 -2.308,-2.031 -4.549,-4.179 -6.999,-6.041 -1.096,-0.833 -3.61,-2.472 -4.916,-1.126 -0.602,0.619 -0.572,1.41 -0.29,2.19 -0.797,0.126 -1.494,0.549 -1.627,1.52 -0.056,0.417 -0.007,0.815 0.101,1.2 -0.585,-0.084 -1.211,0.032 -1.479,0.605 -0.081,0.17 -0.131,0.338 -0.166,0.503 -0.143,0.455 -0.163,0.972 -0.034,1.398 0.338,1.107 1.132,1.796 2.049,2.397 1.338,1.124 2.949,2.048 4.137,2.858 0.63,0.428 1.248,0.873 1.859,1.326 1.809,1.181 3.577,2.421 5.289,3.74 4.369,3.363 8.02,7.47 11.808,11.445 1.931,2.027 7.244,8.247 10.213,4.611 1.08,-1.323 0.988,-3.493 0.868,-5.079 -0.16,-2.117 -0.777,-4.196 -1.433,-6.229 -0.093,-1.056 -0.1,-2.255 -0.688,-3.16 z"
   id="path48" />
							</g>
							<g
   id="g50">
								<path
   style="fill:#434547"
   d="m 232.793,185.834 c -1.074,-1.724 -2.175,-3.388 -3.345,-5.048 -1.191,-1.689 -2.705,-3.131 -4.085,-4.659 -0.059,-0.064 -0.152,0.098 -0.105,0.153 1.334,1.599 2.731,3.131 4.003,4.78 1.24,1.605 2.17,3.405 3.35,5.043 0.088,0.121 0.249,-0.165 0.182,-0.269 z"
   id="path49" />
							</g>
							<g
   id="g51">
								<path
   style="fill:#434547"
   d="m 215.705,171.181 c -2.136,-2.169 -4.393,-4.316 -6.812,-6.165 -2.419,-1.85 -6.038,-3.171 -7.351,-6.097 -0.056,-0.124 -0.197,0.083 -0.164,0.169 0.969,2.62 3.914,3.961 6.103,5.405 2.982,1.969 5.33,4.65 8.105,6.864 0.079,0.064 0.179,-0.116 0.119,-0.176 z"
   id="path50" />
							</g>
							<g
   id="g52">
								<path
   style="fill:#434547"
   d="m 206.587,167.826 c -2.348,-1.826 -5.199,-3.369 -6.508,-6.154 -0.073,-0.154 -0.244,0.103 -0.203,0.211 1.026,2.774 3.804,4.285 6.047,5.998 2.536,1.937 4.775,4.017 6.971,6.323 0.077,0.082 0.186,-0.121 0.13,-0.193 -1.849,-2.405 -4.051,-4.331 -6.437,-6.185 z"
   id="path51" />
							</g>
							<g
   style="opacity:0.3"
   id="g53">
								<path
   style="fill:#5c5d60"
   d="m 232.568,176.786 c -0.603,-0.929 -1.855,-1.535 -2.887,-1.772 -1.641,-0.378 -3.115,0.114 -3.764,1.496 1.225,2.408 2.216,4.94 3.012,7.501 0.083,0.266 -0.289,0.476 -0.476,0.269 -1.048,-1.162 -1.81,-2.512 -2.753,-3.755 -1.193,-1.573 -2.362,-3.164 -3.569,-4.727 -2.278,-2.949 -4.743,-5.713 -7.358,-8.368 -2.178,-2.21 -4.293,-4.617 -6.7,-6.584 -1.127,-0.92 -2.517,-2.001 -3.996,-2.261 -2.599,-0.457 -1.493,2.272 -0.376,3.21 0.248,0.209 -0.08,0.62 -0.347,0.444 -0.663,-0.44 -2.175,-1.579 -2.749,-0.3 -0.434,0.971 0.271,1.666 0.91,2.176 0.226,0.179 -0.021,0.559 -0.279,0.472 -1.512,-0.509 -2.293,0.319 -2.168,1.432 0.39,0.497 0.894,0.893 1.447,1.255 1.338,1.124 2.949,2.048 4.137,2.858 0.63,0.428 1.248,0.873 1.859,1.326 1.809,1.181 3.577,2.421 5.289,3.74 4.369,3.363 8.02,7.47 11.808,11.445 1.931,2.027 7.244,8.247 10.213,4.611 1.08,-1.323 0.988,-3.493 0.868,-5.079 -0.16,-2.117 -0.777,-4.196 -1.433,-6.229 -0.093,-1.056 -0.1,-2.255 -0.688,-3.16 z"
   id="path52" />
							</g>
							<g
   style="opacity:0.3"
   id="g54">
								<path
   style="fill:#5c5d60"
   d="m 232.568,176.786 c -0.603,-0.929 -1.855,-1.535 -2.887,-1.772 -1.419,-0.328 -2.711,10e-4 -3.456,0.989 2.658,3.691 4.922,7.507 5.589,12.203 0.195,1.372 0.012,3.397 -1.75,3.64 -0.13,0.017 -0.255,0.026 -0.379,0.03 1.507,0.714 2.993,0.775 4.133,-0.622 1.08,-1.323 0.988,-3.493 0.868,-5.079 -0.16,-2.117 -0.777,-4.196 -1.433,-6.229 -0.09,-1.056 -0.097,-2.255 -0.685,-3.16 z"
   id="path53" />
							</g>
							<g
   style="opacity:0.3"
   id="g55">
								<path
   style="fill:#5c5d60"
   d="m 202.997,166.468 c 3.342,1.991 6.042,4.686 8.974,7.175 -0.98,-1.412 -2.149,-2.681 -3.413,-3.861 -1.416,-1.321 -2.992,-2.407 -4.452,-3.666 -0.396,-0.343 -3.152,-3.098 -0.929,-2.939 1.588,0.114 3.355,1.167 4.673,2.006 1.249,0.792 2.49,1.61 3.674,2.499 -0.611,-0.601 -1.238,-1.191 -1.878,-1.767 -1.458,-1.317 -3.265,-2.574 -4.389,-4.217 -0.517,-0.758 -1.085,-2.278 0.198,-2.643 -0.447,-0.216 -0.907,-0.389 -1.377,-0.471 -2.599,-0.457 -1.493,2.272 -0.376,3.21 0.248,0.209 -0.08,0.62 -0.347,0.444 -0.663,-0.44 -2.175,-1.579 -2.749,-0.3 -0.434,0.971 0.271,1.666 0.91,2.176 0.226,0.179 -0.021,0.559 -0.279,0.472 -1.124,-0.379 -1.843,-0.017 -2.088,0.65 1.096,-0.194 2.801,0.608 3.848,1.232 z"
   id="path54" />
							</g>
						</g>
						<g
   id="g57">
							<path
   style="fill:#747679"
   d="m 258.974,159.089 c -0.465,-0.692 -1.315,-0.6 -2.075,-0.723 -1.841,-0.299 -3.664,-0.567 -5.464,-1.076 -3.479,-0.983 -6.721,-2.736 -9.809,-4.577 -5.121,-3.053 -9.907,-6.609 -14.961,-9.758 -0.008,-0.042 -0.025,-0.081 -0.06,-0.105 -3.493,-2.42 -7.283,-4.566 -11.514,-2.564 -3.214,1.521 -4.594,5.154 -4.842,8.47 -0.367,4.897 1.742,9.699 4.027,13.89 2.209,4.05 5.36,7.661 8.84,10.741 1.068,1.877 1.42,3.819 1.431,6.245 0.001,0.295 0.246,0.312 0.402,0.088 0.543,-0.787 0.773,-1.738 0.983,-2.678 0.189,1.236 -0.451,2.461 -0.369,3.701 0.01,0.149 0.165,0.233 0.285,0.131 0.977,-0.818 1.315,-2.325 1.436,-3.696 0.441,1.533 0.031,3.28 0.101,4.819 0.015,0.342 0.393,0.098 0.46,-0.08 0.488,-1.271 0.816,-2.322 1.018,-3.544 1.231,1.491 1.764,3.903 3.598,4.777 0.246,0.118 0.461,-0.344 0.423,-0.528 -0.196,-0.941 -0.498,-1.846 -0.797,-2.757 0.718,1.19 1.603,2.298 2.609,2.837 0.256,0.137 0.488,-0.375 0.449,-0.561 -0.227,-1.081 -0.799,-2.075 -1.16,-3.12 -0.201,-0.583 -0.363,-1.163 -0.505,-1.745 -0.811,-3.781 -0.994,-7.479 2.789,-9.895 1.535,-0.98 3.645,-1.226 5.397,-1.56 2.113,-0.403 4.216,-0.862 6.323,-1.299 2.664,-0.552 5.876,-0.668 8.28,-2.063 0.689,-0.401 3.498,-2.195 2.705,-3.37 z"
   id="path56" />
						</g>
						<g
   id="g58">
							<path
   style="fill:#747679"
   d="m 218.113,166.541 c -3.225,-4.044 -5.929,-8.798 -6.649,-14 -0.612,-4.427 0.099,-9.376 3.832,-12.293 0.055,-0.041 0.112,-0.076 0.167,-0.116 -0.124,0.052 -0.247,0.096 -0.371,0.155 -3.214,1.521 -4.594,5.154 -4.842,8.47 -0.367,4.897 1.742,9.699 4.027,13.89 2.187,4.011 5.3,7.589 8.74,10.651 -1.319,-2.459 -3.172,-4.586 -4.904,-6.757 z"
   id="path57" />
						</g>
						<g
   style="opacity:0.5"
   id="g59">
							<path
   style="fill:#74777e"
   d="m 258.974,159.089 c -0.465,-0.692 -1.315,-0.6 -2.075,-0.723 -1.841,-0.299 -3.664,-0.567 -5.464,-1.076 -3.479,-0.983 -6.721,-2.736 -9.809,-4.577 -5.121,-3.053 -9.907,-6.609 -14.961,-9.758 -0.008,-0.042 -0.025,-0.081 -0.06,-0.105 -3.493,-2.42 -7.283,-4.566 -11.514,-2.564 -0.077,0.036 -0.147,0.079 -0.221,0.119 0.694,0.724 0.757,2.479 1.015,3.27 1.237,3.792 3.74,7.214 6.458,10.087 1.336,1.412 2.71,2.759 4.307,3.878 1.327,0.929 2.656,1.827 3.793,2.989 0.211,0.215 -0.011,0.523 -0.279,0.472 -0.872,-0.167 -1.736,-0.404 -2.585,-0.693 1.128,0.906 2.176,1.92 3.181,2.971 0.232,0.242 -0.062,0.583 -0.346,0.444 -1.293,-0.632 -2.646,-1.096 -4.004,-1.551 4.337,3.479 5.885,9.406 5.579,14.879 -0.019,0.33 -0.455,0.365 -0.559,0.065 -0.633,-1.813 -1.14,-3.753 -2.212,-5.361 0.346,1.797 1.335,3.493 0.902,5.357 -0.07,0.302 -0.457,0.235 -0.548,-0.007 -0.772,-2.07 -1.337,-4.238 -2.613,-6.048 0.156,1.866 0.405,3.648 -0.679,5.345 -0.157,0.243 -0.519,0.135 -0.528,-0.149 -0.066,-2.167 -0.555,-4.159 -1.521,-6.017 0.292,1.178 0.592,2.343 0.582,3.584 -0.003,0.327 -0.471,0.371 -0.559,0.066 -1.115,-3.891 -5.105,-5.535 -7.944,-8.097 1.943,2.754 4.287,5.268 6.807,7.5 1.068,1.877 1.42,3.819 1.431,6.245 0.001,0.295 0.246,0.312 0.402,0.088 0.543,-0.787 0.773,-1.738 0.983,-2.678 0.189,1.236 -0.451,2.461 -0.369,3.701 0.01,0.149 0.165,0.233 0.285,0.131 0.977,-0.818 1.315,-2.325 1.436,-3.696 0.441,1.533 0.031,3.28 0.101,4.819 0.015,0.342 0.393,0.098 0.46,-0.08 0.488,-1.271 0.816,-2.322 1.018,-3.544 1.231,1.491 1.764,3.903 3.598,4.777 0.246,0.118 0.461,-0.344 0.423,-0.528 -0.196,-0.941 -0.498,-1.846 -0.797,-2.757 0.718,1.19 1.603,2.298 2.609,2.837 0.256,0.137 0.488,-0.375 0.449,-0.561 -0.227,-1.081 -0.799,-2.075 -1.16,-3.12 -0.201,-0.583 -0.363,-1.163 -0.505,-1.745 -0.811,-3.781 -0.994,-7.479 2.789,-9.895 1.535,-0.98 3.645,-1.226 5.397,-1.56 2.113,-0.403 4.216,-0.862 6.323,-1.299 2.664,-0.552 5.876,-0.668 8.28,-2.063 0.688,-0.403 3.497,-2.197 2.704,-3.372 z"
   id="path58" />
						</g>
					</g>
					<g
   id="g61">
						<path
   style="fill:#9a9da5"
   d="m 287.375,127.871 c -2.961,-6.379 -8.348,-11.964 -13.12,-16.463 -7.387,-6.962 -6.706,-18.119 -10.112,-30.039 -0.72,-2.52 -5.363,-8.996 -11.353,-7.38 -0.403,0.109 -9.48,-0.917 -10.328,-0.498 -2.39,1.179 -4.938,2.369 -7.5,3.124 -0.23,0.067 -0.448,0.605 -0.074,0.516 0.013,-0.002 0.026,-0.008 0.04,-0.012 -4.081,5.147 -7.068,11.291 -9.854,17.224 -1.461,3.111 -2.389,6.461 -3.536,9.693 -0.578,1.63 -1.211,3.233 -1.736,4.883 -0.503,1.576 -0.678,3.674 -1.408,5.131 -0.112,0.223 0.02,0.3 0.161,0.252 -1.295,4.749 -2.18,9.574 -2.018,14.573 0.076,2.341 0.368,4.691 0.852,7.008 0.328,2.925 0.778,5.828 1.58,8.699 1.279,4.581 3.416,8.895 6.264,12.698 9.777,13.053 27.672,16.052 42.196,9.947 3.727,-1.565 7.877,-3.777 10.938,-6.451 6.386,-5.583 10.806,-13.898 11.234,-22.429 0.185,-3.676 -0.696,-7.182 -2.226,-10.476 z"
   id="path60" />
					</g>
					<g
   style="opacity:0.5"
   id="g62">
						<path
   style="fill:#74777e"
   d="m 287.375,127.871 c -2.961,-6.379 -8.348,-11.964 -13.12,-16.463 -7.387,-6.962 -6.706,-18.119 -10.112,-30.039 -0.72,-2.52 -5.363,-8.996 -11.353,-7.38 -0.403,0.109 -9.48,-0.917 -10.328,-0.498 -2.39,1.179 -4.937,2.369 -7.5,3.124 -0.23,0.067 -0.448,0.605 -0.074,0.516 0.013,-0.002 0.026,-0.008 0.04,-0.012 -4.081,5.147 -7.068,11.291 -9.854,17.224 -1.461,3.111 -2.389,6.461 -3.536,9.693 -0.578,1.63 -1.211,3.233 -1.736,4.883 -0.496,1.554 -0.676,3.615 -1.381,5.069 1.224,2.811 2.544,6.469 4.834,8.504 2.319,2.061 4.729,2.947 7.825,3.387 3.041,0.432 7.03,-0.801 9.766,-2.109 1.474,-0.705 2.896,-1.574 4.1,-2.685 1.074,-0.991 1.996,-2.211 2.316,-3.661 0.037,-0.17 0.3,-0.166 0.339,0 0.24,1.018 0.102,2.032 -0.046,3.046 1.748,-2.687 3.113,-5.649 3.126,-8.917 10e-4,-0.172 0.242,-0.243 0.328,-0.089 0.528,0.948 0.712,2.019 1.049,3.038 0.392,-1.816 0.683,-3.651 0.966,-5.487 0.029,-0.191 0.285,-0.141 0.339,0 0.615,1.583 1.276,3.148 2.02,4.675 1.197,2.456 2.616,4.809 4.34,6.933 1.799,2.216 3.901,4.163 6.173,5.884 0.114,0.087 0.118,0.279 -0.042,0.322 -2.052,0.551 -4.073,1.348 -5.669,2.759 1.904,-0.734 3.861,-1.201 5.934,-1.08 0.157,0.009 0.261,0.251 0.089,0.328 -0.623,0.277 -1.236,0.576 -1.836,0.9 -4.702,2.548 -8.291,6.609 -10.648,11.375 -0.576,1.164 -1.095,2.363 -1.522,3.591 -0.384,1.103 -0.697,2.23 -1.006,3.356 -0.649,2.364 -1.264,4.765 -2.328,6.984 -1.015,2.117 -2.501,3.966 -4.64,5.019 -2.333,1.148 -5.028,1.285 -7.564,0.902 -2.61,-0.394 -5.167,-1.339 -7.422,-2.708 -2.328,-1.414 -4.341,-3.365 -6.048,-5.473 -1.031,-1.273 -1.959,-2.626 -2.796,-4.034 1.24,3.035 2.869,5.907 4.837,8.535 9.777,13.053 27.672,16.052 42.196,9.947 3.727,-1.565 7.877,-3.777 10.938,-6.451 6.386,-5.583 10.806,-13.898 11.234,-22.429 0.183,-3.679 -0.698,-7.185 -2.228,-10.479 z"
   id="path61" />
					</g>
					<g
   id="g63">
						<path
   style="fill:#c7c8ca"
   d="m 252.996,88.312 c 0.794,0.693 1.699,1.255 2.431,2.019 0.169,0.176 0.579,-0.102 0.417,-0.292 -1.653,-1.951 -2.482,-4.491 -2.472,-7.031 0.011,-2.642 1.054,-5.095 1.375,-7.692 0.149,-1.202 0.139,-2.525 -0.366,-3.649 -0.399,-0.889 -1.11,-1.55 -1.989,-1.956 -0.886,-0.41 -1.877,-0.561 -2.846,-0.594 -1.129,-0.039 -2.277,0.069 -3.371,0.358 -0.935,0.247 -1.785,0.635 -2.576,1.118 -0.025,0.008 -0.051,0.014 -0.076,0.022 -1.467,0.438 -2.929,0.882 -4.248,1.68 -1.406,0.851 -2.588,2.018 -3.635,3.273 -0.674,0.808 -1.295,1.637 -1.807,2.558 -0.516,0.927 -0.959,1.893 -1.496,2.808 -1.071,1.826 -2.608,3.169 -4.235,4.484 -0.146,0.118 -0.267,0.371 -0.026,0.463 1.014,0.387 2.124,-0.265 2.922,-0.844 0.718,-0.522 1.334,-1.138 1.957,-1.756 -0.957,1.75 -2.569,3.063 -4.169,4.268 -0.084,0.063 -0.237,0.286 -0.073,0.368 0.906,0.45 2.088,-0.296 2.827,-0.774 0.054,-0.035 0.11,-0.074 0.165,-0.11 -2.144,3.4 -4.485,6.768 -7.961,8.9 -1.163,0.714 -2.431,1.246 -3.753,1.581 -0.218,0.055 -0.51,0.413 -0.186,0.543 0.862,0.348 1.8,0.35 2.719,0.184 -0.528,0.35 -1.058,0.695 -1.59,1.041 -1.782,1.158 -3.485,2.613 -3.925,4.792 -0.054,0.268 0.33,0.225 0.456,0.137 1.374,-0.952 2.747,-1.906 4.304,-2.529 -0.025,0.029 -0.053,0.057 -0.078,0.086 -1.408,1.626 -2.515,3.5 -3.094,5.582 -0.363,1.307 -0.523,2.658 -0.578,4.011 -0.013,0.324 0.429,0.18 0.533,0.01 0.731,-1.195 1.603,-2.3 2.614,-3.271 0.009,-0.008 0.018,-0.015 0.027,-0.023 -0.919,1.986 -1.289,4.148 -0.974,6.617 0.617,4.83 4.009,9.731 9.634,10.411 1.512,0.183 2.905,0.086 4.189,-0.232 1.543,0.022 3.051,-0.658 4.371,-1.398 2.571,-1.442 4.535,-3.697 5.492,-6.496 0.132,-0.387 0.242,-0.777 0.332,-1.17 0.125,0.8 0.253,1.6 0.447,2.385 0.05,0.201 0.345,0.081 0.413,-0.042 0.789,-1.427 1.103,-3.085 1.099,-4.748 0.061,-0.062 0.124,-0.119 0.184,-0.184 0.222,0.942 0.408,1.898 0.937,2.725 0.107,0.168 0.376,0.026 0.451,-0.099 0.913,-1.53 1.488,-3.254 1.856,-4.991 0.299,-1.414 0.46,-2.863 0.441,-4.31 0.225,0.421 0.45,0.84 0.676,1.26 0.094,0.176 0.388,0.02 0.453,-0.099 0.606,-1.103 0.621,-2.494 0.551,-3.718 -0.025,-0.436 -0.071,-0.87 -0.129,-1.304 0.201,0.312 0.394,0.629 0.566,0.963 0.408,0.793 0.754,1.617 1.171,2.406 0.12,0.227 0.479,-0.047 0.494,-0.218 0.114,-1.347 0.369,-2.681 0.417,-4.033 0.032,-0.918 -0.063,-1.835 -0.21,-2.74 0.474,0.802 0.949,1.603 1.449,2.389 0.067,0.106 0.265,-0.013 0.261,-0.115 -0.044,-1.229 -0.077,-2.429 -0.302,-3.643 -0.224,-1.211 -0.617,-2.371 -1.139,-3.485 -0.704,-1.501 -1.604,-2.9 -2.38,-4.363 0.932,1.112 1.986,2.118 3.081,3.087 0.188,0.166 0.5,-0.151 0.408,-0.35 -0.23,-0.496 -0.59,-0.891 -0.965,-1.281 -0.374,-0.389 -0.688,-0.799 -0.964,-1.264 -0.463,-0.779 -0.849,-1.608 -1.198,-2.448 0.209,0.255 0.435,0.499 0.691,0.723 z"
   id="path62" />
					</g>
					<g
   id="g64">
						<path
   style="fill:#c7c8ca"
   d="m 252.996,88.312 c 0.794,0.693 1.699,1.255 2.431,2.019 0.169,0.176 0.579,-0.102 0.417,-0.292 -1.653,-1.951 -2.482,-4.491 -2.472,-7.031 0.011,-2.642 1.054,-5.095 1.375,-7.692 0.149,-1.202 0.139,-2.525 -0.366,-3.649 -0.399,-0.889 -1.11,-1.55 -1.989,-1.956 -0.235,-0.109 -0.478,-0.198 -0.725,-0.273 0.535,0.885 0.853,1.9 1.059,2.906 0.308,1.503 0.395,3.049 0.397,4.58 0.003,2.668 -0.344,5.303 -0.494,7.961 -0.007,0.13 -0.145,0.224 -0.265,0.152 -0.73,-0.437 -1.256,-1.088 -1.675,-1.818 0.189,0.692 0.369,1.387 0.532,2.086 0.04,0.174 -0.163,0.289 -0.294,0.171 -0.738,-0.664 -1.334,-1.456 -1.966,-2.216 0.67,1.274 1.431,2.502 1.793,3.914 0.043,0.169 -0.169,0.297 -0.294,0.171 -0.903,-0.904 -1.782,-1.845 -2.809,-2.604 0.459,0.655 0.909,1.316 1.33,1.995 0.928,1.497 1.732,3.075 2.297,4.746 0.605,1.791 0.913,3.663 1,5.549 0.007,0.16 -0.194,0.222 -0.3,0.124 -0.78,-0.716 -1.446,-1.538 -2.127,-2.347 0.483,0.915 0.853,1.894 1.137,2.877 0.048,0.165 -0.174,0.302 -0.294,0.171 -0.939,-1.027 -1.817,-2.125 -2.854,-3.053 0.242,0.369 0.469,0.748 0.674,1.14 0.691,1.32 1.147,2.762 1.257,4.252 0.116,1.57 -0.176,3.137 -0.768,4.591 -0.051,0.127 -0.247,0.193 -0.322,0.042 -0.402,-0.81 -0.744,-1.647 -1.095,-2.479 0.04,0.352 0.059,0.707 0.057,1.062 -0.011,1.905 -0.537,3.79 -1.243,5.547 -0.683,1.702 -1.552,3.329 -2.554,4.864 -0.083,0.127 -0.277,0.107 -0.322,-0.042 -0.341,-1.126 -0.502,-2.313 -0.893,-3.421 0.118,2.349 -0.987,4.603 -2.466,6.374 -1.632,1.953 -3.83,3.524 -6.24,4.359 -1.137,0.394 -2.337,0.623 -3.535,0.392 -1.096,-0.212 -2.077,-0.802 -2.869,-1.577 -1.783,-1.745 -2.722,-4.28 -3.31,-6.654 -0.375,-1.512 -0.513,-3.073 -0.376,-4.626 0.131,-1.495 0.491,-2.956 0.927,-4.389 -0.614,0.097 -1.16,0.493 -1.628,0.882 -0.566,0.472 -1.076,1.005 -1.624,1.496 -0.117,0.105 -0.29,0.03 -0.301,-0.125 -0.207,-3.039 2.454,-5.054 3.708,-7.561 -0.888,0.228 -1.753,0.538 -2.577,0.942 -2.007,0.984 -3.792,2.499 -4.975,4.38 0.039,-0.012 0.075,-0.026 0.1,-0.043 1.374,-0.952 2.747,-1.906 4.304,-2.529 -0.025,0.029 -0.053,0.057 -0.078,0.086 -1.408,1.626 -2.515,3.5 -3.094,5.582 -0.363,1.307 -0.523,2.658 -0.578,4.011 -0.013,0.324 0.429,0.18 0.533,0.01 0.731,-1.195 1.603,-2.3 2.614,-3.271 0.009,-0.008 0.018,-0.015 0.027,-0.023 -0.919,1.986 -1.289,4.148 -0.974,6.617 0.617,4.83 4.009,9.731 9.634,10.411 1.512,0.183 2.905,0.086 4.189,-0.232 1.543,0.022 3.051,-0.658 4.371,-1.398 2.571,-1.442 4.535,-3.697 5.492,-6.496 0.132,-0.387 0.242,-0.777 0.332,-1.17 0.125,0.8 0.252,1.6 0.447,2.385 0.05,0.201 0.345,0.081 0.413,-0.042 0.789,-1.427 1.103,-3.085 1.099,-4.748 0.061,-0.062 0.124,-0.119 0.184,-0.184 0.222,0.942 0.408,1.898 0.937,2.725 0.107,0.168 0.376,0.026 0.451,-0.099 0.913,-1.53 1.488,-3.254 1.856,-4.991 0.299,-1.414 0.46,-2.863 0.441,-4.31 0.225,0.421 0.45,0.84 0.676,1.26 0.094,0.176 0.388,0.02 0.453,-0.099 0.606,-1.103 0.621,-2.494 0.551,-3.718 -0.025,-0.436 -0.071,-0.87 -0.129,-1.304 0.201,0.312 0.394,0.629 0.566,0.963 0.408,0.793 0.754,1.617 1.171,2.406 0.12,0.227 0.479,-0.047 0.494,-0.219 0.114,-1.347 0.369,-2.681 0.417,-4.033 0.032,-0.918 -0.063,-1.835 -0.21,-2.74 0.474,0.802 0.949,1.603 1.449,2.389 0.067,0.106 0.265,-0.013 0.261,-0.115 -0.044,-1.229 -0.077,-2.429 -0.302,-3.643 -0.224,-1.211 -0.617,-2.371 -1.139,-3.485 -0.704,-1.501 -1.604,-2.9 -2.38,-4.363 0.932,1.112 1.986,2.118 3.081,3.087 0.188,0.166 0.5,-0.151 0.408,-0.35 -0.23,-0.496 -0.59,-0.891 -0.965,-1.281 -0.374,-0.389 -0.688,-0.799 -0.964,-1.264 -0.463,-0.779 -0.849,-1.608 -1.198,-2.448 0.209,0.258 0.434,0.502 0.691,0.726 z"
   id="path63" />
					</g>
					<g
   id="g104">
						<g
   id="g103">
							<g
   id="g102">
								<g
   id="g65">
									<path
   style="fill:#9a9da5"
   d="m 298.504,45.832 c 1.59,-1.218 3.082,-2.582 4.411,-4.084 0.651,-0.736 1.967,-2.301 1.203,-3.39 -1.047,-1.493 -2.936,-1.996 -4.614,-2.443 -2.363,-0.629 -4.727,-1.133 -7.157,-1.418 -2.556,-0.3 -5.127,-0.324 -7.666,-0.049 -0.548,-1.023 -1.212,-1.99 -1.898,-2.951 -1.458,-2.04 -2.935,-4.088 -4.758,-5.823 -3.882,-3.693 -9.026,-6.266 -13.906,-8.354 -4.713,-2.017 -9.337,-2.81 -14.434,-2.991 -2.775,-0.098 -5.372,0.32 -7.888,1.1 -1.041,-1.615 -2.226,-3.135 -3.574,-4.511 -1.399,-1.428 -3.046,-2.565 -4.762,-3.577 -0.856,-0.505 -2.465,-1.466 -3.5,-0.934 -1.004,0.515 -1.325,1.303 -1.644,2.362 -0.581,1.935 -0.759,4.054 -0.995,6.054 -0.427,3.609 -0.404,6.935 0.406,10.366 -3.548,0.865 -6.951,2.139 -10.257,3.829 -1.906,0.975 -3.571,2.393 -5.114,3.857 -1.498,1.421 -3.151,3.07 -4.055,4.947 -0.076,0.156 0.015,0.336 0.206,0.31 1.2,-0.158 2.385,-1.088 3.554,-1.47 1.625,-0.532 3.51,-0.867 5.291,-1.023 -0.879,0.445 -1.742,0.863 -2.576,1.519 -1.667,1.311 -3.155,2.578 -4.619,4.118 -0.192,0.202 -0.191,0.542 0.174,0.448 1.477,-0.384 2.846,-1.063 4.367,-1.391 1.08,-0.233 2.112,-0.483 3.184,-0.606 -2.238,1.229 -4.356,2.73 -5.973,4.723 -0.603,0.741 -1.461,1.647 -1.061,2.646 0.297,0.743 2.702,0.631 3.265,0.719 5.473,0.857 6.963,5.133 6.433,10.132 -0.61,5.755 -4.975,14.298 1.462,18.394 5.33,3.392 12.547,4.779 18.707,3.292 3.964,-0.957 7.624,-2.845 11.554,-3.91 6.721,-1.822 13.968,-2.072 20.892,-2.092 4.076,-0.012 8.174,0.191 12.148,1.16 1.56,0.38 3.113,0.864 4.569,1.546 0.317,0.148 0.639,0.309 0.955,0.486 0.559,-1.072 0.285,-2.528 0.173,-3.657 -0.099,-0.998 -0.317,-1.976 -0.634,-2.92 0.321,0.433 0.631,0.875 0.907,1.358 0.442,0.775 0.764,1.633 0.951,2.503 0.083,0.386 0.047,0.787 0.271,1.128 0.167,0.257 0.618,-0.09 0.659,-0.295 0.37,-1.87 0.093,-3.886 -0.071,-5.766 -0.088,-0.989 -0.285,-1.955 -0.597,-2.881 0.998,1.342 1.765,2.876 2.239,4.441 0.109,0.359 0.686,0.002 0.724,-0.249 0.3,-1.993 0.259,-4.168 0.296,-6.188 0.044,-2.342 -0.26,-4.51 -1.059,-6.716 -0.748,-2.063 -1.925,-3.875 -3.292,-5.574 -0.241,-0.299 -0.522,-0.654 -0.831,-1.021 2.79,-1.477 5.441,-3.244 7.934,-5.154 z"
   id="path64" />
								</g>
								<g
   id="g66">
									<path
   style="fill:#fffce1"
   d="m 288.51,68.68 c -0.878,-2.776 -2.178,-5.392 -3.656,-7.894 -0.085,-0.144 0.063,-0.343 0.226,-0.255 2.164,1.179 4.627,2.244 6.377,4.04 -0.807,-1.581 -1.768,-3.08 -2.908,-4.444 -4.903,-5.87 -12.39,-8.184 -19.766,-8.862 -0.195,-0.018 -0.159,-0.273 -0.023,-0.339 3.517,-1.692 7.391,-1.982 11.206,-2.443 -1.161,-1.79 -2.751,-3.211 -4.658,-4.182 -1.724,-0.878 -3.613,-1.387 -5.514,-1.706 -1.949,-0.327 -3.921,-0.469 -5.891,-0.274 -3.782,0.375 -7.222,2.026 -10.633,3.587 -0.149,0.068 -0.272,-0.119 -0.214,-0.246 1.363,-2.997 3.659,-5.426 5.963,-7.74 -2.893,1.336 -5.61,3.117 -7.597,5.645 -0.111,0.141 -0.337,0.013 -0.304,-0.151 0.301,-1.492 0.664,-2.971 0.884,-4.478 0.191,-1.302 0.361,-2.771 -0.024,-4.066 -1.103,2.599 -2.133,5.23 -3.371,7.77 -0.102,0.208 -0.391,0.049 -0.314,-0.159 0.37,-1.003 0.62,-2.051 0.819,-3.1 0.433,-2.283 0.628,-4.661 0.354,-6.976 -0.218,-1.838 -0.792,-3.951 -2.391,-5.05 0.472,2 0.884,4.075 0.207,6.077 -0.049,0.146 -0.289,0.212 -0.339,0.023 -0.834,-3.133 -2.529,-5.982 -5.642,-7.249 -2.677,-1.089 -5.858,-1.031 -8.667,-0.59 -3.111,0.489 -6.173,1.324 -9.137,2.384 -3.209,1.147 -6.338,2.578 -9.218,4.409 -2.015,1.281 -3.955,2.784 -5.528,4.599 -0.163,0.266 -0.316,0.536 -0.449,0.813 -0.076,0.156 0.015,0.336 0.206,0.31 1.2,-0.158 2.385,-1.088 3.554,-1.47 1.625,-0.532 3.51,-0.867 5.291,-1.023 -0.879,0.445 -1.742,0.863 -2.576,1.519 -1.667,1.311 -3.155,2.578 -4.619,4.118 -0.192,0.202 -0.191,0.542 0.174,0.448 1.477,-0.384 2.846,-1.063 4.367,-1.391 1.08,-0.233 2.112,-0.483 3.184,-0.606 -2.238,1.229 -4.356,2.73 -5.973,4.723 -0.603,0.741 -1.461,1.647 -1.061,2.646 0.297,0.743 2.702,0.631 3.265,0.719 5.473,0.857 6.963,5.133 6.433,10.132 -0.61,5.755 -4.975,14.298 1.462,18.394 5.33,3.392 12.547,4.779 18.707,3.292 3.963,-0.957 7.624,-2.845 11.554,-3.91 6.721,-1.822 13.968,-2.072 20.892,-2.092 4.076,-0.012 8.174,0.191 12.148,1.16 1.536,0.374 3.065,0.85 4.501,1.516 -0.105,-2.589 -0.519,-5.154 -1.301,-7.628 z"
   id="path65" />
								</g>
								<g
   style="opacity:0.5"
   id="g67">
									<path
   style="fill:#999b9e"
   d="m 288.51,68.68 c -0.867,-2.742 -2.147,-5.327 -3.603,-7.801 -0.816,-0.444 -1.659,-0.849 -2.526,-1.182 0.408,0.463 0.802,0.938 1.162,1.439 1.807,2.513 2.977,5.503 3.111,8.611 0.009,0.213 -0.259,0.242 -0.342,0.07 -1.107,-2.296 -3.027,-4.017 -5.306,-5.075 0.825,0.819 1.599,1.695 2.26,2.65 0.808,1.169 1.524,2.547 1.51,4.003 -0.001,0.11 -0.091,0.213 -0.21,0.185 -3.3,-0.77 -6.684,-1.046 -10.066,-1.083 -3.018,-0.033 -6.035,0.112 -9.05,0.228 -1.508,0.058 -3.013,0.109 -4.518,0.222 -1.496,0.112 -2.988,0.262 -4.478,0.434 -5.958,0.687 -11.875,1.727 -17.859,2.177 -0.15,0.011 -0.251,-0.18 -0.144,-0.292 0.576,-0.604 1.201,-1.16 1.867,-1.663 0.42,-0.317 0.861,-0.607 1.311,-0.882 -0.309,-0.048 -0.617,-0.1 -0.923,-0.161 -1.649,-0.334 -3.498,-0.902 -4.558,-2.303 -0.047,-0.062 -0.035,-0.159 0.015,-0.215 2.05,-2.289 4.85,-3.668 7.075,-5.754 -1.624,-0.625 -3.441,-0.271 -5.048,0.26 -1.689,0.558 -3.273,1.371 -4.906,2.066 -0.14,0.06 -0.29,-0.117 -0.215,-0.246 1.054,-1.813 2.69,-3.15 4.157,-4.616 -2.291,0.7 -4.3,2.172 -6.043,3.781 -0.136,0.125 -0.401,-0.014 -0.289,-0.196 0.821,-1.338 1.997,-2.381 3.167,-3.404 1.052,-0.92 2.162,-1.857 2.902,-3.059 -4.195,0.142 -7.91,2.94 -10.637,5.925 -0.117,0.128 -0.34,0.021 -0.304,-0.152 0.572,-2.781 2.054,-5.221 3.442,-7.663 -2.83,2.007 -5.661,4.263 -7.212,7.431 -0.086,0.175 -0.389,0.079 -0.33,-0.114 0.498,-1.631 0.793,-3.327 0.821,-5.034 0.046,-2.808 -0.621,-5.657 -2.192,-8.011 -1.667,-2.498 -4.236,-4.161 -7.121,-4.916 -0.115,-0.03 -0.205,-0.194 -0.097,-0.289 2.704,-2.4 6.183,-4.008 9.727,-4.698 -0.741,-1.046 -2.529,-1.034 -3.656,-0.984 -1.424,0.063 -2.918,0.295 -4.254,0.812 -0.196,0.076 -0.307,-0.198 -0.155,-0.313 2.038,-1.544 4.276,-2.86 6.699,-3.696 -1,-0.413 -2.073,-0.619 -3.156,-0.646 -2.262,-0.056 -4.512,0.582 -6.536,1.558 -1.122,0.541 -2.2,1.205 -3.185,1.983 1.094,-0.256 2.177,-1.057 3.246,-1.407 1.625,-0.532 3.51,-0.867 5.291,-1.023 -0.879,0.445 -1.742,0.863 -2.576,1.519 -1.667,1.311 -3.155,2.578 -4.619,4.118 -0.192,0.202 -0.191,0.542 0.174,0.448 1.477,-0.384 2.846,-1.063 4.367,-1.391 1.08,-0.233 2.112,-0.483 3.184,-0.606 -2.238,1.229 -4.356,2.73 -5.973,4.723 -0.603,0.741 -1.461,1.647 -1.061,2.646 0.297,0.743 2.702,0.631 3.265,0.719 5.473,0.857 6.963,5.133 6.433,10.132 -0.61,5.755 -4.975,14.298 1.462,18.394 5.33,3.392 12.547,4.779 18.707,3.292 3.963,-0.957 7.624,-2.845 11.554,-3.91 6.721,-1.822 13.968,-2.072 20.892,-2.092 4.076,-0.012 8.174,0.191 12.148,1.16 1.536,0.374 3.065,0.85 4.501,1.516 -0.106,-2.586 -0.52,-5.151 -1.302,-7.625 z"
   id="path66" />
								</g>
								<g
   id="g68">
									<path
   style="fill:#9a9da5"
   d="m 293.773,36.97 c -2.725,-0.02 -5.296,0.516 -7.387,1.958 4.896,-1.899 10.9,-1.919 15.306,0.826 -0.791,-2.695 -5.671,-2.769 -7.919,-2.784 z"
   id="path67" />
								</g>
								<g
   style="opacity:0.5"
   id="g69">
									<path
   style="fill:#999b9e"
   d="m 235.277,9.667 c 0.856,1.187 1.461,2.486 2.183,3.751 0.49,0.858 1.287,1.838 1.39,2.86 0.126,1.254 -0.412,2.476 -0.839,3.629 -0.288,0.777 -0.591,1.547 -0.898,2.317 2.431,-3.019 5.898,-4.788 9.974,-5.005 5.397,-0.288 10.87,1.283 15.846,3.245 6.065,2.392 12.35,5.848 16.45,11.064 1.839,2.339 3.309,5.156 3.861,8.103 0.477,2.549 0.322,5.122 0.287,7.695 0.507,-1.53 1.031,-3.485 1.101,-3.741 0.568,-2.054 1.211,-4.166 1.469,-6.289 0.012,-0.095 0.073,-0.192 0.167,-0.227 3.128,-1.222 6.779,-1.928 10.369,-1.841 -1.415,-0.306 -2.84,-0.561 -4.289,-0.731 -2.556,-0.3 -5.127,-0.324 -7.666,-0.049 -0.548,-1.023 -1.212,-1.99 -1.898,-2.951 -1.458,-2.04 -2.935,-4.088 -4.758,-5.823 -3.882,-3.693 -9.025,-6.266 -13.905,-8.354 -4.713,-2.017 -9.337,-2.81 -14.434,-2.99 -2.775,-0.098 -5.372,0.32 -7.888,1.099 -1.041,-1.615 -2.226,-3.135 -3.574,-4.511 -1.399,-1.428 -3.046,-2.565 -4.762,-3.577 -0.844,-0.499 -2.419,-1.436 -3.456,-0.953 0.034,0.007 0.068,0.009 0.102,0.016 2.073,0.435 3.915,1.523 5.168,3.263 z"
   id="path68" />
								</g>
								<g
   id="g70">
									<path
   style="fill:#626162"
   d="m 234.375,11.652 c -0.862,-1.031 -2.137,-1.572 -3.167,-1.155 -2.146,1.383 -2.053,5.334 -2.036,7.535 0.012,1.523 -0.028,3.138 0.263,4.633 0.251,1.29 0.605,2.418 2.132,2.147 0.73,-0.131 4.108,-1.136 4.766,-1.486 2.721,-1.446 -0.97,-10.491 -1.958,-11.674 z"
   id="path69" />
								</g>
								<g
   id="g71">
									<path
   style="fill:#626162"
   d="m 298.13,39.613 c 0.007,-0.026 0.02,-0.045 0.032,-0.065 -0.019,-0.02 -0.036,-0.041 -0.057,-0.061 -0.878,-0.796 -2.229,-1.008 -3.366,-1.107 -2.397,-0.211 -4.95,-0.06 -7.289,0.529 -0.664,0.167 -1.349,0.394 -1.93,0.762 -1.546,0.978 -1.305,2.512 -0.689,4.006 0.737,1.789 2.266,4.957 4.678,4.521 1.829,-0.331 3.274,-1.736 4.569,-2.975 1.729,-1.659 3.419,-3.205 4.052,-5.61 z"
   id="path70" />
								</g>
								<g
   id="g72">
									<path
   style="fill:#3b3c3d"
   d="m 246.503,38.381 c 0.051,-0.47 0.095,-0.94 0.124,-1.411 0.179,-2.92 -0.042,-6.187 -1.81,-8.64 -2.092,-2.903 -6.173,-3.745 -9.506,-2.891 -4.096,1.05 -7.344,4.738 -7.994,8.904 -0.322,2.067 0.008,4.163 0.485,6.179 0.106,0.446 0.219,0.891 0.334,1.335 0.847,1.592 1.578,3.231 2.171,4.956 0.769,2.241 1.226,4.632 2.211,6.784 0.392,0.857 1.667,1.799 2.571,1.967 1.107,0.204 2.22,-0.388 3.128,-1.009 3.767,-2.579 5.57,-7.055 6.894,-11.264 0.333,-1.054 0.637,-2.116 0.927,-3.166 0.158,-0.578 0.317,-1.159 0.465,-1.744 z"
   id="path71" />
								</g>
								<g
   id="g73">
									<path
   style="fill:#3b3c3d"
   d="m 273.063,42.015 c -3.648,-0.367 -7.615,-10e-4 -10.941,1.223 -4.313,1.588 -8.052,4.53 -10.973,8.031 -2.429,2.913 -5.123,7.779 -2.853,11.469 0.916,1.487 2.921,1.735 4.483,1.799 3.034,0.122 5.928,-0.729 8.983,-0.22 4.87,0.813 8.66,4.268 13.827,3.883 3.83,-0.287 6.819,-3.14 8.462,-6.423 1.652,-3.299 1.527,-8.039 0.296,-11.408 -1.485,-4.064 -4.575,-7.137 -8.879,-7.997 -0.779,-0.154 -1.585,-0.274 -2.405,-0.357 z"
   id="path72" />
								</g>
								<g
   id="g74">
									<path
   style="fill:#3b3c3c"
   d="m 272.364,43.645 c -4.066,-0.661 -8.165,1.946 -10.415,5.193 -1.411,2.032 -2.705,4.28 -3.203,6.733 -0.287,1.418 -0.477,2.975 0.556,4.156 0.505,0.577 0.999,1.401 1.592,1.882 0.189,0.153 0.126,0.465 -0.123,0.508 -1.044,0.179 -2.065,0.413 -3.047,0.788 1.159,-0.039 2.319,-0.215 3.481,-0.105 1.687,0.158 3.323,0.469 4.958,0.911 1.946,0.526 4.028,1.132 5.577,2.449 -0.55,-0.937 -1.419,-1.647 -2.402,-2.205 -0.135,-0.076 -0.142,-0.284 -0.059,-0.396 1.18,-1.597 2.995,-2.538 4.221,-4.105 1.411,-1.803 2.846,-3.832 3.435,-6.078 0.998,-3.802 0.055,-8.979 -4.571,-9.731 z"
   id="path73" />
								</g>
								<g
   id="g75">
									<path
   style="fill:#ffffff"
   d="m 274.861,53.804 c 0.861,-2.21 1.116,-5.39 -0.038,-7.522 -1.366,-2.53 -4.303,-2.431 -6.629,-1.395 -1.203,0.537 -2.615,1.322 -3.563,2.253 -3.844,3.771 -6.204,10.998 -1.285,14.757 4.838,3.7 10.093,-4.439 11.515,-8.093 z"
   id="path74" />
								</g>
								<g
   id="g76">
									<path
   style="fill:#09090a"
   d="m 248.701,27.008 c 0.408,0.632 0.711,1.292 0.929,1.971 0.239,-0.983 0.301,-1.991 -0.019,-2.895 -0.925,-2.619 -3.296,-2.509 -5.281,-1.515 1.726,0.341 3.33,0.824 4.371,2.439 z"
   id="path75" />
								</g>
								<g
   id="g77">
									<path
   style="fill:#09090a"
   d="m 274.519,37.538 c 0.768,0.62 1.62,1.305 2.092,2.191 0.235,0.438 0.361,0.896 0.466,1.358 0.024,-0.021 0.048,-0.043 0.069,-0.066 0.26,-1.796 -0.151,-3.914 -1.131,-4.778 -2.012,-1.777 -5.435,-1.632 -7.423,0.133 2.055,-0.277 4.236,-0.207 5.927,1.162 z"
   id="path76" />
								</g>
								<g
   id="g78">
									<path
   style="fill:#525557"
   d="m 233.902,12.357 c -1.311,-1.947 -3.454,-2.823 -4.694,-0.425 -0.14,0.27 0.32,0.133 0.41,-0.015 1.3,-2.135 2.75,-0.719 3.785,1.062 -0.978,0.876 -1.299,2.726 -1.583,3.918 -0.495,2.088 -0.523,4.347 -0.396,6.477 0.01,0.172 0.347,0.006 0.356,-0.122 0.1,-1.559 0.113,-3.116 0.274,-4.671 0.156,-1.513 0.36,-4.114 1.513,-5.312 0.632,1.156 1.084,2.39 1.208,2.873 0.541,2.126 0.627,4.31 0.919,6.472 0.024,0.167 0.326,0 0.337,-0.116 0.312,-3.24 -0.271,-7.385 -2.129,-10.141 z"
   id="path77" />
								</g>
								<g
   id="g79">
									<path
   style="fill:#525557"
   d="m 298.223,39.272 c -1.07,-0.868 -3.055,-0.875 -4.359,-0.96 -3,-0.199 -6.909,0.423 -9.138,2.604 -0.177,0.174 0.014,0.279 0.185,0.18 2.189,-1.266 4.332,-1.943 6.855,-2.171 1.001,-0.089 2.008,-0.056 3.007,0.045 -0.017,0.014 -0.033,0.025 -0.05,0.041 -0.195,0.192 0.063,0.259 0.217,0.138 -0.374,0.296 -0.651,1.212 -0.877,1.635 -0.511,0.962 -1.049,1.901 -1.628,2.824 -0.901,1.435 -2.103,2.957 -3.499,3.916 -0.241,0.166 -0.187,0.522 0.135,0.356 1.493,-0.768 2.529,-2.344 3.469,-3.678 0.636,-0.902 1.164,-1.868 1.682,-2.843 0.349,-0.657 0.963,-1.546 0.985,-2.342 0.045,0.006 0.09,0.008 0.135,0.015 1.51,0.191 3.48,0.521 2.594,2.677 -0.102,0.247 0.293,0.136 0.363,-0.014 0.408,-0.88 0.791,-1.723 -0.076,-2.423 z"
   id="path78" />
								</g>
								<g
   id="g82">
									<g
   id="g80">
										<path
   style="fill:#3b3c3c"
   d="m 229.039,68.503 c -1.581,-2.075 -4.883,-3.134 -7.395,-3.087 -2.819,0.052 -5.099,2.885 -4.204,5.564 0.744,2.23 3.501,3.357 5.682,3.596 3.073,0.336 8.877,-2.187 5.917,-6.073 z"
   id="path79" />
									</g>
									<g
   id="g81">
										<path
   style="fill:#3b3c3c"
   d="m 229.039,68.503 c -0.137,-0.18 -0.291,-0.348 -0.453,-0.513 0.016,0.256 0.01,0.517 -0.023,0.775 -0.271,2.13 -1.508,3.286 -3.693,3.329 -2.199,0.042 -5.736,-0.384 -6.972,-2.533 -0.233,-0.406 -0.343,-0.835 -0.361,-1.264 -0.331,0.835 -0.403,1.767 -0.098,2.683 0.744,2.23 3.501,3.357 5.682,3.596 3.074,0.336 8.878,-2.187 5.918,-6.073 z"
   id="path80" />
									</g>
								</g>
								<g
   id="g90">
									<g
   id="g84">
										<g
   id="g83">
											<path
   style="fill:#593700"
   d="m 269.119,58.679 c -0.727,2.293 -3.176,3.563 -5.47,2.837 -2.292,-0.728 -3.562,-3.177 -2.835,-5.47 0.727,-2.294 3.176,-3.563 5.469,-2.836 2.293,0.727 3.563,3.176 2.836,5.469 z"
   id="path82" />
										</g>
									</g>
									<g
   id="g86">
										<g
   id="g85">
											<path
   style="fill:#8b5d2d"
   d="m 268.214,58.237 c -0.561,1.77 -2.45,2.748 -4.22,2.187 -1.768,-0.561 -2.747,-2.448 -2.187,-4.218 0.561,-1.769 2.449,-2.749 4.219,-2.188 1.769,0.561 2.749,2.45 2.188,4.219 z"
   id="path84" />
										</g>
									</g>
									<g
   id="g87">
										<path
   style="fill:#1f0100"
   d="m 266.418,57.822 c -0.255,0.801 -1.11,1.245 -1.911,0.99 -0.801,-0.254 -1.245,-1.109 -0.99,-1.91 0.253,-0.801 1.109,-1.244 1.909,-0.991 0.801,0.255 1.245,1.11 0.992,1.911 z"
   id="path86" />
									</g>
									<g
   id="g89">
										<g
   id="g88">
											<path
   style="fill:#ffffff"
   d="m 266.149,55.657 c -0.233,0.736 -1.019,1.145 -1.756,0.911 -0.736,-0.233 -1.143,-1.019 -0.909,-1.755 0.233,-0.736 1.019,-1.144 1.755,-0.91 0.735,0.233 1.143,1.018 0.91,1.754 z"
   id="path87" />
										</g>
									</g>
								</g>
								<g
   id="g101">
									<g
   id="g91">
										<path
   style="fill:#3b3c3c"
   d="m 240.428,28.051 c -2.047,0.145 -4.078,1.085 -5.659,2.337 -1.491,1.18 -2.758,2.651 -3.392,4.459 -0.612,1.742 -0.773,3.597 -1.375,5.34 -0.059,0.171 -0.245,0.237 -0.406,0.15 -0.466,-0.254 -0.922,-0.423 -1.393,-0.523 3.349,3.834 5.23,8.528 5.941,13.48 0.383,-1.626 0.558,-3.277 0.569,-4.969 0.002,-0.222 0.235,-0.309 0.417,-0.221 3.18,1.543 6.98,-2.671 8.405,-4.939 1.906,-3.032 3.317,-7.054 2.101,-10.642 -0.773,-2.281 -2.459,-4.669 -5.208,-4.472 z"
   id="path90" />
									</g>
									<g
   id="g92">
										<path
   style="fill:#ffffff"
   d="m 244.684,38.501 c 0.772,-2.108 0.931,-5.132 -0.24,-7.146 -1.389,-2.386 -4.225,-2.259 -6.444,-1.248 -1.147,0.523 -2.49,1.284 -3.381,2.178 -3.61,3.627 -5.695,10.516 -0.841,14.032 4.774,3.461 9.631,-4.328 10.906,-7.816 z"
   id="path91" />
									</g>
									<g
   id="g100">
										<g
   id="g94">
											<g
   id="g93">
												<path
   style="fill:#593700"
   d="m 239.087,43.786 c -1.069,2.012 -3.61,2.765 -5.675,1.681 -2.065,-1.084 -2.872,-3.594 -1.803,-5.606 1.07,-2.012 3.61,-2.765 5.675,-1.682 2.065,1.084 2.872,3.594 1.803,5.607 z"
   id="path92" />
											</g>
										</g>
										<g
   id="g96">
											<g
   id="g95">
												<path
   style="fill:#8b5d2d"
   d="m 238.298,43.212 c -0.824,1.552 -2.785,2.133 -4.378,1.298 -1.593,-0.837 -2.216,-2.773 -1.391,-4.325 0.825,-1.552 2.785,-2.132 4.378,-1.296 1.593,0.835 2.215,2.771 1.391,4.323 z"
   id="path94" />
											</g>
										</g>
										<g
   id="g97">
											<path
   style="fill:#1f0100"
   d="m 236.654,42.508 c -0.374,0.703 -1.261,0.966 -1.982,0.587 -0.722,-0.378 -1.003,-1.255 -0.63,-1.958 0.374,-0.703 1.26,-0.966 1.983,-0.588 0.721,0.38 1.002,1.256 0.629,1.959 z"
   id="path96" />
										</g>
										<g
   id="g99">
											<g
   id="g98">
												<path
   style="fill:#ffffff"
   d="m 236.755,40.441 c -0.344,0.646 -1.159,0.887 -1.822,0.54 -0.663,-0.348 -0.922,-1.154 -0.578,-1.799 0.343,-0.646 1.158,-0.888 1.821,-0.539 0.663,0.346 0.922,1.152 0.579,1.798 z"
   id="path97" />
											</g>
										</g>
									</g>
								</g>
							</g>
						</g>
					</g>
					<g
   id="g116">
						<g
   id="g112">
							<g
   id="g105">
								<path
   style="fill:#5c5d60"
   d="m 266.026,181.483 c -0.534,-0.97 -1.74,-1.664 -2.751,-1.976 -1.728,-0.532 -3.35,-0.063 -4.027,1.521 -1.561,-2.171 -3.186,-4.297 -4.898,-6.349 -1.93,-2.313 -3.978,-4.524 -6.09,-6.672 -2.156,-2.192 -4.236,-4.496 -6.546,-6.529 -1.033,-0.91 -3.423,-2.725 -4.822,-1.477 -0.645,0.574 -0.672,1.365 -0.447,2.163 -0.804,0.068 -1.529,0.44 -1.732,1.399 -0.086,0.412 -0.066,0.813 0.014,1.204 -0.577,-0.126 -1.21,-0.055 -1.519,0.496 -0.093,0.164 -0.155,0.327 -0.202,0.49 -0.176,0.443 -0.233,0.958 -0.135,1.392 0.257,1.128 0.999,1.873 1.871,2.539 1.254,1.217 2.794,2.255 3.92,3.149 0.598,0.473 1.182,0.961 1.759,1.457 1.719,1.309 3.394,2.673 5.006,4.112 4.115,3.669 7.46,8.028 10.952,12.266 1.78,2.161 6.631,8.747 9.854,5.335 1.172,-1.242 1.237,-3.412 1.232,-5.003 -0.007,-2.123 -0.472,-4.241 -0.98,-6.316 -0.017,-1.059 0.063,-2.256 -0.459,-3.201 z"
   id="path104" />
							</g>
							<g
   id="g106">
								<path
   style="fill:#434547"
   d="m 265.599,190.524 c -0.947,-1.797 -1.925,-3.536 -2.973,-5.276 -1.066,-1.77 -2.473,-3.318 -3.738,-4.941 -0.054,-0.068 -0.159,0.086 -0.116,0.145 1.215,1.691 2.498,3.319 3.648,5.056 1.121,1.69 1.919,3.552 2.978,5.271 0.079,0.127 0.26,-0.146 0.201,-0.255 z"
   id="path105" />
							</g>
							<g
   id="g107">
								<path
   style="fill:#434547"
   d="m 249.612,174.678 c -1.974,-2.317 -4.07,-4.621 -6.35,-6.64 -2.279,-2.02 -5.794,-3.598 -6.893,-6.611 -0.046,-0.128 -0.202,0.068 -0.176,0.157 0.777,2.682 3.618,4.233 5.697,5.831 2.832,2.178 4.982,5.022 7.589,7.43 0.075,0.069 0.188,-0.103 0.133,-0.167 z"
   id="path106" />
							</g>
							<g
   id="g108">
								<path
   style="fill:#434547"
   d="m 240.76,170.674 c -2.21,-1.99 -4.943,-3.734 -6.048,-6.607 -0.061,-0.159 -0.251,0.086 -0.218,0.196 0.824,2.841 3.485,4.548 5.599,6.418 2.39,2.115 4.473,4.351 6.497,6.809 0.071,0.087 0.194,-0.108 0.144,-0.183 -1.671,-2.532 -3.729,-4.612 -5.974,-6.633 z"
   id="path107" />
							</g>
							<g
   style="opacity:0.3"
   id="g109">
								<path
   style="fill:#5c5d60"
   d="m 266.026,181.483 c -0.534,-0.97 -1.74,-1.664 -2.751,-1.976 -1.609,-0.495 -3.115,-0.11 -3.863,1.221 1.048,2.49 1.855,5.087 2.464,7.698 0.064,0.272 -0.323,0.454 -0.494,0.234 -0.961,-1.234 -1.625,-2.636 -2.475,-3.943 -1.076,-1.655 -2.128,-3.326 -3.219,-4.972 -2.06,-3.105 -4.319,-6.04 -6.736,-8.876 -2.013,-2.361 -3.949,-4.915 -6.208,-7.049 -1.058,-0.999 -2.366,-2.178 -3.822,-2.544 -2.56,-0.643 -1.653,2.158 -0.607,3.175 0.232,0.226 -0.124,0.613 -0.378,0.418 -0.63,-0.486 -2.056,-1.732 -2.72,-0.498 -0.503,0.937 0.15,1.681 0.751,2.236 0.212,0.195 -0.061,0.556 -0.312,0.451 -1.471,-0.616 -2.31,0.153 -2.266,1.272 0.353,0.524 0.828,0.955 1.353,1.356 1.254,1.217 2.794,2.255 3.92,3.149 0.598,0.473 1.182,0.961 1.759,1.457 1.719,1.309 3.394,2.673 5.006,4.112 4.115,3.669 7.46,8.028 10.952,12.266 1.78,2.161 6.631,8.747 9.854,5.335 1.172,-1.242 1.237,-3.412 1.232,-5.003 -0.007,-2.123 -0.472,-4.241 -0.98,-6.316 -0.018,-1.061 0.062,-2.258 -0.46,-3.203 z"
   id="path108" />
							</g>
							<g
   style="opacity:0.3"
   id="g110">
								<path
   style="fill:#5c5d60"
   d="m 266.026,181.483 c -0.534,-0.97 -1.74,-1.664 -2.751,-1.976 -1.392,-0.429 -2.704,-0.194 -3.518,0.737 2.385,3.873 4.368,7.843 4.695,12.574 0.096,1.383 -0.233,3.389 -2.008,3.504 -0.13,0.008 -0.257,0.007 -0.38,0.003 1.452,0.821 2.929,0.989 4.167,-0.322 1.172,-1.242 1.237,-3.412 1.232,-5.003 -0.007,-2.123 -0.472,-4.241 -0.98,-6.316 -0.015,-1.059 0.065,-2.256 -0.457,-3.201 z"
   id="path109" />
							</g>
							<g
   style="opacity:0.3"
   id="g111">
								<path
   style="fill:#5c5d60"
   d="m 237.276,169.061 c 3.189,2.227 5.688,5.109 8.433,7.803 -0.876,-1.479 -1.95,-2.829 -3.126,-4.097 -1.317,-1.419 -2.811,-2.617 -4.177,-3.977 -0.37,-0.37 -2.921,-3.318 -0.715,-2.998 1.575,0.228 3.262,1.406 4.516,2.337 1.188,0.88 2.368,1.786 3.484,2.757 -0.566,-0.644 -1.149,-1.277 -1.745,-1.897 -1.359,-1.419 -3.071,-2.802 -4.073,-4.523 -0.461,-0.794 -0.918,-2.35 0.388,-2.622 -0.43,-0.248 -0.876,-0.453 -1.34,-0.569 -2.56,-0.643 -1.653,2.158 -0.607,3.175 0.232,0.226 -0.124,0.613 -0.378,0.418 -0.63,-0.486 -2.056,-1.732 -2.72,-0.498 -0.503,0.937 0.15,1.681 0.751,2.236 0.212,0.195 -0.061,0.556 -0.312,0.451 -1.093,-0.458 -1.837,-0.15 -2.129,0.498 1.109,-0.114 2.751,0.809 3.75,1.506 z"
   id="path110" />
							</g>
						</g>
						<g
   id="g113">
							<path
   style="fill:#747679"
   d="m 266.9,182.039 c -0.136,-0.968 -0.231,-1.927 -0.235,-2.855 -0.103,-1.066 -0.064,-2.141 0.207,-3.182 1.069,-4.107 5.502,-5.715 8.826,-7.593 2.041,-1.153 3.962,-2.439 5.67,-4.055 1.644,-1.556 3.192,-3.364 4.162,-5.423 0.938,-1.991 1.363,-4.169 1.458,-6.358 0.016,-0.363 0.019,-0.724 0.016,-1.086 -0.035,-5.887 -2.897,-11.728 -7.653,-15.231 -5.33,-3.924 -12.675,-4.012 -18.714,-1.782 -6.162,2.275 -11.351,7.335 -13.709,13.478 -2.383,6.207 -0.77,12.299 1.875,18.11 1.911,4.199 4.794,8.027 8.042,11.35 0.93,1.949 1.141,3.911 0.977,6.332 -0.02,0.294 0.223,0.329 0.395,0.117 0.598,-0.746 0.896,-1.678 1.173,-2.6 0.099,1.246 -0.628,2.422 -0.635,3.665 -10e-4,0.149 0.148,0.245 0.275,0.151 1.033,-0.745 1.48,-2.224 1.699,-3.583 0.33,1.561 -0.206,3.274 -0.247,4.814 -0.009,0.342 0.385,0.126 0.465,-0.046 0.579,-1.232 0.981,-2.257 1.271,-3.462 1.121,1.576 1.478,4.02 3.245,5.024 0.237,0.135 0.484,-0.31 0.46,-0.496 -0.127,-0.953 -0.363,-1.878 -0.596,-2.807 0.631,1.239 1.433,2.408 2.397,3.018 0.246,0.156 0.514,-0.339 0.488,-0.527 -0.148,-1.094 -0.647,-2.127 -0.932,-3.195 -0.16,-0.597 -0.28,-1.188 -0.38,-1.778 z"
   id="path112" />
						</g>
						<g
   id="g114">
							<path
   style="fill:#747679"
   d="m 248.387,164.996 c -1.276,-3.722 -1.945,-7.696 -1.603,-11.632 0.168,-1.934 0.584,-3.851 1.267,-5.67 0.737,-1.964 1.78,-3.818 3.024,-5.504 1.308,-1.773 2.856,-3.385 4.616,-4.713 0.892,-0.673 1.83,-1.259 2.842,-1.735 1.089,-0.513 2.222,-0.929 3.372,-1.282 2.153,-0.66 4.365,-1.066 6.581,-1.445 -2.684,0.031 -5.376,0.547 -7.85,1.46 -6.162,2.275 -11.351,7.335 -13.709,13.478 -2.344,6.107 -0.821,12.101 1.747,17.827 -0.096,-0.262 -0.196,-0.521 -0.287,-0.784 z"
   id="path113" />
						</g>
						<g
   style="opacity:0.5"
   id="g115">
							<path
   style="fill:#74777e"
   d="m 279.349,136.257 c -5.33,-3.924 -12.675,-4.012 -18.713,-1.782 -1.458,0.538 -2.858,1.237 -4.182,2.064 1.672,-0.821 3.428,-1.471 5.233,-1.923 2.774,-0.695 5.779,-0.969 8.589,-0.32 3.054,0.706 5.837,2.51 7.875,4.872 2.037,2.361 3.361,5.364 3.358,8.511 0,0.162 -0.211,0.201 -0.308,0.102 -0.547,-0.557 -1.078,-1.13 -1.677,-1.625 0.674,1.233 0.923,2.729 0.971,4.096 0.005,0.154 -0.22,0.212 -0.308,0.102 -0.56,-0.698 -0.972,-1.515 -1.549,-2.197 0.018,0.052 0.039,0.104 0.057,0.156 0.751,2.295 0.866,4.745 0.301,7.095 -0.57,2.37 -1.786,4.546 -3.285,6.451 -1.466,1.864 -3.216,3.468 -4.947,5.079 -1.611,1.499 -3.233,3.028 -4.482,4.854 -1.308,1.912 -2.061,4.089 -2.159,6.408 -0.007,0.166 -0.204,0.195 -0.308,0.102 -0.716,-0.644 -1.038,-1.607 -1.264,-2.516 -0.195,-0.784 -0.303,-1.596 -0.512,-2.379 -0.225,0.757 -0.277,1.561 -0.284,2.347 -0.008,0.988 0.07,1.974 0.088,2.961 0.003,0.172 -0.271,0.221 -0.333,0.064 -0.705,-1.789 -0.898,-3.823 -1.909,-5.482 -0.137,0.863 0.012,1.756 0.152,2.61 0.163,0.99 0.351,2.001 0.225,3.007 -0.021,0.165 -0.259,0.23 -0.333,0.064 -0.433,-0.964 -0.945,-1.88 -1.659,-2.664 -0.72,-0.791 -1.589,-1.454 -2.374,-2.178 -1.404,-1.294 -2.728,-2.675 -3.846,-4.226 -0.818,-1.135 -1.576,-2.332 -2.259,-3.564 -0.411,-0.569 -0.803,-1.152 -1.172,-1.749 -0.184,-0.297 -0.363,-0.597 -0.538,-0.901 0.312,0.794 0.649,1.584 1.006,2.368 1.911,4.199 4.794,8.027 8.042,11.35 0.93,1.949 1.141,3.911 0.977,6.332 -0.02,0.294 0.223,0.329 0.395,0.117 0.598,-0.746 0.896,-1.678 1.173,-2.6 0.099,1.246 -0.628,2.422 -0.635,3.665 -10e-4,0.149 0.148,0.245 0.275,0.151 1.033,-0.745 1.48,-2.224 1.699,-3.583 0.33,1.561 -0.206,3.274 -0.247,4.814 -0.009,0.342 0.385,0.126 0.465,-0.046 0.579,-1.232 0.981,-2.257 1.271,-3.462 1.121,1.576 1.478,4.02 3.245,5.024 0.237,0.135 0.484,-0.31 0.46,-0.496 -0.127,-0.953 -0.363,-1.878 -0.596,-2.807 0.631,1.239 1.433,2.408 2.397,3.018 0.246,0.156 0.514,-0.339 0.488,-0.527 -0.148,-1.094 -0.647,-2.127 -0.932,-3.195 -0.158,-0.596 -0.278,-1.186 -0.378,-1.777 -0.136,-0.968 -0.231,-1.927 -0.235,-2.855 -0.103,-1.066 -0.064,-2.141 0.207,-3.182 1.069,-4.107 5.502,-5.715 8.826,-7.593 2.041,-1.153 3.962,-2.439 5.67,-4.055 1.644,-1.556 3.192,-3.364 4.162,-5.423 0.938,-1.991 1.363,-4.169 1.458,-6.358 0.016,-0.363 0.019,-0.724 0.016,-1.086 -0.038,-5.89 -2.9,-11.731 -7.657,-15.233 z"
   id="path114" />
						</g>
					</g>
					<g
   id="g117">
						<path
   style="fill:#f69984"
   d="m 232.385,77.145 c -0.574,-0.959 -3.036,-1.081 -3.772,-0.732 -0.55,0.261 -0.246,0.996 -0.023,1.376 0.398,0.679 1.095,1.072 1.888,1.083 0.59,0.008 1.18,-0.213 1.619,-0.608 0.339,-0.304 0.545,-0.691 0.288,-1.119 z"
   id="path116" />
					</g>
				</g>
			</g>
			<g
   id="g133">
				<g
   id="g129">
					<g
   id="g120">
						<path
   style="fill:#5c5d60"
   d="m 306.793,68.894 c 0.127,1.6 1.55,2.847 3.166,3.723 0.919,0.497 2.025,1.137 3.078,0.709 0.596,-0.243 0.782,-1.073 0.883,-1.746 0.31,-0.683 0.514,-1.48 0.749,-2.15 0.16,-0.459 0.346,-0.921 0.507,-1.388 0.575,-0.032 1.134,-0.191 1.637,-0.569 0.801,-0.601 1.831,-1.563 1.895,-2.653 0.013,-0.222 0.008,-0.434 -0.006,-0.641 0.258,-0.473 0.533,-0.938 0.894,-1.342 0.948,-1.062 2.091,-1.66 3.321,-2.325 1.074,-0.579 3.21,-1.802 2.082,-3.331 -1.132,-1.537 -3.108,-1.094 -4.638,-0.466 -1.009,0.414 -2.567,1.238 -3.628,2.264 0.208,-0.666 0.469,-1.324 0.823,-1.991 0.685,-1.296 1.508,-2.462 2.329,-3.671 0.964,-1.419 2.174,-3.772 0.201,-5.021 -2.028,-1.285 -3.703,0.918 -4.692,2.511 -1.045,1.682 -1.931,3.473 -2.523,5.357 0.039,-0.642 0.108,-1.286 0.247,-1.938 0.334,-1.568 0.891,-3.013 1.496,-4.492 0.553,-1.353 1.567,-4.163 -0.598,-4.733 -2.138,-0.564 -3.816,2.754 -4.437,4.362 -0.899,2.329 -1.28,4.813 -1.275,7.3 -0.985,-1.399 -2.448,-2.633 -3.806,-3.311 -0.68,-0.339 -3.977,-1.61 -3.469,0.49 0.278,1.151 1.221,1.695 2.108,2.391 1.519,1.194 2.355,2.651 2.959,4.459 0.425,1.274 1.095,2.548 2.302,2.834 -0.3,0.791 -0.594,1.584 -0.889,2.377 -0.347,0.925 -0.855,1.808 -1.099,2.764 -0.04,0.165 0.246,0.301 0.383,0.227 z"
   id="path119" />
					</g>
					<g
   id="g121">
						<path
   style="fill:#5c5d60"
   d="m 319.886,53.317 c -0.821,1.209 -1.645,2.375 -2.329,3.671 -0.332,0.626 -0.58,1.243 -0.782,1.869 -0.253,0.342 -0.495,0.689 -0.7,1.06 0.111,-2.672 2.106,-5.01 3.286,-7.325 0.659,-1.29 1.362,-3.009 0.725,-4.297 10e-4,10e-4 0.002,10e-4 0.002,10e-4 1.971,1.25 0.761,3.602 -0.202,5.021 z"
   id="path120" />
					</g>
					<g
   id="g122">
						<path
   style="fill:#5c5d60"
   d="m 313.119,54.227 c -0.105,0.492 -0.163,0.979 -0.205,1.465 -0.216,0.635 -0.404,1.279 -0.557,1.939 -1.258,-3.323 1.29,-6.347 2.269,-9.428 0.309,-0.972 0.475,-2.022 0.176,-2.783 1.07,0.994 0.282,3.173 -0.186,4.315 -0.606,1.479 -1.163,2.923 -1.497,4.492 z"
   id="path121" />
					</g>
					<g
   id="g123">
						<path
   style="fill:#5c5d60"
   d="m 309.464,59.838 c 0.785,0.875 1.704,1.409 2.454,2.173 -0.569,-0.311 -1.193,-0.519 -1.917,-0.698 -0.841,-0.209 -1.064,-1.3 -1.382,-2.005 -0.27,-0.598 -0.707,-1.153 -1.102,-1.674 -1.662,-2.178 -3.728,-4.08 -6.48,-4.497 0.248,-0.66 1.335,-0.518 2.251,-0.246 1.642,0.676 2.986,2.252 4,3.695 0.734,1.048 1.325,2.301 2.176,3.252 z"
   id="path122" />
					</g>
					<g
   id="g124">
						<path
   style="fill:#5c5d60"
   d="m 319.764,58.734 c -0.9,0.672 -1.464,1.434 -2.067,2.278 0.452,-2.379 4.604,-4.469 6.533,-3.745 -0.55,-0.054 -1.134,0.012 -1.669,0.142 -1.027,0.249 -1.947,0.69 -2.797,1.325 z"
   id="path123" />
					</g>
					<g
   id="g125">
						<path
   style="fill:#5c5d60"
   d="m 310.645,51.945 c -0.264,1.68 -0.579,3.576 -0.339,5.281 0.183,1.307 0.598,1.926 1.525,2.848 0.946,0.941 1.818,2.137 2.206,3.448 -0.927,-1.262 -1.9,-2.473 -3.36,-3.174 -0.995,-0.477 -1.326,-1.382 -1.889,-2.283 -0.56,-0.894 -1.143,-1.788 -1.861,-2.566 -0.54,-0.587 -1.183,-1.23 -1.891,-1.852 1.195,0.709 2.413,1.802 3.27,3.018 -0.002,-0.595 0.021,-1.188 0.065,-1.781 0.027,-0.056 0.032,-0.118 0.015,-0.18 0.153,-1.823 0.533,-3.622 1.195,-5.338 0.596,-1.547 2.175,-4.67 4.2,-4.401 -2.025,1.044 -2.846,5.137 -3.136,6.98 z"
   id="path124" />
					</g>
					<g
   id="g126">
						<path
   style="fill:#5c5d60"
   d="m 320.007,48.868 c -1.408,0.177 -2.521,1.087 -3.328,2.222 -1.77,2.495 -2.722,5.475 -2.81,8.521 -0.959,-1.628 -0.928,-3.365 -0.377,-5.121 0.528,-1.276 1.173,-2.508 1.903,-3.683 0.989,-1.594 2.665,-3.797 4.692,-2.511 0.29,0.183 0.504,0.393 0.666,0.617 -0.228,-0.06 -0.48,-0.078 -0.746,-0.045 z"
   id="path125" />
					</g>
					<g
   id="g127">
						<path
   style="fill:#5c5d60"
   d="m 323.346,56.186 c -0.489,0.051 -0.975,0.178 -1.388,0.328 -2.378,0.862 -4.138,2.673 -5.689,4.602 0.096,-0.921 0.406,-1.724 0.845,-2.476 1.03,-0.867 2.355,-1.556 3.249,-1.924 0.926,-0.381 2.014,-0.685 2.983,-0.53 z"
   id="path126" />
					</g>
					<g
   id="g128">
						<path
   style="fill:#5c5d60"
   d="m 307.511,65.904 c 0.295,-0.792 0.589,-1.586 0.889,-2.377 -1.206,-0.285 -1.877,-1.56 -2.302,-2.834 -0.604,-1.808 -1.441,-3.265 -2.959,-4.459 -0.887,-0.696 -1.83,-1.24 -2.108,-2.391 -0.029,-0.12 -0.043,-0.227 -0.048,-0.325 1.292,1.187 3.08,2.265 3.618,2.671 1.877,1.416 2.641,3.99 4.127,5.786 1.156,1.396 2.435,2.795 3.947,3.811 1.192,0.803 2.67,1.567 4.096,0.91 1.775,-0.815 1.702,-3.132 2.441,-4.631 0.966,-1.958 3.513,-2.083 5.072,-3.412 0.56,-0.477 0.735,-1.01 0.658,-1.539 0.017,0.023 0.037,0.044 0.056,0.068 1.127,1.529 -1.008,2.752 -2.082,3.331 -1.23,0.665 -2.373,1.263 -3.321,2.325 -0.361,0.404 -0.637,0.868 -0.894,1.342 0.013,0.207 0.019,0.419 0.006,0.641 -0.064,1.09 -1.094,2.052 -1.895,2.653 -0.503,0.378 -1.063,0.537 -1.637,0.569 -0.161,0.467 -0.347,0.929 -0.507,1.388 -0.235,0.669 -0.439,1.467 -0.749,2.15 -0.101,0.672 -0.287,1.503 -0.883,1.746 -1.053,0.429 -2.159,-0.211 -3.078,-0.709 -1.616,-0.876 -3.039,-2.123 -3.166,-3.723 -0.137,0.074 -0.424,-0.062 -0.381,-0.226 0.245,-0.958 0.753,-1.84 1.1,-2.765 z"
   id="path127" />
					</g>
				</g>
				<g
   id="g130">
					<path
   style="fill:#747679"
   d="m 314.695,69.484 c -0.003,-0.31 -1.905,1.4 -2.541,2.23 0.339,-1.534 0.099,-5.316 -0.124,-5.031 -0.171,0.219 -0.619,1.054 -1.046,1.634 0.154,-0.784 -0.402,-2.926 -0.638,-2.744 -0.254,0.196 -0.448,0.433 -0.642,0.672 0.052,-0.706 -0.819,-2.866 -1.003,-2.498 -1.852,3.694 -5.764,7.095 -9.275,9.196 -4.063,2.432 -8.636,4.732 -13.283,5.752 -7.085,1.554 -13.746,0.471 -20.004,-2.319 -0.161,-0.017 -0.322,-0.033 -0.482,-0.052 -2.21,-0.27 -4.583,-0.863 -6.804,-0.392 -0.964,0.204 -1.846,0.667 -2.452,1.46 -2.294,13.727 7.476,28.767 21.341,28.789 8.049,0.013 24.505,-6.748 29.613,-13.032 2.566,-3.158 4.67,-6.794 5.882,-10.693 1.339,-4.301 1.504,-8.504 1.458,-12.972 z"
   id="path129" />
				</g>
				<g
   id="g131">
					<path
   style="fill:#9a9da5"
   d="m 283.88,104.349 c -4.698,0.217 -9.591,-0.415 -13.913,-2.336 -3.994,-1.775 -7.383,-4.671 -9.899,-8.232 -1.259,-1.782 -2.298,-3.706 -3.144,-5.713 2.544,9.85 10.556,18.095 20.819,18.111 3.032,0.005 7.257,-0.952 11.619,-2.482 -1.809,0.343 -3.64,0.567 -5.482,0.652 z"
   id="path130" />
				</g>
				<g
   style="opacity:0.5"
   id="g132">
					<path
   style="fill:#74777e"
   d="m 312.154,71.713 c 0.339,-1.534 0.099,-5.316 -0.124,-5.031 -0.171,0.219 -0.619,1.054 -1.046,1.634 0.154,-0.784 -0.402,-2.926 -0.638,-2.744 -0.254,0.196 -0.448,0.433 -0.642,0.672 0.052,-0.706 -0.819,-2.866 -1.003,-2.498 -1.852,3.694 -5.764,7.095 -9.275,9.196 -4.063,2.432 -8.636,4.732 -13.283,5.752 -7.085,1.554 -13.746,0.471 -20.004,-2.319 -0.161,-0.017 -0.322,-0.033 -0.482,-0.052 -2.21,-0.27 -4.583,-0.863 -6.804,-0.392 -0.964,0.204 -1.846,0.667 -2.452,1.46 -0.77,4.609 -0.175,9.364 1.474,13.649 -0.026,-0.109 -0.056,-0.218 -0.081,-0.327 -0.556,-2.555 -0.61,-5.383 0.718,-7.72 0.071,-0.125 0.28,-0.135 0.325,0.021 0.509,1.775 0.97,3.575 1.831,5.202 -0.252,-0.918 -0.449,-1.851 -0.569,-2.795 -0.177,-1.394 -0.198,-2.834 0.122,-4.21 0.041,-0.175 0.274,-0.183 0.339,-0.022 0.592,1.457 0.994,2.991 1.603,4.44 -0.161,-1.096 -0.207,-2.288 0.26,-3.308 0.525,-1.148 1.673,-1.677 2.875,-1.814 0.908,-0.103 1.844,-0.067 2.754,-0.017 0.944,0.051 1.885,0.148 2.822,0.271 1.946,0.254 3.876,0.616 5.815,0.915 3.708,0.572 7.491,0.788 11.23,0.404 3.52,-0.362 7.013,-1.278 10.142,-2.956 3.212,-1.723 5.923,-4.216 7.963,-7.233 0.099,-0.146 0.352,-0.014 0.306,0.15 -0.318,1.138 -0.722,2.252 -1.208,3.329 -0.589,1.305 -1.299,2.549 -2.092,3.737 1.194,-1.308 2.348,-2.658 3.65,-3.857 0.116,-0.107 0.357,-0.039 0.306,0.15 -0.179,0.67 -0.425,1.32 -0.714,1.95 -0.403,0.877 -0.88,1.727 -1.415,2.543 1.129,-1.185 2.238,-2.387 3.273,-3.657 0.091,-0.112 0.315,-0.052 0.309,0.104 -0.067,1.652 -0.377,3.284 -0.856,4.865 -0.905,2.989 -2.368,5.799 -4.152,8.354 -1.716,2.457 -3.763,4.721 -6.148,6.545 -0.152,0.117 -0.314,-0.073 -0.254,-0.217 -1.055,0.84 -2.143,1.639 -3.249,2.406 -2.667,1.85 -5.406,3.608 -8.376,4.935 -3.094,1.382 -6.38,2.352 -9.738,2.826 0.682,0.076 1.372,0.126 2.077,0.127 8.049,0.013 24.505,-6.748 29.613,-13.032 2.566,-3.158 4.67,-6.794 5.882,-10.693 1.337,-4.3 1.503,-8.503 1.457,-12.971 -0.002,-0.311 -1.905,1.398 -2.541,2.228 z"
   id="path131" />
				</g>
			</g>
		</g>
		<g
   id="g136">
			<g
   id="g135"
   transform="translate(0,40.420356)">
				<path
   style="fill:#787fbc"
   d="m 214.887,182.808 -0.644,-0.105 -0.586,-0.087 c -0.382,-0.052 -0.769,-0.11 -1.143,-0.152 -0.756,-0.096 -1.506,-0.175 -2.253,-0.247 -1.496,-0.145 -2.984,-0.249 -4.471,-0.327 -2.973,-0.145 -5.941,-0.187 -8.905,-0.111 -5.926,0.147 -11.835,0.745 -17.68,1.756 -11.682,2.029 -23.115,5.836 -33.637,11.468 -5.244,2.843 -10.244,6.129 -14.964,9.773 l -3.459,2.834 c -0.587,0.46 -1.131,0.969 -1.679,1.474 l -1.645,1.512 -1.644,1.513 c -0.543,0.509 -1.044,1.06 -1.568,1.589 l -3.104,3.208 -2.914,3.373 c -0.482,0.565 -0.978,1.119 -1.447,1.694 l -1.356,1.764 -2.705,3.533 -2.481,3.644 -1.052,1.548 -2.647,-1.716 c 0.143,0.915 0.35,1.854 0.548,2.777 l 0.614,2.746 c 0.42,1.814 0.862,3.595 1.322,5.341 1.795,-0.474 3.571,-0.913 5.325,-1.318 l 2.616,-0.583 c 0.868,-0.185 1.717,-0.372 2.615,-0.51 l -2.647,-1.716 0.975,-1.432 2.294,-3.375 2.497,-3.256 1.248,-1.628 c 0.432,-0.529 0.889,-1.036 1.333,-1.555 l 2.675,-3.101 2.846,-2.936 c 0.48,-0.484 0.936,-0.992 1.434,-1.456 l 1.505,-1.381 1.503,-1.383 c 0.499,-0.463 0.996,-0.929 1.533,-1.347 l 3.156,-2.587 c 4.307,-3.321 8.861,-6.316 13.643,-8.911 9.597,-5.135 20.068,-8.632 30.849,-10.505 5.391,-0.932 10.858,-1.487 16.333,-1.623 2.737,-0.071 5.474,-0.03 8.195,0.101 1.36,0.071 2.717,0.166 4.059,0.296 0.672,0.064 1.339,0.135 1.998,0.218 0.334,0.037 0.652,0.086 0.977,0.129 l 0.471,0.069 0.412,0.066 z"
   id="path134" />
			</g>
		</g>
	</g>
</g>
</svg>
