<?xml version="1.0" encoding="utf-8"?>
<!-- Generator: Adobe Illustrator 27.5.0, SVG Export Plug-In . SVG Version: 6.00 Build 0)  -->
<svg version="1.1" id="Layer_1" xmlns="http://www.w3.org/2000/svg" xmlns:xlink="http://www.w3.org/1999/xlink" x="0px" y="0px"
	 viewBox="0 0 4000 4000" style="enable-background:new 0 0 4000 4000;" xml:space="preserve">
<rect style="fill:#FFFFFF;" width="4000" height="4000"/>
<g>
	<path style="fill:#B11204;" d="M2642.498,2758.542c14.53-15.992,33.84-29.431,49.377-44.773
		c52.879-52.229,101.176-108.242,140.598-171.436c14.002-22.444,27.037-46.135,37.86-70.265
		c8.14-18.139,13.046-44.207,25.019-59.494c-13.435,56.621-27.041,112.078-47.629,166.59
		c-86.497,229.006-256.213,425.092-463.786,553.246c-315.123,194.554-698.701,248.635-1057.708,163.355
		c-292.526-69.49-590.904-243.202-752.115-503.153c-0.9-1.456-1.762-2.932-2.609-4.416c8.06,2.686,29.737,31.144,36.737,38.773
		c35.761,38.999,72.585,75.563,113.057,109.712c70.532,59.508,148.541,110.82,231.372,151.615
		c347.598,171.197,770.254,208.083,1138.555,82.438c189.419-64.622,343.623-177.596,478.374-324.268
		C2588.08,2826.35,2631.314,2781.264,2642.498,2758.542z"/>
	<path style="fill:#E85F18;" d="M411.71,2410.344l1.797-1.383c8.993,15.954,13.983,35.153,21.663,51.969
		c17.897,39.19,38.943,76.341,63.016,112.067c157.445,233.654,434.559,377.675,699.308,451.615
		c416.924,116.441,896.643,62.037,1274.241-151.115c35.865-20.248,71.23-42.227,104.632-66.349
		c21.787-15.735,43.186-34.83,66.13-48.606c-11.184,22.722-54.418,67.808-72.898,87.925
		c-134.751,146.671-288.955,259.645-478.374,324.268c-368.301,125.645-790.958,88.758-1138.555-82.438
		c-82.831-40.795-160.84-92.107-231.372-151.615c-40.472-34.149-77.296-70.713-113.057-109.712
		c-7.001-7.63-28.677-36.088-36.737-38.773c-12.209-13.682-22.255-34.458-31.59-50.364
		C478.391,2633.022,439.949,2528.227,411.71,2410.344z"/>
	<linearGradient id="SVGID_1_" gradientUnits="userSpaceOnUse" x1="3506.3967" y1="651.8066" x2="2731.5615" y2="1586.6464">
		<stop  offset="0" style="stop-color:#752905"/>
		<stop  offset="1" style="stop-color:#A64D0E"/>
	</linearGradient>
	<path style="fill:url(#SVGID_1_);" d="M3602.058,728.164c-15.773-32.763-42.769-54.304-76.956-65.803
		c-52.358-17.615-107.044-4.204-155.198,19.56c-68.34,33.77-131.989,78.346-192.998,123.685
		c-123.269,91.618-239.554,195.326-345.659,306.469c-56.944,59.619-110.831,122.191-164.334,184.868
		c-29.88,35.021-98.115,109.788-111.665,149.673c0.8-0.174,1.564-0.347,2.329-0.521c7.26-1.807,13.41-6.775,20.811-8.165
		c30.678-5.837,76.678,11.222,103.013,26.092c23.973,13.585,47.077,33.875,63.232,56.249c19.942,27.134,23.556,49.613,27.1,82.688
		c0.834,7.991,0.973,17.337,3.787,24.876c47.702-48.501,97.211-95.3,150.16-138.069c75.497-60.974,154.155-116.528,231.458-175.036
		c124.589-94.328,245.737-193.762,354.276-306.504c34.673-35.994,76.538-75.531,93.667-123.442
		C3622.453,836.25,3624.815,775.415,3602.058,728.164z M3404.891,903.269c-30.574,13.967-71.918,19.074-103.986,7.296
		c-6.463-2.362-12.264-5.107-16.294-10.805c3.856-9.624,7.956-18.588,13.584-27.273c22.896-35.299,61.6-64.379,103.152-72.961
		c31.13-6.427,56.249,1.251,82.411,18.171C3468.958,856.748,3443.248,885.759,3404.891,903.269z"/>
	<path style="fill:#E85F18;" d="M3572.805,707.805c-15.669-14.557-38.287-19.526-59.168-18.24c-1.424,0.104-2.849,0.278-4.273,0.486
		c-67.575,6.775-138.347,42.213-195.743,77.546c-46.764,28.733-90.228,64.171-133.344,98.08
		c-173.09,136.227-342.324,296.532-481.748,467.051c-18.448,22.548-37.626,45.305-54.026,69.417
		c41.414,8.582,75.879,23.834,109.545,49.509c10.909,9.52,21.541,19.144,31.859,29.288
		c67.854-70.876,136.853-136.471,213.878-197.48c62.468-49.474,126.083-97.559,190.253-144.809
		c117.605-86.476,297.192-203.595,373.766-328.531c12.125-19.769,25.293-42.63,24.807-66.568
		C3588.335,729.623,3583.019,717.324,3572.805,707.805z M3404.891,903.269c-30.574,13.967-71.918,19.074-103.986,7.296
		c-6.463-2.362-12.264-5.107-16.294-10.805c3.856-9.624,7.956-18.588,13.584-27.273c22.896-35.299,61.6-64.379,103.152-72.961
		c31.13-6.427,56.249,1.251,82.411,18.171C3468.958,856.748,3443.248,885.759,3404.891,903.269z"/>
	<path style="fill:#B11204;" d="M3482.542,849.001c-17.962,35.056-53.748,59.862-90.715,71.258
		c-33.041,10.215-73.447,12.021-104.785-4.69c-13.793-7.365-24.633-18.831-29.254-33.979c-3.023-9.902-4.934-24.668,0.243-34.292
		c1.494-2.71,2.78-3.995,5.211-5.767c-2.884,18.275-1.702,38.113,9.277,53.817c1.876,2.71,3.092,4.169,6.045,5.698
		c2.363-0.174,4.274,0.347,6.046-1.285c4.03,5.698,9.832,8.443,16.294,10.805c32.068,11.778,73.412,6.671,103.986-7.296
		c38.356-17.511,64.066-46.521,78.867-85.572c4.586-10.701,3.544-23.73,3.787-35.195
		C3494.737,805.641,3493.729,827.147,3482.542,849.001z"/>
	<path style="fill:#201F1F;" d="M3487.545,782.502c-0.244,11.465,0.799,24.494-3.787,35.195
		c-26.162-16.92-51.281-24.598-82.411-18.171c-41.552,8.582-80.256,37.662-103.152,72.961c-5.628,8.686-9.728,17.65-13.584,27.273
		c-1.772,1.633-3.683,1.112-6.046,1.285c-2.953-1.529-4.169-2.988-6.045-5.698c-10.979-15.704-12.16-35.542-9.277-53.817
		c24.598-37.036,37.279-52.67,77.79-74.42c31.65-17.024,72.96-29.011,108.468-17.615
		C3467.151,755.159,3479.38,766.034,3487.545,782.502z"/>
	<path style="fill:#ACAAA7;" d="M411.71,2410.344c-0.336-0.737-0.75-1.438-1.006-2.206c-5.302-15.86-7.734-38.301-11.419-55.252
		c-33.065-152.109-13.511-298.012,61.866-434.535c146.513-265.368,430.569-420.089,712.711-501.353
		c412.195-118.724,897.824-79.266,1275.224,128.994c13.849-10.729,26.808-23.681,39.941-35.33
		c19.477-17.278,39.576-34.184,58.472-52.083c4.486-4.252,7.553-5.736,7.755-11.948c0.778-0.181,1.56-0.351,2.335-0.542
		c7.237-1.81,13.407-6.754,20.79-8.158c30.696-5.837,76.685,11.226,103.013,26.103c23.994,13.56,47.087,33.881,63.226,56.225
		c19.949,27.152,23.583,49.637,27.1,82.703c0.848,7.987,0.973,17.323,3.808,24.862c-27.784,35.504-44.565,77.203-69.344,114.524
		l2.004,2.505c20.377,25.224,44.947,47.035,64.713,72.947c103.628,135.859,166.246,288.5,149.43,461.729
		c-2.199,22.632-17.736,118.154-26.978,133.049c-11.973,15.287-16.878,41.354-25.019,59.494
		c-10.823,24.129-23.858,47.821-37.86,70.265c-39.423,63.194-87.719,119.207-140.598,171.436
		c-15.537,15.343-34.847,28.781-49.377,44.773c-22.944,13.776-44.343,32.871-66.13,48.606
		c-33.402,24.122-68.767,46.101-104.632,66.349c-377.598,213.152-857.317,267.556-1274.241,151.115
		c-264.749-73.94-541.864-217.961-699.308-451.615c-24.072-35.726-45.118-72.877-63.016-112.067
		c-7.68-16.816-12.669-36.014-21.663-51.969L411.71,2410.344z"/>
	<path style="fill:#7B7B77;" d="M2744.618,1520.257c19.949,27.152,23.583,49.637,27.1,82.703c0.848,7.987,0.973,17.323,3.808,24.862
		c-27.784,35.504-44.565,77.203-69.344,114.524c-26.509-32.096-61.937-61.523-93.897-88.119
		C2661.631,1613.146,2706.286,1572.166,2744.618,1520.257z"/>
	<path style="fill:#201F1F;" d="M666.853,2641.666c-113.706-115.507-188.392-273.181-187.332-436.693
		c1.092-168.42,80.961-320.029,198.898-436.342c255.928-252.408,650.908-349.133,1000.994-346.402
		c335.302,2.616,711.045,114.388,950.752,358.51c116.827,118.981,198.953,274.7,197.744,444.271
		c-1.16,162.674-85.927,306.576-196.726,419.915c-0.969-16.826,10.485-70.692,13.247-91.013
		c10.778-147.401-46.844-277.983-141.425-387.643c-180.581-209.369-466.891-319.866-737.978-339.628
		c-315.3-22.986-651.468,54.901-894.739,265.479c-118.019,102.158-209.782,236.632-220.761,396.592
		C646.049,2539.39,651.277,2593.193,666.853,2641.666z"/>
	<path style="fill:#5A5955;" d="M666.853,2641.666c-15.575-48.473-20.804-102.277-17.326-152.953
		c10.979-159.961,102.742-294.434,220.761-396.592c243.271-210.578,579.438-288.465,894.739-265.479
		c271.086,19.762,557.397,130.259,737.978,339.628c94.581,109.66,152.203,240.241,141.425,387.643
		c-2.762,20.321-14.217,74.187-13.247,91.013c-20.592,25.585-54.185,49.756-79.437,71.4
		c-25.623,27.669-68.628,53.682-100.724,73.749c-211.589,132.291-491.222,206.377-739.562,216.133
		c-276.346,10.854-574.018-44.078-813.61-187.279c-52.723-26.196-130.919-83.328-174.81-123.599
		C704.521,2678.821,681.813,2661.463,666.853,2641.666z"/>
	<path style="fill:#7B7B77;" d="M723.039,2695.33c4.204-26.234,3.909-52.542,9.203-78.971
		c34.236-170.94,172.051-314.446,312.483-408.169c237.771-158.689,538.417-215.303,818.321-158.894
		c244.598,49.293,486.831,182.572,627.109,394.025c-0.57-0.08-1.136-0.143-1.702-0.236c-28.465-4.711-68.051-32.45-96.158-44.603
		c-52.028-22.493-106.898-43.095-161.156-59.494c-337.129-101.898-748.144-77.05-1043.8,127.233
		c-127.976,88.425-230.906,208.042-289.49,352.708C845.127,2792.733,766.93,2735.601,723.039,2695.33z"/>
	<path style="fill:#6C6C68;" d="M897.849,2818.929c58.584-144.667,161.514-264.284,289.49-352.708
		c295.657-204.282,706.671-229.131,1043.8-127.233c54.258,16.399,109.128,37.001,161.156,59.494
		c28.107,12.153,67.693,39.892,96.158,44.603c0.566,0.094,1.133,0.156,1.702,0.236c1.918,1.81,4.089,3.537,5.632,5.681
		c43.822,71.216,84.929,150.635,64.563,236.548c-2.453,10.346-5.573,20.585-8.606,30.775
		c-25.623,27.669-68.628,53.682-100.724,73.749c-211.589,132.291-491.222,206.377-739.562,216.133
		C1435.113,3017.062,1137.441,2962.13,897.849,2818.929z"/>
</g>
</svg>
