<?xml version="1.0" encoding="utf-8"?>
<!-- Generator: Adobe Illustrator 27.5.0, SVG Export Plug-In . SVG Version: 6.00 Build 0)  -->
<svg version="1.1" id="Ñëîé_1" xmlns="http://www.w3.org/2000/svg" xmlns:xlink="http://www.w3.org/1999/xlink" x="0px" y="0px"
	 viewBox="0 0 4000 4000" style="enable-background:new 0 0 4000 4000;" xml:space="preserve">
<rect id="bckgrnd" style="fill:#FFFFFF;" width="4000" height="4000"/>
<g id="needle_part">
	<polygon style="fill:#AABECE;" points="2008.983,1847.778 653.564,3203.197 587.294,3412.706 796.803,3346.436 2152.222,1991.017 	
		"/>
	<path style="fill:#FFFFFF;" d="M816.699,3255.448c-3.199,0-6.398-1.221-8.839-3.661c-4.881-4.882-4.881-12.796,0-17.678
		l507.051-507.051c4.882-4.881,12.796-4.881,17.678,0c4.881,4.882,4.881,12.796,0,17.678l-507.051,507.051
		C823.097,3254.228,819.898,3255.448,816.699,3255.448z"/>
	<path style="fill:#FFFFFF;" d="M1362.754,2703.393c-3.199,0-6.398-1.221-8.839-3.661c-4.881-4.882-4.881-12.796,0-17.678
		l64.506-64.507c4.882-4.881,12.796-4.881,17.678,0c4.881,4.882,4.881,12.796,0,17.678l-64.506,64.507
		C1369.152,2702.172,1365.953,2703.393,1362.754,2703.393z"/>
</g>
<g id="plastic_part">
	<path style="fill:#E90037;" d="M2246.127,2770.153c12.707-2.136,24.246-8.538,32.711-18.253
		c107.815-123.734,258.452-490.273-141.006-889.731c-373.58-373.58-757.013-249.418-886.056-143.869
		c-11.806,9.656-19.144,23.705-20.238,38.918c-6.037,83.943-2.434,386.156,311.328,699.917
		C1887.021,2801.291,2170.868,2782.802,2246.127,2770.153z"/>
	<path style="fill:#FF4C47;" d="M2827.894,1579.01l-203.452-203.452l-203.452-203.452l-672.799,582.085
		c-17.727,15.337-23.981,40.09-15.615,61.987c22.658,59.304,72.762,182.379,170.815,280.431
		c102.434,102.434,222.715,150.394,280.725,171.661c21.722,7.963,46.075,1.592,61.212-15.904L2827.894,1579.01z"/>
	<path style="fill:#E90037;" d="M3393.391,1539.363c-157.607,157.607-584.856,162.133-843.812-96.823
		s-240.556-682.159-87.956-836.892C2571.789,561.072,3388.857,1378.047,3393.391,1539.363z"/>
	
		<ellipse transform="matrix(0.7071 -0.7071 0.7071 0.7071 98.5867 2383.9814)" style="fill:#FF4C47;" cx="2927.014" cy="1072.986" rx="191.137" ry="659.557"/>
</g>
</svg>
