<?xml version="1.0" encoding="utf-8"?>
<svg id="evpHF6YnV4h1" xmlns="http://www.w3.org/2000/svg" viewBox="0 -100 300 400" shape-rendering="geometricPrecision" text-rendering="geometricPrecision" project-id="3777bef8cffc49fcb987fa4cb1e04379" export-id="f09c81492d454806b5a9b3096cf52056" cached="false">
  <path d="M64.59,117.5c-17-12.45-24.2-13.48-35.46-7.24-11.47,6.35-21.36,24.82-23.87,43.77-1.79,13.46,1.37,29.19,13.64,36.95c11.83,7.48,26.58,1.35,31-3.88c7.91-9.37,13.65-17,14.56-29.23.91-12.22,1.33-24.46.47-36.69-.35-5.01-.7-10.01-1.06-15.02.69,18.16,1.38,36.32,2.07,54.48.32,8.56.79,17.58,5.4,24.8s14.92,11.55,22.04,6.78" transform="translate(103 0.879202)" fill="none" stroke-width="32" stroke-linecap="round" stroke-linejoin="round" stroke-miterlimit="10" stroke-dasharray="356.38" style=""/>
  <path d="M 56.99 131.58 C 64.766 135.777 74.472 132.876 78.67 125.1 C 82.867 117.324 79.966 107.618 72.19 103.42 C 72.19 103.42 72.794 103.782 72.19 103.42 C 72.19 103.42 64.922 98.243 61.061 96.159 C 56.936 93.933 51.807 91.95 47.753 91.164 C 38.887 89.445 28.713 92.443 21.379 96.263 C 13.455 101.219 4.799 110.521 -0.229 119.791 C -5.121 128.81 -9.009 140.985 -10.601 151.925 C -11.556 160.084 -11.165 170.946 -8.436 179.504 C -5.682 188.14 1.802 198.253 10.348 204.503 C 20.132 209.471 32.824 211.138 40.599 209.437 C 48.772 207.648 57.879 201.761 62.12 197.428 C 70.31 187.707 77.921 175.503 80.416 159.057 C 81.343 146.518 81.766 133.123 80.891 120.058 C 80.541 115.047 80.19 110.038 79.829 105.013 C 79.203 96.304 71.711 89.705 62.993 90.184 C 54.275 90.663 47.55 98.043 47.882 106.768 C 48.572 124.928 49.261 143.085 49.951 161.244 C 50.277 169.921 51.12 183.503 57.855 194.051 C 61.611 199.933 69.741 206.233 76.222 208.459 C 79.596 209.618 84.947 210.429 88.77 210.144 C 92.635 209.856 98.457 207.689 102.285 205.513 C 109.627 200.594 111.591 190.656 106.673 183.315 C 101.754 175.973 91.816 174.009 84.475 178.927 C 84.743 179.136 86.606 178.217 86.392 178.233 C 86.135 178.252 87.285 178.424 86.616 178.194 C 85.009 177.642 85.679 178.167 84.826 176.829 C 82.34 172.937 82.243 168.475 81.928 160.033 C 81.238 141.873 80.548 123.713 79.858 105.553 C 80.19 114.277 73.465 121.657 64.747 122.136 C 56.029 122.615 48.537 116.016 47.911 107.307 C 48.27 112.302 48.62 117.293 48.969 122.302 C 49.814 133.697 49.397 144.783 48.504 156.683 C 49.179 164.697 45.306 167.759 37.68 176.772 C 37.501 177.669 37.023 177.462 33.759 178.176 C 30.096 178.978 29.496 179.968 27.451 177.457 C 23.727 175.946 23.497 174.315 22.051 169.781 C 20.58 165.169 20.288 161.431 21.121 156.131 C 22.04 148.122 24.351 141.59 27.899 135.049 C 31.311 128.759 33.339 125.649 36.886 124.255 C 40.811 121.837 39.863 122.23 41.662 122.579 C 42.941 122.827 43.503 123.046 45.861 124.318 C 48.483 125.734 56.99 131.58 56.99 131.58 C 56.386 131.218 56.99 131.58 56.99 131.58 Z" style="fill: rgb(217, 217, 217);" transform="matrix(1, 0, 0, 1, 103, 0.8792020082473755)"/>
</svg>