<?xml version="1.0" encoding="UTF-8" standalone="no"?>
<svg
   id="e2jbXM3eZmd1"
   viewBox="-100 -100 300 400"
   shape-rendering="geometricPrecision"
   text-rendering="geometricPrecision"
   project-id="c5465a02a21f4e6f86cb9aadb9560882"
   export-id="a19b4131442f4610a7e0b89df3694053"
   cached="false"
   version="1.1"
   sodipodi:docname="lowercase-t-outline-paths.svg"
   inkscape:version="1.4 (e7c3feb1, 2024-10-09)"
   xmlns:inkscape="http://www.inkscape.org/namespaces/inkscape"
   xmlns:sodipodi="http://sodipodi.sourceforge.net/DTD/sodipodi-0.dtd"
   xmlns="http://www.w3.org/2000/svg"
   xmlns:svg="http://www.w3.org/2000/svg">
  <defs
     id="defs4" />
  <sodipodi:namedview
     id="namedview4"
     pagecolor="#ffffff"
     bordercolor="#000000"
     borderopacity="0.25"
     inkscape:showpageshadow="2"
     inkscape:pageopacity="0.0"
     inkscape:pagecheckerboard="0"
     inkscape:deskcolor="#d1d1d1"
     inkscape:zoom="1.0266568"
     inkscape:cx="85.715108"
     inkscape:cy="184.57969"
     inkscape:window-width="1728"
     inkscape:window-height="980"
     inkscape:window-x="0"
     inkscape:window-y="38"
     inkscape:window-maximized="0"
     inkscape:current-layer="e2jbXM3eZmd1" />
  <path
     id="path2"
     style="fill: rgb(217, 217, 217);"
     d="M 54.714844 -13.068359 C 51.956219 -13.212734 49.159781 -12.643703 46.613281 -11.345703 C 41.520281 -8.7497031 38.200344 -3.6347812 37.902344 2.0742188 C 37.902344 2.0742188 37.479844 17.286297 37.089844 25.779297 C 36.699844 34.279297 36.213359 43.213172 35.693359 52.076172 C 35.014001 63.642876 34.405541 72.845427 33.775391 82.642578 C 26.738296 82.206666 20.78125 81.914063 20.78125 81.914062 C 15.09425 81.343063 9.5352656 83.849234 6.1972656 88.490234 C 2.8602656 93.130234 2.2505625 99.200156 4.6015625 104.41016 C 6.9515625 109.62116 11.903797 113.18195 17.591797 113.75195 C 17.591797 113.75195 26.494577 113.84364 31.824219 114.1582 C 29.975715 144.41098 28.842293 164.90486 29.142578 177.67383 C 29.329578 185.63683 30.331797 193.14098 32.216797 197.95898 C 33.431797 201.06498 36.322625 205.39683 38.765625 207.54883 C 41.456625 209.91883 46.500688 211.95347 49.429688 212.73047 C 56.142687 213.25547 65.830813 211.5798 71.507812 208.9668 C 77.194813 206.3488 84.491906 200.48856 88.253906 195.72656 C 93.040906 188.29956 90.900656 178.39737 83.472656 173.60938 C 76.045656 168.82237 66.143469 170.96263 61.355469 178.39062 C 61.5413 178.53462 61.476297 178.59134 61.21875 178.68555 C 61.195112 177.99515 61.154548 177.76069 61.134766 176.92188 C 60.866412 165.48509 61.91053 146.47257 63.697266 117.21289 C 69.659836 117.51647 75.953399 117.54049 82.519531 117.01172 C 91.319531 116.20172 97.797281 108.41228 96.988281 99.613281 C 96.178281 90.813281 88.388844 84.335531 79.589844 85.144531 C 74.749517 85.662632 70.226597 85.671558 65.666016 85.408203 C 66.306831 75.437665 66.933603 65.924916 67.636719 53.951172 C 68.685719 36.091172 69.857422 3.7460937 69.857422 3.7460938 C 70.156422 -1.9619062 67.386797 -7.3967656 62.591797 -10.509766 C 60.194797 -12.066266 57.473469 -12.923984 54.714844 -13.068359 z " />
</svg>
