<?xml version="1.0" encoding="UTF-8" standalone="no"?>
<svg
   id="e0H52weYRqg1"
   viewBox="-100 -100 300 400"
   shape-rendering="geometricPrecision"
   text-rendering="geometricPrecision"
   project-id="abbf6b7f32c94896992e2c9a769b390a"
   export-id="129eb4b3e2184bedb81fefb30795a6a1"
   cached="false"
   version="1.1"
   sodipodi:docname="lowercase-i-outline-paths.svg"
   inkscape:version="1.4 (e7c3feb1, 2024-10-09)"
   xmlns:inkscape="http://www.inkscape.org/namespaces/inkscape"
   xmlns:sodipodi="http://sodipodi.sourceforge.net/DTD/sodipodi-0.dtd"
   xmlns="http://www.w3.org/2000/svg"
   xmlns:svg="http://www.w3.org/2000/svg">
  <defs
     id="defs3" />
  <sodipodi:namedview
     id="namedview3"
     pagecolor="#ffffff"
     bordercolor="#000000"
     borderopacity="0.25"
     inkscape:showpageshadow="2"
     inkscape:pageopacity="0.0"
     inkscape:pagecheckerboard="0"
     inkscape:deskcolor="#d1d1d1"
     inkscape:zoom="3.4454812"
     inkscape:cx="146.27855"
     inkscape:cy="163.9829"
     inkscape:window-width="1592"
     inkscape:window-height="921"
     inkscape:window-x="0"
     inkscape:window-y="38"
     inkscape:window-maximized="0"
     inkscape:current-layer="e0H52weYRqg1" />
  <path
     id="path2"
     style="fill: rgb(217, 217, 217);"
     d="M 49.90625 33.138672 C 49.78449 33.138374 49.642111 33.149143 49.513672 33.152344 C 47.514642 33.089949 45.543753 33.404794 43.697266 34.056641 C 42.938528 34.271117 42.251071 34.513473 41.714844 34.775391 C 39.984844 35.620391 37.299828 37.989906 36.048828 39.253906 C 35.536848 39.872572 35.343719 40.361203 35.402344 40.738281 C 34.869206 41.603532 34.408092 42.530519 34.037109 43.517578 C 34.037109 43.517578 32.838641 41.641797 31.306641 45.716797 C 30.380641 48.183797 29.720469 54.930891 31.230469 58.837891 C 32.213469 61.380891 36.179594 66.191578 39.183594 67.767578 C 41.616594 69.044578 46.654562 69.603859 49.226562 69.630859 C 52.715563 68.687859 58.128875 66.465125 60.171875 64.578125 C 62.259875 62.648125 64.960219 56.668813 66.199219 52.507812 C 65.850219 48.734813 64.239953 41.913422 62.001953 39.232422 C 61.05959 38.103851 58.504643 36.182556 55.722656 34.798828 C 55.503914 34.570027 55.150533 34.358882 54.642578 34.167969 C 53.977731 33.918169 53.306302 33.719729 52.632812 33.5625 C 52.019802 33.383426 51.419628 33.248525 50.849609 33.185547 C 50.570234 33.154547 50.252754 33.13952 49.90625 33.138672 z M 46.271484 81.560547 C 43.512109 81.676672 40.783094 82.506563 38.371094 84.039062 C 33.546094 87.103062 30.723797 92.510703 30.966797 98.220703 C 30.966797 98.220703 30.374078 130.53461 31.580078 147.34961 C 32.786078 164.16461 35.061422 181.3785 38.232422 197.9375 C 39.901422 206.6155 48.289797 212.29595 56.966797 210.62695 C 65.644797 208.95795 71.32525 200.56958 69.65625 191.89258 C 66.63725 176.27158 64.637047 160.93555 63.498047 145.06055 C 62.929047 137.12355 62.605859 129.40522 62.505859 121.44922 C 62.405859 113.49222 62.923828 96.873047 62.923828 96.873047 C 62.685828 91.163047 59.419516 86.014187 54.353516 83.367188 C 51.821016 82.043187 49.030859 81.444422 46.271484 81.560547 z "
     inkscape:label="outline" />
</svg>
