<?xml version="1.0" encoding="utf-8"?>
<svg id="e2jbXM3eZmd1" xmlns="http://www.w3.org/2000/svg" viewBox="-100 -100 300 400" shape-rendering="geometricPrecision" text-rendering="geometricPrecision" project-id="c5465a02a21f4e6f86cb9aadb9560882" export-id="a19b4131442f4610a7e0b89df3694053" cached="false">
  <path d="M 53.885 2.808 C 53.385 30.938 50.185 76.198 48.725 99.898 C 43.865 178.688 42.765 195.128 52.495 197.028 C 58.905 198.278 71.505 192.178 74.805 187.058" fill="none" stroke-width="32" stroke-linecap="round" stroke-miterlimit="10" style=""/>
  <path d="M 69.857 3.746 C 70.156 -1.962 67.387 -7.396 62.592 -10.509 C 57.798 -13.622 51.707 -13.941 46.614 -11.345 C 41.521 -8.749 38.2 -3.634 37.902 2.075 C 37.902 2.075 37.899 2.152 37.902 2.075 C 37.902 2.075 37.48 17.287 37.09 25.78 C 36.7 34.28 36.213 43.213 35.693 52.076 C 34.652 69.8 33.488 87.017 32.755 98.914 C 30.326 138.301 28.793 162.79 29.143 177.673 C 29.33 185.636 30.332 193.141 32.217 197.959 C 33.432 201.065 36.322 205.396 38.765 207.548 C 41.456 209.918 46.5 211.954 49.429 212.731 C 56.142 213.256 65.83 211.579 71.507 208.966 C 77.194 206.348 84.492 200.488 88.254 195.726 C 93.041 188.299 90.901 178.397 83.473 173.609 C 76.046 168.822 66.144 170.962 61.356 178.39 C 61.818 178.748 61.166 178.498 58.126 179.898 C 55.075 181.302 55.957 181.083 55.632 181.366 C 56.273 181.737 59.007 182.734 59.915 183.533 C 60.575 184.114 61.992 186.234 62.018 186.3 C 61.524 185.039 61.281 183.154 61.134 176.921 C 60.817 163.411 62.264 140.284 64.695 100.882 C 65.422 89.079 66.588 71.816 67.637 53.952 C 68.686 36.092 69.857 3.746 69.857 3.746 C 69.861 3.68 69.857 3.746 69.857 3.746 Z" style="fill: rgb(217, 217, 217);"/>
  <path d="M 18.945 97.808 C 41.125 97.158 58.875 103.118 81.055 101.078" fill="none" stroke-width="32" stroke-linecap="round" stroke-miterlimit="10" style=""/>
  <path d="M 20.782 81.914 C 15.095 81.343 9.535 83.85 6.197 88.491 C 2.86 93.131 2.251 99.2 4.602 104.41 C 6.952 109.621 11.904 113.181 17.592 113.751 C 17.592 113.751 17.888 113.77 17.592 113.751 C 17.592 113.751 28.701 113.864 33.534 114.274 C 38.354 114.683 43.104 115.274 48.163 115.858 C 58.282 117.028 69.916 118.026 82.52 117.011 C 91.32 116.201 97.797 108.412 96.988 99.613 C 96.178 90.813 88.389 84.336 79.59 85.145 C 70.014 86.17 61.683 85.208 51.837 84.07 C 41.991 82.932 20.782 81.914 20.782 81.914 C 20.918 81.931 20.782 81.914 20.782 81.914 Z" style="fill: rgb(217, 217, 217);"/>
</svg>