<?xml version="1.0" encoding="utf-8"?>
<svg id="eNJCePIKwWi1" xmlns="http://www.w3.org/2000/svg" viewBox="-100 -100 300 400" shape-rendering="geometricPrecision" text-rendering="geometricPrecision" project-id="f6178afd5d3b438b840dac0f9307b178" export-id="83f3a3e203314bc0a9654268dc025c7a" cached="false">
  <path d="M 18.64 81.143 C 18.39 82.003 14.62 166.313 13.92 178.643 C 12.42 205.303 10.19 259.203 10.19 278.643" fill="none" stroke-width="32" stroke-linecap="round" stroke-miterlimit="10" style=""/>
  <path d="M 34.614 82.05 C 35.115 73.228 28.369 65.67 19.547 65.169 C 10.725 64.668 3.167 71.414 2.666 80.236 C 2.666 80.236 2.661 80.332 2.666 80.236 C 2.666 80.236 -1.359 165.502 -2.054 177.736 C -3.56 204.515 -5.803 258.872 -5.81 278.643 C -5.81 287.48 1.353 294.643 10.19 294.643 C 19.027 294.643 26.19 287.48 26.19 278.643 C 26.183 259.534 28.4 206.088 29.895 179.546 C 30.6 167.104 34.614 82.05 34.614 82.05 C 34.619 81.954 34.614 82.05 34.614 82.05 Z" style="fill: rgb(217, 217, 217);"/>
  <path d="M 19.99 101.773 C 26.14 98.503 43.81 82.493 67.5 86.593 C 76.56 88.163 98.51 112.133 86.1 151.833 C 72.27 196.063 15.37 165.923 15.37 165.923" fill="none" stroke-width="32" stroke-linecap="round" stroke-miterlimit="10" style=""/>
  <path d="M 5.863 109.285 C 1.714 101.482 4.676 91.794 12.478 87.646 C 14.276 86.856 20.439 81.686 30.261 76.987 C 39.601 72.517 54.809 68.973 70.232 70.828 C 75.164 72.194 82.653 75.991 87.197 80.463 C 91.255 84.456 96.21 91.237 99.417 98.293 C 105.394 111.443 107.852 133.186 101.371 156.608 C 96.051 170.817 85.875 182.579 75.976 187.195 C 65.931 191.879 52.873 192.511 43.552 191.339 C 24.787 188.979 13.374 181.798 13.374 181.798 C 10.627 180.93 13.374 181.798 13.374 181.798 C 4.606 180.695 -1.608 172.694 -0.505 163.927 C 0.598 155.159 8.599 148.945 17.366 150.048 C 17.366 150.048 20.113 150.916 17.366 150.048 C 17.366 150.048 34.403 157.937 47.545 159.589 C 54.178 160.423 57.938 160.298 62.452 158.193 C 67.111 156.021 69.234 154.965 70.829 147.058 C 76.758 130.781 74.446 120.688 70.285 111.535 C 68.424 107.44 66.968 105.453 64.751 103.27 C 63.018 101.565 64.365 101.777 64.768 102.358 C 56.503 100.114 51.029 102.524 44.074 105.852 C 37.601 108.95 31.854 113.42 27.502 115.9 C 19.699 120.049 10.011 117.087 5.863 109.285 Z" style="fill: rgb(217, 217, 217);"/>
</svg>