<?xml version="1.0" encoding="utf-8"?>
<svg id="e0H52weYRqg1" xmlns="http://www.w3.org/2000/svg" viewBox="-100 -100 300 400" shape-rendering="geometricPrecision" text-rendering="geometricPrecision" project-id="abbf6b7f32c94896992e2c9a769b390a" export-id="129eb4b3e2184bedb81fefb30795a6a1" cached="false">
  <path d="M 46.925 97.075 C 45.395 129.815 47.755 162.735 53.945 194.915" fill="none" stroke-width="32" stroke-linecap="round" stroke-miterlimit="10" style=""/>
  <path d="M 62.924 96.874 C 62.686 91.164 59.419 86.014 54.353 83.367 C 49.288 80.719 43.195 80.975 38.371 84.04 C 33.546 87.104 30.723 92.51 30.966 98.22 C 30.966 98.22 30.946 97.749 30.966 98.22 C 30.966 98.22 30.375 130.535 31.581 147.35 C 32.787 164.165 35.062 181.378 38.233 197.937 C 39.902 206.615 48.29 212.296 56.967 210.627 C 65.645 208.958 71.326 200.57 69.657 191.893 C 66.638 176.272 64.638 160.935 63.499 145.06 C 62.93 137.123 62.605 129.405 62.505 121.449 C 62.405 113.492 62.924 96.874 62.924 96.874 C 62.923 97.111 62.924 96.874 62.924 96.874 Z" style="fill: rgb(217, 217, 217);"/>
  <path d="M 36.049 39.254 C 30.415 46.062 62.915 37.276 54.643 34.167 C 46.371 31.059 37.146 35.245 34.037 43.517 C 34.037 43.517 32.839 41.642 31.307 45.717 C 30.381 48.184 29.721 54.93 31.231 58.837 C 32.214 61.38 36.179 66.191 39.183 67.767 C 41.616 69.044 46.654 69.604 49.226 69.631 C 52.715 68.688 58.129 66.465 60.172 64.578 C 62.26 62.648 64.96 56.668 66.199 52.507 C 65.85 48.734 64.24 41.914 62.002 39.233 C 60.504 37.439 54.931 33.637 50.849 33.186 C 48.614 32.938 43.922 33.698 41.715 34.776 C 39.985 35.621 37.3 37.99 36.049 39.254 Z" style="fill: rgb(217, 217, 217);"/>
</svg>