<?xml version="1.0" encoding="UTF-8" standalone="no"?>
<svg
   id="eNJCePIKwWi1"
   viewBox="-100 -100 300 400"
   shape-rendering="geometricPrecision"
   text-rendering="geometricPrecision"
   project-id="f6178afd5d3b438b840dac0f9307b178"
   export-id="83f3a3e203314bc0a9654268dc025c7a"
   cached="false"
   version="1.1"
   sodipodi:docname="lowercase-p-outline-paths.svg"
   inkscape:version="1.4 (e7c3feb1, 2024-10-09)"
   xmlns:inkscape="http://www.inkscape.org/namespaces/inkscape"
   xmlns:sodipodi="http://sodipodi.sourceforge.net/DTD/sodipodi-0.dtd"
   xmlns="http://www.w3.org/2000/svg"
   xmlns:svg="http://www.w3.org/2000/svg">
  <defs
     id="defs4" />
  <sodipodi:namedview
     id="namedview4"
     pagecolor="#ffffff"
     bordercolor="#000000"
     borderopacity="0.25"
     inkscape:showpageshadow="2"
     inkscape:pageopacity="0.0"
     inkscape:pagecheckerboard="0"
     inkscape:deskcolor="#d1d1d1"
     inkscape:zoom="1.9455348"
     inkscape:cx="40.605801"
     inkscape:cy="275.75965"
     inkscape:window-width="1728"
     inkscape:window-height="980"
     inkscape:window-x="0"
     inkscape:window-y="38"
     inkscape:window-maximized="0"
     inkscape:current-layer="eNJCePIKwWi1" />
  <path
     id="path2"
     style="fill: rgb(217, 217, 217);"
     d="M 17.908203 65.158203 C 9.8069177 65.518837 3.1357031 71.965703 2.6660156 80.236328 C 2.6660156 80.236328 -1.3596875 165.50233 -2.0546875 177.73633 C -3.5606875 204.51533 -5.8035469 258.87158 -5.8105469 278.64258 C -5.8105469 287.47958 1.3524531 294.64258 10.189453 294.64258 C 19.026453 294.64258 26.189453 287.47958 26.189453 278.64258 C 26.183101 261.30175 27.992238 216.55616 29.447266 188.42773 C 33.500639 189.60236 38.217299 190.66883 43.552734 191.33984 C 52.873734 192.51184 65.931562 191.87931 75.976562 187.19531 C 85.875563 182.57931 96.051094 170.81642 101.37109 156.60742 C 107.85209 133.18542 105.39497 111.44297 99.417969 98.292969 C 96.210969 91.236969 91.255266 84.455891 87.197266 80.462891 C 82.653266 75.990891 75.164422 72.194125 70.232422 70.828125 C 56.52834 69.179868 43.018008 71.800024 33.619141 75.539062 C 31.461691 69.783325 26.077855 65.540815 19.546875 65.169922 C 18.9955 65.138609 18.448289 65.134161 17.908203 65.158203 z M 59.025391 101.48828 C 60.558082 101.5206 62.178151 101.73789 63.912109 102.15039 C 63.948994 102.34827 64.165359 102.69241 64.751953 103.26953 C 66.968953 105.45253 68.424156 107.44016 70.285156 111.53516 C 74.446156 120.68816 76.757125 130.78159 70.828125 147.05859 C 69.233125 154.96559 67.110172 156.02136 62.451172 158.19336 C 57.937172 160.29836 54.177922 160.42384 47.544922 159.58984 C 42.216747 158.92007 36.291816 157.22215 31.078125 155.44336 C 31.865352 139.40814 32.359666 129.46697 33.175781 112.30078 C 36.448931 110.14169 40.098179 107.75451 44.074219 105.85156 C 49.290469 103.35556 53.673016 101.37541 59.025391 101.48828 z "
     inkscape:label="outline" />
</svg>
