<?xml version="1.0" encoding="utf-8"?>
<svg id="eLRyWUFfrmV1" xmlns="http://www.w3.org/2000/svg" viewBox="-110 -100 300 400" shape-rendering="geometricPrecision" text-rendering="geometricPrecision" project-id="e8d764fb483347828c96b335637afa61" export-id="37a3a956ea514cd3939a38843a8af444" cached="false">
  <path d="M7.81,105.44c-1.6,28.71-5.41,69.58-1.84,94.48.16-23.68-3.88-65.84,12.72-83.63c10.13-10.86,24.9-10.27,35.94-2.77c13.46,9.15,11.64,23.43,12.32,37.87.8,16.82-.88,32.57-3.55,48.3" transform="translate(4 0)" fill="none" stroke-width="32" stroke-linecap="round" stroke-linejoin="round" stroke-miterlimit="10" style=""/>
  <path d="M 8.7 89.465 C 17.523 89.956 24.277 97.507 23.785 106.33 C 22.163 135.338 18.284 174.627 21.808 197.649 C 20.62 189.36 13.24 183.389 4.886 183.957 C -3.469 184.524 -9.973 191.438 -10.03 199.812 C -9.936 188.497 -10.952 171.535 -9.797 154.795 C -8.637 137.976 -3.289 118.088 6.991 105.375 C 14.856 98.007 26.565 92.425 35.632 92.035 C 44.686 91.646 56.002 95.522 63.625 100.288 C 73.022 107.92 79.546 118.76 81.268 127.313 C 82.953 135.684 82.595 144.108 82.932 150.633 C 83.695 168.682 79.382 198.93 79.382 198.93 C 79.346 200.158 79.382 198.93 79.382 198.93 C 79.297 204.642 76.167 209.873 71.174 212.648 C 66.181 215.423 60.086 215.32 55.191 212.377 C 50.295 209.433 47.344 204.099 47.453 198.388 C 47.453 198.388 47.502 197.944 47.453 198.388 C 47.453 198.388 49.912 182.208 50.529 174.647 C 51.148 167.074 51.362 159.964 50.968 152.15 C 50.626 144.237 50.837 138.296 49.897 133.629 C 48.994 129.145 49.698 128.271 45.636 126.753 C 42.221 124.021 40.629 123.849 37.006 124.005 C 33.395 124.16 32.655 123.712 30.39 127.204 C 24.071 132.281 23.136 142.369 22.127 156.998 C 21.112 171.705 22.036 187.663 21.97 200.028 C 21.913 208.402 15.409 215.316 7.054 215.883 C -1.3 216.451 -8.68 210.48 -9.868 202.191 C -13.484 175.413 -9.743 132.962 -8.165 104.55 C -7.674 95.727 -0.123 88.973 8.7 89.465 Z" style="fill: rgb(217, 217, 217);" transform="matrix(1, 0, 0, 1, 4, 0)"/>
</svg>