<?xml version="1.0" encoding="utf-8"?>
<svg id="eDwg2zmCaZA1" xmlns="http://www.w3.org/2000/svg" viewBox="-100 -100 300 400" shape-rendering="geometricPrecision" text-rendering="geometricPrecision" project-id="d278b97800df49a6884d55c0be111f84" export-id="75a0062c5579473db28a2b51235f143f" cached="false">
  <path d="M -2.3 4.123 C -2.3 4.123 18.3 4.223 18.1 4.123 C 18.1 4.123 33 4.323 43.4 4.123 C 62 3.823 81.3 3.523 102.3 4.123" fill="none" stroke-width="32" stroke-linecap="round" stroke-linejoin="round" stroke-miterlimit="10" style=""/>
  <path d="M -18.3 4.045 C -18.257 -4.791 -11.059 -11.92 -2.222 -11.877 C -2.222 -11.877 2.908 -11.852 8.014 -11.839 C 10.567 -11.833 33.003 -11.676 43.142 -11.875 C 52.444 -12.025 62.018 -12.176 71.889 -12.214 C 81.754 -12.252 102.239 -11.877 102.239 -11.877 C 102.329 -11.877 102.239 -11.877 102.239 -11.877 C 111.075 -11.911 118.266 -4.775 118.3 4.062 C 118.334 12.898 111.198 20.089 102.361 20.123 C 102.361 20.123 102.271 20.123 102.361 20.123 C 102.361 20.123 81.696 19.748 72.011 19.785 C 62.332 19.823 52.97 19.971 43.679 20.121 C 33.019 20.32 17.807 20.146 17.482 20.15 C 16.881 20.158 16.012 20.163 15.036 20.165 C 13.104 20.17 10.508 20.167 7.936 20.16 C 2.792 20.148 -2.378 20.123 -2.378 20.123 C -11.214 20.08 -18.343 12.882 -18.3 4.045 Z" style="fill: rgb(217, 217, 217);"/>
  <path d="M 50.2 4.123 C 50.3 42.723 49.9 78.123 49.9 116.823 C 49.9 123.823 49 172.423 49.7 196.223" fill="none" stroke-width="32" stroke-linecap="round" stroke-linejoin="round" stroke-miterlimit="10" style=""/>
  <path d="M 66.2 4.163 C 66.222 -4.673 59.077 -11.855 50.24 -11.877 C 41.404 -11.899 34.222 -4.754 34.2 4.083 C 34.2 4.083 34.2 4.098 34.2 4.083 C 34.2 4.083 34.219 23.198 34.195 32.534 C 34.172 41.871 34.131 51.106 34.088 60.36 C 34 78.867 33.9 97.43 33.9 116.823 C 33.9 123.675 33.005 172.51 33.707 196.693 C 33.967 205.526 41.338 212.476 50.17 212.216 C 59.003 211.956 65.953 204.585 65.693 195.753 C 64.995 172.336 65.9 123.971 65.9 116.823 C 65.9 97.516 66 79.029 66.087 60.511 C 66.131 51.252 66.172 41.981 66.195 32.615 C 66.219 23.248 66.2 4.163 66.2 4.163 C 66.2 4.148 66.2 4.163 66.2 4.163 Z" style="fill: rgb(217, 217, 217);"/>
</svg>