<?xml version="1.0" encoding="utf-8"?>
<svg id="eXzH3MgmTQW1" xmlns="http://www.w3.org/2000/svg" viewBox="-100 -100 300 400" shape-rendering="geometricPrecision" text-rendering="geometricPrecision" project-id="4cafcf6920364399bf97168858ec7d12" export-id="00d3c2e451c14bc488ddb7861d1e08f3" cached="false">
  <path d="M 2.5 4.06 C 2.5 4.06 21.2 4.16 21 4.06 C 21 4.06 34.5 4.26 44 4.06 C 60.9 3.76 78.4 3.46 97.5 4.06" fill="none" stroke-width="32" stroke-linecap="round" stroke-linejoin="round" stroke-miterlimit="10" style=""/>
  <path d="M -13.5 3.974 C -13.453 -4.862 -6.251 -11.987 2.586 -11.94 C 2.586 -11.94 7.239 -11.915 11.868 -11.902 C 14.182 -11.896 34.503 -11.738 43.716 -11.937 C 52.169 -12.088 60.877 -12.239 69.857 -12.277 C 78.832 -12.315 97.432 -11.94 97.432 -11.94 C 97.532 -11.94 97.432 -11.94 97.432 -11.94 C 106.269 -11.977 113.463 -4.844 113.5 3.992 C 113.537 12.829 106.404 20.023 97.568 20.06 C 97.568 20.06 97.468 20.06 97.568 20.06 C 97.568 20.06 78.768 19.685 69.993 19.722 C 61.223 19.759 52.752 19.907 44.305 20.057 C 34.52 20.257 20.763 20.058 20.763 20.058 C 28.227 20.169 2.414 20.06 2.414 20.06 C -6.422 20.013 -13.547 12.811 -13.5 3.974 Z" style="fill: rgb(217, 217, 217);"/>
  <path d="M 50.3 4.06 C 50.4 42.66 50 78.06 50 116.76 C 50 123.76 49.2 172.36 49.8 196.16" fill="none" stroke-width="32" stroke-linecap="round" stroke-linejoin="round" stroke-miterlimit="10" style=""/>
  <path d="M 66.3 4.1 C 66.322 -4.736 59.177 -11.918 50.34 -11.94 C 41.504 -11.962 34.322 -4.817 34.3 4.02 C 34.3 4.02 34.3 4.035 34.3 4.02 C 34.3 4.02 34.319 23.135 34.295 32.471 C 34.272 41.808 34.231 51.043 34.188 60.297 C 34.1 78.804 34 97.367 34 116.76 C 34 123.628 33.204 172.43 33.805 196.563 C 34.028 205.397 41.369 212.378 50.203 212.155 C 59.037 211.932 66.018 204.591 65.795 195.757 C 65.196 172.29 66 123.892 66 116.76 C 66 97.453 66.1 78.966 66.187 60.448 C 66.231 51.189 66.272 41.918 66.295 32.552 C 66.319 23.185 66.3 4.1 66.3 4.1 C 66.3 4.085 66.3 4.1 66.3 4.1 Z" style="fill: rgb(217, 217, 217);"/>
  <path d="M 2.5 195.76 C 2.5 195.76 17 195.86 16.7 195.76 C 16.7 195.76 39 196.36 49.8 196.16 C 65.7 195.86 84.3 196.56 97.5 196.16" fill="none" stroke-width="32" stroke-linecap="round" stroke-linejoin="round" stroke-miterlimit="10" style=""/>
  <path d="M 2.556 179.76 C -6.281 179.729 -13.469 186.868 -13.5 195.704 C -13.531 204.541 -6.392 211.729 2.444 211.76 C 2.444 211.76 2.417 211.76 2.444 211.76 C 2.444 211.76 6.042 211.785 9.657 211.797 C 11.464 211.804 13.305 211.807 14.665 211.802 C 15.358 211.8 38.933 212.356 50.096 212.157 C 65.544 211.853 84.241 212.551 97.985 212.153 C 106.817 211.885 113.76 204.508 113.493 195.675 C 113.225 186.843 105.848 179.9 97.015 180.167 C 84.359 180.569 65.852 179.867 49.501 180.163 C 39.063 180.364 11.548 179.804 9.768 179.798 C 6.208 179.785 2.556 179.76 2.556 179.76 C 2.583 179.76 2.556 179.76 2.556 179.76 Z" style="fill: rgb(217, 217, 217);"/>
</svg>