<?xml version="1.0" encoding="UTF-8" standalone="no"?>
<svg
   id="ei0poFWdf1z1"
   viewBox="-90 -100 300 400"
   shape-rendering="geometricPrecision"
   text-rendering="geometricPrecision"
   project-id="d8cfcdf289674dd9a7ba4dfd00958972"
   export-id="0e3a40e0f9804eff9f011e610cc4967f"
   cached="false"
   version="1.1"
   sodipodi:docname="uppercase-n-outline-paths.svg"
   inkscape:version="1.4 (e7c3feb1, 2024-10-09)"
   xmlns:inkscape="http://www.inkscape.org/namespaces/inkscape"
   xmlns:sodipodi="http://sodipodi.sourceforge.net/DTD/sodipodi-0.dtd"
   xmlns="http://www.w3.org/2000/svg"
   xmlns:svg="http://www.w3.org/2000/svg">
  <defs
     id="defs4" />
  <sodipodi:namedview
     id="namedview4"
     pagecolor="#ffffff"
     bordercolor="#000000"
     borderopacity="0.25"
     inkscape:showpageshadow="2"
     inkscape:pageopacity="0.0"
     inkscape:pagecheckerboard="0"
     inkscape:deskcolor="#d1d1d1"
     inkscape:zoom="1.4168041"
     inkscape:cx="90.344179"
     inkscape:cy="193.74592"
     inkscape:window-width="1728"
     inkscape:window-height="980"
     inkscape:window-x="0"
     inkscape:window-y="38"
     inkscape:window-maximized="0"
     inkscape:current-layer="ei0poFWdf1z1" />
  <path
     id="path2"
     style="fill: rgb(217, 217, 217);"
     d="M 6.9509816 -13.099589 C 5.8984358 -13.123168 4.8355414 -13.040931 3.7752004 -12.849589 C 2.1676308 -12.562855 0.64183248 -12.033056 -0.76386213 -11.302714 C -0.88961345 -11.23771 -1.0057065 -11.161702 -1.1290965 -11.09373 C -1.4582378 -10.911536 -1.7872079 -10.729623 -2.1017528 -10.52537 C -2.3688347 -10.352648 -2.6190822 -10.16139 -2.8732371 -9.9745889 C -3.0249426 -9.8628044 -3.1826929 -9.759519 -3.3302684 -9.6425576 C -3.6184572 -9.4145677 -3.8886428 -9.1693612 -4.1583934 -8.9238076 C -4.2699936 -8.8222448 -4.3875889 -8.7276807 -4.496284 -8.6230264 C -4.7343825 -8.393586 -4.9556362 -8.1507838 -5.1779246 -7.9081826 C -5.3095917 -7.7648312 -5.4460079 -7.6266161 -5.5724559 -7.4784951 C -5.7571038 -7.2615644 -5.92555 -7.034389 -6.0978465 -6.8085733 C -6.2426538 -6.6195298 -6.3910858 -6.4338666 -6.527534 -6.2382608 C -6.6614327 -6.0455133 -6.7813102 -5.8445984 -6.9064403 -5.6464639 C -7.0608964 -5.4029218 -7.2181178 -5.1624417 -7.3595653 -4.9101358 C -7.4493375 -4.7494598 -7.5273576 -4.5834735 -7.6115184 -4.4199014 C -7.7691669 -4.1144398 -7.9264539 -3.808833 -8.0646434 -3.492167 C -8.1132538 -3.3806328 -8.1513848 -3.2649344 -8.1974559 -3.1523233 C -8.3460677 -2.7893044 -8.4912996 -2.4248131 -8.6134715 -2.0488076 C -8.6581003 -1.9118717 -8.6897048 -1.770952 -8.730659 -1.632792 C -8.833357 -1.28485 -8.9365233 -0.9376305 -9.0158153 -0.58005764 C -9.0773959 -0.30492317 -9.1152389 -0.024695031 -9.1622996 0.25392674 C -9.2004766 0.48285408 -9.251107 0.70727677 -9.2794871 0.93947361 C -9.347676 1.4877399 -9.3878655 2.0411738 -9.3986278 2.5976767 C -9.4033567 2.7219338 -10.088744 20.735803 -10.299018 29.765645 C -10.510018 38.827645 -10.636409 47.882692 -10.699409 56.888692 C -10.824409 74.900692 -10.698237 93.040161 -10.498237 111.86916 C -10.298237 128.82216 -10.399237 143.88441 -9.9982371 167.27541 C -9.7962371 176.18441 -10.494331 201.46291 -10.494331 201.46291 C -10.736331 210.29591 -3.7716903 217.65255 5.0623097 217.89455 C 13.89531 218.13655 21.25195 211.17191 21.49395 202.33791 C 21.49395 202.33791 22.193857 176.43015 21.997857 166.70315 C 21.598857 143.69415 21.69981 128.7645 21.49981 111.5215 C 21.388813 101.1045 21.313714 90.995553 21.279107 80.998067 C 25.797283 91.110762 30.441513 100.94644 35.15606 109.88283 C 45.28106 128.93883 54.216747 146.60179 63.710747 166.88479 C 72.703747 186.02379 78.830732 196.16397 84.169732 208.37697 C 87.180732 215.17797 94.481872 219.00716 101.78887 217.61916 C 109.09487 216.23016 114.48192 209.98961 114.78692 202.55861 C 115.79192 177.72461 114.99664 146.29793 115.29864 123.00393 C 115.66664 84.833927 119.45676 41.77827 117.37676 2.0312705 C 116.89676 -6.7927295 109.35406 -13.556151 100.53106 -13.076151 C 91.70706 -12.596151 84.943638 -5.0534483 85.423638 3.7695517 C 87.543638 41.222552 83.733591 83.188349 83.300591 122.61135 C 83.257166 126.09508 83.270963 129.96404 83.265435 133.70315 C 76.819156 120.55764 70.361134 107.94321 63.443169 94.917989 C 55.933169 80.762989 48.726482 64.485083 41.638482 47.414083 C 38.094482 38.878083 34.650107 30.294849 31.279107 21.798849 C 27.920622 13.334391 21.557063 -2.7898572 21.509575 -2.9101358 C 21.301923 -3.4422519 21.065836 -3.9598665 20.804497 -4.4628701 C 20.730537 -4.6059479 20.644013 -4.7388672 20.566216 -4.8788858 C 20.394202 -5.186978 20.222469 -5.4957684 20.03106 -5.7909951 C 19.860404 -6.0553492 19.672536 -6.302955 19.488091 -6.554667 C 19.369734 -6.7157808 19.25876 -6.8825744 19.134575 -7.039042 C 18.913825 -7.3176364 18.676456 -7.5784816 18.439263 -7.8398233 C 18.332524 -7.9574619 18.233024 -8.0808705 18.122857 -8.195292 C 17.896786 -8.4298931 17.658585 -8.6479122 17.419732 -8.867167 C 17.271855 -9.0032643 17.129335 -9.1448352 16.976372 -9.2753701 C 16.77379 -9.447687 16.559759 -9.6040475 16.349419 -9.7656045 C 16.143505 -9.9243931 15.942074 -10.087479 15.728325 -10.236308 C 15.555223 -10.356356 15.374527 -10.463164 15.197075 -10.576151 C 14.93271 -10.745181 14.669098 -10.914701 14.394341 -11.068339 C 14.246618 -11.150653 14.093338 -11.22123 13.943169 -11.298808 C 13.636283 -11.457843 13.329764 -11.616465 13.011528 -11.755839 C 12.854526 -11.824519 12.692138 -11.879702 12.533013 -11.943339 C 12.214952 -12.070565 11.898034 -12.199568 11.570122 -12.30662 C 11.367827 -12.372868 11.159825 -12.420288 10.954888 -12.478495 C 10.670701 -12.558803 10.389927 -12.646118 10.099419 -12.710917 C 9.7270448 -12.79476 9.349118 -12.852977 8.9705129 -12.910136 C 8.839319 -12.929655 8.7121302 -12.960216 8.5798879 -12.976542 C 8.0411235 -13.044233 7.4977884 -13.08734 6.9509816 -13.099589 z "
     transform="matrix(1, 0, 0, 1, 5.685737133026123, -0.19533298909664154)"
     inkscape:label="outline" />
</svg>
