<?xml version="1.0" encoding="utf-8"?>
<svg id="eDMrBE2dbJm1" xmlns="http://www.w3.org/2000/svg" viewBox="-100 -100 300 400" shape-rendering="geometricPrecision" text-rendering="geometricPrecision" project-id="54ae76814ac642c39b9084197e64c9d3" export-id="14f255a5a411427e99b0c4a8e4d08f30" cached="false">
  <path d="M 8.917 2.357 C 8.917 57.657 7.817 113.757 8.917 168.857 C 9.117 177.457 8.817 198.257 8.817 198.257" fill="none" stroke-width="32" stroke-linecap="round" stroke-linejoin="round" stroke-miterlimit="10" style=""/>
  <path d="M 24.917 2.456 C 24.971 -6.38 17.852 -13.588 9.016 -13.643 C 0.18 -13.697 -7.028 -6.578 -7.083 2.258 C -7.083 2.258 -7.083 2.268 -7.083 2.258 C -7.083 2.258 -7.152 29.968 -7.237 43.855 C -7.323 57.742 -7.426 71.671 -7.495 85.603 C -7.633 113.467 -7.631 141.467 -7.08 169.176 C -6.881 177.475 -7.181 198.026 -7.181 198.026 C -7.309 206.862 -0.249 214.128 8.586 214.255 C 17.422 214.383 24.688 207.323 24.815 198.488 C 24.815 198.488 25.113 177.439 24.913 168.519 C 24.365 141.128 24.367 113.547 24.504 85.761 C 24.573 71.868 24.676 57.959 24.762 44.053 C 24.848 30.146 24.917 2.456 24.917 2.456 C 24.917 2.446 24.917 2.456 24.917 2.456 Z" style="fill: rgb(217, 217, 217);"/>
  <path d="M 9.617 1.957 C 20.017 1.857 32.517 1.357 42.817 2.357 C 55.217 3.557 64.917 5.457 74.317 10.357 C 85.517 16.257 88.817 28.357 89.817 30.757 C 92.917 39.357 93.117 69.657 80.217 80.557 C 75.617 84.357 69.217 89.257 57.817 92.957 C 50.817 95.157 40.217 97.657 32.717 98.157 C 23.617 98.757 16.417 98.757 10.217 98.757" fill="none" stroke-width="32" stroke-linecap="round" stroke-linejoin="round" stroke-miterlimit="10" style=""/>
  <path d="M -6.382 2.111 C -6.467 -6.725 0.627 -13.957 9.463 -14.042 C 19.62 -14.136 32.969 -14.599 44.362 -13.568 C 57.528 -12.256 70.214 -9.456 81.774 -3.799 C 89.876 1.21 96.779 8.735 99.742 13.858 C 103.029 19.541 104.654 24.934 104.869 25.331 C 106.864 31.668 108.27 45.057 106.908 56.659 C 105.564 68.111 99.339 83.688 90.407 92.892 C 85.575 96.877 76.408 103.264 62.614 108.221 C 55.052 110.575 42.574 113.426 33.77 114.122 C 24.143 114.74 11.27 114.722 11.27 114.722 C 10.743 114.74 11.27 114.722 11.27 114.722 C 2.452 115.304 -5.167 108.627 -5.748 99.81 C -6.33 90.992 0.347 83.373 9.164 82.792 C 9.164 82.792 9.691 82.774 9.164 82.792 C 9.164 82.792 23.08 82.775 31.654 82.192 C 37.849 81.888 46.582 79.739 53.02 77.693 C 62.026 75.25 65.659 71.837 70.027 68.222 C 73.995 66.526 74.12 61.503 75.126 52.93 C 76.114 44.507 75.889 38.487 74.785 36.223 C 74.076 34.336 73.455 32.323 72.042 29.881 C 70.305 26.879 69.959 25.407 66.87 24.516 C 59.649 20.397 52.909 19.371 41.276 18.283 C 32.069 17.314 20.414 17.85 9.771 17.956 C 0.935 18.041 -6.297 10.947 -6.382 2.111 Z" style="fill: rgb(217, 217, 217);"/>
</svg>