<?xml version="1.0" encoding="UTF-8" standalone="no"?>
<svg
   id="eDwg2zmCaZA1"
   viewBox="-100 -100 300 400"
   shape-rendering="geometricPrecision"
   text-rendering="geometricPrecision"
   project-id="d278b97800df49a6884d55c0be111f84"
   export-id="75a0062c5579473db28a2b51235f143f"
   cached="false"
   version="1.1"
   sodipodi:docname="upercase-t-outline-paths.svg"
   inkscape:version="1.4 (e7c3feb1, 2024-10-09)"
   xmlns:inkscape="http://www.inkscape.org/namespaces/inkscape"
   xmlns:sodipodi="http://sodipodi.sourceforge.net/DTD/sodipodi-0.dtd"
   xmlns="http://www.w3.org/2000/svg"
   xmlns:svg="http://www.w3.org/2000/svg">
  <defs
     id="defs4" />
  <sodipodi:namedview
     id="namedview4"
     pagecolor="#ffffff"
     bordercolor="#000000"
     borderopacity="0.25"
     inkscape:showpageshadow="2"
     inkscape:pageopacity="0.0"
     inkscape:pagecheckerboard="0"
     inkscape:deskcolor="#d1d1d1"
     inkscape:zoom="1.4421722"
     inkscape:cx="77.660629"
     inkscape:cy="166.76233"
     inkscape:window-width="1728"
     inkscape:window-height="980"
     inkscape:window-x="0"
     inkscape:window-y="38"
     inkscape:window-maximized="0"
     inkscape:current-layer="eDwg2zmCaZA1" />
  <path
     id="path2"
     style="fill: rgb(217, 217, 217);"
     d="M 71.888672 -12.214844 C 62.017672 -12.176844 52.444578 -12.025 43.142578 -11.875 C 33.003578 -11.676 10.566672 -11.833844 8.0136719 -11.839844 C 2.9076719 -11.852844 -2.2226562 -11.876953 -2.2226562 -11.876953 C -11.059656 -11.919953 -18.257781 -4.7910781 -18.300781 4.0449219 C -18.343781 12.881922 -11.214906 20.080047 -2.3789062 20.123047 C -2.3789063 20.123047 2.7915469 20.148156 7.9355469 20.160156 C 10.507547 20.167156 13.103156 20.169063 15.035156 20.164062 C 16.011156 20.162063 16.881422 20.158391 17.482422 20.150391 C 17.717136 20.147502 25.755567 20.233743 34.197266 20.208984 C 34.197967 25.5744 34.205709 28.48912 34.195312 32.533203 C 34.172313 41.870203 34.130891 51.105375 34.087891 60.359375 C 33.999891 78.866375 33.900391 97.429266 33.900391 116.82227 C 33.900391 123.67427 33.005031 172.51036 33.707031 196.69336 C 33.967031 205.52636 41.337922 212.4768 50.169922 212.2168 C 59.002922 211.9568 65.953359 204.58591 65.693359 195.75391 C 64.995359 172.33691 65.900391 123.97027 65.900391 116.82227 C 65.900391 97.515266 66.000891 79.029719 66.087891 60.511719 C 66.131891 51.252719 66.172313 41.981234 66.195312 32.615234 C 66.206092 28.408186 66.198217 25.354093 66.197266 19.835938 C 68.139216 19.820047 70.045672 19.792875 72.011719 19.785156 C 81.696719 19.748156 102.36133 20.123047 102.36133 20.123047 C 111.19833 20.089047 118.33478 12.8985 118.30078 4.0625 C 118.26678 -4.7745 111.07428 -11.910953 102.23828 -11.876953 C 102.23828 -11.876953 81.753672 -12.252844 71.888672 -12.214844 z " />
</svg>
