<?xml version="1.0" encoding="UTF-8" standalone="no"?>
<svg
   id="eDMrBE2dbJm1"
   viewBox="-100 -100 300 400"
   shape-rendering="geometricPrecision"
   text-rendering="geometricPrecision"
   project-id="54ae76814ac642c39b9084197e64c9d3"
   export-id="14f255a5a411427e99b0c4a8e4d08f30"
   cached="false"
   version="1.1"
   sodipodi:docname="uppercase-p-outline-paths.svg"
   inkscape:version="1.4 (e7c3feb1, 2024-10-09)"
   xmlns:inkscape="http://www.inkscape.org/namespaces/inkscape"
   xmlns:sodipodi="http://sodipodi.sourceforge.net/DTD/sodipodi-0.dtd"
   xmlns="http://www.w3.org/2000/svg"
   xmlns:svg="http://www.w3.org/2000/svg">
  <defs
     id="defs4" />
  <sodipodi:namedview
     id="namedview4"
     pagecolor="#ffffff"
     bordercolor="#000000"
     borderopacity="0.25"
     inkscape:showpageshadow="2"
     inkscape:pageopacity="0.0"
     inkscape:pagecheckerboard="0"
     inkscape:deskcolor="#d1d1d1"
     inkscape:zoom="1.7454175"
     inkscape:cx="130.05485"
     inkscape:cy="176.74855"
     inkscape:window-width="1728"
     inkscape:window-height="980"
     inkscape:window-x="0"
     inkscape:window-y="38"
     inkscape:window-maximized="0"
     inkscape:current-layer="eDMrBE2dbJm1" />
  <path
     id="path2"
     style="fill: rgb(217, 217, 217);"
     d="M 26.449219 -14.226562 C 20.418219 -14.227937 14.541391 -14.089969 9.4628906 -14.042969 C 6.5518891 -14.014966 3.838452 -13.197621 1.5 -11.816406 C -3.5695345 -9.1579846 -7.0439173 -3.8653626 -7.0820312 2.2578125 C -7.0820312 2.2578125 -7.1513281 29.968469 -7.2363281 43.855469 C -7.3223281 57.742469 -7.4251406 71.671516 -7.4941406 85.603516 C -7.6321406 113.46752 -7.6310781 141.46678 -7.0800781 169.17578 C -6.8810781 177.47478 -7.1816406 198.02539 -7.1816406 198.02539 C -7.3096406 206.86139 -0.2490625 214.12886 8.5859375 214.25586 C 17.421937 214.38386 24.687453 207.32328 24.814453 198.48828 C 24.814453 198.48828 25.112109 177.43953 24.912109 168.51953 C 24.553855 150.61271 24.470878 132.59295 24.466797 114.51953 C 27.588232 114.43072 30.792228 114.31222 33.769531 114.12109 C 42.573531 113.42509 55.051281 110.5747 62.613281 108.2207 C 76.407281 103.2637 85.57425 96.877578 90.40625 92.892578 C 99.33825 83.688578 105.5642 68.110203 106.9082 56.658203 C 108.2702 45.056203 106.86414 31.667078 104.86914 25.330078 C 104.65414 24.933078 103.02919 19.540422 99.742188 13.857422 C 96.779188 8.7344219 89.875438 1.2101719 81.773438 -3.7988281 C 70.213438 -9.4558281 57.527328 -12.256359 44.361328 -13.568359 C 38.664828 -14.083859 32.480219 -14.225188 26.449219 -14.226562 z M 26.0625 17.716797 C 31.4575 17.690672 36.671891 17.798703 41.275391 18.283203 C 52.908391 19.371203 59.648141 20.396625 66.869141 24.515625 C 69.958141 25.406625 70.305969 26.878859 72.042969 29.880859 C 73.455969 32.322859 74.076156 34.335656 74.785156 36.222656 C 75.889156 38.486656 76.114953 44.506687 75.126953 52.929688 C 74.120953 61.502687 73.995344 66.526656 70.027344 68.222656 C 65.659344 71.837656 62.025531 75.250359 53.019531 77.693359 C 46.581531 79.739359 37.849297 81.887406 31.654297 82.191406 C 29.510797 82.337156 27.033781 82.447672 24.523438 82.53125 C 24.59167 69.712117 24.68238 56.88168 24.761719 44.052734 C 24.81613 35.253934 24.833697 27.064169 24.861328 17.734375 C 25.260892 17.731085 25.664715 17.718723 26.0625 17.716797 z " />
</svg>
