<?xml version="1.0" encoding="UTF-8" standalone="no"?>
<svg
   id="etAmcwjYW2F1"
   viewBox="-100 -100 300 400"
   shape-rendering="geometricPrecision"
   text-rendering="geometricPrecision"
   project-id="505df1bc6369457b9e220bb08ded9311"
   export-id="0d48097ea0544113ae5748f76dbc397d"
   cached="false"
   version="1.1"
   sodipodi:docname="uppercase-a-outline-paths.svg"
   inkscape:version="1.4 (e7c3feb1, 2024-10-09)"
   xmlns:inkscape="http://www.inkscape.org/namespaces/inkscape"
   xmlns:sodipodi="http://sodipodi.sourceforge.net/DTD/sodipodi-0.dtd"
   xmlns="http://www.w3.org/2000/svg"
   xmlns:svg="http://www.w3.org/2000/svg">
  <defs
     id="defs4" />
  <sodipodi:namedview
     id="namedview4"
     pagecolor="#ffffff"
     bordercolor="#000000"
     borderopacity="0.25"
     inkscape:showpageshadow="2"
     inkscape:pageopacity="0.0"
     inkscape:pagecheckerboard="0"
     inkscape:deskcolor="#d1d1d1"
     inkscape:zoom="2.2697996"
     inkscape:cx="105.73621"
     inkscape:cy="162.34913"
     inkscape:window-width="1728"
     inkscape:window-height="980"
     inkscape:window-x="0"
     inkscape:window-y="38"
     inkscape:window-maximized="0"
     inkscape:current-layer="etAmcwjYW2F1" />
  <path
     id="path2"
     style="fill: rgb(217, 217, 217);"
     d="M 48.439453 -13.345703 C 41.528453 -12.848703 35.724594 -7.959375 34.058594 -1.234375 C 25.771594 32.213625 16.643125 68.027359 8.703125 102.19336 C 2.918125 127.31236 -4.3850469 169.02952 -6.4980469 178.10352 C -7.6030469 183.05152 -9.9238281 197.86328 -9.9238281 197.86328 C -11.276828 206.59628 -5.2945 214.772 3.4375 216.125 C 12.1705 217.478 20.346219 211.49567 21.699219 202.76367 C 21.699219 202.76367 23.780781 189.17622 24.675781 185.32422 C 26.766401 176.25055 33.030868 140.77646 38.382812 116.17773 C 45.987131 116.09266 53.202477 116.01601 61.767578 115.92383 C 64.910327 135.7418 66.995367 155.80449 69.279297 177.01953 C 70.134297 184.56653 70.158688 186.87511 71.554688 196.41211 L 72.453125 202.61133 C 73.722125 211.35633 81.841937 217.41744 90.585938 216.14844 C 99.330937 214.87944 105.39009 206.75963 104.12109 198.01562 L 103.22266 191.81641 C 102.01866 184.75341 102.04266 182.86237 101.09766 173.60938 C 97.302656 138.35337 93.6965 103.91541 84.6875 68.441406 C 83.6485 64.397406 74.220203 21.019031 64.408203 -3.4179688 C 61.796203 -9.8349688 55.350453 -13.842703 48.439453 -13.345703 z M 50.8125 63.960938 C 52.3145 70.370937 52.517453 71.786625 53.689453 76.390625 C 54.327513 78.851131 54.879959 81.298442 55.460938 83.75 C 52.182988 83.779605 48.939685 83.820812 45.902344 83.875 C 47.560089 77.026745 48.665441 72.665384 50.8125 63.960938 z "
     inkscape:label="outline" />
</svg>
