<?xml version="1.0" encoding="utf-8"?>
<svg id="ei0poFWdf1z1" xmlns="http://www.w3.org/2000/svg" viewBox="-90 -100 300 400" shape-rendering="geometricPrecision" text-rendering="geometricPrecision" project-id="d8cfcdf289674dd9a7ba4dfd00958972" export-id="0e3a40e0f9804eff9f011e610cc4967f" cached="false">
  <path d="M101.4,2.9c2.1,38.6-1.7,81.1-2.1,119.9-.3,23.6.5,54.8-.5,79.1-5.8-13.1-12-23.4-20.6-41.8-9.6-20.5-18.7-38.5-28.9-57.7C33.8,73.1,19.2,34.6,6.6,2.9" transform="translate(5.685737-.195333)" fill="none" stroke-width="32" stroke-linecap="round" stroke-linejoin="round" stroke-miterlimit="10" style=""/>
  <path d="M 100.531 -13.076 C 109.354 -13.556 116.896 -6.793 117.376 2.031 C 119.456 41.778 115.667 84.833 115.299 123.003 C 114.997 146.297 115.791 177.724 114.786 202.558 C 114.481 209.989 109.094 216.23 101.788 217.619 C 94.481 219.007 87.181 215.178 84.17 208.377 C 78.831 196.164 72.703 186.024 63.71 166.885 C 54.216 146.602 45.282 128.938 35.157 109.882 C 27.167 94.737 19.323 77.115 12.086 59.686 C 8.468 50.972 4.93 42.155 1.536 33.601 C -1.859 25.047 -8.272 8.801 -8.272 8.801 C -8.284 8.772 -8.272 8.801 -8.272 8.801 C -11.531 0.588 -7.515 -8.713 0.699 -11.972 C 8.912 -15.231 18.213 -11.215 21.472 -3.001 C 21.472 -3.001 21.484 -2.972 21.472 -3.001 C 21.472 -3.001 27.909 13.303 31.28 21.799 C 34.651 30.295 38.095 38.878 41.639 47.414 C 48.727 64.485 55.933 80.763 63.443 94.918 C 73.717 114.262 82.984 132.598 92.69 153.314 C 100.896 170.976 107.169 181.436 113.43 195.423 C 110.419 188.622 103.119 184.793 95.812 186.181 C 88.506 187.57 83.119 193.811 82.814 201.242 C 83.809 177.476 83.003 146.518 83.301 122.611 C 83.734 83.188 87.544 41.222 85.424 3.769 C 84.944 -5.054 91.707 -12.596 100.531 -13.076 Z" style="fill: rgb(217, 217, 217);" transform="matrix(1, 0, 0, 1, 5.685737133026123, -0.19533298909664154)"/>
  <path d="M6.6,2.9C5,39.7,5.1,74.1,5.5,111.7c.2,17.1.1,32.1.5,55.3.2,9.3-.5,34.9-.5,34.9" transform="translate(5.685737-.195333)" fill="none" stroke-width="32" stroke-linecap="round" stroke-linejoin="round" stroke-miterlimit="10" stroke-dasharray="618" style=""/>
  <path d="M 22.596 3.273 C 22.801 -5.562 15.807 -12.89 6.973 -13.096 C -1.862 -13.301 -9.19 -6.307 -9.396 2.527 C -9.396 2.527 -9.394 2.454 -9.396 2.527 C -9.396 2.527 -10.088 20.704 -10.299 29.765 C -10.51 38.827 -10.637 47.882 -10.7 56.888 C -10.825 74.9 -10.699 93.041 -10.499 111.87 C -10.299 128.823 -10.399 143.885 -9.998 167.276 C -9.796 176.185 -10.494 201.463 -10.494 201.463 C -10.736 210.296 -3.771 217.652 5.063 217.894 C 13.896 218.136 21.252 211.171 21.494 202.337 C 21.494 202.337 22.193 176.43 21.997 166.703 C 21.598 143.694 21.699 128.765 21.499 111.522 C 21.299 92.752 21.175 74.9 21.3 57.112 C 21.362 48.218 21.485 39.423 21.693 30.51 C 21.9 21.596 22.596 3.273 22.596 3.273 C 22.594 3.346 22.596 3.273 22.596 3.273 Z" style="fill: rgb(217, 217, 217);" transform="matrix(1, 0, 0, 1, 5.685737133026123, -0.19533298909664154)"/>
</svg>