<?xml version="1.0" encoding="UTF-8" standalone="no"?>
<svg
   id="eXzH3MgmTQW1"
   viewBox="-100 -100 300 400"
   shape-rendering="geometricPrecision"
   text-rendering="geometricPrecision"
   project-id="4cafcf6920364399bf97168858ec7d12"
   export-id="00d3c2e451c14bc488ddb7861d1e08f3"
   cached="false"
   version="1.1"
   sodipodi:docname="uppercase-i-outline-paths.svg"
   inkscape:version="1.4 (e7c3feb1, 2024-10-09)"
   xmlns:inkscape="http://www.inkscape.org/namespaces/inkscape"
   xmlns:sodipodi="http://sodipodi.sourceforge.net/DTD/sodipodi-0.dtd"
   xmlns="http://www.w3.org/2000/svg"
   xmlns:svg="http://www.w3.org/2000/svg">
  <defs
     id="defs6" />
  <sodipodi:namedview
     id="namedview6"
     pagecolor="#ffffff"
     bordercolor="#000000"
     borderopacity="0.25"
     inkscape:showpageshadow="2"
     inkscape:pageopacity="0.0"
     inkscape:pagecheckerboard="0"
     inkscape:deskcolor="#d1d1d1"
     inkscape:zoom="1.7157912"
     inkscape:cx="150.36795"
     inkscape:cy="200.19919"
     inkscape:window-width="1728"
     inkscape:window-height="980"
     inkscape:window-x="0"
     inkscape:window-y="38"
     inkscape:window-maximized="0"
     inkscape:current-layer="eXzH3MgmTQW1" />
  <path
     id="path2"
     style="fill: rgb(217, 217, 217);"
     d="M 69.857422 -12.277344 C 60.877422 -12.239344 52.169797 -12.0885 43.716797 -11.9375 C 34.503797 -11.7385 14.181188 -11.896344 11.867188 -11.902344 C 7.2381875 -11.915344 2.5859375 -11.939453 2.5859375 -11.939453 C -6.2510625 -11.986453 -13.453 -4.8613906 -13.5 3.9746094 C -13.547 12.811609 -6.4219375 20.013547 2.4140625 20.060547 C 2.4140625 20.060547 28.227672 20.169594 20.763672 20.058594 C 20.763672 20.058594 27.175882 20.142066 34.296875 20.138672 C 34.297581 25.506836 34.305325 28.424056 34.294922 32.470703 C 34.271922 41.807703 34.2305 51.042875 34.1875 60.296875 C 34.0995 78.803875 34 97.366766 34 116.75977 C 34 122.2995 33.4943 154.98193 33.609375 180.13477 C 22.587224 180.02212 10.909595 179.80268 9.7675781 179.79883 C 6.2075781 179.78583 2.5566406 179.75977 2.5566406 179.75977 C -6.2803594 179.72877 -13.469 186.86712 -13.5 195.70312 C -13.531 204.54012 -6.3926406 211.72877 2.4433594 211.75977 C 2.4433594 211.75977 6.04125 211.78487 9.65625 211.79688 C 11.46325 211.80387 13.304062 211.80773 14.664062 211.80273 C 15.357063 211.80073 38.932703 212.35525 50.095703 212.15625 C 50.130688 212.15556 50.168107 212.15498 50.203125 212.1543 C 65.630781 211.8555 84.271501 212.54944 97.984375 212.15234 C 106.81637 211.88434 113.75919 204.50878 113.49219 195.67578 C 113.22419 186.84378 105.84863 179.90097 97.015625 180.16797 C 88.417117 180.44109 77.09054 180.21382 65.601562 180.12695 C 65.481038 155.3648 66 122.54749 66 116.75977 C 66 97.452766 66.1005 78.965266 66.1875 60.447266 C 66.2315 51.188266 66.271922 41.918734 66.294922 32.552734 C 66.305714 28.340542 66.297835 25.281121 66.296875 19.757812 C 67.535361 19.748346 68.742352 19.727929 69.992188 19.722656 C 78.767188 19.685656 97.568359 20.060547 97.568359 20.060547 C 106.40436 20.023547 113.537 12.829188 113.5 3.9921875 C 113.463 -4.8438125 106.26864 -11.976453 97.431641 -11.939453 C 97.431641 -11.939453 78.832422 -12.315344 69.857422 -12.277344 z "
     inkscape:label="outline" />
</svg>
