<?xml version="1.0" encoding="utf-8"?>
<svg id="etAmcwjYW2F1" xmlns="http://www.w3.org/2000/svg" viewBox="-100 -100 300 400" shape-rendering="geometricPrecision" text-rendering="geometricPrecision" project-id="505df1bc6369457b9e220bb08ded9311" export-id="0d48097ea0544113ae5748f76dbc397d" cached="false">
  <path d="M 5.888 200.314 C 5.888 200.314 8.088 186.114 9.088 181.714 C 11.288 172.214 18.588 130.514 24.288 105.814 C 32.188 71.814 41.288 36.114 49.588 2.614 C 58.988 25.714 68.088 68.114 69.188 72.414 C 77.988 106.714 81.388 140.014 85.188 175.314 C 86.088 183.714 86.088 185.814 87.388 194.114 L 88.288 200.314" fill="none" stroke-width="32" stroke-linecap="round" stroke-linejoin="round" stroke-miterlimit="10" stroke-dasharray="404.55" style=""/>
  <path d="M 3.438 216.125 C -5.294 214.772 -11.276 206.597 -9.923 197.864 C -9.923 197.864 -7.604 183.052 -6.499 178.104 C -4.386 169.03 2.918 127.312 8.703 102.193 C 16.643 68.027 25.771 32.214 34.058 -1.234 C 35.724 -7.959 41.529 -12.848 48.44 -13.345 C 55.351 -13.842 61.796 -9.834 64.408 -3.417 C 74.22 21.02 83.648 64.397 84.687 68.441 C 93.696 103.915 97.302 138.353 101.097 173.609 C 102.042 182.862 102.018 184.753 103.222 191.816 L 104.122 198.016 C 105.391 206.76 99.331 214.879 90.586 216.148 C 81.842 217.417 73.723 211.357 72.454 202.612 L 71.554 196.412 C 70.158 186.875 70.134 184.566 69.279 177.019 C 65.474 141.675 62.28 109.515 53.69 76.39 C 52.518 71.786 52.315 70.371 50.813 63.961 C 47.044 79.241 47.734 75.596 39.875 109.428 C 34.26 133.711 26.962 175.398 24.675 185.324 C 23.78 189.176 21.699 202.764 21.699 202.764 C 20.346 211.496 12.171 217.478 3.438 216.125 Z" style="fill: rgb(217, 217, 217);"/>
  <path d="M 29.588 99.614 C 28.988 99.614 28.488 99.614 27.888 99.614 C 42.788 99.614 56.788 99.414 71.688 99.814 C 71.288 99.814 70.888 99.814 70.488 99.814" fill="none" stroke-width="32" stroke-linecap="round" stroke-linejoin="round" stroke-miterlimit="10" stroke-dasharray="46.71" style=""/>
  <path d="M 29.518 116.276 C 38.355 116.276 39.099 84.252 30.262 84.252 C 29.662 84.252 56.888 83.418 72.117 83.82 C 80.867 84.055 87.804 91.277 87.687 100.029 C 87.569 108.781 80.441 115.814 71.688 115.814 C 71.288 115.814 28.918 116.276 29.518 116.276 Z" style="fill: rgb(217, 217, 217);"/>
</svg>