<?xml version="1.0" encoding="utf-8"?>
<svg id="Layer_2" data-name="Layer 2" viewBox="0 0 98.57 98.34" xmlns="http://www.w3.org/2000/svg">
  <defs>
    <style>
      .cls-1 {
        fill: #000;
        stroke-width: 0px;
      }
    </style>
  </defs>
  <path class="cls-1" d="M31.44,98.34c-4.96,0-10.16-1.21-15.02-4.29C1.8,84.8-1.39,66.37.49,52.21,3.26,31.33,14.11,11.8,26.89,4.73c11.16-6.18,19.36-6.07,32.21,1.74l-.05-1.28c-.1-2.73,2-5.03,4.72-5.18,2.76-.15,5.07,1.91,5.26,4.63.36,5.01.71,10.02,1.06,15.03.48,6.85.6,14.08.35,22.14l.66,17.48c.34,9.07.89,16.47,4.62,22.3,1.96,3.07,5.48,5.53,8.96,6.25,1.63.34,4.01.46,6.09-.94,2.29-1.54,5.4-.92,6.94,1.37,1.54,2.29.92,5.4-1.37,6.94-3.88,2.59-8.74,3.46-13.7,2.42-6.17-1.29-11.9-5.27-15.34-10.66-2.01-3.15-3.34-6.54-4.22-9.98-2.56,4.15-5.71,8.05-9.18,12.17-3.75,4.44-12.67,9.17-22.47,9.17ZM41.26,10.33c-3.25,0-6.08,1.24-9.52,3.15-9.86,5.46-19.04,22.68-21.34,40.05-1.48,11.1.73,25.35,11.36,32.07,9.49,6,21.48.7,24.51-2.88,7.57-8.97,12.59-15.65,13.39-26.37.38-5.17.65-9.97.79-14.5l-.88-23.09c-8.63-6.11-13.87-8.43-18.31-8.43Z" style="fill: rgb(217, 217, 217);"/>
</svg>