<?xml version="1.0" encoding="utf-8"?>
<!-- Generator: Adobe Illustrator 27.5.0, SVG Export Plug-In . SVG Version: 6.00 Build 0)  -->
<svg version="1.1" xmlns="http://www.w3.org/2000/svg" xmlns:xlink="http://www.w3.org/1999/xlink" x="0px" y="0px"
	 viewBox="0 0 500 500" style="enable-background:new 0 0 500 500;" xml:space="preserve">
<g id="BACKGROUND">
	<linearGradient id="SVGID_1_" gradientUnits="userSpaceOnUse" x1="250" y1="-42.9565" x2="250" y2="557.1385">
		<stop  offset="0" style="stop-color:#FFFFFF"/>
		<stop  offset="0.4419" style="stop-color:#FCFDFF"/>
		<stop  offset="0.8113" style="stop-color:#F1F6FF"/>
		<stop  offset="0.9971" style="stop-color:#E9F1FF"/>
	</linearGradient>
	<rect style="fill:url(#SVGID_1_);" width="500" height="500"/>
</g>
<g id="OBJECTS">
	<g>
		<g>
			<g>
				<g>
					
						<radialGradient id="SVGID_00000130628892223139708410000010521937872332672179_" cx="265.0622" cy="393.4381" r="358.4686" gradientUnits="userSpaceOnUse">
						<stop  offset="0" style="stop-color:#FFE20D"/>
						<stop  offset="0.0029" style="stop-color:#FFE20D"/>
						<stop  offset="0.1038" style="stop-color:#F8D314"/>
						<stop  offset="0.3053" style="stop-color:#EDBA1E"/>
						<stop  offset="0.516" style="stop-color:#E5A826"/>
						<stop  offset="0.74" style="stop-color:#E19D2B"/>
						<stop  offset="1" style="stop-color:#DF9A2C"/>
					</radialGradient>
					<circle style="fill:url(#SVGID_00000130628892223139708410000010521937872332672179_);" cx="250" cy="229" r="188.934"/>
					<g>
						<defs>
							<circle id="SVGID_00000030475917383041837820000009834560628241152136_" cx="250" cy="229" r="188.934"/>
						</defs>
						<clipPath id="SVGID_00000025413312283318857330000003480907476537971854_">
							<use xlink:href="#SVGID_00000030475917383041837820000009834560628241152136_"  style="overflow:visible;"/>
						</clipPath>
						<g style="clip-path:url(#SVGID_00000025413312283318857330000003480907476537971854_);">
							
								<radialGradient id="SVGID_00000003794112089805172440000015437112502676365989_" cx="-768.7103" cy="2.863" r="556.312" gradientTransform="matrix(-0.0062 0.3022 -0.5055 -0.0103 246.7404 294.8808)" gradientUnits="userSpaceOnUse">
								<stop  offset="0" style="stop-color:#C83C69"/>
								<stop  offset="0.2113" style="stop-color:#C93F6B;stop-opacity:0.7887"/>
								<stop  offset="0.3587" style="stop-color:#CB4872;stop-opacity:0.6413"/>
								<stop  offset="0.4867" style="stop-color:#D0577E;stop-opacity:0.5133"/>
								<stop  offset="0.6037" style="stop-color:#D66D8F;stop-opacity:0.3963"/>
								<stop  offset="0.7131" style="stop-color:#DE8AA5;stop-opacity:0.2869"/>
								<stop  offset="0.817" style="stop-color:#E8ACC0;stop-opacity:0.183"/>
								<stop  offset="0.9145" style="stop-color:#F3D5DF;stop-opacity:0.0855"/>
								<stop  offset="1" style="stop-color:#FFFFFF;stop-opacity:0"/>
							</radialGradient>
							<path style="opacity:0.7;fill:url(#SVGID_00000003794112089805172440000015437112502676365989_);" d="M246.633,230.665
								C91.321,227.499-33.049,149.664-31.157,56.815c1.892-92.849,129.332-165.551,284.643-162.386
								c155.311,3.166,279.681,81.001,277.789,173.85C529.383,161.128,401.944,233.83,246.633,230.665z"/>
						</g>
					</g>
				</g>
			</g>
			<g>
				
					<linearGradient id="SVGID_00000108291839256683021880000017806269338348938672_" gradientUnits="userSpaceOnUse" x1="314.1895" y1="94.6754" x2="304.4588" y2="219.373">
					<stop  offset="0" style="stop-color:#592400"/>
					<stop  offset="0.395" style="stop-color:#461C00"/>
					<stop  offset="1" style="stop-color:#210C00"/>
				</linearGradient>
				<path style="fill:url(#SVGID_00000108291839256683021880000017806269338348938672_);" d="M262.651,186.7
					c-1.691,0-3.411-0.147-5.112-0.438c-2.04-0.383-4.023-0.973-5.862-1.749c-4.174-1.789-7.449-4.049-10.001-6.904
					c-1.53-1.72-2.689-3.562-3.442-5.473c-0.813-2.153-1.145-4.406-0.946-6.482c0.053-0.55,0.457-0.975,0.963-1.011
					c0.002,0,0.004,0,0.006,0c0.548,0,0.959,0.357,1.07,0.866c0.392,1.795,1.07,3.347,2.016,4.613
					c0.906,1.275,2.043,2.378,3.446,3.327c2.498,1.685,5.482,2.888,8.871,3.577c1.473,0.316,3.01,0.479,4.546,0.479
					c4.23,0,8.744-1.208,13.413-3.588c5.135-2.62,10.159-6.492,15.809-12.186c2.376-2.391,4.844-5.023,7.333-7.82l7.512-8.262
					c2.889-3.04,5.369-5.604,7.977-8.12c2.293-2.171,5.373-5.012,8.731-7.613c6.827-5.321,13.74-9.083,20.55-11.187
					c4.022-1.236,8.213-1.864,12.456-1.864c3.644,0,7.251,0.465,10.719,1.383c3.967,1.07,7.449,2.455,10.634,4.231
					c1.744,0.975,3.372,2.031,4.839,3.137c1.784,1.41,3.162,2.683,4.296,3.977c0.352,0.401,0.387,1.014,0.082,1.459
					c-0.196,0.287-0.5,0.453-0.832,0.453c-0.166,0-0.325-0.043-0.475-0.126c-5.586-3.136-11.999-4.906-19.603-5.407
					c-0.842-0.05-1.701-0.075-2.546-0.075c-5.739,0-11.232,1.14-16.324,3.387c-5.493,2.454-11.091,6.151-16.645,10.991
					c-2.755,2.405-5.254,4.763-7.643,7.212c-2.351,2.359-4.809,4.928-7.501,7.837l-7.563,8.112
					c-2.819,2.927-5.399,5.574-8.186,8.076c-3.441,3.089-6.38,5.401-9.25,7.276c-3.373,2.278-6.931,4.115-10.602,5.476
					c-3.976,1.476-7.932,2.291-11.757,2.423C263.304,186.695,262.977,186.7,262.651,186.7z"/>
			</g>
			<g>
				
					<linearGradient id="SVGID_00000173883064415804731330000012756259203109886351_" gradientUnits="userSpaceOnUse" x1="225.8434" y1="100.8868" x2="227.12" y2="162.9293">
					<stop  offset="0" style="stop-color:#592400"/>
					<stop  offset="0.3845" style="stop-color:#461C00"/>
					<stop  offset="1" style="stop-color:#210C00"/>
				</linearGradient>
				<path style="fill:url(#SVGID_00000173883064415804731330000012756259203109886351_);" d="M222.764,116.013
					c0.18,1.816,0.094,3.552,0.195,5.285c0.065,0.867,0.117,1.727,0.154,2.58c0.03,0.427,0.02,0.852,0.062,1.276l0.149,1.268
					c0.092,0.843,0.172,1.683,0.245,2.519c0.154,0.829,0.278,1.658,0.409,2.484c0.075,0.411,0.105,0.829,0.195,1.237l0.279,1.22
					c0.198,0.809,0.293,1.643,0.556,2.434c0.799,3.234,1.961,6.359,3.327,9.439c1.381,3.084,3.005,6.083,4.982,9.067
					c-3.146-1.79-5.687-4.518-7.723-7.526c-2.015-3.033-3.582-6.417-4.458-9.981c-0.266-0.879-0.374-1.794-0.558-2.69
					c-0.161-0.902-0.324-1.802-0.355-2.718c-0.06-0.912-0.127-1.822-0.163-2.731c0.02-0.911,0.077-1.821,0.129-2.726
					c0.044-0.906,0.118-1.806,0.309-2.696c0.158-0.891,0.331-1.777,0.517-2.654C221.465,119.357,222.078,117.655,222.764,116.013z"
					/>
			</g>
			<g>
				<g>
					<g>
						<g>
							<g>
								<path style="opacity:0.2;fill:#AA1A5F;" d="M150,150.055c-27.612,8.295-46.298,35.476-46.298,65.021
									c0,37.488,32.111,69.625,64.597,69.625s58.822-30.39,58.822-67.879c0-13.232-2.144-25.126-6.318-35.104
									C196.306,178.559,170.494,163.578,150,150.055z"/>
								
									<radialGradient id="SVGID_00000168078147609310080450000000542809618462241424_" cx="204.0408" cy="252.7572" r="124.0388" gradientUnits="userSpaceOnUse">
									<stop  offset="0" style="stop-color:#FFFFFF"/>
									<stop  offset="0.4516" style="stop-color:#FDFEFE"/>
									<stop  offset="0.6142" style="stop-color:#F6FAFB"/>
									<stop  offset="0.7302" style="stop-color:#EBF3F5"/>
									<stop  offset="0.8239" style="stop-color:#DAE9EC"/>
									<stop  offset="0.9042" style="stop-color:#C4DCE1"/>
									<stop  offset="0.974" style="stop-color:#A9CCD3"/>
									<stop  offset="1" style="stop-color:#9DC5CD"/>
								</radialGradient>
								<path style="fill:url(#SVGID_00000168078147609310080450000000542809618462241424_);" d="M159.422,156.409
									c-25.376,4.353-45.96,22.576-45.96,53.385c0,35.604,24.813,64.467,55.422,64.467c30.609,0,55.422-28.863,55.422-64.467
									c0-11.15-2.173-20.652-6.096-28.447C197.158,178.044,177.499,167.871,159.422,156.409z"/>
								
									<radialGradient id="SVGID_00000094612862927295777630000002553345254163316889_" cx="480.269" cy="246.3906" r="39.8835" gradientTransform="matrix(-1.0955 0 0 1 692.1783 0)" gradientUnits="userSpaceOnUse">
									<stop  offset="0" style="stop-color:#FFE20D"/>
									<stop  offset="0.0029" style="stop-color:#FFE20D"/>
									<stop  offset="0.4217" style="stop-color:#EEBD1D"/>
									<stop  offset="0.7826" style="stop-color:#E3A328"/>
									<stop  offset="1" style="stop-color:#DF9A2C"/>
								</radialGradient>
								<path style="opacity:0.3;fill:url(#SVGID_00000094612862927295777630000002553345254163316889_);" d="M170.467,266.325
									c20.244,0,38.093-10.684,48.641-26.937c-9.293,21.297-28.287,35.901-50.225,35.901c-28.856,0-52.626-25.255-55.904-57.796
									C118.451,245.361,142.11,266.325,170.467,266.325z"/>
								<g>
									<defs>
										
											<ellipse id="SVGID_00000008845670742131402130000017094788162374096262_" cx="168.883" cy="209.794" rx="55.422" ry="64.467"/>
									</defs>
									<clipPath id="SVGID_00000030463921937424447220000014977418787535742348_">
										<use xlink:href="#SVGID_00000008845670742131402130000017094788162374096262_"  style="overflow:visible;"/>
									</clipPath>
									<g style="clip-path:url(#SVGID_00000030463921937424447220000014977418787535742348_);">
										
											<linearGradient id="SVGID_00000085956067600579415430000015434188787979692434_" gradientUnits="userSpaceOnUse" x1="462.5187" y1="262.657" x2="465.9436" y2="188.2237" gradientTransform="matrix(-1 0 0 1 647.2134 0)">
											<stop  offset="0" style="stop-color:#321FA3"/>
											<stop  offset="0.1266" style="stop-color:#007CC2"/>
											<stop  offset="0.2993" style="stop-color:#035F9E"/>
											<stop  offset="0.4955" style="stop-color:#05447D"/>
											<stop  offset="0.6828" style="stop-color:#073065"/>
											<stop  offset="0.8556" style="stop-color:#082456"/>
											<stop  offset="1" style="stop-color:#082051"/>
										</linearGradient>
										<path style="fill:url(#SVGID_00000085956067600579415430000015434188787979692434_);" d="M148.621,219.418
											c0.378,18.549,15.929,33.256,34.734,32.849c18.806-0.407,33.744-15.774,33.366-34.323
											c-0.378-18.549-15.929-33.256-34.735-32.849C163.182,185.502,148.243,200.869,148.621,219.418z"/>
										
											<linearGradient id="SVGID_00000005232082538355530270000010116072621394012586_" gradientUnits="userSpaceOnUse" x1="462.528" y1="262.453" x2="465.9439" y2="188.2155" gradientTransform="matrix(-1 0 0 1 647.2134 0)">
											<stop  offset="0" style="stop-color:#301F19"/>
											<stop  offset="0.1283" style="stop-color:#34231E"/>
											<stop  offset="0.2706" style="stop-color:#40302B"/>
											<stop  offset="0.4196" style="stop-color:#554641"/>
											<stop  offset="0.5732" style="stop-color:#716460"/>
											<stop  offset="0.7304" style="stop-color:#968B88"/>
											<stop  offset="0.8882" style="stop-color:#C2B9B8"/>
											<stop  offset="1" style="stop-color:#E5DFDF"/>
										</linearGradient>
										<path style="opacity:0.3;fill:url(#SVGID_00000005232082538355530270000010116072621394012586_);" d="M210.372,221.643
											c-6.707-5.546-15.406-8.413-24.461-8.241c-9.806,0.186-18.706,3.98-25.934,9.921c-3.754,3.085-6.132,6.592-7.795,10.389
											c-2.182-4.31-3.456-9.154-3.56-14.294c-0.378-18.549,14.561-33.916,33.366-34.324
											c18.806-0.407,34.357,14.299,34.735,32.849c0.063,3.068-0.302,6.046-1.026,8.886
											C214.075,224.928,212.232,223.181,210.372,221.643z"/>
										
											<linearGradient id="SVGID_00000065055353178177172000000017028373459941481889_" gradientUnits="userSpaceOnUse" x1="464.542" y1="243.0158" x2="464.542" y2="187.8194" gradientTransform="matrix(-1 0 0 1 647.2134 0)">
											<stop  offset="0" style="stop-color:#301F19"/>
											<stop  offset="0.1283" style="stop-color:#34231E"/>
											<stop  offset="0.2706" style="stop-color:#40302B"/>
											<stop  offset="0.4196" style="stop-color:#554641"/>
											<stop  offset="0.5732" style="stop-color:#716460"/>
											<stop  offset="0.7304" style="stop-color:#968B88"/>
											<stop  offset="0.8882" style="stop-color:#C2B9B8"/>
											<stop  offset="1" style="stop-color:#E5DFDF"/>
										</linearGradient>
										<path style="fill:url(#SVGID_00000065055353178177172000000017028373459941481889_);" d="M156.986,219.238
											c0.303,14.82,12.048,26.583,26.233,26.275c14.186-0.308,25.439-12.571,25.137-27.39
											c-0.303-14.819-12.048-26.583-26.234-26.275C167.937,192.157,156.684,204.419,156.986,219.238z"/>
										
											<linearGradient id="SVGID_00000165210232764161454630000001782856097614717115_" gradientUnits="userSpaceOnUse" x1="485.4133" y1="141.2037" x2="485.4133" y2="168.0752" gradientTransform="matrix(-0.9682 0.1886 0.1504 0.8064 616.9143 -11.3631)">
											<stop  offset="0" style="stop-color:#FFFFFF"/>
											<stop  offset="0.4143" style="stop-color:#FEFDFF"/>
											<stop  offset="0.5636" style="stop-color:#F9F6FE"/>
											<stop  offset="0.67" style="stop-color:#F1EBFC"/>
											<stop  offset="0.756" style="stop-color:#E6DAF9"/>
											<stop  offset="0.8297" style="stop-color:#D7C4F5"/>
											<stop  offset="0.8949" style="stop-color:#C4A8F0"/>
											<stop  offset="0.9525" style="stop-color:#AF89EB"/>
											<stop  offset="0.9785" style="stop-color:#A378E8"/>
										</linearGradient>
										<path style="fill:url(#SVGID_00000165210232764161454630000001782856097614717115_);" d="M178.124,205.613
											c0.057,0.256,0.103,0.514,0.137,0.771c0.359,2.686-1.15,5.558-4.418,6.813c-2.995,1.15-6.45,0.478-8.613-1.268
											c-3.411-2.753-3.077-8.053,1.352-10.426C171.632,198.797,177.174,201.374,178.124,205.613z"/>
										
											<linearGradient id="SVGID_00000003792064493462708730000013416934345382644668_" gradientUnits="userSpaceOnUse" x1="473.4733" y1="186.9105" x2="473.4733" y2="199.254" gradientTransform="matrix(-0.9107 0.1763 0.1516 0.8061 598.2764 -8.1844)">
											<stop  offset="0" style="stop-color:#FFFFFF"/>
											<stop  offset="0.4143" style="stop-color:#FEFDFF"/>
											<stop  offset="0.5636" style="stop-color:#F9F6FE"/>
											<stop  offset="0.67" style="stop-color:#F1EBFC"/>
											<stop  offset="0.756" style="stop-color:#E6DAF9"/>
											<stop  offset="0.8297" style="stop-color:#D7C4F5"/>
											<stop  offset="0.8949" style="stop-color:#C4A8F0"/>
											<stop  offset="0.9525" style="stop-color:#AF89EB"/>
											<stop  offset="0.9785" style="stop-color:#A378E8"/>
										</linearGradient>
										<path style="fill:url(#SVGID_00000003792064493462708730000013416934345382644668_);" d="M199.793,231.306
											c0.026,0.117,0.048,0.236,0.064,0.354c0.172,1.232-0.464,2.541-1.872,3.099c-1.29,0.512-2.79,0.186-3.738-0.625
											c-1.494-1.279-1.382-3.705,0.522-4.77C196.94,228.15,199.356,229.359,199.793,231.306z"/>
										
											<linearGradient id="SVGID_00000002342482741820262130000002859664036524535998_" gradientUnits="userSpaceOnUse" x1="501.955" y1="186.5037" x2="501.955" y2="192.6062" gradientTransform="matrix(-0.9107 0.1763 0.1516 0.8061 598.2764 -8.1844)">
											<stop  offset="0" style="stop-color:#FFFFFF"/>
											<stop  offset="0.4143" style="stop-color:#FEFDFF"/>
											<stop  offset="0.5636" style="stop-color:#F9F6FE"/>
											<stop  offset="0.67" style="stop-color:#F1EBFC"/>
											<stop  offset="0.756" style="stop-color:#E6DAF9"/>
											<stop  offset="0.8297" style="stop-color:#D7C4F5"/>
											<stop  offset="0.8949" style="stop-color:#C4A8F0"/>
											<stop  offset="0.9525" style="stop-color:#AF89EB"/>
											<stop  offset="0.9785" style="stop-color:#A378E8"/>
										</linearGradient>
										<path style="fill:url(#SVGID_00000002342482741820262130000002859664036524535998_);" d="M171.582,233.295
											c0.013,0.058,0.023,0.117,0.032,0.175c0.085,0.609-0.229,1.256-0.925,1.532c-0.638,0.253-1.38,0.092-1.848-0.309
											c-0.739-0.632-0.683-1.832,0.258-2.358C170.171,231.735,171.366,232.333,171.582,233.295z"/>
									</g>
								</g>
							</g>
						</g>
					</g>
					<g>
						<g>
							<g>
								<path style="opacity:0.2;fill:#AA1A5F;" d="M335.277,129.374c-8.807,5.398-15.873,8.628-24.506,14.3
									c-5.517,5.411-10.659,11.047-15.682,17.061c-10.531,12.611-26.709,26.495-43.624,20.28
									c-1.447,7.615-2.182,15.805-2.182,24.463c0,45.797,31.504,82.922,70.366,82.922c38.862,0,76.649-37.4,76.649-83.197
									C396.298,168.646,368.723,129.885,335.277,129.374z"/>
								
									<radialGradient id="SVGID_00000176036315891440932780000015225412318025885826_" cx="272.977" cy="245.0975" r="145.589" gradientUnits="userSpaceOnUse">
									<stop  offset="0" style="stop-color:#FFFFFF"/>
									<stop  offset="0.4516" style="stop-color:#FDFEFE"/>
									<stop  offset="0.6142" style="stop-color:#F6FAFB"/>
									<stop  offset="0.7302" style="stop-color:#EBF3F5"/>
									<stop  offset="0.8239" style="stop-color:#DAE9EC"/>
									<stop  offset="0.9042" style="stop-color:#C4DCE1"/>
									<stop  offset="0.974" style="stop-color:#A9CCD3"/>
									<stop  offset="1" style="stop-color:#9DC5CD"/>
								</radialGradient>
								<path style="fill:url(#SVGID_00000176036315891440932780000015225412318025885826_);" d="M328.657,131.405
									c-5.988,4.048-11.845,8.3-17.886,12.269c-5.517,5.411-10.659,11.047-15.682,17.061
									c-10.039,12.022-25.209,25.202-41.258,21.025c-0.773,4.731-1.179,9.774-1.179,15.133c0,43.495,29.683,78.755,66.298,78.755
									c36.615,0,66.298-35.26,66.298-78.755C385.249,158.591,359.749,136.206,328.657,131.405z"/>
								
									<radialGradient id="SVGID_00000057109094862600835610000016394021132044468148_" cx="609.7098" cy="241.5998" r="48.7243" gradientTransform="matrix(1.0727 0 0 1 -331.6877 0)" gradientUnits="userSpaceOnUse">
									<stop  offset="0" style="stop-color:#FFE20D"/>
									<stop  offset="0.0029" style="stop-color:#FFE20D"/>
									<stop  offset="0.4217" style="stop-color:#EEBD1D"/>
									<stop  offset="0.7826" style="stop-color:#E3A328"/>
									<stop  offset="1" style="stop-color:#DF9A2C"/>
								</radialGradient>
								<path style="opacity:0.3;fill:url(#SVGID_00000057109094862600835610000016394021132044468148_);" d="M317.056,265.952
									c-24.217,0-45.569-13.052-58.187-32.907c11.117,26.017,33.838,43.858,60.081,43.858c34.519,0,62.955-30.852,66.876-70.605
									C379.281,240.342,350.979,265.952,317.056,265.952z"/>
								<g>
									<defs>
										
											<ellipse id="SVGID_00000107590470261974429620000008848474657460197821_" cx="318.951" cy="196.893" rx="66.298" ry="78.755"/>
									</defs>
									<clipPath id="SVGID_00000103978828530699877240000013891891945165820838_">
										<use xlink:href="#SVGID_00000107590470261974429620000008848474657460197821_"  style="overflow:visible;"/>
									</clipPath>
									<g style="clip-path:url(#SVGID_00000103978828530699877240000013891891945165820838_);">
										
											<linearGradient id="SVGID_00000008827639145011660990000002320234377805428115_" gradientUnits="userSpaceOnUse" x1="605.3464" y1="261.469" x2="609.5302" y2="170.543" gradientTransform="matrix(-1 0 0 1 910.3681 0)">
											<stop  offset="0" style="stop-color:#321FA3"/>
											<stop  offset="0.1266" style="stop-color:#007CC2"/>
											<stop  offset="0.2993" style="stop-color:#035F9E"/>
											<stop  offset="0.4955" style="stop-color:#05447D"/>
											<stop  offset="0.6828" style="stop-color:#073065"/>
											<stop  offset="0.8556" style="stop-color:#082456"/>
											<stop  offset="1" style="stop-color:#082051"/>
										</linearGradient>
										<path style="fill:url(#SVGID_00000008827639145011660990000002320234377805428115_);" d="M261.817,208.65
											c0.452,22.66,19.055,40.626,41.551,40.129c22.496-0.498,40.366-19.27,39.914-41.93
											c-0.452-22.66-19.055-40.626-41.551-40.129C279.236,167.217,261.365,185.99,261.817,208.65z"/>
										
											<linearGradient id="SVGID_00000121249158047303191740000002056913340938175407_" gradientUnits="userSpaceOnUse" x1="605.355" y1="261.2793" x2="609.5304" y2="170.5354" gradientTransform="matrix(-1 0 0 1 910.3681 0)">
											<stop  offset="0" style="stop-color:#301F19"/>
											<stop  offset="0.1283" style="stop-color:#34231E"/>
											<stop  offset="0.2706" style="stop-color:#40302B"/>
											<stop  offset="0.4196" style="stop-color:#554641"/>
											<stop  offset="0.5732" style="stop-color:#716460"/>
											<stop  offset="0.7304" style="stop-color:#968B88"/>
											<stop  offset="0.8882" style="stop-color:#C2B9B8"/>
											<stop  offset="1" style="stop-color:#E5DFDF"/>
										</linearGradient>
										<path style="opacity:0.3;fill:url(#SVGID_00000121249158047303191740000002056913340938175407_);" d="M335.687,211.367
											c-8.023-6.775-18.43-10.277-29.261-10.067c-11.73,0.227-22.377,4.862-31.024,12.12c-4.49,3.769-7.335,8.053-9.325,12.692
											c-2.61-5.266-4.134-11.182-4.259-17.462c-0.452-22.66,17.418-41.433,39.914-41.931
											c22.496-0.497,41.099,17.469,41.551,40.129c0.075,3.748-0.361,7.385-1.227,10.856
											C340.117,215.38,337.912,213.246,335.687,211.367z"/>
										
											<linearGradient id="SVGID_00000147942108352663901370000007854851485213258113_" gradientUnits="userSpaceOnUse" x1="607.8181" y1="237.6057" x2="607.8181" y2="169.8843" gradientTransform="matrix(-1 0 0 1 910.3681 0)">
											<stop  offset="0" style="stop-color:#301F19"/>
											<stop  offset="0.1283" style="stop-color:#34231E"/>
											<stop  offset="0.2706" style="stop-color:#40302B"/>
											<stop  offset="0.4196" style="stop-color:#554641"/>
											<stop  offset="0.5732" style="stop-color:#716460"/>
											<stop  offset="0.7304" style="stop-color:#968B88"/>
											<stop  offset="0.8882" style="stop-color:#C2B9B8"/>
											<stop  offset="1" style="stop-color:#E5DFDF"/>
										</linearGradient>
										<path style="fill:url(#SVGID_00000147942108352663901370000007854851485213258113_);" d="M271.692,208.433
											c0.364,18.182,14.474,32.615,31.517,32.237c17.043-0.378,30.564-15.424,30.2-33.606
											c-0.364-18.182-14.474-32.615-31.518-32.237C284.848,175.206,271.327,190.251,271.692,208.433z"/>
										
											<linearGradient id="SVGID_00000009571380779986093550000009342387346053920932_" gradientUnits="userSpaceOnUse" x1="628.0577" y1="87.5339" x2="628.0577" y2="120.3303" gradientTransform="matrix(-0.9682 0.1886 0.1504 0.8064 880.069 -11.3631)">
											<stop  offset="0" style="stop-color:#FFFFFF"/>
											<stop  offset="0.4143" style="stop-color:#FEFDFF"/>
											<stop  offset="0.5636" style="stop-color:#F9F6FE"/>
											<stop  offset="0.67" style="stop-color:#F1EBFC"/>
											<stop  offset="0.756" style="stop-color:#E6DAF9"/>
											<stop  offset="0.8297" style="stop-color:#D7C4F5"/>
											<stop  offset="0.8949" style="stop-color:#C4A8F0"/>
											<stop  offset="0.9525" style="stop-color:#AF89EB"/>
											<stop  offset="0.9785" style="stop-color:#A378E8"/>
										</linearGradient>
										<path style="fill:url(#SVGID_00000009571380779986093550000009342387346053920932_);" d="M297.11,191.785
											c0.069,0.313,0.123,0.627,0.164,0.942c0.43,3.281-1.375,6.79-5.285,8.323c-3.584,1.405-7.716,0.584-10.304-1.55
											c-4.081-3.364-3.682-9.838,1.617-12.737C289.345,183.458,295.974,186.607,297.11,191.785z"/>
										
											<linearGradient id="SVGID_00000050647526602331542320000016540145355580197048_" gradientUnits="userSpaceOnUse" x1="620.7946" y1="143.1371" x2="620.7946" y2="158.2023" gradientTransform="matrix(-0.9107 0.1763 0.1516 0.8061 861.4311 -8.1844)">
											<stop  offset="0" style="stop-color:#FFFFFF"/>
											<stop  offset="0.4143" style="stop-color:#FEFDFF"/>
											<stop  offset="0.5636" style="stop-color:#F9F6FE"/>
											<stop  offset="0.67" style="stop-color:#F1EBFC"/>
											<stop  offset="0.756" style="stop-color:#E6DAF9"/>
											<stop  offset="0.8297" style="stop-color:#D7C4F5"/>
											<stop  offset="0.8949" style="stop-color:#C4A8F0"/>
											<stop  offset="0.9525" style="stop-color:#AF89EB"/>
											<stop  offset="0.9785" style="stop-color:#A378E8"/>
										</linearGradient>
										<path style="fill:url(#SVGID_00000050647526602331542320000016540145355580197048_);" d="M323.032,223.172
											c0.031,0.144,0.057,0.288,0.077,0.433c0.206,1.505-0.555,3.104-2.239,3.786c-1.544,0.625-3.338,0.227-4.472-0.764
											c-1.788-1.562-1.653-4.527,0.624-5.827C319.619,219.316,322.509,220.794,323.032,223.172z"/>
										
											<linearGradient id="SVGID_00000155858092814836511870000002887499648276127119_" gradientUnits="userSpaceOnUse" x1="654.8743" y1="142.7924" x2="654.8743" y2="150.2405" gradientTransform="matrix(-0.9107 0.1763 0.1516 0.8061 861.4311 -8.1844)">
											<stop  offset="0" style="stop-color:#FFFFFF"/>
											<stop  offset="0.4143" style="stop-color:#FEFDFF"/>
											<stop  offset="0.5636" style="stop-color:#F9F6FE"/>
											<stop  offset="0.67" style="stop-color:#F1EBFC"/>
											<stop  offset="0.756" style="stop-color:#E6DAF9"/>
											<stop  offset="0.8297" style="stop-color:#D7C4F5"/>
											<stop  offset="0.8949" style="stop-color:#C4A8F0"/>
											<stop  offset="0.9525" style="stop-color:#AF89EB"/>
											<stop  offset="0.9785" style="stop-color:#A378E8"/>
										</linearGradient>
										<path style="fill:url(#SVGID_00000155858092814836511870000002887499648276127119_);" d="M289.284,225.602
											c0.016,0.071,0.028,0.142,0.038,0.214c0.102,0.744-0.274,1.535-1.107,1.872c-0.763,0.309-1.65,0.112-2.211-0.378
											c-0.884-0.772-0.818-2.238,0.308-2.881C287.597,223.696,289.026,224.426,289.284,225.602z"/>
									</g>
								</g>
							</g>
						</g>
					</g>
				</g>
			</g>
			<g>
				
					<linearGradient id="SVGID_00000033338155971968622910000007705954012515661968_" gradientUnits="userSpaceOnUse" x1="314.1895" y1="94.6754" x2="304.4588" y2="219.373">
					<stop  offset="0" style="stop-color:#592400"/>
					<stop  offset="0.395" style="stop-color:#461C00"/>
					<stop  offset="1" style="stop-color:#210C00"/>
				</linearGradient>
				<path style="fill:url(#SVGID_00000033338155971968622910000007705954012515661968_);" d="M262.651,186.7
					c-1.691,0-3.411-0.147-5.112-0.438c-2.04-0.383-4.023-0.973-5.862-1.749c-4.174-1.789-7.449-4.049-10.001-6.904
					c-1.53-1.72-2.689-3.562-3.442-5.473c-0.813-2.153-1.145-4.406-0.946-6.482c0.053-0.55,0.457-0.975,0.963-1.011
					c0.002,0,0.004,0,0.006,0c0.548,0,0.959,0.357,1.07,0.866c0.392,1.795,1.07,3.347,2.016,4.613
					c0.906,1.275,2.043,2.378,3.446,3.327c2.498,1.685,5.482,2.888,8.871,3.577c1.473,0.316,3.01,0.479,4.546,0.479
					c4.23,0,8.744-1.208,13.413-3.588c5.135-2.62,10.159-6.492,15.809-12.186c2.376-2.391,4.844-5.023,7.333-7.82l7.512-8.262
					c2.889-3.04,5.369-5.604,7.977-8.12c2.293-2.171,5.373-5.012,8.731-7.613c6.827-5.321,13.74-9.083,20.55-11.187
					c4.022-1.236,8.213-1.864,12.456-1.864c3.644,0,7.251,0.465,10.719,1.383c3.967,1.07,7.449,2.455,10.634,4.231
					c1.744,0.975,3.372,2.031,4.839,3.137c1.784,1.41,3.162,2.683,4.296,3.977c0.352,0.401,0.387,1.014,0.082,1.459
					c-0.196,0.287-0.5,0.453-0.832,0.453c-0.166,0-0.325-0.043-0.475-0.126c-5.586-3.136-11.999-4.906-19.603-5.407
					c-0.842-0.05-1.701-0.075-2.546-0.075c-5.739,0-11.232,1.14-16.324,3.387c-5.493,2.454-11.091,6.151-16.645,10.991
					c-2.755,2.405-5.254,4.763-7.643,7.212c-2.351,2.359-4.809,4.928-7.501,7.837l-7.563,8.112
					c-2.819,2.927-5.399,5.574-8.186,8.076c-3.441,3.089-6.38,5.401-9.25,7.276c-3.373,2.278-6.931,4.115-10.602,5.476
					c-3.976,1.476-7.932,2.291-11.757,2.423C263.304,186.695,262.977,186.7,262.651,186.7z"/>
			</g>
			<g>
				
					<linearGradient id="SVGID_00000123420157909506020900000000965204179078302106_" gradientUnits="userSpaceOnUse" x1="177.2366" y1="141.8849" x2="177.2366" y2="189.7412">
					<stop  offset="0" style="stop-color:#592400"/>
					<stop  offset="0.4011" style="stop-color:#451C00"/>
					<stop  offset="1" style="stop-color:#210C00"/>
				</linearGradient>
				<path style="fill:url(#SVGID_00000123420157909506020900000000965204179078302106_);" d="M122.609,152.168
					c-1.836,0.136-2.612-2.316-1.01-3.223c3.063-1.734,6.431-3.045,9.959-3.883c5.88-1.395,12.114-1.442,18.091-0.561
					c6,0.871,11.733,2.691,17.143,4.93c5.42,2.245,10.516,4.95,15.385,7.825c9.748,5.725,18.546,12.342,27.324,17.682
					c1.107,0.644,2.195,1.283,3.299,1.883c1.1,0.577,2.212,1.121,3.313,1.62c2.217,0.978,4.445,1.762,6.716,2.091
					c0.552,0.118,1.087,0.13,1.647,0.191c0.05,0.006,0.101,0.008,0.151,0.008c0.544-0.002,1.112,0.033,1.667-0.018
					c1.189-0.025,2.36-0.292,3.583-0.608c0.494-0.146,0.988-0.317,1.483-0.51c1.733-0.677,3.175,1.46,1.893,2.809
					c-0.42,0.441-0.865,0.868-1.337,1.276c-2.367,2.041-5.484,3.51-8.725,4.098c-1.628,0.335-3.258,0.405-4.885,0.43
					c-1.61-0.024-3.218-0.166-4.763-0.412c-3.118-0.475-6.069-1.315-8.885-2.31c-5.646-1.986-10.786-4.588-15.721-7.266
					c-4.93-2.693-9.638-5.515-14.275-8.262c-9.271-5.493-18.261-10.734-27.749-14.218c-4.747-1.731-9.633-2.962-14.776-3.483
					C129.043,151.927,125.876,151.926,122.609,152.168z"/>
			</g>
		</g>
		<g>
			<path style="opacity:0.2;fill:#AA1A5F;" d="M172.713,366.3c-7.95,0-15.264-2.078-21.737-6.177
				c-9.924-6.282-14.956-17.192-14.956-32.428c0-8.26,1.105-20.25,10.664-28.973c6.674-6.09,16.079-9.582,25.803-9.582
				c0.646,0,1.293,0.016,1.938,0.047c12.252,0.604,21.418,6.185,30.281,11.582c4.32,2.629,8.4,5.113,12.743,6.977
				c8.847,3.795,18.26,5.72,27.978,5.72c12.986-0.001,26.66-3.515,39.544-10.162c2.079-1.074,4.142-2.183,6.204-3.293
				c5.626-3.026,11.442-6.155,17.748-8.642c2.25-0.888,4.733-1.501,7.38-1.823c1.44-0.175,2.938-0.264,4.45-0.264
				c6.009,0,12.048,1.356,17.005,3.817c12.262,6.089,19.582,19.024,19.582,34.599c0,13.743-3.873,23.614-11.842,30.177
				c-6.337,5.22-15.359,7.979-26.087,7.979c-0.001,0-0.001,0-0.002,0c-4.874,0-10-0.547-15.235-1.627
				c-5.671-1.17-10.628-3.172-15.423-5.108c-3.974-1.605-7.728-3.121-11.632-4.059c-9.749-2.344-19.913-3.533-30.208-3.533
				c-10.163,0-20.16,1.16-29.713,3.447c-4.461,1.067-9.134,2.695-14.082,4.419C193.369,362.789,183.291,366.3,172.713,366.3z"/>
			<g>
				<defs>
					<path id="SVGID_00000016775620758476448840000007022594118545803403_" d="M317.241,292.095
						c-1.94,0.263-3.803,0.756-5.501,1.503c-8.143,3.582-15.59,8.543-23.28,12.968c-23.031,13.25-49.497,16.938-74.031,5.2
						c-13.884-6.642-24.596-19.149-40.389-20.017c-8.129-0.447-16.557,2.639-22.363,8.548c-7.116,7.24-8.657,17.639-8.657,27.396
						c0,11.13,2.296,23.592,11.992,30.436c19.57,13.813,40.989-1.613,60.379-6.788c20.582-5.493,42.966-5.417,63.539,0.097
						c9.377,2.513,17.303,7.973,26.813,10.161c11.385,2.619,25.936,2.926,35.02-5.415c7.796-7.159,9.576-18.405,9.576-28.489
						c0-12.332-4.594-26.151-15.973-32.451C329.55,292.577,323.052,291.306,317.241,292.095z"/>
				</defs>
				<clipPath id="SVGID_00000128481980131462642690000003636132871970380720_">
					<use xlink:href="#SVGID_00000016775620758476448840000007022594118545803403_"  style="overflow:visible;"/>
				</clipPath>
				<g style="clip-path:url(#SVGID_00000128481980131462642690000003636132871970380720_);">
					
						<linearGradient id="SVGID_00000031895789706374087450000005291478989848001697_" gradientUnits="userSpaceOnUse" x1="246.6791" y1="285.5182" x2="246.6791" y2="371.9644">
						<stop  offset="0" style="stop-color:#592400"/>
						<stop  offset="0.3788" style="stop-color:#471C00"/>
						<stop  offset="1" style="stop-color:#210C00"/>
					</linearGradient>
					<path style="fill:url(#SVGID_00000031895789706374087450000005291478989848001697_);" d="M317.241,292.095
						c-1.94,0.263-3.803,0.756-5.501,1.503c-8.143,3.582-15.59,8.543-23.28,12.968c-23.031,13.25-49.497,16.938-74.031,5.2
						c-13.884-6.642-24.596-19.149-40.389-20.017c-8.129-0.447-16.557,2.639-22.363,8.548c-7.116,7.24-8.657,17.639-8.657,27.396
						c0,11.13,2.296,23.592,11.992,30.436c19.57,13.813,40.989-1.613,60.379-6.788c20.582-5.493,42.966-5.417,63.539,0.097
						c9.377,2.513,17.303,7.973,26.813,10.161c11.385,2.619,25.936,2.926,35.02-5.415c7.796-7.159,9.576-18.405,9.576-28.489
						c0-12.332-4.594-26.151-15.973-32.451C329.55,292.577,323.052,291.306,317.241,292.095z"/>
					<g>
						
							<linearGradient id="SVGID_00000136373759621391263720000015344842769564727708_" gradientUnits="userSpaceOnUse" x1="-47.034" y1="-164.854" x2="-45.8174" y2="-164.854" gradientTransform="matrix(0 -76.6011 -76.6011 0 -12381.3193 -3267.0928)">
							<stop  offset="0" style="stop-color:#FFFFFF"/>
							<stop  offset="0.3907" style="stop-color:#FFFAEF"/>
							<stop  offset="0.9706" style="stop-color:#FFF0CF"/>
							<stop  offset="1" style="stop-color:#FFF0CF"/>
						</linearGradient>
						<path style="fill:url(#SVGID_00000136373759621391263720000015344842769564727708_);" d="M296.46,257.285
							c-37.174-7.088-110.075-10.75-140.873,19.727c-11.445,11.074-7.065,47.904,9.066,44.104
							c3.251,8.058,30.335,14.839,35.825,8.493c4.506,8.131,38.593,10.124,46.17,3.705c6.264,5.672,38.683,3.429,44.634-3.462
							c6.371,4.799,32.511-3.055,35.378-10.055c17.247,7.089,21.876-25.833,13.404-40.212
							C329.368,263.173,311.301,262.072,296.46,257.285z"/>
					</g>
					<g>
						
							<linearGradient id="SVGID_00000088094294957945735460000004216012796189526925_" gradientUnits="userSpaceOnUse" x1="-48.6853" y1="-176.9738" x2="-47.2612" y2="-176.9738" gradientTransform="matrix(0 76.6011 76.6011 0 13803.0654 4067.9468)">
							<stop  offset="0" style="stop-color:#FFFFFF"/>
							<stop  offset="0.3907" style="stop-color:#FFFAEF"/>
							<stop  offset="0.9706" style="stop-color:#FFF0CF"/>
							<stop  offset="1" style="stop-color:#FFF0CF"/>
						</linearGradient>
						<path style="fill:url(#SVGID_00000088094294957945735460000004216012796189526925_);" d="M199.549,430.456
							c35.195,8.297,104.215,12.582,133.373-23.09c10.836-12.962,6.689-56.07-8.583-51.623c-3.078-9.431-28.72-17.369-33.918-9.94
							c-4.266-9.517-36.538-11.85-43.712-4.336c-5.93-6.639-36.623-4.013-42.257,4.052c-6.032-5.617-30.78,3.575-33.494,11.77
							c-16.329-8.297-20.711,30.236-12.69,47.067C168.393,423.565,185.498,424.853,199.549,430.456z"/>
					</g>
					<g>
						
							<radialGradient id="SVGID_00000024721736336077072060000008746099474126240431_" cx="-46.4986" cy="-164.854" r="0.7668" gradientTransform="matrix(0 -76.6011 -141.7281 0 -23117.7715 -3267.0928)" gradientUnits="userSpaceOnUse">
							<stop  offset="0" style="stop-color:#FFFFFF"/>
							<stop  offset="0.3823" style="stop-color:#FDFDFD"/>
							<stop  offset="0.5424" style="stop-color:#F6F7F8"/>
							<stop  offset="0.661" style="stop-color:#E9EDEF"/>
							<stop  offset="0.7591" style="stop-color:#D8DEE2"/>
							<stop  offset="0.8445" style="stop-color:#C1CBD0"/>
							<stop  offset="0.9212" style="stop-color:#A5B3BB"/>
							<stop  offset="0.9897" style="stop-color:#8498A2"/>
							<stop  offset="1" style="stop-color:#7E939E"/>
						</radialGradient>
						<path style="fill:url(#SVGID_00000024721736336077072060000008746099474126240431_);" d="M296.46,257.285
							c-37.174-7.088-110.075-10.75-140.873,19.727c-11.445,11.074-7.065,47.904,9.066,44.104
							c3.251,8.058,30.335,14.839,35.825,8.493c4.506,8.131,38.593,10.124,46.17,3.705c6.264,5.672,38.683,3.429,44.634-3.462
							c6.371,4.799,32.511-3.055,35.378-10.055c17.247,7.089,21.876-25.833,13.404-40.212
							C329.368,263.173,311.301,262.072,296.46,257.285z"/>
					</g>
					<g>
						
							<radialGradient id="SVGID_00000135657213179386533590000012450200573521092244_" cx="-48.0586" cy="-176.9738" r="0.7607" gradientTransform="matrix(0 76.6011 187.6099 0 33448.7109 4067.9468)" gradientUnits="userSpaceOnUse">
							<stop  offset="0" style="stop-color:#FFFFFF"/>
							<stop  offset="0.3823" style="stop-color:#FDFDFD"/>
							<stop  offset="0.5424" style="stop-color:#F6F7F8"/>
							<stop  offset="0.661" style="stop-color:#E9EDEF"/>
							<stop  offset="0.7591" style="stop-color:#D8DEE2"/>
							<stop  offset="0.8445" style="stop-color:#C1CBD0"/>
							<stop  offset="0.9212" style="stop-color:#A5B3BB"/>
							<stop  offset="0.9897" style="stop-color:#8498A2"/>
							<stop  offset="1" style="stop-color:#7E939E"/>
						</radialGradient>
						<path style="fill:url(#SVGID_00000135657213179386533590000012450200573521092244_);" d="M199.549,430.456
							c35.195,8.297,104.215,12.582,133.373-23.09c10.836-12.962,6.689-56.07-8.583-51.623c-3.078-9.431-28.72-17.369-33.918-9.94
							c-4.266-9.517-36.538-11.85-43.712-4.336c-5.93-6.639-36.623-4.013-42.257,4.052c-6.032-5.617-30.78,3.575-33.494,11.77
							c-16.329-8.297-20.711,30.236-12.69,47.067C168.393,423.565,185.498,424.853,199.549,430.456z"/>
					</g>
				</g>
			</g>
			<path style="opacity:0.2;fill:#AA1A5F;" d="M341.784,347.502c-9.084,8.341-23.635,13.704-35.02,11.085
				c-9.51-2.188-17.435-7.647-26.812-10.161c-20.573-5.514-42.957-5.591-63.539-0.097c-19.39,5.175-40.809,14.931-60.379,1.119
				c-9.697-6.844-11.992-19.306-11.992-30.436c0-1.174,0.024-2.357,0.076-3.543c-0.822,4.004-1.097,8.168-1.097,12.224
				c0,11.13,2.296,23.592,11.992,30.436c19.57,13.813,40.989-1.613,60.379-6.788c20.582-5.493,42.966-5.417,63.539,0.097
				c9.377,2.513,17.303,7.973,26.813,10.161c11.385,2.619,25.936,2.926,35.02-5.415c6.911-6.346,9.09-15.903,9.497-25.016
				C349.01,337.333,346.504,343.168,341.784,347.502z"/>
			<path style="opacity:0.2;fill:#AA1A5F;" d="M170.272,295.153c16.908,0.869,28.376,13.375,43.24,20.017
				c26.267,11.738,54.602,8.05,79.259-5.2c8.234-4.425,16.206-9.386,24.924-12.968c1.818-0.747,3.813-1.24,5.89-1.503
				c4.227-0.536,8.783-0.102,12.893,1.055c-0.677-0.466-1.38-0.905-2.113-1.311c-4.815-2.666-11.313-3.938-17.125-3.149
				c-1.94,0.263-3.803,0.756-5.501,1.503c-8.143,3.582-15.59,8.543-23.28,12.968c-23.031,13.25-49.497,16.938-74.031,5.2
				c-13.884-6.642-24.596-19.149-40.389-20.017c-7.419-0.408-15.08,2.135-20.777,7.073
				C158.447,296.152,164.43,294.853,170.272,295.153z"/>
		</g>
		
			<linearGradient id="SVGID_00000171720786135849567470000013913974564161775757_" gradientUnits="userSpaceOnUse" x1="250.6441" y1="407.9433" x2="248.9513" y2="357.1607" gradientTransform="matrix(1.0568 0.1362 -0.0236 0.9432 -4.9079 -14.0026)">
			<stop  offset="0" style="stop-color:#FFFFFF;stop-opacity:0"/>
			<stop  offset="0.1674" style="stop-color:#F7E4EA;stop-opacity:0.1674"/>
			<stop  offset="0.528" style="stop-color:#E49FB5;stop-opacity:0.528"/>
			<stop  offset="1" style="stop-color:#C83C69"/>
		</linearGradient>
		<path style="opacity:0.7;fill:url(#SVGID_00000171720786135849567470000013913974564161775757_);" d="M197.907,371.316
			c-1.401,0.94-2.211,2.978-2.087,5.191l0.002,0.039c0.98,17.108,26.138,30.249,56.192,29.35
			c26.243-0.785,47.537-12.016,51.862-26.243c0.979-3.221-0.414-7.047-2.849-8.4C269.97,353.992,215.15,359.751,197.907,371.316z"/>
		<g>
			<g>
				
					<linearGradient id="SVGID_00000167364951577015461000000017929880556407133606_" gradientUnits="userSpaceOnUse" x1="178.8775" y1="284.9138" x2="178.8775" y2="434.9273" gradientTransform="matrix(0.9433 0.3319 -0.3319 0.9433 136.3319 -55.5947)">
					<stop  offset="0" style="stop-color:#FFFFFF"/>
					<stop  offset="0.1678" style="stop-color:#F8FBFB"/>
					<stop  offset="0.4141" style="stop-color:#E4EFF1"/>
					<stop  offset="0.7071" style="stop-color:#C4DCE1"/>
					<stop  offset="1" style="stop-color:#9DC5CD"/>
				</linearGradient>
				<path style="fill:url(#SVGID_00000167364951577015461000000017929880556407133606_);" d="M232.613,269.647L135.37,416.014
					c-6.341,12.624-0.158,27.947,13.168,32.636l0,0h0c13.326,4.689,27.742-3.387,30.703-17.2L232.613,269.647z"/>
				
					<linearGradient id="SVGID_00000127011142953038867120000005490490393049920445_" gradientUnits="userSpaceOnUse" x1="178.8775" y1="392.1531" x2="178.8775" y2="485.4365" gradientTransform="matrix(0.9433 0.3319 -0.3319 0.9433 136.3319 -55.5947)">
					<stop  offset="0" style="stop-color:#FFFFFF"/>
					<stop  offset="0.1678" style="stop-color:#F8FBFB"/>
					<stop  offset="0.417" style="stop-color:#E4EFF1"/>
					<stop  offset="0.7151" style="stop-color:#C3DBE0"/>
					<stop  offset="1" style="stop-color:#9DC5CD"/>
				</linearGradient>
				<path style="fill:url(#SVGID_00000127011142953038867120000005490490393049920445_);" d="M198.302,399.529
					c-10.029-3.529-20.676-1.364-28.428,4.795c-1.55-0.888-3.196-1.655-4.941-2.269c-1.691-0.595-3.399-1.019-5.108-1.298
					c-2.111-9.782-9.1-18.272-19.233-21.837c-15.515-5.459-32.518,2.693-37.977,18.208c-5.459,15.515,2.693,32.518,18.208,37.977
					c1.691,0.595,3.399,1.018,5.108,1.298c2.111,9.782,9.101,18.272,19.233,21.837c10.029,3.529,20.676,1.364,28.428-4.795
					c1.55,0.888,3.196,1.655,4.941,2.269c15.515,5.459,32.518-2.693,37.977-18.208C221.969,421.99,213.817,404.988,198.302,399.529z
					"/>
			</g>
			<g>
				
					<linearGradient id="SVGID_00000158734909776343080480000018073599432618259857_" gradientUnits="userSpaceOnUse" x1="26.7455" y1="338.4415" x2="26.7455" y2="488.4549" gradientTransform="matrix(-0.9433 0.3319 0.3319 0.9433 184.0132 -55.5947)">
					<stop  offset="0" style="stop-color:#FFFFFF"/>
					<stop  offset="0.1678" style="stop-color:#F8FBFB"/>
					<stop  offset="0.4141" style="stop-color:#E4EFF1"/>
					<stop  offset="0.7071" style="stop-color:#C4DCE1"/>
					<stop  offset="1" style="stop-color:#9DC5CD"/>
				</linearGradient>
				<path style="fill:url(#SVGID_00000158734909776343080480000018073599432618259857_);" d="M249.004,269.647l97.244,146.367
					c6.341,12.624,0.158,27.947-13.168,32.636l0,0h0c-13.326,4.689-27.742-3.387-30.703-17.2L249.004,269.647z"/>
				
					<linearGradient id="SVGID_00000149370974504044967850000018109993912965369237_" gradientUnits="userSpaceOnUse" x1="26.7455" y1="445.6808" x2="26.7455" y2="538.9641" gradientTransform="matrix(-0.9433 0.3319 0.3319 0.9433 184.0132 -55.5947)">
					<stop  offset="0" style="stop-color:#FFFFFF"/>
					<stop  offset="0.1678" style="stop-color:#F8FBFB"/>
					<stop  offset="0.417" style="stop-color:#E4EFF1"/>
					<stop  offset="0.7151" style="stop-color:#C3DBE0"/>
					<stop  offset="1" style="stop-color:#9DC5CD"/>
				</linearGradient>
				<path style="fill:url(#SVGID_00000149370974504044967850000018109993912965369237_);" d="M283.315,399.529
					c10.029-3.529,20.676-1.364,28.428,4.795c1.55-0.888,3.196-1.655,4.941-2.269c1.69-0.595,3.399-1.019,5.108-1.298
					c2.111-9.782,9.1-18.272,19.233-21.837c15.515-5.459,32.518,2.693,37.976,18.208c5.459,15.515-2.693,32.518-18.208,37.977
					c-1.691,0.595-3.399,1.018-5.108,1.298c-2.111,9.782-9.1,18.272-19.233,21.837c-10.029,3.529-20.676,1.364-28.428-4.795
					c-1.55,0.888-3.196,1.655-4.941,2.269c-15.515,5.459-32.518-2.693-37.977-18.208
					C259.648,421.99,267.801,404.988,283.315,399.529z"/>
			</g>
		</g>
	</g>
</g>
</svg>
