<svg id="svg2" height="512" viewBox="0 0 512 512" width="512" xmlns="http://www.w3.org/2000/svg" xmlns:svg="http://www.w3.org/2000/svg" isolation="isolate"><g id="g4163"><circle id="circle4" cx="256" cy="256" fill="#cca827" r="192"/><path id="path6" d="m64 246c3.333-86 69.333-168.667 176-182 97.137 0 176 81.551 176 182s-78.863 182-176 182-176-81.551-176-182z" fill="#ffd231"/><g fill="#78e0ff"><path id="path10" d="m478.391 344.208c3.314 5.74 1.344 13.091-4.396 16.405l-62.4 36.027c-5.74 3.314-13.09 1.344-16.404-4.396-3.314-5.74-1.345-13.09 4.395-16.404l62.4-36.027c5.74-3.314 13.091-1.345 16.405 4.395z"/><path id="path12" d="m116.476 121.342c3.314 5.74 1.344 13.09-4.396 16.404l-62.4 36.027c-5.74 3.314-13.09 1.344-16.404-4.396-3.314-5.74-1.345-13.09 4.395-16.404l62.401-36.027c5.739-3.314 13.09-1.344 16.404 4.396z"/><path id="path14" d="m478.391 392.244c-3.314 5.74-10.665 7.71-16.405 4.396l-62.4-36.027c-5.74-3.314-7.709-10.665-4.395-16.405 3.314-5.74 10.664-7.709 16.404-4.395l62.4 36.027c5.74 3.314 7.71 10.664 4.396 16.404z"/><path id="path16" d="m116.476 169.377c-3.314 5.74-10.665 7.71-16.404 4.396l-62.401-36.027c-5.74-3.314-7.709-10.664-4.395-16.404 3.314-5.74 10.664-7.71 16.404-4.396l62.4 36.027c5.74 3.314 7.71 10.664 4.396 16.404z"/></g><circle id="circle22" cx="178.061" cy="214.969" fill="#f7f7f7" r="50.323"/><circle id="circle24" cx="333.605" cy="214.969" fill="#f7f7f7" r="50.323"/><path id="path38" d="m160.13 296.173h191.979c9.04 0 16.38 7.339 16.38 16.379v39.295c0 9.04-7.34 16.379-16.38 16.379h-191.979c-9.041 0-16.38-7.339-16.38-16.379v-39.295c0-9.04 7.339-16.379 16.38-16.379z" fill="#f7f7f7"/><path id="path44" d="m435.967 356.217-11.185-9.006v-15.012c0-6.627 5.381-12.009 12.009-12.009 6.628 0 12.009 5.382 12.009 12.009v14.636z" fill="#78e0ff"/><path id="path46" d="m74.052 133.351-11.185-9.007v-15.011c0-6.628 5.381-12.009 12.009-12.009 6.628 0 12.009 5.381 12.009 12.009v14.636z" fill="#78e0ff"/><path id="path52" d="m448.8 389.899v14.354c0 6.628-5.381 12.009-12.009 12.009-6.628 0-12.009-5.381-12.009-12.009v-14.411l11.185-5.604z" fill="#78e0ff"/><path id="path54" d="m86.885 167.032v14.354c0 6.628-5.381 12.009-12.009 12.009-6.628 0-12.009-5.381-12.009-12.009v-14.41l11.185-5.605z" fill="#78e0ff"/><path id="path18" d="m255.83125 57c-53.33072 0-101.85966 21.056431-137.56719 55.34531-3.0939-2.56654-6.92544-4.08272-10.88437-4.37031-3.8499 0-7.937618.85431-10.807858 2.46718l-2.687496 1.55157v-3.10313c0-11.416044-8.057784-19.007804-19.007814-19.007804-10.416673 0-19.009375 8.591144-19.009375 19.007804v3.10313l-2.6875-1.55157c-3.382928-1.95313-7.147102-2.73122-10.806249-2.46562-6.09858.44267-11.902536 3.78457-15.157813 9.42188v.002l-.0031-.002c-5.598687 9.69721.193826 21.41593 6.959373 25.96726l2.6875 1.55156-2.6875 1.55156c-9.020959 5.20827-12.167443 16.94658-6.959375 25.96719 5.974203 9.83253 17.859746 11.63708 25.967187 6.95625l2.6875-1.55156v3.10312c0 7.02369 3.919561 13.17519 9.664063 16.44219-5.742538 18.58093-8.842187 38.31914-8.842187 58.75625 0 109.83479 89.307394 199.14375 199.142184 199.14375 53.13192 0 101.49365-20.89906 137.21093-54.90469 5.9452 5.26053 14.84266 6.48486 22.05313 2.32188l2.68594-1.55157v3.10313c0 10.41667 8.59269 19.00782 19.00937 19.00781 10.41668 0 19.00938-8.59114 19.00938-19.00781v-3.10313l2.68594 1.55157c10.25955 5.92335 20.64595 1.52509 25.96719-6.95938 5.20837-9.02114 2.06127-20.75908-6.95938-25.96719l-2.68593-1.55156 2.68593-1.55c9.91507-5.72447 12.04831-17.15447 6.95938-25.96875-3.25535-5.63843-9.06045-8.97788-15.15938-9.42031-3.65936-.26546-7.42497.51097-10.80781 2.46406l-2.68594 1.55v-3.1c0-7.11481-4.02037-13.33721-9.8875-16.57031 5.88216-18.79674 9.06406-38.78438 9.06406-59.4875.00002-109.83578-89.30958-199.14226-199.14529-199.14226zm0 14c102.25829 0 185.14531 82.8839 185.14531 185.14218 0 20.20336-3.24416 39.63168-9.22656 57.825-8.00258 2.22671-13.96875 9.5664-13.96875 18.23282v3.1l-2.68594-1.55c-3.38273-1.95303-7.14701-2.72958-10.80625-2.46406-6.09872.44252-11.90421 3.78221-15.15937 9.42031-5.45679 9.45143-.99071 21.38057 6.95625 25.96875l2.68593 1.55156-2.68593 1.55c-6.29619 3.63512-9.72575 10.45186-9.45469 17.30469-33.50286 33.49198-79.70531 54.20469-130.8 54.20469-102.25721 0-185.142188-82.88654-185.142188-185.14376 0-19.85619 3.129065-38.96164 8.920313-56.87656 8.157737-2.12142 14.275001-9.54337 14.275001-18.32187v-3.10313l2.687496 1.55156c10.208478 5.89387 21.106378 1.46294 25.967188-6.95624 2.59016-4.48628 3.11235-9.64476 1.875-14.3375 3.13557 3.7207 9.01679 3.18692 11.43125-1.0375 7.52779-12.81893 21.41353-21.44219 37.39063-21.44219 1.40327 0 2.79194.0681 4.1625.19843 3.87778.41694 7.34857-2.41541 7.71767-6.29803.36911-3.88261-2.5058-7.31824-6.39267-7.63946-1.80544-.17168-3.63678-.26094-5.4875-.26094-21.0249 0-39.50229 11.39049-49.4625 28.35156-.71761 1.18839-1.06569 2.56331-1 3.95-1.61182-3.01733-4.04378-5.63292-7.19375-7.45156l-2.68751-1.55157 2.68751-1.55156c6.49636-3.75068 9.8918-10.87295 9.34375-17.93593 33.45725-33.642722 79.72482-54.42969 130.90781-54.42969zm-180.954688 32.88282c2.839327 0 5.007813 2.16848 5.007813 5.0078v11.18594l-5.009375 2.89219-5.007813-2.89219v-11.18594c0-2.83932 2.17005-5.0078 5.009375-5.0078zm265.624998 17.73593c-1.85072 0-3.68081.0892-5.48594.26094-3.88412.3249-6.75494 3.7595-6.38563 7.63965.36931 3.88016 3.83651 6.71151 7.71219 6.29784 1.36888-.13024 2.75612-.19843 4.15938-.19843 15.9771 0 29.86284 8.62326 37.39062 21.44219 1.93277 3.38893 6.26284 4.54408 9.62682 2.5682 3.36397-1.97589 4.46374-6.32036 2.44506-9.65883-9.9602-16.96107-28.4376-28.35156-49.4625-28.35156zm-294.321873.94844 14.695313 8.48438-10.017187 5.78281-9.685938-5.59219c-2.457195-1.41866-3.252561-4.38231-1.835937-6.84062 1.452088-2.51509 4.486636-3.19526 6.843749-1.83438zm64.234373 1.83129c1.54782 2.6809.81304 5.31539-1.83433 6.84386l-9.685938 5.59219-10.017192-5.78282 14.69531-8.48437c2.48614-1.34006 5.48801-.41292 6.84215 1.83114zm-35.53906 14.73594 10.018752 5.78437-10.01719 5.78281-10.017187-5.78281zm-24.015625 13.86558 10.01875 5.78438-14.698438 8.48593c-2.458861 1.41963-5.422279.62497-6.842187-1.83437-1.419933-2.4594-.624666-5.42246 1.834375-6.84219zm48.032809 0 9.687506 5.59375c2.45933 1.41991 3.25401 4.38333 1.83437 6.84219-1.4196 2.4588-4.38516 3.25162-6.84219 1.83281l-14.69687-8.48593zm79.168756 4.64687c-31.57578 0-57.32344 25.7461-57.32344 57.32188s25.74766 57.325 57.32344 57.325c31.57576 0 57.32344-25.74922 57.32344-57.325s-25.74768-57.32188-57.32344-57.32188zm155.54531 0c-31.57578 0-57.32343 25.7461-57.32343 57.32188s25.74765 57.325 57.32343 57.325 57.32188-25.74922 57.32188-57.325-25.7461-57.32188-57.32188-57.32188zm-258.73125 9.21875 5.009375 2.8922v11.18593c0 2.83933-2.168486 5.00938-5.007813 5.00938-2.839325 0-5.009375-2.17005-5.009375-5.00938v-11.18593zm103.18594 4.78125c24.0096 0 43.32344 19.31226 43.32344 43.32188s-19.31384 43.325-43.32344 43.325c-24.00962 0-43.32344-19.31538-43.32344-43.325s19.31382-43.32188 43.32344-43.32188zm155.54531 0c24.00961 0 43.32188 19.31226 43.32188 43.32188s-19.31227 43.325-43.32188 43.325c-24.00962 0-43.32343-19.31538-43.32343-43.325s19.31381-43.32188 43.32343-43.32188zm-150.82656 21.30626c-13.0279-.00006-23.58911 10.56116-23.58907 23.58905-.00005 13.02791 10.56116 23.58912 23.58907 23.58907 13.0279.00005 23.58912-10.56116 23.58906-23.58907.00005-13.02789-10.56117-23.58911-23.58906-23.58905zm146.10781 0c-13.02789-.00006-23.58911 10.56116-23.58906 23.58905-.00006 13.02791 10.56116 23.58912 23.58906 23.58907 13.0279.00005 23.58912-10.56117 23.58906-23.58907.00005-13.02789-10.56116-23.5891-23.58906-23.58905zm-168.75625 96.22031c-12.82915 0-23.38125 10.55113-23.38125 23.37969v39.29531c0 12.82857 10.5521 23.37812 23.38125 23.37812h191.97813c12.82856 0 23.37812-10.54904 23.37812-23.37812v-39.29531c0-12.82908-10.54956-23.37969-23.37812-23.37969zm0 14h191.97813c5.25143 0 9.37812 4.12878 9.37812 9.37969v12.64687h-210.7375v-12.64687c0-5.25143 4.1284-9.37969 9.38125-9.37969zm276.65937 24.01562c2.83863 0 5.00938 2.17318 5.00938 5.01094v11.18438l-5.00938 2.89218-5.00937-2.89218v-11.18438c0-2.83776 2.17074-5.01094 5.00937-5.01094zm-286.04062 12.01094h210.7375v12.64844c0 5.2509-4.12669 9.37812-9.37812 9.37812h-191.97813c-5.25285 0-9.38125-4.1267-9.38125-9.37812zm257.34531 6.67502 14.69531 8.48437-10.01875 5.78281-9.68593-5.59218c-2.45852-1.41944-3.25101-4.38468-1.83125-6.84376 1.93429-2.67648 4.24497-3.02012 6.84062-1.83124zm64.23282 1.83123c1.41945 2.45856.62444 5.42415-1.83438 6.84375l-9.68593 5.59218-10.0172-5.7828 14.69532-8.48438c2.48681-1.33882 5.48879-.41336 6.84219 1.83125zm-35.53751 14.73593 10.0172 5.78438-10.0172 5.78282-10.01875-5.78282zm-24.01875 13.8672 10.01875 5.78437-14.69531 8.48438c-2.45885 1.41962-5.42073.62497-6.84062-1.83438-1.41995-2.45939-.62779-5.42245 1.83125-6.84219zm48.03595 0 9.68593 5.59218c2.45935 1.41991 3.254 4.38333 1.83438 6.84219-1.4196 2.45882-4.38364 3.25383-6.84219 1.83438l-14.69532-8.48438zm-24.0172 13.86718 5.00938 2.89219v11.18594c0 2.83932-2.17006 5.00781-5.00938 5.00781s-5.00937-2.16849-5.00937-5.00781v-11.18594z" fill="#2e2e2e" text-indent="0" text-align="start" text-decoration-line="none" text-decoration-style="solid" text-decoration-color="#000000" text-transform="none" block-progression="tb" white-space="normal" isolation="auto" mix-blend-mode="normal" solid-color="#000000" solid-opacity="1"/></g></svg>