<svg id="Layer_1" enable-background="new 0 0 512.248 512.248" height="512" viewBox="0 0 512.248 512.248" width="512" xmlns="http://www.w3.org/2000/svg"><g><g><g><g><ellipse cx="256.155" cy="256.124" fill="#ffeb00" rx="256.093" ry="256.008"/><path d="m256.155.117c-.03 0-.061.001-.091.001v512.012c.03 0 .061.001.091.001 141.436 0 256.093-114.618 256.093-256.008s-114.656-256.006-256.093-256.006z" fill="#fb0"/></g></g></g><g><path d="m256.253 377.803c-29.029 0-57.195-7.928-81.453-22.926-23.704-14.656-43.257-35.761-56.543-61.032-3.855-7.333-1.037-16.402 6.296-20.257 7.332-3.854 16.403-1.036 20.257 6.296 22.36 42.529 64.021 67.919 111.443 67.919 47.725 0 89.268-25.226 111.128-67.479 3.805-7.358 12.853-10.238 20.215-6.43 7.357 3.807 10.236 12.857 6.43 20.215-27.113 52.406-78.617 83.694-137.773 83.694z" fill="#132c63"/></g><g><g><path d="m202.538 171.534c-8.284 0-15-6.716-15-15 0-11.932-9.707-21.64-21.64-21.64s-21.64 9.708-21.64 21.64c0 8.284-6.716 15-15 15s-15-6.716-15-15c0-28.474 23.165-51.64 51.64-51.64s51.64 23.166 51.64 51.64c0 8.284-6.716 15-15 15z" fill="#132c63"/></g><g><path d="m382.866 171.534c-8.284 0-15-6.716-15-15 0-11.932-9.707-21.64-21.64-21.64-11.932 0-21.639 9.708-21.639 21.64 0 8.284-6.716 15-15 15s-15-6.716-15-15c0-28.474 23.165-51.64 51.639-51.64 28.475 0 51.64 23.166 51.64 51.64 0 8.284-6.716 15-15 15z" fill="#000f35"/></g></g><g><path d="m85.48 326.467c-12.191-21.615-39.838-29.533-61.621-17.648-21.807 11.894-30.09 38.567-18.856 60.721l12.899 25.442c9.877 19.478 15.097 41.316 15.097 63.154v38.917c0 8.284 6.716 15 15 15h62.21c8.284 0 15-6.716 15-15v-55.611c0-29.145-7.569-57.968-21.889-83.354z" fill="#fff69a"/><path d="m488.265 308.819c-21.782-11.881-49.429-3.968-61.621 17.648l-17.839 31.624c-14.319 25.385-21.889 54.208-21.889 83.353v55.611c0 8.284 6.716 15 15 15h62.209c8.284 0 15-6.716 15-15v-38.917c0-21.838 5.221-43.677 15.096-63.154l12.901-25.442c11.234-22.157 2.951-48.829-18.857-60.723z" fill="#ffeb00"/></g><path d="m387.595 273.893c-7.362-3.808-16.41-.928-20.215 6.43-21.86 42.253-63.403 67.479-111.128 67.479-.063 0-.125-.003-.188-.003v30c.063 0 .125.003.188.003 59.156 0 110.66-31.288 137.772-83.694 3.808-7.358.929-16.408-6.429-20.215z" fill="#000f35"/><circle cx="124.859" cy="263.373" fill="#ff001e" r="38.059"/><circle cx="397.866" cy="263.373" fill="#c30010" r="38.059"/></g></svg>