<?xml version="1.0" encoding="utf-8"?>
<!-- Generator: Adobe Illustrator 27.5.0, SVG Export Plug-In . SVG Version: 6.00 Build 0)  -->
<svg version="1.1" id="Layer_1" xmlns="http://www.w3.org/2000/svg" xmlns:xlink="http://www.w3.org/1999/xlink" x="0px" y="0px"
	 viewBox="0 0 2000 2000" style="enable-background:new 0 0 2000 2000;" xml:space="preserve">
<g>
	<rect style="fill:#FFFFFF;" width="2000" height="2000"/>
</g>
<g>
	<g>
		<g>
			<path style="fill:#E03B20;" d="M1369.639,1681.06v56.274c0,41.668-155.167,75.444-346.556,75.444
				c-191.4,0-346.556-33.776-346.556-75.444v-56.274c0,41.668,155.156,75.455,346.556,75.455
				C1214.471,1756.514,1369.639,1722.727,1369.639,1681.06z"/>
		</g>
		<g>
			<ellipse style="fill:#E03B20;" cx="1023.078" cy="1681.062" rx="346.556" ry="75.45"/>
		</g>
		<g>
			<path style="fill:#2A2A2A;" d="M1023.078,1765.012c-93.158,0-180.828-7.917-246.86-22.294
				c-71.794-15.63-108.196-36.374-108.196-61.656c0-4.694,3.806-8.5,8.5-8.5c4.694,0,8.5,3.806,8.5,8.5
				c0,11.258,24.831,29.81,94.813,45.046c64.879,14.125,151.265,21.904,243.244,21.904s178.364-7.779,243.244-21.904
				c69.981-15.236,94.813-33.788,94.813-45.046c0-4.694,3.806-8.5,8.5-8.5s8.5,3.806,8.5,8.5c0,25.282-36.402,46.026-108.196,61.656
				C1203.906,1757.095,1116.236,1765.012,1023.078,1765.012z"/>
		</g>
		<g>
			<g>
				<g>
					<path style="fill:#EFAC14;" d="M1086.491,1585.168c0-65.085-52.578-161.359-61.643-161.359
						c-10.878,0-61.643,96.274-61.643,161.359s27.598,117.847,61.643,117.847S1086.491,1650.253,1086.491,1585.168z"/>
				</g>
				<g>
					<path style="fill:#FFEB5A;" d="M1057.115,1641.328c0-34.069-27.522-84.463-32.267-84.463c-5.694,0-32.267,50.395-32.267,84.463
						s14.446,61.687,32.267,61.687C1042.669,1703.015,1057.115,1675.397,1057.115,1641.328z"/>
				</g>
			</g>
			<g>
				<g>
					<path style="fill:#EFAC14;" d="M931.661,1579.024c-19.002-54.743-91.333-120.369-98.957-117.723
						c-9.15,3.176-23.74,98.973-4.738,153.716c19.002,54.743,57.619,91.064,86.254,81.124
						C942.853,1686.203,950.663,1633.767,931.661,1579.024z"/>
				</g>
				<g>
					<path style="fill:#FFEB5A;" d="M923.349,1634.837c-9.947-28.655-47.808-63.007-51.799-61.622
						c-4.789,1.662-12.427,51.807-2.48,80.463c9.947,28.655,30.161,47.667,45.149,42.464
						C929.207,1690.939,933.295,1663.492,923.349,1634.837z"/>
				</g>
			</g>
			<g>
				<g>
					<path style="fill:#EFAC14;" d="M795.644,1590.351c-14.833-42.732-71.294-93.96-77.246-91.894
						c-7.142,2.479-18.532,77.258-3.699,119.991c14.833,42.732,44.977,71.084,67.33,63.325
						C804.381,1674.015,810.477,1633.083,795.644,1590.351z"/>
				</g>
				<g>
					<path style="fill:#FFEB5A;" d="M789.155,1633.918c-7.764-22.368-37.319-49.183-40.434-48.102
						c-3.739,1.298-9.7,40.441-1.936,62.809c7.764,22.368,23.543,37.209,35.244,33.148
						C793.729,1677.712,796.919,1656.287,789.155,1633.918z"/>
				</g>
			</g>
			<g>
				<g>
					<g>
						<path style="fill:#EFAC14;" d="M1123.954,1579.024c19.002-54.743,91.333-120.369,98.958-117.723
							c9.15,3.176,23.74,98.973,4.738,153.716s-57.619,91.064-86.254,81.124C1112.761,1686.203,1104.952,1633.767,1123.954,1579.024
							z"/>
					</g>
					<g>
						<path style="fill:#FFEB5A;" d="M1132.266,1634.837c9.946-28.655,47.808-63.007,51.799-61.622
							c4.789,1.662,12.427,51.807,2.48,80.463c-9.946,28.655-30.161,47.667-45.149,42.464
							C1126.407,1690.939,1122.32,1663.492,1132.266,1634.837z"/>
					</g>
				</g>
				<g>
					<g>
						<path style="fill:#EFAC14;" d="M1259.971,1590.351c14.833-42.732,71.294-93.96,77.246-91.894
							c7.142,2.479,18.532,77.258,3.699,119.991c-14.833,42.732-44.977,71.084-67.329,63.325
							C1251.234,1674.015,1245.138,1633.083,1259.971,1590.351z"/>
					</g>
					<g>
						<path style="fill:#FFEB5A;" d="M1266.459,1633.918c7.764-22.368,37.319-49.183,40.434-48.102
							c3.739,1.298,9.7,40.441,1.936,62.809s-23.543,37.209-35.244,33.148C1261.886,1677.712,1258.695,1656.287,1266.459,1633.918z"
							/>
					</g>
				</g>
			</g>
		</g>
	</g>
	<g>
		<g>
			<g>
				<circle style="fill:#E03B20;" cx="1016.688" cy="786.994" r="582.54"/>
			</g>
			<g>
				<path style="fill:#FF8383;" d="M1090.747,341.165c-1.889,11.897-0.577,26.089-9.636,35.19
					c-20.342,14.949-50.323,20.559-75.327,36.66c-19.008,10.16-36.722,20.845-48.901,38.313
					c-18.693,24.192-24.092,68.704,10.272,80.61c32.801,10.669,64.468-3.178,102.091-2.675c36.872-1.751,73.147,4.968,109.68-1.431
					c25.899-4.081,56.464-7.199,74.146-8.121c26.052-3.393,33.245,19.306,26.858,49.067c-8.765,28.561-27.719,55.221-59.773,62.758
					c-47.909,8.348-98.004-4.158-146.485-10.353c-67.755-9.58-131.522-1.933-189.14,44.678
					c-48.571,37.872-92.134,97.338-95.575,151.935c-7.238,140.239,178.978,132.785,250.536,215.471
					c60.581,74.312,10.407,292.111,98.753,263.456c355.639-115.353,318.093-403.983,256.978-499.264
					c-7.905-12.741-32.76-44.218-11.592-40.831c25.526,6.103,75.175,28.635,99.702,8.848c15.947-16.275,14.114-56.635,24.968-79.969
					c7.193-18.653,26.055-11.04,40.289-3.327c14.555,7.638,27.72,16.101,42.066,25.972c1.149,0.683,2.342,1.438,3.57,2.246
					c-28.601-217.754-177.46-397.638-377.709-470.764c-26.368,10.016-51.259,25.046-73.252,42.468
					C1120.73,303.207,1094.346,312.211,1090.747,341.165z"/>
			</g>
			<g>
				<path style="fill:#FF8383;" d="M500.406,804.33c-23.126-48.964-53.737-115.113-64.839-58.156
					c-0.934,13.487-1.42,27.096-1.42,40.82c0,164.15,67.9,312.437,177.139,418.322C628.303,1065.757,557.688,928.017,500.406,804.33
					z"/>
			</g>
			<g>
				<path style="fill:#FF8383;" d="M554.734,432.059c16.661,6.441,31.546,9.119,40.631,5.639l0.722-0.266
					c95.347-39.512,172.041-128.871,271.701-147.824c40.375-6.884,82.515-11.856,120.462-28.609
					c15.814-6.125,77.535-38.571,50.955-56.117l0,0c-7.47-0.284-14.977-0.427-22.516-0.427
					C828.544,204.454,661.237,293.65,554.734,432.059z"/>
			</g>
		</g>
		<g>
			<g>
				<g>
					<g>
						<path style="fill:#FFFFFF;" d="M950.199,698.764c20.151,96.99-36.836,195.001-133.483,224.138
							c-96.648,29.136-198.318-21.045-235.132-113.011L950.199,698.764z"/>
					</g>
					<g>
						<path style="fill:#2A2A2A;" d="M933.709,703.736c14.197,68.397-26.003,137.502-94.15,158.046
							c-68.147,20.544-139.844-14.827-165.815-79.675L933.709,703.736z"/>
					</g>
					<g>
						
							<rect x="573.391" y="745.827" transform="matrix(0.9574 -0.2886 0.2886 0.9574 -185.1318 253.1745)" style="fill:#2A2A2A;" width="385.002" height="17.001"/>
					</g>
				</g>
				<g>
					<g>
						<path style="fill:#FFFFFF;" d="M1043.109,698.764c-20.151,96.99,36.835,195.001,133.483,224.138
							c96.648,29.136,198.318-21.045,235.132-113.011L1043.109,698.764z"/>
					</g>
					<g>
						<path style="fill:#2A2A2A;" d="M1059.6,703.736c-14.197,68.397,26.003,137.502,94.15,158.046
							c68.147,20.544,139.844-14.827,165.815-79.675L1059.6,703.736z"/>
					</g>
					<g>
						
							<rect x="1218.917" y="561.827" transform="matrix(0.2886 -0.9574 0.9574 0.2886 150.9137 1711.7736)" style="fill:#2A2A2A;" width="17.001" height="385.002"/>
					</g>
				</g>
			</g>
			<g>
				<path style="fill:#2A2A2A;" d="M1230.381,1081.542c0-27.954-104.643-69.225-233.727-69.225s-233.727,41.27-233.727,69.225
					c0,27.954,104.643,4.466,233.727,4.466S1230.381,1109.496,1230.381,1081.542z"/>
			</g>
		</g>
		<g>
			<g>
				<g>
					<ellipse style="fill:#AA2711;" cx="979.314" cy="399.123" rx="71.264" ry="19.265"/>
				</g>
				<g>
					<g>
						<path style="fill:#FFBDBD;" d="M1029.792,388.872c0,3.045-0.25,6.027-0.745,8.932c-10.103,5.345-30.128,8.985-53.18,8.985
							c-23.053,0-43.078-3.639-53.181-8.985c-0.495-2.906-0.745-5.887-0.745-8.932c0-2.277,0.14-4.524,0.413-6.725
							c3.313-26.611,26.005-47.206,53.513-47.206c27.507,0,50.199,20.596,53.512,47.206
							C1029.652,384.348,1029.792,386.596,1029.792,388.872z"/>
					</g>
					<g>
						<g>
							
								<ellipse transform="matrix(0.1314 -0.9913 0.9913 0.1314 471.328 1257.7773)" style="fill:#FFFFFF;" cx="953.392" cy="359.934" rx="9.371" ry="9.371"/>
						</g>
						<g>
							<path style="fill:#FFFFFF;" d="M945.665,376.046c0,2.815-2.282,5.097-5.097,5.097c-2.815,0-5.097-2.282-5.097-5.097
								c0-2.815,2.282-5.097,5.097-5.097C943.383,370.949,945.665,373.231,945.665,376.046z"/>
						</g>
					</g>
				</g>
			</g>
			<g>
				<g>
					<ellipse style="fill:#AA2711;" cx="768.189" cy="446.74" rx="58.717" ry="15.873"/>
				</g>
				<g>
					<g>
						<path style="fill:#FFBDBD;" d="M809.779,438.295c0,2.509-0.206,4.966-0.614,7.36c-8.324,4.404-24.823,7.403-43.817,7.403
							s-35.493-2.999-43.817-7.403c-0.408-2.394-0.614-4.85-0.614-7.36c0-1.876,0.115-3.728,0.341-5.541
							c2.73-21.925,21.427-38.895,44.091-38.895c22.664,0,41.361,16.97,44.091,38.895
							C809.664,434.567,809.779,436.419,809.779,438.295z"/>
					</g>
					<g>
						<g>
							<path style="fill:#FFFFFF;" d="M754.552,414.451c0,4.264-3.457,7.721-7.721,7.721c-4.264,0-7.721-3.457-7.721-7.721
								c0-4.264,3.457-7.721,7.721-7.721C751.095,406.73,754.552,410.187,754.552,414.451z"/>
						</g>
						<g>
							<circle style="fill:#FFFFFF;" cx="736.264" cy="427.727" r="4.199"/>
						</g>
					</g>
				</g>
			</g>
			<g>
				<g>
					<ellipse style="fill:#AA2711;" cx="780.678" cy="323.077" rx="53.58" ry="14.485"/>
				</g>
				<g>
					<g>
						<path style="fill:#FFBDBD;" d="M818.629,315.37c0,2.29-0.188,4.531-0.56,6.716c-7.596,4.019-22.652,6.755-39.984,6.755
							s-32.388-2.736-39.984-6.755c-0.372-2.185-0.56-4.426-0.56-6.716c0-1.712,0.105-3.402,0.311-5.056
							c2.491-20.007,19.552-35.492,40.234-35.492s37.742,15.485,40.234,35.492C818.524,311.969,818.629,313.659,818.629,315.37z"/>
					</g>
					<g>
						<g>
							<path style="fill:#FFFFFF;" d="M768.234,293.613c0,3.891-3.155,7.046-7.046,7.046c-3.891,0-7.046-3.154-7.046-7.046
								c0-3.891,3.155-7.046,7.046-7.046C765.079,286.567,768.234,289.721,768.234,293.613z"/>
						</g>
						<g>
							<circle style="fill:#FFFFFF;" cx="751.546" cy="305.727" r="3.832"/>
						</g>
					</g>
				</g>
			</g>
			<g>
				<g>
					<ellipse style="fill:#AA2711;" cx="1136.969" cy="466.339" rx="66.753" ry="18.046"/>
				</g>
				<g>
					<g>
						<path style="fill:#FFBDBD;" d="M1184.251,456.738c0,2.853-0.234,5.645-0.698,8.367c-9.463,5.007-28.22,8.416-49.814,8.416
							c-21.594,0-40.351-3.409-49.814-8.416c-0.464-2.722-0.698-5.514-0.698-8.367c0-2.133,0.131-4.238,0.387-6.3
							c3.104-24.926,24.359-44.218,50.125-44.218s47.021,19.292,50.125,44.218C1184.12,452.5,1184.251,454.605,1184.251,456.738z"/>
					</g>
					<g>
						<g>
							
								<ellipse transform="matrix(0.7071 -0.7071 0.7071 0.7071 22.1035 912.6254)" style="fill:#FFFFFF;" cx="1112.688" cy="429.631" rx="8.778" ry="8.778"/>
						</g>
						<g>
							<circle style="fill:#FFFFFF;" cx="1100.676" cy="444.724" r="4.774"/>
						</g>
					</g>
				</g>
			</g>
			<g>
				<g>
					<ellipse style="fill:#AA2711;" cx="1134.186" cy="294.958" rx="46.749" ry="12.638"/>
				</g>
				<g>
					<g>
						<path style="fill:#FFBDBD;" d="M1167.299,288.234c0,1.998-0.164,3.953-0.489,5.859c-6.627,3.507-19.764,5.894-34.886,5.894
							s-28.259-2.387-34.886-5.894c-0.325-1.906-0.489-3.862-0.489-5.859c0-1.494,0.092-2.968,0.271-4.412
							c2.173-17.456,17.059-30.967,35.104-30.967s32.93,13.51,35.104,30.967C1167.207,285.266,1167.299,286.741,1167.299,288.234z"
							/>
					</g>
					<g>
						<g>
							<path style="fill:#FFFFFF;" d="M1123.329,269.251c0,3.395-2.752,6.147-6.148,6.147c-3.395,0-6.147-2.752-6.147-6.147
								s2.752-6.148,6.147-6.148C1120.577,263.103,1123.329,265.856,1123.329,269.251z"/>
						</g>
						<g>
							<circle style="fill:#FFFFFF;" cx="1108.769" cy="279.82" r="3.343"/>
						</g>
					</g>
				</g>
			</g>
			<g>
				<g>
					<ellipse style="fill:#AA2711;" cx="1273.095" cy="371.137" rx="60.848" ry="16.449"/>
				</g>
				<g>
					<g>
						<path style="fill:#FFBDBD;" d="M1316.194,362.384c0,2.6-0.214,5.146-0.636,7.627c-8.626,4.564-25.724,7.672-45.408,7.672
							s-36.782-3.107-45.408-7.672c-0.423-2.481-0.636-5.026-0.636-7.627c0-1.944,0.119-3.863,0.353-5.742
							c2.829-22.721,22.204-40.307,45.691-40.307c23.487,0,42.862,17.585,45.691,40.307
							C1316.075,358.521,1316.194,360.44,1316.194,362.384z"/>
					</g>
					<g>
						<g>
							<circle style="fill:#FFFFFF;" cx="1250.961" cy="337.675" r="8.002"/>
						</g>
						<g>
							<circle style="fill:#FFFFFF;" cx="1240.012" cy="351.433" r="4.352"/>
						</g>
					</g>
				</g>
			</g>
			<g>
				<g>
					<ellipse style="fill:#AA2711;" cx="965.455" cy="245.078" rx="64.24" ry="17.366"/>
				</g>
				<g>
					<g>
						<path style="fill:#FFBDBD;" d="M1010.956,235.838c0,2.745-0.226,5.433-0.672,8.052c-9.107,4.819-27.158,8.099-47.938,8.099
							c-20.781,0-38.832-3.281-47.939-8.099c-0.446-2.619-0.672-5.307-0.672-8.052c0-2.052,0.126-4.079,0.373-6.063
							c2.987-23.988,23.442-42.553,48.238-42.553c24.796,0,45.251,18.565,48.238,42.553
							C1010.83,231.76,1010.956,233.786,1010.956,235.838z"/>
					</g>
					<g>
						<g>
							<circle style="fill:#FFFFFF;" cx="942.088" cy="209.752" r="8.448"/>
						</g>
						<g>
							<path style="fill:#FFFFFF;" d="M935.122,224.276c0,2.537-2.057,4.594-4.594,4.594c-2.537,0-4.594-2.057-4.594-4.594
								s2.057-4.594,4.594-4.594C933.065,219.682,935.122,221.739,935.122,224.276z"/>
						</g>
					</g>
				</g>
			</g>
		</g>
		<g>
			<g>
				<path style="fill:#2A2A2A;" d="M799.084,625.788c-45.709,35.537-99.7,55.373-157.544,57.882
					c-17.944,0.778-31.548,16.456-29.66,34.317v0c1.688,15.972,15.269,28.06,31.328,27.818
					c72.07-1.084,139.203-25.748,194.832-71.581c12.396-10.213,14.92-28.218,5.866-41.484l0,0
					C833.782,617.905,813.264,614.763,799.084,625.788z"/>
			</g>
			<g>
				<path style="fill:#2A2A2A;" d="M1174.686,625.788c45.709,35.537,99.7,55.373,157.543,57.882
					c17.944,0.778,31.548,16.456,29.66,34.317v0c-1.688,15.972-15.269,28.06-31.328,27.818
					c-72.07-1.084-139.203-25.748-194.833-71.581c-12.396-10.213-14.92-28.218-5.866-41.484l0,0
					C1139.988,617.905,1160.506,614.763,1174.686,625.788z"/>
			</g>
		</g>
		<g>
			<g>
				<path style="fill:#8CC7F4;" d="M1655.493,844.846c0-35.328-28.639-150.077-63.967-150.077s-63.967,114.749-63.967,150.077
					c0,35.328,28.639,63.967,63.967,63.967S1655.493,880.174,1655.493,844.846z"/>
			</g>
			<g>
				<path style="fill:#FFFFFF;" d="M1578.367,776.496c-1.108-9.728-13.901-11.611-17.533-2.575
					c-12.162,30.258-27.277,79.497-4.763,95.284C1580.862,886.587,1583.009,817.26,1578.367,776.496z"/>
			</g>
		</g>
		<g>
			<g>
				<path style="fill:#8CC7F4;" d="M1469.625,648.331c0-23.635-19.16-100.404-42.795-100.404s-42.795,76.768-42.795,100.404
					s19.16,42.795,42.795,42.795S1469.625,671.966,1469.625,648.331z"/>
			</g>
			<g>
				<path style="fill:#FFFFFF;" d="M1418.027,602.604c-0.741-6.508-9.3-7.768-11.73-1.723c-8.137,20.243-18.249,53.185-3.186,63.746
					C1419.696,676.257,1421.133,629.876,1418.027,602.604z"/>
			</g>
		</g>
		<g>
			<g>
				<path style="fill:#8CC7F4;" d="M657.56,1086.027c0-26.932-21.833-114.409-48.764-114.409
					c-26.932,0-48.764,87.477-48.764,114.409s21.833,48.764,48.764,48.764C635.727,1134.792,657.56,1112.959,657.56,1086.027z"/>
			</g>
			<g>
				<path style="fill:#FFFFFF;" d="M598.764,1033.922c-0.845-7.416-10.597-8.851-13.366-1.963
					c-9.271,23.066-20.794,60.603-3.631,72.638C600.666,1117.848,602.303,1064.998,598.764,1033.922z"/>
			</g>
		</g>
		<g>
			<g>
				<path style="fill:#8CC7F4;" d="M497.967,847.224c0-30.08-24.384-127.781-54.464-127.781c-30.08,0-54.464,97.701-54.464,127.781
					s24.384,54.464,54.464,54.464C473.583,901.688,497.967,877.303,497.967,847.224z"/>
			</g>
			<g>
				<path style="fill:#FFFFFF;" d="M432.299,789.028c-0.943-8.283-11.836-9.886-14.928-2.193
					c-10.355,25.762-23.225,67.687-4.055,81.128C434.424,882.764,436.252,823.736,432.299,789.028z"/>
			</g>
		</g>
		<g>
			<g>
				<path style="fill:#8CC7F4;" d="M601.025,591.589c0-20.286-16.445-86.178-36.732-86.178c-20.286,0-36.731,65.892-36.731,86.178
					s16.445,36.732,36.731,36.732C584.58,628.32,601.025,611.875,601.025,591.589z"/>
			</g>
			<g>
				<path style="fill:#FFFFFF;" d="M556.737,552.341c-0.636-5.586-7.982-6.667-10.068-1.479
					c-6.984,17.375-15.663,45.649-2.735,54.714C558.17,615.557,559.403,575.748,556.737,552.341z"/>
			</g>
		</g>
	</g>
	<g>
		<path style="fill:#F77272;" d="M1614.754,334.602c15.5-16.956,15.049-43.275-1.359-59.683
			c-16.408-16.408-42.727-16.859-59.683-1.359c-16.962-13.465-41.696-12.36-57.378,3.322c-16.874,16.874-16.874,44.233,0,61.107
			c4.85,4.85,10.567,8.301,16.651,10.362l-12.152,39.129l39.129-12.152c2.061,6.084,5.512,11.801,10.362,16.651
			c16.874,16.874,44.233,16.874,61.107,0C1627.113,376.298,1628.219,351.563,1614.754,334.602z"/>
	</g>
	<g>
		<path style="fill:#F77272;" d="M451.694,238.857c-25.125-22.968-64.123-22.299-88.436,2.013s-24.981,63.311-2.013,88.436
			c-19.952,25.133-18.314,61.784,4.922,85.021c25.004,25.004,65.543,25.004,90.547,0c7.186-7.186,12.3-15.658,15.355-24.673
			l57.98,18.007l-18.006-57.98c9.015-3.055,17.487-8.168,24.673-15.354c25.004-25.004,25.004-65.543,0-90.546
			C513.479,220.542,476.827,218.905,451.694,238.857z"/>
	</g>
</g>
</svg>
