<svg id="Layer_2" viewBox="0 0 512 512" xmlns="http://www.w3.org/2000/svg" data-name="Layer 2"><g id="Icon"><g id="_35" data-name="35"><g id="Body"><circle cx="256" cy="256" fill="#ffda24" r="256"/><path d="m512 256c0 141.38-114.62 256-256 256s-256-114.62-256-256c0-10.15.59-20.16 1.74-30 14.85 127.24 123.03 226 254.26 226s239.41-98.76 254.26-226c1.15 9.84 1.74 19.85 1.74 30z" fill="#ffc024"/></g><path d="m359.5 294.05c-.88 12.63-31.49 56.32-103.5 56.32s-102.61-43.69-103.5-56.32c-.79-11.34 6.99-16.1 16.54-14.15 9.54 1.95 33.02 24.01 86.95 24.01s77.42-22.06 86.96-24.01 17.33 2.81 16.54 14.15z" fill="#473535"/><path d="m368.63 295.21c-6.8 24.77-32.82 54.85-102.33 54.85 18.45-18.08 20.86-35.14 24.71-53.4 10.39-49.3 14.22-69.18 39.06-72.98 35.61-5.45 44.87 48.54 38.56 71.53z" fill="#ff6700"/><path d="m368.63 295.21c-3.26 11.89-10.96 25-25.76 35.42 8.46-8.18 13.27-17.38 15.61-25.9 5.8-21.1-2.7-70.64-35.38-65.64-11.48 1.76-18.07 7.26-23.01 18.07 6.08-21.11 13.28-30.92 29.98-33.47 35.61-5.46 44.87 48.53 38.56 71.52z" fill="#ff7e27"/><g id="Eyes" fill="#473535"><path d="m299.92 196.15c-3.15 0-6.33-.85-9.21-2.63-8.22-5.09-10.74-15.89-5.66-24.11 2.62-4.23 26.57-41.34 60.66-41.34s58.04 37.11 60.66 41.34c5.09 8.22 2.55 19-5.67 24.09-8.21 5.08-18.97 2.56-24.06-5.63-5.08-8.1-19.32-24.81-30.92-24.81s-25.84 16.71-30.92 24.81c-3.31 5.34-9.02 8.28-14.87 8.28z"/><path d="m120.5 196.15c-3.15 0-6.33-.85-9.21-2.63-8.22-5.09-10.74-15.89-5.66-24.11 2.62-4.23 26.57-41.34 60.66-41.34s58.04 37.11 60.66 41.34c5.09 8.22 2.55 19-5.67 24.09s-19 2.55-24.09-5.67c-5.05-8.05-19.29-24.76-30.89-24.76s-25.84 16.71-30.92 24.81c-3.31 5.34-9.02 8.28-14.87 8.28z"/></g></g></g></svg>