<svg id="Layer_1" enable-background="new 0 0 512 512" height="512" viewBox="0 0 512 512" width="512" xmlns="http://www.w3.org/2000/svg"><g><g><g><path d="m256 512c-141.159 0-256-114.841-256-256s114.841-256 256-256 256 114.841 256 256-114.841 256-256 256z" fill="#ffde46"/></g></g><g><path d="m256 0v512c141.159 0 256-114.841 256-256s-114.841-256-256-256z" fill="#ffcd00"/></g><g><path d="m346.217 368.502c-5.112 0-10.094-2.614-12.9-7.325-16.146-27.099-45.772-43.933-77.316-43.933-31.455 0-61.038 16.762-77.204 43.745-4.258 7.106-13.469 9.418-20.576 5.158-7.106-4.257-9.416-13.47-5.158-20.576 21.555-35.977 60.998-58.327 102.938-58.327 42.059 0 81.56 22.445 103.088 58.577 4.24 7.117 1.909 16.323-5.208 20.564-2.407 1.435-5.053 2.117-7.664 2.117z" fill="#00347b"/></g><g><path d="m161.304 248c-28.018 0-52.927-17.814-61.982-44.327-2.678-7.84 1.506-16.366 9.346-19.043 7.841-2.678 16.365 1.508 19.043 9.346 4.908 14.37 18.409 24.024 33.594 24.024 15.175 0 28.672-9.646 33.586-24.001 2.683-7.837 11.211-12.017 19.05-9.333 7.837 2.683 12.016 11.212 9.333 19.049-9.069 26.488-33.972 44.285-61.97 44.285z" fill="#00347b"/></g><g><path d="m350.789 248c-28.019 0-52.928-17.814-61.983-44.327-2.678-7.84 1.506-16.366 9.346-19.043 7.843-2.678 16.365 1.508 19.043 9.346 4.908 14.37 18.409 24.024 33.595 24.024 15.174 0 28.671-9.646 33.586-24.001 2.685-7.837 11.216-12.014 19.05-9.333 7.838 2.684 12.017 11.212 9.333 19.05-9.07 26.487-33.973 44.284-61.97 44.284z" fill="#001737"/></g><path d="m359.088 345.822c-21.528-36.132-61.029-58.577-103.088-58.577v30c31.544 0 61.17 16.834 77.316 43.933 2.807 4.71 7.788 7.325 12.9 7.325 2.611 0 5.257-.683 7.663-2.116 7.118-4.241 9.449-13.448 5.209-20.565z" fill="#001737"/></g></svg>