<svg clip-rule="evenodd" fill-rule="evenodd" height="7.111in" image-rendering="optimizeQuality" shape-rendering="geometricPrecision" text-rendering="geometricPrecision" viewBox="0 0 7111 7111" width="7.111in" xmlns="http://www.w3.org/2000/svg"><g id="Layer_x0020_1"><path d="m3556 7111c-1965 0-3556-1591-3556-3556 0-1964 1591-3555 3556-3555s3555 1591 3555 3555c0 1965-1590 3556-3555 3556z" fill="#f4d44e"/><path d="m313 3660c0-1965 1591-3556 3555-3556 336 0 661 47 969 133-320-123-662-202-1019-228h-102v-6c-2028-90-3716 1526-3716 3552 0 1629 1094 3001 2587 3423-1331-514-2274-1805-2274-3318z" fill="#f5c54d"/><path d="m5022 5730h-2766c-63 0-104-68-73-124 339-606 937-1030 1454-1030 163 0 336 42 512 123 32 15 523 361 549 386 157 154 291 330 397 521 31 56-10 124-73 124z" fill="#273941"/><path d="m4336 5393c-226 0-406-187-396-413 4-106 50-204 127-276l739-678c-21-367 278-675 648-660 342 15 609 306 595 648-16 364-340 637-701 591l-744 684c-73 67-168 104-268 104z" fill="#eef0fc"/><path d="m4336 5069c-75 0-112-94-56-145l874-803c-110-208 46-463 287-453 170 7 302 152 295 322-10 235-268 371-467 252l-876 805c-17 14-37 22-57 22z" fill="#fa3c48"/><path d="m1666 2058c-83 0-150-67-150-150s67-150 150-150c303 0 550-247 550-550 0-83 67-150 150-150s150 67 150 150c0 469-381 850-850 850zm3779 0c-469 0-850-381-850-850 0-83 67-150 150-150s150 67 150 150c0 303 247 550 550 550 83 0 150 67 150 150s-67 150-150 150z" fill="#273941"/><path d="m799 2319c-282 0-471-81-563-240-205-358 157-978 397-1388 37-63 69-117 93-162 32-57 115-58 147 0 24 45 55 99 92 162 240 410 603 1030 398 1388-92 159-281 240-564 240z" fill="#2196f3"/><path d="m4668 3273c-280 0-508-305-508-680s228-681 508-681 509 306 509 681-229 680-509 680z" fill="#eef0fc"/><path d="m4668 2147c-162 0-299 204-299 446 0 241 137 446 299 446s300-205 300-446c0-242-138-446-300-446z" fill="#273941"/><path d="m4530 2432c53 0 96 42 96 95s-43 96-96 96-95-43-95-96 42-95 95-95z" fill="#f8fafb"/><path d="m2443 3273c280 0 509-305 509-680s-229-681-509-681-508 306-508 681 228 680 508 680z" fill="#eef0fc"/><path d="m2443 2147c162 0 300 204 300 446 0 241-138 446-300 446s-299-205-299-446c0-242 137-446 299-446z" fill="#273941"/><path d="m2581 2432c-53 0-96 42-96 95s43 96 96 96 96-43 96-96-43-95-96-95z" fill="#f8fafb"/></g></svg>