<svg id="Layer_1" enable-background="new 0 0 512 512" height="512" viewBox="0 0 512 512" width="512" xmlns="http://www.w3.org/2000/svg"><g><g><path d="m226 512c-124.617 0-226-101.383-226-226s101.383-226 226-226 226 101.383 226 226-101.383 226-226 226z" fill="#ffde46"/></g><path d="m226 60c-.078 0-.154.003-.232.003v451.994c.078 0 .154.003.232.003 124.617 0 226-101.383 226-226s-101.383-226-226-226z" fill="#ffcd00"/><g><path d="m141.473 278.252c-28.018 0-52.927-17.813-61.984-44.327-2.678-7.839 1.506-16.365 9.346-19.043 7.839-2.676 16.366 1.507 19.043 9.346 4.909 14.37 18.409 24.024 33.594 24.024 15.174 0 28.671-9.646 33.586-24.001 2.684-7.837 11.212-12.013 19.05-9.333 7.837 2.683 12.016 11.212 9.333 19.05-9.067 26.487-33.971 44.284-61.968 44.284z" fill="#00347b"/></g><g><path d="m310.539 278.252c-28.018 0-52.926-17.813-61.983-44.327-2.678-7.839 1.506-16.365 9.346-19.043 7.84-2.676 16.366 1.507 19.043 9.346 4.909 14.37 18.409 24.024 33.594 24.024 15.174 0 28.671-9.646 33.586-24.001 2.684-7.837 11.211-12.013 19.05-9.333 7.838 2.683 12.016 11.212 9.333 19.05-9.069 26.487-33.972 44.284-61.969 44.284z" fill="#001737"/></g><path d="m226 439.076c-24.813 0-45-21.757-45-48.5s20.187-48.5 45-48.5 45 21.757 45 48.5-20.187 48.5-45 48.5z" fill="#00347b"/><g><path d="m325.997 184.076h-41.518c-6.067 0-11.537-3.655-13.858-9.26-2.322-5.605-1.039-12.057 3.251-16.347l15.915-15.915h-.983c-8.284 0-15-6.716-15-15s6.716-15 15-15h37.196c6.067 0 11.537 3.655 13.858 9.26s1.038 12.057-3.252 16.347l-15.915 15.915h5.305c8.284 0 15 6.716 15 15s-6.715 15-14.999 15z" fill="#a24bdb"/></g><g><path d="m496.995 157.902h-65.821c-6.067 0-11.537-3.655-13.858-9.26s-1.038-12.057 3.252-16.347l40.219-40.219h-22.756c-8.284 0-15-6.716-15-15s6.716-15 15-15h58.969c6.067 0 11.537 3.655 13.858 9.26s1.038 12.057-3.252 16.347l-40.219 40.219h29.607c8.284 0 15 6.716 15 15s-6.715 15-14.999 15z" fill="#a24bdb"/></g><g><path d="m386.518 71.521h-41.518c-6.067 0-11.537-3.655-13.858-9.26s-1.038-12.057 3.252-16.347l15.914-15.914h-.983c-8.284 0-15-6.716-15-15s6.716-15 15-15h37.196c6.067 0 11.537 3.655 13.858 9.26 2.322 5.605 1.039 12.057-3.251 16.347l-15.915 15.915h5.305c8.284 0 15 6.716 15 15s-6.716 14.999-15 14.999z" fill="#a24bdb"/></g><path d="m226 342.076v97c24.813 0 45-21.757 45-48.5s-20.187-48.5-45-48.5z" fill="#001737"/></g></svg>