<svg width="165" height="119" viewBox="0 0 165 119" fill="none" xmlns="http://www.w3.org/2000/svg">
<rect x="0.273438" y="0.115356" width="164" height="118" rx="10" fill="#C385F8"/>
<path d="M39.9338 23.1154C40.3244 30.0983 39.6177 37.7867 39.5433 44.8058C39.4875 49.0752 39.6363 54.7194 39.4503 59.1154C38.3715 56.7455 37.2184 54.8822 35.6188 51.5535C33.8333 47.845 32.1408 44.5887 30.2437 41.1154C27.3608 35.8149 24.6454 28.85 22.3019 23.1154C22.0043 29.7726 22.0229 35.9958 22.0973 42.7978C22.1345 45.8912 22.1159 48.6048 22.1903 52.8018C22.2275 54.4842 22.0973 59.1154 22.0973 59.1154" stroke="#3F3F46" stroke-width="8" stroke-miterlimit="10" stroke-linecap="round" stroke-linejoin="round"/>
<path d="M73.2578 17.1738C73.2578 17.1738 76.8095 17.1918 76.7751 17.1738C76.7751 17.1738 79.344 17.2098 81.1371 17.1738C84.344 17.1198 87.6716 17.0658 91.2923 17.1738" stroke="#3F3F46" stroke-width="8" stroke-miterlimit="10" stroke-linecap="round" stroke-linejoin="round"/>
<path d="M82.3079 17.174C82.3252 24.122 82.2562 30.494 82.2562 37.46C82.2562 38.72 82.1011 47.468 82.2217 51.752" stroke="#3F3F46" stroke-width="8" stroke-miterlimit="10" stroke-linecap="round" stroke-linejoin="round"/>
<path d="M127.23 27.004C127.23 36.958 127.037 47.056 127.23 56.974C127.265 58.522 127.213 62.266 127.213 62.266" stroke="#3F3F46" stroke-width="8" stroke-miterlimit="10" stroke-linecap="round" stroke-linejoin="round"/>
<path d="M127.355 26.9311C129.178 26.9131 131.369 26.8231 133.174 27.0031C135.347 27.2191 137.047 27.5611 138.694 28.4431C140.657 29.5051 141.235 31.6831 141.41 32.1151C141.953 33.6631 141.989 39.1171 139.728 41.0791C138.922 41.7631 137.8 42.6451 135.802 43.3111C134.576 43.7071 132.718 44.1571 131.404 44.2471C129.809 44.3551 128.547 44.3551 127.461 44.3551" stroke="#3F3F46" stroke-width="8" stroke-miterlimit="10" stroke-linecap="round" stroke-linejoin="round"/>
<path d="M53.3477 68.3878C53.3477 68.3878 56.7739 68.4062 56.7372 68.3878C56.7372 68.3878 59.2107 68.4245 60.9513 68.3878C64.0478 68.3328 67.2541 68.2778 70.7536 68.3878" stroke="#3F3F46" stroke-width="8" stroke-miterlimit="10" stroke-linecap="round" stroke-linejoin="round"/>
<path d="M62.1052 68.3868C62.1235 75.4635 62.0502 81.9535 62.0502 89.0485C62.0502 90.3318 61.9036 99.2418 62.0135 103.605" stroke="#3F3F46" stroke-width="8" stroke-miterlimit="10" stroke-linecap="round" stroke-linejoin="round"/>
<path d="M53.3477 103.533C53.3477 103.533 56.0044 103.552 55.9494 103.533C55.9494 103.533 60.0352 103.643 62.014 103.607C64.9272 103.552 68.3351 103.68 70.7536 103.607" stroke="#3F3F46" stroke-width="8" stroke-miterlimit="10" stroke-linecap="round" stroke-linejoin="round"/>
<path d="M100.41 102.118C100.41 102.118 100.792 99.5148 100.965 98.7082C101.347 96.9665 102.614 89.3215 103.603 84.7932C104.974 78.5598 106.553 72.0148 107.994 65.8732C109.625 70.1082 111.204 77.8815 111.395 78.6698C112.922 84.9582 113.512 91.0632 114.172 97.5348C114.328 99.0748 114.328 99.4598 114.553 100.982L114.71 102.118" stroke="#3F3F46" stroke-width="8" stroke-miterlimit="10" stroke-linecap="round" stroke-linejoin="round"/>
<path d="M104.525 84.6558C104.421 84.6558 104.335 84.6558 104.23 84.6558C106.816 84.6558 109.246 84.6191 111.831 84.6924C111.762 84.6924 111.693 84.6924 111.623 84.6924" stroke="#3F3F46" stroke-width="8" stroke-miterlimit="10" stroke-linecap="round" stroke-linejoin="round"/>
<path d="M39.9338 23.1154C40.3244 30.0983 39.6177 37.7867 39.5433 44.8058C39.4875 49.0752 39.6363 54.7194 39.4503 59.1154C38.3715 56.7455 37.2184 54.8822 35.6188 51.5535C33.8333 47.845 32.1408 44.5887 30.2437 41.1154C27.3608 35.8149 24.6454 28.85 22.3019 23.1154C22.0043 29.7726 22.0229 35.9958 22.0973 42.7978C22.1345 45.8912 22.1159 48.6048 22.1903 52.8018C22.2275 54.4842 22.0973 59.1154 22.0973 59.1154" stroke="#FAFAFA" stroke-width="4" stroke-miterlimit="10" stroke-linecap="round" stroke-linejoin="round"/>
<path d="M73.2578 17.1738C73.2578 17.1738 76.8095 17.1918 76.7751 17.1738C76.7751 17.1738 79.344 17.2098 81.1371 17.1738C84.344 17.1198 87.6716 17.0658 91.2923 17.1738" stroke="#FAFAFA" stroke-width="4" stroke-miterlimit="10" stroke-linecap="round" stroke-linejoin="round"/>
<path d="M82.3079 17.174C82.3252 24.122 82.2562 30.494 82.2562 37.46C82.2562 38.72 82.1011 47.468 82.2217 51.752" stroke="#FAFAFA" stroke-width="4" stroke-miterlimit="10" stroke-linecap="round" stroke-linejoin="round"/>
<path d="M127.23 27.004C127.23 36.958 127.037 47.056 127.23 56.974C127.265 58.522 127.213 62.266 127.213 62.266" stroke="#FAFAFA" stroke-width="4" stroke-miterlimit="10" stroke-linecap="round" stroke-linejoin="round"/>
<path d="M127.355 26.9311C129.178 26.9131 131.369 26.8231 133.174 27.0031C135.347 27.2191 137.047 27.5611 138.694 28.4431C140.657 29.5051 141.235 31.6831 141.41 32.1151C141.953 33.6631 141.989 39.1171 139.728 41.0791C138.922 41.7631 137.8 42.6451 135.802 43.3111C134.576 43.7071 132.718 44.1571 131.404 44.2471C129.809 44.3551 128.547 44.3551 127.461 44.3551" stroke="#FAFAFA" stroke-width="4" stroke-miterlimit="10" stroke-linecap="round" stroke-linejoin="round"/>
<path d="M53.3477 68.3878C53.3477 68.3878 56.7739 68.4062 56.7372 68.3878C56.7372 68.3878 59.2107 68.4245 60.9513 68.3878C64.0478 68.3328 67.2541 68.2778 70.7536 68.3878" stroke="#FAFAFA" stroke-width="4" stroke-miterlimit="10" stroke-linecap="round" stroke-linejoin="round"/>
<path d="M62.1052 68.3868C62.1235 75.4635 62.0502 81.9535 62.0502 89.0485C62.0502 90.3318 61.9036 99.2418 62.0135 103.605" stroke="#FAFAFA" stroke-width="4" stroke-miterlimit="10" stroke-linecap="round" stroke-linejoin="round"/>
<path d="M53.3477 103.533C53.3477 103.533 56.0044 103.552 55.9494 103.533C55.9494 103.533 60.0352 103.643 62.014 103.607C64.9272 103.552 68.3351 103.68 70.7536 103.607" stroke="#FAFAFA" stroke-width="4" stroke-miterlimit="10" stroke-linecap="round" stroke-linejoin="round"/>
<path d="M100.41 102.118C100.41 102.118 100.792 99.5148 100.965 98.7082C101.347 96.9665 102.614 89.3215 103.603 84.7932C104.974 78.5598 106.553 72.0148 107.994 65.8732C109.625 70.1082 111.204 77.8815 111.395 78.6698C112.922 84.9582 113.512 91.0632 114.172 97.5348C114.328 99.0748 114.328 99.4598 114.553 100.982L114.71 102.118" stroke="#FAFAFA" stroke-width="4" stroke-miterlimit="10" stroke-linecap="round" stroke-linejoin="round"/>
<path d="M104.525 84.6558C104.421 84.6558 104.335 84.6558 104.23 84.6558C106.816 84.6558 109.246 84.6191 111.831 84.6924C111.762 84.6924 111.693 84.6924 111.623 84.6924" stroke="#FAFAFA" stroke-width="4" stroke-miterlimit="10" stroke-linecap="round" stroke-linejoin="round"/>
</svg>
