<svg width="165" height="119" viewBox="0 0 165 119" fill="none" xmlns="http://www.w3.org/2000/svg">
<rect x="0.273438" y="0.115356" width="164" height="118" rx="10" fill="#62A0EC"/>
<path d="M45.7832 47.5681H118.725C119.017 47.5681 119.254 47.8051 119.254 48.0974V96.0378C119.254 96.33 119.017 96.5671 118.725 96.5671H85.6377C84.7882 95.674 83.5865 95.115 82.2539 95.1149C80.9213 95.1149 79.7196 95.674 78.8701 96.5671H45.7832C45.4909 96.5671 45.2539 96.3301 45.2539 96.0378V48.0974C45.2539 47.8051 45.4909 47.5681 45.7832 47.5681Z" fill="#D7E9FF" stroke="#3F3F46" stroke-width="2"/>
<path d="M118.724 47.5681C119.016 47.5681 119.253 47.8051 119.253 48.0974V96.0378C119.253 96.3301 119.016 96.5671 118.724 96.5671H115.08C115.116 96.3964 115.137 96.2193 115.137 96.0378V48.0974C115.137 47.9158 115.116 47.7388 115.08 47.5681H118.724Z" fill="#D7E9FF" stroke="#3F3F46" stroke-width="2"/>
<path d="M114.261 54.7567V91.8144H50.2461V54.7567H114.261Z" fill="#DEE3E7" stroke="#3F3F46" stroke-width="2"/>
<path d="M59.7471 43.2112C65.6762 42.279 73.4709 42.2667 81.2539 45.7874V90.4143C81.0215 90.2701 80.7657 90.1149 80.4854 89.9543C78.9403 89.0695 76.6703 87.9752 73.7441 87.1155C68.1302 85.4662 60.1305 84.6916 50.2461 87.8694V45.804C50.285 45.7879 50.3255 45.7706 50.3682 45.7532C50.8363 45.5623 51.5289 45.2956 52.4131 44.9983C54.1824 44.4033 56.7136 43.6881 59.7471 43.2112Z" fill="#EAEEF1" stroke="#3F3F46" stroke-width="2"/>
<path d="M57.8916 27.2758C66.0869 29.2966 71.8713 33.8781 75.6553 38.06C77.6384 40.2517 79.0661 42.3268 79.9961 43.85C80.4608 44.6112 80.7998 45.2336 81.0215 45.6615C81.1235 45.8584 81.2002 46.0143 81.2529 46.1234V88.5082C80.2829 86.9967 78.9245 85.1108 77.1377 83.1361C73.0921 78.6652 66.827 73.7131 57.8916 71.6361V27.2758Z" fill="#FAFAFA" stroke="#3F3F46" stroke-width="2"/>
<path d="M65.5381 22.8341C73.3976 24.9123 77.3127 30.3841 79.2871 35.5216C80.3269 38.2273 80.8203 40.8265 81.0527 42.7531C81.1687 43.7144 81.2197 44.5037 81.2412 45.049C81.2519 45.3215 81.255 45.5331 81.2559 45.674V45.8683C81.2558 45.8715 81.2549 45.8738 81.2549 45.8751V81.4923C81.2215 81.4028 81.1888 81.3126 81.1543 81.2228C78.9812 75.5681 74.5309 69.364 65.5381 67.1866V22.8341Z" fill="#EAEEF1" stroke="#3F3F46" stroke-width="2"/>
<path d="M83.2539 45.7874C91.0367 42.2669 98.8308 42.2791 104.76 43.2112C107.793 43.6881 110.325 44.4033 112.095 44.9983C112.979 45.2955 113.671 45.5624 114.139 45.7532C114.182 45.7707 114.223 45.7888 114.262 45.8049V87.8694C104.377 84.6914 96.3767 85.4661 90.7627 87.1155C87.8368 87.9751 85.5675 89.0695 84.0225 89.9543C83.7424 90.1147 83.4862 90.2692 83.2539 90.4133V45.7874Z" fill="#EAEEF1" stroke="#3F3F46" stroke-width="2"/>
<path d="M109.676 80.6236C100.744 80.8086 93.813 83.4463 89.0674 86.0914C86.6078 87.4623 84.7343 88.836 83.4707 89.8717C83.3968 89.9322 83.3256 89.9922 83.2559 90.0504V46.3141C83.3013 46.2699 83.3513 46.2195 83.4082 46.1656C83.7013 45.8881 84.1458 45.4852 84.7383 44.9996C85.9236 44.0282 87.6995 42.7256 90.041 41.4205C94.5474 38.9087 101.147 36.391 109.676 36.2066V80.6236Z" fill="#FAFAFA" stroke="#3F3F46" stroke-width="2"/>
</svg>
