<svg viewBox="0 0 165 119" fill="none" xmlns="http://www.w3.org/2000/svg">
<rect x="0.273438" y="0.115356" width="164" height="118" rx="10" fill="#62CC82"/>
<path d="M20.2437 75.9171L45.4437 61.3679C47.1769 60.3671 47.1769 57.8653 45.4437 56.8645L20.2437 42.3153C18.5103 41.3145 16.3438 42.5655 16.3438 44.5669V73.6653C16.3438 75.6669 18.5103 76.9177 20.2437 75.9171Z" fill="#FAFAFA"/>
<path d="M18.9219 40.9779C17.0715 41.025 15.3594 42.5215 15.3594 44.5638V73.6654C15.3594 76.3886 18.3994 78.1439 20.7578 76.7826L45.9609 62.2318C48.3191 60.8701 48.3191 57.3591 45.9609 55.9974L20.7578 41.4466C20.1682 41.1062 19.5387 40.9622 18.9219 40.9779ZM18.1445 43.1537C18.606 42.8873 19.2036 42.861 19.7578 43.181L44.9609 57.7279C46.0692 58.3678 46.0692 59.8614 44.9609 60.5013L19.7578 75.0482C18.6494 75.6881 17.3594 74.9454 17.3594 73.6654V44.5638C17.3594 43.924 17.6831 43.4201 18.1445 43.1537Z" fill="#3F3F46"/>
<rect x="59.3867" y="13.1154" width="90" height="90" rx="4" fill="#FAFAFA" stroke="#3F3F46" stroke-width="2"/>
<circle cx="69.4785" cy="38.7325" r="19.166" fill="#FAFAFA"/>
<path d="M86.8571 38.7905H69.4277V21.3611H71.0914C79.7986 21.3611 86.8571 28.4196 86.8571 37.1268V38.7905Z" fill="#FFC132"/>
<path d="M69.4785 19.4161C80.2026 19.4161 88.8966 28.1101 88.8965 38.8341L88.8896 39.3351C88.6239 49.8275 80.035 58.2521 69.4785 58.2521C58.7545 58.2521 50.0605 49.5582 50.0605 38.8341C50.0605 28.1101 58.7544 19.4161 69.4785 19.4161ZM69.4785 20.0577C67.1017 20.0577 64.792 20.4934 62.6055 21.3546L62.1699 21.5333C60.0739 22.4199 58.1782 23.6651 56.5283 25.2384L56.2012 25.5568C54.5842 27.1738 53.2937 29.0402 52.3594 31.1095L52.1768 31.5255C51.1978 33.8399 50.7022 36.2989 50.7021 38.8341C50.7021 41.3693 51.1978 43.8282 52.1768 46.1427L52.3594 46.5597C53.2937 48.6287 54.5844 50.4947 56.2012 52.1115L56.5283 52.4298C58.1783 54.0031 60.0738 55.2492 62.1699 56.1359L62.6055 56.3136C64.7919 57.1748 67.1017 57.6105 69.4785 57.6105C72.0137 57.6105 74.4727 57.1148 76.7871 56.1359L77.2031 55.9532C79.2725 55.0189 81.1389 53.7284 82.7559 52.1115L83.0742 51.7843C84.6476 50.1344 85.8937 48.2389 86.7803 46.1427L86.958 45.7072C87.8192 43.5207 88.2549 41.2109 88.2549 38.8341C88.2549 36.4573 87.8192 34.1475 86.958 31.9611L86.7803 31.5255C85.8936 29.4293 84.6476 27.5338 83.0742 25.8839L82.7559 25.5568C81.1388 23.9398 79.2725 22.6493 77.2031 21.715L76.7871 21.5333C74.4727 20.5544 72.0139 20.0577 69.4785 20.0577Z" fill="#3F3F46" stroke="#3F3F46" stroke-width="0.3"/>
<path d="M69.7979 21.2308V25.6166H69.1562V21.2308H69.7979Z" fill="#3F3F46" stroke="#3F3F46" stroke-width="0.3"/>
<path d="M86.9912 38.5123V39.1539H82.6055V38.5123H86.9912Z" fill="#3F3F46" stroke="#3F3F46" stroke-width="0.3"/>
<path d="M56.2178 38.5123V39.1539H51.832V38.5123H56.2178Z" fill="#3F3F46" stroke="#3F3F46" stroke-width="0.3"/>
<path d="M60.8226 23.1806L62.769 27.1106L62.1941 27.3954L60.2477 23.4653L60.8226 23.1806Z" fill="#3F3F46" stroke="#3F3F46" stroke-width="0.3"/>
<path d="M54.1886 29.6106L57.9867 31.8035L57.6659 32.3591L53.8678 30.1662L54.1886 29.6106Z" fill="#3F3F46" stroke="#3F3F46" stroke-width="0.3"/>
<path d="M77.9747 23.2518L78.5185 23.5922L76.191 27.3096L75.6472 26.9691L77.9747 23.2518Z" fill="#3F3F46" stroke="#3F3F46" stroke-width="0.3"/>
<path d="M84.6307 29.6101L84.9515 30.1657L81.1535 32.3586L80.8327 31.8029L84.6307 29.6101Z" fill="#3F3F46" stroke="#3F3F46" stroke-width="0.3"/>
<path d="M62.4421 50.2279L62.9978 50.5486L60.8053 54.3471L60.2496 54.0264L62.4421 50.2279Z" fill="#3F3F46" stroke="#3F3F46" stroke-width="0.3"/>
<path d="M57.6649 45.3359L57.9857 45.8916L54.1876 48.0844L53.8668 47.5288L57.6649 45.3359Z" fill="#3F3F46" stroke="#3F3F46" stroke-width="0.3"/>
<path d="M76.4879 50.2311L78.6808 54.0291L78.1251 54.3499L75.9323 50.5519L76.4879 50.2311Z" fill="#3F3F46" stroke="#3F3F46" stroke-width="0.3"/>
<path d="M81.1525 45.3378L84.9505 47.5307L84.6297 48.0863L80.8317 45.8934L81.1525 45.3378Z" fill="#3F3F46" stroke="#3F3F46" stroke-width="0.3"/>
<path d="M69.7979 52.2783V56.664H69.1562V52.2783H69.7979Z" fill="#3F3F46" stroke="#3F3F46" stroke-width="0.3"/>
<path d="M69.4785 38.4301C69.7018 38.4301 69.8827 38.6112 69.8828 38.8344C69.8828 39.0576 69.7017 39.2387 69.4785 39.2387C69.2553 39.2386 69.0742 39.0576 69.0742 38.8344C69.0743 38.6113 69.2554 38.4302 69.4785 38.4301Z" fill="#3F3F46" stroke="#3F3F46" stroke-width="0.4"/>
<path d="M115.002 45.7797C115.002 50.6032 117.744 55.3424 122.59 55.4061C127.754 55.4741 130.114 50.6032 130.114 45.7797C130.114 40.9562 126.731 37.046 122.558 37.046C118.385 37.046 115.002 40.9562 115.002 45.7797Z" fill="#FFAF8A"/>
<path d="M130.379 59.512C129.983 59.6917 129.586 59.8676 129.188 60.0418C128.171 60.4865 127.146 60.9108 126.109 61.3072C124.33 61.9872 122.227 62.9043 120.28 62.8099C117.252 62.6653 115.275 58.5948 115.275 58.5948C115.275 58.5948 118.696 57.4183 118.783 56.6197C118.796 56.516 118.818 56.34 118.846 56.1138C118.864 55.9786 118.885 55.8266 118.909 55.6599C119.007 54.9504 119.144 53.9905 119.272 53.1161C119.407 52.1767 119.531 51.3355 119.58 51.0113C119.593 50.9186 119.6 50.8687 119.6 50.8687L120.53 50.9372C120.53 50.9372 126.448 51.3764 126.565 51.3838C126.544 51.3838 126.528 51.7172 126.516 52.1545C126.511 52.3194 126.507 52.4991 126.503 52.6825C126.49 53.3366 126.485 54.0184 126.487 54.137C126.537 56.4141 128.432 57.1941 129.822 57.6573C131.334 58.1613 130.65 59.3879 130.379 59.512Z" fill="#FFAF8A"/>
<path d="M93.8996 58.1019L93.64 52.8538C93.64 52.8538 93.1786 53.1134 92.8326 52.2195C92.4866 51.3255 92.3424 49.9703 92.5731 49.7107C92.8038 49.4512 93.3228 49.6242 93.3228 49.6242C93.3228 49.6242 93.3516 49.0475 93.5823 48.7879C93.813 48.5284 94.5051 48.8168 94.5051 48.8168C94.5051 48.8168 94.7646 48.2977 95.0529 48.0671C95.3413 47.8364 95.7739 47.923 95.7739 47.923C95.7739 47.923 94.9665 44.3761 95.4279 44.0878C95.8893 43.7994 96.2641 43.6553 96.4948 44.405C96.7255 45.1547 97.9078 49.7973 98.0808 50.6624C98.2538 51.5275 98.7152 57.3811 98.7152 57.3811L93.8996 58.1019Z" fill="#FFAF8A"/>
<path d="M93.2366 49.6464C93.3504 50.2147 93.4376 50.8002 93.6156 51.353C93.7171 51.6679 93.8791 52.1467 94.1744 52.3324C94.3576 52.4476 94.6983 52.4229 94.8921 52.3453C95.1645 52.2364 95.1745 51.9426 95.1688 51.6758C95.1673 51.6084 95.0575 51.587 95.0459 51.6592C94.9864 52.0307 94.9395 52.2479 94.5294 52.2511C94.1475 52.2541 93.9732 51.8687 93.8419 51.5571C93.5845 50.9463 93.4887 50.2605 93.3435 49.6169C93.3278 49.5471 93.2227 49.577 93.2366 49.6464Z" fill="black"/>
<path d="M94.46 48.8477C94.4764 49.4038 94.5324 50.0135 94.743 50.5329C94.7707 50.6013 94.8698 50.5768 94.8551 50.5019C94.7452 49.9463 94.6083 49.418 94.5757 48.8477C94.5713 48.774 94.4578 48.7729 94.46 48.8477Z" fill="black"/>
<path d="M93.8154 52.8098C93.9724 52.9087 94.2482 52.7885 94.2126 52.5826C94.2032 52.5285 94.1249 52.5365 94.1109 52.5826C94.0798 52.6846 93.9853 52.7814 93.8721 52.7129C93.81 52.6754 93.7545 52.7715 93.8154 52.8098Z" fill="#FFAF8A"/>
<path d="M95.7646 48.6379C95.7281 49.1318 95.8208 49.6034 96.0333 50.05C96.0699 50.1268 96.1848 50.0598 96.1477 49.9832C95.9423 49.5591 95.8529 49.1082 95.8735 48.6379C95.8765 48.5675 95.7697 48.5686 95.7646 48.6379Z" fill="black"/>
<path d="M96.8622 53.4652C96.8105 53.4652 96.7128 53.4057 96.3753 53.0907C95.9844 52.7258 95.8001 52.149 95.7555 51.9922C95.6957 51.9631 95.549 51.8928 95.2443 51.7506C94.8077 51.547 94.5497 51.3809 94.6477 50.7929C94.6734 50.6387 94.7558 50.5153 94.8926 50.4267C95.239 50.202 95.8679 50.2539 96.3408 50.3775C97.0263 50.5562 97.9091 51.7718 97.9463 51.8236L97.8059 51.9247C97.7972 51.9127 96.9225 50.7081 96.2971 50.5449C95.7474 50.4019 95.2332 50.4124 94.9867 50.5719C94.8909 50.6341 94.8359 50.7157 94.8182 50.8215C94.7419 51.279 94.8946 51.3968 95.3173 51.594C95.7516 51.7967 95.8673 51.8545 95.8673 51.8545L95.9027 51.8723L95.9124 51.9111C95.9141 51.9177 96.0849 52.5835 96.4932 52.9647C96.8058 53.2563 96.8759 53.2906 96.8828 53.2937L96.8491 53.3733L96.8175 53.3038C96.7941 53.3193 96.7801 53.3455 96.7801 53.374H96.9531L96.8991 53.4556C96.8879 53.4602 96.8768 53.4652 96.8622 53.4652Z" fill="black"/>
<path d="M93.4602 52.9261C93.822 53.0085 94.242 52.731 94.1858 52.3295C94.1788 52.2796 94.0954 52.2814 94.0867 52.3295C94.0613 52.471 94.0312 52.5975 93.9234 52.7007C93.8086 52.8107 93.6431 52.8464 93.4897 52.8185C93.4202 52.806 93.3893 52.91 93.4602 52.9261Z" fill="black"/>
<path d="M111.372 84.6612L110.911 89.5055C110.911 89.5055 109.296 92.5044 108.72 95.6187C108.143 98.733 107.434 102.127 107.434 102.127H137.898C137.898 102.127 136.517 96.7722 135.364 94.1193C134.21 91.4664 133.172 85.1226 133.172 85.1226L111.372 84.6612Z" fill="#B27142"/>
<path d="M134.556 87.427C134.556 87.427 126.25 89.3891 123.138 89.2724C120.827 89.1871 114.906 88.0235 111.997 87.4288C111.035 87.2324 110.359 86.369 110.394 85.3889L110.794 74.048C110.794 74.048 102.951 78.893 99.3755 79.0079C95.8014 79.1228 93.4651 77.3349 92.4553 72.7788C91.5382 68.6378 92.3404 57.6693 92.3404 57.6693L99.1458 56.4001L100.645 68.8583C100.645 68.8583 106.642 63.0906 110.333 60.8987C112.714 59.4851 114.996 58.6013 116.595 57.9659C116.615 57.9582 118.559 59.7622 118.812 59.9203C119.904 60.6024 120.619 60.9348 121.885 61.1922C123.348 61.4899 125.4 61.1438 126.764 60.4511C128.114 59.7651 129.426 58.9421 130.226 57.6824C132.5 58.959 135.861 60.8766 135.941 61.5918C136.055 62.6292 134.556 87.427 134.556 87.427Z" fill="#E56B54"/>
<path d="M135.017 86.5062C135.017 86.5062 132.537 87.6309 132.364 87.6309C132.191 87.6309 129.164 86.4198 128.904 86.3909C128.645 86.3621 125.732 87.2849 125.617 87.5156C125.502 87.7463 125.713 88.19 126.183 88.0923C127.015 87.9193 128.036 87.6634 128.41 87.6057C128.785 87.548 129.452 87.7174 129.452 87.7174C129.452 87.7174 126.604 88.7303 126.204 89.1087C126.035 89.2685 126.362 89.7439 127.026 89.5737C127.87 89.3574 129.582 88.5933 129.697 88.6221C129.812 88.651 129.683 88.8132 129.423 88.9862C129.164 89.1592 127.286 89.8981 126.691 90.3631C126.508 90.5062 127.156 90.828 127.707 90.655C128.478 90.4132 129.942 89.7936 130.173 89.7936C130.403 89.7936 130.375 89.8801 130.202 90.0531C130.029 90.2261 127.952 91.3219 127.895 91.6391C127.837 91.9563 128.183 91.9851 128.529 91.8986C128.875 91.8121 131.492 91.1273 131.838 90.9254C132.184 90.7236 136.344 90.2983 136.344 90.2983L135.017 86.5062Z" fill="#FFAF8A"/>
<path d="M135.673 61.4271L132.307 72.5505C132.307 72.5505 138.362 79.0673 138.42 79.3557C138.477 79.6441 133.287 86.9684 133.287 86.9684C133.287 86.9684 133.402 88.0064 133.864 88.5254C134.325 89.0445 136.863 91.6974 136.863 91.6974C136.863 91.6974 141.822 87.6604 144.418 83.9695C147.013 80.2785 147.225 80.2919 146.205 77.2219C143.697 69.667 138.927 64.6058 137.814 63.352C136.106 61.4271 135.673 61.4271 135.673 61.4271Z" fill="#E56B54"/>
<path d="M138.905 79.1469C139.78 78.9315 140.642 78.8541 141.537 78.7863C141.687 78.7749 141.689 78.5598 141.537 78.5512C140.64 78.5004 139.7 78.6661 138.84 78.9097C138.688 78.9529 138.752 79.1848 138.905 79.1469Z" fill="black"/>
<path d="M139.309 78.4207C139.709 77.8216 140.196 77.3552 140.712 76.862C140.815 76.7639 140.679 76.5768 140.558 76.6614C139.962 77.077 139.477 77.6853 139.089 78.2926C139.001 78.4312 139.218 78.5558 139.309 78.4207Z" fill="black"/>
<path d="M110.921 68.3392C110.894 69.5394 110.873 70.7396 110.855 71.94C110.847 72.4591 110.864 72.9844 110.819 73.502C110.776 74.0096 110.568 74.4806 110.624 74.988C110.643 75.1559 110.901 75.1645 110.893 74.988C110.872 74.5284 111.048 74.0958 111.094 73.6425C111.152 73.0797 111.131 72.5048 111.135 71.94C111.144 70.7397 111.149 69.5395 111.148 68.3392C111.148 68.1929 110.925 68.1931 110.921 68.3392Z" fill="black"/>
<path d="M100.36 68.34C100.355 69.7416 100.369 71.1489 100.416 72.5498C100.422 72.7197 100.681 72.721 100.681 72.5498C100.684 71.148 100.653 69.7408 100.604 68.34C100.598 68.184 100.361 68.1827 100.36 68.34Z" fill="black"/>
<path d="M100.741 69.1675C101.036 69.41 101.317 69.6668 101.581 69.9422C101.843 70.2143 102.061 70.5449 102.338 70.798C102.435 70.8874 102.58 70.7755 102.519 70.658C102.354 70.3363 102.059 70.0529 101.809 69.7949C101.531 69.5068 101.232 69.2405 100.919 68.9898C100.794 68.8899 100.615 69.0641 100.741 69.1675Z" fill="black"/>
<path d="M123.898 47.0731C124.414 46.6951 125.118 46.6753 125.738 46.8291C125.982 46.8895 126.225 46.9771 126.417 47.1382C126.807 47.4652 126.891 48.1254 126.542 48.4965C126.391 48.6575 126.183 48.7529 125.973 48.8199C125.226 49.0578 124.321 48.939 123.799 48.3543C123.627 48.1623 123.501 47.9155 123.511 47.6582C123.522 47.4011 123.728 47.1977 123.898 47.0731Z" fill="#E56B54"/>
<path d="M115.1 46.1487C115.615 45.7707 116.319 45.7508 116.94 45.9046C117.183 45.965 117.426 46.0527 117.618 46.2138C118.009 46.5407 118.092 47.201 117.743 47.5721C117.592 47.733 117.384 47.8285 117.174 47.8955C116.427 48.1334 115.522 48.0145 115 47.4298C114.828 47.2379 114.702 46.9911 114.713 46.7338C114.724 46.4768 114.93 46.2733 115.1 46.1487Z" fill="#E56B54"/>
<path d="M118.457 49.7525C118.548 50.3327 118.791 50.8608 119.146 51.299C119.448 51.6702 119.874 51.9938 120.352 51.9769C120.549 51.9701 120.74 51.905 120.916 51.8155C121.528 51.5041 121.948 50.8676 122.041 50.1911C122.073 49.9569 122.067 49.7181 122.015 49.4861C120.802 49.481 119.603 49.3677 118.417 49.1699C118.413 49.369 118.427 49.5634 118.457 49.7525Z" fill="white"/>
<path d="M118.456 49.7519C118.547 50.332 118.79 50.8601 119.146 51.2983C119.447 51.6696 119.873 51.9932 120.351 51.9763C120.548 51.9695 120.74 51.9043 120.916 51.8148C121.527 51.5034 121.947 50.8669 122.041 50.1905C122.034 50.1474 122.026 50.1046 122.017 50.0621C120.817 50.0573 119.63 49.9462 118.456 49.7519Z" fill="#E56B54"/>
<path d="M119.069 42.7502C118.516 42.4986 118.061 42.3936 117.454 42.3462C116.965 42.3082 116.391 42.2842 115.991 42.5923C115.906 42.6577 115.918 42.8249 116.049 42.836C116.779 42.8978 117.506 42.9887 118.229 43.1135C118.403 43.1436 119.122 43.3818 119.241 43.0241C119.28 42.9051 119.17 42.7963 119.069 42.7502Z" fill="black"/>
<path d="M124.07 43.3893C124.669 43.2919 125.136 43.3105 125.734 43.4247C126.216 43.5166 126.776 43.6445 127.081 44.0471C127.145 44.1326 127.09 44.2907 126.96 44.2669C126.24 44.1343 125.514 44.0305 124.784 43.9608C124.608 43.9439 123.852 43.9846 123.831 43.6083C123.825 43.483 123.96 43.4071 124.07 43.3893Z" fill="black"/>
<path d="M118.027 45.3136C117.674 45.3641 117.319 45.3382 116.975 45.2464C116.77 45.1917 116.57 45.1104 116.403 44.9797C116.225 44.8401 116.045 44.6078 116.075 44.3688C116.332 44.0871 116.779 44.1024 117.147 44.0284C117.454 43.9669 117.777 43.953 118.068 44.0606C118.348 44.1638 118.828 45.0013 118.834 45.0198C118.835 45.0233 118.385 45.2622 118.027 45.3136Z" fill="white"/>
<path d="M117.069 43.9489C116.901 43.9114 116.719 43.9709 116.59 44.0855C116.461 44.2002 116.382 44.3645 116.351 44.5343C116.333 44.6355 116.33 44.7421 116.365 44.839C116.414 44.9779 116.532 45.0812 116.656 45.1608C116.834 45.2745 117.045 45.3551 117.253 45.3239C117.596 45.2726 117.836 44.9163 117.839 44.5696C117.84 44.4127 117.798 44.2488 117.69 44.1353C117.624 44.066 117.537 44.0195 117.447 43.9863C117.287 43.9272 117.113 43.9075 117.069 43.9489Z" fill="black"/>
<path d="M116.025 43.8197C116.094 43.9208 116.189 44.0244 116.288 44.0966C116.326 44.1249 116.509 44.2028 116.425 44.2716C116.343 44.3389 116.197 44.1994 116.145 44.1455C116.061 44.0577 116.008 43.9576 115.975 43.8411C115.966 43.81 116.008 43.7945 116.025 43.8197Z" fill="black"/>
<path d="M116.398 43.6691C116.437 43.7529 116.485 43.8411 116.543 43.9132C116.573 43.9496 116.611 43.9867 116.656 44.0029C116.698 44.018 116.724 44.0115 116.75 44.0526C116.759 44.0655 116.758 44.0822 116.751 44.0952C116.749 44.0992 116.746 44.1031 116.744 44.1071C116.734 44.1254 116.71 44.1411 116.689 44.1391C116.472 44.1192 116.358 43.897 116.312 43.7059C116.3 43.6564 116.374 43.6186 116.398 43.6691Z" fill="black"/>
<path d="M116.03 44.7489C116.267 44.3222 116.925 43.9665 117.511 44.0498C118.044 44.1256 118.523 44.464 118.712 44.9037C118.784 45.0721 118.935 44.9074 118.867 44.7411C118.65 44.2137 117.968 43.8698 117.338 43.8318C116.687 43.7926 116.063 44.1794 115.898 44.7063C115.876 44.78 115.992 44.8165 116.03 44.7489Z" fill="black"/>
<path d="M125.794 46.2794C125.439 46.3108 125.086 46.2658 124.747 46.1556C124.546 46.09 124.35 45.998 124.19 45.8585C124.02 45.7094 123.853 45.4679 123.895 45.2307C124.168 44.9633 124.613 45.0026 124.985 44.9486C125.294 44.9037 125.618 44.9072 125.903 45.0304C126.177 45.1486 126.611 46.0107 126.615 46.0295C126.616 46.0331 126.155 46.2474 125.794 46.2794Z" fill="white"/>
<path d="M124.912 44.8655C124.746 44.8189 124.56 44.8685 124.425 44.9761C124.29 45.0837 124.203 45.2435 124.163 45.4114C124.139 45.5115 124.131 45.6178 124.16 45.7165C124.202 45.8578 124.314 45.9672 124.434 46.0535C124.605 46.1767 124.811 46.2685 125.021 46.2485C125.366 46.2158 125.625 45.873 125.647 45.527C125.657 45.3703 125.624 45.2045 125.521 45.0852C125.459 45.0125 125.375 44.9613 125.287 44.9234C125.13 44.8555 124.957 44.8265 124.912 44.8655Z" fill="black"/>
<path d="M123.602 45.0489C123.652 45.1112 123.715 45.167 123.775 45.2193C123.809 45.2488 123.848 45.2744 123.887 45.2963C123.923 45.3162 123.952 45.3228 123.974 45.3593C123.988 45.3815 123.982 45.4193 123.956 45.4308C123.866 45.4709 123.764 45.3845 123.702 45.3242C123.63 45.2536 123.585 45.172 123.556 45.0759C123.548 45.0509 123.584 45.027 123.602 45.0489Z" fill="black"/>
<path d="M123.875 44.679C123.94 44.7864 124.031 44.8951 124.128 44.9748C124.164 45.0046 124.335 45.0862 124.253 45.1516C124.169 45.218 124.03 45.0719 123.982 45.0158C123.901 44.9227 123.852 44.8202 123.825 44.7005C123.818 44.6705 123.859 44.6517 123.875 44.679Z" fill="black"/>
<path d="M124.264 44.5584C124.299 44.6448 124.343 44.7372 124.4 44.8116C124.427 44.8475 124.462 44.8809 124.505 44.8973C124.544 44.9126 124.568 44.9095 124.591 44.9492C124.598 44.9622 124.599 44.9789 124.591 44.9919C124.589 44.9953 124.587 44.9989 124.584 45.0024C124.568 45.0292 124.541 45.0365 124.512 45.0323C124.305 45.0021 124.206 44.7651 124.173 44.5839C124.162 44.5234 124.241 44.5024 124.264 44.5584Z" fill="black"/>
<path d="M123.832 45.6068C124.092 45.1937 124.768 44.8739 125.349 44.9887C125.877 45.093 126.337 45.4568 126.502 45.906C126.565 46.0781 126.725 45.9217 126.666 45.7521C126.477 45.2138 125.815 44.8335 125.188 44.7617C124.54 44.6874 123.896 45.04 123.703 45.5573C123.676 45.6296 123.791 45.6723 123.832 45.6068Z" fill="black"/>
<path d="M120.586 44.8637C120.237 45.6541 119.86 46.473 119.623 47.3063C119.478 47.8158 119.899 48.0594 120.318 48.2776C120.486 48.3649 120.615 48.1011 120.448 48.0141C120.09 47.8274 119.847 47.6989 119.947 47.2597C120.008 46.994 120.142 46.7208 120.239 46.4675C120.429 45.9711 120.634 45.4806 120.849 44.9944C120.925 44.8216 120.663 44.6905 120.586 44.8637Z" fill="black"/>
<path d="M134.791 61.7077C134.743 62.7983 134.659 63.9059 134.694 64.9972C134.698 65.1473 134.909 65.1423 134.924 64.9972C135.03 63.9103 135.018 62.7995 135.042 61.7077C135.046 61.5454 134.798 61.5466 134.791 61.7077Z" fill="black"/>
<path d="M111.6 89.837C113.47 91.2554 115.94 91.5912 118.215 91.8233C120.863 92.0934 123.586 92.0462 126.208 91.5717C126.333 91.5491 126.306 91.3307 126.178 91.3473C123.689 91.6695 121.218 91.8173 118.712 91.6067C116.343 91.4075 113.676 91.1007 111.712 89.6456C111.596 89.5603 111.488 89.7521 111.6 89.837Z" fill="black"/>
<path d="M121.794 91.9851C121.612 95.2933 121.539 98.6059 121.543 101.919C121.543 102.09 121.814 102.09 121.813 101.919C121.808 98.606 121.89 95.295 122.027 91.9851C122.033 91.8379 121.802 91.839 121.794 91.9851Z" fill="black"/>
<path d="M120.279 92.2455C120.304 93.8448 120.132 95.4666 120.201 97.0605C120.242 97.9948 120.598 98.893 121.576 99.1473C121.742 99.1905 121.813 98.9332 121.647 98.8906C120.178 98.5127 120.468 96.6944 120.507 95.5478C120.544 94.4469 120.539 93.3461 120.497 92.2455C120.492 92.1061 120.277 92.1048 120.279 92.2455Z" fill="black"/>
<path d="M132.03 91.2042C133.342 93.0917 133.96 95.4476 135.746 96.9864C135.87 97.0933 136.052 96.9128 135.927 96.8058C134.155 95.2899 133.535 92.9504 132.214 91.0964C132.135 90.9857 131.951 91.0906 132.03 91.2042Z" fill="black"/>
<path d="M136.586 82.2224C135.517 83.6055 134.374 84.9707 133.45 86.4569C133.36 86.602 133.59 86.7356 133.679 86.5905C134.593 85.1088 135.73 83.7584 136.765 82.3599C136.841 82.2574 136.665 82.1204 136.586 82.2224Z" fill="black"/>
<path d="M112.966 55.9618C113.047 56.7649 113.228 57.5523 113.554 58.2929C114.957 61.4821 118.52 62.5146 121.783 62.5504C124.883 62.5843 128.258 61.6051 130.073 58.9736C130.137 58.8811 130.201 58.7823 130.21 58.6715C130.223 58.5297 130.146 58.396 130.073 58.2716C129.725 57.6795 129.405 57.0417 129.399 56.3643C129.392 55.687 129.785 54.9649 130.463 54.7747C130.096 54.8777 129.911 53.6064 129.906 53.4316C129.888 52.8182 130.164 52.383 130.411 51.8334C130.967 50.5974 131.406 49.3085 131.694 47.9869C132.311 45.1601 132.322 41.9024 130.815 39.3427C129.431 36.9925 127.04 34.9797 124.234 34.5978C119.028 33.8893 115.082 37.3566 114.413 42.3249C114.137 44.3779 113.746 46.8229 113.566 48.8864C113.427 50.4683 113.098 52.0297 112.966 53.6122C112.901 54.391 112.887 55.1837 112.966 55.9618ZM115.575 49.5054C115.255 48.4569 115.466 47.0082 115.447 45.8855C115.371 41.5207 117.295 38.0954 121.238 38.0563C125.181 38.0172 128.026 41.4238 129.198 45.6855C129.347 46.2304 129.173 46.8128 129.097 47.3663C128.587 51.095 126.166 54.5254 121.742 54.3469C118.12 54.2008 116.5 52.5337 115.575 49.5054Z" fill="black"/>
<path d="M128.316 57.6964C127.772 57.0795 127.363 56.2103 127.663 55.4983C127.693 55.4283 127.73 55.3643 127.772 55.3043C128.353 54.468 130.048 54.5616 130.904 54.5648C131.864 54.5683 132.823 54.5719 133.783 54.5755C134.988 54.5799 136.221 54.5888 137.357 54.9856C138.493 55.3824 139.535 56.2478 139.793 57.4042C139.424 57.2346 139.032 57.101 138.626 57.0722C137.769 57.0117 136.954 57.4188 136.227 57.8681C135.501 58.3174 134.787 58.8307 133.951 59.0247C133.45 59.1412 132.927 59.1362 132.412 59.1155C132.076 59.102 131.736 59.0799 131.399 59.0418C131.325 58.9944 131.251 58.9469 131.177 58.8993C130.488 58.4555 129.188 57.5385 128.316 57.6964Z" fill="black"/>
<path d="M129.089 57.4823C129.186 57.4612 129.285 57.4586 129.386 57.4703C130.266 57.5724 131.24 58.8267 131.769 59.4511C131.825 59.5179 131.882 59.5848 131.938 59.6516C132.497 60.3121 133.056 60.9726 133.615 61.6331C134.388 62.547 135.176 63.4836 135.655 64.5477C136.135 65.6116 136.255 66.8459 135.685 67.638C135.556 67.2716 135.389 66.9063 135.145 66.5844C134.632 65.9052 133.848 65.4989 133.095 65.1815C132.341 64.864 131.555 64.5893 130.894 64.0575C130.497 63.7383 130.164 63.3408 129.845 62.9406C129.36 62.331 128.889 61.6826 128.557 61.0015C128.377 60.6343 128.238 60.2579 128.159 59.8725C127.986 59.0207 128.205 57.6741 129.089 57.4823Z" fill="black"/>
</svg>
