<svg width="165" height="119" viewBox="0 0 165 119" fill="none" xmlns="http://www.w3.org/2000/svg">
<rect x="0.273438" y="0.115356" width="164" height="118" rx="10" fill="#F69F4E"/>
<rect x="0.668129" y="1.26801" width="46.9762" height="48.9548" rx="7" transform="matrix(0.9511 0.308882 -0.282971 0.959128 90.0643 21.413)" fill="#FAFAFA" stroke="#3F3F46" stroke-width="2"/>
<path d="M110.538 37.3367C119.137 40.1296 123.89 49.6768 121.256 58.605C118.622 67.533 109.559 72.5927 100.96 69.8C92.3604 67.0072 87.6073 57.4608 90.2412 48.5326C92.8753 39.6043 101.938 34.5439 110.538 37.3367Z" fill="#FF8C8C" stroke="#3F3F46" stroke-width="2"/>
<path d="M110.256 38.2968C109.526 38.0598 108.793 37.8832 108.06 37.7644C114.759 41.1339 118.274 49.2324 116.011 56.9016C113.748 64.5707 106.488 69.1699 99.1454 67.9792C99.8143 68.3155 100.515 68.6049 101.244 68.8419C109.284 71.4527 117.818 66.7315 120.307 58.2966C122.795 49.8618 118.295 40.9076 110.256 38.2968Z" fill="#FF7878"/>
<path d="M105.097 55.7881C102.858 55.0611 100.482 55.293 98.4066 56.4411C97.4432 56.9741 98.232 58.5356 99.1954 58.0029C100.872 57.0752 102.791 56.8876 104.599 57.4747C106.407 58.0619 107.89 59.3542 108.774 61.1136C109.282 62.1244 110.773 61.3032 110.266 60.2925C109.171 58.1149 107.336 56.5152 105.097 55.7881Z" fill="#3F3F46"/>
<path d="M103.46 51.5974C104.29 51.8669 104.858 50.7522 104.326 50.1533L100.914 46.3101C100.172 45.4736 98.9376 46.6752 99.6802 47.5117L103.092 51.3549C103.196 51.4723 103.323 51.5532 103.46 51.5974Z" fill="#3F3F46"/>
<path d="M113.651 50.446L108.767 51.5949C107.675 51.8517 108.121 53.5573 109.138 53.3179L114.023 52.169C115.086 51.9189 114.715 50.1956 113.651 50.446Z" fill="#3F3F46"/>
<rect x="1.21013" y="0.698266" width="47.9741" height="50.0953" rx="7" transform="matrix(0.962682 -0.270636 0.247447 0.968901 28.1263 47.4416)" fill="#FAFAFA" stroke="#3F3F46" stroke-width="2"/>
<path d="M54.4764 48.8249C63.3482 46.3309 72.3964 51.862 74.7483 61.0699C77.0999 70.2781 71.9 79.8156 63.0281 82.3098C54.1563 84.8037 45.1077 79.2719 42.756 70.0638C40.4047 60.8558 45.6048 51.3191 54.4764 48.8249Z" fill="#A6F5CF" stroke="#3F3F46" stroke-width="2"/>
<path d="M54.7251 49.793C53.9714 50.0049 53.2456 50.2713 52.5504 50.5872C60.0888 49.6738 67.3278 54.6667 69.3506 62.5874C71.3735 70.5081 67.4838 78.6295 60.52 81.793C61.2726 81.7018 62.0282 81.5519 62.7818 81.34C71.0847 79.0059 76.0119 70.0517 73.7871 61.3402C71.5623 52.6286 63.0279 47.4589 54.7251 49.793Z" fill="#8AEDBD"/>
<path d="M54.7219 64.3627C54.8447 64.8436 55.3168 65.1289 55.7761 64.9997C56.2355 64.8706 56.5084 64.3759 56.3856 63.895C55.8939 61.9698 54.0003 60.8234 52.1644 61.3395C50.3285 61.8556 49.235 63.8418 49.7266 65.767C49.8495 66.2479 50.3215 66.5332 50.7809 66.404C51.2403 66.2749 51.5132 65.7802 51.3903 65.2993C51.1439 64.3345 51.6907 63.3396 52.6093 63.0813C53.5278 62.8231 54.4755 63.3979 54.7219 64.3627Z" fill="#3F3F46"/>
<path d="M65.8562 62.1667C66.3156 62.0376 66.5885 61.5429 66.4656 61.062C65.974 59.1368 64.0804 57.9904 62.2445 58.5065C60.4087 59.0226 59.315 61.0088 59.8067 62.934C59.9296 63.4149 60.4016 63.7002 60.861 63.571C61.3204 63.4419 61.5932 62.9472 61.4704 62.4663C61.224 61.5015 61.7708 60.5066 62.6893 60.2483C63.6079 59.9901 64.5556 60.5649 64.802 61.5297C64.9248 62.0106 65.3968 62.2959 65.8562 62.1667Z" fill="#3F3F46"/>
<path d="M60.8894 73.9045C63.2016 73.2545 65.1349 71.6972 66.333 69.5198C66.5706 69.0881 66.4291 68.5368 66.0172 68.2884C65.6052 68.0401 65.0787 68.1887 64.8411 68.6204C63.8731 70.3797 62.3116 71.6378 60.4445 72.1626C58.5775 72.6875 56.6258 72.4171 54.9489 71.4014C54.5374 71.1523 54.0108 71.2996 53.7721 71.7308C53.5337 72.162 53.674 72.7136 54.0855 72.9629C56.1609 74.2201 58.5772 74.5545 60.8894 73.9045Z" fill="#3F3F46"/>
</svg>
