<svg width="36" height="32" viewBox="0 0 36 32" fill="none" xmlns="http://www.w3.org/2000/svg">
<path d="M25.7397 24.7438C26.1394 24.5142 27.0194 23.8168 27.342 22.8644C27.6646 21.9119 27.376 20.863 27.1914 20.4575" stroke="#FAFAFA" stroke-linecap="round"/>
<path d="M27.305 27.8908C28.1448 27.4083 29.994 25.9429 30.6719 23.9415C31.3497 21.94 30.7434 19.7357 30.3555 18.8838" stroke="#FAFAFA" stroke-linecap="round"/>
<path d="M28.5905 31.0292C29.869 30.2946 32.6841 28.0638 33.716 25.0169C34.748 21.97 33.8249 18.6144 33.2344 17.3174" stroke="#FAFAFA" stroke-linecap="round"/>
<path d="M22.7514 17.3461C22.3612 17.3569 22.0506 17.6763 22.0506 18.0666V18.6278C22.0506 18.6917 22.0175 18.7529 21.9595 18.7863L21.6505 18.9614C21.5512 19.0198 21.5291 19.156 21.6036 19.245L21.885 19.5731C21.9457 19.6454 21.9457 19.7538 21.8767 19.8233L21.4657 20.2542C21.4132 20.3154 21.4022 20.4044 21.4436 20.4739C21.634 20.7992 21.7222 21.1411 21.7222 21.472C21.7222 22.6035 20.7235 23.6156 19.4681 23.4209L16.6263 22.9761L16.5459 23.8621C16.4523 24.8924 15.5886 25.6813 14.5541 25.6813H8.51795C7.23093 25.6813 6.29305 24.4821 6.41798 23.2012C6.50359 22.3235 6.5259 21.4223 6.51438 20.3293C6.50335 19.612 6.28537 19.473 5.33075 18.1218C-5.83512 2.33559 16.756 -6.24701 21.8657 7.62917C22.3091 8.82856 22.2102 10.0838 21.8518 11.2919C21.6616 11.933 21.7177 12.6331 22.0914 13.1876L23.6701 15.5306C24.1778 16.2896 23.6591 17.3183 22.7514 17.3461Z" fill="#FAFAFA"/>
</svg>
