<?xml version="1.0" encoding="utf-8"?>
<!-- Generator: Adobe Illustrator 25.4.1, SVG Export Plug-In . SVG Version: 6.00 Build 0)  -->
<svg version="1.1" id="Layer_1" xmlns="http://www.w3.org/2000/svg" xmlns:xlink="http://www.w3.org/1999/xlink" x="0px" y="0px"
	 viewBox="0 0 92.2 300" style="enable-background:new 0 0 92.2 300;" xml:space="preserve">
<style type="text/css">
	.st0{fill:none;stroke:#020203;stroke-width:5;stroke-linecap:round;stroke-linejoin:round;stroke-miterlimit:10;}
</style>
<path class="st0" d="M18.5,3.6c-2.4,42.1-3.7,82.2-5.8,122.9c-1.3,24.4-2.5,52.2-6.2,75.7c0,0,0.5,0.5,0,0"/>
<path class="st0" d="M20.5,3.6c25.6-2.5,45.1,7.2,50.6,34.4c7.6,37.4-4.8,47.1-16.7,55.2c-12.3,8.4-27.3,10.2-38.8,10.7
	c23.9-0.5,53.2,2.9,65.3,31.9c17.8,42.9-18.8,66.7-39,66.7c-7.8,0-35.4-0.2-35.4-0.2"/>
</svg>
